%TF.GenerationSoftware,KiCad,Pcbnew,(5.1.0-0)*%
%TF.CreationDate,2020-07-09T23:17:02+02:00*%
%TF.ProjectId,POxiM-wristcomputer,504f7869-4d2d-4777-9269-7374636f6d70,A*%
%TF.SameCoordinates,Original*%
%TF.FileFunction,Legend,Bot*%
%TF.FilePolarity,Positive*%
%FSLAX46Y46*%
G04 Gerber Fmt 4.6, Leading zero omitted, Abs format (unit mm)*
G04 Created by KiCad (PCBNEW (5.1.0-0)) date 2020-07-09 23:17:02*
%MOMM*%
%LPD*%
G04 APERTURE LIST*
%ADD10C,0.100000*%
%ADD11C,0.250000*%
%ADD12C,0.150000*%
%ADD13C,0.010000*%
%ADD14C,0.120000*%
G04 APERTURE END LIST*
D10*
G36*
X83000000Y-130500000D02*
G01*
X82719496Y-130779773D01*
X82450000Y-130550000D01*
X81850000Y-130550000D01*
X81658401Y-130658874D01*
X81500000Y-130500000D01*
X81500000Y-129400000D01*
X83000000Y-129400000D01*
X83000000Y-130500000D01*
G37*
X83000000Y-130500000D02*
X82719496Y-130779773D01*
X82450000Y-130550000D01*
X81850000Y-130550000D01*
X81658401Y-130658874D01*
X81500000Y-130500000D01*
X81500000Y-129400000D01*
X83000000Y-129400000D01*
X83000000Y-130500000D01*
X82719495Y-130779773D02*
G75*
G03X81658401Y-130658874I-619495J-720227D01*
G01*
X82719495Y-132220227D02*
G75*
G02X81658401Y-132341126I-619495J720227D01*
G01*
X81379772Y-130880507D02*
G75*
G03X81150000Y-131500000I720228J-619493D01*
G01*
X81379772Y-132119493D02*
G75*
G02X81150000Y-131500000I720228J619493D01*
G01*
G36*
X81379772Y-130880507D02*
G01*
X81150000Y-131150000D01*
X81150000Y-131850000D01*
X81379772Y-132119493D01*
X81250000Y-132250000D01*
X80150000Y-132250000D01*
X80150000Y-130750000D01*
X81250000Y-130750000D01*
X81379772Y-130880507D01*
G37*
X81379772Y-130880507D02*
X81150000Y-131150000D01*
X81150000Y-131850000D01*
X81379772Y-132119493D01*
X81250000Y-132250000D01*
X80150000Y-132250000D01*
X80150000Y-130750000D01*
X81250000Y-130750000D01*
X81379772Y-130880507D01*
G36*
X83000000Y-132500000D02*
G01*
X83000000Y-133600000D01*
X81500000Y-133600000D01*
X81500000Y-132500000D01*
X81658401Y-132341126D01*
X81850000Y-132450000D01*
X82450000Y-132450000D01*
X82719496Y-132220227D01*
X83000000Y-132500000D01*
G37*
X83000000Y-132500000D02*
X83000000Y-133600000D01*
X81500000Y-133600000D01*
X81500000Y-132500000D01*
X81658401Y-132341126D01*
X81850000Y-132450000D01*
X82450000Y-132450000D01*
X82719496Y-132220227D01*
X83000000Y-132500000D01*
G36*
X74999094Y-130498561D02*
G01*
X74935762Y-130562709D01*
X74649094Y-130598561D01*
X74299094Y-130880635D01*
X74199094Y-131198561D01*
X73499094Y-130498561D01*
X73499094Y-129398561D01*
X74999094Y-129398561D01*
X74999094Y-130498561D01*
G37*
X74999094Y-130498561D02*
X74935762Y-130562709D01*
X74649094Y-130598561D01*
X74299094Y-130880635D01*
X74199094Y-131198561D01*
X73499094Y-130498561D01*
X73499094Y-129398561D01*
X74999094Y-129398561D01*
X74999094Y-130498561D01*
X74199095Y-131801439D02*
G75*
G03X74936668Y-132435852I900905J301439D01*
G01*
X74199095Y-131198561D02*
G75*
G02X74936668Y-130564148I900905J-301439D01*
G01*
G36*
X76350000Y-132250000D02*
G01*
X75683571Y-132250000D01*
X75850000Y-132100000D01*
X76050000Y-131800000D01*
X76050000Y-131500000D01*
X76350000Y-131500000D01*
X76350000Y-132250000D01*
G37*
X76350000Y-132250000D02*
X75683571Y-132250000D01*
X75850000Y-132100000D01*
X76050000Y-131800000D01*
X76050000Y-131500000D01*
X76350000Y-131500000D01*
X76350000Y-132250000D01*
X75683571Y-132249630D02*
G75*
G03X76050000Y-131500000I-583571J749630D01*
G01*
X75683571Y-130750370D02*
G75*
G02X76050000Y-131500000I-583571J-749630D01*
G01*
G36*
X106500000Y-132500000D02*
G01*
X106500000Y-133600000D01*
X105000000Y-133600000D01*
X105000000Y-132500000D01*
X105750000Y-131750000D01*
X106500000Y-132500000D01*
G37*
X106500000Y-132500000D02*
X106500000Y-133600000D01*
X105000000Y-133600000D01*
X105000000Y-132500000D01*
X105750000Y-131750000D01*
X106500000Y-132500000D01*
G36*
X106500000Y-138500000D02*
G01*
X105750000Y-139250000D01*
X105000000Y-138500000D01*
X105000000Y-137400000D01*
X106500000Y-137400000D01*
X106500000Y-138500000D01*
G37*
X106500000Y-138500000D02*
X105750000Y-139250000D01*
X105000000Y-138500000D01*
X105000000Y-137400000D01*
X106500000Y-137400000D01*
X106500000Y-138500000D01*
G36*
X106500000Y-124500000D02*
G01*
X106500000Y-125600000D01*
X105000000Y-125600000D01*
X105000000Y-124500000D01*
X105750000Y-123750000D01*
X106500000Y-124500000D01*
G37*
X106500000Y-124500000D02*
X106500000Y-125600000D01*
X105000000Y-125600000D01*
X105000000Y-124500000D01*
X105750000Y-123750000D01*
X106500000Y-124500000D01*
G36*
X106500000Y-130500000D02*
G01*
X105750000Y-131250000D01*
X105000000Y-130500000D01*
X105000000Y-129400000D01*
X106500000Y-129400000D01*
X106500000Y-130500000D01*
G37*
X106500000Y-130500000D02*
X105750000Y-131250000D01*
X105000000Y-130500000D01*
X105000000Y-129400000D01*
X106500000Y-129400000D01*
X106500000Y-130500000D01*
D11*
X102035714Y-120178571D02*
X101678571Y-121678571D01*
X101392857Y-120607142D01*
X101107142Y-121678571D01*
X100750000Y-120178571D01*
X100178571Y-121678571D02*
X100178571Y-120678571D01*
X100178571Y-120964285D02*
X100107142Y-120821428D01*
X100035714Y-120750000D01*
X99892857Y-120678571D01*
X99750000Y-120678571D01*
X99250000Y-121678571D02*
X99250000Y-120678571D01*
X99250000Y-120178571D02*
X99321428Y-120250000D01*
X99250000Y-120321428D01*
X99178571Y-120250000D01*
X99250000Y-120178571D01*
X99250000Y-120321428D01*
X98607142Y-121607142D02*
X98464285Y-121678571D01*
X98178571Y-121678571D01*
X98035714Y-121607142D01*
X97964285Y-121464285D01*
X97964285Y-121392857D01*
X98035714Y-121250000D01*
X98178571Y-121178571D01*
X98392857Y-121178571D01*
X98535714Y-121107142D01*
X98607142Y-120964285D01*
X98607142Y-120892857D01*
X98535714Y-120750000D01*
X98392857Y-120678571D01*
X98178571Y-120678571D01*
X98035714Y-120750000D01*
X97535714Y-120678571D02*
X96964285Y-120678571D01*
X97321428Y-120178571D02*
X97321428Y-121464285D01*
X97250000Y-121607142D01*
X97107142Y-121678571D01*
X96964285Y-121678571D01*
X94678571Y-121607142D02*
X94821428Y-121678571D01*
X95107142Y-121678571D01*
X95250000Y-121607142D01*
X95321428Y-121535714D01*
X95392857Y-121392857D01*
X95392857Y-120964285D01*
X95321428Y-120821428D01*
X95250000Y-120750000D01*
X95107142Y-120678571D01*
X94821428Y-120678571D01*
X94678571Y-120750000D01*
X93821428Y-121678571D02*
X93964285Y-121607142D01*
X94035714Y-121535714D01*
X94107142Y-121392857D01*
X94107142Y-120964285D01*
X94035714Y-120821428D01*
X93964285Y-120750000D01*
X93821428Y-120678571D01*
X93607142Y-120678571D01*
X93464285Y-120750000D01*
X93392857Y-120821428D01*
X93321428Y-120964285D01*
X93321428Y-121392857D01*
X93392857Y-121535714D01*
X93464285Y-121607142D01*
X93607142Y-121678571D01*
X93821428Y-121678571D01*
X92678571Y-121678571D02*
X92678571Y-120678571D01*
X92678571Y-120821428D02*
X92607142Y-120750000D01*
X92464285Y-120678571D01*
X92250000Y-120678571D01*
X92107142Y-120750000D01*
X92035714Y-120892857D01*
X92035714Y-121678571D01*
X92035714Y-120892857D02*
X91964285Y-120750000D01*
X91821428Y-120678571D01*
X91607142Y-120678571D01*
X91464285Y-120750000D01*
X91392857Y-120892857D01*
X91392857Y-121678571D01*
X90678571Y-120678571D02*
X90678571Y-122178571D01*
X90678571Y-120750000D02*
X90535714Y-120678571D01*
X90250000Y-120678571D01*
X90107142Y-120750000D01*
X90035714Y-120821428D01*
X89964285Y-120964285D01*
X89964285Y-121392857D01*
X90035714Y-121535714D01*
X90107142Y-121607142D01*
X90250000Y-121678571D01*
X90535714Y-121678571D01*
X90678571Y-121607142D01*
X88678571Y-120678571D02*
X88678571Y-121678571D01*
X89321428Y-120678571D02*
X89321428Y-121464285D01*
X89250000Y-121607142D01*
X89107142Y-121678571D01*
X88892857Y-121678571D01*
X88750000Y-121607142D01*
X88678571Y-121535714D01*
X88178571Y-120678571D02*
X87607142Y-120678571D01*
X87964285Y-120178571D02*
X87964285Y-121464285D01*
X87892857Y-121607142D01*
X87750000Y-121678571D01*
X87607142Y-121678571D01*
X86535714Y-121607142D02*
X86678571Y-121678571D01*
X86964285Y-121678571D01*
X87107142Y-121607142D01*
X87178571Y-121464285D01*
X87178571Y-120892857D01*
X87107142Y-120750000D01*
X86964285Y-120678571D01*
X86678571Y-120678571D01*
X86535714Y-120750000D01*
X86464285Y-120892857D01*
X86464285Y-121035714D01*
X87178571Y-121178571D01*
X85821428Y-121678571D02*
X85821428Y-120678571D01*
X85821428Y-120964285D02*
X85750000Y-120821428D01*
X85678571Y-120750000D01*
X85535714Y-120678571D01*
X85392857Y-120678571D01*
X82892857Y-121678571D02*
X83392857Y-120964285D01*
X83750000Y-121678571D02*
X83750000Y-120178571D01*
X83178571Y-120178571D01*
X83035714Y-120250000D01*
X82964285Y-120321428D01*
X82892857Y-120464285D01*
X82892857Y-120678571D01*
X82964285Y-120821428D01*
X83035714Y-120892857D01*
X83178571Y-120964285D01*
X83750000Y-120964285D01*
X81678571Y-121607142D02*
X81821428Y-121678571D01*
X82107142Y-121678571D01*
X82250000Y-121607142D01*
X82321428Y-121464285D01*
X82321428Y-120892857D01*
X82250000Y-120750000D01*
X82107142Y-120678571D01*
X81821428Y-120678571D01*
X81678571Y-120750000D01*
X81607142Y-120892857D01*
X81607142Y-121035714D01*
X82321428Y-121178571D01*
X81107142Y-120678571D02*
X80750000Y-121678571D01*
X80392857Y-120678571D01*
X78750000Y-121250000D02*
X78035714Y-121250000D01*
X78892857Y-121678571D02*
X78392857Y-120178571D01*
X77892857Y-121678571D01*
D12*
X90438095Y-146561904D02*
X90285714Y-146561904D01*
X90209523Y-146600000D01*
X90133333Y-146676190D01*
X90095238Y-146828571D01*
X90095238Y-147095238D01*
X90133333Y-147247619D01*
X90209523Y-147323809D01*
X90285714Y-147361904D01*
X90438095Y-147361904D01*
X90514285Y-147323809D01*
X90590476Y-147247619D01*
X90628571Y-147095238D01*
X90628571Y-146828571D01*
X90590476Y-146676190D01*
X90514285Y-146600000D01*
X90438095Y-146561904D01*
X89752380Y-146828571D02*
X89752380Y-147361904D01*
X89752380Y-146904761D02*
X89714285Y-146866666D01*
X89638095Y-146828571D01*
X89523809Y-146828571D01*
X89447619Y-146866666D01*
X89409523Y-146942857D01*
X89409523Y-147361904D01*
X79678571Y-116323809D02*
X79564285Y-116361904D01*
X79373809Y-116361904D01*
X79297619Y-116323809D01*
X79259523Y-116285714D01*
X79221428Y-116209523D01*
X79221428Y-116133333D01*
X79259523Y-116057142D01*
X79297619Y-116019047D01*
X79373809Y-115980952D01*
X79526190Y-115942857D01*
X79602380Y-115904761D01*
X79640476Y-115866666D01*
X79678571Y-115790476D01*
X79678571Y-115714285D01*
X79640476Y-115638095D01*
X79602380Y-115600000D01*
X79526190Y-115561904D01*
X79335714Y-115561904D01*
X79221428Y-115600000D01*
X78878571Y-116361904D02*
X78878571Y-115561904D01*
X78573809Y-115561904D01*
X78497619Y-115600000D01*
X78459523Y-115638095D01*
X78421428Y-115714285D01*
X78421428Y-115828571D01*
X78459523Y-115904761D01*
X78497619Y-115942857D01*
X78573809Y-115980952D01*
X78878571Y-115980952D01*
X77926190Y-115561904D02*
X77773809Y-115561904D01*
X77697619Y-115600000D01*
X77621428Y-115676190D01*
X77583333Y-115828571D01*
X77583333Y-116095238D01*
X77621428Y-116247619D01*
X77697619Y-116323809D01*
X77773809Y-116361904D01*
X77926190Y-116361904D01*
X78002380Y-116323809D01*
X78078571Y-116247619D01*
X78116666Y-116095238D01*
X78116666Y-115828571D01*
X78078571Y-115676190D01*
X78002380Y-115600000D01*
X77926190Y-115561904D01*
X77278571Y-115638095D02*
X77240476Y-115600000D01*
X77164285Y-115561904D01*
X76973809Y-115561904D01*
X76897619Y-115600000D01*
X76859523Y-115638095D01*
X76821428Y-115714285D01*
X76821428Y-115790476D01*
X76859523Y-115904761D01*
X77316666Y-116361904D01*
X76821428Y-116361904D01*
X90800000Y-115942857D02*
X90685714Y-115980952D01*
X90647619Y-116019047D01*
X90609523Y-116095238D01*
X90609523Y-116209523D01*
X90647619Y-116285714D01*
X90685714Y-116323809D01*
X90761904Y-116361904D01*
X91066666Y-116361904D01*
X91066666Y-115561904D01*
X90800000Y-115561904D01*
X90723809Y-115600000D01*
X90685714Y-115638095D01*
X90647619Y-115714285D01*
X90647619Y-115790476D01*
X90685714Y-115866666D01*
X90723809Y-115904761D01*
X90800000Y-115942857D01*
X91066666Y-115942857D01*
X90266666Y-116361904D02*
X90266666Y-115561904D01*
X89961904Y-115561904D01*
X89885714Y-115600000D01*
X89847619Y-115638095D01*
X89809523Y-115714285D01*
X89809523Y-115828571D01*
X89847619Y-115904761D01*
X89885714Y-115942857D01*
X89961904Y-115980952D01*
X90266666Y-115980952D01*
X89466666Y-116361904D02*
X89466666Y-115561904D01*
X89200000Y-116133333D01*
X88933333Y-115561904D01*
X88933333Y-116361904D01*
D10*
G36*
X76350000Y-140250000D02*
G01*
X75250000Y-140250000D01*
X74500000Y-139500000D01*
X75250000Y-138750000D01*
X76350000Y-138750000D01*
X76350000Y-140250000D01*
G37*
X76350000Y-140250000D02*
X75250000Y-140250000D01*
X74500000Y-139500000D01*
X75250000Y-138750000D01*
X76350000Y-138750000D01*
X76350000Y-140250000D01*
G36*
X75000000Y-138500000D02*
G01*
X74250000Y-139250000D01*
X73500000Y-138500000D01*
X73500000Y-137400000D01*
X75000000Y-137400000D01*
X75000000Y-138500000D01*
G37*
X75000000Y-138500000D02*
X74250000Y-139250000D01*
X73500000Y-138500000D01*
X73500000Y-137400000D01*
X75000000Y-137400000D01*
X75000000Y-138500000D01*
G36*
X83000000Y-124500000D02*
G01*
X83000000Y-125600000D01*
X81500000Y-125600000D01*
X81500000Y-124500000D01*
X82250000Y-123750000D01*
X83000000Y-124500000D01*
G37*
X83000000Y-124500000D02*
X83000000Y-125600000D01*
X81500000Y-125600000D01*
X81500000Y-124500000D01*
X82250000Y-123750000D01*
X83000000Y-124500000D01*
G36*
X82000000Y-123500000D02*
G01*
X81250000Y-124250000D01*
X80150000Y-124250000D01*
X80150000Y-122750000D01*
X81250000Y-122750000D01*
X82000000Y-123500000D01*
G37*
X82000000Y-123500000D02*
X81250000Y-124250000D01*
X80150000Y-124250000D01*
X80150000Y-122750000D01*
X81250000Y-122750000D01*
X82000000Y-123500000D01*
G36*
X76350000Y-124250000D02*
G01*
X75250000Y-124250000D01*
X74500000Y-123500000D01*
X75250000Y-122750000D01*
X76350000Y-122750000D01*
X76350000Y-124250000D01*
G37*
X76350000Y-124250000D02*
X75250000Y-124250000D01*
X74500000Y-123500000D01*
X75250000Y-122750000D01*
X76350000Y-122750000D01*
X76350000Y-124250000D01*
G36*
X82000000Y-139500000D02*
G01*
X81250000Y-140250000D01*
X80150000Y-140250000D01*
X80150000Y-138750000D01*
X81250000Y-138750000D01*
X82000000Y-139500000D01*
G37*
X82000000Y-139500000D02*
X81250000Y-140250000D01*
X80150000Y-140250000D01*
X80150000Y-138750000D01*
X81250000Y-138750000D01*
X82000000Y-139500000D01*
G36*
X75000000Y-124500000D02*
G01*
X75000000Y-125600000D01*
X73500000Y-125600000D01*
X73500000Y-124500000D01*
X74250000Y-123750000D01*
X75000000Y-124500000D01*
G37*
X75000000Y-124500000D02*
X75000000Y-125600000D01*
X73500000Y-125600000D01*
X73500000Y-124500000D01*
X74250000Y-123750000D01*
X75000000Y-124500000D01*
G36*
X74300000Y-132117926D02*
G01*
X74650000Y-132400000D01*
X74936668Y-132435852D01*
X75000000Y-132500000D01*
X75000000Y-133600000D01*
X73500000Y-133600000D01*
X73500000Y-132500000D01*
X74200000Y-131800000D01*
X74300000Y-132117926D01*
G37*
X74300000Y-132117926D02*
X74650000Y-132400000D01*
X74936668Y-132435852D01*
X75000000Y-132500000D01*
X75000000Y-133600000D01*
X73500000Y-133600000D01*
X73500000Y-132500000D01*
X74200000Y-131800000D01*
X74300000Y-132117926D01*
G36*
X83000000Y-138500000D02*
G01*
X82250000Y-139250000D01*
X81500000Y-138500000D01*
X81500000Y-137400000D01*
X83000000Y-137400000D01*
X83000000Y-138500000D01*
G37*
X83000000Y-138500000D02*
X82250000Y-139250000D01*
X81500000Y-138500000D01*
X81500000Y-137400000D01*
X83000000Y-137400000D01*
X83000000Y-138500000D01*
G36*
X76350000Y-131500000D02*
G01*
X76050000Y-131500000D01*
X76050000Y-131200000D01*
X75850000Y-130850000D01*
X75683571Y-130750000D01*
X76350000Y-130750000D01*
X76350000Y-131500000D01*
G37*
X76350000Y-131500000D02*
X76050000Y-131500000D01*
X76050000Y-131200000D01*
X75850000Y-130850000D01*
X75683571Y-130750000D01*
X76350000Y-130750000D01*
X76350000Y-131500000D01*
G36*
X88100000Y-140250000D02*
G01*
X87000000Y-140250000D01*
X86250000Y-139500000D01*
X87000000Y-138750000D01*
X88100000Y-138750000D01*
X88100000Y-140250000D01*
G37*
X88100000Y-140250000D02*
X87000000Y-140250000D01*
X86250000Y-139500000D01*
X87000000Y-138750000D01*
X88100000Y-138750000D01*
X88100000Y-140250000D01*
G36*
X86750000Y-132500000D02*
G01*
X86750000Y-133600000D01*
X85250000Y-133600000D01*
X85250000Y-132500000D01*
X86000000Y-131750000D01*
X86750000Y-132500000D01*
G37*
X86750000Y-132500000D02*
X86750000Y-133600000D01*
X85250000Y-133600000D01*
X85250000Y-132500000D01*
X86000000Y-131750000D01*
X86750000Y-132500000D01*
G36*
X86750000Y-138500000D02*
G01*
X86000000Y-139250000D01*
X85250000Y-138500000D01*
X85250000Y-137400000D01*
X86750000Y-137400000D01*
X86750000Y-138500000D01*
G37*
X86750000Y-138500000D02*
X86000000Y-139250000D01*
X85250000Y-138500000D01*
X85250000Y-137400000D01*
X86750000Y-137400000D01*
X86750000Y-138500000D01*
G36*
X94750000Y-124500000D02*
G01*
X94750000Y-125600000D01*
X93250000Y-125600000D01*
X93250000Y-124500000D01*
X94000000Y-123750000D01*
X94750000Y-124500000D01*
G37*
X94750000Y-124500000D02*
X94750000Y-125600000D01*
X93250000Y-125600000D01*
X93250000Y-124500000D01*
X94000000Y-123750000D01*
X94750000Y-124500000D01*
G36*
X93750000Y-131500000D02*
G01*
X93000000Y-132250000D01*
X91900000Y-132250000D01*
X91900000Y-130750000D01*
X93000000Y-130750000D01*
X93750000Y-131500000D01*
G37*
X93750000Y-131500000D02*
X93000000Y-132250000D01*
X91900000Y-132250000D01*
X91900000Y-130750000D01*
X93000000Y-130750000D01*
X93750000Y-131500000D01*
G36*
X94750000Y-130500000D02*
G01*
X94000000Y-131250000D01*
X93250000Y-130500000D01*
X93250000Y-129400000D01*
X94750000Y-129400000D01*
X94750000Y-130500000D01*
G37*
X94750000Y-130500000D02*
X94000000Y-131250000D01*
X93250000Y-130500000D01*
X93250000Y-129400000D01*
X94750000Y-129400000D01*
X94750000Y-130500000D01*
G36*
X93750000Y-123500000D02*
G01*
X93000000Y-124250000D01*
X91900000Y-124250000D01*
X91900000Y-122750000D01*
X93000000Y-122750000D01*
X93750000Y-123500000D01*
G37*
X93750000Y-123500000D02*
X93000000Y-124250000D01*
X91900000Y-124250000D01*
X91900000Y-122750000D01*
X93000000Y-122750000D01*
X93750000Y-123500000D01*
G36*
X88100000Y-124250000D02*
G01*
X87000000Y-124250000D01*
X86250000Y-123500000D01*
X87000000Y-122750000D01*
X88100000Y-122750000D01*
X88100000Y-124250000D01*
G37*
X88100000Y-124250000D02*
X87000000Y-124250000D01*
X86250000Y-123500000D01*
X87000000Y-122750000D01*
X88100000Y-122750000D01*
X88100000Y-124250000D01*
G36*
X93750000Y-139500000D02*
G01*
X93000000Y-140250000D01*
X91900000Y-140250000D01*
X91900000Y-138750000D01*
X93000000Y-138750000D01*
X93750000Y-139500000D01*
G37*
X93750000Y-139500000D02*
X93000000Y-140250000D01*
X91900000Y-140250000D01*
X91900000Y-138750000D01*
X93000000Y-138750000D01*
X93750000Y-139500000D01*
G36*
X86750000Y-124500000D02*
G01*
X86750000Y-125600000D01*
X85250000Y-125600000D01*
X85250000Y-124500000D01*
X86000000Y-123750000D01*
X86750000Y-124500000D01*
G37*
X86750000Y-124500000D02*
X86750000Y-125600000D01*
X85250000Y-125600000D01*
X85250000Y-124500000D01*
X86000000Y-123750000D01*
X86750000Y-124500000D01*
G36*
X86750000Y-130500000D02*
G01*
X86000000Y-131250000D01*
X85250000Y-130500000D01*
X85250000Y-129400000D01*
X86750000Y-129400000D01*
X86750000Y-130500000D01*
G37*
X86750000Y-130500000D02*
X86000000Y-131250000D01*
X85250000Y-130500000D01*
X85250000Y-129400000D01*
X86750000Y-129400000D01*
X86750000Y-130500000D01*
G36*
X94750000Y-132500000D02*
G01*
X94750000Y-133600000D01*
X93250000Y-133600000D01*
X93250000Y-132500000D01*
X94000000Y-131750000D01*
X94750000Y-132500000D01*
G37*
X94750000Y-132500000D02*
X94750000Y-133600000D01*
X93250000Y-133600000D01*
X93250000Y-132500000D01*
X94000000Y-131750000D01*
X94750000Y-132500000D01*
G36*
X94750000Y-138500000D02*
G01*
X94000000Y-139250000D01*
X93250000Y-138500000D01*
X93250000Y-137400000D01*
X94750000Y-137400000D01*
X94750000Y-138500000D01*
G37*
X94750000Y-138500000D02*
X94000000Y-139250000D01*
X93250000Y-138500000D01*
X93250000Y-137400000D01*
X94750000Y-137400000D01*
X94750000Y-138500000D01*
G36*
X88100000Y-132250000D02*
G01*
X87000000Y-132250000D01*
X86250000Y-131500000D01*
X87000000Y-130750000D01*
X88100000Y-130750000D01*
X88100000Y-132250000D01*
G37*
X88100000Y-132250000D02*
X87000000Y-132250000D01*
X86250000Y-131500000D01*
X87000000Y-130750000D01*
X88100000Y-130750000D01*
X88100000Y-132250000D01*
G36*
X105500000Y-139500000D02*
G01*
X104750000Y-140250000D01*
X103650000Y-140250000D01*
X103650000Y-138750000D01*
X104750000Y-138750000D01*
X105500000Y-139500000D01*
G37*
X105500000Y-139500000D02*
X104750000Y-140250000D01*
X103650000Y-140250000D01*
X103650000Y-138750000D01*
X104750000Y-138750000D01*
X105500000Y-139500000D01*
G36*
X99850000Y-140250000D02*
G01*
X98750000Y-140250000D01*
X98000000Y-139500000D01*
X98750000Y-138750000D01*
X99850000Y-138750000D01*
X99850000Y-140250000D01*
G37*
X99850000Y-140250000D02*
X98750000Y-140250000D01*
X98000000Y-139500000D01*
X98750000Y-138750000D01*
X99850000Y-138750000D01*
X99850000Y-140250000D01*
G36*
X98500000Y-138500000D02*
G01*
X97750000Y-139250000D01*
X97000000Y-138500000D01*
X97000000Y-137400000D01*
X98500000Y-137400000D01*
X98500000Y-138500000D01*
G37*
X98500000Y-138500000D02*
X97750000Y-139250000D01*
X97000000Y-138500000D01*
X97000000Y-137400000D01*
X98500000Y-137400000D01*
X98500000Y-138500000D01*
G36*
X98500000Y-132500000D02*
G01*
X98500000Y-133600000D01*
X97000000Y-133600000D01*
X97000000Y-132500000D01*
X97750000Y-131750000D01*
X98500000Y-132500000D01*
G37*
X98500000Y-132500000D02*
X98500000Y-133600000D01*
X97000000Y-133600000D01*
X97000000Y-132500000D01*
X97750000Y-131750000D01*
X98500000Y-132500000D01*
G36*
X99850000Y-132250000D02*
G01*
X98750000Y-132250000D01*
X98000000Y-131500000D01*
X98750000Y-130750000D01*
X99850000Y-130750000D01*
X99850000Y-132250000D01*
G37*
X99850000Y-132250000D02*
X98750000Y-132250000D01*
X98000000Y-131500000D01*
X98750000Y-130750000D01*
X99850000Y-130750000D01*
X99850000Y-132250000D01*
G36*
X105500000Y-131500000D02*
G01*
X104750000Y-132250000D01*
X103650000Y-132250000D01*
X103650000Y-130750000D01*
X104750000Y-130750000D01*
X105500000Y-131500000D01*
G37*
X105500000Y-131500000D02*
X104750000Y-132250000D01*
X103650000Y-132250000D01*
X103650000Y-130750000D01*
X104750000Y-130750000D01*
X105500000Y-131500000D01*
G36*
X98500000Y-130500000D02*
G01*
X97750000Y-131250000D01*
X97000000Y-130500000D01*
X97000000Y-129400000D01*
X98500000Y-129400000D01*
X98500000Y-130500000D01*
G37*
X98500000Y-130500000D02*
X97750000Y-131250000D01*
X97000000Y-130500000D01*
X97000000Y-129400000D01*
X98500000Y-129400000D01*
X98500000Y-130500000D01*
G36*
X98500000Y-124500000D02*
G01*
X98500000Y-125600000D01*
X97000000Y-125600000D01*
X97000000Y-124500000D01*
X97750000Y-123750000D01*
X98500000Y-124500000D01*
G37*
X98500000Y-124500000D02*
X98500000Y-125600000D01*
X97000000Y-125600000D01*
X97000000Y-124500000D01*
X97750000Y-123750000D01*
X98500000Y-124500000D01*
G36*
X105500000Y-123500000D02*
G01*
X104750000Y-124250000D01*
X103650000Y-124250000D01*
X103650000Y-122750000D01*
X104750000Y-122750000D01*
X105500000Y-123500000D01*
G37*
X105500000Y-123500000D02*
X104750000Y-124250000D01*
X103650000Y-124250000D01*
X103650000Y-122750000D01*
X104750000Y-122750000D01*
X105500000Y-123500000D01*
G36*
X99850000Y-124250000D02*
G01*
X98750000Y-124250000D01*
X98000000Y-123500000D01*
X98750000Y-122750000D01*
X99850000Y-122750000D01*
X99850000Y-124250000D01*
G37*
X99850000Y-124250000D02*
X98750000Y-124250000D01*
X98000000Y-123500000D01*
X98750000Y-122750000D01*
X99850000Y-122750000D01*
X99850000Y-124250000D01*
D13*
%TO.C,G\002A\002A\002A*%
G36*
X98523053Y-140592280D02*
G01*
X98516192Y-140600494D01*
X98513809Y-140617549D01*
X98518950Y-140647676D01*
X98522989Y-140662682D01*
X98531449Y-140687629D01*
X98542408Y-140709053D01*
X98558715Y-140731064D01*
X98583220Y-140757769D01*
X98602371Y-140777083D01*
X98630317Y-140802703D01*
X98668911Y-140835056D01*
X98714741Y-140871435D01*
X98764396Y-140909134D01*
X98814465Y-140945446D01*
X98815400Y-140946106D01*
X98890841Y-141001340D01*
X98957877Y-141054443D01*
X99015207Y-141104224D01*
X99061529Y-141149491D01*
X99095542Y-141189051D01*
X99115701Y-141221184D01*
X99127173Y-141259176D01*
X99130901Y-141302464D01*
X99126925Y-141344321D01*
X99115289Y-141378021D01*
X99114739Y-141378978D01*
X99092219Y-141409912D01*
X99065732Y-141429226D01*
X99031109Y-141439015D01*
X98990462Y-141441414D01*
X98928340Y-141434155D01*
X98866429Y-141411981D01*
X98803174Y-141374245D01*
X98771011Y-141349708D01*
X98737901Y-141324605D01*
X98714966Y-141312070D01*
X98701770Y-141312568D01*
X98697876Y-141326563D01*
X98702847Y-141354521D01*
X98716246Y-141396907D01*
X98719102Y-141404945D01*
X98760765Y-141504391D01*
X98814568Y-141606653D01*
X98877610Y-141706761D01*
X98946993Y-141799747D01*
X98955226Y-141809733D01*
X99042782Y-141904846D01*
X99133732Y-141984290D01*
X99227615Y-142047731D01*
X99323970Y-142094837D01*
X99374200Y-142112552D01*
X99411517Y-142122374D01*
X99451065Y-142130097D01*
X99489063Y-142135312D01*
X99521735Y-142137608D01*
X99545302Y-142136577D01*
X99555762Y-142132228D01*
X99558623Y-142122155D01*
X99552501Y-142112102D01*
X99535229Y-142100140D01*
X99504637Y-142084340D01*
X99498754Y-142081514D01*
X99449166Y-142051259D01*
X99399040Y-142009074D01*
X99352674Y-141959258D01*
X99314369Y-141906109D01*
X99302518Y-141885357D01*
X99286956Y-141851404D01*
X99271634Y-141810322D01*
X99257277Y-141765138D01*
X99244609Y-141718875D01*
X99234356Y-141674560D01*
X99227244Y-141635217D01*
X99223996Y-141603871D01*
X99225339Y-141583548D01*
X99228792Y-141577811D01*
X99237397Y-141581425D01*
X99250233Y-141596320D01*
X99258381Y-141608939D01*
X99288454Y-141650347D01*
X99327157Y-141689121D01*
X99370831Y-141722697D01*
X99415817Y-141748508D01*
X99458453Y-141763988D01*
X99484267Y-141767304D01*
X99526581Y-141759563D01*
X99563009Y-141738001D01*
X99590888Y-141705420D01*
X99607556Y-141664621D01*
X99611127Y-141633778D01*
X99609831Y-141609823D01*
X99604818Y-141586654D01*
X99594697Y-141561125D01*
X99578078Y-141530084D01*
X99553568Y-141490383D01*
X99535485Y-141462600D01*
X99497759Y-141403511D01*
X99469295Y-141354537D01*
X99448573Y-141312741D01*
X99434070Y-141275183D01*
X99428271Y-141255560D01*
X99421682Y-141225157D01*
X99422109Y-141209920D01*
X99429643Y-141209866D01*
X99444376Y-141225008D01*
X99466401Y-141255362D01*
X99471274Y-141262634D01*
X99497457Y-141297649D01*
X99531264Y-141334640D01*
X99574400Y-141375197D01*
X99628571Y-141420913D01*
X99695482Y-141473379D01*
X99703786Y-141479701D01*
X99778199Y-141538497D01*
X99838759Y-141591613D01*
X99886942Y-141640569D01*
X99924222Y-141686885D01*
X99952074Y-141732081D01*
X99955822Y-141739447D01*
X99968766Y-141766721D01*
X99977737Y-141789846D01*
X99983748Y-141813448D01*
X99987808Y-141842152D01*
X99990930Y-141880584D01*
X99992630Y-141907818D01*
X99997274Y-141964040D01*
X100003414Y-142003406D01*
X100010903Y-142025916D01*
X100019595Y-142031565D01*
X100029343Y-142020353D01*
X100040000Y-141992278D01*
X100051422Y-141947336D01*
X100059252Y-141908727D01*
X100073943Y-141795733D01*
X100073712Y-141690277D01*
X100058238Y-141591319D01*
X100027196Y-141497816D01*
X99980264Y-141408726D01*
X99917118Y-141323006D01*
X99857904Y-141259294D01*
X99765461Y-141178716D01*
X99658363Y-141104999D01*
X99536063Y-141037771D01*
X99522367Y-141031097D01*
X99477549Y-141009761D01*
X99438565Y-140992018D01*
X99402374Y-140976806D01*
X99365936Y-140963066D01*
X99326211Y-140949735D01*
X99280159Y-140935755D01*
X99224740Y-140920063D01*
X99156913Y-140901599D01*
X99132303Y-140894988D01*
X99072805Y-140878761D01*
X99013909Y-140862199D01*
X98959252Y-140846361D01*
X98912469Y-140832307D01*
X98877196Y-140821096D01*
X98868436Y-140818108D01*
X98785841Y-140785235D01*
X98711788Y-140747969D01*
X98648164Y-140707570D01*
X98596854Y-140665300D01*
X98559745Y-140622421D01*
X98548700Y-140604254D01*
X98536134Y-140589918D01*
X98523053Y-140592280D01*
X98523053Y-140592280D01*
G37*
X98523053Y-140592280D02*
X98516192Y-140600494D01*
X98513809Y-140617549D01*
X98518950Y-140647676D01*
X98522989Y-140662682D01*
X98531449Y-140687629D01*
X98542408Y-140709053D01*
X98558715Y-140731064D01*
X98583220Y-140757769D01*
X98602371Y-140777083D01*
X98630317Y-140802703D01*
X98668911Y-140835056D01*
X98714741Y-140871435D01*
X98764396Y-140909134D01*
X98814465Y-140945446D01*
X98815400Y-140946106D01*
X98890841Y-141001340D01*
X98957877Y-141054443D01*
X99015207Y-141104224D01*
X99061529Y-141149491D01*
X99095542Y-141189051D01*
X99115701Y-141221184D01*
X99127173Y-141259176D01*
X99130901Y-141302464D01*
X99126925Y-141344321D01*
X99115289Y-141378021D01*
X99114739Y-141378978D01*
X99092219Y-141409912D01*
X99065732Y-141429226D01*
X99031109Y-141439015D01*
X98990462Y-141441414D01*
X98928340Y-141434155D01*
X98866429Y-141411981D01*
X98803174Y-141374245D01*
X98771011Y-141349708D01*
X98737901Y-141324605D01*
X98714966Y-141312070D01*
X98701770Y-141312568D01*
X98697876Y-141326563D01*
X98702847Y-141354521D01*
X98716246Y-141396907D01*
X98719102Y-141404945D01*
X98760765Y-141504391D01*
X98814568Y-141606653D01*
X98877610Y-141706761D01*
X98946993Y-141799747D01*
X98955226Y-141809733D01*
X99042782Y-141904846D01*
X99133732Y-141984290D01*
X99227615Y-142047731D01*
X99323970Y-142094837D01*
X99374200Y-142112552D01*
X99411517Y-142122374D01*
X99451065Y-142130097D01*
X99489063Y-142135312D01*
X99521735Y-142137608D01*
X99545302Y-142136577D01*
X99555762Y-142132228D01*
X99558623Y-142122155D01*
X99552501Y-142112102D01*
X99535229Y-142100140D01*
X99504637Y-142084340D01*
X99498754Y-142081514D01*
X99449166Y-142051259D01*
X99399040Y-142009074D01*
X99352674Y-141959258D01*
X99314369Y-141906109D01*
X99302518Y-141885357D01*
X99286956Y-141851404D01*
X99271634Y-141810322D01*
X99257277Y-141765138D01*
X99244609Y-141718875D01*
X99234356Y-141674560D01*
X99227244Y-141635217D01*
X99223996Y-141603871D01*
X99225339Y-141583548D01*
X99228792Y-141577811D01*
X99237397Y-141581425D01*
X99250233Y-141596320D01*
X99258381Y-141608939D01*
X99288454Y-141650347D01*
X99327157Y-141689121D01*
X99370831Y-141722697D01*
X99415817Y-141748508D01*
X99458453Y-141763988D01*
X99484267Y-141767304D01*
X99526581Y-141759563D01*
X99563009Y-141738001D01*
X99590888Y-141705420D01*
X99607556Y-141664621D01*
X99611127Y-141633778D01*
X99609831Y-141609823D01*
X99604818Y-141586654D01*
X99594697Y-141561125D01*
X99578078Y-141530084D01*
X99553568Y-141490383D01*
X99535485Y-141462600D01*
X99497759Y-141403511D01*
X99469295Y-141354537D01*
X99448573Y-141312741D01*
X99434070Y-141275183D01*
X99428271Y-141255560D01*
X99421682Y-141225157D01*
X99422109Y-141209920D01*
X99429643Y-141209866D01*
X99444376Y-141225008D01*
X99466401Y-141255362D01*
X99471274Y-141262634D01*
X99497457Y-141297649D01*
X99531264Y-141334640D01*
X99574400Y-141375197D01*
X99628571Y-141420913D01*
X99695482Y-141473379D01*
X99703786Y-141479701D01*
X99778199Y-141538497D01*
X99838759Y-141591613D01*
X99886942Y-141640569D01*
X99924222Y-141686885D01*
X99952074Y-141732081D01*
X99955822Y-141739447D01*
X99968766Y-141766721D01*
X99977737Y-141789846D01*
X99983748Y-141813448D01*
X99987808Y-141842152D01*
X99990930Y-141880584D01*
X99992630Y-141907818D01*
X99997274Y-141964040D01*
X100003414Y-142003406D01*
X100010903Y-142025916D01*
X100019595Y-142031565D01*
X100029343Y-142020353D01*
X100040000Y-141992278D01*
X100051422Y-141947336D01*
X100059252Y-141908727D01*
X100073943Y-141795733D01*
X100073712Y-141690277D01*
X100058238Y-141591319D01*
X100027196Y-141497816D01*
X99980264Y-141408726D01*
X99917118Y-141323006D01*
X99857904Y-141259294D01*
X99765461Y-141178716D01*
X99658363Y-141104999D01*
X99536063Y-141037771D01*
X99522367Y-141031097D01*
X99477549Y-141009761D01*
X99438565Y-140992018D01*
X99402374Y-140976806D01*
X99365936Y-140963066D01*
X99326211Y-140949735D01*
X99280159Y-140935755D01*
X99224740Y-140920063D01*
X99156913Y-140901599D01*
X99132303Y-140894988D01*
X99072805Y-140878761D01*
X99013909Y-140862199D01*
X98959252Y-140846361D01*
X98912469Y-140832307D01*
X98877196Y-140821096D01*
X98868436Y-140818108D01*
X98785841Y-140785235D01*
X98711788Y-140747969D01*
X98648164Y-140707570D01*
X98596854Y-140665300D01*
X98559745Y-140622421D01*
X98548700Y-140604254D01*
X98536134Y-140589918D01*
X98523053Y-140592280D01*
G36*
X92831287Y-142205827D02*
G01*
X92824414Y-142206939D01*
X92786551Y-142213202D01*
X92761385Y-142218844D01*
X92746345Y-142227114D01*
X92738860Y-142241259D01*
X92736359Y-142264529D01*
X92736269Y-142300171D01*
X92736333Y-142318211D01*
X92736333Y-142410682D01*
X92810417Y-142405461D01*
X92880765Y-142404174D01*
X92936937Y-142411331D01*
X92979504Y-142427049D01*
X93003890Y-142445603D01*
X93028433Y-142471196D01*
X93031143Y-142601674D01*
X93033852Y-142732152D01*
X92904143Y-142734493D01*
X92774433Y-142736833D01*
X92771999Y-142815150D01*
X92769564Y-142893467D01*
X93032531Y-142893467D01*
X93034715Y-143390883D01*
X93036900Y-143888300D01*
X93149083Y-143890662D01*
X93261267Y-143893025D01*
X93261267Y-142893467D01*
X93481400Y-142893467D01*
X93481400Y-142732600D01*
X93263187Y-142732600D01*
X93259231Y-142586550D01*
X93257045Y-142523954D01*
X93253828Y-142475065D01*
X93248861Y-142436658D01*
X93241423Y-142405509D01*
X93230795Y-142378394D01*
X93216258Y-142352089D01*
X93202102Y-142330581D01*
X93162275Y-142286867D01*
X93109870Y-142251082D01*
X93047728Y-142224155D01*
X92978689Y-142207017D01*
X92905595Y-142200598D01*
X92831287Y-142205827D01*
X92831287Y-142205827D01*
G37*
X92831287Y-142205827D02*
X92824414Y-142206939D01*
X92786551Y-142213202D01*
X92761385Y-142218844D01*
X92746345Y-142227114D01*
X92738860Y-142241259D01*
X92736359Y-142264529D01*
X92736269Y-142300171D01*
X92736333Y-142318211D01*
X92736333Y-142410682D01*
X92810417Y-142405461D01*
X92880765Y-142404174D01*
X92936937Y-142411331D01*
X92979504Y-142427049D01*
X93003890Y-142445603D01*
X93028433Y-142471196D01*
X93031143Y-142601674D01*
X93033852Y-142732152D01*
X92904143Y-142734493D01*
X92774433Y-142736833D01*
X92771999Y-142815150D01*
X92769564Y-142893467D01*
X93032531Y-142893467D01*
X93034715Y-143390883D01*
X93036900Y-143888300D01*
X93149083Y-143890662D01*
X93261267Y-143893025D01*
X93261267Y-142893467D01*
X93481400Y-142893467D01*
X93481400Y-142732600D01*
X93263187Y-142732600D01*
X93259231Y-142586550D01*
X93257045Y-142523954D01*
X93253828Y-142475065D01*
X93248861Y-142436658D01*
X93241423Y-142405509D01*
X93230795Y-142378394D01*
X93216258Y-142352089D01*
X93202102Y-142330581D01*
X93162275Y-142286867D01*
X93109870Y-142251082D01*
X93047728Y-142224155D01*
X92978689Y-142207017D01*
X92905595Y-142200598D01*
X92831287Y-142205827D01*
G36*
X93718467Y-143892533D02*
G01*
X93938600Y-143892533D01*
X93938600Y-142233067D01*
X93718467Y-142233067D01*
X93718467Y-143892533D01*
X93718467Y-143892533D01*
G37*
X93718467Y-143892533D02*
X93938600Y-143892533D01*
X93938600Y-142233067D01*
X93718467Y-142233067D01*
X93718467Y-143892533D01*
G36*
X96434150Y-142235525D02*
G01*
X96341613Y-142236630D01*
X96264082Y-142237808D01*
X96199633Y-142239234D01*
X96146339Y-142241087D01*
X96102274Y-142243542D01*
X96065512Y-142246778D01*
X96034128Y-142250970D01*
X96006194Y-142256296D01*
X95979786Y-142262934D01*
X95952977Y-142271059D01*
X95923842Y-142280849D01*
X95917652Y-142282993D01*
X95843114Y-142313231D01*
X95777700Y-142350038D01*
X95716028Y-142396824D01*
X95668885Y-142440619D01*
X95634571Y-142475518D01*
X95609148Y-142504174D01*
X95588950Y-142531704D01*
X95570312Y-142563228D01*
X95549568Y-142603863D01*
X95544396Y-142614455D01*
X95501197Y-142716430D01*
X95470947Y-142819422D01*
X95452780Y-142927381D01*
X95445830Y-143044257D01*
X95445701Y-143064422D01*
X95452314Y-143190890D01*
X95471761Y-143309294D01*
X95503587Y-143418830D01*
X95547338Y-143518695D01*
X95602561Y-143608088D01*
X95668802Y-143686206D01*
X95745608Y-143752246D01*
X95832524Y-143805406D01*
X95875879Y-143825356D01*
X95910094Y-143839145D01*
X95942047Y-143850695D01*
X95973661Y-143860227D01*
X96006863Y-143867960D01*
X96043575Y-143874116D01*
X96085723Y-143878913D01*
X96135231Y-143882573D01*
X96194024Y-143885315D01*
X96264027Y-143887360D01*
X96347163Y-143888928D01*
X96442616Y-143890206D01*
X96791866Y-143894351D01*
X96791866Y-143691179D01*
X96563266Y-143691179D01*
X96345250Y-143686989D01*
X96267927Y-143685179D01*
X96205595Y-143682950D01*
X96156311Y-143680174D01*
X96118134Y-143676724D01*
X96089124Y-143672473D01*
X96074230Y-143669211D01*
X95993858Y-143640196D01*
X95919424Y-143596833D01*
X95853497Y-143541210D01*
X95798648Y-143475412D01*
X95765226Y-143418400D01*
X95731494Y-143333167D01*
X95708163Y-143239218D01*
X95695162Y-143139767D01*
X95692417Y-143038030D01*
X95699857Y-142937218D01*
X95717408Y-142840548D01*
X95744999Y-142751232D01*
X95782008Y-142673422D01*
X95808382Y-142635556D01*
X95843949Y-142594228D01*
X95883555Y-142554808D01*
X95922048Y-142522666D01*
X95935769Y-142513183D01*
X95963209Y-142498141D01*
X95999587Y-142481481D01*
X96037637Y-142466497D01*
X96042566Y-142464761D01*
X96063405Y-142457719D01*
X96082033Y-142452212D01*
X96100929Y-142448013D01*
X96122575Y-142444896D01*
X96149450Y-142442637D01*
X96184034Y-142441008D01*
X96228806Y-142439785D01*
X96286247Y-142438742D01*
X96336783Y-142437976D01*
X96563266Y-142434642D01*
X96563266Y-143691179D01*
X96791866Y-143691179D01*
X96791866Y-142231515D01*
X96434150Y-142235525D01*
X96434150Y-142235525D01*
G37*
X96434150Y-142235525D02*
X96341613Y-142236630D01*
X96264082Y-142237808D01*
X96199633Y-142239234D01*
X96146339Y-142241087D01*
X96102274Y-142243542D01*
X96065512Y-142246778D01*
X96034128Y-142250970D01*
X96006194Y-142256296D01*
X95979786Y-142262934D01*
X95952977Y-142271059D01*
X95923842Y-142280849D01*
X95917652Y-142282993D01*
X95843114Y-142313231D01*
X95777700Y-142350038D01*
X95716028Y-142396824D01*
X95668885Y-142440619D01*
X95634571Y-142475518D01*
X95609148Y-142504174D01*
X95588950Y-142531704D01*
X95570312Y-142563228D01*
X95549568Y-142603863D01*
X95544396Y-142614455D01*
X95501197Y-142716430D01*
X95470947Y-142819422D01*
X95452780Y-142927381D01*
X95445830Y-143044257D01*
X95445701Y-143064422D01*
X95452314Y-143190890D01*
X95471761Y-143309294D01*
X95503587Y-143418830D01*
X95547338Y-143518695D01*
X95602561Y-143608088D01*
X95668802Y-143686206D01*
X95745608Y-143752246D01*
X95832524Y-143805406D01*
X95875879Y-143825356D01*
X95910094Y-143839145D01*
X95942047Y-143850695D01*
X95973661Y-143860227D01*
X96006863Y-143867960D01*
X96043575Y-143874116D01*
X96085723Y-143878913D01*
X96135231Y-143882573D01*
X96194024Y-143885315D01*
X96264027Y-143887360D01*
X96347163Y-143888928D01*
X96442616Y-143890206D01*
X96791866Y-143894351D01*
X96791866Y-143691179D01*
X96563266Y-143691179D01*
X96345250Y-143686989D01*
X96267927Y-143685179D01*
X96205595Y-143682950D01*
X96156311Y-143680174D01*
X96118134Y-143676724D01*
X96089124Y-143672473D01*
X96074230Y-143669211D01*
X95993858Y-143640196D01*
X95919424Y-143596833D01*
X95853497Y-143541210D01*
X95798648Y-143475412D01*
X95765226Y-143418400D01*
X95731494Y-143333167D01*
X95708163Y-143239218D01*
X95695162Y-143139767D01*
X95692417Y-143038030D01*
X95699857Y-142937218D01*
X95717408Y-142840548D01*
X95744999Y-142751232D01*
X95782008Y-142673422D01*
X95808382Y-142635556D01*
X95843949Y-142594228D01*
X95883555Y-142554808D01*
X95922048Y-142522666D01*
X95935769Y-142513183D01*
X95963209Y-142498141D01*
X95999587Y-142481481D01*
X96037637Y-142466497D01*
X96042566Y-142464761D01*
X96063405Y-142457719D01*
X96082033Y-142452212D01*
X96100929Y-142448013D01*
X96122575Y-142444896D01*
X96149450Y-142442637D01*
X96184034Y-142441008D01*
X96228806Y-142439785D01*
X96286247Y-142438742D01*
X96336783Y-142437976D01*
X96563266Y-142434642D01*
X96563266Y-143691179D01*
X96791866Y-143691179D01*
X96791866Y-142231515D01*
X96434150Y-142235525D01*
G36*
X99035533Y-142563267D02*
G01*
X99552000Y-142563267D01*
X99552000Y-143892533D01*
X100009200Y-143892533D01*
X100009200Y-142563515D01*
X100265317Y-142561274D01*
X100521433Y-142559033D01*
X100523733Y-142396050D01*
X100526032Y-142233067D01*
X99035533Y-142233067D01*
X99035533Y-142563267D01*
X99035533Y-142563267D01*
G37*
X99035533Y-142563267D02*
X99552000Y-142563267D01*
X99552000Y-143892533D01*
X100009200Y-143892533D01*
X100009200Y-142563515D01*
X100265317Y-142561274D01*
X100521433Y-142559033D01*
X100523733Y-142396050D01*
X100526032Y-142233067D01*
X99035533Y-142233067D01*
X99035533Y-142563267D01*
G36*
X92241120Y-142435842D02*
G01*
X92239359Y-142458112D01*
X92237978Y-142491969D01*
X92237088Y-142534741D01*
X92236800Y-142579985D01*
X92236800Y-142732170D01*
X92103450Y-142734502D01*
X91970100Y-142736833D01*
X91967665Y-142815150D01*
X91965231Y-142893467D01*
X92237446Y-142893467D01*
X92235006Y-143282323D01*
X92234411Y-143373626D01*
X92233826Y-143449529D01*
X92233176Y-143511566D01*
X92232387Y-143561270D01*
X92231386Y-143600174D01*
X92230097Y-143629813D01*
X92228446Y-143651719D01*
X92226360Y-143667426D01*
X92223764Y-143678466D01*
X92220583Y-143686375D01*
X92216745Y-143692684D01*
X92215031Y-143695073D01*
X92193341Y-143719334D01*
X92168208Y-143735247D01*
X92136111Y-143743932D01*
X92093528Y-143746506D01*
X92056883Y-143745344D01*
X91974333Y-143740842D01*
X91974333Y-143907350D01*
X91998990Y-143912281D01*
X92034632Y-143917154D01*
X92080882Y-143920373D01*
X92131479Y-143921791D01*
X92180166Y-143921260D01*
X92220682Y-143918632D01*
X92228333Y-143917695D01*
X92298683Y-143902550D01*
X92355310Y-143878212D01*
X92399018Y-143844188D01*
X92430611Y-143799985D01*
X92435062Y-143790933D01*
X92439024Y-143781836D01*
X92442357Y-143772115D01*
X92445125Y-143760271D01*
X92447392Y-143744806D01*
X92449224Y-143724222D01*
X92450684Y-143697020D01*
X92451837Y-143661702D01*
X92452747Y-143616769D01*
X92453479Y-143560724D01*
X92454097Y-143492067D01*
X92454666Y-143409301D01*
X92455180Y-143323150D01*
X92457660Y-142893467D01*
X92651666Y-142893467D01*
X92651666Y-142732600D01*
X92457398Y-142732600D01*
X92455049Y-142612248D01*
X92452700Y-142491897D01*
X92351100Y-142459881D01*
X92312020Y-142447714D01*
X92278854Y-142437668D01*
X92254903Y-142430722D01*
X92243466Y-142427857D01*
X92243150Y-142427832D01*
X92241120Y-142435842D01*
X92241120Y-142435842D01*
G37*
X92241120Y-142435842D02*
X92239359Y-142458112D01*
X92237978Y-142491969D01*
X92237088Y-142534741D01*
X92236800Y-142579985D01*
X92236800Y-142732170D01*
X92103450Y-142734502D01*
X91970100Y-142736833D01*
X91967665Y-142815150D01*
X91965231Y-142893467D01*
X92237446Y-142893467D01*
X92235006Y-143282323D01*
X92234411Y-143373626D01*
X92233826Y-143449529D01*
X92233176Y-143511566D01*
X92232387Y-143561270D01*
X92231386Y-143600174D01*
X92230097Y-143629813D01*
X92228446Y-143651719D01*
X92226360Y-143667426D01*
X92223764Y-143678466D01*
X92220583Y-143686375D01*
X92216745Y-143692684D01*
X92215031Y-143695073D01*
X92193341Y-143719334D01*
X92168208Y-143735247D01*
X92136111Y-143743932D01*
X92093528Y-143746506D01*
X92056883Y-143745344D01*
X91974333Y-143740842D01*
X91974333Y-143907350D01*
X91998990Y-143912281D01*
X92034632Y-143917154D01*
X92080882Y-143920373D01*
X92131479Y-143921791D01*
X92180166Y-143921260D01*
X92220682Y-143918632D01*
X92228333Y-143917695D01*
X92298683Y-143902550D01*
X92355310Y-143878212D01*
X92399018Y-143844188D01*
X92430611Y-143799985D01*
X92435062Y-143790933D01*
X92439024Y-143781836D01*
X92442357Y-143772115D01*
X92445125Y-143760271D01*
X92447392Y-143744806D01*
X92449224Y-143724222D01*
X92450684Y-143697020D01*
X92451837Y-143661702D01*
X92452747Y-143616769D01*
X92453479Y-143560724D01*
X92454097Y-143492067D01*
X92454666Y-143409301D01*
X92455180Y-143323150D01*
X92457660Y-142893467D01*
X92651666Y-142893467D01*
X92651666Y-142732600D01*
X92457398Y-142732600D01*
X92455049Y-142612248D01*
X92452700Y-142491897D01*
X92351100Y-142459881D01*
X92312020Y-142447714D01*
X92278854Y-142437668D01*
X92254903Y-142430722D01*
X92243466Y-142427857D01*
X92243150Y-142427832D01*
X92241120Y-142435842D01*
G36*
X94605483Y-142710939D02*
G01*
X94519947Y-142731353D01*
X94443042Y-142765762D01*
X94373816Y-142814532D01*
X94344329Y-142841850D01*
X94294854Y-142899687D01*
X94256485Y-142963721D01*
X94228496Y-143035978D01*
X94210163Y-143118482D01*
X94200758Y-143213260D01*
X94199527Y-143246046D01*
X94196833Y-143354900D01*
X94605350Y-143357098D01*
X95013866Y-143359296D01*
X95013571Y-143386731D01*
X95009765Y-143431704D01*
X95000302Y-143484576D01*
X94986866Y-143537985D01*
X94971141Y-143584572D01*
X94965069Y-143598630D01*
X94939789Y-143646252D01*
X94913159Y-143681678D01*
X94881200Y-143709440D01*
X94851584Y-143727823D01*
X94830398Y-143738927D01*
X94811886Y-143746151D01*
X94791467Y-143750322D01*
X94764564Y-143752267D01*
X94726597Y-143752817D01*
X94713300Y-143752833D01*
X94670093Y-143752398D01*
X94638973Y-143750582D01*
X94615102Y-143746619D01*
X94593644Y-143739744D01*
X94572694Y-143730573D01*
X94540008Y-143711679D01*
X94512240Y-143689322D01*
X94502515Y-143678541D01*
X94487661Y-143654609D01*
X94472279Y-143622876D01*
X94458744Y-143589166D01*
X94449428Y-143559302D01*
X94446600Y-143541378D01*
X94444354Y-143536185D01*
X94435986Y-143532567D01*
X94419048Y-143530259D01*
X94391093Y-143528993D01*
X94349674Y-143528504D01*
X94327905Y-143528466D01*
X94209211Y-143528466D01*
X94214454Y-143551750D01*
X94225227Y-143596675D01*
X94235368Y-143630868D01*
X94246940Y-143660312D01*
X94262004Y-143690993D01*
X94263226Y-143693310D01*
X94305693Y-143755992D01*
X94361616Y-143810661D01*
X94428781Y-143855726D01*
X94504976Y-143889594D01*
X94556900Y-143904532D01*
X94591606Y-143910875D01*
X94634384Y-143916292D01*
X94680231Y-143920411D01*
X94724142Y-143922864D01*
X94761112Y-143923278D01*
X94785266Y-143921442D01*
X94805150Y-143917940D01*
X94834296Y-143912784D01*
X94857233Y-143908715D01*
X94927096Y-143888773D01*
X94995595Y-143855336D01*
X95058836Y-143811098D01*
X95112923Y-143758754D01*
X95151732Y-143704929D01*
X95182670Y-143639565D01*
X95207853Y-143562360D01*
X95226415Y-143477685D01*
X95237492Y-143389910D01*
X95240215Y-143303408D01*
X95238540Y-143266810D01*
X95229652Y-143198266D01*
X95005400Y-143198266D01*
X94428448Y-143198266D01*
X94434364Y-143149583D01*
X94450029Y-143068959D01*
X94475763Y-143001922D01*
X94511540Y-142948494D01*
X94557337Y-142908700D01*
X94613127Y-142882562D01*
X94678886Y-142870103D01*
X94737468Y-142869921D01*
X94804491Y-142882147D01*
X94863598Y-142909211D01*
X94914037Y-142950609D01*
X94955060Y-143005834D01*
X94963991Y-143022202D01*
X94981901Y-143064087D01*
X94995932Y-143109886D01*
X95004068Y-143152348D01*
X95005299Y-143170750D01*
X95005400Y-143198266D01*
X95229652Y-143198266D01*
X95224125Y-143155643D01*
X95197672Y-143056076D01*
X95158972Y-142967599D01*
X95107820Y-142889699D01*
X95067881Y-142844580D01*
X95004957Y-142790248D01*
X94936717Y-142749822D01*
X94861177Y-142722543D01*
X94776353Y-142707653D01*
X94700600Y-142704150D01*
X94605483Y-142710939D01*
X94605483Y-142710939D01*
G37*
X94605483Y-142710939D02*
X94519947Y-142731353D01*
X94443042Y-142765762D01*
X94373816Y-142814532D01*
X94344329Y-142841850D01*
X94294854Y-142899687D01*
X94256485Y-142963721D01*
X94228496Y-143035978D01*
X94210163Y-143118482D01*
X94200758Y-143213260D01*
X94199527Y-143246046D01*
X94196833Y-143354900D01*
X94605350Y-143357098D01*
X95013866Y-143359296D01*
X95013571Y-143386731D01*
X95009765Y-143431704D01*
X95000302Y-143484576D01*
X94986866Y-143537985D01*
X94971141Y-143584572D01*
X94965069Y-143598630D01*
X94939789Y-143646252D01*
X94913159Y-143681678D01*
X94881200Y-143709440D01*
X94851584Y-143727823D01*
X94830398Y-143738927D01*
X94811886Y-143746151D01*
X94791467Y-143750322D01*
X94764564Y-143752267D01*
X94726597Y-143752817D01*
X94713300Y-143752833D01*
X94670093Y-143752398D01*
X94638973Y-143750582D01*
X94615102Y-143746619D01*
X94593644Y-143739744D01*
X94572694Y-143730573D01*
X94540008Y-143711679D01*
X94512240Y-143689322D01*
X94502515Y-143678541D01*
X94487661Y-143654609D01*
X94472279Y-143622876D01*
X94458744Y-143589166D01*
X94449428Y-143559302D01*
X94446600Y-143541378D01*
X94444354Y-143536185D01*
X94435986Y-143532567D01*
X94419048Y-143530259D01*
X94391093Y-143528993D01*
X94349674Y-143528504D01*
X94327905Y-143528466D01*
X94209211Y-143528466D01*
X94214454Y-143551750D01*
X94225227Y-143596675D01*
X94235368Y-143630868D01*
X94246940Y-143660312D01*
X94262004Y-143690993D01*
X94263226Y-143693310D01*
X94305693Y-143755992D01*
X94361616Y-143810661D01*
X94428781Y-143855726D01*
X94504976Y-143889594D01*
X94556900Y-143904532D01*
X94591606Y-143910875D01*
X94634384Y-143916292D01*
X94680231Y-143920411D01*
X94724142Y-143922864D01*
X94761112Y-143923278D01*
X94785266Y-143921442D01*
X94805150Y-143917940D01*
X94834296Y-143912784D01*
X94857233Y-143908715D01*
X94927096Y-143888773D01*
X94995595Y-143855336D01*
X95058836Y-143811098D01*
X95112923Y-143758754D01*
X95151732Y-143704929D01*
X95182670Y-143639565D01*
X95207853Y-143562360D01*
X95226415Y-143477685D01*
X95237492Y-143389910D01*
X95240215Y-143303408D01*
X95238540Y-143266810D01*
X95229652Y-143198266D01*
X95005400Y-143198266D01*
X94428448Y-143198266D01*
X94434364Y-143149583D01*
X94450029Y-143068959D01*
X94475763Y-143001922D01*
X94511540Y-142948494D01*
X94557337Y-142908700D01*
X94613127Y-142882562D01*
X94678886Y-142870103D01*
X94737468Y-142869921D01*
X94804491Y-142882147D01*
X94863598Y-142909211D01*
X94914037Y-142950609D01*
X94955060Y-143005834D01*
X94963991Y-143022202D01*
X94981901Y-143064087D01*
X94995932Y-143109886D01*
X95004068Y-143152348D01*
X95005299Y-143170750D01*
X95005400Y-143198266D01*
X95229652Y-143198266D01*
X95224125Y-143155643D01*
X95197672Y-143056076D01*
X95158972Y-142967599D01*
X95107820Y-142889699D01*
X95067881Y-142844580D01*
X95004957Y-142790248D01*
X94936717Y-142749822D01*
X94861177Y-142722543D01*
X94776353Y-142707653D01*
X94700600Y-142704150D01*
X94605483Y-142710939D01*
G36*
X98366617Y-142755747D02*
G01*
X98366480Y-142849850D01*
X98366102Y-142940097D01*
X98365506Y-143024860D01*
X98364715Y-143102511D01*
X98363751Y-143171425D01*
X98362638Y-143229974D01*
X98361398Y-143276530D01*
X98360054Y-143309467D01*
X98358630Y-143327156D01*
X98358577Y-143327491D01*
X98338940Y-143401243D01*
X98306080Y-143464797D01*
X98260427Y-143517567D01*
X98202409Y-143558964D01*
X98181883Y-143569442D01*
X98158976Y-143579417D01*
X98138113Y-143585941D01*
X98114668Y-143589728D01*
X98084013Y-143591497D01*
X98041520Y-143591964D01*
X98036466Y-143591966D01*
X97992494Y-143591586D01*
X97960831Y-143589969D01*
X97936863Y-143586407D01*
X97915972Y-143580188D01*
X97893545Y-143570603D01*
X97891517Y-143569655D01*
X97829992Y-143532468D01*
X97780984Y-143484834D01*
X97754037Y-143444511D01*
X97744873Y-143427119D01*
X97736969Y-143410154D01*
X97730232Y-143392273D01*
X97724569Y-143372132D01*
X97719885Y-143348390D01*
X97716088Y-143319702D01*
X97713084Y-143284727D01*
X97710779Y-143242120D01*
X97709081Y-143190540D01*
X97707895Y-143128643D01*
X97707129Y-143055086D01*
X97706688Y-142968526D01*
X97706480Y-142867621D01*
X97706414Y-142760117D01*
X97706267Y-142233067D01*
X97248518Y-142233067D01*
X97251088Y-142823617D01*
X97251592Y-142941420D01*
X97252077Y-143043615D01*
X97252646Y-143131526D01*
X97253402Y-143206478D01*
X97254449Y-143269796D01*
X97255889Y-143322802D01*
X97257828Y-143366824D01*
X97260367Y-143403183D01*
X97263611Y-143433206D01*
X97267663Y-143458217D01*
X97272626Y-143479540D01*
X97278604Y-143498500D01*
X97285700Y-143516422D01*
X97294018Y-143534629D01*
X97303660Y-143554447D01*
X97309009Y-143565369D01*
X97357896Y-143646660D01*
X97420210Y-143718021D01*
X97495472Y-143779181D01*
X97583197Y-143829866D01*
X97682906Y-143869804D01*
X97794116Y-143898724D01*
X97916345Y-143916352D01*
X97932143Y-143917729D01*
X97978982Y-143921456D01*
X98013994Y-143923793D01*
X98042228Y-143924733D01*
X98068736Y-143924270D01*
X98098565Y-143922397D01*
X98136767Y-143919107D01*
X98155000Y-143917441D01*
X98276007Y-143900080D01*
X98386567Y-143871373D01*
X98486077Y-143831716D01*
X98573936Y-143781506D01*
X98649541Y-143721140D01*
X98712290Y-143651015D01*
X98761582Y-143571529D01*
X98792359Y-143497173D01*
X98800295Y-143471247D01*
X98807146Y-143444010D01*
X98812979Y-143414110D01*
X98817862Y-143380194D01*
X98821863Y-143340907D01*
X98825048Y-143294899D01*
X98827487Y-143240815D01*
X98829245Y-143177303D01*
X98830391Y-143103010D01*
X98830992Y-143016583D01*
X98831116Y-142916669D01*
X98830830Y-142801915D01*
X98830526Y-142732600D01*
X98828100Y-142237300D01*
X98366666Y-142232794D01*
X98366617Y-142755747D01*
X98366617Y-142755747D01*
G37*
X98366617Y-142755747D02*
X98366480Y-142849850D01*
X98366102Y-142940097D01*
X98365506Y-143024860D01*
X98364715Y-143102511D01*
X98363751Y-143171425D01*
X98362638Y-143229974D01*
X98361398Y-143276530D01*
X98360054Y-143309467D01*
X98358630Y-143327156D01*
X98358577Y-143327491D01*
X98338940Y-143401243D01*
X98306080Y-143464797D01*
X98260427Y-143517567D01*
X98202409Y-143558964D01*
X98181883Y-143569442D01*
X98158976Y-143579417D01*
X98138113Y-143585941D01*
X98114668Y-143589728D01*
X98084013Y-143591497D01*
X98041520Y-143591964D01*
X98036466Y-143591966D01*
X97992494Y-143591586D01*
X97960831Y-143589969D01*
X97936863Y-143586407D01*
X97915972Y-143580188D01*
X97893545Y-143570603D01*
X97891517Y-143569655D01*
X97829992Y-143532468D01*
X97780984Y-143484834D01*
X97754037Y-143444511D01*
X97744873Y-143427119D01*
X97736969Y-143410154D01*
X97730232Y-143392273D01*
X97724569Y-143372132D01*
X97719885Y-143348390D01*
X97716088Y-143319702D01*
X97713084Y-143284727D01*
X97710779Y-143242120D01*
X97709081Y-143190540D01*
X97707895Y-143128643D01*
X97707129Y-143055086D01*
X97706688Y-142968526D01*
X97706480Y-142867621D01*
X97706414Y-142760117D01*
X97706267Y-142233067D01*
X97248518Y-142233067D01*
X97251088Y-142823617D01*
X97251592Y-142941420D01*
X97252077Y-143043615D01*
X97252646Y-143131526D01*
X97253402Y-143206478D01*
X97254449Y-143269796D01*
X97255889Y-143322802D01*
X97257828Y-143366824D01*
X97260367Y-143403183D01*
X97263611Y-143433206D01*
X97267663Y-143458217D01*
X97272626Y-143479540D01*
X97278604Y-143498500D01*
X97285700Y-143516422D01*
X97294018Y-143534629D01*
X97303660Y-143554447D01*
X97309009Y-143565369D01*
X97357896Y-143646660D01*
X97420210Y-143718021D01*
X97495472Y-143779181D01*
X97583197Y-143829866D01*
X97682906Y-143869804D01*
X97794116Y-143898724D01*
X97916345Y-143916352D01*
X97932143Y-143917729D01*
X97978982Y-143921456D01*
X98013994Y-143923793D01*
X98042228Y-143924733D01*
X98068736Y-143924270D01*
X98098565Y-143922397D01*
X98136767Y-143919107D01*
X98155000Y-143917441D01*
X98276007Y-143900080D01*
X98386567Y-143871373D01*
X98486077Y-143831716D01*
X98573936Y-143781506D01*
X98649541Y-143721140D01*
X98712290Y-143651015D01*
X98761582Y-143571529D01*
X98792359Y-143497173D01*
X98800295Y-143471247D01*
X98807146Y-143444010D01*
X98812979Y-143414110D01*
X98817862Y-143380194D01*
X98821863Y-143340907D01*
X98825048Y-143294899D01*
X98827487Y-143240815D01*
X98829245Y-143177303D01*
X98830391Y-143103010D01*
X98830992Y-143016583D01*
X98831116Y-142916669D01*
X98830830Y-142801915D01*
X98830526Y-142732600D01*
X98828100Y-142237300D01*
X98366666Y-142232794D01*
X98366617Y-142755747D01*
G36*
X77995678Y-141587399D02*
G01*
X77961666Y-141588024D01*
X77933904Y-141589110D01*
X77911413Y-141590724D01*
X77893217Y-141592933D01*
X77878338Y-141595802D01*
X77865800Y-141599397D01*
X77854624Y-141603786D01*
X77845934Y-141607952D01*
X77816601Y-141627583D01*
X77789809Y-141654150D01*
X77768615Y-141684440D01*
X77763368Y-141694709D01*
X77748740Y-141726380D01*
X77748740Y-143773620D01*
X77763368Y-143805290D01*
X77785436Y-143841334D01*
X77814863Y-143871008D01*
X77850383Y-143893308D01*
X77890729Y-143907229D01*
X77892501Y-143907614D01*
X77907957Y-143909663D01*
X77931371Y-143911251D01*
X77960554Y-143912371D01*
X77993312Y-143913014D01*
X78027456Y-143913174D01*
X78060794Y-143912843D01*
X78091135Y-143912013D01*
X78116288Y-143910677D01*
X78134062Y-143908827D01*
X78136291Y-143908442D01*
X78177636Y-143895606D01*
X78214328Y-143874085D01*
X78245216Y-143844730D01*
X78267813Y-143810987D01*
X78282140Y-143783780D01*
X78283271Y-143527240D01*
X78283441Y-143483764D01*
X78283529Y-143444164D01*
X78283504Y-143407504D01*
X78283340Y-143372846D01*
X78283005Y-143339252D01*
X78282472Y-143305786D01*
X78281711Y-143271509D01*
X78280694Y-143235484D01*
X78279391Y-143196774D01*
X78277774Y-143154442D01*
X78275813Y-143107549D01*
X78273479Y-143055160D01*
X78270744Y-142996336D01*
X78267579Y-142930140D01*
X78263953Y-142855634D01*
X78260013Y-142775400D01*
X78256605Y-142705337D01*
X78253420Y-142638134D01*
X78250485Y-142574488D01*
X78247829Y-142515095D01*
X78245481Y-142460650D01*
X78243467Y-142411849D01*
X78241818Y-142369389D01*
X78240561Y-142333966D01*
X78239725Y-142306275D01*
X78239338Y-142287013D01*
X78239428Y-142276876D01*
X78239643Y-142275462D01*
X78243903Y-142276279D01*
X78248853Y-142284512D01*
X78249246Y-142285511D01*
X78251492Y-142291902D01*
X78256837Y-142307381D01*
X78265102Y-142331419D01*
X78276105Y-142363488D01*
X78289666Y-142403060D01*
X78305604Y-142449608D01*
X78323739Y-142502602D01*
X78343889Y-142561514D01*
X78365875Y-142625817D01*
X78389515Y-142694981D01*
X78414629Y-142768480D01*
X78441035Y-142845784D01*
X78468554Y-142926366D01*
X78497005Y-143009697D01*
X78511496Y-143052148D01*
X78547681Y-143158085D01*
X78580753Y-143254746D01*
X78610837Y-143342485D01*
X78638057Y-143421655D01*
X78662537Y-143492611D01*
X78684402Y-143555706D01*
X78703778Y-143611294D01*
X78720787Y-143659730D01*
X78735556Y-143701367D01*
X78748207Y-143736559D01*
X78758867Y-143765660D01*
X78767660Y-143789024D01*
X78774710Y-143807005D01*
X78780141Y-143819957D01*
X78784079Y-143828234D01*
X78785538Y-143830747D01*
X78810333Y-143860313D01*
X78841884Y-143884855D01*
X78876500Y-143901763D01*
X78888189Y-143905236D01*
X78901866Y-143907726D01*
X78919356Y-143909377D01*
X78942483Y-143910333D01*
X78973071Y-143910738D01*
X78990800Y-143910780D01*
X79022987Y-143910724D01*
X79046933Y-143910402D01*
X79064560Y-143909582D01*
X79077787Y-143908030D01*
X79088534Y-143905514D01*
X79098721Y-143901801D01*
X79110269Y-143896659D01*
X79111310Y-143896179D01*
X79135857Y-143881751D01*
X79160529Y-143862020D01*
X79182305Y-143839778D01*
X79198164Y-143817817D01*
X79200231Y-143813965D01*
X79202686Y-143807541D01*
X79208225Y-143792024D01*
X79216664Y-143767944D01*
X79227824Y-143735830D01*
X79241521Y-143696210D01*
X79257575Y-143649613D01*
X79275805Y-143596568D01*
X79296028Y-143537605D01*
X79318064Y-143473252D01*
X79341730Y-143404037D01*
X79366845Y-143330491D01*
X79393229Y-143253141D01*
X79420698Y-143172517D01*
X79449072Y-143089148D01*
X79463345Y-143047180D01*
X79492035Y-142962841D01*
X79519871Y-142881102D01*
X79546676Y-142802483D01*
X79572270Y-142727503D01*
X79596477Y-142656681D01*
X79619116Y-142590538D01*
X79640011Y-142529591D01*
X79658981Y-142474362D01*
X79675850Y-142425370D01*
X79690439Y-142383133D01*
X79702569Y-142348173D01*
X79712062Y-142321007D01*
X79718740Y-142302157D01*
X79722424Y-142292140D01*
X79723095Y-142290598D01*
X79728496Y-142287731D01*
X79729663Y-142288289D01*
X79729756Y-142293592D01*
X79729369Y-142308365D01*
X79728532Y-142331928D01*
X79727274Y-142363604D01*
X79725627Y-142402714D01*
X79723620Y-142448581D01*
X79721282Y-142500525D01*
X79718645Y-142557869D01*
X79715737Y-142619935D01*
X79712590Y-142686045D01*
X79709232Y-142755520D01*
X79706757Y-142806110D01*
X79702571Y-142891506D01*
X79698875Y-142967630D01*
X79695641Y-143035360D01*
X79692841Y-143095571D01*
X79690447Y-143149140D01*
X79688430Y-143196941D01*
X79686763Y-143239852D01*
X79685416Y-143278747D01*
X79684363Y-143314504D01*
X79683574Y-143347998D01*
X79683022Y-143380105D01*
X79682678Y-143411701D01*
X79682514Y-143443663D01*
X79682502Y-143476865D01*
X79682614Y-143512184D01*
X79682820Y-143550100D01*
X79683164Y-143604284D01*
X79683505Y-143649278D01*
X79683892Y-143686051D01*
X79684372Y-143715572D01*
X79684996Y-143738812D01*
X79685810Y-143756740D01*
X79686864Y-143770324D01*
X79688207Y-143780536D01*
X79689886Y-143788343D01*
X79691951Y-143794716D01*
X79694450Y-143800624D01*
X79695489Y-143802875D01*
X79710045Y-143827124D01*
X79730241Y-143851667D01*
X79753106Y-143873362D01*
X79775672Y-143889062D01*
X79778100Y-143890335D01*
X79797550Y-143898514D01*
X79819667Y-143905584D01*
X79827981Y-143907608D01*
X79842331Y-143909446D01*
X79864720Y-143910875D01*
X79893034Y-143911890D01*
X79925159Y-143912488D01*
X79958983Y-143912664D01*
X79992391Y-143912416D01*
X80023271Y-143911740D01*
X80049508Y-143910631D01*
X80068991Y-143909087D01*
X80076117Y-143908039D01*
X80112251Y-143896048D01*
X80146295Y-143875684D01*
X80175990Y-143848733D01*
X80199074Y-143816980D01*
X80204441Y-143806640D01*
X80217620Y-143778700D01*
X80217620Y-141721300D01*
X80204441Y-141693360D01*
X80182981Y-141659355D01*
X80153469Y-141630016D01*
X80117534Y-141606925D01*
X80113480Y-141604940D01*
X80080460Y-141589220D01*
X79844240Y-141589220D01*
X79789137Y-141589228D01*
X79743226Y-141589282D01*
X79705542Y-141589425D01*
X79675118Y-141589698D01*
X79650987Y-141590146D01*
X79632182Y-141590809D01*
X79617738Y-141591732D01*
X79606686Y-141592956D01*
X79598061Y-141594524D01*
X79590896Y-141596479D01*
X79584224Y-141598864D01*
X79579056Y-141600923D01*
X79548608Y-141617316D01*
X79520492Y-141639971D01*
X79497623Y-141666247D01*
X79486615Y-141684710D01*
X79484128Y-141691459D01*
X79478779Y-141707169D01*
X79470771Y-141731207D01*
X79460309Y-141762937D01*
X79447598Y-141801725D01*
X79432841Y-141846936D01*
X79416242Y-141897935D01*
X79398007Y-141954088D01*
X79378339Y-142014760D01*
X79357443Y-142079317D01*
X79335522Y-142147123D01*
X79312781Y-142217544D01*
X79289425Y-142289945D01*
X79265657Y-142363691D01*
X79241682Y-142438149D01*
X79217703Y-142512683D01*
X79193926Y-142586658D01*
X79170555Y-142659440D01*
X79147793Y-142730394D01*
X79125845Y-142798885D01*
X79104915Y-142864279D01*
X79085208Y-142925941D01*
X79066928Y-142983237D01*
X79050278Y-143035531D01*
X79035464Y-143082189D01*
X79022689Y-143122576D01*
X79012158Y-143156058D01*
X79004075Y-143181999D01*
X78998644Y-143199766D01*
X78996069Y-143208723D01*
X78995880Y-143209658D01*
X78991830Y-143212094D01*
X78989530Y-143212269D01*
X78987108Y-143207468D01*
X78981696Y-143193240D01*
X78973379Y-143169841D01*
X78962242Y-143137527D01*
X78948370Y-143096555D01*
X78931847Y-143047180D01*
X78912760Y-142989658D01*
X78891192Y-142924247D01*
X78867229Y-142851201D01*
X78840955Y-142770778D01*
X78812456Y-142683233D01*
X78781816Y-142588823D01*
X78749121Y-142487804D01*
X78742327Y-142466779D01*
X78714935Y-142382084D01*
X78688236Y-142299700D01*
X78662411Y-142220177D01*
X78637640Y-142144067D01*
X78614105Y-142071920D01*
X78591987Y-142004287D01*
X78571467Y-141941720D01*
X78552727Y-141884769D01*
X78535947Y-141833987D01*
X78521308Y-141789922D01*
X78508992Y-141753128D01*
X78499180Y-141724155D01*
X78492052Y-141703553D01*
X78487791Y-141691874D01*
X78486996Y-141689965D01*
X78466521Y-141657041D01*
X78438440Y-141628562D01*
X78405044Y-141606686D01*
X78392385Y-141600932D01*
X78385130Y-141598102D01*
X78378010Y-141595761D01*
X78370009Y-141593854D01*
X78360111Y-141592327D01*
X78347298Y-141591125D01*
X78330555Y-141590194D01*
X78308866Y-141589478D01*
X78281212Y-141588924D01*
X78246579Y-141588476D01*
X78203949Y-141588080D01*
X78152306Y-141587681D01*
X78144980Y-141587627D01*
X78086358Y-141587266D01*
X78036916Y-141587168D01*
X77995678Y-141587399D01*
X77995678Y-141587399D01*
G37*
X77995678Y-141587399D02*
X77961666Y-141588024D01*
X77933904Y-141589110D01*
X77911413Y-141590724D01*
X77893217Y-141592933D01*
X77878338Y-141595802D01*
X77865800Y-141599397D01*
X77854624Y-141603786D01*
X77845934Y-141607952D01*
X77816601Y-141627583D01*
X77789809Y-141654150D01*
X77768615Y-141684440D01*
X77763368Y-141694709D01*
X77748740Y-141726380D01*
X77748740Y-143773620D01*
X77763368Y-143805290D01*
X77785436Y-143841334D01*
X77814863Y-143871008D01*
X77850383Y-143893308D01*
X77890729Y-143907229D01*
X77892501Y-143907614D01*
X77907957Y-143909663D01*
X77931371Y-143911251D01*
X77960554Y-143912371D01*
X77993312Y-143913014D01*
X78027456Y-143913174D01*
X78060794Y-143912843D01*
X78091135Y-143912013D01*
X78116288Y-143910677D01*
X78134062Y-143908827D01*
X78136291Y-143908442D01*
X78177636Y-143895606D01*
X78214328Y-143874085D01*
X78245216Y-143844730D01*
X78267813Y-143810987D01*
X78282140Y-143783780D01*
X78283271Y-143527240D01*
X78283441Y-143483764D01*
X78283529Y-143444164D01*
X78283504Y-143407504D01*
X78283340Y-143372846D01*
X78283005Y-143339252D01*
X78282472Y-143305786D01*
X78281711Y-143271509D01*
X78280694Y-143235484D01*
X78279391Y-143196774D01*
X78277774Y-143154442D01*
X78275813Y-143107549D01*
X78273479Y-143055160D01*
X78270744Y-142996336D01*
X78267579Y-142930140D01*
X78263953Y-142855634D01*
X78260013Y-142775400D01*
X78256605Y-142705337D01*
X78253420Y-142638134D01*
X78250485Y-142574488D01*
X78247829Y-142515095D01*
X78245481Y-142460650D01*
X78243467Y-142411849D01*
X78241818Y-142369389D01*
X78240561Y-142333966D01*
X78239725Y-142306275D01*
X78239338Y-142287013D01*
X78239428Y-142276876D01*
X78239643Y-142275462D01*
X78243903Y-142276279D01*
X78248853Y-142284512D01*
X78249246Y-142285511D01*
X78251492Y-142291902D01*
X78256837Y-142307381D01*
X78265102Y-142331419D01*
X78276105Y-142363488D01*
X78289666Y-142403060D01*
X78305604Y-142449608D01*
X78323739Y-142502602D01*
X78343889Y-142561514D01*
X78365875Y-142625817D01*
X78389515Y-142694981D01*
X78414629Y-142768480D01*
X78441035Y-142845784D01*
X78468554Y-142926366D01*
X78497005Y-143009697D01*
X78511496Y-143052148D01*
X78547681Y-143158085D01*
X78580753Y-143254746D01*
X78610837Y-143342485D01*
X78638057Y-143421655D01*
X78662537Y-143492611D01*
X78684402Y-143555706D01*
X78703778Y-143611294D01*
X78720787Y-143659730D01*
X78735556Y-143701367D01*
X78748207Y-143736559D01*
X78758867Y-143765660D01*
X78767660Y-143789024D01*
X78774710Y-143807005D01*
X78780141Y-143819957D01*
X78784079Y-143828234D01*
X78785538Y-143830747D01*
X78810333Y-143860313D01*
X78841884Y-143884855D01*
X78876500Y-143901763D01*
X78888189Y-143905236D01*
X78901866Y-143907726D01*
X78919356Y-143909377D01*
X78942483Y-143910333D01*
X78973071Y-143910738D01*
X78990800Y-143910780D01*
X79022987Y-143910724D01*
X79046933Y-143910402D01*
X79064560Y-143909582D01*
X79077787Y-143908030D01*
X79088534Y-143905514D01*
X79098721Y-143901801D01*
X79110269Y-143896659D01*
X79111310Y-143896179D01*
X79135857Y-143881751D01*
X79160529Y-143862020D01*
X79182305Y-143839778D01*
X79198164Y-143817817D01*
X79200231Y-143813965D01*
X79202686Y-143807541D01*
X79208225Y-143792024D01*
X79216664Y-143767944D01*
X79227824Y-143735830D01*
X79241521Y-143696210D01*
X79257575Y-143649613D01*
X79275805Y-143596568D01*
X79296028Y-143537605D01*
X79318064Y-143473252D01*
X79341730Y-143404037D01*
X79366845Y-143330491D01*
X79393229Y-143253141D01*
X79420698Y-143172517D01*
X79449072Y-143089148D01*
X79463345Y-143047180D01*
X79492035Y-142962841D01*
X79519871Y-142881102D01*
X79546676Y-142802483D01*
X79572270Y-142727503D01*
X79596477Y-142656681D01*
X79619116Y-142590538D01*
X79640011Y-142529591D01*
X79658981Y-142474362D01*
X79675850Y-142425370D01*
X79690439Y-142383133D01*
X79702569Y-142348173D01*
X79712062Y-142321007D01*
X79718740Y-142302157D01*
X79722424Y-142292140D01*
X79723095Y-142290598D01*
X79728496Y-142287731D01*
X79729663Y-142288289D01*
X79729756Y-142293592D01*
X79729369Y-142308365D01*
X79728532Y-142331928D01*
X79727274Y-142363604D01*
X79725627Y-142402714D01*
X79723620Y-142448581D01*
X79721282Y-142500525D01*
X79718645Y-142557869D01*
X79715737Y-142619935D01*
X79712590Y-142686045D01*
X79709232Y-142755520D01*
X79706757Y-142806110D01*
X79702571Y-142891506D01*
X79698875Y-142967630D01*
X79695641Y-143035360D01*
X79692841Y-143095571D01*
X79690447Y-143149140D01*
X79688430Y-143196941D01*
X79686763Y-143239852D01*
X79685416Y-143278747D01*
X79684363Y-143314504D01*
X79683574Y-143347998D01*
X79683022Y-143380105D01*
X79682678Y-143411701D01*
X79682514Y-143443663D01*
X79682502Y-143476865D01*
X79682614Y-143512184D01*
X79682820Y-143550100D01*
X79683164Y-143604284D01*
X79683505Y-143649278D01*
X79683892Y-143686051D01*
X79684372Y-143715572D01*
X79684996Y-143738812D01*
X79685810Y-143756740D01*
X79686864Y-143770324D01*
X79688207Y-143780536D01*
X79689886Y-143788343D01*
X79691951Y-143794716D01*
X79694450Y-143800624D01*
X79695489Y-143802875D01*
X79710045Y-143827124D01*
X79730241Y-143851667D01*
X79753106Y-143873362D01*
X79775672Y-143889062D01*
X79778100Y-143890335D01*
X79797550Y-143898514D01*
X79819667Y-143905584D01*
X79827981Y-143907608D01*
X79842331Y-143909446D01*
X79864720Y-143910875D01*
X79893034Y-143911890D01*
X79925159Y-143912488D01*
X79958983Y-143912664D01*
X79992391Y-143912416D01*
X80023271Y-143911740D01*
X80049508Y-143910631D01*
X80068991Y-143909087D01*
X80076117Y-143908039D01*
X80112251Y-143896048D01*
X80146295Y-143875684D01*
X80175990Y-143848733D01*
X80199074Y-143816980D01*
X80204441Y-143806640D01*
X80217620Y-143778700D01*
X80217620Y-141721300D01*
X80204441Y-141693360D01*
X80182981Y-141659355D01*
X80153469Y-141630016D01*
X80117534Y-141606925D01*
X80113480Y-141604940D01*
X80080460Y-141589220D01*
X79844240Y-141589220D01*
X79789137Y-141589228D01*
X79743226Y-141589282D01*
X79705542Y-141589425D01*
X79675118Y-141589698D01*
X79650987Y-141590146D01*
X79632182Y-141590809D01*
X79617738Y-141591732D01*
X79606686Y-141592956D01*
X79598061Y-141594524D01*
X79590896Y-141596479D01*
X79584224Y-141598864D01*
X79579056Y-141600923D01*
X79548608Y-141617316D01*
X79520492Y-141639971D01*
X79497623Y-141666247D01*
X79486615Y-141684710D01*
X79484128Y-141691459D01*
X79478779Y-141707169D01*
X79470771Y-141731207D01*
X79460309Y-141762937D01*
X79447598Y-141801725D01*
X79432841Y-141846936D01*
X79416242Y-141897935D01*
X79398007Y-141954088D01*
X79378339Y-142014760D01*
X79357443Y-142079317D01*
X79335522Y-142147123D01*
X79312781Y-142217544D01*
X79289425Y-142289945D01*
X79265657Y-142363691D01*
X79241682Y-142438149D01*
X79217703Y-142512683D01*
X79193926Y-142586658D01*
X79170555Y-142659440D01*
X79147793Y-142730394D01*
X79125845Y-142798885D01*
X79104915Y-142864279D01*
X79085208Y-142925941D01*
X79066928Y-142983237D01*
X79050278Y-143035531D01*
X79035464Y-143082189D01*
X79022689Y-143122576D01*
X79012158Y-143156058D01*
X79004075Y-143181999D01*
X78998644Y-143199766D01*
X78996069Y-143208723D01*
X78995880Y-143209658D01*
X78991830Y-143212094D01*
X78989530Y-143212269D01*
X78987108Y-143207468D01*
X78981696Y-143193240D01*
X78973379Y-143169841D01*
X78962242Y-143137527D01*
X78948370Y-143096555D01*
X78931847Y-143047180D01*
X78912760Y-142989658D01*
X78891192Y-142924247D01*
X78867229Y-142851201D01*
X78840955Y-142770778D01*
X78812456Y-142683233D01*
X78781816Y-142588823D01*
X78749121Y-142487804D01*
X78742327Y-142466779D01*
X78714935Y-142382084D01*
X78688236Y-142299700D01*
X78662411Y-142220177D01*
X78637640Y-142144067D01*
X78614105Y-142071920D01*
X78591987Y-142004287D01*
X78571467Y-141941720D01*
X78552727Y-141884769D01*
X78535947Y-141833987D01*
X78521308Y-141789922D01*
X78508992Y-141753128D01*
X78499180Y-141724155D01*
X78492052Y-141703553D01*
X78487791Y-141691874D01*
X78486996Y-141689965D01*
X78466521Y-141657041D01*
X78438440Y-141628562D01*
X78405044Y-141606686D01*
X78392385Y-141600932D01*
X78385130Y-141598102D01*
X78378010Y-141595761D01*
X78370009Y-141593854D01*
X78360111Y-141592327D01*
X78347298Y-141591125D01*
X78330555Y-141590194D01*
X78308866Y-141589478D01*
X78281212Y-141588924D01*
X78246579Y-141588476D01*
X78203949Y-141588080D01*
X78152306Y-141587681D01*
X78144980Y-141587627D01*
X78086358Y-141587266D01*
X78036916Y-141587168D01*
X77995678Y-141587399D01*
G36*
X81062200Y-142393136D02*
G01*
X80872877Y-142582373D01*
X80748449Y-142457570D01*
X80715971Y-142425110D01*
X80682851Y-142392219D01*
X80650510Y-142360293D01*
X80620369Y-142330727D01*
X80593849Y-142304920D01*
X80572371Y-142284267D01*
X80564267Y-142276591D01*
X80504513Y-142220416D01*
X80505847Y-142999558D01*
X80507180Y-143778700D01*
X80518449Y-143802875D01*
X80533005Y-143827124D01*
X80553201Y-143851667D01*
X80576066Y-143873362D01*
X80598632Y-143889062D01*
X80601060Y-143890335D01*
X80612593Y-143895791D01*
X80624251Y-143900314D01*
X80637078Y-143903989D01*
X80652122Y-143906899D01*
X80670426Y-143909128D01*
X80693036Y-143910762D01*
X80720998Y-143911883D01*
X80755357Y-143912577D01*
X80797158Y-143912928D01*
X80847447Y-143913019D01*
X80882081Y-143912985D01*
X80936206Y-143912826D01*
X80981139Y-143912519D01*
X81017844Y-143912033D01*
X81047288Y-143911334D01*
X81070438Y-143910390D01*
X81088258Y-143909170D01*
X81101716Y-143907639D01*
X81111777Y-143905766D01*
X81114117Y-143905176D01*
X81154269Y-143889407D01*
X81188842Y-143865590D01*
X81216826Y-143834609D01*
X81237211Y-143797351D01*
X81237261Y-143797227D01*
X81248860Y-143768540D01*
X81250192Y-142986220D01*
X81251523Y-142203900D01*
X81062200Y-142393136D01*
X81062200Y-142393136D01*
G37*
X81062200Y-142393136D02*
X80872877Y-142582373D01*
X80748449Y-142457570D01*
X80715971Y-142425110D01*
X80682851Y-142392219D01*
X80650510Y-142360293D01*
X80620369Y-142330727D01*
X80593849Y-142304920D01*
X80572371Y-142284267D01*
X80564267Y-142276591D01*
X80504513Y-142220416D01*
X80505847Y-142999558D01*
X80507180Y-143778700D01*
X80518449Y-143802875D01*
X80533005Y-143827124D01*
X80553201Y-143851667D01*
X80576066Y-143873362D01*
X80598632Y-143889062D01*
X80601060Y-143890335D01*
X80612593Y-143895791D01*
X80624251Y-143900314D01*
X80637078Y-143903989D01*
X80652122Y-143906899D01*
X80670426Y-143909128D01*
X80693036Y-143910762D01*
X80720998Y-143911883D01*
X80755357Y-143912577D01*
X80797158Y-143912928D01*
X80847447Y-143913019D01*
X80882081Y-143912985D01*
X80936206Y-143912826D01*
X80981139Y-143912519D01*
X81017844Y-143912033D01*
X81047288Y-143911334D01*
X81070438Y-143910390D01*
X81088258Y-143909170D01*
X81101716Y-143907639D01*
X81111777Y-143905766D01*
X81114117Y-143905176D01*
X81154269Y-143889407D01*
X81188842Y-143865590D01*
X81216826Y-143834609D01*
X81237211Y-143797351D01*
X81237261Y-143797227D01*
X81248860Y-143768540D01*
X81250192Y-142986220D01*
X81251523Y-142203900D01*
X81062200Y-142393136D01*
G36*
X81793853Y-141602834D02*
G01*
X81758181Y-141624514D01*
X81727774Y-141652936D01*
X81704710Y-141686059D01*
X81700392Y-141694709D01*
X81692718Y-141713008D01*
X81688269Y-141729238D01*
X81686225Y-141747596D01*
X81685764Y-141769560D01*
X81686235Y-141792792D01*
X81688252Y-141810039D01*
X81692681Y-141825452D01*
X81700384Y-141843184D01*
X81701615Y-141845760D01*
X81706396Y-141854822D01*
X81715897Y-141872019D01*
X81729743Y-141896693D01*
X81747559Y-141928187D01*
X81768969Y-141965846D01*
X81793600Y-142009012D01*
X81821076Y-142057029D01*
X81851023Y-142109240D01*
X81883065Y-142164989D01*
X81916827Y-142223619D01*
X81951935Y-142284474D01*
X81966461Y-142309619D01*
X82215432Y-142740459D01*
X81934925Y-143199215D01*
X81890235Y-143272425D01*
X81848567Y-143340930D01*
X81810154Y-143404339D01*
X81775226Y-143462262D01*
X81744018Y-143514308D01*
X81716762Y-143560087D01*
X81693690Y-143599208D01*
X81675034Y-143631280D01*
X81661027Y-143655914D01*
X81651902Y-143672719D01*
X81647890Y-143681304D01*
X81647823Y-143681528D01*
X81644123Y-143703433D01*
X81643155Y-143730682D01*
X81643646Y-143742770D01*
X81651086Y-143785023D01*
X81667456Y-143822661D01*
X81692376Y-143855135D01*
X81725467Y-143881897D01*
X81749240Y-143895059D01*
X81782260Y-143910780D01*
X81911552Y-143912509D01*
X81959885Y-143912935D01*
X81999409Y-143912693D01*
X82031462Y-143911640D01*
X82057381Y-143909632D01*
X82078504Y-143906526D01*
X82096168Y-143902178D01*
X82111711Y-143896446D01*
X82125861Y-143889515D01*
X82133889Y-143885116D01*
X82141322Y-143880699D01*
X82148436Y-143875772D01*
X82155506Y-143869840D01*
X82162809Y-143862408D01*
X82170621Y-143852984D01*
X82179218Y-143841072D01*
X82188876Y-143826179D01*
X82199872Y-143807810D01*
X82212481Y-143785472D01*
X82226979Y-143758671D01*
X82243643Y-143726912D01*
X82262749Y-143689701D01*
X82284573Y-143646544D01*
X82309391Y-143596948D01*
X82337479Y-143540418D01*
X82369113Y-143476460D01*
X82404569Y-143404580D01*
X82444124Y-143324284D01*
X82461755Y-143288480D01*
X82548059Y-143113220D01*
X82727235Y-143474037D01*
X82761298Y-143542628D01*
X82791198Y-143602733D01*
X82817304Y-143654960D01*
X82839985Y-143699915D01*
X82859612Y-143738205D01*
X82876553Y-143770438D01*
X82891180Y-143797221D01*
X82903862Y-143819160D01*
X82914967Y-143836862D01*
X82924867Y-143850935D01*
X82933931Y-143861985D01*
X82942528Y-143870620D01*
X82951028Y-143877446D01*
X82959801Y-143883070D01*
X82969217Y-143888100D01*
X82979645Y-143893142D01*
X82983680Y-143895059D01*
X83016700Y-143910780D01*
X83141160Y-143911716D01*
X83177076Y-143911794D01*
X83210807Y-143911507D01*
X83240634Y-143910898D01*
X83264836Y-143910011D01*
X83281694Y-143908887D01*
X83287811Y-143908068D01*
X83325734Y-143895222D01*
X83360334Y-143873717D01*
X83389878Y-143844928D01*
X83412633Y-143810230D01*
X83413642Y-143808201D01*
X83424563Y-143777333D01*
X83430031Y-143742692D01*
X83429819Y-143708000D01*
X83423699Y-143676978D01*
X83421933Y-143672020D01*
X83418035Y-143664146D01*
X83409361Y-143648131D01*
X83396268Y-143624601D01*
X83379117Y-143594182D01*
X83358264Y-143557500D01*
X83334069Y-143515181D01*
X83306891Y-143467850D01*
X83277086Y-143416135D01*
X83245014Y-143360660D01*
X83211034Y-143302051D01*
X83175503Y-143240936D01*
X83151407Y-143199580D01*
X83115267Y-143137565D01*
X83080569Y-143077939D01*
X83047658Y-143021300D01*
X83016876Y-142968242D01*
X82988570Y-142919362D01*
X82963082Y-142875255D01*
X82940756Y-142836519D01*
X82921938Y-142803749D01*
X82906971Y-142777541D01*
X82896200Y-142758492D01*
X82889968Y-142747197D01*
X82888489Y-142744216D01*
X82890665Y-142738683D01*
X82897645Y-142724915D01*
X82909123Y-142703460D01*
X82924792Y-142674863D01*
X82944344Y-142639672D01*
X82967473Y-142598431D01*
X82993872Y-142551689D01*
X83023234Y-142499991D01*
X83055251Y-142443883D01*
X83089617Y-142383913D01*
X83126025Y-142320625D01*
X83143073Y-142291071D01*
X83179006Y-142228720D01*
X83213610Y-142168460D01*
X83246532Y-142110922D01*
X83277414Y-142056737D01*
X83305901Y-142006535D01*
X83331639Y-141960947D01*
X83354271Y-141920604D01*
X83373443Y-141886137D01*
X83388798Y-141858175D01*
X83399982Y-141837351D01*
X83406639Y-141824294D01*
X83408332Y-141820392D01*
X83413965Y-141791500D01*
X83414477Y-141758341D01*
X83410114Y-141725275D01*
X83401348Y-141697166D01*
X83384647Y-141669146D01*
X83360889Y-141642058D01*
X83332985Y-141618795D01*
X83307390Y-141603820D01*
X83275780Y-141589220D01*
X83141160Y-141589323D01*
X83099169Y-141589440D01*
X83066029Y-141589767D01*
X83040432Y-141590377D01*
X83021069Y-141591342D01*
X83006634Y-141592735D01*
X82995818Y-141594629D01*
X82987313Y-141597096D01*
X82984895Y-141598008D01*
X82956202Y-141612318D01*
X82929412Y-141630967D01*
X82908047Y-141651385D01*
X82903089Y-141657656D01*
X82898654Y-141665305D01*
X82890223Y-141681359D01*
X82878174Y-141705055D01*
X82862883Y-141735627D01*
X82844728Y-141772309D01*
X82824087Y-141814337D01*
X82801335Y-141860946D01*
X82776850Y-141911371D01*
X82751009Y-141964847D01*
X82724883Y-142019163D01*
X82698365Y-142074378D01*
X82673082Y-142126935D01*
X82649384Y-142176115D01*
X82627621Y-142221196D01*
X82608140Y-142261458D01*
X82591293Y-142296180D01*
X82577426Y-142324642D01*
X82566891Y-142346123D01*
X82560035Y-142359902D01*
X82557208Y-142365259D01*
X82557190Y-142365282D01*
X82554475Y-142361456D01*
X82547686Y-142349174D01*
X82537170Y-142329126D01*
X82523273Y-142302002D01*
X82506342Y-142268493D01*
X82486724Y-142229290D01*
X82464767Y-142185083D01*
X82440817Y-142136563D01*
X82415221Y-142084420D01*
X82388325Y-142029346D01*
X82383894Y-142020246D01*
X82352244Y-141955250D01*
X82324678Y-141898742D01*
X82300851Y-141850066D01*
X82280418Y-141808566D01*
X82263036Y-141773585D01*
X82248359Y-141744468D01*
X82236043Y-141720558D01*
X82225743Y-141701200D01*
X82217116Y-141685736D01*
X82209816Y-141673512D01*
X82203500Y-141663870D01*
X82197821Y-141656155D01*
X82192437Y-141649710D01*
X82187002Y-141643880D01*
X82185434Y-141642277D01*
X82157421Y-141618006D01*
X82128922Y-141602018D01*
X82127014Y-141601233D01*
X82117727Y-141597641D01*
X82108898Y-141594847D01*
X82099138Y-141592751D01*
X82087059Y-141591251D01*
X82071273Y-141590250D01*
X82050391Y-141589646D01*
X82023027Y-141589339D01*
X81987791Y-141589231D01*
X81960060Y-141589220D01*
X81822900Y-141589220D01*
X81793853Y-141602834D01*
X81793853Y-141602834D01*
G37*
X81793853Y-141602834D02*
X81758181Y-141624514D01*
X81727774Y-141652936D01*
X81704710Y-141686059D01*
X81700392Y-141694709D01*
X81692718Y-141713008D01*
X81688269Y-141729238D01*
X81686225Y-141747596D01*
X81685764Y-141769560D01*
X81686235Y-141792792D01*
X81688252Y-141810039D01*
X81692681Y-141825452D01*
X81700384Y-141843184D01*
X81701615Y-141845760D01*
X81706396Y-141854822D01*
X81715897Y-141872019D01*
X81729743Y-141896693D01*
X81747559Y-141928187D01*
X81768969Y-141965846D01*
X81793600Y-142009012D01*
X81821076Y-142057029D01*
X81851023Y-142109240D01*
X81883065Y-142164989D01*
X81916827Y-142223619D01*
X81951935Y-142284474D01*
X81966461Y-142309619D01*
X82215432Y-142740459D01*
X81934925Y-143199215D01*
X81890235Y-143272425D01*
X81848567Y-143340930D01*
X81810154Y-143404339D01*
X81775226Y-143462262D01*
X81744018Y-143514308D01*
X81716762Y-143560087D01*
X81693690Y-143599208D01*
X81675034Y-143631280D01*
X81661027Y-143655914D01*
X81651902Y-143672719D01*
X81647890Y-143681304D01*
X81647823Y-143681528D01*
X81644123Y-143703433D01*
X81643155Y-143730682D01*
X81643646Y-143742770D01*
X81651086Y-143785023D01*
X81667456Y-143822661D01*
X81692376Y-143855135D01*
X81725467Y-143881897D01*
X81749240Y-143895059D01*
X81782260Y-143910780D01*
X81911552Y-143912509D01*
X81959885Y-143912935D01*
X81999409Y-143912693D01*
X82031462Y-143911640D01*
X82057381Y-143909632D01*
X82078504Y-143906526D01*
X82096168Y-143902178D01*
X82111711Y-143896446D01*
X82125861Y-143889515D01*
X82133889Y-143885116D01*
X82141322Y-143880699D01*
X82148436Y-143875772D01*
X82155506Y-143869840D01*
X82162809Y-143862408D01*
X82170621Y-143852984D01*
X82179218Y-143841072D01*
X82188876Y-143826179D01*
X82199872Y-143807810D01*
X82212481Y-143785472D01*
X82226979Y-143758671D01*
X82243643Y-143726912D01*
X82262749Y-143689701D01*
X82284573Y-143646544D01*
X82309391Y-143596948D01*
X82337479Y-143540418D01*
X82369113Y-143476460D01*
X82404569Y-143404580D01*
X82444124Y-143324284D01*
X82461755Y-143288480D01*
X82548059Y-143113220D01*
X82727235Y-143474037D01*
X82761298Y-143542628D01*
X82791198Y-143602733D01*
X82817304Y-143654960D01*
X82839985Y-143699915D01*
X82859612Y-143738205D01*
X82876553Y-143770438D01*
X82891180Y-143797221D01*
X82903862Y-143819160D01*
X82914967Y-143836862D01*
X82924867Y-143850935D01*
X82933931Y-143861985D01*
X82942528Y-143870620D01*
X82951028Y-143877446D01*
X82959801Y-143883070D01*
X82969217Y-143888100D01*
X82979645Y-143893142D01*
X82983680Y-143895059D01*
X83016700Y-143910780D01*
X83141160Y-143911716D01*
X83177076Y-143911794D01*
X83210807Y-143911507D01*
X83240634Y-143910898D01*
X83264836Y-143910011D01*
X83281694Y-143908887D01*
X83287811Y-143908068D01*
X83325734Y-143895222D01*
X83360334Y-143873717D01*
X83389878Y-143844928D01*
X83412633Y-143810230D01*
X83413642Y-143808201D01*
X83424563Y-143777333D01*
X83430031Y-143742692D01*
X83429819Y-143708000D01*
X83423699Y-143676978D01*
X83421933Y-143672020D01*
X83418035Y-143664146D01*
X83409361Y-143648131D01*
X83396268Y-143624601D01*
X83379117Y-143594182D01*
X83358264Y-143557500D01*
X83334069Y-143515181D01*
X83306891Y-143467850D01*
X83277086Y-143416135D01*
X83245014Y-143360660D01*
X83211034Y-143302051D01*
X83175503Y-143240936D01*
X83151407Y-143199580D01*
X83115267Y-143137565D01*
X83080569Y-143077939D01*
X83047658Y-143021300D01*
X83016876Y-142968242D01*
X82988570Y-142919362D01*
X82963082Y-142875255D01*
X82940756Y-142836519D01*
X82921938Y-142803749D01*
X82906971Y-142777541D01*
X82896200Y-142758492D01*
X82889968Y-142747197D01*
X82888489Y-142744216D01*
X82890665Y-142738683D01*
X82897645Y-142724915D01*
X82909123Y-142703460D01*
X82924792Y-142674863D01*
X82944344Y-142639672D01*
X82967473Y-142598431D01*
X82993872Y-142551689D01*
X83023234Y-142499991D01*
X83055251Y-142443883D01*
X83089617Y-142383913D01*
X83126025Y-142320625D01*
X83143073Y-142291071D01*
X83179006Y-142228720D01*
X83213610Y-142168460D01*
X83246532Y-142110922D01*
X83277414Y-142056737D01*
X83305901Y-142006535D01*
X83331639Y-141960947D01*
X83354271Y-141920604D01*
X83373443Y-141886137D01*
X83388798Y-141858175D01*
X83399982Y-141837351D01*
X83406639Y-141824294D01*
X83408332Y-141820392D01*
X83413965Y-141791500D01*
X83414477Y-141758341D01*
X83410114Y-141725275D01*
X83401348Y-141697166D01*
X83384647Y-141669146D01*
X83360889Y-141642058D01*
X83332985Y-141618795D01*
X83307390Y-141603820D01*
X83275780Y-141589220D01*
X83141160Y-141589323D01*
X83099169Y-141589440D01*
X83066029Y-141589767D01*
X83040432Y-141590377D01*
X83021069Y-141591342D01*
X83006634Y-141592735D01*
X82995818Y-141594629D01*
X82987313Y-141597096D01*
X82984895Y-141598008D01*
X82956202Y-141612318D01*
X82929412Y-141630967D01*
X82908047Y-141651385D01*
X82903089Y-141657656D01*
X82898654Y-141665305D01*
X82890223Y-141681359D01*
X82878174Y-141705055D01*
X82862883Y-141735627D01*
X82844728Y-141772309D01*
X82824087Y-141814337D01*
X82801335Y-141860946D01*
X82776850Y-141911371D01*
X82751009Y-141964847D01*
X82724883Y-142019163D01*
X82698365Y-142074378D01*
X82673082Y-142126935D01*
X82649384Y-142176115D01*
X82627621Y-142221196D01*
X82608140Y-142261458D01*
X82591293Y-142296180D01*
X82577426Y-142324642D01*
X82566891Y-142346123D01*
X82560035Y-142359902D01*
X82557208Y-142365259D01*
X82557190Y-142365282D01*
X82554475Y-142361456D01*
X82547686Y-142349174D01*
X82537170Y-142329126D01*
X82523273Y-142302002D01*
X82506342Y-142268493D01*
X82486724Y-142229290D01*
X82464767Y-142185083D01*
X82440817Y-142136563D01*
X82415221Y-142084420D01*
X82388325Y-142029346D01*
X82383894Y-142020246D01*
X82352244Y-141955250D01*
X82324678Y-141898742D01*
X82300851Y-141850066D01*
X82280418Y-141808566D01*
X82263036Y-141773585D01*
X82248359Y-141744468D01*
X82236043Y-141720558D01*
X82225743Y-141701200D01*
X82217116Y-141685736D01*
X82209816Y-141673512D01*
X82203500Y-141663870D01*
X82197821Y-141656155D01*
X82192437Y-141649710D01*
X82187002Y-141643880D01*
X82185434Y-141642277D01*
X82157421Y-141618006D01*
X82128922Y-141602018D01*
X82127014Y-141601233D01*
X82117727Y-141597641D01*
X82108898Y-141594847D01*
X82099138Y-141592751D01*
X82087059Y-141591251D01*
X82071273Y-141590250D01*
X82050391Y-141589646D01*
X82023027Y-141589339D01*
X81987791Y-141589231D01*
X81960060Y-141589220D01*
X81822900Y-141589220D01*
X81793853Y-141602834D01*
G36*
X84609222Y-141588560D02*
G01*
X84506640Y-141597667D01*
X84408396Y-141615755D01*
X84314671Y-141642752D01*
X84225645Y-141678586D01*
X84141500Y-141723187D01*
X84062416Y-141776484D01*
X83988575Y-141838404D01*
X83929664Y-141898208D01*
X83868447Y-141973360D01*
X83815934Y-142053725D01*
X83772163Y-142139219D01*
X83737171Y-142229754D01*
X83710994Y-142325244D01*
X83693670Y-142425603D01*
X83690120Y-142457512D01*
X83688793Y-142476994D01*
X83687658Y-142505259D01*
X83686717Y-142540929D01*
X83685968Y-142582628D01*
X83685412Y-142628981D01*
X83685049Y-142678611D01*
X83684879Y-142730142D01*
X83684902Y-142782198D01*
X83685118Y-142833402D01*
X83685527Y-142882378D01*
X83686128Y-142927750D01*
X83686923Y-142968142D01*
X83687910Y-143002177D01*
X83689091Y-143028480D01*
X83690120Y-143042487D01*
X83704712Y-143145191D01*
X83727996Y-143242641D01*
X83759991Y-143334875D01*
X83800715Y-143421928D01*
X83850186Y-143503836D01*
X83908423Y-143580636D01*
X83975443Y-143652363D01*
X84013727Y-143687630D01*
X84085466Y-143743788D01*
X84163422Y-143792173D01*
X84247110Y-143832648D01*
X84336046Y-143865077D01*
X84429745Y-143889322D01*
X84527723Y-143905247D01*
X84629493Y-143912715D01*
X84734573Y-143911588D01*
X84792160Y-143907393D01*
X84891311Y-143893251D01*
X84986700Y-143869997D01*
X85077868Y-143837879D01*
X85164359Y-143797147D01*
X85245713Y-143748051D01*
X85321472Y-143690840D01*
X85391177Y-143625764D01*
X85454371Y-143553071D01*
X85462537Y-143542480D01*
X85517014Y-143462537D01*
X85562555Y-143377867D01*
X85599195Y-143288381D01*
X85626969Y-143193989D01*
X85645914Y-143094603D01*
X85648072Y-143078669D01*
X85650116Y-143056764D01*
X85651873Y-143026056D01*
X85653343Y-142987865D01*
X85654525Y-142943516D01*
X85655421Y-142894331D01*
X85656031Y-142841633D01*
X85656354Y-142786745D01*
X85656370Y-142762372D01*
X85121660Y-142762372D01*
X85121610Y-142831516D01*
X85120771Y-142892257D01*
X85119102Y-142945462D01*
X85116560Y-142991998D01*
X85113103Y-143032731D01*
X85108688Y-143068527D01*
X85103275Y-143100254D01*
X85099976Y-143115760D01*
X85079407Y-143188428D01*
X85052601Y-143254262D01*
X85019855Y-143312901D01*
X84981467Y-143363989D01*
X84937734Y-143407165D01*
X84888953Y-143442072D01*
X84835423Y-143468352D01*
X84796953Y-143480979D01*
X84775963Y-143486525D01*
X84759289Y-143490490D01*
X84744542Y-143493104D01*
X84729331Y-143494594D01*
X84711266Y-143495190D01*
X84687957Y-143495121D01*
X84657014Y-143494616D01*
X84655000Y-143494579D01*
X84624029Y-143493879D01*
X84600625Y-143492832D01*
X84582196Y-143491076D01*
X84566150Y-143488245D01*
X84549894Y-143483975D01*
X84530835Y-143477902D01*
X84526847Y-143476569D01*
X84470191Y-143452330D01*
X84418707Y-143419485D01*
X84372611Y-143378298D01*
X84332119Y-143329032D01*
X84297447Y-143271951D01*
X84268813Y-143207318D01*
X84246432Y-143135397D01*
X84246245Y-143134661D01*
X84241232Y-143113894D01*
X84236991Y-143093731D01*
X84233461Y-143073122D01*
X84230578Y-143051015D01*
X84228279Y-143026358D01*
X84226502Y-142998099D01*
X84225183Y-142965186D01*
X84224259Y-142926568D01*
X84223668Y-142881193D01*
X84223347Y-142828010D01*
X84223233Y-142765965D01*
X84223229Y-142750000D01*
X84223305Y-142685686D01*
X84223573Y-142630482D01*
X84224097Y-142583339D01*
X84224938Y-142543206D01*
X84226160Y-142509035D01*
X84227824Y-142479775D01*
X84229992Y-142454379D01*
X84232729Y-142431795D01*
X84236095Y-142410975D01*
X84240153Y-142390869D01*
X84244966Y-142370428D01*
X84246070Y-142366027D01*
X84268467Y-142293875D01*
X84297190Y-142229037D01*
X84332029Y-142171754D01*
X84372778Y-142122268D01*
X84419227Y-142080821D01*
X84471168Y-142047656D01*
X84528394Y-142023014D01*
X84546009Y-142017480D01*
X84562625Y-142013018D01*
X84578225Y-142009848D01*
X84595080Y-142007764D01*
X84615460Y-142006561D01*
X84641636Y-142006030D01*
X84672780Y-142005959D01*
X84713689Y-142006515D01*
X84746899Y-142008296D01*
X84774844Y-142011755D01*
X84799956Y-142017346D01*
X84824667Y-142025524D01*
X84851410Y-142036742D01*
X84860740Y-142041023D01*
X84910647Y-142069783D01*
X84956456Y-142107398D01*
X84997644Y-142153214D01*
X85033686Y-142206576D01*
X85064061Y-142266827D01*
X85084314Y-142320740D01*
X85092155Y-142346121D01*
X85098736Y-142370498D01*
X85104181Y-142395094D01*
X85108613Y-142421135D01*
X85112157Y-142449844D01*
X85114935Y-142482447D01*
X85117071Y-142520167D01*
X85118689Y-142564230D01*
X85119912Y-142615860D01*
X85120864Y-142676282D01*
X85120963Y-142683960D01*
X85121660Y-142762372D01*
X85656370Y-142762372D01*
X85656391Y-142730989D01*
X85656142Y-142675688D01*
X85655608Y-142622164D01*
X85654789Y-142571742D01*
X85653684Y-142525742D01*
X85652295Y-142485489D01*
X85650621Y-142452305D01*
X85648664Y-142427511D01*
X85647946Y-142421330D01*
X85630219Y-142321846D01*
X85603646Y-142226693D01*
X85568443Y-142136269D01*
X85524830Y-142050973D01*
X85473022Y-141971205D01*
X85413239Y-141897365D01*
X85345696Y-141829852D01*
X85308774Y-141798343D01*
X85235143Y-141744090D01*
X85158623Y-141698366D01*
X85078445Y-141660897D01*
X84993835Y-141631411D01*
X84904023Y-141609634D01*
X84808238Y-141595293D01*
X84715960Y-141588505D01*
X84609222Y-141588560D01*
X84609222Y-141588560D01*
G37*
X84609222Y-141588560D02*
X84506640Y-141597667D01*
X84408396Y-141615755D01*
X84314671Y-141642752D01*
X84225645Y-141678586D01*
X84141500Y-141723187D01*
X84062416Y-141776484D01*
X83988575Y-141838404D01*
X83929664Y-141898208D01*
X83868447Y-141973360D01*
X83815934Y-142053725D01*
X83772163Y-142139219D01*
X83737171Y-142229754D01*
X83710994Y-142325244D01*
X83693670Y-142425603D01*
X83690120Y-142457512D01*
X83688793Y-142476994D01*
X83687658Y-142505259D01*
X83686717Y-142540929D01*
X83685968Y-142582628D01*
X83685412Y-142628981D01*
X83685049Y-142678611D01*
X83684879Y-142730142D01*
X83684902Y-142782198D01*
X83685118Y-142833402D01*
X83685527Y-142882378D01*
X83686128Y-142927750D01*
X83686923Y-142968142D01*
X83687910Y-143002177D01*
X83689091Y-143028480D01*
X83690120Y-143042487D01*
X83704712Y-143145191D01*
X83727996Y-143242641D01*
X83759991Y-143334875D01*
X83800715Y-143421928D01*
X83850186Y-143503836D01*
X83908423Y-143580636D01*
X83975443Y-143652363D01*
X84013727Y-143687630D01*
X84085466Y-143743788D01*
X84163422Y-143792173D01*
X84247110Y-143832648D01*
X84336046Y-143865077D01*
X84429745Y-143889322D01*
X84527723Y-143905247D01*
X84629493Y-143912715D01*
X84734573Y-143911588D01*
X84792160Y-143907393D01*
X84891311Y-143893251D01*
X84986700Y-143869997D01*
X85077868Y-143837879D01*
X85164359Y-143797147D01*
X85245713Y-143748051D01*
X85321472Y-143690840D01*
X85391177Y-143625764D01*
X85454371Y-143553071D01*
X85462537Y-143542480D01*
X85517014Y-143462537D01*
X85562555Y-143377867D01*
X85599195Y-143288381D01*
X85626969Y-143193989D01*
X85645914Y-143094603D01*
X85648072Y-143078669D01*
X85650116Y-143056764D01*
X85651873Y-143026056D01*
X85653343Y-142987865D01*
X85654525Y-142943516D01*
X85655421Y-142894331D01*
X85656031Y-142841633D01*
X85656354Y-142786745D01*
X85656370Y-142762372D01*
X85121660Y-142762372D01*
X85121610Y-142831516D01*
X85120771Y-142892257D01*
X85119102Y-142945462D01*
X85116560Y-142991998D01*
X85113103Y-143032731D01*
X85108688Y-143068527D01*
X85103275Y-143100254D01*
X85099976Y-143115760D01*
X85079407Y-143188428D01*
X85052601Y-143254262D01*
X85019855Y-143312901D01*
X84981467Y-143363989D01*
X84937734Y-143407165D01*
X84888953Y-143442072D01*
X84835423Y-143468352D01*
X84796953Y-143480979D01*
X84775963Y-143486525D01*
X84759289Y-143490490D01*
X84744542Y-143493104D01*
X84729331Y-143494594D01*
X84711266Y-143495190D01*
X84687957Y-143495121D01*
X84657014Y-143494616D01*
X84655000Y-143494579D01*
X84624029Y-143493879D01*
X84600625Y-143492832D01*
X84582196Y-143491076D01*
X84566150Y-143488245D01*
X84549894Y-143483975D01*
X84530835Y-143477902D01*
X84526847Y-143476569D01*
X84470191Y-143452330D01*
X84418707Y-143419485D01*
X84372611Y-143378298D01*
X84332119Y-143329032D01*
X84297447Y-143271951D01*
X84268813Y-143207318D01*
X84246432Y-143135397D01*
X84246245Y-143134661D01*
X84241232Y-143113894D01*
X84236991Y-143093731D01*
X84233461Y-143073122D01*
X84230578Y-143051015D01*
X84228279Y-143026358D01*
X84226502Y-142998099D01*
X84225183Y-142965186D01*
X84224259Y-142926568D01*
X84223668Y-142881193D01*
X84223347Y-142828010D01*
X84223233Y-142765965D01*
X84223229Y-142750000D01*
X84223305Y-142685686D01*
X84223573Y-142630482D01*
X84224097Y-142583339D01*
X84224938Y-142543206D01*
X84226160Y-142509035D01*
X84227824Y-142479775D01*
X84229992Y-142454379D01*
X84232729Y-142431795D01*
X84236095Y-142410975D01*
X84240153Y-142390869D01*
X84244966Y-142370428D01*
X84246070Y-142366027D01*
X84268467Y-142293875D01*
X84297190Y-142229037D01*
X84332029Y-142171754D01*
X84372778Y-142122268D01*
X84419227Y-142080821D01*
X84471168Y-142047656D01*
X84528394Y-142023014D01*
X84546009Y-142017480D01*
X84562625Y-142013018D01*
X84578225Y-142009848D01*
X84595080Y-142007764D01*
X84615460Y-142006561D01*
X84641636Y-142006030D01*
X84672780Y-142005959D01*
X84713689Y-142006515D01*
X84746899Y-142008296D01*
X84774844Y-142011755D01*
X84799956Y-142017346D01*
X84824667Y-142025524D01*
X84851410Y-142036742D01*
X84860740Y-142041023D01*
X84910647Y-142069783D01*
X84956456Y-142107398D01*
X84997644Y-142153214D01*
X85033686Y-142206576D01*
X85064061Y-142266827D01*
X85084314Y-142320740D01*
X85092155Y-142346121D01*
X85098736Y-142370498D01*
X85104181Y-142395094D01*
X85108613Y-142421135D01*
X85112157Y-142449844D01*
X85114935Y-142482447D01*
X85117071Y-142520167D01*
X85118689Y-142564230D01*
X85119912Y-142615860D01*
X85120864Y-142676282D01*
X85120963Y-142683960D01*
X85121660Y-142762372D01*
X85656370Y-142762372D01*
X85656391Y-142730989D01*
X85656142Y-142675688D01*
X85655608Y-142622164D01*
X85654789Y-142571742D01*
X85653684Y-142525742D01*
X85652295Y-142485489D01*
X85650621Y-142452305D01*
X85648664Y-142427511D01*
X85647946Y-142421330D01*
X85630219Y-142321846D01*
X85603646Y-142226693D01*
X85568443Y-142136269D01*
X85524830Y-142050973D01*
X85473022Y-141971205D01*
X85413239Y-141897365D01*
X85345696Y-141829852D01*
X85308774Y-141798343D01*
X85235143Y-141744090D01*
X85158623Y-141698366D01*
X85078445Y-141660897D01*
X84993835Y-141631411D01*
X84904023Y-141609634D01*
X84808238Y-141595293D01*
X84715960Y-141588505D01*
X84609222Y-141588560D01*
G36*
X87293852Y-141587328D02*
G01*
X87224866Y-141587591D01*
X87146539Y-141587952D01*
X87126420Y-141588049D01*
X87044902Y-141588457D01*
X86972782Y-141588863D01*
X86909298Y-141589312D01*
X86853687Y-141589843D01*
X86805188Y-141590500D01*
X86763039Y-141591325D01*
X86726477Y-141592359D01*
X86694741Y-141593644D01*
X86667068Y-141595223D01*
X86642697Y-141597136D01*
X86620865Y-141599427D01*
X86600811Y-141602137D01*
X86581772Y-141605309D01*
X86562986Y-141608983D01*
X86543691Y-141613202D01*
X86523126Y-141618008D01*
X86505535Y-141622234D01*
X86417488Y-141648041D01*
X86334958Y-141681445D01*
X86258393Y-141722070D01*
X86188238Y-141769539D01*
X86124939Y-141823474D01*
X86068942Y-141883499D01*
X86020693Y-141949237D01*
X85980637Y-142020309D01*
X85951017Y-142091182D01*
X85938807Y-142127699D01*
X85929388Y-142160991D01*
X85922432Y-142193312D01*
X85917608Y-142226917D01*
X85914589Y-142264057D01*
X85913044Y-142306987D01*
X85912642Y-142353760D01*
X85912762Y-142393057D01*
X85913210Y-142424146D01*
X85914120Y-142448980D01*
X85915624Y-142469508D01*
X85917855Y-142487682D01*
X85920944Y-142505452D01*
X85923933Y-142519817D01*
X85944024Y-142595821D01*
X85969953Y-142664674D01*
X86002678Y-142728137D01*
X86043157Y-142787969D01*
X86092346Y-142845930D01*
X86112849Y-142867156D01*
X86172570Y-142921513D01*
X86236431Y-142968586D01*
X86305248Y-143008759D01*
X86379837Y-143042416D01*
X86461013Y-143069939D01*
X86549592Y-143091712D01*
X86616204Y-143103700D01*
X86630607Y-143105658D01*
X86647487Y-143107344D01*
X86667756Y-143108790D01*
X86692328Y-143110026D01*
X86722113Y-143111081D01*
X86758026Y-143111985D01*
X86800978Y-143112769D01*
X86851882Y-143113462D01*
X86911650Y-143114096D01*
X86939591Y-143114351D01*
X87209961Y-143116724D01*
X87211371Y-143450252D01*
X87212780Y-143783780D01*
X87227108Y-143810987D01*
X87251541Y-143846891D01*
X87282848Y-143875756D01*
X87319881Y-143896730D01*
X87358630Y-143908442D01*
X87374879Y-143910379D01*
X87398768Y-143911755D01*
X87428196Y-143912589D01*
X87461061Y-143912898D01*
X87495262Y-143912704D01*
X87528697Y-143912024D01*
X87559265Y-143910878D01*
X87584863Y-143909284D01*
X87603390Y-143907262D01*
X87609020Y-143906178D01*
X87648987Y-143891263D01*
X87683912Y-143867987D01*
X87712567Y-143837362D01*
X87731553Y-143805290D01*
X87746180Y-143773620D01*
X87746180Y-142699733D01*
X87210240Y-142699733D01*
X86962590Y-142697967D01*
X86905901Y-142697549D01*
X86858397Y-142697143D01*
X86819103Y-142696705D01*
X86787044Y-142696189D01*
X86761247Y-142695549D01*
X86740735Y-142694740D01*
X86724534Y-142693717D01*
X86711669Y-142692433D01*
X86701167Y-142690844D01*
X86692051Y-142688903D01*
X86683347Y-142686566D01*
X86676877Y-142684640D01*
X86622698Y-142663276D01*
X86575033Y-142634225D01*
X86534228Y-142597822D01*
X86500629Y-142554404D01*
X86474582Y-142504305D01*
X86465298Y-142479309D01*
X86459914Y-142462090D01*
X86456126Y-142446895D01*
X86453644Y-142431263D01*
X86452181Y-142412737D01*
X86451448Y-142388857D01*
X86451164Y-142358840D01*
X86451578Y-142318197D01*
X86453611Y-142285027D01*
X86457789Y-142256701D01*
X86464636Y-142230590D01*
X86474679Y-142204066D01*
X86487723Y-142175960D01*
X86503644Y-142148163D01*
X86523989Y-142121641D01*
X86544668Y-142099540D01*
X86578218Y-142069351D01*
X86612484Y-142046331D01*
X86650922Y-142028425D01*
X86681957Y-142017894D01*
X86691036Y-142015255D01*
X86699880Y-142013045D01*
X86709471Y-142011216D01*
X86720791Y-142009724D01*
X86734822Y-142008520D01*
X86752546Y-142007558D01*
X86774946Y-142006793D01*
X86803002Y-142006177D01*
X86837697Y-142005664D01*
X86880013Y-142005208D01*
X86930932Y-142004762D01*
X86965130Y-142004486D01*
X87210240Y-142002544D01*
X87210240Y-142699733D01*
X87746180Y-142699733D01*
X87746180Y-141726380D01*
X87731553Y-141694709D01*
X87712877Y-141663894D01*
X87687595Y-141635743D01*
X87658763Y-141613468D01*
X87648987Y-141607952D01*
X87641372Y-141604210D01*
X87633671Y-141600918D01*
X87625221Y-141598051D01*
X87615362Y-141595583D01*
X87603433Y-141593489D01*
X87588773Y-141591744D01*
X87570721Y-141590323D01*
X87548616Y-141589200D01*
X87521796Y-141588352D01*
X87489602Y-141587751D01*
X87451371Y-141587373D01*
X87406443Y-141587194D01*
X87354157Y-141587187D01*
X87293852Y-141587328D01*
X87293852Y-141587328D01*
G37*
X87293852Y-141587328D02*
X87224866Y-141587591D01*
X87146539Y-141587952D01*
X87126420Y-141588049D01*
X87044902Y-141588457D01*
X86972782Y-141588863D01*
X86909298Y-141589312D01*
X86853687Y-141589843D01*
X86805188Y-141590500D01*
X86763039Y-141591325D01*
X86726477Y-141592359D01*
X86694741Y-141593644D01*
X86667068Y-141595223D01*
X86642697Y-141597136D01*
X86620865Y-141599427D01*
X86600811Y-141602137D01*
X86581772Y-141605309D01*
X86562986Y-141608983D01*
X86543691Y-141613202D01*
X86523126Y-141618008D01*
X86505535Y-141622234D01*
X86417488Y-141648041D01*
X86334958Y-141681445D01*
X86258393Y-141722070D01*
X86188238Y-141769539D01*
X86124939Y-141823474D01*
X86068942Y-141883499D01*
X86020693Y-141949237D01*
X85980637Y-142020309D01*
X85951017Y-142091182D01*
X85938807Y-142127699D01*
X85929388Y-142160991D01*
X85922432Y-142193312D01*
X85917608Y-142226917D01*
X85914589Y-142264057D01*
X85913044Y-142306987D01*
X85912642Y-142353760D01*
X85912762Y-142393057D01*
X85913210Y-142424146D01*
X85914120Y-142448980D01*
X85915624Y-142469508D01*
X85917855Y-142487682D01*
X85920944Y-142505452D01*
X85923933Y-142519817D01*
X85944024Y-142595821D01*
X85969953Y-142664674D01*
X86002678Y-142728137D01*
X86043157Y-142787969D01*
X86092346Y-142845930D01*
X86112849Y-142867156D01*
X86172570Y-142921513D01*
X86236431Y-142968586D01*
X86305248Y-143008759D01*
X86379837Y-143042416D01*
X86461013Y-143069939D01*
X86549592Y-143091712D01*
X86616204Y-143103700D01*
X86630607Y-143105658D01*
X86647487Y-143107344D01*
X86667756Y-143108790D01*
X86692328Y-143110026D01*
X86722113Y-143111081D01*
X86758026Y-143111985D01*
X86800978Y-143112769D01*
X86851882Y-143113462D01*
X86911650Y-143114096D01*
X86939591Y-143114351D01*
X87209961Y-143116724D01*
X87211371Y-143450252D01*
X87212780Y-143783780D01*
X87227108Y-143810987D01*
X87251541Y-143846891D01*
X87282848Y-143875756D01*
X87319881Y-143896730D01*
X87358630Y-143908442D01*
X87374879Y-143910379D01*
X87398768Y-143911755D01*
X87428196Y-143912589D01*
X87461061Y-143912898D01*
X87495262Y-143912704D01*
X87528697Y-143912024D01*
X87559265Y-143910878D01*
X87584863Y-143909284D01*
X87603390Y-143907262D01*
X87609020Y-143906178D01*
X87648987Y-143891263D01*
X87683912Y-143867987D01*
X87712567Y-143837362D01*
X87731553Y-143805290D01*
X87746180Y-143773620D01*
X87746180Y-142699733D01*
X87210240Y-142699733D01*
X86962590Y-142697967D01*
X86905901Y-142697549D01*
X86858397Y-142697143D01*
X86819103Y-142696705D01*
X86787044Y-142696189D01*
X86761247Y-142695549D01*
X86740735Y-142694740D01*
X86724534Y-142693717D01*
X86711669Y-142692433D01*
X86701167Y-142690844D01*
X86692051Y-142688903D01*
X86683347Y-142686566D01*
X86676877Y-142684640D01*
X86622698Y-142663276D01*
X86575033Y-142634225D01*
X86534228Y-142597822D01*
X86500629Y-142554404D01*
X86474582Y-142504305D01*
X86465298Y-142479309D01*
X86459914Y-142462090D01*
X86456126Y-142446895D01*
X86453644Y-142431263D01*
X86452181Y-142412737D01*
X86451448Y-142388857D01*
X86451164Y-142358840D01*
X86451578Y-142318197D01*
X86453611Y-142285027D01*
X86457789Y-142256701D01*
X86464636Y-142230590D01*
X86474679Y-142204066D01*
X86487723Y-142175960D01*
X86503644Y-142148163D01*
X86523989Y-142121641D01*
X86544668Y-142099540D01*
X86578218Y-142069351D01*
X86612484Y-142046331D01*
X86650922Y-142028425D01*
X86681957Y-142017894D01*
X86691036Y-142015255D01*
X86699880Y-142013045D01*
X86709471Y-142011216D01*
X86720791Y-142009724D01*
X86734822Y-142008520D01*
X86752546Y-142007558D01*
X86774946Y-142006793D01*
X86803002Y-142006177D01*
X86837697Y-142005664D01*
X86880013Y-142005208D01*
X86930932Y-142004762D01*
X86965130Y-142004486D01*
X87210240Y-142002544D01*
X87210240Y-142699733D01*
X87746180Y-142699733D01*
X87746180Y-141726380D01*
X87731553Y-141694709D01*
X87712877Y-141663894D01*
X87687595Y-141635743D01*
X87658763Y-141613468D01*
X87648987Y-141607952D01*
X87641372Y-141604210D01*
X87633671Y-141600918D01*
X87625221Y-141598051D01*
X87615362Y-141595583D01*
X87603433Y-141593489D01*
X87588773Y-141591744D01*
X87570721Y-141590323D01*
X87548616Y-141589200D01*
X87521796Y-141588352D01*
X87489602Y-141587751D01*
X87451371Y-141587373D01*
X87406443Y-141587194D01*
X87354157Y-141587187D01*
X87293852Y-141587328D01*
D14*
%TO.C,D33*%
X79425000Y-140460000D02*
X76390000Y-140460000D01*
X76390000Y-140460000D02*
X76390000Y-138540000D01*
X76390000Y-138540000D02*
X79425000Y-138540000D01*
D10*
X78050000Y-139300000D02*
X78050000Y-139700000D01*
X78050000Y-139500000D02*
X78450000Y-139700000D01*
X78050000Y-139500000D02*
X78450000Y-139300000D01*
X78450000Y-139300000D02*
X78450000Y-139700000D01*
G36*
X78450000Y-139700000D02*
G01*
X78050000Y-139500000D01*
X78450000Y-139300000D01*
X78450000Y-139700000D01*
G37*
X78450000Y-139700000D02*
X78050000Y-139500000D01*
X78450000Y-139300000D01*
X78450000Y-139700000D01*
D14*
X78087221Y-138990000D02*
X78412779Y-138990000D01*
X78087221Y-140010000D02*
X78412779Y-140010000D01*
X77991422Y-140210000D02*
X78508578Y-140210000D01*
X77991422Y-138790000D02*
X78508578Y-138790000D01*
%TO.C,D32*%
X73290000Y-136675000D02*
X73290000Y-133640000D01*
X73290000Y-133640000D02*
X75210000Y-133640000D01*
X75210000Y-133640000D02*
X75210000Y-136675000D01*
D10*
X74450000Y-135300000D02*
X74050000Y-135300000D01*
X74250000Y-135300000D02*
X74050000Y-135700000D01*
X74250000Y-135300000D02*
X74450000Y-135700000D01*
X74450000Y-135700000D02*
X74050000Y-135700000D01*
G36*
X74050000Y-135700000D02*
G01*
X74250000Y-135300000D01*
X74450000Y-135700000D01*
X74050000Y-135700000D01*
G37*
X74050000Y-135700000D02*
X74250000Y-135300000D01*
X74450000Y-135700000D01*
X74050000Y-135700000D01*
D14*
X74760000Y-135337221D02*
X74760000Y-135662779D01*
X73740000Y-135337221D02*
X73740000Y-135662779D01*
X73540000Y-135241422D02*
X73540000Y-135758578D01*
X74960000Y-135241422D02*
X74960000Y-135758578D01*
%TO.C,D31*%
X77075000Y-144540000D02*
X80110000Y-144540000D01*
X80110000Y-144540000D02*
X80110000Y-146460000D01*
X80110000Y-146460000D02*
X77075000Y-146460000D01*
D10*
X78450000Y-145700000D02*
X78450000Y-145300000D01*
X78450000Y-145500000D02*
X78050000Y-145300000D01*
X78450000Y-145500000D02*
X78050000Y-145700000D01*
X78050000Y-145700000D02*
X78050000Y-145300000D01*
G36*
X78050000Y-145300000D02*
G01*
X78450000Y-145500000D01*
X78050000Y-145700000D01*
X78050000Y-145300000D01*
G37*
X78050000Y-145300000D02*
X78450000Y-145500000D01*
X78050000Y-145700000D01*
X78050000Y-145300000D01*
D14*
X78412779Y-146010000D02*
X78087221Y-146010000D01*
X78412779Y-144990000D02*
X78087221Y-144990000D01*
X78508578Y-144790000D02*
X77991422Y-144790000D01*
X78508578Y-146210000D02*
X77991422Y-146210000D01*
%TO.C,D30*%
X83210000Y-134325000D02*
X83210000Y-137360000D01*
X83210000Y-137360000D02*
X81290000Y-137360000D01*
X81290000Y-137360000D02*
X81290000Y-134325000D01*
D10*
X82050000Y-135700000D02*
X82450000Y-135700000D01*
X82250000Y-135700000D02*
X82450000Y-135300000D01*
X82250000Y-135700000D02*
X82050000Y-135300000D01*
X82050000Y-135300000D02*
X82450000Y-135300000D01*
G36*
X82450000Y-135300000D02*
G01*
X82250000Y-135700000D01*
X82050000Y-135300000D01*
X82450000Y-135300000D01*
G37*
X82450000Y-135300000D02*
X82250000Y-135700000D01*
X82050000Y-135300000D01*
X82450000Y-135300000D01*
D14*
X81740000Y-135662779D02*
X81740000Y-135337221D01*
X82760000Y-135662779D02*
X82760000Y-135337221D01*
X82960000Y-135758578D02*
X82960000Y-135241422D01*
X81540000Y-135758578D02*
X81540000Y-135241422D01*
%TO.C,D29*%
X100575000Y-144540000D02*
X103610000Y-144540000D01*
X103610000Y-144540000D02*
X103610000Y-146460000D01*
X103610000Y-146460000D02*
X100575000Y-146460000D01*
D10*
X101950000Y-145700000D02*
X101950000Y-145300000D01*
X101950000Y-145500000D02*
X101550000Y-145300000D01*
X101950000Y-145500000D02*
X101550000Y-145700000D01*
X101550000Y-145700000D02*
X101550000Y-145300000D01*
G36*
X101550000Y-145300000D02*
G01*
X101950000Y-145500000D01*
X101550000Y-145700000D01*
X101550000Y-145300000D01*
G37*
X101550000Y-145300000D02*
X101950000Y-145500000D01*
X101550000Y-145700000D01*
X101550000Y-145300000D01*
D14*
X101912779Y-146010000D02*
X101587221Y-146010000D01*
X101912779Y-144990000D02*
X101587221Y-144990000D01*
X102008578Y-144790000D02*
X101491422Y-144790000D01*
X102008578Y-146210000D02*
X101491422Y-146210000D01*
%TO.C,D28*%
X79425000Y-132460000D02*
X76390000Y-132460000D01*
X76390000Y-132460000D02*
X76390000Y-130540000D01*
X76390000Y-130540000D02*
X79425000Y-130540000D01*
D10*
X78050000Y-131300000D02*
X78050000Y-131700000D01*
X78050000Y-131500000D02*
X78450000Y-131700000D01*
X78050000Y-131500000D02*
X78450000Y-131300000D01*
X78450000Y-131300000D02*
X78450000Y-131700000D01*
G36*
X78450000Y-131700000D02*
G01*
X78050000Y-131500000D01*
X78450000Y-131300000D01*
X78450000Y-131700000D01*
G37*
X78450000Y-131700000D02*
X78050000Y-131500000D01*
X78450000Y-131300000D01*
X78450000Y-131700000D01*
D14*
X78087221Y-130990000D02*
X78412779Y-130990000D01*
X78087221Y-132010000D02*
X78412779Y-132010000D01*
X77991422Y-132210000D02*
X78508578Y-132210000D01*
X77991422Y-130790000D02*
X78508578Y-130790000D01*
%TO.C,D27*%
X91175000Y-146460000D02*
X88140000Y-146460000D01*
X88140000Y-146460000D02*
X88140000Y-144540000D01*
X88140000Y-144540000D02*
X91175000Y-144540000D01*
D10*
X89800000Y-145300000D02*
X89800000Y-145700000D01*
X89800000Y-145500000D02*
X90200000Y-145700000D01*
X89800000Y-145500000D02*
X90200000Y-145300000D01*
X90200000Y-145300000D02*
X90200000Y-145700000D01*
G36*
X90200000Y-145700000D02*
G01*
X89800000Y-145500000D01*
X90200000Y-145300000D01*
X90200000Y-145700000D01*
G37*
X90200000Y-145700000D02*
X89800000Y-145500000D01*
X90200000Y-145300000D01*
X90200000Y-145700000D01*
D14*
X89837221Y-144990000D02*
X90162779Y-144990000D01*
X89837221Y-146010000D02*
X90162779Y-146010000D01*
X89741422Y-146210000D02*
X90258578Y-146210000D01*
X89741422Y-144790000D02*
X90258578Y-144790000D01*
%TO.C,D26*%
X75210000Y-126325000D02*
X75210000Y-129360000D01*
X75210000Y-129360000D02*
X73290000Y-129360000D01*
X73290000Y-129360000D02*
X73290000Y-126325000D01*
D10*
X74050000Y-127700000D02*
X74450000Y-127700000D01*
X74250000Y-127700000D02*
X74450000Y-127300000D01*
X74250000Y-127700000D02*
X74050000Y-127300000D01*
X74050000Y-127300000D02*
X74450000Y-127300000D01*
G36*
X74450000Y-127300000D02*
G01*
X74250000Y-127700000D01*
X74050000Y-127300000D01*
X74450000Y-127300000D01*
G37*
X74450000Y-127300000D02*
X74250000Y-127700000D01*
X74050000Y-127300000D01*
X74450000Y-127300000D01*
D14*
X73740000Y-127662779D02*
X73740000Y-127337221D01*
X74760000Y-127662779D02*
X74760000Y-127337221D01*
X74960000Y-127758578D02*
X74960000Y-127241422D01*
X73540000Y-127758578D02*
X73540000Y-127241422D01*
%TO.C,D25*%
X77075000Y-116540000D02*
X80110000Y-116540000D01*
X80110000Y-116540000D02*
X80110000Y-118460000D01*
X80110000Y-118460000D02*
X77075000Y-118460000D01*
D10*
X78450000Y-117700000D02*
X78450000Y-117300000D01*
X78450000Y-117500000D02*
X78050000Y-117300000D01*
X78450000Y-117500000D02*
X78050000Y-117700000D01*
X78050000Y-117700000D02*
X78050000Y-117300000D01*
G36*
X78050000Y-117300000D02*
G01*
X78450000Y-117500000D01*
X78050000Y-117700000D01*
X78050000Y-117300000D01*
G37*
X78050000Y-117300000D02*
X78450000Y-117500000D01*
X78050000Y-117700000D01*
X78050000Y-117300000D01*
D14*
X78412779Y-118010000D02*
X78087221Y-118010000D01*
X78412779Y-116990000D02*
X78087221Y-116990000D01*
X78508578Y-116790000D02*
X77991422Y-116790000D01*
X78508578Y-118210000D02*
X77991422Y-118210000D01*
%TO.C,D24*%
X81290000Y-128675000D02*
X81290000Y-125640000D01*
X81290000Y-125640000D02*
X83210000Y-125640000D01*
X83210000Y-125640000D02*
X83210000Y-128675000D01*
D10*
X82450000Y-127300000D02*
X82050000Y-127300000D01*
X82250000Y-127300000D02*
X82050000Y-127700000D01*
X82250000Y-127300000D02*
X82450000Y-127700000D01*
X82450000Y-127700000D02*
X82050000Y-127700000D01*
G36*
X82050000Y-127700000D02*
G01*
X82250000Y-127300000D01*
X82450000Y-127700000D01*
X82050000Y-127700000D01*
G37*
X82050000Y-127700000D02*
X82250000Y-127300000D01*
X82450000Y-127700000D01*
X82050000Y-127700000D01*
D14*
X82760000Y-127337221D02*
X82760000Y-127662779D01*
X81740000Y-127337221D02*
X81740000Y-127662779D01*
X81540000Y-127241422D02*
X81540000Y-127758578D01*
X82960000Y-127241422D02*
X82960000Y-127758578D01*
%TO.C,D23*%
X100575000Y-116540000D02*
X103610000Y-116540000D01*
X103610000Y-116540000D02*
X103610000Y-118460000D01*
X103610000Y-118460000D02*
X100575000Y-118460000D01*
D10*
X101950000Y-117700000D02*
X101950000Y-117300000D01*
X101950000Y-117500000D02*
X101550000Y-117300000D01*
X101950000Y-117500000D02*
X101550000Y-117700000D01*
X101550000Y-117700000D02*
X101550000Y-117300000D01*
G36*
X101550000Y-117300000D02*
G01*
X101950000Y-117500000D01*
X101550000Y-117700000D01*
X101550000Y-117300000D01*
G37*
X101550000Y-117300000D02*
X101950000Y-117500000D01*
X101550000Y-117700000D01*
X101550000Y-117300000D01*
D14*
X101912779Y-118010000D02*
X101587221Y-118010000D01*
X101912779Y-116990000D02*
X101587221Y-116990000D01*
X102008578Y-116790000D02*
X101491422Y-116790000D01*
X102008578Y-118210000D02*
X101491422Y-118210000D01*
%TO.C,D22*%
X79425000Y-124460000D02*
X76390000Y-124460000D01*
X76390000Y-124460000D02*
X76390000Y-122540000D01*
X76390000Y-122540000D02*
X79425000Y-122540000D01*
D10*
X78050000Y-123300000D02*
X78050000Y-123700000D01*
X78050000Y-123500000D02*
X78450000Y-123700000D01*
X78050000Y-123500000D02*
X78450000Y-123300000D01*
X78450000Y-123300000D02*
X78450000Y-123700000D01*
G36*
X78450000Y-123700000D02*
G01*
X78050000Y-123500000D01*
X78450000Y-123300000D01*
X78450000Y-123700000D01*
G37*
X78450000Y-123700000D02*
X78050000Y-123500000D01*
X78450000Y-123300000D01*
X78450000Y-123700000D01*
D14*
X78087221Y-122990000D02*
X78412779Y-122990000D01*
X78087221Y-124010000D02*
X78412779Y-124010000D01*
X77991422Y-124210000D02*
X78508578Y-124210000D01*
X77991422Y-122790000D02*
X78508578Y-122790000D01*
%TO.C,D21*%
X88825000Y-116540000D02*
X91860000Y-116540000D01*
X91860000Y-116540000D02*
X91860000Y-118460000D01*
X91860000Y-118460000D02*
X88825000Y-118460000D01*
D10*
X90200000Y-117700000D02*
X90200000Y-117300000D01*
X90200000Y-117500000D02*
X89800000Y-117300000D01*
X90200000Y-117500000D02*
X89800000Y-117700000D01*
X89800000Y-117700000D02*
X89800000Y-117300000D01*
G36*
X89800000Y-117300000D02*
G01*
X90200000Y-117500000D01*
X89800000Y-117700000D01*
X89800000Y-117300000D01*
G37*
X89800000Y-117300000D02*
X90200000Y-117500000D01*
X89800000Y-117700000D01*
X89800000Y-117300000D01*
D14*
X90162779Y-118010000D02*
X89837221Y-118010000D01*
X90162779Y-116990000D02*
X89837221Y-116990000D01*
X90258578Y-116790000D02*
X89741422Y-116790000D01*
X90258578Y-118210000D02*
X89741422Y-118210000D01*
%TO.C,D20*%
X88825000Y-138540000D02*
X91860000Y-138540000D01*
X91860000Y-138540000D02*
X91860000Y-140460000D01*
X91860000Y-140460000D02*
X88825000Y-140460000D01*
D10*
X90200000Y-139700000D02*
X90200000Y-139300000D01*
X90200000Y-139500000D02*
X89800000Y-139300000D01*
X90200000Y-139500000D02*
X89800000Y-139700000D01*
X89800000Y-139700000D02*
X89800000Y-139300000D01*
G36*
X89800000Y-139300000D02*
G01*
X90200000Y-139500000D01*
X89800000Y-139700000D01*
X89800000Y-139300000D01*
G37*
X89800000Y-139300000D02*
X90200000Y-139500000D01*
X89800000Y-139700000D01*
X89800000Y-139300000D01*
D14*
X90162779Y-140010000D02*
X89837221Y-140010000D01*
X90162779Y-138990000D02*
X89837221Y-138990000D01*
X90258578Y-138790000D02*
X89741422Y-138790000D01*
X90258578Y-140210000D02*
X89741422Y-140210000D01*
%TO.C,D19*%
X85040000Y-136675000D02*
X85040000Y-133640000D01*
X85040000Y-133640000D02*
X86960000Y-133640000D01*
X86960000Y-133640000D02*
X86960000Y-136675000D01*
D10*
X86200000Y-135300000D02*
X85800000Y-135300000D01*
X86000000Y-135300000D02*
X85800000Y-135700000D01*
X86000000Y-135300000D02*
X86200000Y-135700000D01*
X86200000Y-135700000D02*
X85800000Y-135700000D01*
G36*
X85800000Y-135700000D02*
G01*
X86000000Y-135300000D01*
X86200000Y-135700000D01*
X85800000Y-135700000D01*
G37*
X85800000Y-135700000D02*
X86000000Y-135300000D01*
X86200000Y-135700000D01*
X85800000Y-135700000D01*
D14*
X86510000Y-135337221D02*
X86510000Y-135662779D01*
X85490000Y-135337221D02*
X85490000Y-135662779D01*
X85290000Y-135241422D02*
X85290000Y-135758578D01*
X86710000Y-135241422D02*
X86710000Y-135758578D01*
%TO.C,D18*%
X94960000Y-134325000D02*
X94960000Y-137360000D01*
X94960000Y-137360000D02*
X93040000Y-137360000D01*
X93040000Y-137360000D02*
X93040000Y-134325000D01*
D10*
X93800000Y-135700000D02*
X94200000Y-135700000D01*
X94000000Y-135700000D02*
X94200000Y-135300000D01*
X94000000Y-135700000D02*
X93800000Y-135300000D01*
X93800000Y-135300000D02*
X94200000Y-135300000D01*
G36*
X94200000Y-135300000D02*
G01*
X94000000Y-135700000D01*
X93800000Y-135300000D01*
X94200000Y-135300000D01*
G37*
X94200000Y-135300000D02*
X94000000Y-135700000D01*
X93800000Y-135300000D01*
X94200000Y-135300000D01*
D14*
X93490000Y-135662779D02*
X93490000Y-135337221D01*
X94510000Y-135662779D02*
X94510000Y-135337221D01*
X94710000Y-135758578D02*
X94710000Y-135241422D01*
X93290000Y-135758578D02*
X93290000Y-135241422D01*
%TO.C,D17*%
X91175000Y-132460000D02*
X88140000Y-132460000D01*
X88140000Y-132460000D02*
X88140000Y-130540000D01*
X88140000Y-130540000D02*
X91175000Y-130540000D01*
D10*
X89800000Y-131300000D02*
X89800000Y-131700000D01*
X89800000Y-131500000D02*
X90200000Y-131700000D01*
X89800000Y-131500000D02*
X90200000Y-131300000D01*
X90200000Y-131300000D02*
X90200000Y-131700000D01*
G36*
X90200000Y-131700000D02*
G01*
X89800000Y-131500000D01*
X90200000Y-131300000D01*
X90200000Y-131700000D01*
G37*
X90200000Y-131700000D02*
X89800000Y-131500000D01*
X90200000Y-131300000D01*
X90200000Y-131700000D01*
D14*
X89837221Y-130990000D02*
X90162779Y-130990000D01*
X89837221Y-132010000D02*
X90162779Y-132010000D01*
X89741422Y-132210000D02*
X90258578Y-132210000D01*
X89741422Y-130790000D02*
X90258578Y-130790000D01*
%TO.C,D16*%
X86960000Y-126325000D02*
X86960000Y-129360000D01*
X86960000Y-129360000D02*
X85040000Y-129360000D01*
X85040000Y-129360000D02*
X85040000Y-126325000D01*
D10*
X85800000Y-127700000D02*
X86200000Y-127700000D01*
X86000000Y-127700000D02*
X86200000Y-127300000D01*
X86000000Y-127700000D02*
X85800000Y-127300000D01*
X85800000Y-127300000D02*
X86200000Y-127300000D01*
G36*
X86200000Y-127300000D02*
G01*
X86000000Y-127700000D01*
X85800000Y-127300000D01*
X86200000Y-127300000D01*
G37*
X86200000Y-127300000D02*
X86000000Y-127700000D01*
X85800000Y-127300000D01*
X86200000Y-127300000D01*
D14*
X85490000Y-127662779D02*
X85490000Y-127337221D01*
X86510000Y-127662779D02*
X86510000Y-127337221D01*
X86710000Y-127758578D02*
X86710000Y-127241422D01*
X85290000Y-127758578D02*
X85290000Y-127241422D01*
%TO.C,D15*%
X93040000Y-128675000D02*
X93040000Y-125640000D01*
X93040000Y-125640000D02*
X94960000Y-125640000D01*
X94960000Y-125640000D02*
X94960000Y-128675000D01*
D10*
X94200000Y-127300000D02*
X93800000Y-127300000D01*
X94000000Y-127300000D02*
X93800000Y-127700000D01*
X94000000Y-127300000D02*
X94200000Y-127700000D01*
X94200000Y-127700000D02*
X93800000Y-127700000D01*
G36*
X93800000Y-127700000D02*
G01*
X94000000Y-127300000D01*
X94200000Y-127700000D01*
X93800000Y-127700000D01*
G37*
X93800000Y-127700000D02*
X94000000Y-127300000D01*
X94200000Y-127700000D01*
X93800000Y-127700000D01*
D14*
X94510000Y-127337221D02*
X94510000Y-127662779D01*
X93490000Y-127337221D02*
X93490000Y-127662779D01*
X93290000Y-127241422D02*
X93290000Y-127758578D01*
X94710000Y-127241422D02*
X94710000Y-127758578D01*
%TO.C,D14*%
X88825000Y-122540000D02*
X91860000Y-122540000D01*
X91860000Y-122540000D02*
X91860000Y-124460000D01*
X91860000Y-124460000D02*
X88825000Y-124460000D01*
D10*
X90200000Y-123700000D02*
X90200000Y-123300000D01*
X90200000Y-123500000D02*
X89800000Y-123300000D01*
X90200000Y-123500000D02*
X89800000Y-123700000D01*
X89800000Y-123700000D02*
X89800000Y-123300000D01*
G36*
X89800000Y-123300000D02*
G01*
X90200000Y-123500000D01*
X89800000Y-123700000D01*
X89800000Y-123300000D01*
G37*
X89800000Y-123300000D02*
X90200000Y-123500000D01*
X89800000Y-123700000D01*
X89800000Y-123300000D01*
D14*
X90162779Y-124010000D02*
X89837221Y-124010000D01*
X90162779Y-122990000D02*
X89837221Y-122990000D01*
X90258578Y-122790000D02*
X89741422Y-122790000D01*
X90258578Y-124210000D02*
X89741422Y-124210000D01*
%TO.C,D13*%
X100575000Y-138540000D02*
X103610000Y-138540000D01*
X103610000Y-138540000D02*
X103610000Y-140460000D01*
X103610000Y-140460000D02*
X100575000Y-140460000D01*
D10*
X101950000Y-139700000D02*
X101950000Y-139300000D01*
X101950000Y-139500000D02*
X101550000Y-139300000D01*
X101950000Y-139500000D02*
X101550000Y-139700000D01*
X101550000Y-139700000D02*
X101550000Y-139300000D01*
G36*
X101550000Y-139300000D02*
G01*
X101950000Y-139500000D01*
X101550000Y-139700000D01*
X101550000Y-139300000D01*
G37*
X101550000Y-139300000D02*
X101950000Y-139500000D01*
X101550000Y-139700000D01*
X101550000Y-139300000D01*
D14*
X101912779Y-140010000D02*
X101587221Y-140010000D01*
X101912779Y-138990000D02*
X101587221Y-138990000D01*
X102008578Y-138790000D02*
X101491422Y-138790000D01*
X102008578Y-140210000D02*
X101491422Y-140210000D01*
%TO.C,D12*%
X96790000Y-136675000D02*
X96790000Y-133640000D01*
X96790000Y-133640000D02*
X98710000Y-133640000D01*
X98710000Y-133640000D02*
X98710000Y-136675000D01*
D10*
X97950000Y-135300000D02*
X97550000Y-135300000D01*
X97750000Y-135300000D02*
X97550000Y-135700000D01*
X97750000Y-135300000D02*
X97950000Y-135700000D01*
X97950000Y-135700000D02*
X97550000Y-135700000D01*
G36*
X97550000Y-135700000D02*
G01*
X97750000Y-135300000D01*
X97950000Y-135700000D01*
X97550000Y-135700000D01*
G37*
X97550000Y-135700000D02*
X97750000Y-135300000D01*
X97950000Y-135700000D01*
X97550000Y-135700000D01*
D14*
X98260000Y-135337221D02*
X98260000Y-135662779D01*
X97240000Y-135337221D02*
X97240000Y-135662779D01*
X97040000Y-135241422D02*
X97040000Y-135758578D01*
X98460000Y-135241422D02*
X98460000Y-135758578D01*
%TO.C,D11*%
X104790000Y-136675000D02*
X104790000Y-133640000D01*
X104790000Y-133640000D02*
X106710000Y-133640000D01*
X106710000Y-133640000D02*
X106710000Y-136675000D01*
D10*
X105950000Y-135300000D02*
X105550000Y-135300000D01*
X105750000Y-135300000D02*
X105550000Y-135700000D01*
X105750000Y-135300000D02*
X105950000Y-135700000D01*
X105950000Y-135700000D02*
X105550000Y-135700000D01*
G36*
X105550000Y-135700000D02*
G01*
X105750000Y-135300000D01*
X105950000Y-135700000D01*
X105550000Y-135700000D01*
G37*
X105550000Y-135700000D02*
X105750000Y-135300000D01*
X105950000Y-135700000D01*
X105550000Y-135700000D01*
D14*
X106260000Y-135337221D02*
X106260000Y-135662779D01*
X105240000Y-135337221D02*
X105240000Y-135662779D01*
X105040000Y-135241422D02*
X105040000Y-135758578D01*
X106460000Y-135241422D02*
X106460000Y-135758578D01*
%TO.C,D10*%
X100575000Y-130540000D02*
X103610000Y-130540000D01*
X103610000Y-130540000D02*
X103610000Y-132460000D01*
X103610000Y-132460000D02*
X100575000Y-132460000D01*
D10*
X101950000Y-131700000D02*
X101950000Y-131300000D01*
X101950000Y-131500000D02*
X101550000Y-131300000D01*
X101950000Y-131500000D02*
X101550000Y-131700000D01*
X101550000Y-131700000D02*
X101550000Y-131300000D01*
G36*
X101550000Y-131300000D02*
G01*
X101950000Y-131500000D01*
X101550000Y-131700000D01*
X101550000Y-131300000D01*
G37*
X101550000Y-131300000D02*
X101950000Y-131500000D01*
X101550000Y-131700000D01*
X101550000Y-131300000D01*
D14*
X101912779Y-132010000D02*
X101587221Y-132010000D01*
X101912779Y-130990000D02*
X101587221Y-130990000D01*
X102008578Y-130790000D02*
X101491422Y-130790000D01*
X102008578Y-132210000D02*
X101491422Y-132210000D01*
%TO.C,D9*%
X98710000Y-126325000D02*
X98710000Y-129360000D01*
X98710000Y-129360000D02*
X96790000Y-129360000D01*
X96790000Y-129360000D02*
X96790000Y-126325000D01*
D10*
X97550000Y-127700000D02*
X97950000Y-127700000D01*
X97750000Y-127700000D02*
X97950000Y-127300000D01*
X97750000Y-127700000D02*
X97550000Y-127300000D01*
X97550000Y-127300000D02*
X97950000Y-127300000D01*
G36*
X97950000Y-127300000D02*
G01*
X97750000Y-127700000D01*
X97550000Y-127300000D01*
X97950000Y-127300000D01*
G37*
X97950000Y-127300000D02*
X97750000Y-127700000D01*
X97550000Y-127300000D01*
X97950000Y-127300000D01*
D14*
X97240000Y-127662779D02*
X97240000Y-127337221D01*
X98260000Y-127662779D02*
X98260000Y-127337221D01*
X98460000Y-127758578D02*
X98460000Y-127241422D01*
X97040000Y-127758578D02*
X97040000Y-127241422D01*
%TO.C,D8*%
X106710000Y-126325000D02*
X106710000Y-129360000D01*
X106710000Y-129360000D02*
X104790000Y-129360000D01*
X104790000Y-129360000D02*
X104790000Y-126325000D01*
D10*
X105550000Y-127700000D02*
X105950000Y-127700000D01*
X105750000Y-127700000D02*
X105950000Y-127300000D01*
X105750000Y-127700000D02*
X105550000Y-127300000D01*
X105550000Y-127300000D02*
X105950000Y-127300000D01*
G36*
X105950000Y-127300000D02*
G01*
X105750000Y-127700000D01*
X105550000Y-127300000D01*
X105950000Y-127300000D01*
G37*
X105950000Y-127300000D02*
X105750000Y-127700000D01*
X105550000Y-127300000D01*
X105950000Y-127300000D01*
D14*
X105240000Y-127662779D02*
X105240000Y-127337221D01*
X106260000Y-127662779D02*
X106260000Y-127337221D01*
X106460000Y-127758578D02*
X106460000Y-127241422D01*
X105040000Y-127758578D02*
X105040000Y-127241422D01*
%TO.C,D7*%
X102925000Y-124460000D02*
X99890000Y-124460000D01*
X99890000Y-124460000D02*
X99890000Y-122540000D01*
X99890000Y-122540000D02*
X102925000Y-122540000D01*
D10*
X101550000Y-123300000D02*
X101550000Y-123700000D01*
X101550000Y-123500000D02*
X101950000Y-123700000D01*
X101550000Y-123500000D02*
X101950000Y-123300000D01*
X101950000Y-123300000D02*
X101950000Y-123700000D01*
G36*
X101950000Y-123700000D02*
G01*
X101550000Y-123500000D01*
X101950000Y-123300000D01*
X101950000Y-123700000D01*
G37*
X101950000Y-123700000D02*
X101550000Y-123500000D01*
X101950000Y-123300000D01*
X101950000Y-123700000D01*
D14*
X101587221Y-122990000D02*
X101912779Y-122990000D01*
X101587221Y-124010000D02*
X101912779Y-124010000D01*
X101491422Y-124210000D02*
X102008578Y-124210000D01*
X101491422Y-122790000D02*
X102008578Y-122790000D01*
%TD*%
M02*
