M48
METRIC
T1C0.300
T2C0.500
T3C0.700
T4C1.700
T5C2.200
%
G90
G05
T1
X70.75Y-115.75
X70.75Y-117.75
X70.75Y-119.75
X70.75Y-121.5
X70.75Y-123.0
X70.75Y-124.75
X70.75Y-127.25
X70.75Y-128.25
X70.75Y-130.25
X70.75Y-133.25
X70.75Y-139.0
X70.75Y-141.0
X70.75Y-143.0
X70.75Y-145.25
X70.75Y-147.25
X72.75Y-115.75
X72.75Y-147.25
X73.0Y-124.5
X73.25Y-131.0
X73.25Y-140.5
X74.75Y-147.25
X75.0Y-116.0
X75.25Y-142.75
X75.75Y-134.25
X76.25Y-120.0
X76.275Y-147.25
X76.5Y-119.0
X77.15Y-147.25
X77.3Y-137.5
X77.75Y-126.25
X78.25Y-141.75
X78.275Y-137.525
X78.75Y-147.25
X79.0Y-119.25
X79.25Y-130.0
X79.75Y-121.5
X80.0Y-126.25
X80.0Y-141.25
X80.25Y-130.25
X80.45Y-122.75
X80.75Y-147.25
X81.0Y-115.75
X81.0Y-133.75
X81.25Y-145.75
X82.0Y-118.25
X82.75Y-139.75
X82.75Y-147.25
X83.0Y-115.75
X83.5Y-144.5
X84.5Y-128.5
X84.75Y-142.5
X84.75Y-147.25
X85.0Y-115.75
X85.0Y-120.5
X85.0Y-137.5
X85.125Y-129.825
X85.15Y-131.2
X85.5Y-143.55
X85.75Y-141.0
X86.0Y-129.75
X86.0Y-131.5
X86.25Y-142.5
X86.75Y-147.25
X87.0Y-115.75
X87.0Y-118.0
X87.0Y-120.5
X87.25Y-129.25
X87.25Y-133.5
X87.25Y-134.5
X87.25Y-144.5
X87.75Y-142.5
X87.925Y-128.575
X88.0Y-125.5
X88.0Y-136.5
X88.75Y-147.25
X88.9Y-128.575
X89.5Y-142.5
X89.75Y-128.5
X89.75Y-143.25
X89.75Y-147.25
X90.0Y-118.5
X90.25Y-119.25
X90.375Y-134.75
X90.4Y-125.15
X90.5Y-133.875
X91.25Y-119.5
X91.25Y-125.0
X92.25Y-147.25
X93.0Y-130.75
X93.175Y-120.75
X93.25Y-116.0
X93.3Y-140.675
X93.5Y-132.25
X93.925Y-118.1
X94.0Y-130.75
X94.0Y-133.0
X94.075Y-140.55
X94.45Y-138.05
X94.5Y-131.5
X95.25Y-123.75
X95.25Y-133.0
X95.25Y-137.75
X95.525Y-126.275
X95.75Y-140.5
X96.0Y-136.75
X96.05Y-133.3
X96.425Y-123.75
X96.475Y-136.025
X96.5Y-121.25
X96.75Y-137.75
X97.25Y-121.75
X97.25Y-123.5
X97.75Y-147.25
X98.25Y-116.0
X98.25Y-121.25
X98.25Y-141.25
X98.25Y-144.0
X98.8Y-131.0
X99.1Y-121.1
X99.25Y-147.25
X99.5Y-115.75
X99.5Y-130.5
X99.75Y-134.25
X100.5Y-133.75
X100.5Y-134.75
X100.5Y-147.0
X100.525Y-135.7
X100.6Y-121.25
X100.75Y-142.0
X100.75Y-143.0
X101.25Y-135.25
X101.25Y-147.0
X101.4Y-119.5
X101.5Y-120.35
X101.75Y-115.75
X102.0Y-135.75
X102.25Y-134.75
X102.5Y-138.25
X102.5Y-140.75
X102.5Y-144.0
X103.2Y-126.9
X103.25Y-119.5
X103.25Y-143.0
X103.26Y-121.18
X103.5Y-120.35
X103.5Y-127.75
X104.25Y-116.25
X105.0Y-115.75
X105.225Y-119.125
X105.5Y-142.75
X105.8Y-147.2
X106.0Y-116.5
X106.0Y-118.75
X106.5Y-140.25
X106.5Y-141.5
X107.05Y-135.55
X107.2Y-137.4
X107.25Y-115.75
X107.5Y-143.5
X107.75Y-126.75
X107.75Y-147.25
X108.0Y-141.75
X108.25Y-140.75
X108.5Y-137.3
X108.75Y-139.75
X108.8Y-136.45
X109.25Y-115.75
X109.5Y-142.5
X109.5Y-147.25
X110.2Y-136.25
X110.5Y-142.75
X110.75Y-121.5
X111.25Y-115.75
X111.25Y-117.75
X111.25Y-119.75
X111.25Y-122.75
X111.25Y-137.25
X111.25Y-139.25
X111.25Y-141.25
X111.25Y-143.25
X111.25Y-145.25
X111.25Y-147.25
T2
X100.25Y-138.0
X84.0Y-127.5
X102.25Y-142.5
X76.25Y-136.0
X86.5Y-140.25
X103.75Y-129.25
X78.25Y-127.5
X107.75Y-136.5
X71.25Y-137.75
T4
X75.1Y-131.5
X82.1Y-131.5
T5
X109.5Y-145.5
X96.0Y-117.5
X72.5Y-145.5
X72.5Y-117.5
X109.5Y-117.5
X96.0Y-145.5
T3
G00X107.85Y-128.925
M15
G01X107.85Y-129.075
M16
G05
G00X107.85Y-133.925
M15
G01X107.85Y-134.075
M16
G05
G00X110.775Y-128.0
M15
G01X110.325Y-128.0
M16
G05
G00X110.775Y-135.0
M15
G01X110.325Y-135.0
M16
G05
T0
M30
