%TF.GenerationSoftware,KiCad,Pcbnew,(5.1.0-0)*%
%TF.CreationDate,2020-07-09T23:17:02+02:00*%
%TF.ProjectId,POxiM-wristcomputer,504f7869-4d2d-4777-9269-7374636f6d70,A*%
%TF.SameCoordinates,Original*%
%TF.FileFunction,Paste,Top*%
%TF.FilePolarity,Positive*%
%FSLAX46Y46*%
G04 Gerber Fmt 4.6, Leading zero omitted, Abs format (unit mm)*
G04 Created by KiCad (PCBNEW (5.1.0-0)) date 2020-07-09 23:17:02*
%MOMM*%
%LPD*%
G04 APERTURE LIST*
%ADD10R,1.350000X0.400000*%
%ADD11O,0.950000X1.250000*%
%ADD12R,1.550000X1.500000*%
%ADD13R,1.550000X1.200000*%
%ADD14O,1.550000X0.890000*%
%ADD15R,1.200000X0.900000*%
%ADD16R,0.600000X0.450000*%
%ADD17R,0.450000X0.600000*%
%ADD18R,0.900000X1.200000*%
%ADD19R,0.900000X0.800000*%
%ADD20R,2.200000X2.800000*%
%ADD21R,2.800000X2.600000*%
%ADD22R,2.000000X2.800000*%
%ADD23C,0.100000*%
%ADD24C,1.250000*%
%ADD25R,1.060000X0.650000*%
%ADD26R,0.800000X0.900000*%
%ADD27C,1.125000*%
%ADD28R,0.450000X1.450000*%
G04 APERTURE END LIST*
D10*
%TO.C,J1*%
X107875000Y-130200000D03*
X107875000Y-130850000D03*
X107875000Y-131500000D03*
X107875000Y-132150000D03*
X107875000Y-132800000D03*
D11*
X107850000Y-129000000D03*
X107850000Y-134000000D03*
D12*
X110550000Y-132500000D03*
X110550000Y-130500000D03*
D13*
X110550000Y-128600000D03*
D14*
X110550000Y-128000000D03*
D13*
X110550000Y-134400000D03*
D14*
X110550000Y-135000000D03*
%TD*%
D15*
%TO.C,D40*%
X109750000Y-137350000D03*
X109750000Y-140650000D03*
%TD*%
D16*
%TO.C,D39*%
X101700000Y-140750000D03*
X103800000Y-140750000D03*
%TD*%
%TO.C,D38*%
X105200000Y-140750000D03*
X107300000Y-140750000D03*
%TD*%
%TO.C,D37*%
X101700000Y-138250000D03*
X103800000Y-138250000D03*
%TD*%
%TO.C,D36*%
X105200000Y-138250000D03*
X107300000Y-138250000D03*
%TD*%
D17*
%TO.C,D35*%
X106000000Y-117450000D03*
X106000000Y-119550000D03*
%TD*%
D18*
%TO.C,D34*%
X109650000Y-121500000D03*
X106350000Y-121500000D03*
%TD*%
D17*
%TO.C,D6*%
X74000000Y-137700000D03*
X74000000Y-139800000D03*
%TD*%
%TO.C,D5*%
X76500000Y-139800000D03*
X76500000Y-137700000D03*
%TD*%
%TO.C,D4*%
X76250000Y-123200000D03*
X76250000Y-125300000D03*
%TD*%
%TO.C,D3*%
X83750000Y-123200000D03*
X83750000Y-125300000D03*
%TD*%
%TO.C,D2*%
X78750000Y-123200000D03*
X78750000Y-125300000D03*
%TD*%
%TO.C,D1*%
X81250000Y-123200000D03*
X81250000Y-125300000D03*
%TD*%
D19*
%TO.C,Q8*%
X83250000Y-120750000D03*
X81250000Y-121700000D03*
X81250000Y-119800000D03*
%TD*%
D20*
%TO.C,J2*%
X74000000Y-135200000D03*
X75900000Y-127800000D03*
D21*
X83400000Y-135100000D03*
D22*
X71200000Y-135200000D03*
%TD*%
D23*
%TO.C,C12*%
G36*
X73818130Y-125301505D02*
G01*
X73848466Y-125306005D01*
X73878214Y-125313456D01*
X73907089Y-125323788D01*
X73934811Y-125336900D01*
X73961116Y-125352666D01*
X73985748Y-125370934D01*
X74008471Y-125391529D01*
X74029066Y-125414252D01*
X74047334Y-125438884D01*
X74063100Y-125465189D01*
X74076212Y-125492911D01*
X74086544Y-125521786D01*
X74093995Y-125551534D01*
X74098495Y-125581870D01*
X74100000Y-125612500D01*
X74100000Y-126387500D01*
X74098495Y-126418130D01*
X74093995Y-126448466D01*
X74086544Y-126478214D01*
X74076212Y-126507089D01*
X74063100Y-126534811D01*
X74047334Y-126561116D01*
X74029066Y-126585748D01*
X74008471Y-126608471D01*
X73985748Y-126629066D01*
X73961116Y-126647334D01*
X73934811Y-126663100D01*
X73907089Y-126676212D01*
X73878214Y-126686544D01*
X73848466Y-126693995D01*
X73818130Y-126698495D01*
X73787500Y-126700000D01*
X73162500Y-126700000D01*
X73131870Y-126698495D01*
X73101534Y-126693995D01*
X73071786Y-126686544D01*
X73042911Y-126676212D01*
X73015189Y-126663100D01*
X72988884Y-126647334D01*
X72964252Y-126629066D01*
X72941529Y-126608471D01*
X72920934Y-126585748D01*
X72902666Y-126561116D01*
X72886900Y-126534811D01*
X72873788Y-126507089D01*
X72863456Y-126478214D01*
X72856005Y-126448466D01*
X72851505Y-126418130D01*
X72850000Y-126387500D01*
X72850000Y-125612500D01*
X72851505Y-125581870D01*
X72856005Y-125551534D01*
X72863456Y-125521786D01*
X72873788Y-125492911D01*
X72886900Y-125465189D01*
X72902666Y-125438884D01*
X72920934Y-125414252D01*
X72941529Y-125391529D01*
X72964252Y-125370934D01*
X72988884Y-125352666D01*
X73015189Y-125336900D01*
X73042911Y-125323788D01*
X73071786Y-125313456D01*
X73101534Y-125306005D01*
X73131870Y-125301505D01*
X73162500Y-125300000D01*
X73787500Y-125300000D01*
X73818130Y-125301505D01*
X73818130Y-125301505D01*
G37*
D24*
X73475000Y-126000000D03*
D23*
G36*
X71868130Y-125301505D02*
G01*
X71898466Y-125306005D01*
X71928214Y-125313456D01*
X71957089Y-125323788D01*
X71984811Y-125336900D01*
X72011116Y-125352666D01*
X72035748Y-125370934D01*
X72058471Y-125391529D01*
X72079066Y-125414252D01*
X72097334Y-125438884D01*
X72113100Y-125465189D01*
X72126212Y-125492911D01*
X72136544Y-125521786D01*
X72143995Y-125551534D01*
X72148495Y-125581870D01*
X72150000Y-125612500D01*
X72150000Y-126387500D01*
X72148495Y-126418130D01*
X72143995Y-126448466D01*
X72136544Y-126478214D01*
X72126212Y-126507089D01*
X72113100Y-126534811D01*
X72097334Y-126561116D01*
X72079066Y-126585748D01*
X72058471Y-126608471D01*
X72035748Y-126629066D01*
X72011116Y-126647334D01*
X71984811Y-126663100D01*
X71957089Y-126676212D01*
X71928214Y-126686544D01*
X71898466Y-126693995D01*
X71868130Y-126698495D01*
X71837500Y-126700000D01*
X71212500Y-126700000D01*
X71181870Y-126698495D01*
X71151534Y-126693995D01*
X71121786Y-126686544D01*
X71092911Y-126676212D01*
X71065189Y-126663100D01*
X71038884Y-126647334D01*
X71014252Y-126629066D01*
X70991529Y-126608471D01*
X70970934Y-126585748D01*
X70952666Y-126561116D01*
X70936900Y-126534811D01*
X70923788Y-126507089D01*
X70913456Y-126478214D01*
X70906005Y-126448466D01*
X70901505Y-126418130D01*
X70900000Y-126387500D01*
X70900000Y-125612500D01*
X70901505Y-125581870D01*
X70906005Y-125551534D01*
X70913456Y-125521786D01*
X70923788Y-125492911D01*
X70936900Y-125465189D01*
X70952666Y-125438884D01*
X70970934Y-125414252D01*
X70991529Y-125391529D01*
X71014252Y-125370934D01*
X71038884Y-125352666D01*
X71065189Y-125336900D01*
X71092911Y-125323788D01*
X71121786Y-125313456D01*
X71151534Y-125306005D01*
X71181870Y-125301505D01*
X71212500Y-125300000D01*
X71837500Y-125300000D01*
X71868130Y-125301505D01*
X71868130Y-125301505D01*
G37*
D24*
X71525000Y-126000000D03*
%TD*%
D25*
%TO.C,U3*%
X101400000Y-145950000D03*
X101400000Y-144050000D03*
X103600000Y-144050000D03*
X103600000Y-145000000D03*
X103600000Y-145950000D03*
%TD*%
D23*
%TO.C,C9*%
G36*
X97418130Y-142601505D02*
G01*
X97448466Y-142606005D01*
X97478214Y-142613456D01*
X97507089Y-142623788D01*
X97534811Y-142636900D01*
X97561116Y-142652666D01*
X97585748Y-142670934D01*
X97608471Y-142691529D01*
X97629066Y-142714252D01*
X97647334Y-142738884D01*
X97663100Y-142765189D01*
X97676212Y-142792911D01*
X97686544Y-142821786D01*
X97693995Y-142851534D01*
X97698495Y-142881870D01*
X97700000Y-142912500D01*
X97700000Y-143537500D01*
X97698495Y-143568130D01*
X97693995Y-143598466D01*
X97686544Y-143628214D01*
X97676212Y-143657089D01*
X97663100Y-143684811D01*
X97647334Y-143711116D01*
X97629066Y-143735748D01*
X97608471Y-143758471D01*
X97585748Y-143779066D01*
X97561116Y-143797334D01*
X97534811Y-143813100D01*
X97507089Y-143826212D01*
X97478214Y-143836544D01*
X97448466Y-143843995D01*
X97418130Y-143848495D01*
X97387500Y-143850000D01*
X96612500Y-143850000D01*
X96581870Y-143848495D01*
X96551534Y-143843995D01*
X96521786Y-143836544D01*
X96492911Y-143826212D01*
X96465189Y-143813100D01*
X96438884Y-143797334D01*
X96414252Y-143779066D01*
X96391529Y-143758471D01*
X96370934Y-143735748D01*
X96352666Y-143711116D01*
X96336900Y-143684811D01*
X96323788Y-143657089D01*
X96313456Y-143628214D01*
X96306005Y-143598466D01*
X96301505Y-143568130D01*
X96300000Y-143537500D01*
X96300000Y-142912500D01*
X96301505Y-142881870D01*
X96306005Y-142851534D01*
X96313456Y-142821786D01*
X96323788Y-142792911D01*
X96336900Y-142765189D01*
X96352666Y-142738884D01*
X96370934Y-142714252D01*
X96391529Y-142691529D01*
X96414252Y-142670934D01*
X96438884Y-142652666D01*
X96465189Y-142636900D01*
X96492911Y-142623788D01*
X96521786Y-142613456D01*
X96551534Y-142606005D01*
X96581870Y-142601505D01*
X96612500Y-142600000D01*
X97387500Y-142600000D01*
X97418130Y-142601505D01*
X97418130Y-142601505D01*
G37*
D24*
X97000000Y-143225000D03*
D23*
G36*
X97418130Y-140651505D02*
G01*
X97448466Y-140656005D01*
X97478214Y-140663456D01*
X97507089Y-140673788D01*
X97534811Y-140686900D01*
X97561116Y-140702666D01*
X97585748Y-140720934D01*
X97608471Y-140741529D01*
X97629066Y-140764252D01*
X97647334Y-140788884D01*
X97663100Y-140815189D01*
X97676212Y-140842911D01*
X97686544Y-140871786D01*
X97693995Y-140901534D01*
X97698495Y-140931870D01*
X97700000Y-140962500D01*
X97700000Y-141587500D01*
X97698495Y-141618130D01*
X97693995Y-141648466D01*
X97686544Y-141678214D01*
X97676212Y-141707089D01*
X97663100Y-141734811D01*
X97647334Y-141761116D01*
X97629066Y-141785748D01*
X97608471Y-141808471D01*
X97585748Y-141829066D01*
X97561116Y-141847334D01*
X97534811Y-141863100D01*
X97507089Y-141876212D01*
X97478214Y-141886544D01*
X97448466Y-141893995D01*
X97418130Y-141898495D01*
X97387500Y-141900000D01*
X96612500Y-141900000D01*
X96581870Y-141898495D01*
X96551534Y-141893995D01*
X96521786Y-141886544D01*
X96492911Y-141876212D01*
X96465189Y-141863100D01*
X96438884Y-141847334D01*
X96414252Y-141829066D01*
X96391529Y-141808471D01*
X96370934Y-141785748D01*
X96352666Y-141761116D01*
X96336900Y-141734811D01*
X96323788Y-141707089D01*
X96313456Y-141678214D01*
X96306005Y-141648466D01*
X96301505Y-141618130D01*
X96300000Y-141587500D01*
X96300000Y-140962500D01*
X96301505Y-140931870D01*
X96306005Y-140901534D01*
X96313456Y-140871786D01*
X96323788Y-140842911D01*
X96336900Y-140815189D01*
X96352666Y-140788884D01*
X96370934Y-140764252D01*
X96391529Y-140741529D01*
X96414252Y-140720934D01*
X96438884Y-140702666D01*
X96465189Y-140686900D01*
X96492911Y-140673788D01*
X96521786Y-140663456D01*
X96551534Y-140656005D01*
X96581870Y-140651505D01*
X96612500Y-140650000D01*
X97387500Y-140650000D01*
X97418130Y-140651505D01*
X97418130Y-140651505D01*
G37*
D24*
X97000000Y-141275000D03*
%TD*%
D23*
%TO.C,C1*%
G36*
X80568130Y-135551505D02*
G01*
X80598466Y-135556005D01*
X80628214Y-135563456D01*
X80657089Y-135573788D01*
X80684811Y-135586900D01*
X80711116Y-135602666D01*
X80735748Y-135620934D01*
X80758471Y-135641529D01*
X80779066Y-135664252D01*
X80797334Y-135688884D01*
X80813100Y-135715189D01*
X80826212Y-135742911D01*
X80836544Y-135771786D01*
X80843995Y-135801534D01*
X80848495Y-135831870D01*
X80850000Y-135862500D01*
X80850000Y-136637500D01*
X80848495Y-136668130D01*
X80843995Y-136698466D01*
X80836544Y-136728214D01*
X80826212Y-136757089D01*
X80813100Y-136784811D01*
X80797334Y-136811116D01*
X80779066Y-136835748D01*
X80758471Y-136858471D01*
X80735748Y-136879066D01*
X80711116Y-136897334D01*
X80684811Y-136913100D01*
X80657089Y-136926212D01*
X80628214Y-136936544D01*
X80598466Y-136943995D01*
X80568130Y-136948495D01*
X80537500Y-136950000D01*
X79912500Y-136950000D01*
X79881870Y-136948495D01*
X79851534Y-136943995D01*
X79821786Y-136936544D01*
X79792911Y-136926212D01*
X79765189Y-136913100D01*
X79738884Y-136897334D01*
X79714252Y-136879066D01*
X79691529Y-136858471D01*
X79670934Y-136835748D01*
X79652666Y-136811116D01*
X79636900Y-136784811D01*
X79623788Y-136757089D01*
X79613456Y-136728214D01*
X79606005Y-136698466D01*
X79601505Y-136668130D01*
X79600000Y-136637500D01*
X79600000Y-135862500D01*
X79601505Y-135831870D01*
X79606005Y-135801534D01*
X79613456Y-135771786D01*
X79623788Y-135742911D01*
X79636900Y-135715189D01*
X79652666Y-135688884D01*
X79670934Y-135664252D01*
X79691529Y-135641529D01*
X79714252Y-135620934D01*
X79738884Y-135602666D01*
X79765189Y-135586900D01*
X79792911Y-135573788D01*
X79821786Y-135563456D01*
X79851534Y-135556005D01*
X79881870Y-135551505D01*
X79912500Y-135550000D01*
X80537500Y-135550000D01*
X80568130Y-135551505D01*
X80568130Y-135551505D01*
G37*
D24*
X80225000Y-136250000D03*
D23*
G36*
X78618130Y-135551505D02*
G01*
X78648466Y-135556005D01*
X78678214Y-135563456D01*
X78707089Y-135573788D01*
X78734811Y-135586900D01*
X78761116Y-135602666D01*
X78785748Y-135620934D01*
X78808471Y-135641529D01*
X78829066Y-135664252D01*
X78847334Y-135688884D01*
X78863100Y-135715189D01*
X78876212Y-135742911D01*
X78886544Y-135771786D01*
X78893995Y-135801534D01*
X78898495Y-135831870D01*
X78900000Y-135862500D01*
X78900000Y-136637500D01*
X78898495Y-136668130D01*
X78893995Y-136698466D01*
X78886544Y-136728214D01*
X78876212Y-136757089D01*
X78863100Y-136784811D01*
X78847334Y-136811116D01*
X78829066Y-136835748D01*
X78808471Y-136858471D01*
X78785748Y-136879066D01*
X78761116Y-136897334D01*
X78734811Y-136913100D01*
X78707089Y-136926212D01*
X78678214Y-136936544D01*
X78648466Y-136943995D01*
X78618130Y-136948495D01*
X78587500Y-136950000D01*
X77962500Y-136950000D01*
X77931870Y-136948495D01*
X77901534Y-136943995D01*
X77871786Y-136936544D01*
X77842911Y-136926212D01*
X77815189Y-136913100D01*
X77788884Y-136897334D01*
X77764252Y-136879066D01*
X77741529Y-136858471D01*
X77720934Y-136835748D01*
X77702666Y-136811116D01*
X77686900Y-136784811D01*
X77673788Y-136757089D01*
X77663456Y-136728214D01*
X77656005Y-136698466D01*
X77651505Y-136668130D01*
X77650000Y-136637500D01*
X77650000Y-135862500D01*
X77651505Y-135831870D01*
X77656005Y-135801534D01*
X77663456Y-135771786D01*
X77673788Y-135742911D01*
X77686900Y-135715189D01*
X77702666Y-135688884D01*
X77720934Y-135664252D01*
X77741529Y-135641529D01*
X77764252Y-135620934D01*
X77788884Y-135602666D01*
X77815189Y-135586900D01*
X77842911Y-135573788D01*
X77871786Y-135563456D01*
X77901534Y-135556005D01*
X77931870Y-135551505D01*
X77962500Y-135550000D01*
X78587500Y-135550000D01*
X78618130Y-135551505D01*
X78618130Y-135551505D01*
G37*
D24*
X78275000Y-136250000D03*
%TD*%
D23*
%TO.C,C11*%
G36*
X106168130Y-127401505D02*
G01*
X106198466Y-127406005D01*
X106228214Y-127413456D01*
X106257089Y-127423788D01*
X106284811Y-127436900D01*
X106311116Y-127452666D01*
X106335748Y-127470934D01*
X106358471Y-127491529D01*
X106379066Y-127514252D01*
X106397334Y-127538884D01*
X106413100Y-127565189D01*
X106426212Y-127592911D01*
X106436544Y-127621786D01*
X106443995Y-127651534D01*
X106448495Y-127681870D01*
X106450000Y-127712500D01*
X106450000Y-128337500D01*
X106448495Y-128368130D01*
X106443995Y-128398466D01*
X106436544Y-128428214D01*
X106426212Y-128457089D01*
X106413100Y-128484811D01*
X106397334Y-128511116D01*
X106379066Y-128535748D01*
X106358471Y-128558471D01*
X106335748Y-128579066D01*
X106311116Y-128597334D01*
X106284811Y-128613100D01*
X106257089Y-128626212D01*
X106228214Y-128636544D01*
X106198466Y-128643995D01*
X106168130Y-128648495D01*
X106137500Y-128650000D01*
X105362500Y-128650000D01*
X105331870Y-128648495D01*
X105301534Y-128643995D01*
X105271786Y-128636544D01*
X105242911Y-128626212D01*
X105215189Y-128613100D01*
X105188884Y-128597334D01*
X105164252Y-128579066D01*
X105141529Y-128558471D01*
X105120934Y-128535748D01*
X105102666Y-128511116D01*
X105086900Y-128484811D01*
X105073788Y-128457089D01*
X105063456Y-128428214D01*
X105056005Y-128398466D01*
X105051505Y-128368130D01*
X105050000Y-128337500D01*
X105050000Y-127712500D01*
X105051505Y-127681870D01*
X105056005Y-127651534D01*
X105063456Y-127621786D01*
X105073788Y-127592911D01*
X105086900Y-127565189D01*
X105102666Y-127538884D01*
X105120934Y-127514252D01*
X105141529Y-127491529D01*
X105164252Y-127470934D01*
X105188884Y-127452666D01*
X105215189Y-127436900D01*
X105242911Y-127423788D01*
X105271786Y-127413456D01*
X105301534Y-127406005D01*
X105331870Y-127401505D01*
X105362500Y-127400000D01*
X106137500Y-127400000D01*
X106168130Y-127401505D01*
X106168130Y-127401505D01*
G37*
D24*
X105750000Y-128025000D03*
D23*
G36*
X106168130Y-129351505D02*
G01*
X106198466Y-129356005D01*
X106228214Y-129363456D01*
X106257089Y-129373788D01*
X106284811Y-129386900D01*
X106311116Y-129402666D01*
X106335748Y-129420934D01*
X106358471Y-129441529D01*
X106379066Y-129464252D01*
X106397334Y-129488884D01*
X106413100Y-129515189D01*
X106426212Y-129542911D01*
X106436544Y-129571786D01*
X106443995Y-129601534D01*
X106448495Y-129631870D01*
X106450000Y-129662500D01*
X106450000Y-130287500D01*
X106448495Y-130318130D01*
X106443995Y-130348466D01*
X106436544Y-130378214D01*
X106426212Y-130407089D01*
X106413100Y-130434811D01*
X106397334Y-130461116D01*
X106379066Y-130485748D01*
X106358471Y-130508471D01*
X106335748Y-130529066D01*
X106311116Y-130547334D01*
X106284811Y-130563100D01*
X106257089Y-130576212D01*
X106228214Y-130586544D01*
X106198466Y-130593995D01*
X106168130Y-130598495D01*
X106137500Y-130600000D01*
X105362500Y-130600000D01*
X105331870Y-130598495D01*
X105301534Y-130593995D01*
X105271786Y-130586544D01*
X105242911Y-130576212D01*
X105215189Y-130563100D01*
X105188884Y-130547334D01*
X105164252Y-130529066D01*
X105141529Y-130508471D01*
X105120934Y-130485748D01*
X105102666Y-130461116D01*
X105086900Y-130434811D01*
X105073788Y-130407089D01*
X105063456Y-130378214D01*
X105056005Y-130348466D01*
X105051505Y-130318130D01*
X105050000Y-130287500D01*
X105050000Y-129662500D01*
X105051505Y-129631870D01*
X105056005Y-129601534D01*
X105063456Y-129571786D01*
X105073788Y-129542911D01*
X105086900Y-129515189D01*
X105102666Y-129488884D01*
X105120934Y-129464252D01*
X105141529Y-129441529D01*
X105164252Y-129420934D01*
X105188884Y-129402666D01*
X105215189Y-129386900D01*
X105242911Y-129373788D01*
X105271786Y-129363456D01*
X105301534Y-129356005D01*
X105331870Y-129351505D01*
X105362500Y-129350000D01*
X106137500Y-129350000D01*
X106168130Y-129351505D01*
X106168130Y-129351505D01*
G37*
D24*
X105750000Y-129975000D03*
%TD*%
D23*
%TO.C,C6*%
G36*
X86368130Y-126051505D02*
G01*
X86398466Y-126056005D01*
X86428214Y-126063456D01*
X86457089Y-126073788D01*
X86484811Y-126086900D01*
X86511116Y-126102666D01*
X86535748Y-126120934D01*
X86558471Y-126141529D01*
X86579066Y-126164252D01*
X86597334Y-126188884D01*
X86613100Y-126215189D01*
X86626212Y-126242911D01*
X86636544Y-126271786D01*
X86643995Y-126301534D01*
X86648495Y-126331870D01*
X86650000Y-126362500D01*
X86650000Y-127137500D01*
X86648495Y-127168130D01*
X86643995Y-127198466D01*
X86636544Y-127228214D01*
X86626212Y-127257089D01*
X86613100Y-127284811D01*
X86597334Y-127311116D01*
X86579066Y-127335748D01*
X86558471Y-127358471D01*
X86535748Y-127379066D01*
X86511116Y-127397334D01*
X86484811Y-127413100D01*
X86457089Y-127426212D01*
X86428214Y-127436544D01*
X86398466Y-127443995D01*
X86368130Y-127448495D01*
X86337500Y-127450000D01*
X85712500Y-127450000D01*
X85681870Y-127448495D01*
X85651534Y-127443995D01*
X85621786Y-127436544D01*
X85592911Y-127426212D01*
X85565189Y-127413100D01*
X85538884Y-127397334D01*
X85514252Y-127379066D01*
X85491529Y-127358471D01*
X85470934Y-127335748D01*
X85452666Y-127311116D01*
X85436900Y-127284811D01*
X85423788Y-127257089D01*
X85413456Y-127228214D01*
X85406005Y-127198466D01*
X85401505Y-127168130D01*
X85400000Y-127137500D01*
X85400000Y-126362500D01*
X85401505Y-126331870D01*
X85406005Y-126301534D01*
X85413456Y-126271786D01*
X85423788Y-126242911D01*
X85436900Y-126215189D01*
X85452666Y-126188884D01*
X85470934Y-126164252D01*
X85491529Y-126141529D01*
X85514252Y-126120934D01*
X85538884Y-126102666D01*
X85565189Y-126086900D01*
X85592911Y-126073788D01*
X85621786Y-126063456D01*
X85651534Y-126056005D01*
X85681870Y-126051505D01*
X85712500Y-126050000D01*
X86337500Y-126050000D01*
X86368130Y-126051505D01*
X86368130Y-126051505D01*
G37*
D24*
X86025000Y-126750000D03*
D23*
G36*
X88318130Y-126051505D02*
G01*
X88348466Y-126056005D01*
X88378214Y-126063456D01*
X88407089Y-126073788D01*
X88434811Y-126086900D01*
X88461116Y-126102666D01*
X88485748Y-126120934D01*
X88508471Y-126141529D01*
X88529066Y-126164252D01*
X88547334Y-126188884D01*
X88563100Y-126215189D01*
X88576212Y-126242911D01*
X88586544Y-126271786D01*
X88593995Y-126301534D01*
X88598495Y-126331870D01*
X88600000Y-126362500D01*
X88600000Y-127137500D01*
X88598495Y-127168130D01*
X88593995Y-127198466D01*
X88586544Y-127228214D01*
X88576212Y-127257089D01*
X88563100Y-127284811D01*
X88547334Y-127311116D01*
X88529066Y-127335748D01*
X88508471Y-127358471D01*
X88485748Y-127379066D01*
X88461116Y-127397334D01*
X88434811Y-127413100D01*
X88407089Y-127426212D01*
X88378214Y-127436544D01*
X88348466Y-127443995D01*
X88318130Y-127448495D01*
X88287500Y-127450000D01*
X87662500Y-127450000D01*
X87631870Y-127448495D01*
X87601534Y-127443995D01*
X87571786Y-127436544D01*
X87542911Y-127426212D01*
X87515189Y-127413100D01*
X87488884Y-127397334D01*
X87464252Y-127379066D01*
X87441529Y-127358471D01*
X87420934Y-127335748D01*
X87402666Y-127311116D01*
X87386900Y-127284811D01*
X87373788Y-127257089D01*
X87363456Y-127228214D01*
X87356005Y-127198466D01*
X87351505Y-127168130D01*
X87350000Y-127137500D01*
X87350000Y-126362500D01*
X87351505Y-126331870D01*
X87356005Y-126301534D01*
X87363456Y-126271786D01*
X87373788Y-126242911D01*
X87386900Y-126215189D01*
X87402666Y-126188884D01*
X87420934Y-126164252D01*
X87441529Y-126141529D01*
X87464252Y-126120934D01*
X87488884Y-126102666D01*
X87515189Y-126086900D01*
X87542911Y-126073788D01*
X87571786Y-126063456D01*
X87601534Y-126056005D01*
X87631870Y-126051505D01*
X87662500Y-126050000D01*
X88287500Y-126050000D01*
X88318130Y-126051505D01*
X88318130Y-126051505D01*
G37*
D24*
X87975000Y-126750000D03*
%TD*%
D23*
%TO.C,C10*%
G36*
X93918130Y-143901505D02*
G01*
X93948466Y-143906005D01*
X93978214Y-143913456D01*
X94007089Y-143923788D01*
X94034811Y-143936900D01*
X94061116Y-143952666D01*
X94085748Y-143970934D01*
X94108471Y-143991529D01*
X94129066Y-144014252D01*
X94147334Y-144038884D01*
X94163100Y-144065189D01*
X94176212Y-144092911D01*
X94186544Y-144121786D01*
X94193995Y-144151534D01*
X94198495Y-144181870D01*
X94200000Y-144212500D01*
X94200000Y-144837500D01*
X94198495Y-144868130D01*
X94193995Y-144898466D01*
X94186544Y-144928214D01*
X94176212Y-144957089D01*
X94163100Y-144984811D01*
X94147334Y-145011116D01*
X94129066Y-145035748D01*
X94108471Y-145058471D01*
X94085748Y-145079066D01*
X94061116Y-145097334D01*
X94034811Y-145113100D01*
X94007089Y-145126212D01*
X93978214Y-145136544D01*
X93948466Y-145143995D01*
X93918130Y-145148495D01*
X93887500Y-145150000D01*
X93112500Y-145150000D01*
X93081870Y-145148495D01*
X93051534Y-145143995D01*
X93021786Y-145136544D01*
X92992911Y-145126212D01*
X92965189Y-145113100D01*
X92938884Y-145097334D01*
X92914252Y-145079066D01*
X92891529Y-145058471D01*
X92870934Y-145035748D01*
X92852666Y-145011116D01*
X92836900Y-144984811D01*
X92823788Y-144957089D01*
X92813456Y-144928214D01*
X92806005Y-144898466D01*
X92801505Y-144868130D01*
X92800000Y-144837500D01*
X92800000Y-144212500D01*
X92801505Y-144181870D01*
X92806005Y-144151534D01*
X92813456Y-144121786D01*
X92823788Y-144092911D01*
X92836900Y-144065189D01*
X92852666Y-144038884D01*
X92870934Y-144014252D01*
X92891529Y-143991529D01*
X92914252Y-143970934D01*
X92938884Y-143952666D01*
X92965189Y-143936900D01*
X92992911Y-143923788D01*
X93021786Y-143913456D01*
X93051534Y-143906005D01*
X93081870Y-143901505D01*
X93112500Y-143900000D01*
X93887500Y-143900000D01*
X93918130Y-143901505D01*
X93918130Y-143901505D01*
G37*
D24*
X93500000Y-144525000D03*
D23*
G36*
X93918130Y-145851505D02*
G01*
X93948466Y-145856005D01*
X93978214Y-145863456D01*
X94007089Y-145873788D01*
X94034811Y-145886900D01*
X94061116Y-145902666D01*
X94085748Y-145920934D01*
X94108471Y-145941529D01*
X94129066Y-145964252D01*
X94147334Y-145988884D01*
X94163100Y-146015189D01*
X94176212Y-146042911D01*
X94186544Y-146071786D01*
X94193995Y-146101534D01*
X94198495Y-146131870D01*
X94200000Y-146162500D01*
X94200000Y-146787500D01*
X94198495Y-146818130D01*
X94193995Y-146848466D01*
X94186544Y-146878214D01*
X94176212Y-146907089D01*
X94163100Y-146934811D01*
X94147334Y-146961116D01*
X94129066Y-146985748D01*
X94108471Y-147008471D01*
X94085748Y-147029066D01*
X94061116Y-147047334D01*
X94034811Y-147063100D01*
X94007089Y-147076212D01*
X93978214Y-147086544D01*
X93948466Y-147093995D01*
X93918130Y-147098495D01*
X93887500Y-147100000D01*
X93112500Y-147100000D01*
X93081870Y-147098495D01*
X93051534Y-147093995D01*
X93021786Y-147086544D01*
X92992911Y-147076212D01*
X92965189Y-147063100D01*
X92938884Y-147047334D01*
X92914252Y-147029066D01*
X92891529Y-147008471D01*
X92870934Y-146985748D01*
X92852666Y-146961116D01*
X92836900Y-146934811D01*
X92823788Y-146907089D01*
X92813456Y-146878214D01*
X92806005Y-146848466D01*
X92801505Y-146818130D01*
X92800000Y-146787500D01*
X92800000Y-146162500D01*
X92801505Y-146131870D01*
X92806005Y-146101534D01*
X92813456Y-146071786D01*
X92823788Y-146042911D01*
X92836900Y-146015189D01*
X92852666Y-145988884D01*
X92870934Y-145964252D01*
X92891529Y-145941529D01*
X92914252Y-145920934D01*
X92938884Y-145902666D01*
X92965189Y-145886900D01*
X92992911Y-145873788D01*
X93021786Y-145863456D01*
X93051534Y-145856005D01*
X93081870Y-145851505D01*
X93112500Y-145850000D01*
X93887500Y-145850000D01*
X93918130Y-145851505D01*
X93918130Y-145851505D01*
G37*
D24*
X93500000Y-146475000D03*
%TD*%
D23*
%TO.C,C8*%
G36*
X99918130Y-141351505D02*
G01*
X99948466Y-141356005D01*
X99978214Y-141363456D01*
X100007089Y-141373788D01*
X100034811Y-141386900D01*
X100061116Y-141402666D01*
X100085748Y-141420934D01*
X100108471Y-141441529D01*
X100129066Y-141464252D01*
X100147334Y-141488884D01*
X100163100Y-141515189D01*
X100176212Y-141542911D01*
X100186544Y-141571786D01*
X100193995Y-141601534D01*
X100198495Y-141631870D01*
X100200000Y-141662500D01*
X100200000Y-142287500D01*
X100198495Y-142318130D01*
X100193995Y-142348466D01*
X100186544Y-142378214D01*
X100176212Y-142407089D01*
X100163100Y-142434811D01*
X100147334Y-142461116D01*
X100129066Y-142485748D01*
X100108471Y-142508471D01*
X100085748Y-142529066D01*
X100061116Y-142547334D01*
X100034811Y-142563100D01*
X100007089Y-142576212D01*
X99978214Y-142586544D01*
X99948466Y-142593995D01*
X99918130Y-142598495D01*
X99887500Y-142600000D01*
X99112500Y-142600000D01*
X99081870Y-142598495D01*
X99051534Y-142593995D01*
X99021786Y-142586544D01*
X98992911Y-142576212D01*
X98965189Y-142563100D01*
X98938884Y-142547334D01*
X98914252Y-142529066D01*
X98891529Y-142508471D01*
X98870934Y-142485748D01*
X98852666Y-142461116D01*
X98836900Y-142434811D01*
X98823788Y-142407089D01*
X98813456Y-142378214D01*
X98806005Y-142348466D01*
X98801505Y-142318130D01*
X98800000Y-142287500D01*
X98800000Y-141662500D01*
X98801505Y-141631870D01*
X98806005Y-141601534D01*
X98813456Y-141571786D01*
X98823788Y-141542911D01*
X98836900Y-141515189D01*
X98852666Y-141488884D01*
X98870934Y-141464252D01*
X98891529Y-141441529D01*
X98914252Y-141420934D01*
X98938884Y-141402666D01*
X98965189Y-141386900D01*
X98992911Y-141373788D01*
X99021786Y-141363456D01*
X99051534Y-141356005D01*
X99081870Y-141351505D01*
X99112500Y-141350000D01*
X99887500Y-141350000D01*
X99918130Y-141351505D01*
X99918130Y-141351505D01*
G37*
D24*
X99500000Y-141975000D03*
D23*
G36*
X99918130Y-139401505D02*
G01*
X99948466Y-139406005D01*
X99978214Y-139413456D01*
X100007089Y-139423788D01*
X100034811Y-139436900D01*
X100061116Y-139452666D01*
X100085748Y-139470934D01*
X100108471Y-139491529D01*
X100129066Y-139514252D01*
X100147334Y-139538884D01*
X100163100Y-139565189D01*
X100176212Y-139592911D01*
X100186544Y-139621786D01*
X100193995Y-139651534D01*
X100198495Y-139681870D01*
X100200000Y-139712500D01*
X100200000Y-140337500D01*
X100198495Y-140368130D01*
X100193995Y-140398466D01*
X100186544Y-140428214D01*
X100176212Y-140457089D01*
X100163100Y-140484811D01*
X100147334Y-140511116D01*
X100129066Y-140535748D01*
X100108471Y-140558471D01*
X100085748Y-140579066D01*
X100061116Y-140597334D01*
X100034811Y-140613100D01*
X100007089Y-140626212D01*
X99978214Y-140636544D01*
X99948466Y-140643995D01*
X99918130Y-140648495D01*
X99887500Y-140650000D01*
X99112500Y-140650000D01*
X99081870Y-140648495D01*
X99051534Y-140643995D01*
X99021786Y-140636544D01*
X98992911Y-140626212D01*
X98965189Y-140613100D01*
X98938884Y-140597334D01*
X98914252Y-140579066D01*
X98891529Y-140558471D01*
X98870934Y-140535748D01*
X98852666Y-140511116D01*
X98836900Y-140484811D01*
X98823788Y-140457089D01*
X98813456Y-140428214D01*
X98806005Y-140398466D01*
X98801505Y-140368130D01*
X98800000Y-140337500D01*
X98800000Y-139712500D01*
X98801505Y-139681870D01*
X98806005Y-139651534D01*
X98813456Y-139621786D01*
X98823788Y-139592911D01*
X98836900Y-139565189D01*
X98852666Y-139538884D01*
X98870934Y-139514252D01*
X98891529Y-139491529D01*
X98914252Y-139470934D01*
X98938884Y-139452666D01*
X98965189Y-139436900D01*
X98992911Y-139423788D01*
X99021786Y-139413456D01*
X99051534Y-139406005D01*
X99081870Y-139401505D01*
X99112500Y-139400000D01*
X99887500Y-139400000D01*
X99918130Y-139401505D01*
X99918130Y-139401505D01*
G37*
D24*
X99500000Y-140025000D03*
%TD*%
D23*
%TO.C,C7*%
G36*
X91418130Y-143901505D02*
G01*
X91448466Y-143906005D01*
X91478214Y-143913456D01*
X91507089Y-143923788D01*
X91534811Y-143936900D01*
X91561116Y-143952666D01*
X91585748Y-143970934D01*
X91608471Y-143991529D01*
X91629066Y-144014252D01*
X91647334Y-144038884D01*
X91663100Y-144065189D01*
X91676212Y-144092911D01*
X91686544Y-144121786D01*
X91693995Y-144151534D01*
X91698495Y-144181870D01*
X91700000Y-144212500D01*
X91700000Y-144837500D01*
X91698495Y-144868130D01*
X91693995Y-144898466D01*
X91686544Y-144928214D01*
X91676212Y-144957089D01*
X91663100Y-144984811D01*
X91647334Y-145011116D01*
X91629066Y-145035748D01*
X91608471Y-145058471D01*
X91585748Y-145079066D01*
X91561116Y-145097334D01*
X91534811Y-145113100D01*
X91507089Y-145126212D01*
X91478214Y-145136544D01*
X91448466Y-145143995D01*
X91418130Y-145148495D01*
X91387500Y-145150000D01*
X90612500Y-145150000D01*
X90581870Y-145148495D01*
X90551534Y-145143995D01*
X90521786Y-145136544D01*
X90492911Y-145126212D01*
X90465189Y-145113100D01*
X90438884Y-145097334D01*
X90414252Y-145079066D01*
X90391529Y-145058471D01*
X90370934Y-145035748D01*
X90352666Y-145011116D01*
X90336900Y-144984811D01*
X90323788Y-144957089D01*
X90313456Y-144928214D01*
X90306005Y-144898466D01*
X90301505Y-144868130D01*
X90300000Y-144837500D01*
X90300000Y-144212500D01*
X90301505Y-144181870D01*
X90306005Y-144151534D01*
X90313456Y-144121786D01*
X90323788Y-144092911D01*
X90336900Y-144065189D01*
X90352666Y-144038884D01*
X90370934Y-144014252D01*
X90391529Y-143991529D01*
X90414252Y-143970934D01*
X90438884Y-143952666D01*
X90465189Y-143936900D01*
X90492911Y-143923788D01*
X90521786Y-143913456D01*
X90551534Y-143906005D01*
X90581870Y-143901505D01*
X90612500Y-143900000D01*
X91387500Y-143900000D01*
X91418130Y-143901505D01*
X91418130Y-143901505D01*
G37*
D24*
X91000000Y-144525000D03*
D23*
G36*
X91418130Y-145851505D02*
G01*
X91448466Y-145856005D01*
X91478214Y-145863456D01*
X91507089Y-145873788D01*
X91534811Y-145886900D01*
X91561116Y-145902666D01*
X91585748Y-145920934D01*
X91608471Y-145941529D01*
X91629066Y-145964252D01*
X91647334Y-145988884D01*
X91663100Y-146015189D01*
X91676212Y-146042911D01*
X91686544Y-146071786D01*
X91693995Y-146101534D01*
X91698495Y-146131870D01*
X91700000Y-146162500D01*
X91700000Y-146787500D01*
X91698495Y-146818130D01*
X91693995Y-146848466D01*
X91686544Y-146878214D01*
X91676212Y-146907089D01*
X91663100Y-146934811D01*
X91647334Y-146961116D01*
X91629066Y-146985748D01*
X91608471Y-147008471D01*
X91585748Y-147029066D01*
X91561116Y-147047334D01*
X91534811Y-147063100D01*
X91507089Y-147076212D01*
X91478214Y-147086544D01*
X91448466Y-147093995D01*
X91418130Y-147098495D01*
X91387500Y-147100000D01*
X90612500Y-147100000D01*
X90581870Y-147098495D01*
X90551534Y-147093995D01*
X90521786Y-147086544D01*
X90492911Y-147076212D01*
X90465189Y-147063100D01*
X90438884Y-147047334D01*
X90414252Y-147029066D01*
X90391529Y-147008471D01*
X90370934Y-146985748D01*
X90352666Y-146961116D01*
X90336900Y-146934811D01*
X90323788Y-146907089D01*
X90313456Y-146878214D01*
X90306005Y-146848466D01*
X90301505Y-146818130D01*
X90300000Y-146787500D01*
X90300000Y-146162500D01*
X90301505Y-146131870D01*
X90306005Y-146101534D01*
X90313456Y-146071786D01*
X90323788Y-146042911D01*
X90336900Y-146015189D01*
X90352666Y-145988884D01*
X90370934Y-145964252D01*
X90391529Y-145941529D01*
X90414252Y-145920934D01*
X90438884Y-145902666D01*
X90465189Y-145886900D01*
X90492911Y-145873788D01*
X90521786Y-145863456D01*
X90551534Y-145856005D01*
X90581870Y-145851505D01*
X90612500Y-145850000D01*
X91387500Y-145850000D01*
X91418130Y-145851505D01*
X91418130Y-145851505D01*
G37*
D24*
X91000000Y-146475000D03*
%TD*%
D23*
%TO.C,C5*%
G36*
X99918130Y-145351505D02*
G01*
X99948466Y-145356005D01*
X99978214Y-145363456D01*
X100007089Y-145373788D01*
X100034811Y-145386900D01*
X100061116Y-145402666D01*
X100085748Y-145420934D01*
X100108471Y-145441529D01*
X100129066Y-145464252D01*
X100147334Y-145488884D01*
X100163100Y-145515189D01*
X100176212Y-145542911D01*
X100186544Y-145571786D01*
X100193995Y-145601534D01*
X100198495Y-145631870D01*
X100200000Y-145662500D01*
X100200000Y-146287500D01*
X100198495Y-146318130D01*
X100193995Y-146348466D01*
X100186544Y-146378214D01*
X100176212Y-146407089D01*
X100163100Y-146434811D01*
X100147334Y-146461116D01*
X100129066Y-146485748D01*
X100108471Y-146508471D01*
X100085748Y-146529066D01*
X100061116Y-146547334D01*
X100034811Y-146563100D01*
X100007089Y-146576212D01*
X99978214Y-146586544D01*
X99948466Y-146593995D01*
X99918130Y-146598495D01*
X99887500Y-146600000D01*
X99112500Y-146600000D01*
X99081870Y-146598495D01*
X99051534Y-146593995D01*
X99021786Y-146586544D01*
X98992911Y-146576212D01*
X98965189Y-146563100D01*
X98938884Y-146547334D01*
X98914252Y-146529066D01*
X98891529Y-146508471D01*
X98870934Y-146485748D01*
X98852666Y-146461116D01*
X98836900Y-146434811D01*
X98823788Y-146407089D01*
X98813456Y-146378214D01*
X98806005Y-146348466D01*
X98801505Y-146318130D01*
X98800000Y-146287500D01*
X98800000Y-145662500D01*
X98801505Y-145631870D01*
X98806005Y-145601534D01*
X98813456Y-145571786D01*
X98823788Y-145542911D01*
X98836900Y-145515189D01*
X98852666Y-145488884D01*
X98870934Y-145464252D01*
X98891529Y-145441529D01*
X98914252Y-145420934D01*
X98938884Y-145402666D01*
X98965189Y-145386900D01*
X98992911Y-145373788D01*
X99021786Y-145363456D01*
X99051534Y-145356005D01*
X99081870Y-145351505D01*
X99112500Y-145350000D01*
X99887500Y-145350000D01*
X99918130Y-145351505D01*
X99918130Y-145351505D01*
G37*
D24*
X99500000Y-145975000D03*
D23*
G36*
X99918130Y-143401505D02*
G01*
X99948466Y-143406005D01*
X99978214Y-143413456D01*
X100007089Y-143423788D01*
X100034811Y-143436900D01*
X100061116Y-143452666D01*
X100085748Y-143470934D01*
X100108471Y-143491529D01*
X100129066Y-143514252D01*
X100147334Y-143538884D01*
X100163100Y-143565189D01*
X100176212Y-143592911D01*
X100186544Y-143621786D01*
X100193995Y-143651534D01*
X100198495Y-143681870D01*
X100200000Y-143712500D01*
X100200000Y-144337500D01*
X100198495Y-144368130D01*
X100193995Y-144398466D01*
X100186544Y-144428214D01*
X100176212Y-144457089D01*
X100163100Y-144484811D01*
X100147334Y-144511116D01*
X100129066Y-144535748D01*
X100108471Y-144558471D01*
X100085748Y-144579066D01*
X100061116Y-144597334D01*
X100034811Y-144613100D01*
X100007089Y-144626212D01*
X99978214Y-144636544D01*
X99948466Y-144643995D01*
X99918130Y-144648495D01*
X99887500Y-144650000D01*
X99112500Y-144650000D01*
X99081870Y-144648495D01*
X99051534Y-144643995D01*
X99021786Y-144636544D01*
X98992911Y-144626212D01*
X98965189Y-144613100D01*
X98938884Y-144597334D01*
X98914252Y-144579066D01*
X98891529Y-144558471D01*
X98870934Y-144535748D01*
X98852666Y-144511116D01*
X98836900Y-144484811D01*
X98823788Y-144457089D01*
X98813456Y-144428214D01*
X98806005Y-144398466D01*
X98801505Y-144368130D01*
X98800000Y-144337500D01*
X98800000Y-143712500D01*
X98801505Y-143681870D01*
X98806005Y-143651534D01*
X98813456Y-143621786D01*
X98823788Y-143592911D01*
X98836900Y-143565189D01*
X98852666Y-143538884D01*
X98870934Y-143514252D01*
X98891529Y-143491529D01*
X98914252Y-143470934D01*
X98938884Y-143452666D01*
X98965189Y-143436900D01*
X98992911Y-143423788D01*
X99021786Y-143413456D01*
X99051534Y-143406005D01*
X99081870Y-143401505D01*
X99112500Y-143400000D01*
X99887500Y-143400000D01*
X99918130Y-143401505D01*
X99918130Y-143401505D01*
G37*
D24*
X99500000Y-144025000D03*
%TD*%
D23*
%TO.C,C4*%
G36*
X105918130Y-145351505D02*
G01*
X105948466Y-145356005D01*
X105978214Y-145363456D01*
X106007089Y-145373788D01*
X106034811Y-145386900D01*
X106061116Y-145402666D01*
X106085748Y-145420934D01*
X106108471Y-145441529D01*
X106129066Y-145464252D01*
X106147334Y-145488884D01*
X106163100Y-145515189D01*
X106176212Y-145542911D01*
X106186544Y-145571786D01*
X106193995Y-145601534D01*
X106198495Y-145631870D01*
X106200000Y-145662500D01*
X106200000Y-146287500D01*
X106198495Y-146318130D01*
X106193995Y-146348466D01*
X106186544Y-146378214D01*
X106176212Y-146407089D01*
X106163100Y-146434811D01*
X106147334Y-146461116D01*
X106129066Y-146485748D01*
X106108471Y-146508471D01*
X106085748Y-146529066D01*
X106061116Y-146547334D01*
X106034811Y-146563100D01*
X106007089Y-146576212D01*
X105978214Y-146586544D01*
X105948466Y-146593995D01*
X105918130Y-146598495D01*
X105887500Y-146600000D01*
X105112500Y-146600000D01*
X105081870Y-146598495D01*
X105051534Y-146593995D01*
X105021786Y-146586544D01*
X104992911Y-146576212D01*
X104965189Y-146563100D01*
X104938884Y-146547334D01*
X104914252Y-146529066D01*
X104891529Y-146508471D01*
X104870934Y-146485748D01*
X104852666Y-146461116D01*
X104836900Y-146434811D01*
X104823788Y-146407089D01*
X104813456Y-146378214D01*
X104806005Y-146348466D01*
X104801505Y-146318130D01*
X104800000Y-146287500D01*
X104800000Y-145662500D01*
X104801505Y-145631870D01*
X104806005Y-145601534D01*
X104813456Y-145571786D01*
X104823788Y-145542911D01*
X104836900Y-145515189D01*
X104852666Y-145488884D01*
X104870934Y-145464252D01*
X104891529Y-145441529D01*
X104914252Y-145420934D01*
X104938884Y-145402666D01*
X104965189Y-145386900D01*
X104992911Y-145373788D01*
X105021786Y-145363456D01*
X105051534Y-145356005D01*
X105081870Y-145351505D01*
X105112500Y-145350000D01*
X105887500Y-145350000D01*
X105918130Y-145351505D01*
X105918130Y-145351505D01*
G37*
D24*
X105500000Y-145975000D03*
D23*
G36*
X105918130Y-143401505D02*
G01*
X105948466Y-143406005D01*
X105978214Y-143413456D01*
X106007089Y-143423788D01*
X106034811Y-143436900D01*
X106061116Y-143452666D01*
X106085748Y-143470934D01*
X106108471Y-143491529D01*
X106129066Y-143514252D01*
X106147334Y-143538884D01*
X106163100Y-143565189D01*
X106176212Y-143592911D01*
X106186544Y-143621786D01*
X106193995Y-143651534D01*
X106198495Y-143681870D01*
X106200000Y-143712500D01*
X106200000Y-144337500D01*
X106198495Y-144368130D01*
X106193995Y-144398466D01*
X106186544Y-144428214D01*
X106176212Y-144457089D01*
X106163100Y-144484811D01*
X106147334Y-144511116D01*
X106129066Y-144535748D01*
X106108471Y-144558471D01*
X106085748Y-144579066D01*
X106061116Y-144597334D01*
X106034811Y-144613100D01*
X106007089Y-144626212D01*
X105978214Y-144636544D01*
X105948466Y-144643995D01*
X105918130Y-144648495D01*
X105887500Y-144650000D01*
X105112500Y-144650000D01*
X105081870Y-144648495D01*
X105051534Y-144643995D01*
X105021786Y-144636544D01*
X104992911Y-144626212D01*
X104965189Y-144613100D01*
X104938884Y-144597334D01*
X104914252Y-144579066D01*
X104891529Y-144558471D01*
X104870934Y-144535748D01*
X104852666Y-144511116D01*
X104836900Y-144484811D01*
X104823788Y-144457089D01*
X104813456Y-144428214D01*
X104806005Y-144398466D01*
X104801505Y-144368130D01*
X104800000Y-144337500D01*
X104800000Y-143712500D01*
X104801505Y-143681870D01*
X104806005Y-143651534D01*
X104813456Y-143621786D01*
X104823788Y-143592911D01*
X104836900Y-143565189D01*
X104852666Y-143538884D01*
X104870934Y-143514252D01*
X104891529Y-143491529D01*
X104914252Y-143470934D01*
X104938884Y-143452666D01*
X104965189Y-143436900D01*
X104992911Y-143423788D01*
X105021786Y-143413456D01*
X105051534Y-143406005D01*
X105081870Y-143401505D01*
X105112500Y-143400000D01*
X105887500Y-143400000D01*
X105918130Y-143401505D01*
X105918130Y-143401505D01*
G37*
D24*
X105500000Y-144025000D03*
%TD*%
D23*
%TO.C,C3*%
G36*
X100568130Y-116801505D02*
G01*
X100598466Y-116806005D01*
X100628214Y-116813456D01*
X100657089Y-116823788D01*
X100684811Y-116836900D01*
X100711116Y-116852666D01*
X100735748Y-116870934D01*
X100758471Y-116891529D01*
X100779066Y-116914252D01*
X100797334Y-116938884D01*
X100813100Y-116965189D01*
X100826212Y-116992911D01*
X100836544Y-117021786D01*
X100843995Y-117051534D01*
X100848495Y-117081870D01*
X100850000Y-117112500D01*
X100850000Y-117887500D01*
X100848495Y-117918130D01*
X100843995Y-117948466D01*
X100836544Y-117978214D01*
X100826212Y-118007089D01*
X100813100Y-118034811D01*
X100797334Y-118061116D01*
X100779066Y-118085748D01*
X100758471Y-118108471D01*
X100735748Y-118129066D01*
X100711116Y-118147334D01*
X100684811Y-118163100D01*
X100657089Y-118176212D01*
X100628214Y-118186544D01*
X100598466Y-118193995D01*
X100568130Y-118198495D01*
X100537500Y-118200000D01*
X99912500Y-118200000D01*
X99881870Y-118198495D01*
X99851534Y-118193995D01*
X99821786Y-118186544D01*
X99792911Y-118176212D01*
X99765189Y-118163100D01*
X99738884Y-118147334D01*
X99714252Y-118129066D01*
X99691529Y-118108471D01*
X99670934Y-118085748D01*
X99652666Y-118061116D01*
X99636900Y-118034811D01*
X99623788Y-118007089D01*
X99613456Y-117978214D01*
X99606005Y-117948466D01*
X99601505Y-117918130D01*
X99600000Y-117887500D01*
X99600000Y-117112500D01*
X99601505Y-117081870D01*
X99606005Y-117051534D01*
X99613456Y-117021786D01*
X99623788Y-116992911D01*
X99636900Y-116965189D01*
X99652666Y-116938884D01*
X99670934Y-116914252D01*
X99691529Y-116891529D01*
X99714252Y-116870934D01*
X99738884Y-116852666D01*
X99765189Y-116836900D01*
X99792911Y-116823788D01*
X99821786Y-116813456D01*
X99851534Y-116806005D01*
X99881870Y-116801505D01*
X99912500Y-116800000D01*
X100537500Y-116800000D01*
X100568130Y-116801505D01*
X100568130Y-116801505D01*
G37*
D24*
X100225000Y-117500000D03*
D23*
G36*
X98618130Y-116801505D02*
G01*
X98648466Y-116806005D01*
X98678214Y-116813456D01*
X98707089Y-116823788D01*
X98734811Y-116836900D01*
X98761116Y-116852666D01*
X98785748Y-116870934D01*
X98808471Y-116891529D01*
X98829066Y-116914252D01*
X98847334Y-116938884D01*
X98863100Y-116965189D01*
X98876212Y-116992911D01*
X98886544Y-117021786D01*
X98893995Y-117051534D01*
X98898495Y-117081870D01*
X98900000Y-117112500D01*
X98900000Y-117887500D01*
X98898495Y-117918130D01*
X98893995Y-117948466D01*
X98886544Y-117978214D01*
X98876212Y-118007089D01*
X98863100Y-118034811D01*
X98847334Y-118061116D01*
X98829066Y-118085748D01*
X98808471Y-118108471D01*
X98785748Y-118129066D01*
X98761116Y-118147334D01*
X98734811Y-118163100D01*
X98707089Y-118176212D01*
X98678214Y-118186544D01*
X98648466Y-118193995D01*
X98618130Y-118198495D01*
X98587500Y-118200000D01*
X97962500Y-118200000D01*
X97931870Y-118198495D01*
X97901534Y-118193995D01*
X97871786Y-118186544D01*
X97842911Y-118176212D01*
X97815189Y-118163100D01*
X97788884Y-118147334D01*
X97764252Y-118129066D01*
X97741529Y-118108471D01*
X97720934Y-118085748D01*
X97702666Y-118061116D01*
X97686900Y-118034811D01*
X97673788Y-118007089D01*
X97663456Y-117978214D01*
X97656005Y-117948466D01*
X97651505Y-117918130D01*
X97650000Y-117887500D01*
X97650000Y-117112500D01*
X97651505Y-117081870D01*
X97656005Y-117051534D01*
X97663456Y-117021786D01*
X97673788Y-116992911D01*
X97686900Y-116965189D01*
X97702666Y-116938884D01*
X97720934Y-116914252D01*
X97741529Y-116891529D01*
X97764252Y-116870934D01*
X97788884Y-116852666D01*
X97815189Y-116836900D01*
X97842911Y-116823788D01*
X97871786Y-116813456D01*
X97901534Y-116806005D01*
X97931870Y-116801505D01*
X97962500Y-116800000D01*
X98587500Y-116800000D01*
X98618130Y-116801505D01*
X98618130Y-116801505D01*
G37*
D24*
X98275000Y-117500000D03*
%TD*%
D23*
%TO.C,C2*%
G36*
X81318130Y-142301505D02*
G01*
X81348466Y-142306005D01*
X81378214Y-142313456D01*
X81407089Y-142323788D01*
X81434811Y-142336900D01*
X81461116Y-142352666D01*
X81485748Y-142370934D01*
X81508471Y-142391529D01*
X81529066Y-142414252D01*
X81547334Y-142438884D01*
X81563100Y-142465189D01*
X81576212Y-142492911D01*
X81586544Y-142521786D01*
X81593995Y-142551534D01*
X81598495Y-142581870D01*
X81600000Y-142612500D01*
X81600000Y-143387500D01*
X81598495Y-143418130D01*
X81593995Y-143448466D01*
X81586544Y-143478214D01*
X81576212Y-143507089D01*
X81563100Y-143534811D01*
X81547334Y-143561116D01*
X81529066Y-143585748D01*
X81508471Y-143608471D01*
X81485748Y-143629066D01*
X81461116Y-143647334D01*
X81434811Y-143663100D01*
X81407089Y-143676212D01*
X81378214Y-143686544D01*
X81348466Y-143693995D01*
X81318130Y-143698495D01*
X81287500Y-143700000D01*
X80662500Y-143700000D01*
X80631870Y-143698495D01*
X80601534Y-143693995D01*
X80571786Y-143686544D01*
X80542911Y-143676212D01*
X80515189Y-143663100D01*
X80488884Y-143647334D01*
X80464252Y-143629066D01*
X80441529Y-143608471D01*
X80420934Y-143585748D01*
X80402666Y-143561116D01*
X80386900Y-143534811D01*
X80373788Y-143507089D01*
X80363456Y-143478214D01*
X80356005Y-143448466D01*
X80351505Y-143418130D01*
X80350000Y-143387500D01*
X80350000Y-142612500D01*
X80351505Y-142581870D01*
X80356005Y-142551534D01*
X80363456Y-142521786D01*
X80373788Y-142492911D01*
X80386900Y-142465189D01*
X80402666Y-142438884D01*
X80420934Y-142414252D01*
X80441529Y-142391529D01*
X80464252Y-142370934D01*
X80488884Y-142352666D01*
X80515189Y-142336900D01*
X80542911Y-142323788D01*
X80571786Y-142313456D01*
X80601534Y-142306005D01*
X80631870Y-142301505D01*
X80662500Y-142300000D01*
X81287500Y-142300000D01*
X81318130Y-142301505D01*
X81318130Y-142301505D01*
G37*
D24*
X80975000Y-143000000D03*
D23*
G36*
X79368130Y-142301505D02*
G01*
X79398466Y-142306005D01*
X79428214Y-142313456D01*
X79457089Y-142323788D01*
X79484811Y-142336900D01*
X79511116Y-142352666D01*
X79535748Y-142370934D01*
X79558471Y-142391529D01*
X79579066Y-142414252D01*
X79597334Y-142438884D01*
X79613100Y-142465189D01*
X79626212Y-142492911D01*
X79636544Y-142521786D01*
X79643995Y-142551534D01*
X79648495Y-142581870D01*
X79650000Y-142612500D01*
X79650000Y-143387500D01*
X79648495Y-143418130D01*
X79643995Y-143448466D01*
X79636544Y-143478214D01*
X79626212Y-143507089D01*
X79613100Y-143534811D01*
X79597334Y-143561116D01*
X79579066Y-143585748D01*
X79558471Y-143608471D01*
X79535748Y-143629066D01*
X79511116Y-143647334D01*
X79484811Y-143663100D01*
X79457089Y-143676212D01*
X79428214Y-143686544D01*
X79398466Y-143693995D01*
X79368130Y-143698495D01*
X79337500Y-143700000D01*
X78712500Y-143700000D01*
X78681870Y-143698495D01*
X78651534Y-143693995D01*
X78621786Y-143686544D01*
X78592911Y-143676212D01*
X78565189Y-143663100D01*
X78538884Y-143647334D01*
X78514252Y-143629066D01*
X78491529Y-143608471D01*
X78470934Y-143585748D01*
X78452666Y-143561116D01*
X78436900Y-143534811D01*
X78423788Y-143507089D01*
X78413456Y-143478214D01*
X78406005Y-143448466D01*
X78401505Y-143418130D01*
X78400000Y-143387500D01*
X78400000Y-142612500D01*
X78401505Y-142581870D01*
X78406005Y-142551534D01*
X78413456Y-142521786D01*
X78423788Y-142492911D01*
X78436900Y-142465189D01*
X78452666Y-142438884D01*
X78470934Y-142414252D01*
X78491529Y-142391529D01*
X78514252Y-142370934D01*
X78538884Y-142352666D01*
X78565189Y-142336900D01*
X78592911Y-142323788D01*
X78621786Y-142313456D01*
X78651534Y-142306005D01*
X78681870Y-142301505D01*
X78712500Y-142300000D01*
X79337500Y-142300000D01*
X79368130Y-142301505D01*
X79368130Y-142301505D01*
G37*
D24*
X79025000Y-143000000D03*
%TD*%
D19*
%TO.C,Q5*%
X104250000Y-122250000D03*
X102250000Y-123200000D03*
X102250000Y-121300000D03*
%TD*%
D23*
%TO.C,R25*%
G36*
X72368130Y-122801505D02*
G01*
X72398466Y-122806005D01*
X72428214Y-122813456D01*
X72457089Y-122823788D01*
X72484811Y-122836900D01*
X72511116Y-122852666D01*
X72535748Y-122870934D01*
X72558471Y-122891529D01*
X72579066Y-122914252D01*
X72597334Y-122938884D01*
X72613100Y-122965189D01*
X72626212Y-122992911D01*
X72636544Y-123021786D01*
X72643995Y-123051534D01*
X72648495Y-123081870D01*
X72650000Y-123112500D01*
X72650000Y-123887500D01*
X72648495Y-123918130D01*
X72643995Y-123948466D01*
X72636544Y-123978214D01*
X72626212Y-124007089D01*
X72613100Y-124034811D01*
X72597334Y-124061116D01*
X72579066Y-124085748D01*
X72558471Y-124108471D01*
X72535748Y-124129066D01*
X72511116Y-124147334D01*
X72484811Y-124163100D01*
X72457089Y-124176212D01*
X72428214Y-124186544D01*
X72398466Y-124193995D01*
X72368130Y-124198495D01*
X72337500Y-124200000D01*
X71712500Y-124200000D01*
X71681870Y-124198495D01*
X71651534Y-124193995D01*
X71621786Y-124186544D01*
X71592911Y-124176212D01*
X71565189Y-124163100D01*
X71538884Y-124147334D01*
X71514252Y-124129066D01*
X71491529Y-124108471D01*
X71470934Y-124085748D01*
X71452666Y-124061116D01*
X71436900Y-124034811D01*
X71423788Y-124007089D01*
X71413456Y-123978214D01*
X71406005Y-123948466D01*
X71401505Y-123918130D01*
X71400000Y-123887500D01*
X71400000Y-123112500D01*
X71401505Y-123081870D01*
X71406005Y-123051534D01*
X71413456Y-123021786D01*
X71423788Y-122992911D01*
X71436900Y-122965189D01*
X71452666Y-122938884D01*
X71470934Y-122914252D01*
X71491529Y-122891529D01*
X71514252Y-122870934D01*
X71538884Y-122852666D01*
X71565189Y-122836900D01*
X71592911Y-122823788D01*
X71621786Y-122813456D01*
X71651534Y-122806005D01*
X71681870Y-122801505D01*
X71712500Y-122800000D01*
X72337500Y-122800000D01*
X72368130Y-122801505D01*
X72368130Y-122801505D01*
G37*
D24*
X72025000Y-123500000D03*
D23*
G36*
X74318130Y-122801505D02*
G01*
X74348466Y-122806005D01*
X74378214Y-122813456D01*
X74407089Y-122823788D01*
X74434811Y-122836900D01*
X74461116Y-122852666D01*
X74485748Y-122870934D01*
X74508471Y-122891529D01*
X74529066Y-122914252D01*
X74547334Y-122938884D01*
X74563100Y-122965189D01*
X74576212Y-122992911D01*
X74586544Y-123021786D01*
X74593995Y-123051534D01*
X74598495Y-123081870D01*
X74600000Y-123112500D01*
X74600000Y-123887500D01*
X74598495Y-123918130D01*
X74593995Y-123948466D01*
X74586544Y-123978214D01*
X74576212Y-124007089D01*
X74563100Y-124034811D01*
X74547334Y-124061116D01*
X74529066Y-124085748D01*
X74508471Y-124108471D01*
X74485748Y-124129066D01*
X74461116Y-124147334D01*
X74434811Y-124163100D01*
X74407089Y-124176212D01*
X74378214Y-124186544D01*
X74348466Y-124193995D01*
X74318130Y-124198495D01*
X74287500Y-124200000D01*
X73662500Y-124200000D01*
X73631870Y-124198495D01*
X73601534Y-124193995D01*
X73571786Y-124186544D01*
X73542911Y-124176212D01*
X73515189Y-124163100D01*
X73488884Y-124147334D01*
X73464252Y-124129066D01*
X73441529Y-124108471D01*
X73420934Y-124085748D01*
X73402666Y-124061116D01*
X73386900Y-124034811D01*
X73373788Y-124007089D01*
X73363456Y-123978214D01*
X73356005Y-123948466D01*
X73351505Y-123918130D01*
X73350000Y-123887500D01*
X73350000Y-123112500D01*
X73351505Y-123081870D01*
X73356005Y-123051534D01*
X73363456Y-123021786D01*
X73373788Y-122992911D01*
X73386900Y-122965189D01*
X73402666Y-122938884D01*
X73420934Y-122914252D01*
X73441529Y-122891529D01*
X73464252Y-122870934D01*
X73488884Y-122852666D01*
X73515189Y-122836900D01*
X73542911Y-122823788D01*
X73571786Y-122813456D01*
X73601534Y-122806005D01*
X73631870Y-122801505D01*
X73662500Y-122800000D01*
X74287500Y-122800000D01*
X74318130Y-122801505D01*
X74318130Y-122801505D01*
G37*
D24*
X73975000Y-123500000D03*
%TD*%
D23*
%TO.C,R24*%
G36*
X88318130Y-123551505D02*
G01*
X88348466Y-123556005D01*
X88378214Y-123563456D01*
X88407089Y-123573788D01*
X88434811Y-123586900D01*
X88461116Y-123602666D01*
X88485748Y-123620934D01*
X88508471Y-123641529D01*
X88529066Y-123664252D01*
X88547334Y-123688884D01*
X88563100Y-123715189D01*
X88576212Y-123742911D01*
X88586544Y-123771786D01*
X88593995Y-123801534D01*
X88598495Y-123831870D01*
X88600000Y-123862500D01*
X88600000Y-124637500D01*
X88598495Y-124668130D01*
X88593995Y-124698466D01*
X88586544Y-124728214D01*
X88576212Y-124757089D01*
X88563100Y-124784811D01*
X88547334Y-124811116D01*
X88529066Y-124835748D01*
X88508471Y-124858471D01*
X88485748Y-124879066D01*
X88461116Y-124897334D01*
X88434811Y-124913100D01*
X88407089Y-124926212D01*
X88378214Y-124936544D01*
X88348466Y-124943995D01*
X88318130Y-124948495D01*
X88287500Y-124950000D01*
X87662500Y-124950000D01*
X87631870Y-124948495D01*
X87601534Y-124943995D01*
X87571786Y-124936544D01*
X87542911Y-124926212D01*
X87515189Y-124913100D01*
X87488884Y-124897334D01*
X87464252Y-124879066D01*
X87441529Y-124858471D01*
X87420934Y-124835748D01*
X87402666Y-124811116D01*
X87386900Y-124784811D01*
X87373788Y-124757089D01*
X87363456Y-124728214D01*
X87356005Y-124698466D01*
X87351505Y-124668130D01*
X87350000Y-124637500D01*
X87350000Y-123862500D01*
X87351505Y-123831870D01*
X87356005Y-123801534D01*
X87363456Y-123771786D01*
X87373788Y-123742911D01*
X87386900Y-123715189D01*
X87402666Y-123688884D01*
X87420934Y-123664252D01*
X87441529Y-123641529D01*
X87464252Y-123620934D01*
X87488884Y-123602666D01*
X87515189Y-123586900D01*
X87542911Y-123573788D01*
X87571786Y-123563456D01*
X87601534Y-123556005D01*
X87631870Y-123551505D01*
X87662500Y-123550000D01*
X88287500Y-123550000D01*
X88318130Y-123551505D01*
X88318130Y-123551505D01*
G37*
D24*
X87975000Y-124250000D03*
D23*
G36*
X86368130Y-123551505D02*
G01*
X86398466Y-123556005D01*
X86428214Y-123563456D01*
X86457089Y-123573788D01*
X86484811Y-123586900D01*
X86511116Y-123602666D01*
X86535748Y-123620934D01*
X86558471Y-123641529D01*
X86579066Y-123664252D01*
X86597334Y-123688884D01*
X86613100Y-123715189D01*
X86626212Y-123742911D01*
X86636544Y-123771786D01*
X86643995Y-123801534D01*
X86648495Y-123831870D01*
X86650000Y-123862500D01*
X86650000Y-124637500D01*
X86648495Y-124668130D01*
X86643995Y-124698466D01*
X86636544Y-124728214D01*
X86626212Y-124757089D01*
X86613100Y-124784811D01*
X86597334Y-124811116D01*
X86579066Y-124835748D01*
X86558471Y-124858471D01*
X86535748Y-124879066D01*
X86511116Y-124897334D01*
X86484811Y-124913100D01*
X86457089Y-124926212D01*
X86428214Y-124936544D01*
X86398466Y-124943995D01*
X86368130Y-124948495D01*
X86337500Y-124950000D01*
X85712500Y-124950000D01*
X85681870Y-124948495D01*
X85651534Y-124943995D01*
X85621786Y-124936544D01*
X85592911Y-124926212D01*
X85565189Y-124913100D01*
X85538884Y-124897334D01*
X85514252Y-124879066D01*
X85491529Y-124858471D01*
X85470934Y-124835748D01*
X85452666Y-124811116D01*
X85436900Y-124784811D01*
X85423788Y-124757089D01*
X85413456Y-124728214D01*
X85406005Y-124698466D01*
X85401505Y-124668130D01*
X85400000Y-124637500D01*
X85400000Y-123862500D01*
X85401505Y-123831870D01*
X85406005Y-123801534D01*
X85413456Y-123771786D01*
X85423788Y-123742911D01*
X85436900Y-123715189D01*
X85452666Y-123688884D01*
X85470934Y-123664252D01*
X85491529Y-123641529D01*
X85514252Y-123620934D01*
X85538884Y-123602666D01*
X85565189Y-123586900D01*
X85592911Y-123573788D01*
X85621786Y-123563456D01*
X85651534Y-123556005D01*
X85681870Y-123551505D01*
X85712500Y-123550000D01*
X86337500Y-123550000D01*
X86368130Y-123551505D01*
X86368130Y-123551505D01*
G37*
D24*
X86025000Y-124250000D03*
%TD*%
D23*
%TO.C,R23*%
G36*
X83318130Y-116551505D02*
G01*
X83348466Y-116556005D01*
X83378214Y-116563456D01*
X83407089Y-116573788D01*
X83434811Y-116586900D01*
X83461116Y-116602666D01*
X83485748Y-116620934D01*
X83508471Y-116641529D01*
X83529066Y-116664252D01*
X83547334Y-116688884D01*
X83563100Y-116715189D01*
X83576212Y-116742911D01*
X83586544Y-116771786D01*
X83593995Y-116801534D01*
X83598495Y-116831870D01*
X83600000Y-116862500D01*
X83600000Y-117637500D01*
X83598495Y-117668130D01*
X83593995Y-117698466D01*
X83586544Y-117728214D01*
X83576212Y-117757089D01*
X83563100Y-117784811D01*
X83547334Y-117811116D01*
X83529066Y-117835748D01*
X83508471Y-117858471D01*
X83485748Y-117879066D01*
X83461116Y-117897334D01*
X83434811Y-117913100D01*
X83407089Y-117926212D01*
X83378214Y-117936544D01*
X83348466Y-117943995D01*
X83318130Y-117948495D01*
X83287500Y-117950000D01*
X82662500Y-117950000D01*
X82631870Y-117948495D01*
X82601534Y-117943995D01*
X82571786Y-117936544D01*
X82542911Y-117926212D01*
X82515189Y-117913100D01*
X82488884Y-117897334D01*
X82464252Y-117879066D01*
X82441529Y-117858471D01*
X82420934Y-117835748D01*
X82402666Y-117811116D01*
X82386900Y-117784811D01*
X82373788Y-117757089D01*
X82363456Y-117728214D01*
X82356005Y-117698466D01*
X82351505Y-117668130D01*
X82350000Y-117637500D01*
X82350000Y-116862500D01*
X82351505Y-116831870D01*
X82356005Y-116801534D01*
X82363456Y-116771786D01*
X82373788Y-116742911D01*
X82386900Y-116715189D01*
X82402666Y-116688884D01*
X82420934Y-116664252D01*
X82441529Y-116641529D01*
X82464252Y-116620934D01*
X82488884Y-116602666D01*
X82515189Y-116586900D01*
X82542911Y-116573788D01*
X82571786Y-116563456D01*
X82601534Y-116556005D01*
X82631870Y-116551505D01*
X82662500Y-116550000D01*
X83287500Y-116550000D01*
X83318130Y-116551505D01*
X83318130Y-116551505D01*
G37*
D24*
X82975000Y-117250000D03*
D23*
G36*
X81368130Y-116551505D02*
G01*
X81398466Y-116556005D01*
X81428214Y-116563456D01*
X81457089Y-116573788D01*
X81484811Y-116586900D01*
X81511116Y-116602666D01*
X81535748Y-116620934D01*
X81558471Y-116641529D01*
X81579066Y-116664252D01*
X81597334Y-116688884D01*
X81613100Y-116715189D01*
X81626212Y-116742911D01*
X81636544Y-116771786D01*
X81643995Y-116801534D01*
X81648495Y-116831870D01*
X81650000Y-116862500D01*
X81650000Y-117637500D01*
X81648495Y-117668130D01*
X81643995Y-117698466D01*
X81636544Y-117728214D01*
X81626212Y-117757089D01*
X81613100Y-117784811D01*
X81597334Y-117811116D01*
X81579066Y-117835748D01*
X81558471Y-117858471D01*
X81535748Y-117879066D01*
X81511116Y-117897334D01*
X81484811Y-117913100D01*
X81457089Y-117926212D01*
X81428214Y-117936544D01*
X81398466Y-117943995D01*
X81368130Y-117948495D01*
X81337500Y-117950000D01*
X80712500Y-117950000D01*
X80681870Y-117948495D01*
X80651534Y-117943995D01*
X80621786Y-117936544D01*
X80592911Y-117926212D01*
X80565189Y-117913100D01*
X80538884Y-117897334D01*
X80514252Y-117879066D01*
X80491529Y-117858471D01*
X80470934Y-117835748D01*
X80452666Y-117811116D01*
X80436900Y-117784811D01*
X80423788Y-117757089D01*
X80413456Y-117728214D01*
X80406005Y-117698466D01*
X80401505Y-117668130D01*
X80400000Y-117637500D01*
X80400000Y-116862500D01*
X80401505Y-116831870D01*
X80406005Y-116801534D01*
X80413456Y-116771786D01*
X80423788Y-116742911D01*
X80436900Y-116715189D01*
X80452666Y-116688884D01*
X80470934Y-116664252D01*
X80491529Y-116641529D01*
X80514252Y-116620934D01*
X80538884Y-116602666D01*
X80565189Y-116586900D01*
X80592911Y-116573788D01*
X80621786Y-116563456D01*
X80651534Y-116556005D01*
X80681870Y-116551505D01*
X80712500Y-116550000D01*
X81337500Y-116550000D01*
X81368130Y-116551505D01*
X81368130Y-116551505D01*
G37*
D24*
X81025000Y-117250000D03*
%TD*%
D23*
%TO.C,R22*%
G36*
X88318130Y-121051505D02*
G01*
X88348466Y-121056005D01*
X88378214Y-121063456D01*
X88407089Y-121073788D01*
X88434811Y-121086900D01*
X88461116Y-121102666D01*
X88485748Y-121120934D01*
X88508471Y-121141529D01*
X88529066Y-121164252D01*
X88547334Y-121188884D01*
X88563100Y-121215189D01*
X88576212Y-121242911D01*
X88586544Y-121271786D01*
X88593995Y-121301534D01*
X88598495Y-121331870D01*
X88600000Y-121362500D01*
X88600000Y-122137500D01*
X88598495Y-122168130D01*
X88593995Y-122198466D01*
X88586544Y-122228214D01*
X88576212Y-122257089D01*
X88563100Y-122284811D01*
X88547334Y-122311116D01*
X88529066Y-122335748D01*
X88508471Y-122358471D01*
X88485748Y-122379066D01*
X88461116Y-122397334D01*
X88434811Y-122413100D01*
X88407089Y-122426212D01*
X88378214Y-122436544D01*
X88348466Y-122443995D01*
X88318130Y-122448495D01*
X88287500Y-122450000D01*
X87662500Y-122450000D01*
X87631870Y-122448495D01*
X87601534Y-122443995D01*
X87571786Y-122436544D01*
X87542911Y-122426212D01*
X87515189Y-122413100D01*
X87488884Y-122397334D01*
X87464252Y-122379066D01*
X87441529Y-122358471D01*
X87420934Y-122335748D01*
X87402666Y-122311116D01*
X87386900Y-122284811D01*
X87373788Y-122257089D01*
X87363456Y-122228214D01*
X87356005Y-122198466D01*
X87351505Y-122168130D01*
X87350000Y-122137500D01*
X87350000Y-121362500D01*
X87351505Y-121331870D01*
X87356005Y-121301534D01*
X87363456Y-121271786D01*
X87373788Y-121242911D01*
X87386900Y-121215189D01*
X87402666Y-121188884D01*
X87420934Y-121164252D01*
X87441529Y-121141529D01*
X87464252Y-121120934D01*
X87488884Y-121102666D01*
X87515189Y-121086900D01*
X87542911Y-121073788D01*
X87571786Y-121063456D01*
X87601534Y-121056005D01*
X87631870Y-121051505D01*
X87662500Y-121050000D01*
X88287500Y-121050000D01*
X88318130Y-121051505D01*
X88318130Y-121051505D01*
G37*
D24*
X87975000Y-121750000D03*
D23*
G36*
X86368130Y-121051505D02*
G01*
X86398466Y-121056005D01*
X86428214Y-121063456D01*
X86457089Y-121073788D01*
X86484811Y-121086900D01*
X86511116Y-121102666D01*
X86535748Y-121120934D01*
X86558471Y-121141529D01*
X86579066Y-121164252D01*
X86597334Y-121188884D01*
X86613100Y-121215189D01*
X86626212Y-121242911D01*
X86636544Y-121271786D01*
X86643995Y-121301534D01*
X86648495Y-121331870D01*
X86650000Y-121362500D01*
X86650000Y-122137500D01*
X86648495Y-122168130D01*
X86643995Y-122198466D01*
X86636544Y-122228214D01*
X86626212Y-122257089D01*
X86613100Y-122284811D01*
X86597334Y-122311116D01*
X86579066Y-122335748D01*
X86558471Y-122358471D01*
X86535748Y-122379066D01*
X86511116Y-122397334D01*
X86484811Y-122413100D01*
X86457089Y-122426212D01*
X86428214Y-122436544D01*
X86398466Y-122443995D01*
X86368130Y-122448495D01*
X86337500Y-122450000D01*
X85712500Y-122450000D01*
X85681870Y-122448495D01*
X85651534Y-122443995D01*
X85621786Y-122436544D01*
X85592911Y-122426212D01*
X85565189Y-122413100D01*
X85538884Y-122397334D01*
X85514252Y-122379066D01*
X85491529Y-122358471D01*
X85470934Y-122335748D01*
X85452666Y-122311116D01*
X85436900Y-122284811D01*
X85423788Y-122257089D01*
X85413456Y-122228214D01*
X85406005Y-122198466D01*
X85401505Y-122168130D01*
X85400000Y-122137500D01*
X85400000Y-121362500D01*
X85401505Y-121331870D01*
X85406005Y-121301534D01*
X85413456Y-121271786D01*
X85423788Y-121242911D01*
X85436900Y-121215189D01*
X85452666Y-121188884D01*
X85470934Y-121164252D01*
X85491529Y-121141529D01*
X85514252Y-121120934D01*
X85538884Y-121102666D01*
X85565189Y-121086900D01*
X85592911Y-121073788D01*
X85621786Y-121063456D01*
X85651534Y-121056005D01*
X85681870Y-121051505D01*
X85712500Y-121050000D01*
X86337500Y-121050000D01*
X86368130Y-121051505D01*
X86368130Y-121051505D01*
G37*
D24*
X86025000Y-121750000D03*
%TD*%
D23*
%TO.C,R21*%
G36*
X76868130Y-116551505D02*
G01*
X76898466Y-116556005D01*
X76928214Y-116563456D01*
X76957089Y-116573788D01*
X76984811Y-116586900D01*
X77011116Y-116602666D01*
X77035748Y-116620934D01*
X77058471Y-116641529D01*
X77079066Y-116664252D01*
X77097334Y-116688884D01*
X77113100Y-116715189D01*
X77126212Y-116742911D01*
X77136544Y-116771786D01*
X77143995Y-116801534D01*
X77148495Y-116831870D01*
X77150000Y-116862500D01*
X77150000Y-117637500D01*
X77148495Y-117668130D01*
X77143995Y-117698466D01*
X77136544Y-117728214D01*
X77126212Y-117757089D01*
X77113100Y-117784811D01*
X77097334Y-117811116D01*
X77079066Y-117835748D01*
X77058471Y-117858471D01*
X77035748Y-117879066D01*
X77011116Y-117897334D01*
X76984811Y-117913100D01*
X76957089Y-117926212D01*
X76928214Y-117936544D01*
X76898466Y-117943995D01*
X76868130Y-117948495D01*
X76837500Y-117950000D01*
X76212500Y-117950000D01*
X76181870Y-117948495D01*
X76151534Y-117943995D01*
X76121786Y-117936544D01*
X76092911Y-117926212D01*
X76065189Y-117913100D01*
X76038884Y-117897334D01*
X76014252Y-117879066D01*
X75991529Y-117858471D01*
X75970934Y-117835748D01*
X75952666Y-117811116D01*
X75936900Y-117784811D01*
X75923788Y-117757089D01*
X75913456Y-117728214D01*
X75906005Y-117698466D01*
X75901505Y-117668130D01*
X75900000Y-117637500D01*
X75900000Y-116862500D01*
X75901505Y-116831870D01*
X75906005Y-116801534D01*
X75913456Y-116771786D01*
X75923788Y-116742911D01*
X75936900Y-116715189D01*
X75952666Y-116688884D01*
X75970934Y-116664252D01*
X75991529Y-116641529D01*
X76014252Y-116620934D01*
X76038884Y-116602666D01*
X76065189Y-116586900D01*
X76092911Y-116573788D01*
X76121786Y-116563456D01*
X76151534Y-116556005D01*
X76181870Y-116551505D01*
X76212500Y-116550000D01*
X76837500Y-116550000D01*
X76868130Y-116551505D01*
X76868130Y-116551505D01*
G37*
D24*
X76525000Y-117250000D03*
D23*
G36*
X78818130Y-116551505D02*
G01*
X78848466Y-116556005D01*
X78878214Y-116563456D01*
X78907089Y-116573788D01*
X78934811Y-116586900D01*
X78961116Y-116602666D01*
X78985748Y-116620934D01*
X79008471Y-116641529D01*
X79029066Y-116664252D01*
X79047334Y-116688884D01*
X79063100Y-116715189D01*
X79076212Y-116742911D01*
X79086544Y-116771786D01*
X79093995Y-116801534D01*
X79098495Y-116831870D01*
X79100000Y-116862500D01*
X79100000Y-117637500D01*
X79098495Y-117668130D01*
X79093995Y-117698466D01*
X79086544Y-117728214D01*
X79076212Y-117757089D01*
X79063100Y-117784811D01*
X79047334Y-117811116D01*
X79029066Y-117835748D01*
X79008471Y-117858471D01*
X78985748Y-117879066D01*
X78961116Y-117897334D01*
X78934811Y-117913100D01*
X78907089Y-117926212D01*
X78878214Y-117936544D01*
X78848466Y-117943995D01*
X78818130Y-117948495D01*
X78787500Y-117950000D01*
X78162500Y-117950000D01*
X78131870Y-117948495D01*
X78101534Y-117943995D01*
X78071786Y-117936544D01*
X78042911Y-117926212D01*
X78015189Y-117913100D01*
X77988884Y-117897334D01*
X77964252Y-117879066D01*
X77941529Y-117858471D01*
X77920934Y-117835748D01*
X77902666Y-117811116D01*
X77886900Y-117784811D01*
X77873788Y-117757089D01*
X77863456Y-117728214D01*
X77856005Y-117698466D01*
X77851505Y-117668130D01*
X77850000Y-117637500D01*
X77850000Y-116862500D01*
X77851505Y-116831870D01*
X77856005Y-116801534D01*
X77863456Y-116771786D01*
X77873788Y-116742911D01*
X77886900Y-116715189D01*
X77902666Y-116688884D01*
X77920934Y-116664252D01*
X77941529Y-116641529D01*
X77964252Y-116620934D01*
X77988884Y-116602666D01*
X78015189Y-116586900D01*
X78042911Y-116573788D01*
X78071786Y-116563456D01*
X78101534Y-116556005D01*
X78131870Y-116551505D01*
X78162500Y-116550000D01*
X78787500Y-116550000D01*
X78818130Y-116551505D01*
X78818130Y-116551505D01*
G37*
D24*
X78475000Y-117250000D03*
%TD*%
D23*
%TO.C,R20*%
G36*
X72368130Y-120301505D02*
G01*
X72398466Y-120306005D01*
X72428214Y-120313456D01*
X72457089Y-120323788D01*
X72484811Y-120336900D01*
X72511116Y-120352666D01*
X72535748Y-120370934D01*
X72558471Y-120391529D01*
X72579066Y-120414252D01*
X72597334Y-120438884D01*
X72613100Y-120465189D01*
X72626212Y-120492911D01*
X72636544Y-120521786D01*
X72643995Y-120551534D01*
X72648495Y-120581870D01*
X72650000Y-120612500D01*
X72650000Y-121387500D01*
X72648495Y-121418130D01*
X72643995Y-121448466D01*
X72636544Y-121478214D01*
X72626212Y-121507089D01*
X72613100Y-121534811D01*
X72597334Y-121561116D01*
X72579066Y-121585748D01*
X72558471Y-121608471D01*
X72535748Y-121629066D01*
X72511116Y-121647334D01*
X72484811Y-121663100D01*
X72457089Y-121676212D01*
X72428214Y-121686544D01*
X72398466Y-121693995D01*
X72368130Y-121698495D01*
X72337500Y-121700000D01*
X71712500Y-121700000D01*
X71681870Y-121698495D01*
X71651534Y-121693995D01*
X71621786Y-121686544D01*
X71592911Y-121676212D01*
X71565189Y-121663100D01*
X71538884Y-121647334D01*
X71514252Y-121629066D01*
X71491529Y-121608471D01*
X71470934Y-121585748D01*
X71452666Y-121561116D01*
X71436900Y-121534811D01*
X71423788Y-121507089D01*
X71413456Y-121478214D01*
X71406005Y-121448466D01*
X71401505Y-121418130D01*
X71400000Y-121387500D01*
X71400000Y-120612500D01*
X71401505Y-120581870D01*
X71406005Y-120551534D01*
X71413456Y-120521786D01*
X71423788Y-120492911D01*
X71436900Y-120465189D01*
X71452666Y-120438884D01*
X71470934Y-120414252D01*
X71491529Y-120391529D01*
X71514252Y-120370934D01*
X71538884Y-120352666D01*
X71565189Y-120336900D01*
X71592911Y-120323788D01*
X71621786Y-120313456D01*
X71651534Y-120306005D01*
X71681870Y-120301505D01*
X71712500Y-120300000D01*
X72337500Y-120300000D01*
X72368130Y-120301505D01*
X72368130Y-120301505D01*
G37*
D24*
X72025000Y-121000000D03*
D23*
G36*
X74318130Y-120301505D02*
G01*
X74348466Y-120306005D01*
X74378214Y-120313456D01*
X74407089Y-120323788D01*
X74434811Y-120336900D01*
X74461116Y-120352666D01*
X74485748Y-120370934D01*
X74508471Y-120391529D01*
X74529066Y-120414252D01*
X74547334Y-120438884D01*
X74563100Y-120465189D01*
X74576212Y-120492911D01*
X74586544Y-120521786D01*
X74593995Y-120551534D01*
X74598495Y-120581870D01*
X74600000Y-120612500D01*
X74600000Y-121387500D01*
X74598495Y-121418130D01*
X74593995Y-121448466D01*
X74586544Y-121478214D01*
X74576212Y-121507089D01*
X74563100Y-121534811D01*
X74547334Y-121561116D01*
X74529066Y-121585748D01*
X74508471Y-121608471D01*
X74485748Y-121629066D01*
X74461116Y-121647334D01*
X74434811Y-121663100D01*
X74407089Y-121676212D01*
X74378214Y-121686544D01*
X74348466Y-121693995D01*
X74318130Y-121698495D01*
X74287500Y-121700000D01*
X73662500Y-121700000D01*
X73631870Y-121698495D01*
X73601534Y-121693995D01*
X73571786Y-121686544D01*
X73542911Y-121676212D01*
X73515189Y-121663100D01*
X73488884Y-121647334D01*
X73464252Y-121629066D01*
X73441529Y-121608471D01*
X73420934Y-121585748D01*
X73402666Y-121561116D01*
X73386900Y-121534811D01*
X73373788Y-121507089D01*
X73363456Y-121478214D01*
X73356005Y-121448466D01*
X73351505Y-121418130D01*
X73350000Y-121387500D01*
X73350000Y-120612500D01*
X73351505Y-120581870D01*
X73356005Y-120551534D01*
X73363456Y-120521786D01*
X73373788Y-120492911D01*
X73386900Y-120465189D01*
X73402666Y-120438884D01*
X73420934Y-120414252D01*
X73441529Y-120391529D01*
X73464252Y-120370934D01*
X73488884Y-120352666D01*
X73515189Y-120336900D01*
X73542911Y-120323788D01*
X73571786Y-120313456D01*
X73601534Y-120306005D01*
X73631870Y-120301505D01*
X73662500Y-120300000D01*
X74287500Y-120300000D01*
X74318130Y-120301505D01*
X74318130Y-120301505D01*
G37*
D24*
X73975000Y-121000000D03*
%TD*%
D23*
%TO.C,R19*%
G36*
X98618130Y-119301505D02*
G01*
X98648466Y-119306005D01*
X98678214Y-119313456D01*
X98707089Y-119323788D01*
X98734811Y-119336900D01*
X98761116Y-119352666D01*
X98785748Y-119370934D01*
X98808471Y-119391529D01*
X98829066Y-119414252D01*
X98847334Y-119438884D01*
X98863100Y-119465189D01*
X98876212Y-119492911D01*
X98886544Y-119521786D01*
X98893995Y-119551534D01*
X98898495Y-119581870D01*
X98900000Y-119612500D01*
X98900000Y-120387500D01*
X98898495Y-120418130D01*
X98893995Y-120448466D01*
X98886544Y-120478214D01*
X98876212Y-120507089D01*
X98863100Y-120534811D01*
X98847334Y-120561116D01*
X98829066Y-120585748D01*
X98808471Y-120608471D01*
X98785748Y-120629066D01*
X98761116Y-120647334D01*
X98734811Y-120663100D01*
X98707089Y-120676212D01*
X98678214Y-120686544D01*
X98648466Y-120693995D01*
X98618130Y-120698495D01*
X98587500Y-120700000D01*
X97962500Y-120700000D01*
X97931870Y-120698495D01*
X97901534Y-120693995D01*
X97871786Y-120686544D01*
X97842911Y-120676212D01*
X97815189Y-120663100D01*
X97788884Y-120647334D01*
X97764252Y-120629066D01*
X97741529Y-120608471D01*
X97720934Y-120585748D01*
X97702666Y-120561116D01*
X97686900Y-120534811D01*
X97673788Y-120507089D01*
X97663456Y-120478214D01*
X97656005Y-120448466D01*
X97651505Y-120418130D01*
X97650000Y-120387500D01*
X97650000Y-119612500D01*
X97651505Y-119581870D01*
X97656005Y-119551534D01*
X97663456Y-119521786D01*
X97673788Y-119492911D01*
X97686900Y-119465189D01*
X97702666Y-119438884D01*
X97720934Y-119414252D01*
X97741529Y-119391529D01*
X97764252Y-119370934D01*
X97788884Y-119352666D01*
X97815189Y-119336900D01*
X97842911Y-119323788D01*
X97871786Y-119313456D01*
X97901534Y-119306005D01*
X97931870Y-119301505D01*
X97962500Y-119300000D01*
X98587500Y-119300000D01*
X98618130Y-119301505D01*
X98618130Y-119301505D01*
G37*
D24*
X98275000Y-120000000D03*
D23*
G36*
X100568130Y-119301505D02*
G01*
X100598466Y-119306005D01*
X100628214Y-119313456D01*
X100657089Y-119323788D01*
X100684811Y-119336900D01*
X100711116Y-119352666D01*
X100735748Y-119370934D01*
X100758471Y-119391529D01*
X100779066Y-119414252D01*
X100797334Y-119438884D01*
X100813100Y-119465189D01*
X100826212Y-119492911D01*
X100836544Y-119521786D01*
X100843995Y-119551534D01*
X100848495Y-119581870D01*
X100850000Y-119612500D01*
X100850000Y-120387500D01*
X100848495Y-120418130D01*
X100843995Y-120448466D01*
X100836544Y-120478214D01*
X100826212Y-120507089D01*
X100813100Y-120534811D01*
X100797334Y-120561116D01*
X100779066Y-120585748D01*
X100758471Y-120608471D01*
X100735748Y-120629066D01*
X100711116Y-120647334D01*
X100684811Y-120663100D01*
X100657089Y-120676212D01*
X100628214Y-120686544D01*
X100598466Y-120693995D01*
X100568130Y-120698495D01*
X100537500Y-120700000D01*
X99912500Y-120700000D01*
X99881870Y-120698495D01*
X99851534Y-120693995D01*
X99821786Y-120686544D01*
X99792911Y-120676212D01*
X99765189Y-120663100D01*
X99738884Y-120647334D01*
X99714252Y-120629066D01*
X99691529Y-120608471D01*
X99670934Y-120585748D01*
X99652666Y-120561116D01*
X99636900Y-120534811D01*
X99623788Y-120507089D01*
X99613456Y-120478214D01*
X99606005Y-120448466D01*
X99601505Y-120418130D01*
X99600000Y-120387500D01*
X99600000Y-119612500D01*
X99601505Y-119581870D01*
X99606005Y-119551534D01*
X99613456Y-119521786D01*
X99623788Y-119492911D01*
X99636900Y-119465189D01*
X99652666Y-119438884D01*
X99670934Y-119414252D01*
X99691529Y-119391529D01*
X99714252Y-119370934D01*
X99738884Y-119352666D01*
X99765189Y-119336900D01*
X99792911Y-119323788D01*
X99821786Y-119313456D01*
X99851534Y-119306005D01*
X99881870Y-119301505D01*
X99912500Y-119300000D01*
X100537500Y-119300000D01*
X100568130Y-119301505D01*
X100568130Y-119301505D01*
G37*
D24*
X100225000Y-120000000D03*
%TD*%
D23*
%TO.C,R18*%
G36*
X98618130Y-121801505D02*
G01*
X98648466Y-121806005D01*
X98678214Y-121813456D01*
X98707089Y-121823788D01*
X98734811Y-121836900D01*
X98761116Y-121852666D01*
X98785748Y-121870934D01*
X98808471Y-121891529D01*
X98829066Y-121914252D01*
X98847334Y-121938884D01*
X98863100Y-121965189D01*
X98876212Y-121992911D01*
X98886544Y-122021786D01*
X98893995Y-122051534D01*
X98898495Y-122081870D01*
X98900000Y-122112500D01*
X98900000Y-122887500D01*
X98898495Y-122918130D01*
X98893995Y-122948466D01*
X98886544Y-122978214D01*
X98876212Y-123007089D01*
X98863100Y-123034811D01*
X98847334Y-123061116D01*
X98829066Y-123085748D01*
X98808471Y-123108471D01*
X98785748Y-123129066D01*
X98761116Y-123147334D01*
X98734811Y-123163100D01*
X98707089Y-123176212D01*
X98678214Y-123186544D01*
X98648466Y-123193995D01*
X98618130Y-123198495D01*
X98587500Y-123200000D01*
X97962500Y-123200000D01*
X97931870Y-123198495D01*
X97901534Y-123193995D01*
X97871786Y-123186544D01*
X97842911Y-123176212D01*
X97815189Y-123163100D01*
X97788884Y-123147334D01*
X97764252Y-123129066D01*
X97741529Y-123108471D01*
X97720934Y-123085748D01*
X97702666Y-123061116D01*
X97686900Y-123034811D01*
X97673788Y-123007089D01*
X97663456Y-122978214D01*
X97656005Y-122948466D01*
X97651505Y-122918130D01*
X97650000Y-122887500D01*
X97650000Y-122112500D01*
X97651505Y-122081870D01*
X97656005Y-122051534D01*
X97663456Y-122021786D01*
X97673788Y-121992911D01*
X97686900Y-121965189D01*
X97702666Y-121938884D01*
X97720934Y-121914252D01*
X97741529Y-121891529D01*
X97764252Y-121870934D01*
X97788884Y-121852666D01*
X97815189Y-121836900D01*
X97842911Y-121823788D01*
X97871786Y-121813456D01*
X97901534Y-121806005D01*
X97931870Y-121801505D01*
X97962500Y-121800000D01*
X98587500Y-121800000D01*
X98618130Y-121801505D01*
X98618130Y-121801505D01*
G37*
D24*
X98275000Y-122500000D03*
D23*
G36*
X100568130Y-121801505D02*
G01*
X100598466Y-121806005D01*
X100628214Y-121813456D01*
X100657089Y-121823788D01*
X100684811Y-121836900D01*
X100711116Y-121852666D01*
X100735748Y-121870934D01*
X100758471Y-121891529D01*
X100779066Y-121914252D01*
X100797334Y-121938884D01*
X100813100Y-121965189D01*
X100826212Y-121992911D01*
X100836544Y-122021786D01*
X100843995Y-122051534D01*
X100848495Y-122081870D01*
X100850000Y-122112500D01*
X100850000Y-122887500D01*
X100848495Y-122918130D01*
X100843995Y-122948466D01*
X100836544Y-122978214D01*
X100826212Y-123007089D01*
X100813100Y-123034811D01*
X100797334Y-123061116D01*
X100779066Y-123085748D01*
X100758471Y-123108471D01*
X100735748Y-123129066D01*
X100711116Y-123147334D01*
X100684811Y-123163100D01*
X100657089Y-123176212D01*
X100628214Y-123186544D01*
X100598466Y-123193995D01*
X100568130Y-123198495D01*
X100537500Y-123200000D01*
X99912500Y-123200000D01*
X99881870Y-123198495D01*
X99851534Y-123193995D01*
X99821786Y-123186544D01*
X99792911Y-123176212D01*
X99765189Y-123163100D01*
X99738884Y-123147334D01*
X99714252Y-123129066D01*
X99691529Y-123108471D01*
X99670934Y-123085748D01*
X99652666Y-123061116D01*
X99636900Y-123034811D01*
X99623788Y-123007089D01*
X99613456Y-122978214D01*
X99606005Y-122948466D01*
X99601505Y-122918130D01*
X99600000Y-122887500D01*
X99600000Y-122112500D01*
X99601505Y-122081870D01*
X99606005Y-122051534D01*
X99613456Y-122021786D01*
X99623788Y-121992911D01*
X99636900Y-121965189D01*
X99652666Y-121938884D01*
X99670934Y-121914252D01*
X99691529Y-121891529D01*
X99714252Y-121870934D01*
X99738884Y-121852666D01*
X99765189Y-121836900D01*
X99792911Y-121823788D01*
X99821786Y-121813456D01*
X99851534Y-121806005D01*
X99881870Y-121801505D01*
X99912500Y-121800000D01*
X100537500Y-121800000D01*
X100568130Y-121801505D01*
X100568130Y-121801505D01*
G37*
D24*
X100225000Y-122500000D03*
%TD*%
D23*
%TO.C,R17*%
G36*
X98618130Y-124301505D02*
G01*
X98648466Y-124306005D01*
X98678214Y-124313456D01*
X98707089Y-124323788D01*
X98734811Y-124336900D01*
X98761116Y-124352666D01*
X98785748Y-124370934D01*
X98808471Y-124391529D01*
X98829066Y-124414252D01*
X98847334Y-124438884D01*
X98863100Y-124465189D01*
X98876212Y-124492911D01*
X98886544Y-124521786D01*
X98893995Y-124551534D01*
X98898495Y-124581870D01*
X98900000Y-124612500D01*
X98900000Y-125387500D01*
X98898495Y-125418130D01*
X98893995Y-125448466D01*
X98886544Y-125478214D01*
X98876212Y-125507089D01*
X98863100Y-125534811D01*
X98847334Y-125561116D01*
X98829066Y-125585748D01*
X98808471Y-125608471D01*
X98785748Y-125629066D01*
X98761116Y-125647334D01*
X98734811Y-125663100D01*
X98707089Y-125676212D01*
X98678214Y-125686544D01*
X98648466Y-125693995D01*
X98618130Y-125698495D01*
X98587500Y-125700000D01*
X97962500Y-125700000D01*
X97931870Y-125698495D01*
X97901534Y-125693995D01*
X97871786Y-125686544D01*
X97842911Y-125676212D01*
X97815189Y-125663100D01*
X97788884Y-125647334D01*
X97764252Y-125629066D01*
X97741529Y-125608471D01*
X97720934Y-125585748D01*
X97702666Y-125561116D01*
X97686900Y-125534811D01*
X97673788Y-125507089D01*
X97663456Y-125478214D01*
X97656005Y-125448466D01*
X97651505Y-125418130D01*
X97650000Y-125387500D01*
X97650000Y-124612500D01*
X97651505Y-124581870D01*
X97656005Y-124551534D01*
X97663456Y-124521786D01*
X97673788Y-124492911D01*
X97686900Y-124465189D01*
X97702666Y-124438884D01*
X97720934Y-124414252D01*
X97741529Y-124391529D01*
X97764252Y-124370934D01*
X97788884Y-124352666D01*
X97815189Y-124336900D01*
X97842911Y-124323788D01*
X97871786Y-124313456D01*
X97901534Y-124306005D01*
X97931870Y-124301505D01*
X97962500Y-124300000D01*
X98587500Y-124300000D01*
X98618130Y-124301505D01*
X98618130Y-124301505D01*
G37*
D24*
X98275000Y-125000000D03*
D23*
G36*
X100568130Y-124301505D02*
G01*
X100598466Y-124306005D01*
X100628214Y-124313456D01*
X100657089Y-124323788D01*
X100684811Y-124336900D01*
X100711116Y-124352666D01*
X100735748Y-124370934D01*
X100758471Y-124391529D01*
X100779066Y-124414252D01*
X100797334Y-124438884D01*
X100813100Y-124465189D01*
X100826212Y-124492911D01*
X100836544Y-124521786D01*
X100843995Y-124551534D01*
X100848495Y-124581870D01*
X100850000Y-124612500D01*
X100850000Y-125387500D01*
X100848495Y-125418130D01*
X100843995Y-125448466D01*
X100836544Y-125478214D01*
X100826212Y-125507089D01*
X100813100Y-125534811D01*
X100797334Y-125561116D01*
X100779066Y-125585748D01*
X100758471Y-125608471D01*
X100735748Y-125629066D01*
X100711116Y-125647334D01*
X100684811Y-125663100D01*
X100657089Y-125676212D01*
X100628214Y-125686544D01*
X100598466Y-125693995D01*
X100568130Y-125698495D01*
X100537500Y-125700000D01*
X99912500Y-125700000D01*
X99881870Y-125698495D01*
X99851534Y-125693995D01*
X99821786Y-125686544D01*
X99792911Y-125676212D01*
X99765189Y-125663100D01*
X99738884Y-125647334D01*
X99714252Y-125629066D01*
X99691529Y-125608471D01*
X99670934Y-125585748D01*
X99652666Y-125561116D01*
X99636900Y-125534811D01*
X99623788Y-125507089D01*
X99613456Y-125478214D01*
X99606005Y-125448466D01*
X99601505Y-125418130D01*
X99600000Y-125387500D01*
X99600000Y-124612500D01*
X99601505Y-124581870D01*
X99606005Y-124551534D01*
X99613456Y-124521786D01*
X99623788Y-124492911D01*
X99636900Y-124465189D01*
X99652666Y-124438884D01*
X99670934Y-124414252D01*
X99691529Y-124391529D01*
X99714252Y-124370934D01*
X99738884Y-124352666D01*
X99765189Y-124336900D01*
X99792911Y-124323788D01*
X99821786Y-124313456D01*
X99851534Y-124306005D01*
X99881870Y-124301505D01*
X99912500Y-124300000D01*
X100537500Y-124300000D01*
X100568130Y-124301505D01*
X100568130Y-124301505D01*
G37*
D24*
X100225000Y-125000000D03*
%TD*%
D23*
%TO.C,R16*%
G36*
X96568130Y-124301505D02*
G01*
X96598466Y-124306005D01*
X96628214Y-124313456D01*
X96657089Y-124323788D01*
X96684811Y-124336900D01*
X96711116Y-124352666D01*
X96735748Y-124370934D01*
X96758471Y-124391529D01*
X96779066Y-124414252D01*
X96797334Y-124438884D01*
X96813100Y-124465189D01*
X96826212Y-124492911D01*
X96836544Y-124521786D01*
X96843995Y-124551534D01*
X96848495Y-124581870D01*
X96850000Y-124612500D01*
X96850000Y-125387500D01*
X96848495Y-125418130D01*
X96843995Y-125448466D01*
X96836544Y-125478214D01*
X96826212Y-125507089D01*
X96813100Y-125534811D01*
X96797334Y-125561116D01*
X96779066Y-125585748D01*
X96758471Y-125608471D01*
X96735748Y-125629066D01*
X96711116Y-125647334D01*
X96684811Y-125663100D01*
X96657089Y-125676212D01*
X96628214Y-125686544D01*
X96598466Y-125693995D01*
X96568130Y-125698495D01*
X96537500Y-125700000D01*
X95912500Y-125700000D01*
X95881870Y-125698495D01*
X95851534Y-125693995D01*
X95821786Y-125686544D01*
X95792911Y-125676212D01*
X95765189Y-125663100D01*
X95738884Y-125647334D01*
X95714252Y-125629066D01*
X95691529Y-125608471D01*
X95670934Y-125585748D01*
X95652666Y-125561116D01*
X95636900Y-125534811D01*
X95623788Y-125507089D01*
X95613456Y-125478214D01*
X95606005Y-125448466D01*
X95601505Y-125418130D01*
X95600000Y-125387500D01*
X95600000Y-124612500D01*
X95601505Y-124581870D01*
X95606005Y-124551534D01*
X95613456Y-124521786D01*
X95623788Y-124492911D01*
X95636900Y-124465189D01*
X95652666Y-124438884D01*
X95670934Y-124414252D01*
X95691529Y-124391529D01*
X95714252Y-124370934D01*
X95738884Y-124352666D01*
X95765189Y-124336900D01*
X95792911Y-124323788D01*
X95821786Y-124313456D01*
X95851534Y-124306005D01*
X95881870Y-124301505D01*
X95912500Y-124300000D01*
X96537500Y-124300000D01*
X96568130Y-124301505D01*
X96568130Y-124301505D01*
G37*
D24*
X96225000Y-125000000D03*
D23*
G36*
X94618130Y-124301505D02*
G01*
X94648466Y-124306005D01*
X94678214Y-124313456D01*
X94707089Y-124323788D01*
X94734811Y-124336900D01*
X94761116Y-124352666D01*
X94785748Y-124370934D01*
X94808471Y-124391529D01*
X94829066Y-124414252D01*
X94847334Y-124438884D01*
X94863100Y-124465189D01*
X94876212Y-124492911D01*
X94886544Y-124521786D01*
X94893995Y-124551534D01*
X94898495Y-124581870D01*
X94900000Y-124612500D01*
X94900000Y-125387500D01*
X94898495Y-125418130D01*
X94893995Y-125448466D01*
X94886544Y-125478214D01*
X94876212Y-125507089D01*
X94863100Y-125534811D01*
X94847334Y-125561116D01*
X94829066Y-125585748D01*
X94808471Y-125608471D01*
X94785748Y-125629066D01*
X94761116Y-125647334D01*
X94734811Y-125663100D01*
X94707089Y-125676212D01*
X94678214Y-125686544D01*
X94648466Y-125693995D01*
X94618130Y-125698495D01*
X94587500Y-125700000D01*
X93962500Y-125700000D01*
X93931870Y-125698495D01*
X93901534Y-125693995D01*
X93871786Y-125686544D01*
X93842911Y-125676212D01*
X93815189Y-125663100D01*
X93788884Y-125647334D01*
X93764252Y-125629066D01*
X93741529Y-125608471D01*
X93720934Y-125585748D01*
X93702666Y-125561116D01*
X93686900Y-125534811D01*
X93673788Y-125507089D01*
X93663456Y-125478214D01*
X93656005Y-125448466D01*
X93651505Y-125418130D01*
X93650000Y-125387500D01*
X93650000Y-124612500D01*
X93651505Y-124581870D01*
X93656005Y-124551534D01*
X93663456Y-124521786D01*
X93673788Y-124492911D01*
X93686900Y-124465189D01*
X93702666Y-124438884D01*
X93720934Y-124414252D01*
X93741529Y-124391529D01*
X93764252Y-124370934D01*
X93788884Y-124352666D01*
X93815189Y-124336900D01*
X93842911Y-124323788D01*
X93871786Y-124313456D01*
X93901534Y-124306005D01*
X93931870Y-124301505D01*
X93962500Y-124300000D01*
X94587500Y-124300000D01*
X94618130Y-124301505D01*
X94618130Y-124301505D01*
G37*
D24*
X94275000Y-125000000D03*
%TD*%
D23*
%TO.C,R15*%
G36*
X96568130Y-119301505D02*
G01*
X96598466Y-119306005D01*
X96628214Y-119313456D01*
X96657089Y-119323788D01*
X96684811Y-119336900D01*
X96711116Y-119352666D01*
X96735748Y-119370934D01*
X96758471Y-119391529D01*
X96779066Y-119414252D01*
X96797334Y-119438884D01*
X96813100Y-119465189D01*
X96826212Y-119492911D01*
X96836544Y-119521786D01*
X96843995Y-119551534D01*
X96848495Y-119581870D01*
X96850000Y-119612500D01*
X96850000Y-120387500D01*
X96848495Y-120418130D01*
X96843995Y-120448466D01*
X96836544Y-120478214D01*
X96826212Y-120507089D01*
X96813100Y-120534811D01*
X96797334Y-120561116D01*
X96779066Y-120585748D01*
X96758471Y-120608471D01*
X96735748Y-120629066D01*
X96711116Y-120647334D01*
X96684811Y-120663100D01*
X96657089Y-120676212D01*
X96628214Y-120686544D01*
X96598466Y-120693995D01*
X96568130Y-120698495D01*
X96537500Y-120700000D01*
X95912500Y-120700000D01*
X95881870Y-120698495D01*
X95851534Y-120693995D01*
X95821786Y-120686544D01*
X95792911Y-120676212D01*
X95765189Y-120663100D01*
X95738884Y-120647334D01*
X95714252Y-120629066D01*
X95691529Y-120608471D01*
X95670934Y-120585748D01*
X95652666Y-120561116D01*
X95636900Y-120534811D01*
X95623788Y-120507089D01*
X95613456Y-120478214D01*
X95606005Y-120448466D01*
X95601505Y-120418130D01*
X95600000Y-120387500D01*
X95600000Y-119612500D01*
X95601505Y-119581870D01*
X95606005Y-119551534D01*
X95613456Y-119521786D01*
X95623788Y-119492911D01*
X95636900Y-119465189D01*
X95652666Y-119438884D01*
X95670934Y-119414252D01*
X95691529Y-119391529D01*
X95714252Y-119370934D01*
X95738884Y-119352666D01*
X95765189Y-119336900D01*
X95792911Y-119323788D01*
X95821786Y-119313456D01*
X95851534Y-119306005D01*
X95881870Y-119301505D01*
X95912500Y-119300000D01*
X96537500Y-119300000D01*
X96568130Y-119301505D01*
X96568130Y-119301505D01*
G37*
D24*
X96225000Y-120000000D03*
D23*
G36*
X94618130Y-119301505D02*
G01*
X94648466Y-119306005D01*
X94678214Y-119313456D01*
X94707089Y-119323788D01*
X94734811Y-119336900D01*
X94761116Y-119352666D01*
X94785748Y-119370934D01*
X94808471Y-119391529D01*
X94829066Y-119414252D01*
X94847334Y-119438884D01*
X94863100Y-119465189D01*
X94876212Y-119492911D01*
X94886544Y-119521786D01*
X94893995Y-119551534D01*
X94898495Y-119581870D01*
X94900000Y-119612500D01*
X94900000Y-120387500D01*
X94898495Y-120418130D01*
X94893995Y-120448466D01*
X94886544Y-120478214D01*
X94876212Y-120507089D01*
X94863100Y-120534811D01*
X94847334Y-120561116D01*
X94829066Y-120585748D01*
X94808471Y-120608471D01*
X94785748Y-120629066D01*
X94761116Y-120647334D01*
X94734811Y-120663100D01*
X94707089Y-120676212D01*
X94678214Y-120686544D01*
X94648466Y-120693995D01*
X94618130Y-120698495D01*
X94587500Y-120700000D01*
X93962500Y-120700000D01*
X93931870Y-120698495D01*
X93901534Y-120693995D01*
X93871786Y-120686544D01*
X93842911Y-120676212D01*
X93815189Y-120663100D01*
X93788884Y-120647334D01*
X93764252Y-120629066D01*
X93741529Y-120608471D01*
X93720934Y-120585748D01*
X93702666Y-120561116D01*
X93686900Y-120534811D01*
X93673788Y-120507089D01*
X93663456Y-120478214D01*
X93656005Y-120448466D01*
X93651505Y-120418130D01*
X93650000Y-120387500D01*
X93650000Y-119612500D01*
X93651505Y-119581870D01*
X93656005Y-119551534D01*
X93663456Y-119521786D01*
X93673788Y-119492911D01*
X93686900Y-119465189D01*
X93702666Y-119438884D01*
X93720934Y-119414252D01*
X93741529Y-119391529D01*
X93764252Y-119370934D01*
X93788884Y-119352666D01*
X93815189Y-119336900D01*
X93842911Y-119323788D01*
X93871786Y-119313456D01*
X93901534Y-119306005D01*
X93931870Y-119301505D01*
X93962500Y-119300000D01*
X94587500Y-119300000D01*
X94618130Y-119301505D01*
X94618130Y-119301505D01*
G37*
D24*
X94275000Y-120000000D03*
%TD*%
D23*
%TO.C,R14*%
G36*
X96568130Y-121801505D02*
G01*
X96598466Y-121806005D01*
X96628214Y-121813456D01*
X96657089Y-121823788D01*
X96684811Y-121836900D01*
X96711116Y-121852666D01*
X96735748Y-121870934D01*
X96758471Y-121891529D01*
X96779066Y-121914252D01*
X96797334Y-121938884D01*
X96813100Y-121965189D01*
X96826212Y-121992911D01*
X96836544Y-122021786D01*
X96843995Y-122051534D01*
X96848495Y-122081870D01*
X96850000Y-122112500D01*
X96850000Y-122887500D01*
X96848495Y-122918130D01*
X96843995Y-122948466D01*
X96836544Y-122978214D01*
X96826212Y-123007089D01*
X96813100Y-123034811D01*
X96797334Y-123061116D01*
X96779066Y-123085748D01*
X96758471Y-123108471D01*
X96735748Y-123129066D01*
X96711116Y-123147334D01*
X96684811Y-123163100D01*
X96657089Y-123176212D01*
X96628214Y-123186544D01*
X96598466Y-123193995D01*
X96568130Y-123198495D01*
X96537500Y-123200000D01*
X95912500Y-123200000D01*
X95881870Y-123198495D01*
X95851534Y-123193995D01*
X95821786Y-123186544D01*
X95792911Y-123176212D01*
X95765189Y-123163100D01*
X95738884Y-123147334D01*
X95714252Y-123129066D01*
X95691529Y-123108471D01*
X95670934Y-123085748D01*
X95652666Y-123061116D01*
X95636900Y-123034811D01*
X95623788Y-123007089D01*
X95613456Y-122978214D01*
X95606005Y-122948466D01*
X95601505Y-122918130D01*
X95600000Y-122887500D01*
X95600000Y-122112500D01*
X95601505Y-122081870D01*
X95606005Y-122051534D01*
X95613456Y-122021786D01*
X95623788Y-121992911D01*
X95636900Y-121965189D01*
X95652666Y-121938884D01*
X95670934Y-121914252D01*
X95691529Y-121891529D01*
X95714252Y-121870934D01*
X95738884Y-121852666D01*
X95765189Y-121836900D01*
X95792911Y-121823788D01*
X95821786Y-121813456D01*
X95851534Y-121806005D01*
X95881870Y-121801505D01*
X95912500Y-121800000D01*
X96537500Y-121800000D01*
X96568130Y-121801505D01*
X96568130Y-121801505D01*
G37*
D24*
X96225000Y-122500000D03*
D23*
G36*
X94618130Y-121801505D02*
G01*
X94648466Y-121806005D01*
X94678214Y-121813456D01*
X94707089Y-121823788D01*
X94734811Y-121836900D01*
X94761116Y-121852666D01*
X94785748Y-121870934D01*
X94808471Y-121891529D01*
X94829066Y-121914252D01*
X94847334Y-121938884D01*
X94863100Y-121965189D01*
X94876212Y-121992911D01*
X94886544Y-122021786D01*
X94893995Y-122051534D01*
X94898495Y-122081870D01*
X94900000Y-122112500D01*
X94900000Y-122887500D01*
X94898495Y-122918130D01*
X94893995Y-122948466D01*
X94886544Y-122978214D01*
X94876212Y-123007089D01*
X94863100Y-123034811D01*
X94847334Y-123061116D01*
X94829066Y-123085748D01*
X94808471Y-123108471D01*
X94785748Y-123129066D01*
X94761116Y-123147334D01*
X94734811Y-123163100D01*
X94707089Y-123176212D01*
X94678214Y-123186544D01*
X94648466Y-123193995D01*
X94618130Y-123198495D01*
X94587500Y-123200000D01*
X93962500Y-123200000D01*
X93931870Y-123198495D01*
X93901534Y-123193995D01*
X93871786Y-123186544D01*
X93842911Y-123176212D01*
X93815189Y-123163100D01*
X93788884Y-123147334D01*
X93764252Y-123129066D01*
X93741529Y-123108471D01*
X93720934Y-123085748D01*
X93702666Y-123061116D01*
X93686900Y-123034811D01*
X93673788Y-123007089D01*
X93663456Y-122978214D01*
X93656005Y-122948466D01*
X93651505Y-122918130D01*
X93650000Y-122887500D01*
X93650000Y-122112500D01*
X93651505Y-122081870D01*
X93656005Y-122051534D01*
X93663456Y-122021786D01*
X93673788Y-121992911D01*
X93686900Y-121965189D01*
X93702666Y-121938884D01*
X93720934Y-121914252D01*
X93741529Y-121891529D01*
X93764252Y-121870934D01*
X93788884Y-121852666D01*
X93815189Y-121836900D01*
X93842911Y-121823788D01*
X93871786Y-121813456D01*
X93901534Y-121806005D01*
X93931870Y-121801505D01*
X93962500Y-121800000D01*
X94587500Y-121800000D01*
X94618130Y-121801505D01*
X94618130Y-121801505D01*
G37*
D24*
X94275000Y-122500000D03*
%TD*%
D23*
%TO.C,R13*%
G36*
X86368130Y-116051505D02*
G01*
X86398466Y-116056005D01*
X86428214Y-116063456D01*
X86457089Y-116073788D01*
X86484811Y-116086900D01*
X86511116Y-116102666D01*
X86535748Y-116120934D01*
X86558471Y-116141529D01*
X86579066Y-116164252D01*
X86597334Y-116188884D01*
X86613100Y-116215189D01*
X86626212Y-116242911D01*
X86636544Y-116271786D01*
X86643995Y-116301534D01*
X86648495Y-116331870D01*
X86650000Y-116362500D01*
X86650000Y-117137500D01*
X86648495Y-117168130D01*
X86643995Y-117198466D01*
X86636544Y-117228214D01*
X86626212Y-117257089D01*
X86613100Y-117284811D01*
X86597334Y-117311116D01*
X86579066Y-117335748D01*
X86558471Y-117358471D01*
X86535748Y-117379066D01*
X86511116Y-117397334D01*
X86484811Y-117413100D01*
X86457089Y-117426212D01*
X86428214Y-117436544D01*
X86398466Y-117443995D01*
X86368130Y-117448495D01*
X86337500Y-117450000D01*
X85712500Y-117450000D01*
X85681870Y-117448495D01*
X85651534Y-117443995D01*
X85621786Y-117436544D01*
X85592911Y-117426212D01*
X85565189Y-117413100D01*
X85538884Y-117397334D01*
X85514252Y-117379066D01*
X85491529Y-117358471D01*
X85470934Y-117335748D01*
X85452666Y-117311116D01*
X85436900Y-117284811D01*
X85423788Y-117257089D01*
X85413456Y-117228214D01*
X85406005Y-117198466D01*
X85401505Y-117168130D01*
X85400000Y-117137500D01*
X85400000Y-116362500D01*
X85401505Y-116331870D01*
X85406005Y-116301534D01*
X85413456Y-116271786D01*
X85423788Y-116242911D01*
X85436900Y-116215189D01*
X85452666Y-116188884D01*
X85470934Y-116164252D01*
X85491529Y-116141529D01*
X85514252Y-116120934D01*
X85538884Y-116102666D01*
X85565189Y-116086900D01*
X85592911Y-116073788D01*
X85621786Y-116063456D01*
X85651534Y-116056005D01*
X85681870Y-116051505D01*
X85712500Y-116050000D01*
X86337500Y-116050000D01*
X86368130Y-116051505D01*
X86368130Y-116051505D01*
G37*
D24*
X86025000Y-116750000D03*
D23*
G36*
X88318130Y-116051505D02*
G01*
X88348466Y-116056005D01*
X88378214Y-116063456D01*
X88407089Y-116073788D01*
X88434811Y-116086900D01*
X88461116Y-116102666D01*
X88485748Y-116120934D01*
X88508471Y-116141529D01*
X88529066Y-116164252D01*
X88547334Y-116188884D01*
X88563100Y-116215189D01*
X88576212Y-116242911D01*
X88586544Y-116271786D01*
X88593995Y-116301534D01*
X88598495Y-116331870D01*
X88600000Y-116362500D01*
X88600000Y-117137500D01*
X88598495Y-117168130D01*
X88593995Y-117198466D01*
X88586544Y-117228214D01*
X88576212Y-117257089D01*
X88563100Y-117284811D01*
X88547334Y-117311116D01*
X88529066Y-117335748D01*
X88508471Y-117358471D01*
X88485748Y-117379066D01*
X88461116Y-117397334D01*
X88434811Y-117413100D01*
X88407089Y-117426212D01*
X88378214Y-117436544D01*
X88348466Y-117443995D01*
X88318130Y-117448495D01*
X88287500Y-117450000D01*
X87662500Y-117450000D01*
X87631870Y-117448495D01*
X87601534Y-117443995D01*
X87571786Y-117436544D01*
X87542911Y-117426212D01*
X87515189Y-117413100D01*
X87488884Y-117397334D01*
X87464252Y-117379066D01*
X87441529Y-117358471D01*
X87420934Y-117335748D01*
X87402666Y-117311116D01*
X87386900Y-117284811D01*
X87373788Y-117257089D01*
X87363456Y-117228214D01*
X87356005Y-117198466D01*
X87351505Y-117168130D01*
X87350000Y-117137500D01*
X87350000Y-116362500D01*
X87351505Y-116331870D01*
X87356005Y-116301534D01*
X87363456Y-116271786D01*
X87373788Y-116242911D01*
X87386900Y-116215189D01*
X87402666Y-116188884D01*
X87420934Y-116164252D01*
X87441529Y-116141529D01*
X87464252Y-116120934D01*
X87488884Y-116102666D01*
X87515189Y-116086900D01*
X87542911Y-116073788D01*
X87571786Y-116063456D01*
X87601534Y-116056005D01*
X87631870Y-116051505D01*
X87662500Y-116050000D01*
X88287500Y-116050000D01*
X88318130Y-116051505D01*
X88318130Y-116051505D01*
G37*
D24*
X87975000Y-116750000D03*
%TD*%
D23*
%TO.C,R12*%
G36*
X91068130Y-129301505D02*
G01*
X91098466Y-129306005D01*
X91128214Y-129313456D01*
X91157089Y-129323788D01*
X91184811Y-129336900D01*
X91211116Y-129352666D01*
X91235748Y-129370934D01*
X91258471Y-129391529D01*
X91279066Y-129414252D01*
X91297334Y-129438884D01*
X91313100Y-129465189D01*
X91326212Y-129492911D01*
X91336544Y-129521786D01*
X91343995Y-129551534D01*
X91348495Y-129581870D01*
X91350000Y-129612500D01*
X91350000Y-130387500D01*
X91348495Y-130418130D01*
X91343995Y-130448466D01*
X91336544Y-130478214D01*
X91326212Y-130507089D01*
X91313100Y-130534811D01*
X91297334Y-130561116D01*
X91279066Y-130585748D01*
X91258471Y-130608471D01*
X91235748Y-130629066D01*
X91211116Y-130647334D01*
X91184811Y-130663100D01*
X91157089Y-130676212D01*
X91128214Y-130686544D01*
X91098466Y-130693995D01*
X91068130Y-130698495D01*
X91037500Y-130700000D01*
X90412500Y-130700000D01*
X90381870Y-130698495D01*
X90351534Y-130693995D01*
X90321786Y-130686544D01*
X90292911Y-130676212D01*
X90265189Y-130663100D01*
X90238884Y-130647334D01*
X90214252Y-130629066D01*
X90191529Y-130608471D01*
X90170934Y-130585748D01*
X90152666Y-130561116D01*
X90136900Y-130534811D01*
X90123788Y-130507089D01*
X90113456Y-130478214D01*
X90106005Y-130448466D01*
X90101505Y-130418130D01*
X90100000Y-130387500D01*
X90100000Y-129612500D01*
X90101505Y-129581870D01*
X90106005Y-129551534D01*
X90113456Y-129521786D01*
X90123788Y-129492911D01*
X90136900Y-129465189D01*
X90152666Y-129438884D01*
X90170934Y-129414252D01*
X90191529Y-129391529D01*
X90214252Y-129370934D01*
X90238884Y-129352666D01*
X90265189Y-129336900D01*
X90292911Y-129323788D01*
X90321786Y-129313456D01*
X90351534Y-129306005D01*
X90381870Y-129301505D01*
X90412500Y-129300000D01*
X91037500Y-129300000D01*
X91068130Y-129301505D01*
X91068130Y-129301505D01*
G37*
D24*
X90725000Y-130000000D03*
D23*
G36*
X89118130Y-129301505D02*
G01*
X89148466Y-129306005D01*
X89178214Y-129313456D01*
X89207089Y-129323788D01*
X89234811Y-129336900D01*
X89261116Y-129352666D01*
X89285748Y-129370934D01*
X89308471Y-129391529D01*
X89329066Y-129414252D01*
X89347334Y-129438884D01*
X89363100Y-129465189D01*
X89376212Y-129492911D01*
X89386544Y-129521786D01*
X89393995Y-129551534D01*
X89398495Y-129581870D01*
X89400000Y-129612500D01*
X89400000Y-130387500D01*
X89398495Y-130418130D01*
X89393995Y-130448466D01*
X89386544Y-130478214D01*
X89376212Y-130507089D01*
X89363100Y-130534811D01*
X89347334Y-130561116D01*
X89329066Y-130585748D01*
X89308471Y-130608471D01*
X89285748Y-130629066D01*
X89261116Y-130647334D01*
X89234811Y-130663100D01*
X89207089Y-130676212D01*
X89178214Y-130686544D01*
X89148466Y-130693995D01*
X89118130Y-130698495D01*
X89087500Y-130700000D01*
X88462500Y-130700000D01*
X88431870Y-130698495D01*
X88401534Y-130693995D01*
X88371786Y-130686544D01*
X88342911Y-130676212D01*
X88315189Y-130663100D01*
X88288884Y-130647334D01*
X88264252Y-130629066D01*
X88241529Y-130608471D01*
X88220934Y-130585748D01*
X88202666Y-130561116D01*
X88186900Y-130534811D01*
X88173788Y-130507089D01*
X88163456Y-130478214D01*
X88156005Y-130448466D01*
X88151505Y-130418130D01*
X88150000Y-130387500D01*
X88150000Y-129612500D01*
X88151505Y-129581870D01*
X88156005Y-129551534D01*
X88163456Y-129521786D01*
X88173788Y-129492911D01*
X88186900Y-129465189D01*
X88202666Y-129438884D01*
X88220934Y-129414252D01*
X88241529Y-129391529D01*
X88264252Y-129370934D01*
X88288884Y-129352666D01*
X88315189Y-129336900D01*
X88342911Y-129323788D01*
X88371786Y-129313456D01*
X88401534Y-129306005D01*
X88431870Y-129301505D01*
X88462500Y-129300000D01*
X89087500Y-129300000D01*
X89118130Y-129301505D01*
X89118130Y-129301505D01*
G37*
D24*
X88775000Y-130000000D03*
%TD*%
D23*
%TO.C,R11*%
G36*
X88318130Y-118551505D02*
G01*
X88348466Y-118556005D01*
X88378214Y-118563456D01*
X88407089Y-118573788D01*
X88434811Y-118586900D01*
X88461116Y-118602666D01*
X88485748Y-118620934D01*
X88508471Y-118641529D01*
X88529066Y-118664252D01*
X88547334Y-118688884D01*
X88563100Y-118715189D01*
X88576212Y-118742911D01*
X88586544Y-118771786D01*
X88593995Y-118801534D01*
X88598495Y-118831870D01*
X88600000Y-118862500D01*
X88600000Y-119637500D01*
X88598495Y-119668130D01*
X88593995Y-119698466D01*
X88586544Y-119728214D01*
X88576212Y-119757089D01*
X88563100Y-119784811D01*
X88547334Y-119811116D01*
X88529066Y-119835748D01*
X88508471Y-119858471D01*
X88485748Y-119879066D01*
X88461116Y-119897334D01*
X88434811Y-119913100D01*
X88407089Y-119926212D01*
X88378214Y-119936544D01*
X88348466Y-119943995D01*
X88318130Y-119948495D01*
X88287500Y-119950000D01*
X87662500Y-119950000D01*
X87631870Y-119948495D01*
X87601534Y-119943995D01*
X87571786Y-119936544D01*
X87542911Y-119926212D01*
X87515189Y-119913100D01*
X87488884Y-119897334D01*
X87464252Y-119879066D01*
X87441529Y-119858471D01*
X87420934Y-119835748D01*
X87402666Y-119811116D01*
X87386900Y-119784811D01*
X87373788Y-119757089D01*
X87363456Y-119728214D01*
X87356005Y-119698466D01*
X87351505Y-119668130D01*
X87350000Y-119637500D01*
X87350000Y-118862500D01*
X87351505Y-118831870D01*
X87356005Y-118801534D01*
X87363456Y-118771786D01*
X87373788Y-118742911D01*
X87386900Y-118715189D01*
X87402666Y-118688884D01*
X87420934Y-118664252D01*
X87441529Y-118641529D01*
X87464252Y-118620934D01*
X87488884Y-118602666D01*
X87515189Y-118586900D01*
X87542911Y-118573788D01*
X87571786Y-118563456D01*
X87601534Y-118556005D01*
X87631870Y-118551505D01*
X87662500Y-118550000D01*
X88287500Y-118550000D01*
X88318130Y-118551505D01*
X88318130Y-118551505D01*
G37*
D24*
X87975000Y-119250000D03*
D23*
G36*
X86368130Y-118551505D02*
G01*
X86398466Y-118556005D01*
X86428214Y-118563456D01*
X86457089Y-118573788D01*
X86484811Y-118586900D01*
X86511116Y-118602666D01*
X86535748Y-118620934D01*
X86558471Y-118641529D01*
X86579066Y-118664252D01*
X86597334Y-118688884D01*
X86613100Y-118715189D01*
X86626212Y-118742911D01*
X86636544Y-118771786D01*
X86643995Y-118801534D01*
X86648495Y-118831870D01*
X86650000Y-118862500D01*
X86650000Y-119637500D01*
X86648495Y-119668130D01*
X86643995Y-119698466D01*
X86636544Y-119728214D01*
X86626212Y-119757089D01*
X86613100Y-119784811D01*
X86597334Y-119811116D01*
X86579066Y-119835748D01*
X86558471Y-119858471D01*
X86535748Y-119879066D01*
X86511116Y-119897334D01*
X86484811Y-119913100D01*
X86457089Y-119926212D01*
X86428214Y-119936544D01*
X86398466Y-119943995D01*
X86368130Y-119948495D01*
X86337500Y-119950000D01*
X85712500Y-119950000D01*
X85681870Y-119948495D01*
X85651534Y-119943995D01*
X85621786Y-119936544D01*
X85592911Y-119926212D01*
X85565189Y-119913100D01*
X85538884Y-119897334D01*
X85514252Y-119879066D01*
X85491529Y-119858471D01*
X85470934Y-119835748D01*
X85452666Y-119811116D01*
X85436900Y-119784811D01*
X85423788Y-119757089D01*
X85413456Y-119728214D01*
X85406005Y-119698466D01*
X85401505Y-119668130D01*
X85400000Y-119637500D01*
X85400000Y-118862500D01*
X85401505Y-118831870D01*
X85406005Y-118801534D01*
X85413456Y-118771786D01*
X85423788Y-118742911D01*
X85436900Y-118715189D01*
X85452666Y-118688884D01*
X85470934Y-118664252D01*
X85491529Y-118641529D01*
X85514252Y-118620934D01*
X85538884Y-118602666D01*
X85565189Y-118586900D01*
X85592911Y-118573788D01*
X85621786Y-118563456D01*
X85651534Y-118556005D01*
X85681870Y-118551505D01*
X85712500Y-118550000D01*
X86337500Y-118550000D01*
X86368130Y-118551505D01*
X86368130Y-118551505D01*
G37*
D24*
X86025000Y-119250000D03*
%TD*%
D23*
%TO.C,R10*%
G36*
X97868130Y-132051505D02*
G01*
X97898466Y-132056005D01*
X97928214Y-132063456D01*
X97957089Y-132073788D01*
X97984811Y-132086900D01*
X98011116Y-132102666D01*
X98035748Y-132120934D01*
X98058471Y-132141529D01*
X98079066Y-132164252D01*
X98097334Y-132188884D01*
X98113100Y-132215189D01*
X98126212Y-132242911D01*
X98136544Y-132271786D01*
X98143995Y-132301534D01*
X98148495Y-132331870D01*
X98150000Y-132362500D01*
X98150000Y-133137500D01*
X98148495Y-133168130D01*
X98143995Y-133198466D01*
X98136544Y-133228214D01*
X98126212Y-133257089D01*
X98113100Y-133284811D01*
X98097334Y-133311116D01*
X98079066Y-133335748D01*
X98058471Y-133358471D01*
X98035748Y-133379066D01*
X98011116Y-133397334D01*
X97984811Y-133413100D01*
X97957089Y-133426212D01*
X97928214Y-133436544D01*
X97898466Y-133443995D01*
X97868130Y-133448495D01*
X97837500Y-133450000D01*
X97212500Y-133450000D01*
X97181870Y-133448495D01*
X97151534Y-133443995D01*
X97121786Y-133436544D01*
X97092911Y-133426212D01*
X97065189Y-133413100D01*
X97038884Y-133397334D01*
X97014252Y-133379066D01*
X96991529Y-133358471D01*
X96970934Y-133335748D01*
X96952666Y-133311116D01*
X96936900Y-133284811D01*
X96923788Y-133257089D01*
X96913456Y-133228214D01*
X96906005Y-133198466D01*
X96901505Y-133168130D01*
X96900000Y-133137500D01*
X96900000Y-132362500D01*
X96901505Y-132331870D01*
X96906005Y-132301534D01*
X96913456Y-132271786D01*
X96923788Y-132242911D01*
X96936900Y-132215189D01*
X96952666Y-132188884D01*
X96970934Y-132164252D01*
X96991529Y-132141529D01*
X97014252Y-132120934D01*
X97038884Y-132102666D01*
X97065189Y-132086900D01*
X97092911Y-132073788D01*
X97121786Y-132063456D01*
X97151534Y-132056005D01*
X97181870Y-132051505D01*
X97212500Y-132050000D01*
X97837500Y-132050000D01*
X97868130Y-132051505D01*
X97868130Y-132051505D01*
G37*
D24*
X97525000Y-132750000D03*
D23*
G36*
X99818130Y-132051505D02*
G01*
X99848466Y-132056005D01*
X99878214Y-132063456D01*
X99907089Y-132073788D01*
X99934811Y-132086900D01*
X99961116Y-132102666D01*
X99985748Y-132120934D01*
X100008471Y-132141529D01*
X100029066Y-132164252D01*
X100047334Y-132188884D01*
X100063100Y-132215189D01*
X100076212Y-132242911D01*
X100086544Y-132271786D01*
X100093995Y-132301534D01*
X100098495Y-132331870D01*
X100100000Y-132362500D01*
X100100000Y-133137500D01*
X100098495Y-133168130D01*
X100093995Y-133198466D01*
X100086544Y-133228214D01*
X100076212Y-133257089D01*
X100063100Y-133284811D01*
X100047334Y-133311116D01*
X100029066Y-133335748D01*
X100008471Y-133358471D01*
X99985748Y-133379066D01*
X99961116Y-133397334D01*
X99934811Y-133413100D01*
X99907089Y-133426212D01*
X99878214Y-133436544D01*
X99848466Y-133443995D01*
X99818130Y-133448495D01*
X99787500Y-133450000D01*
X99162500Y-133450000D01*
X99131870Y-133448495D01*
X99101534Y-133443995D01*
X99071786Y-133436544D01*
X99042911Y-133426212D01*
X99015189Y-133413100D01*
X98988884Y-133397334D01*
X98964252Y-133379066D01*
X98941529Y-133358471D01*
X98920934Y-133335748D01*
X98902666Y-133311116D01*
X98886900Y-133284811D01*
X98873788Y-133257089D01*
X98863456Y-133228214D01*
X98856005Y-133198466D01*
X98851505Y-133168130D01*
X98850000Y-133137500D01*
X98850000Y-132362500D01*
X98851505Y-132331870D01*
X98856005Y-132301534D01*
X98863456Y-132271786D01*
X98873788Y-132242911D01*
X98886900Y-132215189D01*
X98902666Y-132188884D01*
X98920934Y-132164252D01*
X98941529Y-132141529D01*
X98964252Y-132120934D01*
X98988884Y-132102666D01*
X99015189Y-132086900D01*
X99042911Y-132073788D01*
X99071786Y-132063456D01*
X99101534Y-132056005D01*
X99131870Y-132051505D01*
X99162500Y-132050000D01*
X99787500Y-132050000D01*
X99818130Y-132051505D01*
X99818130Y-132051505D01*
G37*
D24*
X99475000Y-132750000D03*
%TD*%
D23*
%TO.C,R9*%
G36*
X100918130Y-128851505D02*
G01*
X100948466Y-128856005D01*
X100978214Y-128863456D01*
X101007089Y-128873788D01*
X101034811Y-128886900D01*
X101061116Y-128902666D01*
X101085748Y-128920934D01*
X101108471Y-128941529D01*
X101129066Y-128964252D01*
X101147334Y-128988884D01*
X101163100Y-129015189D01*
X101176212Y-129042911D01*
X101186544Y-129071786D01*
X101193995Y-129101534D01*
X101198495Y-129131870D01*
X101200000Y-129162500D01*
X101200000Y-129787500D01*
X101198495Y-129818130D01*
X101193995Y-129848466D01*
X101186544Y-129878214D01*
X101176212Y-129907089D01*
X101163100Y-129934811D01*
X101147334Y-129961116D01*
X101129066Y-129985748D01*
X101108471Y-130008471D01*
X101085748Y-130029066D01*
X101061116Y-130047334D01*
X101034811Y-130063100D01*
X101007089Y-130076212D01*
X100978214Y-130086544D01*
X100948466Y-130093995D01*
X100918130Y-130098495D01*
X100887500Y-130100000D01*
X100112500Y-130100000D01*
X100081870Y-130098495D01*
X100051534Y-130093995D01*
X100021786Y-130086544D01*
X99992911Y-130076212D01*
X99965189Y-130063100D01*
X99938884Y-130047334D01*
X99914252Y-130029066D01*
X99891529Y-130008471D01*
X99870934Y-129985748D01*
X99852666Y-129961116D01*
X99836900Y-129934811D01*
X99823788Y-129907089D01*
X99813456Y-129878214D01*
X99806005Y-129848466D01*
X99801505Y-129818130D01*
X99800000Y-129787500D01*
X99800000Y-129162500D01*
X99801505Y-129131870D01*
X99806005Y-129101534D01*
X99813456Y-129071786D01*
X99823788Y-129042911D01*
X99836900Y-129015189D01*
X99852666Y-128988884D01*
X99870934Y-128964252D01*
X99891529Y-128941529D01*
X99914252Y-128920934D01*
X99938884Y-128902666D01*
X99965189Y-128886900D01*
X99992911Y-128873788D01*
X100021786Y-128863456D01*
X100051534Y-128856005D01*
X100081870Y-128851505D01*
X100112500Y-128850000D01*
X100887500Y-128850000D01*
X100918130Y-128851505D01*
X100918130Y-128851505D01*
G37*
D24*
X100500000Y-129475000D03*
D23*
G36*
X100918130Y-126901505D02*
G01*
X100948466Y-126906005D01*
X100978214Y-126913456D01*
X101007089Y-126923788D01*
X101034811Y-126936900D01*
X101061116Y-126952666D01*
X101085748Y-126970934D01*
X101108471Y-126991529D01*
X101129066Y-127014252D01*
X101147334Y-127038884D01*
X101163100Y-127065189D01*
X101176212Y-127092911D01*
X101186544Y-127121786D01*
X101193995Y-127151534D01*
X101198495Y-127181870D01*
X101200000Y-127212500D01*
X101200000Y-127837500D01*
X101198495Y-127868130D01*
X101193995Y-127898466D01*
X101186544Y-127928214D01*
X101176212Y-127957089D01*
X101163100Y-127984811D01*
X101147334Y-128011116D01*
X101129066Y-128035748D01*
X101108471Y-128058471D01*
X101085748Y-128079066D01*
X101061116Y-128097334D01*
X101034811Y-128113100D01*
X101007089Y-128126212D01*
X100978214Y-128136544D01*
X100948466Y-128143995D01*
X100918130Y-128148495D01*
X100887500Y-128150000D01*
X100112500Y-128150000D01*
X100081870Y-128148495D01*
X100051534Y-128143995D01*
X100021786Y-128136544D01*
X99992911Y-128126212D01*
X99965189Y-128113100D01*
X99938884Y-128097334D01*
X99914252Y-128079066D01*
X99891529Y-128058471D01*
X99870934Y-128035748D01*
X99852666Y-128011116D01*
X99836900Y-127984811D01*
X99823788Y-127957089D01*
X99813456Y-127928214D01*
X99806005Y-127898466D01*
X99801505Y-127868130D01*
X99800000Y-127837500D01*
X99800000Y-127212500D01*
X99801505Y-127181870D01*
X99806005Y-127151534D01*
X99813456Y-127121786D01*
X99823788Y-127092911D01*
X99836900Y-127065189D01*
X99852666Y-127038884D01*
X99870934Y-127014252D01*
X99891529Y-126991529D01*
X99914252Y-126970934D01*
X99938884Y-126952666D01*
X99965189Y-126936900D01*
X99992911Y-126923788D01*
X100021786Y-126913456D01*
X100051534Y-126906005D01*
X100081870Y-126901505D01*
X100112500Y-126900000D01*
X100887500Y-126900000D01*
X100918130Y-126901505D01*
X100918130Y-126901505D01*
G37*
D24*
X100500000Y-127525000D03*
%TD*%
D23*
%TO.C,R8*%
G36*
X98418130Y-128851505D02*
G01*
X98448466Y-128856005D01*
X98478214Y-128863456D01*
X98507089Y-128873788D01*
X98534811Y-128886900D01*
X98561116Y-128902666D01*
X98585748Y-128920934D01*
X98608471Y-128941529D01*
X98629066Y-128964252D01*
X98647334Y-128988884D01*
X98663100Y-129015189D01*
X98676212Y-129042911D01*
X98686544Y-129071786D01*
X98693995Y-129101534D01*
X98698495Y-129131870D01*
X98700000Y-129162500D01*
X98700000Y-129787500D01*
X98698495Y-129818130D01*
X98693995Y-129848466D01*
X98686544Y-129878214D01*
X98676212Y-129907089D01*
X98663100Y-129934811D01*
X98647334Y-129961116D01*
X98629066Y-129985748D01*
X98608471Y-130008471D01*
X98585748Y-130029066D01*
X98561116Y-130047334D01*
X98534811Y-130063100D01*
X98507089Y-130076212D01*
X98478214Y-130086544D01*
X98448466Y-130093995D01*
X98418130Y-130098495D01*
X98387500Y-130100000D01*
X97612500Y-130100000D01*
X97581870Y-130098495D01*
X97551534Y-130093995D01*
X97521786Y-130086544D01*
X97492911Y-130076212D01*
X97465189Y-130063100D01*
X97438884Y-130047334D01*
X97414252Y-130029066D01*
X97391529Y-130008471D01*
X97370934Y-129985748D01*
X97352666Y-129961116D01*
X97336900Y-129934811D01*
X97323788Y-129907089D01*
X97313456Y-129878214D01*
X97306005Y-129848466D01*
X97301505Y-129818130D01*
X97300000Y-129787500D01*
X97300000Y-129162500D01*
X97301505Y-129131870D01*
X97306005Y-129101534D01*
X97313456Y-129071786D01*
X97323788Y-129042911D01*
X97336900Y-129015189D01*
X97352666Y-128988884D01*
X97370934Y-128964252D01*
X97391529Y-128941529D01*
X97414252Y-128920934D01*
X97438884Y-128902666D01*
X97465189Y-128886900D01*
X97492911Y-128873788D01*
X97521786Y-128863456D01*
X97551534Y-128856005D01*
X97581870Y-128851505D01*
X97612500Y-128850000D01*
X98387500Y-128850000D01*
X98418130Y-128851505D01*
X98418130Y-128851505D01*
G37*
D24*
X98000000Y-129475000D03*
D23*
G36*
X98418130Y-126901505D02*
G01*
X98448466Y-126906005D01*
X98478214Y-126913456D01*
X98507089Y-126923788D01*
X98534811Y-126936900D01*
X98561116Y-126952666D01*
X98585748Y-126970934D01*
X98608471Y-126991529D01*
X98629066Y-127014252D01*
X98647334Y-127038884D01*
X98663100Y-127065189D01*
X98676212Y-127092911D01*
X98686544Y-127121786D01*
X98693995Y-127151534D01*
X98698495Y-127181870D01*
X98700000Y-127212500D01*
X98700000Y-127837500D01*
X98698495Y-127868130D01*
X98693995Y-127898466D01*
X98686544Y-127928214D01*
X98676212Y-127957089D01*
X98663100Y-127984811D01*
X98647334Y-128011116D01*
X98629066Y-128035748D01*
X98608471Y-128058471D01*
X98585748Y-128079066D01*
X98561116Y-128097334D01*
X98534811Y-128113100D01*
X98507089Y-128126212D01*
X98478214Y-128136544D01*
X98448466Y-128143995D01*
X98418130Y-128148495D01*
X98387500Y-128150000D01*
X97612500Y-128150000D01*
X97581870Y-128148495D01*
X97551534Y-128143995D01*
X97521786Y-128136544D01*
X97492911Y-128126212D01*
X97465189Y-128113100D01*
X97438884Y-128097334D01*
X97414252Y-128079066D01*
X97391529Y-128058471D01*
X97370934Y-128035748D01*
X97352666Y-128011116D01*
X97336900Y-127984811D01*
X97323788Y-127957089D01*
X97313456Y-127928214D01*
X97306005Y-127898466D01*
X97301505Y-127868130D01*
X97300000Y-127837500D01*
X97300000Y-127212500D01*
X97301505Y-127181870D01*
X97306005Y-127151534D01*
X97313456Y-127121786D01*
X97323788Y-127092911D01*
X97336900Y-127065189D01*
X97352666Y-127038884D01*
X97370934Y-127014252D01*
X97391529Y-126991529D01*
X97414252Y-126970934D01*
X97438884Y-126952666D01*
X97465189Y-126936900D01*
X97492911Y-126923788D01*
X97521786Y-126913456D01*
X97551534Y-126906005D01*
X97581870Y-126901505D01*
X97612500Y-126900000D01*
X98387500Y-126900000D01*
X98418130Y-126901505D01*
X98418130Y-126901505D01*
G37*
D24*
X98000000Y-127525000D03*
%TD*%
D23*
%TO.C,R7*%
G36*
X95918130Y-128851505D02*
G01*
X95948466Y-128856005D01*
X95978214Y-128863456D01*
X96007089Y-128873788D01*
X96034811Y-128886900D01*
X96061116Y-128902666D01*
X96085748Y-128920934D01*
X96108471Y-128941529D01*
X96129066Y-128964252D01*
X96147334Y-128988884D01*
X96163100Y-129015189D01*
X96176212Y-129042911D01*
X96186544Y-129071786D01*
X96193995Y-129101534D01*
X96198495Y-129131870D01*
X96200000Y-129162500D01*
X96200000Y-129787500D01*
X96198495Y-129818130D01*
X96193995Y-129848466D01*
X96186544Y-129878214D01*
X96176212Y-129907089D01*
X96163100Y-129934811D01*
X96147334Y-129961116D01*
X96129066Y-129985748D01*
X96108471Y-130008471D01*
X96085748Y-130029066D01*
X96061116Y-130047334D01*
X96034811Y-130063100D01*
X96007089Y-130076212D01*
X95978214Y-130086544D01*
X95948466Y-130093995D01*
X95918130Y-130098495D01*
X95887500Y-130100000D01*
X95112500Y-130100000D01*
X95081870Y-130098495D01*
X95051534Y-130093995D01*
X95021786Y-130086544D01*
X94992911Y-130076212D01*
X94965189Y-130063100D01*
X94938884Y-130047334D01*
X94914252Y-130029066D01*
X94891529Y-130008471D01*
X94870934Y-129985748D01*
X94852666Y-129961116D01*
X94836900Y-129934811D01*
X94823788Y-129907089D01*
X94813456Y-129878214D01*
X94806005Y-129848466D01*
X94801505Y-129818130D01*
X94800000Y-129787500D01*
X94800000Y-129162500D01*
X94801505Y-129131870D01*
X94806005Y-129101534D01*
X94813456Y-129071786D01*
X94823788Y-129042911D01*
X94836900Y-129015189D01*
X94852666Y-128988884D01*
X94870934Y-128964252D01*
X94891529Y-128941529D01*
X94914252Y-128920934D01*
X94938884Y-128902666D01*
X94965189Y-128886900D01*
X94992911Y-128873788D01*
X95021786Y-128863456D01*
X95051534Y-128856005D01*
X95081870Y-128851505D01*
X95112500Y-128850000D01*
X95887500Y-128850000D01*
X95918130Y-128851505D01*
X95918130Y-128851505D01*
G37*
D24*
X95500000Y-129475000D03*
D23*
G36*
X95918130Y-126901505D02*
G01*
X95948466Y-126906005D01*
X95978214Y-126913456D01*
X96007089Y-126923788D01*
X96034811Y-126936900D01*
X96061116Y-126952666D01*
X96085748Y-126970934D01*
X96108471Y-126991529D01*
X96129066Y-127014252D01*
X96147334Y-127038884D01*
X96163100Y-127065189D01*
X96176212Y-127092911D01*
X96186544Y-127121786D01*
X96193995Y-127151534D01*
X96198495Y-127181870D01*
X96200000Y-127212500D01*
X96200000Y-127837500D01*
X96198495Y-127868130D01*
X96193995Y-127898466D01*
X96186544Y-127928214D01*
X96176212Y-127957089D01*
X96163100Y-127984811D01*
X96147334Y-128011116D01*
X96129066Y-128035748D01*
X96108471Y-128058471D01*
X96085748Y-128079066D01*
X96061116Y-128097334D01*
X96034811Y-128113100D01*
X96007089Y-128126212D01*
X95978214Y-128136544D01*
X95948466Y-128143995D01*
X95918130Y-128148495D01*
X95887500Y-128150000D01*
X95112500Y-128150000D01*
X95081870Y-128148495D01*
X95051534Y-128143995D01*
X95021786Y-128136544D01*
X94992911Y-128126212D01*
X94965189Y-128113100D01*
X94938884Y-128097334D01*
X94914252Y-128079066D01*
X94891529Y-128058471D01*
X94870934Y-128035748D01*
X94852666Y-128011116D01*
X94836900Y-127984811D01*
X94823788Y-127957089D01*
X94813456Y-127928214D01*
X94806005Y-127898466D01*
X94801505Y-127868130D01*
X94800000Y-127837500D01*
X94800000Y-127212500D01*
X94801505Y-127181870D01*
X94806005Y-127151534D01*
X94813456Y-127121786D01*
X94823788Y-127092911D01*
X94836900Y-127065189D01*
X94852666Y-127038884D01*
X94870934Y-127014252D01*
X94891529Y-126991529D01*
X94914252Y-126970934D01*
X94938884Y-126952666D01*
X94965189Y-126936900D01*
X94992911Y-126923788D01*
X95021786Y-126913456D01*
X95051534Y-126906005D01*
X95081870Y-126901505D01*
X95112500Y-126900000D01*
X95887500Y-126900000D01*
X95918130Y-126901505D01*
X95918130Y-126901505D01*
G37*
D24*
X95500000Y-127525000D03*
%TD*%
D23*
%TO.C,R6*%
G36*
X91068130Y-131801505D02*
G01*
X91098466Y-131806005D01*
X91128214Y-131813456D01*
X91157089Y-131823788D01*
X91184811Y-131836900D01*
X91211116Y-131852666D01*
X91235748Y-131870934D01*
X91258471Y-131891529D01*
X91279066Y-131914252D01*
X91297334Y-131938884D01*
X91313100Y-131965189D01*
X91326212Y-131992911D01*
X91336544Y-132021786D01*
X91343995Y-132051534D01*
X91348495Y-132081870D01*
X91350000Y-132112500D01*
X91350000Y-132887500D01*
X91348495Y-132918130D01*
X91343995Y-132948466D01*
X91336544Y-132978214D01*
X91326212Y-133007089D01*
X91313100Y-133034811D01*
X91297334Y-133061116D01*
X91279066Y-133085748D01*
X91258471Y-133108471D01*
X91235748Y-133129066D01*
X91211116Y-133147334D01*
X91184811Y-133163100D01*
X91157089Y-133176212D01*
X91128214Y-133186544D01*
X91098466Y-133193995D01*
X91068130Y-133198495D01*
X91037500Y-133200000D01*
X90412500Y-133200000D01*
X90381870Y-133198495D01*
X90351534Y-133193995D01*
X90321786Y-133186544D01*
X90292911Y-133176212D01*
X90265189Y-133163100D01*
X90238884Y-133147334D01*
X90214252Y-133129066D01*
X90191529Y-133108471D01*
X90170934Y-133085748D01*
X90152666Y-133061116D01*
X90136900Y-133034811D01*
X90123788Y-133007089D01*
X90113456Y-132978214D01*
X90106005Y-132948466D01*
X90101505Y-132918130D01*
X90100000Y-132887500D01*
X90100000Y-132112500D01*
X90101505Y-132081870D01*
X90106005Y-132051534D01*
X90113456Y-132021786D01*
X90123788Y-131992911D01*
X90136900Y-131965189D01*
X90152666Y-131938884D01*
X90170934Y-131914252D01*
X90191529Y-131891529D01*
X90214252Y-131870934D01*
X90238884Y-131852666D01*
X90265189Y-131836900D01*
X90292911Y-131823788D01*
X90321786Y-131813456D01*
X90351534Y-131806005D01*
X90381870Y-131801505D01*
X90412500Y-131800000D01*
X91037500Y-131800000D01*
X91068130Y-131801505D01*
X91068130Y-131801505D01*
G37*
D24*
X90725000Y-132500000D03*
D23*
G36*
X89118130Y-131801505D02*
G01*
X89148466Y-131806005D01*
X89178214Y-131813456D01*
X89207089Y-131823788D01*
X89234811Y-131836900D01*
X89261116Y-131852666D01*
X89285748Y-131870934D01*
X89308471Y-131891529D01*
X89329066Y-131914252D01*
X89347334Y-131938884D01*
X89363100Y-131965189D01*
X89376212Y-131992911D01*
X89386544Y-132021786D01*
X89393995Y-132051534D01*
X89398495Y-132081870D01*
X89400000Y-132112500D01*
X89400000Y-132887500D01*
X89398495Y-132918130D01*
X89393995Y-132948466D01*
X89386544Y-132978214D01*
X89376212Y-133007089D01*
X89363100Y-133034811D01*
X89347334Y-133061116D01*
X89329066Y-133085748D01*
X89308471Y-133108471D01*
X89285748Y-133129066D01*
X89261116Y-133147334D01*
X89234811Y-133163100D01*
X89207089Y-133176212D01*
X89178214Y-133186544D01*
X89148466Y-133193995D01*
X89118130Y-133198495D01*
X89087500Y-133200000D01*
X88462500Y-133200000D01*
X88431870Y-133198495D01*
X88401534Y-133193995D01*
X88371786Y-133186544D01*
X88342911Y-133176212D01*
X88315189Y-133163100D01*
X88288884Y-133147334D01*
X88264252Y-133129066D01*
X88241529Y-133108471D01*
X88220934Y-133085748D01*
X88202666Y-133061116D01*
X88186900Y-133034811D01*
X88173788Y-133007089D01*
X88163456Y-132978214D01*
X88156005Y-132948466D01*
X88151505Y-132918130D01*
X88150000Y-132887500D01*
X88150000Y-132112500D01*
X88151505Y-132081870D01*
X88156005Y-132051534D01*
X88163456Y-132021786D01*
X88173788Y-131992911D01*
X88186900Y-131965189D01*
X88202666Y-131938884D01*
X88220934Y-131914252D01*
X88241529Y-131891529D01*
X88264252Y-131870934D01*
X88288884Y-131852666D01*
X88315189Y-131836900D01*
X88342911Y-131823788D01*
X88371786Y-131813456D01*
X88401534Y-131806005D01*
X88431870Y-131801505D01*
X88462500Y-131800000D01*
X89087500Y-131800000D01*
X89118130Y-131801505D01*
X89118130Y-131801505D01*
G37*
D24*
X88775000Y-132500000D03*
%TD*%
D23*
%TO.C,R5*%
G36*
X93418130Y-128851505D02*
G01*
X93448466Y-128856005D01*
X93478214Y-128863456D01*
X93507089Y-128873788D01*
X93534811Y-128886900D01*
X93561116Y-128902666D01*
X93585748Y-128920934D01*
X93608471Y-128941529D01*
X93629066Y-128964252D01*
X93647334Y-128988884D01*
X93663100Y-129015189D01*
X93676212Y-129042911D01*
X93686544Y-129071786D01*
X93693995Y-129101534D01*
X93698495Y-129131870D01*
X93700000Y-129162500D01*
X93700000Y-129787500D01*
X93698495Y-129818130D01*
X93693995Y-129848466D01*
X93686544Y-129878214D01*
X93676212Y-129907089D01*
X93663100Y-129934811D01*
X93647334Y-129961116D01*
X93629066Y-129985748D01*
X93608471Y-130008471D01*
X93585748Y-130029066D01*
X93561116Y-130047334D01*
X93534811Y-130063100D01*
X93507089Y-130076212D01*
X93478214Y-130086544D01*
X93448466Y-130093995D01*
X93418130Y-130098495D01*
X93387500Y-130100000D01*
X92612500Y-130100000D01*
X92581870Y-130098495D01*
X92551534Y-130093995D01*
X92521786Y-130086544D01*
X92492911Y-130076212D01*
X92465189Y-130063100D01*
X92438884Y-130047334D01*
X92414252Y-130029066D01*
X92391529Y-130008471D01*
X92370934Y-129985748D01*
X92352666Y-129961116D01*
X92336900Y-129934811D01*
X92323788Y-129907089D01*
X92313456Y-129878214D01*
X92306005Y-129848466D01*
X92301505Y-129818130D01*
X92300000Y-129787500D01*
X92300000Y-129162500D01*
X92301505Y-129131870D01*
X92306005Y-129101534D01*
X92313456Y-129071786D01*
X92323788Y-129042911D01*
X92336900Y-129015189D01*
X92352666Y-128988884D01*
X92370934Y-128964252D01*
X92391529Y-128941529D01*
X92414252Y-128920934D01*
X92438884Y-128902666D01*
X92465189Y-128886900D01*
X92492911Y-128873788D01*
X92521786Y-128863456D01*
X92551534Y-128856005D01*
X92581870Y-128851505D01*
X92612500Y-128850000D01*
X93387500Y-128850000D01*
X93418130Y-128851505D01*
X93418130Y-128851505D01*
G37*
D24*
X93000000Y-129475000D03*
D23*
G36*
X93418130Y-126901505D02*
G01*
X93448466Y-126906005D01*
X93478214Y-126913456D01*
X93507089Y-126923788D01*
X93534811Y-126936900D01*
X93561116Y-126952666D01*
X93585748Y-126970934D01*
X93608471Y-126991529D01*
X93629066Y-127014252D01*
X93647334Y-127038884D01*
X93663100Y-127065189D01*
X93676212Y-127092911D01*
X93686544Y-127121786D01*
X93693995Y-127151534D01*
X93698495Y-127181870D01*
X93700000Y-127212500D01*
X93700000Y-127837500D01*
X93698495Y-127868130D01*
X93693995Y-127898466D01*
X93686544Y-127928214D01*
X93676212Y-127957089D01*
X93663100Y-127984811D01*
X93647334Y-128011116D01*
X93629066Y-128035748D01*
X93608471Y-128058471D01*
X93585748Y-128079066D01*
X93561116Y-128097334D01*
X93534811Y-128113100D01*
X93507089Y-128126212D01*
X93478214Y-128136544D01*
X93448466Y-128143995D01*
X93418130Y-128148495D01*
X93387500Y-128150000D01*
X92612500Y-128150000D01*
X92581870Y-128148495D01*
X92551534Y-128143995D01*
X92521786Y-128136544D01*
X92492911Y-128126212D01*
X92465189Y-128113100D01*
X92438884Y-128097334D01*
X92414252Y-128079066D01*
X92391529Y-128058471D01*
X92370934Y-128035748D01*
X92352666Y-128011116D01*
X92336900Y-127984811D01*
X92323788Y-127957089D01*
X92313456Y-127928214D01*
X92306005Y-127898466D01*
X92301505Y-127868130D01*
X92300000Y-127837500D01*
X92300000Y-127212500D01*
X92301505Y-127181870D01*
X92306005Y-127151534D01*
X92313456Y-127121786D01*
X92323788Y-127092911D01*
X92336900Y-127065189D01*
X92352666Y-127038884D01*
X92370934Y-127014252D01*
X92391529Y-126991529D01*
X92414252Y-126970934D01*
X92438884Y-126952666D01*
X92465189Y-126936900D01*
X92492911Y-126923788D01*
X92521786Y-126913456D01*
X92551534Y-126906005D01*
X92581870Y-126901505D01*
X92612500Y-126900000D01*
X93387500Y-126900000D01*
X93418130Y-126901505D01*
X93418130Y-126901505D01*
G37*
D24*
X93000000Y-127525000D03*
%TD*%
D23*
%TO.C,R4*%
G36*
X76618130Y-145301505D02*
G01*
X76648466Y-145306005D01*
X76678214Y-145313456D01*
X76707089Y-145323788D01*
X76734811Y-145336900D01*
X76761116Y-145352666D01*
X76785748Y-145370934D01*
X76808471Y-145391529D01*
X76829066Y-145414252D01*
X76847334Y-145438884D01*
X76863100Y-145465189D01*
X76876212Y-145492911D01*
X76886544Y-145521786D01*
X76893995Y-145551534D01*
X76898495Y-145581870D01*
X76900000Y-145612500D01*
X76900000Y-146387500D01*
X76898495Y-146418130D01*
X76893995Y-146448466D01*
X76886544Y-146478214D01*
X76876212Y-146507089D01*
X76863100Y-146534811D01*
X76847334Y-146561116D01*
X76829066Y-146585748D01*
X76808471Y-146608471D01*
X76785748Y-146629066D01*
X76761116Y-146647334D01*
X76734811Y-146663100D01*
X76707089Y-146676212D01*
X76678214Y-146686544D01*
X76648466Y-146693995D01*
X76618130Y-146698495D01*
X76587500Y-146700000D01*
X75962500Y-146700000D01*
X75931870Y-146698495D01*
X75901534Y-146693995D01*
X75871786Y-146686544D01*
X75842911Y-146676212D01*
X75815189Y-146663100D01*
X75788884Y-146647334D01*
X75764252Y-146629066D01*
X75741529Y-146608471D01*
X75720934Y-146585748D01*
X75702666Y-146561116D01*
X75686900Y-146534811D01*
X75673788Y-146507089D01*
X75663456Y-146478214D01*
X75656005Y-146448466D01*
X75651505Y-146418130D01*
X75650000Y-146387500D01*
X75650000Y-145612500D01*
X75651505Y-145581870D01*
X75656005Y-145551534D01*
X75663456Y-145521786D01*
X75673788Y-145492911D01*
X75686900Y-145465189D01*
X75702666Y-145438884D01*
X75720934Y-145414252D01*
X75741529Y-145391529D01*
X75764252Y-145370934D01*
X75788884Y-145352666D01*
X75815189Y-145336900D01*
X75842911Y-145323788D01*
X75871786Y-145313456D01*
X75901534Y-145306005D01*
X75931870Y-145301505D01*
X75962500Y-145300000D01*
X76587500Y-145300000D01*
X76618130Y-145301505D01*
X76618130Y-145301505D01*
G37*
D24*
X76275000Y-146000000D03*
D23*
G36*
X78568130Y-145301505D02*
G01*
X78598466Y-145306005D01*
X78628214Y-145313456D01*
X78657089Y-145323788D01*
X78684811Y-145336900D01*
X78711116Y-145352666D01*
X78735748Y-145370934D01*
X78758471Y-145391529D01*
X78779066Y-145414252D01*
X78797334Y-145438884D01*
X78813100Y-145465189D01*
X78826212Y-145492911D01*
X78836544Y-145521786D01*
X78843995Y-145551534D01*
X78848495Y-145581870D01*
X78850000Y-145612500D01*
X78850000Y-146387500D01*
X78848495Y-146418130D01*
X78843995Y-146448466D01*
X78836544Y-146478214D01*
X78826212Y-146507089D01*
X78813100Y-146534811D01*
X78797334Y-146561116D01*
X78779066Y-146585748D01*
X78758471Y-146608471D01*
X78735748Y-146629066D01*
X78711116Y-146647334D01*
X78684811Y-146663100D01*
X78657089Y-146676212D01*
X78628214Y-146686544D01*
X78598466Y-146693995D01*
X78568130Y-146698495D01*
X78537500Y-146700000D01*
X77912500Y-146700000D01*
X77881870Y-146698495D01*
X77851534Y-146693995D01*
X77821786Y-146686544D01*
X77792911Y-146676212D01*
X77765189Y-146663100D01*
X77738884Y-146647334D01*
X77714252Y-146629066D01*
X77691529Y-146608471D01*
X77670934Y-146585748D01*
X77652666Y-146561116D01*
X77636900Y-146534811D01*
X77623788Y-146507089D01*
X77613456Y-146478214D01*
X77606005Y-146448466D01*
X77601505Y-146418130D01*
X77600000Y-146387500D01*
X77600000Y-145612500D01*
X77601505Y-145581870D01*
X77606005Y-145551534D01*
X77613456Y-145521786D01*
X77623788Y-145492911D01*
X77636900Y-145465189D01*
X77652666Y-145438884D01*
X77670934Y-145414252D01*
X77691529Y-145391529D01*
X77714252Y-145370934D01*
X77738884Y-145352666D01*
X77765189Y-145336900D01*
X77792911Y-145323788D01*
X77821786Y-145313456D01*
X77851534Y-145306005D01*
X77881870Y-145301505D01*
X77912500Y-145300000D01*
X78537500Y-145300000D01*
X78568130Y-145301505D01*
X78568130Y-145301505D01*
G37*
D24*
X78225000Y-146000000D03*
%TD*%
D23*
%TO.C,R3*%
G36*
X86618130Y-144801505D02*
G01*
X86648466Y-144806005D01*
X86678214Y-144813456D01*
X86707089Y-144823788D01*
X86734811Y-144836900D01*
X86761116Y-144852666D01*
X86785748Y-144870934D01*
X86808471Y-144891529D01*
X86829066Y-144914252D01*
X86847334Y-144938884D01*
X86863100Y-144965189D01*
X86876212Y-144992911D01*
X86886544Y-145021786D01*
X86893995Y-145051534D01*
X86898495Y-145081870D01*
X86900000Y-145112500D01*
X86900000Y-145887500D01*
X86898495Y-145918130D01*
X86893995Y-145948466D01*
X86886544Y-145978214D01*
X86876212Y-146007089D01*
X86863100Y-146034811D01*
X86847334Y-146061116D01*
X86829066Y-146085748D01*
X86808471Y-146108471D01*
X86785748Y-146129066D01*
X86761116Y-146147334D01*
X86734811Y-146163100D01*
X86707089Y-146176212D01*
X86678214Y-146186544D01*
X86648466Y-146193995D01*
X86618130Y-146198495D01*
X86587500Y-146200000D01*
X85962500Y-146200000D01*
X85931870Y-146198495D01*
X85901534Y-146193995D01*
X85871786Y-146186544D01*
X85842911Y-146176212D01*
X85815189Y-146163100D01*
X85788884Y-146147334D01*
X85764252Y-146129066D01*
X85741529Y-146108471D01*
X85720934Y-146085748D01*
X85702666Y-146061116D01*
X85686900Y-146034811D01*
X85673788Y-146007089D01*
X85663456Y-145978214D01*
X85656005Y-145948466D01*
X85651505Y-145918130D01*
X85650000Y-145887500D01*
X85650000Y-145112500D01*
X85651505Y-145081870D01*
X85656005Y-145051534D01*
X85663456Y-145021786D01*
X85673788Y-144992911D01*
X85686900Y-144965189D01*
X85702666Y-144938884D01*
X85720934Y-144914252D01*
X85741529Y-144891529D01*
X85764252Y-144870934D01*
X85788884Y-144852666D01*
X85815189Y-144836900D01*
X85842911Y-144823788D01*
X85871786Y-144813456D01*
X85901534Y-144806005D01*
X85931870Y-144801505D01*
X85962500Y-144800000D01*
X86587500Y-144800000D01*
X86618130Y-144801505D01*
X86618130Y-144801505D01*
G37*
D24*
X86275000Y-145500000D03*
D23*
G36*
X88568130Y-144801505D02*
G01*
X88598466Y-144806005D01*
X88628214Y-144813456D01*
X88657089Y-144823788D01*
X88684811Y-144836900D01*
X88711116Y-144852666D01*
X88735748Y-144870934D01*
X88758471Y-144891529D01*
X88779066Y-144914252D01*
X88797334Y-144938884D01*
X88813100Y-144965189D01*
X88826212Y-144992911D01*
X88836544Y-145021786D01*
X88843995Y-145051534D01*
X88848495Y-145081870D01*
X88850000Y-145112500D01*
X88850000Y-145887500D01*
X88848495Y-145918130D01*
X88843995Y-145948466D01*
X88836544Y-145978214D01*
X88826212Y-146007089D01*
X88813100Y-146034811D01*
X88797334Y-146061116D01*
X88779066Y-146085748D01*
X88758471Y-146108471D01*
X88735748Y-146129066D01*
X88711116Y-146147334D01*
X88684811Y-146163100D01*
X88657089Y-146176212D01*
X88628214Y-146186544D01*
X88598466Y-146193995D01*
X88568130Y-146198495D01*
X88537500Y-146200000D01*
X87912500Y-146200000D01*
X87881870Y-146198495D01*
X87851534Y-146193995D01*
X87821786Y-146186544D01*
X87792911Y-146176212D01*
X87765189Y-146163100D01*
X87738884Y-146147334D01*
X87714252Y-146129066D01*
X87691529Y-146108471D01*
X87670934Y-146085748D01*
X87652666Y-146061116D01*
X87636900Y-146034811D01*
X87623788Y-146007089D01*
X87613456Y-145978214D01*
X87606005Y-145948466D01*
X87601505Y-145918130D01*
X87600000Y-145887500D01*
X87600000Y-145112500D01*
X87601505Y-145081870D01*
X87606005Y-145051534D01*
X87613456Y-145021786D01*
X87623788Y-144992911D01*
X87636900Y-144965189D01*
X87652666Y-144938884D01*
X87670934Y-144914252D01*
X87691529Y-144891529D01*
X87714252Y-144870934D01*
X87738884Y-144852666D01*
X87765189Y-144836900D01*
X87792911Y-144823788D01*
X87821786Y-144813456D01*
X87851534Y-144806005D01*
X87881870Y-144801505D01*
X87912500Y-144800000D01*
X88537500Y-144800000D01*
X88568130Y-144801505D01*
X88568130Y-144801505D01*
G37*
D24*
X88225000Y-145500000D03*
%TD*%
D23*
%TO.C,R2*%
G36*
X72368130Y-141051505D02*
G01*
X72398466Y-141056005D01*
X72428214Y-141063456D01*
X72457089Y-141073788D01*
X72484811Y-141086900D01*
X72511116Y-141102666D01*
X72535748Y-141120934D01*
X72558471Y-141141529D01*
X72579066Y-141164252D01*
X72597334Y-141188884D01*
X72613100Y-141215189D01*
X72626212Y-141242911D01*
X72636544Y-141271786D01*
X72643995Y-141301534D01*
X72648495Y-141331870D01*
X72650000Y-141362500D01*
X72650000Y-142137500D01*
X72648495Y-142168130D01*
X72643995Y-142198466D01*
X72636544Y-142228214D01*
X72626212Y-142257089D01*
X72613100Y-142284811D01*
X72597334Y-142311116D01*
X72579066Y-142335748D01*
X72558471Y-142358471D01*
X72535748Y-142379066D01*
X72511116Y-142397334D01*
X72484811Y-142413100D01*
X72457089Y-142426212D01*
X72428214Y-142436544D01*
X72398466Y-142443995D01*
X72368130Y-142448495D01*
X72337500Y-142450000D01*
X71712500Y-142450000D01*
X71681870Y-142448495D01*
X71651534Y-142443995D01*
X71621786Y-142436544D01*
X71592911Y-142426212D01*
X71565189Y-142413100D01*
X71538884Y-142397334D01*
X71514252Y-142379066D01*
X71491529Y-142358471D01*
X71470934Y-142335748D01*
X71452666Y-142311116D01*
X71436900Y-142284811D01*
X71423788Y-142257089D01*
X71413456Y-142228214D01*
X71406005Y-142198466D01*
X71401505Y-142168130D01*
X71400000Y-142137500D01*
X71400000Y-141362500D01*
X71401505Y-141331870D01*
X71406005Y-141301534D01*
X71413456Y-141271786D01*
X71423788Y-141242911D01*
X71436900Y-141215189D01*
X71452666Y-141188884D01*
X71470934Y-141164252D01*
X71491529Y-141141529D01*
X71514252Y-141120934D01*
X71538884Y-141102666D01*
X71565189Y-141086900D01*
X71592911Y-141073788D01*
X71621786Y-141063456D01*
X71651534Y-141056005D01*
X71681870Y-141051505D01*
X71712500Y-141050000D01*
X72337500Y-141050000D01*
X72368130Y-141051505D01*
X72368130Y-141051505D01*
G37*
D24*
X72025000Y-141750000D03*
D23*
G36*
X74318130Y-141051505D02*
G01*
X74348466Y-141056005D01*
X74378214Y-141063456D01*
X74407089Y-141073788D01*
X74434811Y-141086900D01*
X74461116Y-141102666D01*
X74485748Y-141120934D01*
X74508471Y-141141529D01*
X74529066Y-141164252D01*
X74547334Y-141188884D01*
X74563100Y-141215189D01*
X74576212Y-141242911D01*
X74586544Y-141271786D01*
X74593995Y-141301534D01*
X74598495Y-141331870D01*
X74600000Y-141362500D01*
X74600000Y-142137500D01*
X74598495Y-142168130D01*
X74593995Y-142198466D01*
X74586544Y-142228214D01*
X74576212Y-142257089D01*
X74563100Y-142284811D01*
X74547334Y-142311116D01*
X74529066Y-142335748D01*
X74508471Y-142358471D01*
X74485748Y-142379066D01*
X74461116Y-142397334D01*
X74434811Y-142413100D01*
X74407089Y-142426212D01*
X74378214Y-142436544D01*
X74348466Y-142443995D01*
X74318130Y-142448495D01*
X74287500Y-142450000D01*
X73662500Y-142450000D01*
X73631870Y-142448495D01*
X73601534Y-142443995D01*
X73571786Y-142436544D01*
X73542911Y-142426212D01*
X73515189Y-142413100D01*
X73488884Y-142397334D01*
X73464252Y-142379066D01*
X73441529Y-142358471D01*
X73420934Y-142335748D01*
X73402666Y-142311116D01*
X73386900Y-142284811D01*
X73373788Y-142257089D01*
X73363456Y-142228214D01*
X73356005Y-142198466D01*
X73351505Y-142168130D01*
X73350000Y-142137500D01*
X73350000Y-141362500D01*
X73351505Y-141331870D01*
X73356005Y-141301534D01*
X73363456Y-141271786D01*
X73373788Y-141242911D01*
X73386900Y-141215189D01*
X73402666Y-141188884D01*
X73420934Y-141164252D01*
X73441529Y-141141529D01*
X73464252Y-141120934D01*
X73488884Y-141102666D01*
X73515189Y-141086900D01*
X73542911Y-141073788D01*
X73571786Y-141063456D01*
X73601534Y-141056005D01*
X73631870Y-141051505D01*
X73662500Y-141050000D01*
X74287500Y-141050000D01*
X74318130Y-141051505D01*
X74318130Y-141051505D01*
G37*
D24*
X73975000Y-141750000D03*
%TD*%
D23*
%TO.C,R1*%
G36*
X76668130Y-143101505D02*
G01*
X76698466Y-143106005D01*
X76728214Y-143113456D01*
X76757089Y-143123788D01*
X76784811Y-143136900D01*
X76811116Y-143152666D01*
X76835748Y-143170934D01*
X76858471Y-143191529D01*
X76879066Y-143214252D01*
X76897334Y-143238884D01*
X76913100Y-143265189D01*
X76926212Y-143292911D01*
X76936544Y-143321786D01*
X76943995Y-143351534D01*
X76948495Y-143381870D01*
X76950000Y-143412500D01*
X76950000Y-144037500D01*
X76948495Y-144068130D01*
X76943995Y-144098466D01*
X76936544Y-144128214D01*
X76926212Y-144157089D01*
X76913100Y-144184811D01*
X76897334Y-144211116D01*
X76879066Y-144235748D01*
X76858471Y-144258471D01*
X76835748Y-144279066D01*
X76811116Y-144297334D01*
X76784811Y-144313100D01*
X76757089Y-144326212D01*
X76728214Y-144336544D01*
X76698466Y-144343995D01*
X76668130Y-144348495D01*
X76637500Y-144350000D01*
X75862500Y-144350000D01*
X75831870Y-144348495D01*
X75801534Y-144343995D01*
X75771786Y-144336544D01*
X75742911Y-144326212D01*
X75715189Y-144313100D01*
X75688884Y-144297334D01*
X75664252Y-144279066D01*
X75641529Y-144258471D01*
X75620934Y-144235748D01*
X75602666Y-144211116D01*
X75586900Y-144184811D01*
X75573788Y-144157089D01*
X75563456Y-144128214D01*
X75556005Y-144098466D01*
X75551505Y-144068130D01*
X75550000Y-144037500D01*
X75550000Y-143412500D01*
X75551505Y-143381870D01*
X75556005Y-143351534D01*
X75563456Y-143321786D01*
X75573788Y-143292911D01*
X75586900Y-143265189D01*
X75602666Y-143238884D01*
X75620934Y-143214252D01*
X75641529Y-143191529D01*
X75664252Y-143170934D01*
X75688884Y-143152666D01*
X75715189Y-143136900D01*
X75742911Y-143123788D01*
X75771786Y-143113456D01*
X75801534Y-143106005D01*
X75831870Y-143101505D01*
X75862500Y-143100000D01*
X76637500Y-143100000D01*
X76668130Y-143101505D01*
X76668130Y-143101505D01*
G37*
D24*
X76250000Y-143725000D03*
D23*
G36*
X76668130Y-141151505D02*
G01*
X76698466Y-141156005D01*
X76728214Y-141163456D01*
X76757089Y-141173788D01*
X76784811Y-141186900D01*
X76811116Y-141202666D01*
X76835748Y-141220934D01*
X76858471Y-141241529D01*
X76879066Y-141264252D01*
X76897334Y-141288884D01*
X76913100Y-141315189D01*
X76926212Y-141342911D01*
X76936544Y-141371786D01*
X76943995Y-141401534D01*
X76948495Y-141431870D01*
X76950000Y-141462500D01*
X76950000Y-142087500D01*
X76948495Y-142118130D01*
X76943995Y-142148466D01*
X76936544Y-142178214D01*
X76926212Y-142207089D01*
X76913100Y-142234811D01*
X76897334Y-142261116D01*
X76879066Y-142285748D01*
X76858471Y-142308471D01*
X76835748Y-142329066D01*
X76811116Y-142347334D01*
X76784811Y-142363100D01*
X76757089Y-142376212D01*
X76728214Y-142386544D01*
X76698466Y-142393995D01*
X76668130Y-142398495D01*
X76637500Y-142400000D01*
X75862500Y-142400000D01*
X75831870Y-142398495D01*
X75801534Y-142393995D01*
X75771786Y-142386544D01*
X75742911Y-142376212D01*
X75715189Y-142363100D01*
X75688884Y-142347334D01*
X75664252Y-142329066D01*
X75641529Y-142308471D01*
X75620934Y-142285748D01*
X75602666Y-142261116D01*
X75586900Y-142234811D01*
X75573788Y-142207089D01*
X75563456Y-142178214D01*
X75556005Y-142148466D01*
X75551505Y-142118130D01*
X75550000Y-142087500D01*
X75550000Y-141462500D01*
X75551505Y-141431870D01*
X75556005Y-141401534D01*
X75563456Y-141371786D01*
X75573788Y-141342911D01*
X75586900Y-141315189D01*
X75602666Y-141288884D01*
X75620934Y-141264252D01*
X75641529Y-141241529D01*
X75664252Y-141220934D01*
X75688884Y-141202666D01*
X75715189Y-141186900D01*
X75742911Y-141173788D01*
X75771786Y-141163456D01*
X75801534Y-141156005D01*
X75831870Y-141151505D01*
X75862500Y-141150000D01*
X76637500Y-141150000D01*
X76668130Y-141151505D01*
X76668130Y-141151505D01*
G37*
D24*
X76250000Y-141775000D03*
%TD*%
D23*
%TO.C,JP2*%
G36*
X106168130Y-135101505D02*
G01*
X106198466Y-135106005D01*
X106228214Y-135113456D01*
X106257089Y-135123788D01*
X106284811Y-135136900D01*
X106311116Y-135152666D01*
X106335748Y-135170934D01*
X106358471Y-135191529D01*
X106379066Y-135214252D01*
X106397334Y-135238884D01*
X106413100Y-135265189D01*
X106426212Y-135292911D01*
X106436544Y-135321786D01*
X106443995Y-135351534D01*
X106448495Y-135381870D01*
X106450000Y-135412500D01*
X106450000Y-136037500D01*
X106448495Y-136068130D01*
X106443995Y-136098466D01*
X106436544Y-136128214D01*
X106426212Y-136157089D01*
X106413100Y-136184811D01*
X106397334Y-136211116D01*
X106379066Y-136235748D01*
X106358471Y-136258471D01*
X106335748Y-136279066D01*
X106311116Y-136297334D01*
X106284811Y-136313100D01*
X106257089Y-136326212D01*
X106228214Y-136336544D01*
X106198466Y-136343995D01*
X106168130Y-136348495D01*
X106137500Y-136350000D01*
X105362500Y-136350000D01*
X105331870Y-136348495D01*
X105301534Y-136343995D01*
X105271786Y-136336544D01*
X105242911Y-136326212D01*
X105215189Y-136313100D01*
X105188884Y-136297334D01*
X105164252Y-136279066D01*
X105141529Y-136258471D01*
X105120934Y-136235748D01*
X105102666Y-136211116D01*
X105086900Y-136184811D01*
X105073788Y-136157089D01*
X105063456Y-136128214D01*
X105056005Y-136098466D01*
X105051505Y-136068130D01*
X105050000Y-136037500D01*
X105050000Y-135412500D01*
X105051505Y-135381870D01*
X105056005Y-135351534D01*
X105063456Y-135321786D01*
X105073788Y-135292911D01*
X105086900Y-135265189D01*
X105102666Y-135238884D01*
X105120934Y-135214252D01*
X105141529Y-135191529D01*
X105164252Y-135170934D01*
X105188884Y-135152666D01*
X105215189Y-135136900D01*
X105242911Y-135123788D01*
X105271786Y-135113456D01*
X105301534Y-135106005D01*
X105331870Y-135101505D01*
X105362500Y-135100000D01*
X106137500Y-135100000D01*
X106168130Y-135101505D01*
X106168130Y-135101505D01*
G37*
D24*
X105750000Y-135725000D03*
D23*
G36*
X106168130Y-133151505D02*
G01*
X106198466Y-133156005D01*
X106228214Y-133163456D01*
X106257089Y-133173788D01*
X106284811Y-133186900D01*
X106311116Y-133202666D01*
X106335748Y-133220934D01*
X106358471Y-133241529D01*
X106379066Y-133264252D01*
X106397334Y-133288884D01*
X106413100Y-133315189D01*
X106426212Y-133342911D01*
X106436544Y-133371786D01*
X106443995Y-133401534D01*
X106448495Y-133431870D01*
X106450000Y-133462500D01*
X106450000Y-134087500D01*
X106448495Y-134118130D01*
X106443995Y-134148466D01*
X106436544Y-134178214D01*
X106426212Y-134207089D01*
X106413100Y-134234811D01*
X106397334Y-134261116D01*
X106379066Y-134285748D01*
X106358471Y-134308471D01*
X106335748Y-134329066D01*
X106311116Y-134347334D01*
X106284811Y-134363100D01*
X106257089Y-134376212D01*
X106228214Y-134386544D01*
X106198466Y-134393995D01*
X106168130Y-134398495D01*
X106137500Y-134400000D01*
X105362500Y-134400000D01*
X105331870Y-134398495D01*
X105301534Y-134393995D01*
X105271786Y-134386544D01*
X105242911Y-134376212D01*
X105215189Y-134363100D01*
X105188884Y-134347334D01*
X105164252Y-134329066D01*
X105141529Y-134308471D01*
X105120934Y-134285748D01*
X105102666Y-134261116D01*
X105086900Y-134234811D01*
X105073788Y-134207089D01*
X105063456Y-134178214D01*
X105056005Y-134148466D01*
X105051505Y-134118130D01*
X105050000Y-134087500D01*
X105050000Y-133462500D01*
X105051505Y-133431870D01*
X105056005Y-133401534D01*
X105063456Y-133371786D01*
X105073788Y-133342911D01*
X105086900Y-133315189D01*
X105102666Y-133288884D01*
X105120934Y-133264252D01*
X105141529Y-133241529D01*
X105164252Y-133220934D01*
X105188884Y-133202666D01*
X105215189Y-133186900D01*
X105242911Y-133173788D01*
X105271786Y-133163456D01*
X105301534Y-133156005D01*
X105331870Y-133151505D01*
X105362500Y-133150000D01*
X106137500Y-133150000D01*
X106168130Y-133151505D01*
X106168130Y-133151505D01*
G37*
D24*
X105750000Y-133775000D03*
%TD*%
D23*
%TO.C,JP1*%
G36*
X103668130Y-135101505D02*
G01*
X103698466Y-135106005D01*
X103728214Y-135113456D01*
X103757089Y-135123788D01*
X103784811Y-135136900D01*
X103811116Y-135152666D01*
X103835748Y-135170934D01*
X103858471Y-135191529D01*
X103879066Y-135214252D01*
X103897334Y-135238884D01*
X103913100Y-135265189D01*
X103926212Y-135292911D01*
X103936544Y-135321786D01*
X103943995Y-135351534D01*
X103948495Y-135381870D01*
X103950000Y-135412500D01*
X103950000Y-136037500D01*
X103948495Y-136068130D01*
X103943995Y-136098466D01*
X103936544Y-136128214D01*
X103926212Y-136157089D01*
X103913100Y-136184811D01*
X103897334Y-136211116D01*
X103879066Y-136235748D01*
X103858471Y-136258471D01*
X103835748Y-136279066D01*
X103811116Y-136297334D01*
X103784811Y-136313100D01*
X103757089Y-136326212D01*
X103728214Y-136336544D01*
X103698466Y-136343995D01*
X103668130Y-136348495D01*
X103637500Y-136350000D01*
X102862500Y-136350000D01*
X102831870Y-136348495D01*
X102801534Y-136343995D01*
X102771786Y-136336544D01*
X102742911Y-136326212D01*
X102715189Y-136313100D01*
X102688884Y-136297334D01*
X102664252Y-136279066D01*
X102641529Y-136258471D01*
X102620934Y-136235748D01*
X102602666Y-136211116D01*
X102586900Y-136184811D01*
X102573788Y-136157089D01*
X102563456Y-136128214D01*
X102556005Y-136098466D01*
X102551505Y-136068130D01*
X102550000Y-136037500D01*
X102550000Y-135412500D01*
X102551505Y-135381870D01*
X102556005Y-135351534D01*
X102563456Y-135321786D01*
X102573788Y-135292911D01*
X102586900Y-135265189D01*
X102602666Y-135238884D01*
X102620934Y-135214252D01*
X102641529Y-135191529D01*
X102664252Y-135170934D01*
X102688884Y-135152666D01*
X102715189Y-135136900D01*
X102742911Y-135123788D01*
X102771786Y-135113456D01*
X102801534Y-135106005D01*
X102831870Y-135101505D01*
X102862500Y-135100000D01*
X103637500Y-135100000D01*
X103668130Y-135101505D01*
X103668130Y-135101505D01*
G37*
D24*
X103250000Y-135725000D03*
D23*
G36*
X103668130Y-133151505D02*
G01*
X103698466Y-133156005D01*
X103728214Y-133163456D01*
X103757089Y-133173788D01*
X103784811Y-133186900D01*
X103811116Y-133202666D01*
X103835748Y-133220934D01*
X103858471Y-133241529D01*
X103879066Y-133264252D01*
X103897334Y-133288884D01*
X103913100Y-133315189D01*
X103926212Y-133342911D01*
X103936544Y-133371786D01*
X103943995Y-133401534D01*
X103948495Y-133431870D01*
X103950000Y-133462500D01*
X103950000Y-134087500D01*
X103948495Y-134118130D01*
X103943995Y-134148466D01*
X103936544Y-134178214D01*
X103926212Y-134207089D01*
X103913100Y-134234811D01*
X103897334Y-134261116D01*
X103879066Y-134285748D01*
X103858471Y-134308471D01*
X103835748Y-134329066D01*
X103811116Y-134347334D01*
X103784811Y-134363100D01*
X103757089Y-134376212D01*
X103728214Y-134386544D01*
X103698466Y-134393995D01*
X103668130Y-134398495D01*
X103637500Y-134400000D01*
X102862500Y-134400000D01*
X102831870Y-134398495D01*
X102801534Y-134393995D01*
X102771786Y-134386544D01*
X102742911Y-134376212D01*
X102715189Y-134363100D01*
X102688884Y-134347334D01*
X102664252Y-134329066D01*
X102641529Y-134308471D01*
X102620934Y-134285748D01*
X102602666Y-134261116D01*
X102586900Y-134234811D01*
X102573788Y-134207089D01*
X102563456Y-134178214D01*
X102556005Y-134148466D01*
X102551505Y-134118130D01*
X102550000Y-134087500D01*
X102550000Y-133462500D01*
X102551505Y-133431870D01*
X102556005Y-133401534D01*
X102563456Y-133371786D01*
X102573788Y-133342911D01*
X102586900Y-133315189D01*
X102602666Y-133288884D01*
X102620934Y-133264252D01*
X102641529Y-133241529D01*
X102664252Y-133220934D01*
X102688884Y-133202666D01*
X102715189Y-133186900D01*
X102742911Y-133173788D01*
X102771786Y-133163456D01*
X102801534Y-133156005D01*
X102831870Y-133151505D01*
X102862500Y-133150000D01*
X103637500Y-133150000D01*
X103668130Y-133151505D01*
X103668130Y-133151505D01*
G37*
D24*
X103250000Y-133775000D03*
%TD*%
D26*
%TO.C,Q9*%
X77750000Y-119500000D03*
X78700000Y-121500000D03*
X76800000Y-121500000D03*
%TD*%
D19*
%TO.C,Q7*%
X82500000Y-144500000D03*
X84500000Y-143550000D03*
X84500000Y-145450000D03*
%TD*%
%TO.C,Q6*%
X104250000Y-117750000D03*
X102250000Y-118700000D03*
X102250000Y-116800000D03*
%TD*%
%TO.C,Q4*%
X104250000Y-126750000D03*
X102250000Y-127700000D03*
X102250000Y-125800000D03*
%TD*%
D26*
%TO.C,Q3*%
X91250000Y-126000000D03*
X90300000Y-124000000D03*
X92200000Y-124000000D03*
%TD*%
%TO.C,Q2*%
X91250000Y-118500000D03*
X90300000Y-116500000D03*
X92200000Y-116500000D03*
%TD*%
%TO.C,Q1*%
X91250000Y-122250000D03*
X90300000Y-120250000D03*
X92200000Y-120250000D03*
%TD*%
D23*
%TO.C,F1*%
G36*
X110974505Y-123301204D02*
G01*
X110998773Y-123304804D01*
X111022572Y-123310765D01*
X111045671Y-123319030D01*
X111067850Y-123329520D01*
X111088893Y-123342132D01*
X111108599Y-123356747D01*
X111126777Y-123373223D01*
X111143253Y-123391401D01*
X111157868Y-123411107D01*
X111170480Y-123432150D01*
X111180970Y-123454329D01*
X111189235Y-123477428D01*
X111195196Y-123501227D01*
X111198796Y-123525495D01*
X111200000Y-123549999D01*
X111200000Y-126450001D01*
X111198796Y-126474505D01*
X111195196Y-126498773D01*
X111189235Y-126522572D01*
X111180970Y-126545671D01*
X111170480Y-126567850D01*
X111157868Y-126588893D01*
X111143253Y-126608599D01*
X111126777Y-126626777D01*
X111108599Y-126643253D01*
X111088893Y-126657868D01*
X111067850Y-126670480D01*
X111045671Y-126680970D01*
X111022572Y-126689235D01*
X110998773Y-126695196D01*
X110974505Y-126698796D01*
X110950001Y-126700000D01*
X110324999Y-126700000D01*
X110300495Y-126698796D01*
X110276227Y-126695196D01*
X110252428Y-126689235D01*
X110229329Y-126680970D01*
X110207150Y-126670480D01*
X110186107Y-126657868D01*
X110166401Y-126643253D01*
X110148223Y-126626777D01*
X110131747Y-126608599D01*
X110117132Y-126588893D01*
X110104520Y-126567850D01*
X110094030Y-126545671D01*
X110085765Y-126522572D01*
X110079804Y-126498773D01*
X110076204Y-126474505D01*
X110075000Y-126450001D01*
X110075000Y-123549999D01*
X110076204Y-123525495D01*
X110079804Y-123501227D01*
X110085765Y-123477428D01*
X110094030Y-123454329D01*
X110104520Y-123432150D01*
X110117132Y-123411107D01*
X110131747Y-123391401D01*
X110148223Y-123373223D01*
X110166401Y-123356747D01*
X110186107Y-123342132D01*
X110207150Y-123329520D01*
X110229329Y-123319030D01*
X110252428Y-123310765D01*
X110276227Y-123304804D01*
X110300495Y-123301204D01*
X110324999Y-123300000D01*
X110950001Y-123300000D01*
X110974505Y-123301204D01*
X110974505Y-123301204D01*
G37*
D27*
X110637500Y-125000000D03*
D23*
G36*
X106699505Y-123301204D02*
G01*
X106723773Y-123304804D01*
X106747572Y-123310765D01*
X106770671Y-123319030D01*
X106792850Y-123329520D01*
X106813893Y-123342132D01*
X106833599Y-123356747D01*
X106851777Y-123373223D01*
X106868253Y-123391401D01*
X106882868Y-123411107D01*
X106895480Y-123432150D01*
X106905970Y-123454329D01*
X106914235Y-123477428D01*
X106920196Y-123501227D01*
X106923796Y-123525495D01*
X106925000Y-123549999D01*
X106925000Y-126450001D01*
X106923796Y-126474505D01*
X106920196Y-126498773D01*
X106914235Y-126522572D01*
X106905970Y-126545671D01*
X106895480Y-126567850D01*
X106882868Y-126588893D01*
X106868253Y-126608599D01*
X106851777Y-126626777D01*
X106833599Y-126643253D01*
X106813893Y-126657868D01*
X106792850Y-126670480D01*
X106770671Y-126680970D01*
X106747572Y-126689235D01*
X106723773Y-126695196D01*
X106699505Y-126698796D01*
X106675001Y-126700000D01*
X106049999Y-126700000D01*
X106025495Y-126698796D01*
X106001227Y-126695196D01*
X105977428Y-126689235D01*
X105954329Y-126680970D01*
X105932150Y-126670480D01*
X105911107Y-126657868D01*
X105891401Y-126643253D01*
X105873223Y-126626777D01*
X105856747Y-126608599D01*
X105842132Y-126588893D01*
X105829520Y-126567850D01*
X105819030Y-126545671D01*
X105810765Y-126522572D01*
X105804804Y-126498773D01*
X105801204Y-126474505D01*
X105800000Y-126450001D01*
X105800000Y-123549999D01*
X105801204Y-123525495D01*
X105804804Y-123501227D01*
X105810765Y-123477428D01*
X105819030Y-123454329D01*
X105829520Y-123432150D01*
X105842132Y-123411107D01*
X105856747Y-123391401D01*
X105873223Y-123373223D01*
X105891401Y-123356747D01*
X105911107Y-123342132D01*
X105932150Y-123329520D01*
X105954329Y-123319030D01*
X105977428Y-123310765D01*
X106001227Y-123304804D01*
X106025495Y-123301204D01*
X106049999Y-123300000D01*
X106675001Y-123300000D01*
X106699505Y-123301204D01*
X106699505Y-123301204D01*
G37*
D27*
X106362500Y-125000000D03*
%TD*%
D28*
%TO.C,U2*%
X89075000Y-136050000D03*
X89725000Y-136050000D03*
X90375000Y-136050000D03*
X91025000Y-136050000D03*
X91675000Y-136050000D03*
X92325000Y-136050000D03*
X92975000Y-136050000D03*
X93625000Y-136050000D03*
X94275000Y-136050000D03*
X94925000Y-136050000D03*
X94925000Y-141950000D03*
X94275000Y-141950000D03*
X93625000Y-141950000D03*
X92975000Y-141950000D03*
X92325000Y-141950000D03*
X91675000Y-141950000D03*
X91025000Y-141950000D03*
X90375000Y-141950000D03*
X89725000Y-141950000D03*
X89075000Y-141950000D03*
%TD*%
D25*
%TO.C,U1*%
X81100000Y-138800000D03*
X81100000Y-140700000D03*
X78900000Y-140700000D03*
X78900000Y-139750000D03*
X78900000Y-138800000D03*
%TD*%
M02*
