%TF.GenerationSoftware,KiCad,Pcbnew,(5.1.0-0)*%
%TF.CreationDate,2020-07-09T23:17:02+02:00*%
%TF.ProjectId,POxiM-wristcomputer,504f7869-4d2d-4777-9269-7374636f6d70,A*%
%TF.SameCoordinates,Original*%
%TF.FileFunction,Soldermask,Bot*%
%TF.FilePolarity,Negative*%
%FSLAX46Y46*%
G04 Gerber Fmt 4.6, Leading zero omitted, Abs format (unit mm)*
G04 Created by KiCad (PCBNEW (5.1.0-0)) date 2020-07-09 23:17:02*
%MOMM*%
%LPD*%
G04 APERTURE LIST*
%ADD10C,0.010000*%
%ADD11O,1.050000X1.350000*%
%ADD12O,1.650000X0.990000*%
%ADD13C,1.100000*%
%ADD14C,2.000000*%
%ADD15C,2.300000*%
%ADD16C,1.800000*%
%ADD17C,0.100000*%
%ADD18C,1.350000*%
G04 APERTURE END LIST*
D10*
%TO.C,G\002A\002A\002A*%
G36*
X80999245Y-141600632D02*
G01*
X80962573Y-141617437D01*
X80945166Y-141629229D01*
X80921900Y-141651471D01*
X80901049Y-141679694D01*
X80885188Y-141710030D01*
X80878806Y-141728920D01*
X80871774Y-141756860D01*
X80867971Y-141739080D01*
X80856001Y-141704643D01*
X80835993Y-141671101D01*
X80809946Y-141640924D01*
X80779857Y-141616583D01*
X80759914Y-141605446D01*
X80736156Y-141598102D01*
X80706409Y-141594146D01*
X80674264Y-141593577D01*
X80643311Y-141596395D01*
X80617140Y-141602600D01*
X80610047Y-141605446D01*
X80584273Y-141621084D01*
X80558230Y-141643231D01*
X80535032Y-141668816D01*
X80517798Y-141694768D01*
X80516225Y-141697872D01*
X80508936Y-141714529D01*
X80504684Y-141729919D01*
X80502700Y-141747980D01*
X80502218Y-141769560D01*
X80503097Y-141792937D01*
X80506438Y-141813730D01*
X80513088Y-141833911D01*
X80523893Y-141855449D01*
X80539703Y-141880313D01*
X80561363Y-141910474D01*
X80564827Y-141915120D01*
X80574452Y-141926935D01*
X80589490Y-141944065D01*
X80609050Y-141965589D01*
X80632240Y-141990588D01*
X80658169Y-142018140D01*
X80685945Y-142047328D01*
X80714677Y-142077229D01*
X80743473Y-142106925D01*
X80771441Y-142135495D01*
X80797691Y-142162020D01*
X80821329Y-142185578D01*
X80841466Y-142205251D01*
X80857210Y-142220118D01*
X80867668Y-142229259D01*
X80871733Y-142231840D01*
X80876341Y-142228361D01*
X80887224Y-142218478D01*
X80903526Y-142203021D01*
X80924387Y-142182818D01*
X80948950Y-142158700D01*
X80976357Y-142131495D01*
X80999229Y-142108595D01*
X81048068Y-142058984D01*
X81089850Y-142015338D01*
X81125178Y-141976945D01*
X81154653Y-141943094D01*
X81178877Y-141913075D01*
X81198452Y-141886174D01*
X81213979Y-141861682D01*
X81224229Y-141842665D01*
X81234347Y-141820970D01*
X81240243Y-141804250D01*
X81242927Y-141788768D01*
X81243418Y-141771660D01*
X81238362Y-141730907D01*
X81224980Y-141694250D01*
X81204475Y-141662265D01*
X81178049Y-141635525D01*
X81146908Y-141614606D01*
X81112253Y-141600083D01*
X81075289Y-141592530D01*
X81037218Y-141592521D01*
X80999245Y-141600632D01*
X80999245Y-141600632D01*
G37*
X80999245Y-141600632D02*
X80962573Y-141617437D01*
X80945166Y-141629229D01*
X80921900Y-141651471D01*
X80901049Y-141679694D01*
X80885188Y-141710030D01*
X80878806Y-141728920D01*
X80871774Y-141756860D01*
X80867971Y-141739080D01*
X80856001Y-141704643D01*
X80835993Y-141671101D01*
X80809946Y-141640924D01*
X80779857Y-141616583D01*
X80759914Y-141605446D01*
X80736156Y-141598102D01*
X80706409Y-141594146D01*
X80674264Y-141593577D01*
X80643311Y-141596395D01*
X80617140Y-141602600D01*
X80610047Y-141605446D01*
X80584273Y-141621084D01*
X80558230Y-141643231D01*
X80535032Y-141668816D01*
X80517798Y-141694768D01*
X80516225Y-141697872D01*
X80508936Y-141714529D01*
X80504684Y-141729919D01*
X80502700Y-141747980D01*
X80502218Y-141769560D01*
X80503097Y-141792937D01*
X80506438Y-141813730D01*
X80513088Y-141833911D01*
X80523893Y-141855449D01*
X80539703Y-141880313D01*
X80561363Y-141910474D01*
X80564827Y-141915120D01*
X80574452Y-141926935D01*
X80589490Y-141944065D01*
X80609050Y-141965589D01*
X80632240Y-141990588D01*
X80658169Y-142018140D01*
X80685945Y-142047328D01*
X80714677Y-142077229D01*
X80743473Y-142106925D01*
X80771441Y-142135495D01*
X80797691Y-142162020D01*
X80821329Y-142185578D01*
X80841466Y-142205251D01*
X80857210Y-142220118D01*
X80867668Y-142229259D01*
X80871733Y-142231840D01*
X80876341Y-142228361D01*
X80887224Y-142218478D01*
X80903526Y-142203021D01*
X80924387Y-142182818D01*
X80948950Y-142158700D01*
X80976357Y-142131495D01*
X80999229Y-142108595D01*
X81048068Y-142058984D01*
X81089850Y-142015338D01*
X81125178Y-141976945D01*
X81154653Y-141943094D01*
X81178877Y-141913075D01*
X81198452Y-141886174D01*
X81213979Y-141861682D01*
X81224229Y-141842665D01*
X81234347Y-141820970D01*
X81240243Y-141804250D01*
X81242927Y-141788768D01*
X81243418Y-141771660D01*
X81238362Y-141730907D01*
X81224980Y-141694250D01*
X81204475Y-141662265D01*
X81178049Y-141635525D01*
X81146908Y-141614606D01*
X81112253Y-141600083D01*
X81075289Y-141592530D01*
X81037218Y-141592521D01*
X80999245Y-141600632D01*
%TD*%
D11*
%TO.C,J1*%
X107850000Y-129000000D03*
X107850000Y-134000000D03*
D12*
X110550000Y-128000000D03*
X110550000Y-135000000D03*
%TD*%
D13*
%TO.C,TP9*%
X86500000Y-140250000D03*
%TD*%
%TO.C,TP8*%
X78250000Y-127500000D03*
%TD*%
%TO.C,TP7*%
X76250000Y-136000000D03*
%TD*%
%TO.C,TP6*%
X84000000Y-127500000D03*
%TD*%
%TO.C,TP5*%
X71250000Y-137750000D03*
%TD*%
%TO.C,TP4*%
X103750000Y-129250000D03*
%TD*%
%TO.C,TP3*%
X102250000Y-142500000D03*
%TD*%
%TO.C,TP2*%
X100250000Y-138000000D03*
%TD*%
%TO.C,TP1*%
X107750000Y-136500000D03*
%TD*%
D14*
%TO.C,FID2*%
X72250000Y-143000000D03*
%TD*%
%TO.C,FID1*%
X109750000Y-120000000D03*
%TD*%
D15*
%TO.C,H4*%
X109500000Y-145500000D03*
%TD*%
%TO.C,H3*%
X72500000Y-145500000D03*
%TD*%
%TO.C,H2*%
X72500000Y-117500000D03*
%TD*%
%TO.C,H1*%
X109500000Y-117500000D03*
%TD*%
D16*
%TO.C,J2*%
X82100000Y-131500000D03*
X75100000Y-131500000D03*
%TD*%
D17*
%TO.C,D33*%
G36*
X77645581Y-138751625D02*
G01*
X77678343Y-138756485D01*
X77710471Y-138764533D01*
X77741656Y-138775691D01*
X77771596Y-138789852D01*
X77800005Y-138806879D01*
X77826608Y-138826609D01*
X77851149Y-138848851D01*
X77873391Y-138873392D01*
X77893121Y-138899995D01*
X77910148Y-138928404D01*
X77924309Y-138958344D01*
X77935467Y-138989529D01*
X77943515Y-139021657D01*
X77948375Y-139054419D01*
X77950000Y-139087500D01*
X77950000Y-139912500D01*
X77948375Y-139945581D01*
X77943515Y-139978343D01*
X77935467Y-140010471D01*
X77924309Y-140041656D01*
X77910148Y-140071596D01*
X77893121Y-140100005D01*
X77873391Y-140126608D01*
X77851149Y-140151149D01*
X77826608Y-140173391D01*
X77800005Y-140193121D01*
X77771596Y-140210148D01*
X77741656Y-140224309D01*
X77710471Y-140235467D01*
X77678343Y-140243515D01*
X77645581Y-140248375D01*
X77612500Y-140250000D01*
X76937500Y-140250000D01*
X76904419Y-140248375D01*
X76871657Y-140243515D01*
X76839529Y-140235467D01*
X76808344Y-140224309D01*
X76778404Y-140210148D01*
X76749995Y-140193121D01*
X76723392Y-140173391D01*
X76698851Y-140151149D01*
X76676609Y-140126608D01*
X76656879Y-140100005D01*
X76639852Y-140071596D01*
X76625691Y-140041656D01*
X76614533Y-140010471D01*
X76606485Y-139978343D01*
X76601625Y-139945581D01*
X76600000Y-139912500D01*
X76600000Y-139087500D01*
X76601625Y-139054419D01*
X76606485Y-139021657D01*
X76614533Y-138989529D01*
X76625691Y-138958344D01*
X76639852Y-138928404D01*
X76656879Y-138899995D01*
X76676609Y-138873392D01*
X76698851Y-138848851D01*
X76723392Y-138826609D01*
X76749995Y-138806879D01*
X76778404Y-138789852D01*
X76808344Y-138775691D01*
X76839529Y-138764533D01*
X76871657Y-138756485D01*
X76904419Y-138751625D01*
X76937500Y-138750000D01*
X77612500Y-138750000D01*
X77645581Y-138751625D01*
X77645581Y-138751625D01*
G37*
D18*
X77275000Y-139500000D03*
D17*
G36*
X79595581Y-138751625D02*
G01*
X79628343Y-138756485D01*
X79660471Y-138764533D01*
X79691656Y-138775691D01*
X79721596Y-138789852D01*
X79750005Y-138806879D01*
X79776608Y-138826609D01*
X79801149Y-138848851D01*
X79823391Y-138873392D01*
X79843121Y-138899995D01*
X79860148Y-138928404D01*
X79874309Y-138958344D01*
X79885467Y-138989529D01*
X79893515Y-139021657D01*
X79898375Y-139054419D01*
X79900000Y-139087500D01*
X79900000Y-139912500D01*
X79898375Y-139945581D01*
X79893515Y-139978343D01*
X79885467Y-140010471D01*
X79874309Y-140041656D01*
X79860148Y-140071596D01*
X79843121Y-140100005D01*
X79823391Y-140126608D01*
X79801149Y-140151149D01*
X79776608Y-140173391D01*
X79750005Y-140193121D01*
X79721596Y-140210148D01*
X79691656Y-140224309D01*
X79660471Y-140235467D01*
X79628343Y-140243515D01*
X79595581Y-140248375D01*
X79562500Y-140250000D01*
X78887500Y-140250000D01*
X78854419Y-140248375D01*
X78821657Y-140243515D01*
X78789529Y-140235467D01*
X78758344Y-140224309D01*
X78728404Y-140210148D01*
X78699995Y-140193121D01*
X78673392Y-140173391D01*
X78648851Y-140151149D01*
X78626609Y-140126608D01*
X78606879Y-140100005D01*
X78589852Y-140071596D01*
X78575691Y-140041656D01*
X78564533Y-140010471D01*
X78556485Y-139978343D01*
X78551625Y-139945581D01*
X78550000Y-139912500D01*
X78550000Y-139087500D01*
X78551625Y-139054419D01*
X78556485Y-139021657D01*
X78564533Y-138989529D01*
X78575691Y-138958344D01*
X78589852Y-138928404D01*
X78606879Y-138899995D01*
X78626609Y-138873392D01*
X78648851Y-138848851D01*
X78673392Y-138826609D01*
X78699995Y-138806879D01*
X78728404Y-138789852D01*
X78758344Y-138775691D01*
X78789529Y-138764533D01*
X78821657Y-138756485D01*
X78854419Y-138751625D01*
X78887500Y-138750000D01*
X79562500Y-138750000D01*
X79595581Y-138751625D01*
X79595581Y-138751625D01*
G37*
D18*
X79225000Y-139500000D03*
%TD*%
D17*
%TO.C,D32*%
G36*
X74695581Y-133851625D02*
G01*
X74728343Y-133856485D01*
X74760471Y-133864533D01*
X74791656Y-133875691D01*
X74821596Y-133889852D01*
X74850005Y-133906879D01*
X74876608Y-133926609D01*
X74901149Y-133948851D01*
X74923391Y-133973392D01*
X74943121Y-133999995D01*
X74960148Y-134028404D01*
X74974309Y-134058344D01*
X74985467Y-134089529D01*
X74993515Y-134121657D01*
X74998375Y-134154419D01*
X75000000Y-134187500D01*
X75000000Y-134862500D01*
X74998375Y-134895581D01*
X74993515Y-134928343D01*
X74985467Y-134960471D01*
X74974309Y-134991656D01*
X74960148Y-135021596D01*
X74943121Y-135050005D01*
X74923391Y-135076608D01*
X74901149Y-135101149D01*
X74876608Y-135123391D01*
X74850005Y-135143121D01*
X74821596Y-135160148D01*
X74791656Y-135174309D01*
X74760471Y-135185467D01*
X74728343Y-135193515D01*
X74695581Y-135198375D01*
X74662500Y-135200000D01*
X73837500Y-135200000D01*
X73804419Y-135198375D01*
X73771657Y-135193515D01*
X73739529Y-135185467D01*
X73708344Y-135174309D01*
X73678404Y-135160148D01*
X73649995Y-135143121D01*
X73623392Y-135123391D01*
X73598851Y-135101149D01*
X73576609Y-135076608D01*
X73556879Y-135050005D01*
X73539852Y-135021596D01*
X73525691Y-134991656D01*
X73514533Y-134960471D01*
X73506485Y-134928343D01*
X73501625Y-134895581D01*
X73500000Y-134862500D01*
X73500000Y-134187500D01*
X73501625Y-134154419D01*
X73506485Y-134121657D01*
X73514533Y-134089529D01*
X73525691Y-134058344D01*
X73539852Y-134028404D01*
X73556879Y-133999995D01*
X73576609Y-133973392D01*
X73598851Y-133948851D01*
X73623392Y-133926609D01*
X73649995Y-133906879D01*
X73678404Y-133889852D01*
X73708344Y-133875691D01*
X73739529Y-133864533D01*
X73771657Y-133856485D01*
X73804419Y-133851625D01*
X73837500Y-133850000D01*
X74662500Y-133850000D01*
X74695581Y-133851625D01*
X74695581Y-133851625D01*
G37*
D18*
X74250000Y-134525000D03*
D17*
G36*
X74695581Y-135801625D02*
G01*
X74728343Y-135806485D01*
X74760471Y-135814533D01*
X74791656Y-135825691D01*
X74821596Y-135839852D01*
X74850005Y-135856879D01*
X74876608Y-135876609D01*
X74901149Y-135898851D01*
X74923391Y-135923392D01*
X74943121Y-135949995D01*
X74960148Y-135978404D01*
X74974309Y-136008344D01*
X74985467Y-136039529D01*
X74993515Y-136071657D01*
X74998375Y-136104419D01*
X75000000Y-136137500D01*
X75000000Y-136812500D01*
X74998375Y-136845581D01*
X74993515Y-136878343D01*
X74985467Y-136910471D01*
X74974309Y-136941656D01*
X74960148Y-136971596D01*
X74943121Y-137000005D01*
X74923391Y-137026608D01*
X74901149Y-137051149D01*
X74876608Y-137073391D01*
X74850005Y-137093121D01*
X74821596Y-137110148D01*
X74791656Y-137124309D01*
X74760471Y-137135467D01*
X74728343Y-137143515D01*
X74695581Y-137148375D01*
X74662500Y-137150000D01*
X73837500Y-137150000D01*
X73804419Y-137148375D01*
X73771657Y-137143515D01*
X73739529Y-137135467D01*
X73708344Y-137124309D01*
X73678404Y-137110148D01*
X73649995Y-137093121D01*
X73623392Y-137073391D01*
X73598851Y-137051149D01*
X73576609Y-137026608D01*
X73556879Y-137000005D01*
X73539852Y-136971596D01*
X73525691Y-136941656D01*
X73514533Y-136910471D01*
X73506485Y-136878343D01*
X73501625Y-136845581D01*
X73500000Y-136812500D01*
X73500000Y-136137500D01*
X73501625Y-136104419D01*
X73506485Y-136071657D01*
X73514533Y-136039529D01*
X73525691Y-136008344D01*
X73539852Y-135978404D01*
X73556879Y-135949995D01*
X73576609Y-135923392D01*
X73598851Y-135898851D01*
X73623392Y-135876609D01*
X73649995Y-135856879D01*
X73678404Y-135839852D01*
X73708344Y-135825691D01*
X73739529Y-135814533D01*
X73771657Y-135806485D01*
X73804419Y-135801625D01*
X73837500Y-135800000D01*
X74662500Y-135800000D01*
X74695581Y-135801625D01*
X74695581Y-135801625D01*
G37*
D18*
X74250000Y-136475000D03*
%TD*%
D17*
%TO.C,D31*%
G36*
X79595581Y-144751625D02*
G01*
X79628343Y-144756485D01*
X79660471Y-144764533D01*
X79691656Y-144775691D01*
X79721596Y-144789852D01*
X79750005Y-144806879D01*
X79776608Y-144826609D01*
X79801149Y-144848851D01*
X79823391Y-144873392D01*
X79843121Y-144899995D01*
X79860148Y-144928404D01*
X79874309Y-144958344D01*
X79885467Y-144989529D01*
X79893515Y-145021657D01*
X79898375Y-145054419D01*
X79900000Y-145087500D01*
X79900000Y-145912500D01*
X79898375Y-145945581D01*
X79893515Y-145978343D01*
X79885467Y-146010471D01*
X79874309Y-146041656D01*
X79860148Y-146071596D01*
X79843121Y-146100005D01*
X79823391Y-146126608D01*
X79801149Y-146151149D01*
X79776608Y-146173391D01*
X79750005Y-146193121D01*
X79721596Y-146210148D01*
X79691656Y-146224309D01*
X79660471Y-146235467D01*
X79628343Y-146243515D01*
X79595581Y-146248375D01*
X79562500Y-146250000D01*
X78887500Y-146250000D01*
X78854419Y-146248375D01*
X78821657Y-146243515D01*
X78789529Y-146235467D01*
X78758344Y-146224309D01*
X78728404Y-146210148D01*
X78699995Y-146193121D01*
X78673392Y-146173391D01*
X78648851Y-146151149D01*
X78626609Y-146126608D01*
X78606879Y-146100005D01*
X78589852Y-146071596D01*
X78575691Y-146041656D01*
X78564533Y-146010471D01*
X78556485Y-145978343D01*
X78551625Y-145945581D01*
X78550000Y-145912500D01*
X78550000Y-145087500D01*
X78551625Y-145054419D01*
X78556485Y-145021657D01*
X78564533Y-144989529D01*
X78575691Y-144958344D01*
X78589852Y-144928404D01*
X78606879Y-144899995D01*
X78626609Y-144873392D01*
X78648851Y-144848851D01*
X78673392Y-144826609D01*
X78699995Y-144806879D01*
X78728404Y-144789852D01*
X78758344Y-144775691D01*
X78789529Y-144764533D01*
X78821657Y-144756485D01*
X78854419Y-144751625D01*
X78887500Y-144750000D01*
X79562500Y-144750000D01*
X79595581Y-144751625D01*
X79595581Y-144751625D01*
G37*
D18*
X79225000Y-145500000D03*
D17*
G36*
X77645581Y-144751625D02*
G01*
X77678343Y-144756485D01*
X77710471Y-144764533D01*
X77741656Y-144775691D01*
X77771596Y-144789852D01*
X77800005Y-144806879D01*
X77826608Y-144826609D01*
X77851149Y-144848851D01*
X77873391Y-144873392D01*
X77893121Y-144899995D01*
X77910148Y-144928404D01*
X77924309Y-144958344D01*
X77935467Y-144989529D01*
X77943515Y-145021657D01*
X77948375Y-145054419D01*
X77950000Y-145087500D01*
X77950000Y-145912500D01*
X77948375Y-145945581D01*
X77943515Y-145978343D01*
X77935467Y-146010471D01*
X77924309Y-146041656D01*
X77910148Y-146071596D01*
X77893121Y-146100005D01*
X77873391Y-146126608D01*
X77851149Y-146151149D01*
X77826608Y-146173391D01*
X77800005Y-146193121D01*
X77771596Y-146210148D01*
X77741656Y-146224309D01*
X77710471Y-146235467D01*
X77678343Y-146243515D01*
X77645581Y-146248375D01*
X77612500Y-146250000D01*
X76937500Y-146250000D01*
X76904419Y-146248375D01*
X76871657Y-146243515D01*
X76839529Y-146235467D01*
X76808344Y-146224309D01*
X76778404Y-146210148D01*
X76749995Y-146193121D01*
X76723392Y-146173391D01*
X76698851Y-146151149D01*
X76676609Y-146126608D01*
X76656879Y-146100005D01*
X76639852Y-146071596D01*
X76625691Y-146041656D01*
X76614533Y-146010471D01*
X76606485Y-145978343D01*
X76601625Y-145945581D01*
X76600000Y-145912500D01*
X76600000Y-145087500D01*
X76601625Y-145054419D01*
X76606485Y-145021657D01*
X76614533Y-144989529D01*
X76625691Y-144958344D01*
X76639852Y-144928404D01*
X76656879Y-144899995D01*
X76676609Y-144873392D01*
X76698851Y-144848851D01*
X76723392Y-144826609D01*
X76749995Y-144806879D01*
X76778404Y-144789852D01*
X76808344Y-144775691D01*
X76839529Y-144764533D01*
X76871657Y-144756485D01*
X76904419Y-144751625D01*
X76937500Y-144750000D01*
X77612500Y-144750000D01*
X77645581Y-144751625D01*
X77645581Y-144751625D01*
G37*
D18*
X77275000Y-145500000D03*
%TD*%
D17*
%TO.C,D30*%
G36*
X82695581Y-135801625D02*
G01*
X82728343Y-135806485D01*
X82760471Y-135814533D01*
X82791656Y-135825691D01*
X82821596Y-135839852D01*
X82850005Y-135856879D01*
X82876608Y-135876609D01*
X82901149Y-135898851D01*
X82923391Y-135923392D01*
X82943121Y-135949995D01*
X82960148Y-135978404D01*
X82974309Y-136008344D01*
X82985467Y-136039529D01*
X82993515Y-136071657D01*
X82998375Y-136104419D01*
X83000000Y-136137500D01*
X83000000Y-136812500D01*
X82998375Y-136845581D01*
X82993515Y-136878343D01*
X82985467Y-136910471D01*
X82974309Y-136941656D01*
X82960148Y-136971596D01*
X82943121Y-137000005D01*
X82923391Y-137026608D01*
X82901149Y-137051149D01*
X82876608Y-137073391D01*
X82850005Y-137093121D01*
X82821596Y-137110148D01*
X82791656Y-137124309D01*
X82760471Y-137135467D01*
X82728343Y-137143515D01*
X82695581Y-137148375D01*
X82662500Y-137150000D01*
X81837500Y-137150000D01*
X81804419Y-137148375D01*
X81771657Y-137143515D01*
X81739529Y-137135467D01*
X81708344Y-137124309D01*
X81678404Y-137110148D01*
X81649995Y-137093121D01*
X81623392Y-137073391D01*
X81598851Y-137051149D01*
X81576609Y-137026608D01*
X81556879Y-137000005D01*
X81539852Y-136971596D01*
X81525691Y-136941656D01*
X81514533Y-136910471D01*
X81506485Y-136878343D01*
X81501625Y-136845581D01*
X81500000Y-136812500D01*
X81500000Y-136137500D01*
X81501625Y-136104419D01*
X81506485Y-136071657D01*
X81514533Y-136039529D01*
X81525691Y-136008344D01*
X81539852Y-135978404D01*
X81556879Y-135949995D01*
X81576609Y-135923392D01*
X81598851Y-135898851D01*
X81623392Y-135876609D01*
X81649995Y-135856879D01*
X81678404Y-135839852D01*
X81708344Y-135825691D01*
X81739529Y-135814533D01*
X81771657Y-135806485D01*
X81804419Y-135801625D01*
X81837500Y-135800000D01*
X82662500Y-135800000D01*
X82695581Y-135801625D01*
X82695581Y-135801625D01*
G37*
D18*
X82250000Y-136475000D03*
D17*
G36*
X82695581Y-133851625D02*
G01*
X82728343Y-133856485D01*
X82760471Y-133864533D01*
X82791656Y-133875691D01*
X82821596Y-133889852D01*
X82850005Y-133906879D01*
X82876608Y-133926609D01*
X82901149Y-133948851D01*
X82923391Y-133973392D01*
X82943121Y-133999995D01*
X82960148Y-134028404D01*
X82974309Y-134058344D01*
X82985467Y-134089529D01*
X82993515Y-134121657D01*
X82998375Y-134154419D01*
X83000000Y-134187500D01*
X83000000Y-134862500D01*
X82998375Y-134895581D01*
X82993515Y-134928343D01*
X82985467Y-134960471D01*
X82974309Y-134991656D01*
X82960148Y-135021596D01*
X82943121Y-135050005D01*
X82923391Y-135076608D01*
X82901149Y-135101149D01*
X82876608Y-135123391D01*
X82850005Y-135143121D01*
X82821596Y-135160148D01*
X82791656Y-135174309D01*
X82760471Y-135185467D01*
X82728343Y-135193515D01*
X82695581Y-135198375D01*
X82662500Y-135200000D01*
X81837500Y-135200000D01*
X81804419Y-135198375D01*
X81771657Y-135193515D01*
X81739529Y-135185467D01*
X81708344Y-135174309D01*
X81678404Y-135160148D01*
X81649995Y-135143121D01*
X81623392Y-135123391D01*
X81598851Y-135101149D01*
X81576609Y-135076608D01*
X81556879Y-135050005D01*
X81539852Y-135021596D01*
X81525691Y-134991656D01*
X81514533Y-134960471D01*
X81506485Y-134928343D01*
X81501625Y-134895581D01*
X81500000Y-134862500D01*
X81500000Y-134187500D01*
X81501625Y-134154419D01*
X81506485Y-134121657D01*
X81514533Y-134089529D01*
X81525691Y-134058344D01*
X81539852Y-134028404D01*
X81556879Y-133999995D01*
X81576609Y-133973392D01*
X81598851Y-133948851D01*
X81623392Y-133926609D01*
X81649995Y-133906879D01*
X81678404Y-133889852D01*
X81708344Y-133875691D01*
X81739529Y-133864533D01*
X81771657Y-133856485D01*
X81804419Y-133851625D01*
X81837500Y-133850000D01*
X82662500Y-133850000D01*
X82695581Y-133851625D01*
X82695581Y-133851625D01*
G37*
D18*
X82250000Y-134525000D03*
%TD*%
D17*
%TO.C,D29*%
G36*
X103095581Y-144751625D02*
G01*
X103128343Y-144756485D01*
X103160471Y-144764533D01*
X103191656Y-144775691D01*
X103221596Y-144789852D01*
X103250005Y-144806879D01*
X103276608Y-144826609D01*
X103301149Y-144848851D01*
X103323391Y-144873392D01*
X103343121Y-144899995D01*
X103360148Y-144928404D01*
X103374309Y-144958344D01*
X103385467Y-144989529D01*
X103393515Y-145021657D01*
X103398375Y-145054419D01*
X103400000Y-145087500D01*
X103400000Y-145912500D01*
X103398375Y-145945581D01*
X103393515Y-145978343D01*
X103385467Y-146010471D01*
X103374309Y-146041656D01*
X103360148Y-146071596D01*
X103343121Y-146100005D01*
X103323391Y-146126608D01*
X103301149Y-146151149D01*
X103276608Y-146173391D01*
X103250005Y-146193121D01*
X103221596Y-146210148D01*
X103191656Y-146224309D01*
X103160471Y-146235467D01*
X103128343Y-146243515D01*
X103095581Y-146248375D01*
X103062500Y-146250000D01*
X102387500Y-146250000D01*
X102354419Y-146248375D01*
X102321657Y-146243515D01*
X102289529Y-146235467D01*
X102258344Y-146224309D01*
X102228404Y-146210148D01*
X102199995Y-146193121D01*
X102173392Y-146173391D01*
X102148851Y-146151149D01*
X102126609Y-146126608D01*
X102106879Y-146100005D01*
X102089852Y-146071596D01*
X102075691Y-146041656D01*
X102064533Y-146010471D01*
X102056485Y-145978343D01*
X102051625Y-145945581D01*
X102050000Y-145912500D01*
X102050000Y-145087500D01*
X102051625Y-145054419D01*
X102056485Y-145021657D01*
X102064533Y-144989529D01*
X102075691Y-144958344D01*
X102089852Y-144928404D01*
X102106879Y-144899995D01*
X102126609Y-144873392D01*
X102148851Y-144848851D01*
X102173392Y-144826609D01*
X102199995Y-144806879D01*
X102228404Y-144789852D01*
X102258344Y-144775691D01*
X102289529Y-144764533D01*
X102321657Y-144756485D01*
X102354419Y-144751625D01*
X102387500Y-144750000D01*
X103062500Y-144750000D01*
X103095581Y-144751625D01*
X103095581Y-144751625D01*
G37*
D18*
X102725000Y-145500000D03*
D17*
G36*
X101145581Y-144751625D02*
G01*
X101178343Y-144756485D01*
X101210471Y-144764533D01*
X101241656Y-144775691D01*
X101271596Y-144789852D01*
X101300005Y-144806879D01*
X101326608Y-144826609D01*
X101351149Y-144848851D01*
X101373391Y-144873392D01*
X101393121Y-144899995D01*
X101410148Y-144928404D01*
X101424309Y-144958344D01*
X101435467Y-144989529D01*
X101443515Y-145021657D01*
X101448375Y-145054419D01*
X101450000Y-145087500D01*
X101450000Y-145912500D01*
X101448375Y-145945581D01*
X101443515Y-145978343D01*
X101435467Y-146010471D01*
X101424309Y-146041656D01*
X101410148Y-146071596D01*
X101393121Y-146100005D01*
X101373391Y-146126608D01*
X101351149Y-146151149D01*
X101326608Y-146173391D01*
X101300005Y-146193121D01*
X101271596Y-146210148D01*
X101241656Y-146224309D01*
X101210471Y-146235467D01*
X101178343Y-146243515D01*
X101145581Y-146248375D01*
X101112500Y-146250000D01*
X100437500Y-146250000D01*
X100404419Y-146248375D01*
X100371657Y-146243515D01*
X100339529Y-146235467D01*
X100308344Y-146224309D01*
X100278404Y-146210148D01*
X100249995Y-146193121D01*
X100223392Y-146173391D01*
X100198851Y-146151149D01*
X100176609Y-146126608D01*
X100156879Y-146100005D01*
X100139852Y-146071596D01*
X100125691Y-146041656D01*
X100114533Y-146010471D01*
X100106485Y-145978343D01*
X100101625Y-145945581D01*
X100100000Y-145912500D01*
X100100000Y-145087500D01*
X100101625Y-145054419D01*
X100106485Y-145021657D01*
X100114533Y-144989529D01*
X100125691Y-144958344D01*
X100139852Y-144928404D01*
X100156879Y-144899995D01*
X100176609Y-144873392D01*
X100198851Y-144848851D01*
X100223392Y-144826609D01*
X100249995Y-144806879D01*
X100278404Y-144789852D01*
X100308344Y-144775691D01*
X100339529Y-144764533D01*
X100371657Y-144756485D01*
X100404419Y-144751625D01*
X100437500Y-144750000D01*
X101112500Y-144750000D01*
X101145581Y-144751625D01*
X101145581Y-144751625D01*
G37*
D18*
X100775000Y-145500000D03*
%TD*%
D17*
%TO.C,D28*%
G36*
X77645581Y-130751625D02*
G01*
X77678343Y-130756485D01*
X77710471Y-130764533D01*
X77741656Y-130775691D01*
X77771596Y-130789852D01*
X77800005Y-130806879D01*
X77826608Y-130826609D01*
X77851149Y-130848851D01*
X77873391Y-130873392D01*
X77893121Y-130899995D01*
X77910148Y-130928404D01*
X77924309Y-130958344D01*
X77935467Y-130989529D01*
X77943515Y-131021657D01*
X77948375Y-131054419D01*
X77950000Y-131087500D01*
X77950000Y-131912500D01*
X77948375Y-131945581D01*
X77943515Y-131978343D01*
X77935467Y-132010471D01*
X77924309Y-132041656D01*
X77910148Y-132071596D01*
X77893121Y-132100005D01*
X77873391Y-132126608D01*
X77851149Y-132151149D01*
X77826608Y-132173391D01*
X77800005Y-132193121D01*
X77771596Y-132210148D01*
X77741656Y-132224309D01*
X77710471Y-132235467D01*
X77678343Y-132243515D01*
X77645581Y-132248375D01*
X77612500Y-132250000D01*
X76937500Y-132250000D01*
X76904419Y-132248375D01*
X76871657Y-132243515D01*
X76839529Y-132235467D01*
X76808344Y-132224309D01*
X76778404Y-132210148D01*
X76749995Y-132193121D01*
X76723392Y-132173391D01*
X76698851Y-132151149D01*
X76676609Y-132126608D01*
X76656879Y-132100005D01*
X76639852Y-132071596D01*
X76625691Y-132041656D01*
X76614533Y-132010471D01*
X76606485Y-131978343D01*
X76601625Y-131945581D01*
X76600000Y-131912500D01*
X76600000Y-131087500D01*
X76601625Y-131054419D01*
X76606485Y-131021657D01*
X76614533Y-130989529D01*
X76625691Y-130958344D01*
X76639852Y-130928404D01*
X76656879Y-130899995D01*
X76676609Y-130873392D01*
X76698851Y-130848851D01*
X76723392Y-130826609D01*
X76749995Y-130806879D01*
X76778404Y-130789852D01*
X76808344Y-130775691D01*
X76839529Y-130764533D01*
X76871657Y-130756485D01*
X76904419Y-130751625D01*
X76937500Y-130750000D01*
X77612500Y-130750000D01*
X77645581Y-130751625D01*
X77645581Y-130751625D01*
G37*
D18*
X77275000Y-131500000D03*
D17*
G36*
X79595581Y-130751625D02*
G01*
X79628343Y-130756485D01*
X79660471Y-130764533D01*
X79691656Y-130775691D01*
X79721596Y-130789852D01*
X79750005Y-130806879D01*
X79776608Y-130826609D01*
X79801149Y-130848851D01*
X79823391Y-130873392D01*
X79843121Y-130899995D01*
X79860148Y-130928404D01*
X79874309Y-130958344D01*
X79885467Y-130989529D01*
X79893515Y-131021657D01*
X79898375Y-131054419D01*
X79900000Y-131087500D01*
X79900000Y-131912500D01*
X79898375Y-131945581D01*
X79893515Y-131978343D01*
X79885467Y-132010471D01*
X79874309Y-132041656D01*
X79860148Y-132071596D01*
X79843121Y-132100005D01*
X79823391Y-132126608D01*
X79801149Y-132151149D01*
X79776608Y-132173391D01*
X79750005Y-132193121D01*
X79721596Y-132210148D01*
X79691656Y-132224309D01*
X79660471Y-132235467D01*
X79628343Y-132243515D01*
X79595581Y-132248375D01*
X79562500Y-132250000D01*
X78887500Y-132250000D01*
X78854419Y-132248375D01*
X78821657Y-132243515D01*
X78789529Y-132235467D01*
X78758344Y-132224309D01*
X78728404Y-132210148D01*
X78699995Y-132193121D01*
X78673392Y-132173391D01*
X78648851Y-132151149D01*
X78626609Y-132126608D01*
X78606879Y-132100005D01*
X78589852Y-132071596D01*
X78575691Y-132041656D01*
X78564533Y-132010471D01*
X78556485Y-131978343D01*
X78551625Y-131945581D01*
X78550000Y-131912500D01*
X78550000Y-131087500D01*
X78551625Y-131054419D01*
X78556485Y-131021657D01*
X78564533Y-130989529D01*
X78575691Y-130958344D01*
X78589852Y-130928404D01*
X78606879Y-130899995D01*
X78626609Y-130873392D01*
X78648851Y-130848851D01*
X78673392Y-130826609D01*
X78699995Y-130806879D01*
X78728404Y-130789852D01*
X78758344Y-130775691D01*
X78789529Y-130764533D01*
X78821657Y-130756485D01*
X78854419Y-130751625D01*
X78887500Y-130750000D01*
X79562500Y-130750000D01*
X79595581Y-130751625D01*
X79595581Y-130751625D01*
G37*
D18*
X79225000Y-131500000D03*
%TD*%
D17*
%TO.C,D27*%
G36*
X89395581Y-144751625D02*
G01*
X89428343Y-144756485D01*
X89460471Y-144764533D01*
X89491656Y-144775691D01*
X89521596Y-144789852D01*
X89550005Y-144806879D01*
X89576608Y-144826609D01*
X89601149Y-144848851D01*
X89623391Y-144873392D01*
X89643121Y-144899995D01*
X89660148Y-144928404D01*
X89674309Y-144958344D01*
X89685467Y-144989529D01*
X89693515Y-145021657D01*
X89698375Y-145054419D01*
X89700000Y-145087500D01*
X89700000Y-145912500D01*
X89698375Y-145945581D01*
X89693515Y-145978343D01*
X89685467Y-146010471D01*
X89674309Y-146041656D01*
X89660148Y-146071596D01*
X89643121Y-146100005D01*
X89623391Y-146126608D01*
X89601149Y-146151149D01*
X89576608Y-146173391D01*
X89550005Y-146193121D01*
X89521596Y-146210148D01*
X89491656Y-146224309D01*
X89460471Y-146235467D01*
X89428343Y-146243515D01*
X89395581Y-146248375D01*
X89362500Y-146250000D01*
X88687500Y-146250000D01*
X88654419Y-146248375D01*
X88621657Y-146243515D01*
X88589529Y-146235467D01*
X88558344Y-146224309D01*
X88528404Y-146210148D01*
X88499995Y-146193121D01*
X88473392Y-146173391D01*
X88448851Y-146151149D01*
X88426609Y-146126608D01*
X88406879Y-146100005D01*
X88389852Y-146071596D01*
X88375691Y-146041656D01*
X88364533Y-146010471D01*
X88356485Y-145978343D01*
X88351625Y-145945581D01*
X88350000Y-145912500D01*
X88350000Y-145087500D01*
X88351625Y-145054419D01*
X88356485Y-145021657D01*
X88364533Y-144989529D01*
X88375691Y-144958344D01*
X88389852Y-144928404D01*
X88406879Y-144899995D01*
X88426609Y-144873392D01*
X88448851Y-144848851D01*
X88473392Y-144826609D01*
X88499995Y-144806879D01*
X88528404Y-144789852D01*
X88558344Y-144775691D01*
X88589529Y-144764533D01*
X88621657Y-144756485D01*
X88654419Y-144751625D01*
X88687500Y-144750000D01*
X89362500Y-144750000D01*
X89395581Y-144751625D01*
X89395581Y-144751625D01*
G37*
D18*
X89025000Y-145500000D03*
D17*
G36*
X91345581Y-144751625D02*
G01*
X91378343Y-144756485D01*
X91410471Y-144764533D01*
X91441656Y-144775691D01*
X91471596Y-144789852D01*
X91500005Y-144806879D01*
X91526608Y-144826609D01*
X91551149Y-144848851D01*
X91573391Y-144873392D01*
X91593121Y-144899995D01*
X91610148Y-144928404D01*
X91624309Y-144958344D01*
X91635467Y-144989529D01*
X91643515Y-145021657D01*
X91648375Y-145054419D01*
X91650000Y-145087500D01*
X91650000Y-145912500D01*
X91648375Y-145945581D01*
X91643515Y-145978343D01*
X91635467Y-146010471D01*
X91624309Y-146041656D01*
X91610148Y-146071596D01*
X91593121Y-146100005D01*
X91573391Y-146126608D01*
X91551149Y-146151149D01*
X91526608Y-146173391D01*
X91500005Y-146193121D01*
X91471596Y-146210148D01*
X91441656Y-146224309D01*
X91410471Y-146235467D01*
X91378343Y-146243515D01*
X91345581Y-146248375D01*
X91312500Y-146250000D01*
X90637500Y-146250000D01*
X90604419Y-146248375D01*
X90571657Y-146243515D01*
X90539529Y-146235467D01*
X90508344Y-146224309D01*
X90478404Y-146210148D01*
X90449995Y-146193121D01*
X90423392Y-146173391D01*
X90398851Y-146151149D01*
X90376609Y-146126608D01*
X90356879Y-146100005D01*
X90339852Y-146071596D01*
X90325691Y-146041656D01*
X90314533Y-146010471D01*
X90306485Y-145978343D01*
X90301625Y-145945581D01*
X90300000Y-145912500D01*
X90300000Y-145087500D01*
X90301625Y-145054419D01*
X90306485Y-145021657D01*
X90314533Y-144989529D01*
X90325691Y-144958344D01*
X90339852Y-144928404D01*
X90356879Y-144899995D01*
X90376609Y-144873392D01*
X90398851Y-144848851D01*
X90423392Y-144826609D01*
X90449995Y-144806879D01*
X90478404Y-144789852D01*
X90508344Y-144775691D01*
X90539529Y-144764533D01*
X90571657Y-144756485D01*
X90604419Y-144751625D01*
X90637500Y-144750000D01*
X91312500Y-144750000D01*
X91345581Y-144751625D01*
X91345581Y-144751625D01*
G37*
D18*
X90975000Y-145500000D03*
%TD*%
D17*
%TO.C,D26*%
G36*
X74695581Y-127801625D02*
G01*
X74728343Y-127806485D01*
X74760471Y-127814533D01*
X74791656Y-127825691D01*
X74821596Y-127839852D01*
X74850005Y-127856879D01*
X74876608Y-127876609D01*
X74901149Y-127898851D01*
X74923391Y-127923392D01*
X74943121Y-127949995D01*
X74960148Y-127978404D01*
X74974309Y-128008344D01*
X74985467Y-128039529D01*
X74993515Y-128071657D01*
X74998375Y-128104419D01*
X75000000Y-128137500D01*
X75000000Y-128812500D01*
X74998375Y-128845581D01*
X74993515Y-128878343D01*
X74985467Y-128910471D01*
X74974309Y-128941656D01*
X74960148Y-128971596D01*
X74943121Y-129000005D01*
X74923391Y-129026608D01*
X74901149Y-129051149D01*
X74876608Y-129073391D01*
X74850005Y-129093121D01*
X74821596Y-129110148D01*
X74791656Y-129124309D01*
X74760471Y-129135467D01*
X74728343Y-129143515D01*
X74695581Y-129148375D01*
X74662500Y-129150000D01*
X73837500Y-129150000D01*
X73804419Y-129148375D01*
X73771657Y-129143515D01*
X73739529Y-129135467D01*
X73708344Y-129124309D01*
X73678404Y-129110148D01*
X73649995Y-129093121D01*
X73623392Y-129073391D01*
X73598851Y-129051149D01*
X73576609Y-129026608D01*
X73556879Y-129000005D01*
X73539852Y-128971596D01*
X73525691Y-128941656D01*
X73514533Y-128910471D01*
X73506485Y-128878343D01*
X73501625Y-128845581D01*
X73500000Y-128812500D01*
X73500000Y-128137500D01*
X73501625Y-128104419D01*
X73506485Y-128071657D01*
X73514533Y-128039529D01*
X73525691Y-128008344D01*
X73539852Y-127978404D01*
X73556879Y-127949995D01*
X73576609Y-127923392D01*
X73598851Y-127898851D01*
X73623392Y-127876609D01*
X73649995Y-127856879D01*
X73678404Y-127839852D01*
X73708344Y-127825691D01*
X73739529Y-127814533D01*
X73771657Y-127806485D01*
X73804419Y-127801625D01*
X73837500Y-127800000D01*
X74662500Y-127800000D01*
X74695581Y-127801625D01*
X74695581Y-127801625D01*
G37*
D18*
X74250000Y-128475000D03*
D17*
G36*
X74695581Y-125851625D02*
G01*
X74728343Y-125856485D01*
X74760471Y-125864533D01*
X74791656Y-125875691D01*
X74821596Y-125889852D01*
X74850005Y-125906879D01*
X74876608Y-125926609D01*
X74901149Y-125948851D01*
X74923391Y-125973392D01*
X74943121Y-125999995D01*
X74960148Y-126028404D01*
X74974309Y-126058344D01*
X74985467Y-126089529D01*
X74993515Y-126121657D01*
X74998375Y-126154419D01*
X75000000Y-126187500D01*
X75000000Y-126862500D01*
X74998375Y-126895581D01*
X74993515Y-126928343D01*
X74985467Y-126960471D01*
X74974309Y-126991656D01*
X74960148Y-127021596D01*
X74943121Y-127050005D01*
X74923391Y-127076608D01*
X74901149Y-127101149D01*
X74876608Y-127123391D01*
X74850005Y-127143121D01*
X74821596Y-127160148D01*
X74791656Y-127174309D01*
X74760471Y-127185467D01*
X74728343Y-127193515D01*
X74695581Y-127198375D01*
X74662500Y-127200000D01*
X73837500Y-127200000D01*
X73804419Y-127198375D01*
X73771657Y-127193515D01*
X73739529Y-127185467D01*
X73708344Y-127174309D01*
X73678404Y-127160148D01*
X73649995Y-127143121D01*
X73623392Y-127123391D01*
X73598851Y-127101149D01*
X73576609Y-127076608D01*
X73556879Y-127050005D01*
X73539852Y-127021596D01*
X73525691Y-126991656D01*
X73514533Y-126960471D01*
X73506485Y-126928343D01*
X73501625Y-126895581D01*
X73500000Y-126862500D01*
X73500000Y-126187500D01*
X73501625Y-126154419D01*
X73506485Y-126121657D01*
X73514533Y-126089529D01*
X73525691Y-126058344D01*
X73539852Y-126028404D01*
X73556879Y-125999995D01*
X73576609Y-125973392D01*
X73598851Y-125948851D01*
X73623392Y-125926609D01*
X73649995Y-125906879D01*
X73678404Y-125889852D01*
X73708344Y-125875691D01*
X73739529Y-125864533D01*
X73771657Y-125856485D01*
X73804419Y-125851625D01*
X73837500Y-125850000D01*
X74662500Y-125850000D01*
X74695581Y-125851625D01*
X74695581Y-125851625D01*
G37*
D18*
X74250000Y-126525000D03*
%TD*%
D17*
%TO.C,D25*%
G36*
X79595581Y-116751625D02*
G01*
X79628343Y-116756485D01*
X79660471Y-116764533D01*
X79691656Y-116775691D01*
X79721596Y-116789852D01*
X79750005Y-116806879D01*
X79776608Y-116826609D01*
X79801149Y-116848851D01*
X79823391Y-116873392D01*
X79843121Y-116899995D01*
X79860148Y-116928404D01*
X79874309Y-116958344D01*
X79885467Y-116989529D01*
X79893515Y-117021657D01*
X79898375Y-117054419D01*
X79900000Y-117087500D01*
X79900000Y-117912500D01*
X79898375Y-117945581D01*
X79893515Y-117978343D01*
X79885467Y-118010471D01*
X79874309Y-118041656D01*
X79860148Y-118071596D01*
X79843121Y-118100005D01*
X79823391Y-118126608D01*
X79801149Y-118151149D01*
X79776608Y-118173391D01*
X79750005Y-118193121D01*
X79721596Y-118210148D01*
X79691656Y-118224309D01*
X79660471Y-118235467D01*
X79628343Y-118243515D01*
X79595581Y-118248375D01*
X79562500Y-118250000D01*
X78887500Y-118250000D01*
X78854419Y-118248375D01*
X78821657Y-118243515D01*
X78789529Y-118235467D01*
X78758344Y-118224309D01*
X78728404Y-118210148D01*
X78699995Y-118193121D01*
X78673392Y-118173391D01*
X78648851Y-118151149D01*
X78626609Y-118126608D01*
X78606879Y-118100005D01*
X78589852Y-118071596D01*
X78575691Y-118041656D01*
X78564533Y-118010471D01*
X78556485Y-117978343D01*
X78551625Y-117945581D01*
X78550000Y-117912500D01*
X78550000Y-117087500D01*
X78551625Y-117054419D01*
X78556485Y-117021657D01*
X78564533Y-116989529D01*
X78575691Y-116958344D01*
X78589852Y-116928404D01*
X78606879Y-116899995D01*
X78626609Y-116873392D01*
X78648851Y-116848851D01*
X78673392Y-116826609D01*
X78699995Y-116806879D01*
X78728404Y-116789852D01*
X78758344Y-116775691D01*
X78789529Y-116764533D01*
X78821657Y-116756485D01*
X78854419Y-116751625D01*
X78887500Y-116750000D01*
X79562500Y-116750000D01*
X79595581Y-116751625D01*
X79595581Y-116751625D01*
G37*
D18*
X79225000Y-117500000D03*
D17*
G36*
X77645581Y-116751625D02*
G01*
X77678343Y-116756485D01*
X77710471Y-116764533D01*
X77741656Y-116775691D01*
X77771596Y-116789852D01*
X77800005Y-116806879D01*
X77826608Y-116826609D01*
X77851149Y-116848851D01*
X77873391Y-116873392D01*
X77893121Y-116899995D01*
X77910148Y-116928404D01*
X77924309Y-116958344D01*
X77935467Y-116989529D01*
X77943515Y-117021657D01*
X77948375Y-117054419D01*
X77950000Y-117087500D01*
X77950000Y-117912500D01*
X77948375Y-117945581D01*
X77943515Y-117978343D01*
X77935467Y-118010471D01*
X77924309Y-118041656D01*
X77910148Y-118071596D01*
X77893121Y-118100005D01*
X77873391Y-118126608D01*
X77851149Y-118151149D01*
X77826608Y-118173391D01*
X77800005Y-118193121D01*
X77771596Y-118210148D01*
X77741656Y-118224309D01*
X77710471Y-118235467D01*
X77678343Y-118243515D01*
X77645581Y-118248375D01*
X77612500Y-118250000D01*
X76937500Y-118250000D01*
X76904419Y-118248375D01*
X76871657Y-118243515D01*
X76839529Y-118235467D01*
X76808344Y-118224309D01*
X76778404Y-118210148D01*
X76749995Y-118193121D01*
X76723392Y-118173391D01*
X76698851Y-118151149D01*
X76676609Y-118126608D01*
X76656879Y-118100005D01*
X76639852Y-118071596D01*
X76625691Y-118041656D01*
X76614533Y-118010471D01*
X76606485Y-117978343D01*
X76601625Y-117945581D01*
X76600000Y-117912500D01*
X76600000Y-117087500D01*
X76601625Y-117054419D01*
X76606485Y-117021657D01*
X76614533Y-116989529D01*
X76625691Y-116958344D01*
X76639852Y-116928404D01*
X76656879Y-116899995D01*
X76676609Y-116873392D01*
X76698851Y-116848851D01*
X76723392Y-116826609D01*
X76749995Y-116806879D01*
X76778404Y-116789852D01*
X76808344Y-116775691D01*
X76839529Y-116764533D01*
X76871657Y-116756485D01*
X76904419Y-116751625D01*
X76937500Y-116750000D01*
X77612500Y-116750000D01*
X77645581Y-116751625D01*
X77645581Y-116751625D01*
G37*
D18*
X77275000Y-117500000D03*
%TD*%
D17*
%TO.C,D24*%
G36*
X82695581Y-125851625D02*
G01*
X82728343Y-125856485D01*
X82760471Y-125864533D01*
X82791656Y-125875691D01*
X82821596Y-125889852D01*
X82850005Y-125906879D01*
X82876608Y-125926609D01*
X82901149Y-125948851D01*
X82923391Y-125973392D01*
X82943121Y-125999995D01*
X82960148Y-126028404D01*
X82974309Y-126058344D01*
X82985467Y-126089529D01*
X82993515Y-126121657D01*
X82998375Y-126154419D01*
X83000000Y-126187500D01*
X83000000Y-126862500D01*
X82998375Y-126895581D01*
X82993515Y-126928343D01*
X82985467Y-126960471D01*
X82974309Y-126991656D01*
X82960148Y-127021596D01*
X82943121Y-127050005D01*
X82923391Y-127076608D01*
X82901149Y-127101149D01*
X82876608Y-127123391D01*
X82850005Y-127143121D01*
X82821596Y-127160148D01*
X82791656Y-127174309D01*
X82760471Y-127185467D01*
X82728343Y-127193515D01*
X82695581Y-127198375D01*
X82662500Y-127200000D01*
X81837500Y-127200000D01*
X81804419Y-127198375D01*
X81771657Y-127193515D01*
X81739529Y-127185467D01*
X81708344Y-127174309D01*
X81678404Y-127160148D01*
X81649995Y-127143121D01*
X81623392Y-127123391D01*
X81598851Y-127101149D01*
X81576609Y-127076608D01*
X81556879Y-127050005D01*
X81539852Y-127021596D01*
X81525691Y-126991656D01*
X81514533Y-126960471D01*
X81506485Y-126928343D01*
X81501625Y-126895581D01*
X81500000Y-126862500D01*
X81500000Y-126187500D01*
X81501625Y-126154419D01*
X81506485Y-126121657D01*
X81514533Y-126089529D01*
X81525691Y-126058344D01*
X81539852Y-126028404D01*
X81556879Y-125999995D01*
X81576609Y-125973392D01*
X81598851Y-125948851D01*
X81623392Y-125926609D01*
X81649995Y-125906879D01*
X81678404Y-125889852D01*
X81708344Y-125875691D01*
X81739529Y-125864533D01*
X81771657Y-125856485D01*
X81804419Y-125851625D01*
X81837500Y-125850000D01*
X82662500Y-125850000D01*
X82695581Y-125851625D01*
X82695581Y-125851625D01*
G37*
D18*
X82250000Y-126525000D03*
D17*
G36*
X82695581Y-127801625D02*
G01*
X82728343Y-127806485D01*
X82760471Y-127814533D01*
X82791656Y-127825691D01*
X82821596Y-127839852D01*
X82850005Y-127856879D01*
X82876608Y-127876609D01*
X82901149Y-127898851D01*
X82923391Y-127923392D01*
X82943121Y-127949995D01*
X82960148Y-127978404D01*
X82974309Y-128008344D01*
X82985467Y-128039529D01*
X82993515Y-128071657D01*
X82998375Y-128104419D01*
X83000000Y-128137500D01*
X83000000Y-128812500D01*
X82998375Y-128845581D01*
X82993515Y-128878343D01*
X82985467Y-128910471D01*
X82974309Y-128941656D01*
X82960148Y-128971596D01*
X82943121Y-129000005D01*
X82923391Y-129026608D01*
X82901149Y-129051149D01*
X82876608Y-129073391D01*
X82850005Y-129093121D01*
X82821596Y-129110148D01*
X82791656Y-129124309D01*
X82760471Y-129135467D01*
X82728343Y-129143515D01*
X82695581Y-129148375D01*
X82662500Y-129150000D01*
X81837500Y-129150000D01*
X81804419Y-129148375D01*
X81771657Y-129143515D01*
X81739529Y-129135467D01*
X81708344Y-129124309D01*
X81678404Y-129110148D01*
X81649995Y-129093121D01*
X81623392Y-129073391D01*
X81598851Y-129051149D01*
X81576609Y-129026608D01*
X81556879Y-129000005D01*
X81539852Y-128971596D01*
X81525691Y-128941656D01*
X81514533Y-128910471D01*
X81506485Y-128878343D01*
X81501625Y-128845581D01*
X81500000Y-128812500D01*
X81500000Y-128137500D01*
X81501625Y-128104419D01*
X81506485Y-128071657D01*
X81514533Y-128039529D01*
X81525691Y-128008344D01*
X81539852Y-127978404D01*
X81556879Y-127949995D01*
X81576609Y-127923392D01*
X81598851Y-127898851D01*
X81623392Y-127876609D01*
X81649995Y-127856879D01*
X81678404Y-127839852D01*
X81708344Y-127825691D01*
X81739529Y-127814533D01*
X81771657Y-127806485D01*
X81804419Y-127801625D01*
X81837500Y-127800000D01*
X82662500Y-127800000D01*
X82695581Y-127801625D01*
X82695581Y-127801625D01*
G37*
D18*
X82250000Y-128475000D03*
%TD*%
D17*
%TO.C,D23*%
G36*
X103095581Y-116751625D02*
G01*
X103128343Y-116756485D01*
X103160471Y-116764533D01*
X103191656Y-116775691D01*
X103221596Y-116789852D01*
X103250005Y-116806879D01*
X103276608Y-116826609D01*
X103301149Y-116848851D01*
X103323391Y-116873392D01*
X103343121Y-116899995D01*
X103360148Y-116928404D01*
X103374309Y-116958344D01*
X103385467Y-116989529D01*
X103393515Y-117021657D01*
X103398375Y-117054419D01*
X103400000Y-117087500D01*
X103400000Y-117912500D01*
X103398375Y-117945581D01*
X103393515Y-117978343D01*
X103385467Y-118010471D01*
X103374309Y-118041656D01*
X103360148Y-118071596D01*
X103343121Y-118100005D01*
X103323391Y-118126608D01*
X103301149Y-118151149D01*
X103276608Y-118173391D01*
X103250005Y-118193121D01*
X103221596Y-118210148D01*
X103191656Y-118224309D01*
X103160471Y-118235467D01*
X103128343Y-118243515D01*
X103095581Y-118248375D01*
X103062500Y-118250000D01*
X102387500Y-118250000D01*
X102354419Y-118248375D01*
X102321657Y-118243515D01*
X102289529Y-118235467D01*
X102258344Y-118224309D01*
X102228404Y-118210148D01*
X102199995Y-118193121D01*
X102173392Y-118173391D01*
X102148851Y-118151149D01*
X102126609Y-118126608D01*
X102106879Y-118100005D01*
X102089852Y-118071596D01*
X102075691Y-118041656D01*
X102064533Y-118010471D01*
X102056485Y-117978343D01*
X102051625Y-117945581D01*
X102050000Y-117912500D01*
X102050000Y-117087500D01*
X102051625Y-117054419D01*
X102056485Y-117021657D01*
X102064533Y-116989529D01*
X102075691Y-116958344D01*
X102089852Y-116928404D01*
X102106879Y-116899995D01*
X102126609Y-116873392D01*
X102148851Y-116848851D01*
X102173392Y-116826609D01*
X102199995Y-116806879D01*
X102228404Y-116789852D01*
X102258344Y-116775691D01*
X102289529Y-116764533D01*
X102321657Y-116756485D01*
X102354419Y-116751625D01*
X102387500Y-116750000D01*
X103062500Y-116750000D01*
X103095581Y-116751625D01*
X103095581Y-116751625D01*
G37*
D18*
X102725000Y-117500000D03*
D17*
G36*
X101145581Y-116751625D02*
G01*
X101178343Y-116756485D01*
X101210471Y-116764533D01*
X101241656Y-116775691D01*
X101271596Y-116789852D01*
X101300005Y-116806879D01*
X101326608Y-116826609D01*
X101351149Y-116848851D01*
X101373391Y-116873392D01*
X101393121Y-116899995D01*
X101410148Y-116928404D01*
X101424309Y-116958344D01*
X101435467Y-116989529D01*
X101443515Y-117021657D01*
X101448375Y-117054419D01*
X101450000Y-117087500D01*
X101450000Y-117912500D01*
X101448375Y-117945581D01*
X101443515Y-117978343D01*
X101435467Y-118010471D01*
X101424309Y-118041656D01*
X101410148Y-118071596D01*
X101393121Y-118100005D01*
X101373391Y-118126608D01*
X101351149Y-118151149D01*
X101326608Y-118173391D01*
X101300005Y-118193121D01*
X101271596Y-118210148D01*
X101241656Y-118224309D01*
X101210471Y-118235467D01*
X101178343Y-118243515D01*
X101145581Y-118248375D01*
X101112500Y-118250000D01*
X100437500Y-118250000D01*
X100404419Y-118248375D01*
X100371657Y-118243515D01*
X100339529Y-118235467D01*
X100308344Y-118224309D01*
X100278404Y-118210148D01*
X100249995Y-118193121D01*
X100223392Y-118173391D01*
X100198851Y-118151149D01*
X100176609Y-118126608D01*
X100156879Y-118100005D01*
X100139852Y-118071596D01*
X100125691Y-118041656D01*
X100114533Y-118010471D01*
X100106485Y-117978343D01*
X100101625Y-117945581D01*
X100100000Y-117912500D01*
X100100000Y-117087500D01*
X100101625Y-117054419D01*
X100106485Y-117021657D01*
X100114533Y-116989529D01*
X100125691Y-116958344D01*
X100139852Y-116928404D01*
X100156879Y-116899995D01*
X100176609Y-116873392D01*
X100198851Y-116848851D01*
X100223392Y-116826609D01*
X100249995Y-116806879D01*
X100278404Y-116789852D01*
X100308344Y-116775691D01*
X100339529Y-116764533D01*
X100371657Y-116756485D01*
X100404419Y-116751625D01*
X100437500Y-116750000D01*
X101112500Y-116750000D01*
X101145581Y-116751625D01*
X101145581Y-116751625D01*
G37*
D18*
X100775000Y-117500000D03*
%TD*%
D17*
%TO.C,D22*%
G36*
X77645581Y-122751625D02*
G01*
X77678343Y-122756485D01*
X77710471Y-122764533D01*
X77741656Y-122775691D01*
X77771596Y-122789852D01*
X77800005Y-122806879D01*
X77826608Y-122826609D01*
X77851149Y-122848851D01*
X77873391Y-122873392D01*
X77893121Y-122899995D01*
X77910148Y-122928404D01*
X77924309Y-122958344D01*
X77935467Y-122989529D01*
X77943515Y-123021657D01*
X77948375Y-123054419D01*
X77950000Y-123087500D01*
X77950000Y-123912500D01*
X77948375Y-123945581D01*
X77943515Y-123978343D01*
X77935467Y-124010471D01*
X77924309Y-124041656D01*
X77910148Y-124071596D01*
X77893121Y-124100005D01*
X77873391Y-124126608D01*
X77851149Y-124151149D01*
X77826608Y-124173391D01*
X77800005Y-124193121D01*
X77771596Y-124210148D01*
X77741656Y-124224309D01*
X77710471Y-124235467D01*
X77678343Y-124243515D01*
X77645581Y-124248375D01*
X77612500Y-124250000D01*
X76937500Y-124250000D01*
X76904419Y-124248375D01*
X76871657Y-124243515D01*
X76839529Y-124235467D01*
X76808344Y-124224309D01*
X76778404Y-124210148D01*
X76749995Y-124193121D01*
X76723392Y-124173391D01*
X76698851Y-124151149D01*
X76676609Y-124126608D01*
X76656879Y-124100005D01*
X76639852Y-124071596D01*
X76625691Y-124041656D01*
X76614533Y-124010471D01*
X76606485Y-123978343D01*
X76601625Y-123945581D01*
X76600000Y-123912500D01*
X76600000Y-123087500D01*
X76601625Y-123054419D01*
X76606485Y-123021657D01*
X76614533Y-122989529D01*
X76625691Y-122958344D01*
X76639852Y-122928404D01*
X76656879Y-122899995D01*
X76676609Y-122873392D01*
X76698851Y-122848851D01*
X76723392Y-122826609D01*
X76749995Y-122806879D01*
X76778404Y-122789852D01*
X76808344Y-122775691D01*
X76839529Y-122764533D01*
X76871657Y-122756485D01*
X76904419Y-122751625D01*
X76937500Y-122750000D01*
X77612500Y-122750000D01*
X77645581Y-122751625D01*
X77645581Y-122751625D01*
G37*
D18*
X77275000Y-123500000D03*
D17*
G36*
X79595581Y-122751625D02*
G01*
X79628343Y-122756485D01*
X79660471Y-122764533D01*
X79691656Y-122775691D01*
X79721596Y-122789852D01*
X79750005Y-122806879D01*
X79776608Y-122826609D01*
X79801149Y-122848851D01*
X79823391Y-122873392D01*
X79843121Y-122899995D01*
X79860148Y-122928404D01*
X79874309Y-122958344D01*
X79885467Y-122989529D01*
X79893515Y-123021657D01*
X79898375Y-123054419D01*
X79900000Y-123087500D01*
X79900000Y-123912500D01*
X79898375Y-123945581D01*
X79893515Y-123978343D01*
X79885467Y-124010471D01*
X79874309Y-124041656D01*
X79860148Y-124071596D01*
X79843121Y-124100005D01*
X79823391Y-124126608D01*
X79801149Y-124151149D01*
X79776608Y-124173391D01*
X79750005Y-124193121D01*
X79721596Y-124210148D01*
X79691656Y-124224309D01*
X79660471Y-124235467D01*
X79628343Y-124243515D01*
X79595581Y-124248375D01*
X79562500Y-124250000D01*
X78887500Y-124250000D01*
X78854419Y-124248375D01*
X78821657Y-124243515D01*
X78789529Y-124235467D01*
X78758344Y-124224309D01*
X78728404Y-124210148D01*
X78699995Y-124193121D01*
X78673392Y-124173391D01*
X78648851Y-124151149D01*
X78626609Y-124126608D01*
X78606879Y-124100005D01*
X78589852Y-124071596D01*
X78575691Y-124041656D01*
X78564533Y-124010471D01*
X78556485Y-123978343D01*
X78551625Y-123945581D01*
X78550000Y-123912500D01*
X78550000Y-123087500D01*
X78551625Y-123054419D01*
X78556485Y-123021657D01*
X78564533Y-122989529D01*
X78575691Y-122958344D01*
X78589852Y-122928404D01*
X78606879Y-122899995D01*
X78626609Y-122873392D01*
X78648851Y-122848851D01*
X78673392Y-122826609D01*
X78699995Y-122806879D01*
X78728404Y-122789852D01*
X78758344Y-122775691D01*
X78789529Y-122764533D01*
X78821657Y-122756485D01*
X78854419Y-122751625D01*
X78887500Y-122750000D01*
X79562500Y-122750000D01*
X79595581Y-122751625D01*
X79595581Y-122751625D01*
G37*
D18*
X79225000Y-123500000D03*
%TD*%
D17*
%TO.C,D21*%
G36*
X91345581Y-116751625D02*
G01*
X91378343Y-116756485D01*
X91410471Y-116764533D01*
X91441656Y-116775691D01*
X91471596Y-116789852D01*
X91500005Y-116806879D01*
X91526608Y-116826609D01*
X91551149Y-116848851D01*
X91573391Y-116873392D01*
X91593121Y-116899995D01*
X91610148Y-116928404D01*
X91624309Y-116958344D01*
X91635467Y-116989529D01*
X91643515Y-117021657D01*
X91648375Y-117054419D01*
X91650000Y-117087500D01*
X91650000Y-117912500D01*
X91648375Y-117945581D01*
X91643515Y-117978343D01*
X91635467Y-118010471D01*
X91624309Y-118041656D01*
X91610148Y-118071596D01*
X91593121Y-118100005D01*
X91573391Y-118126608D01*
X91551149Y-118151149D01*
X91526608Y-118173391D01*
X91500005Y-118193121D01*
X91471596Y-118210148D01*
X91441656Y-118224309D01*
X91410471Y-118235467D01*
X91378343Y-118243515D01*
X91345581Y-118248375D01*
X91312500Y-118250000D01*
X90637500Y-118250000D01*
X90604419Y-118248375D01*
X90571657Y-118243515D01*
X90539529Y-118235467D01*
X90508344Y-118224309D01*
X90478404Y-118210148D01*
X90449995Y-118193121D01*
X90423392Y-118173391D01*
X90398851Y-118151149D01*
X90376609Y-118126608D01*
X90356879Y-118100005D01*
X90339852Y-118071596D01*
X90325691Y-118041656D01*
X90314533Y-118010471D01*
X90306485Y-117978343D01*
X90301625Y-117945581D01*
X90300000Y-117912500D01*
X90300000Y-117087500D01*
X90301625Y-117054419D01*
X90306485Y-117021657D01*
X90314533Y-116989529D01*
X90325691Y-116958344D01*
X90339852Y-116928404D01*
X90356879Y-116899995D01*
X90376609Y-116873392D01*
X90398851Y-116848851D01*
X90423392Y-116826609D01*
X90449995Y-116806879D01*
X90478404Y-116789852D01*
X90508344Y-116775691D01*
X90539529Y-116764533D01*
X90571657Y-116756485D01*
X90604419Y-116751625D01*
X90637500Y-116750000D01*
X91312500Y-116750000D01*
X91345581Y-116751625D01*
X91345581Y-116751625D01*
G37*
D18*
X90975000Y-117500000D03*
D17*
G36*
X89395581Y-116751625D02*
G01*
X89428343Y-116756485D01*
X89460471Y-116764533D01*
X89491656Y-116775691D01*
X89521596Y-116789852D01*
X89550005Y-116806879D01*
X89576608Y-116826609D01*
X89601149Y-116848851D01*
X89623391Y-116873392D01*
X89643121Y-116899995D01*
X89660148Y-116928404D01*
X89674309Y-116958344D01*
X89685467Y-116989529D01*
X89693515Y-117021657D01*
X89698375Y-117054419D01*
X89700000Y-117087500D01*
X89700000Y-117912500D01*
X89698375Y-117945581D01*
X89693515Y-117978343D01*
X89685467Y-118010471D01*
X89674309Y-118041656D01*
X89660148Y-118071596D01*
X89643121Y-118100005D01*
X89623391Y-118126608D01*
X89601149Y-118151149D01*
X89576608Y-118173391D01*
X89550005Y-118193121D01*
X89521596Y-118210148D01*
X89491656Y-118224309D01*
X89460471Y-118235467D01*
X89428343Y-118243515D01*
X89395581Y-118248375D01*
X89362500Y-118250000D01*
X88687500Y-118250000D01*
X88654419Y-118248375D01*
X88621657Y-118243515D01*
X88589529Y-118235467D01*
X88558344Y-118224309D01*
X88528404Y-118210148D01*
X88499995Y-118193121D01*
X88473392Y-118173391D01*
X88448851Y-118151149D01*
X88426609Y-118126608D01*
X88406879Y-118100005D01*
X88389852Y-118071596D01*
X88375691Y-118041656D01*
X88364533Y-118010471D01*
X88356485Y-117978343D01*
X88351625Y-117945581D01*
X88350000Y-117912500D01*
X88350000Y-117087500D01*
X88351625Y-117054419D01*
X88356485Y-117021657D01*
X88364533Y-116989529D01*
X88375691Y-116958344D01*
X88389852Y-116928404D01*
X88406879Y-116899995D01*
X88426609Y-116873392D01*
X88448851Y-116848851D01*
X88473392Y-116826609D01*
X88499995Y-116806879D01*
X88528404Y-116789852D01*
X88558344Y-116775691D01*
X88589529Y-116764533D01*
X88621657Y-116756485D01*
X88654419Y-116751625D01*
X88687500Y-116750000D01*
X89362500Y-116750000D01*
X89395581Y-116751625D01*
X89395581Y-116751625D01*
G37*
D18*
X89025000Y-117500000D03*
%TD*%
D17*
%TO.C,D20*%
G36*
X91345581Y-138751625D02*
G01*
X91378343Y-138756485D01*
X91410471Y-138764533D01*
X91441656Y-138775691D01*
X91471596Y-138789852D01*
X91500005Y-138806879D01*
X91526608Y-138826609D01*
X91551149Y-138848851D01*
X91573391Y-138873392D01*
X91593121Y-138899995D01*
X91610148Y-138928404D01*
X91624309Y-138958344D01*
X91635467Y-138989529D01*
X91643515Y-139021657D01*
X91648375Y-139054419D01*
X91650000Y-139087500D01*
X91650000Y-139912500D01*
X91648375Y-139945581D01*
X91643515Y-139978343D01*
X91635467Y-140010471D01*
X91624309Y-140041656D01*
X91610148Y-140071596D01*
X91593121Y-140100005D01*
X91573391Y-140126608D01*
X91551149Y-140151149D01*
X91526608Y-140173391D01*
X91500005Y-140193121D01*
X91471596Y-140210148D01*
X91441656Y-140224309D01*
X91410471Y-140235467D01*
X91378343Y-140243515D01*
X91345581Y-140248375D01*
X91312500Y-140250000D01*
X90637500Y-140250000D01*
X90604419Y-140248375D01*
X90571657Y-140243515D01*
X90539529Y-140235467D01*
X90508344Y-140224309D01*
X90478404Y-140210148D01*
X90449995Y-140193121D01*
X90423392Y-140173391D01*
X90398851Y-140151149D01*
X90376609Y-140126608D01*
X90356879Y-140100005D01*
X90339852Y-140071596D01*
X90325691Y-140041656D01*
X90314533Y-140010471D01*
X90306485Y-139978343D01*
X90301625Y-139945581D01*
X90300000Y-139912500D01*
X90300000Y-139087500D01*
X90301625Y-139054419D01*
X90306485Y-139021657D01*
X90314533Y-138989529D01*
X90325691Y-138958344D01*
X90339852Y-138928404D01*
X90356879Y-138899995D01*
X90376609Y-138873392D01*
X90398851Y-138848851D01*
X90423392Y-138826609D01*
X90449995Y-138806879D01*
X90478404Y-138789852D01*
X90508344Y-138775691D01*
X90539529Y-138764533D01*
X90571657Y-138756485D01*
X90604419Y-138751625D01*
X90637500Y-138750000D01*
X91312500Y-138750000D01*
X91345581Y-138751625D01*
X91345581Y-138751625D01*
G37*
D18*
X90975000Y-139500000D03*
D17*
G36*
X89395581Y-138751625D02*
G01*
X89428343Y-138756485D01*
X89460471Y-138764533D01*
X89491656Y-138775691D01*
X89521596Y-138789852D01*
X89550005Y-138806879D01*
X89576608Y-138826609D01*
X89601149Y-138848851D01*
X89623391Y-138873392D01*
X89643121Y-138899995D01*
X89660148Y-138928404D01*
X89674309Y-138958344D01*
X89685467Y-138989529D01*
X89693515Y-139021657D01*
X89698375Y-139054419D01*
X89700000Y-139087500D01*
X89700000Y-139912500D01*
X89698375Y-139945581D01*
X89693515Y-139978343D01*
X89685467Y-140010471D01*
X89674309Y-140041656D01*
X89660148Y-140071596D01*
X89643121Y-140100005D01*
X89623391Y-140126608D01*
X89601149Y-140151149D01*
X89576608Y-140173391D01*
X89550005Y-140193121D01*
X89521596Y-140210148D01*
X89491656Y-140224309D01*
X89460471Y-140235467D01*
X89428343Y-140243515D01*
X89395581Y-140248375D01*
X89362500Y-140250000D01*
X88687500Y-140250000D01*
X88654419Y-140248375D01*
X88621657Y-140243515D01*
X88589529Y-140235467D01*
X88558344Y-140224309D01*
X88528404Y-140210148D01*
X88499995Y-140193121D01*
X88473392Y-140173391D01*
X88448851Y-140151149D01*
X88426609Y-140126608D01*
X88406879Y-140100005D01*
X88389852Y-140071596D01*
X88375691Y-140041656D01*
X88364533Y-140010471D01*
X88356485Y-139978343D01*
X88351625Y-139945581D01*
X88350000Y-139912500D01*
X88350000Y-139087500D01*
X88351625Y-139054419D01*
X88356485Y-139021657D01*
X88364533Y-138989529D01*
X88375691Y-138958344D01*
X88389852Y-138928404D01*
X88406879Y-138899995D01*
X88426609Y-138873392D01*
X88448851Y-138848851D01*
X88473392Y-138826609D01*
X88499995Y-138806879D01*
X88528404Y-138789852D01*
X88558344Y-138775691D01*
X88589529Y-138764533D01*
X88621657Y-138756485D01*
X88654419Y-138751625D01*
X88687500Y-138750000D01*
X89362500Y-138750000D01*
X89395581Y-138751625D01*
X89395581Y-138751625D01*
G37*
D18*
X89025000Y-139500000D03*
%TD*%
D17*
%TO.C,D19*%
G36*
X86445581Y-133851625D02*
G01*
X86478343Y-133856485D01*
X86510471Y-133864533D01*
X86541656Y-133875691D01*
X86571596Y-133889852D01*
X86600005Y-133906879D01*
X86626608Y-133926609D01*
X86651149Y-133948851D01*
X86673391Y-133973392D01*
X86693121Y-133999995D01*
X86710148Y-134028404D01*
X86724309Y-134058344D01*
X86735467Y-134089529D01*
X86743515Y-134121657D01*
X86748375Y-134154419D01*
X86750000Y-134187500D01*
X86750000Y-134862500D01*
X86748375Y-134895581D01*
X86743515Y-134928343D01*
X86735467Y-134960471D01*
X86724309Y-134991656D01*
X86710148Y-135021596D01*
X86693121Y-135050005D01*
X86673391Y-135076608D01*
X86651149Y-135101149D01*
X86626608Y-135123391D01*
X86600005Y-135143121D01*
X86571596Y-135160148D01*
X86541656Y-135174309D01*
X86510471Y-135185467D01*
X86478343Y-135193515D01*
X86445581Y-135198375D01*
X86412500Y-135200000D01*
X85587500Y-135200000D01*
X85554419Y-135198375D01*
X85521657Y-135193515D01*
X85489529Y-135185467D01*
X85458344Y-135174309D01*
X85428404Y-135160148D01*
X85399995Y-135143121D01*
X85373392Y-135123391D01*
X85348851Y-135101149D01*
X85326609Y-135076608D01*
X85306879Y-135050005D01*
X85289852Y-135021596D01*
X85275691Y-134991656D01*
X85264533Y-134960471D01*
X85256485Y-134928343D01*
X85251625Y-134895581D01*
X85250000Y-134862500D01*
X85250000Y-134187500D01*
X85251625Y-134154419D01*
X85256485Y-134121657D01*
X85264533Y-134089529D01*
X85275691Y-134058344D01*
X85289852Y-134028404D01*
X85306879Y-133999995D01*
X85326609Y-133973392D01*
X85348851Y-133948851D01*
X85373392Y-133926609D01*
X85399995Y-133906879D01*
X85428404Y-133889852D01*
X85458344Y-133875691D01*
X85489529Y-133864533D01*
X85521657Y-133856485D01*
X85554419Y-133851625D01*
X85587500Y-133850000D01*
X86412500Y-133850000D01*
X86445581Y-133851625D01*
X86445581Y-133851625D01*
G37*
D18*
X86000000Y-134525000D03*
D17*
G36*
X86445581Y-135801625D02*
G01*
X86478343Y-135806485D01*
X86510471Y-135814533D01*
X86541656Y-135825691D01*
X86571596Y-135839852D01*
X86600005Y-135856879D01*
X86626608Y-135876609D01*
X86651149Y-135898851D01*
X86673391Y-135923392D01*
X86693121Y-135949995D01*
X86710148Y-135978404D01*
X86724309Y-136008344D01*
X86735467Y-136039529D01*
X86743515Y-136071657D01*
X86748375Y-136104419D01*
X86750000Y-136137500D01*
X86750000Y-136812500D01*
X86748375Y-136845581D01*
X86743515Y-136878343D01*
X86735467Y-136910471D01*
X86724309Y-136941656D01*
X86710148Y-136971596D01*
X86693121Y-137000005D01*
X86673391Y-137026608D01*
X86651149Y-137051149D01*
X86626608Y-137073391D01*
X86600005Y-137093121D01*
X86571596Y-137110148D01*
X86541656Y-137124309D01*
X86510471Y-137135467D01*
X86478343Y-137143515D01*
X86445581Y-137148375D01*
X86412500Y-137150000D01*
X85587500Y-137150000D01*
X85554419Y-137148375D01*
X85521657Y-137143515D01*
X85489529Y-137135467D01*
X85458344Y-137124309D01*
X85428404Y-137110148D01*
X85399995Y-137093121D01*
X85373392Y-137073391D01*
X85348851Y-137051149D01*
X85326609Y-137026608D01*
X85306879Y-137000005D01*
X85289852Y-136971596D01*
X85275691Y-136941656D01*
X85264533Y-136910471D01*
X85256485Y-136878343D01*
X85251625Y-136845581D01*
X85250000Y-136812500D01*
X85250000Y-136137500D01*
X85251625Y-136104419D01*
X85256485Y-136071657D01*
X85264533Y-136039529D01*
X85275691Y-136008344D01*
X85289852Y-135978404D01*
X85306879Y-135949995D01*
X85326609Y-135923392D01*
X85348851Y-135898851D01*
X85373392Y-135876609D01*
X85399995Y-135856879D01*
X85428404Y-135839852D01*
X85458344Y-135825691D01*
X85489529Y-135814533D01*
X85521657Y-135806485D01*
X85554419Y-135801625D01*
X85587500Y-135800000D01*
X86412500Y-135800000D01*
X86445581Y-135801625D01*
X86445581Y-135801625D01*
G37*
D18*
X86000000Y-136475000D03*
%TD*%
D17*
%TO.C,D18*%
G36*
X94445581Y-135801625D02*
G01*
X94478343Y-135806485D01*
X94510471Y-135814533D01*
X94541656Y-135825691D01*
X94571596Y-135839852D01*
X94600005Y-135856879D01*
X94626608Y-135876609D01*
X94651149Y-135898851D01*
X94673391Y-135923392D01*
X94693121Y-135949995D01*
X94710148Y-135978404D01*
X94724309Y-136008344D01*
X94735467Y-136039529D01*
X94743515Y-136071657D01*
X94748375Y-136104419D01*
X94750000Y-136137500D01*
X94750000Y-136812500D01*
X94748375Y-136845581D01*
X94743515Y-136878343D01*
X94735467Y-136910471D01*
X94724309Y-136941656D01*
X94710148Y-136971596D01*
X94693121Y-137000005D01*
X94673391Y-137026608D01*
X94651149Y-137051149D01*
X94626608Y-137073391D01*
X94600005Y-137093121D01*
X94571596Y-137110148D01*
X94541656Y-137124309D01*
X94510471Y-137135467D01*
X94478343Y-137143515D01*
X94445581Y-137148375D01*
X94412500Y-137150000D01*
X93587500Y-137150000D01*
X93554419Y-137148375D01*
X93521657Y-137143515D01*
X93489529Y-137135467D01*
X93458344Y-137124309D01*
X93428404Y-137110148D01*
X93399995Y-137093121D01*
X93373392Y-137073391D01*
X93348851Y-137051149D01*
X93326609Y-137026608D01*
X93306879Y-137000005D01*
X93289852Y-136971596D01*
X93275691Y-136941656D01*
X93264533Y-136910471D01*
X93256485Y-136878343D01*
X93251625Y-136845581D01*
X93250000Y-136812500D01*
X93250000Y-136137500D01*
X93251625Y-136104419D01*
X93256485Y-136071657D01*
X93264533Y-136039529D01*
X93275691Y-136008344D01*
X93289852Y-135978404D01*
X93306879Y-135949995D01*
X93326609Y-135923392D01*
X93348851Y-135898851D01*
X93373392Y-135876609D01*
X93399995Y-135856879D01*
X93428404Y-135839852D01*
X93458344Y-135825691D01*
X93489529Y-135814533D01*
X93521657Y-135806485D01*
X93554419Y-135801625D01*
X93587500Y-135800000D01*
X94412500Y-135800000D01*
X94445581Y-135801625D01*
X94445581Y-135801625D01*
G37*
D18*
X94000000Y-136475000D03*
D17*
G36*
X94445581Y-133851625D02*
G01*
X94478343Y-133856485D01*
X94510471Y-133864533D01*
X94541656Y-133875691D01*
X94571596Y-133889852D01*
X94600005Y-133906879D01*
X94626608Y-133926609D01*
X94651149Y-133948851D01*
X94673391Y-133973392D01*
X94693121Y-133999995D01*
X94710148Y-134028404D01*
X94724309Y-134058344D01*
X94735467Y-134089529D01*
X94743515Y-134121657D01*
X94748375Y-134154419D01*
X94750000Y-134187500D01*
X94750000Y-134862500D01*
X94748375Y-134895581D01*
X94743515Y-134928343D01*
X94735467Y-134960471D01*
X94724309Y-134991656D01*
X94710148Y-135021596D01*
X94693121Y-135050005D01*
X94673391Y-135076608D01*
X94651149Y-135101149D01*
X94626608Y-135123391D01*
X94600005Y-135143121D01*
X94571596Y-135160148D01*
X94541656Y-135174309D01*
X94510471Y-135185467D01*
X94478343Y-135193515D01*
X94445581Y-135198375D01*
X94412500Y-135200000D01*
X93587500Y-135200000D01*
X93554419Y-135198375D01*
X93521657Y-135193515D01*
X93489529Y-135185467D01*
X93458344Y-135174309D01*
X93428404Y-135160148D01*
X93399995Y-135143121D01*
X93373392Y-135123391D01*
X93348851Y-135101149D01*
X93326609Y-135076608D01*
X93306879Y-135050005D01*
X93289852Y-135021596D01*
X93275691Y-134991656D01*
X93264533Y-134960471D01*
X93256485Y-134928343D01*
X93251625Y-134895581D01*
X93250000Y-134862500D01*
X93250000Y-134187500D01*
X93251625Y-134154419D01*
X93256485Y-134121657D01*
X93264533Y-134089529D01*
X93275691Y-134058344D01*
X93289852Y-134028404D01*
X93306879Y-133999995D01*
X93326609Y-133973392D01*
X93348851Y-133948851D01*
X93373392Y-133926609D01*
X93399995Y-133906879D01*
X93428404Y-133889852D01*
X93458344Y-133875691D01*
X93489529Y-133864533D01*
X93521657Y-133856485D01*
X93554419Y-133851625D01*
X93587500Y-133850000D01*
X94412500Y-133850000D01*
X94445581Y-133851625D01*
X94445581Y-133851625D01*
G37*
D18*
X94000000Y-134525000D03*
%TD*%
D17*
%TO.C,D17*%
G36*
X89395581Y-130751625D02*
G01*
X89428343Y-130756485D01*
X89460471Y-130764533D01*
X89491656Y-130775691D01*
X89521596Y-130789852D01*
X89550005Y-130806879D01*
X89576608Y-130826609D01*
X89601149Y-130848851D01*
X89623391Y-130873392D01*
X89643121Y-130899995D01*
X89660148Y-130928404D01*
X89674309Y-130958344D01*
X89685467Y-130989529D01*
X89693515Y-131021657D01*
X89698375Y-131054419D01*
X89700000Y-131087500D01*
X89700000Y-131912500D01*
X89698375Y-131945581D01*
X89693515Y-131978343D01*
X89685467Y-132010471D01*
X89674309Y-132041656D01*
X89660148Y-132071596D01*
X89643121Y-132100005D01*
X89623391Y-132126608D01*
X89601149Y-132151149D01*
X89576608Y-132173391D01*
X89550005Y-132193121D01*
X89521596Y-132210148D01*
X89491656Y-132224309D01*
X89460471Y-132235467D01*
X89428343Y-132243515D01*
X89395581Y-132248375D01*
X89362500Y-132250000D01*
X88687500Y-132250000D01*
X88654419Y-132248375D01*
X88621657Y-132243515D01*
X88589529Y-132235467D01*
X88558344Y-132224309D01*
X88528404Y-132210148D01*
X88499995Y-132193121D01*
X88473392Y-132173391D01*
X88448851Y-132151149D01*
X88426609Y-132126608D01*
X88406879Y-132100005D01*
X88389852Y-132071596D01*
X88375691Y-132041656D01*
X88364533Y-132010471D01*
X88356485Y-131978343D01*
X88351625Y-131945581D01*
X88350000Y-131912500D01*
X88350000Y-131087500D01*
X88351625Y-131054419D01*
X88356485Y-131021657D01*
X88364533Y-130989529D01*
X88375691Y-130958344D01*
X88389852Y-130928404D01*
X88406879Y-130899995D01*
X88426609Y-130873392D01*
X88448851Y-130848851D01*
X88473392Y-130826609D01*
X88499995Y-130806879D01*
X88528404Y-130789852D01*
X88558344Y-130775691D01*
X88589529Y-130764533D01*
X88621657Y-130756485D01*
X88654419Y-130751625D01*
X88687500Y-130750000D01*
X89362500Y-130750000D01*
X89395581Y-130751625D01*
X89395581Y-130751625D01*
G37*
D18*
X89025000Y-131500000D03*
D17*
G36*
X91345581Y-130751625D02*
G01*
X91378343Y-130756485D01*
X91410471Y-130764533D01*
X91441656Y-130775691D01*
X91471596Y-130789852D01*
X91500005Y-130806879D01*
X91526608Y-130826609D01*
X91551149Y-130848851D01*
X91573391Y-130873392D01*
X91593121Y-130899995D01*
X91610148Y-130928404D01*
X91624309Y-130958344D01*
X91635467Y-130989529D01*
X91643515Y-131021657D01*
X91648375Y-131054419D01*
X91650000Y-131087500D01*
X91650000Y-131912500D01*
X91648375Y-131945581D01*
X91643515Y-131978343D01*
X91635467Y-132010471D01*
X91624309Y-132041656D01*
X91610148Y-132071596D01*
X91593121Y-132100005D01*
X91573391Y-132126608D01*
X91551149Y-132151149D01*
X91526608Y-132173391D01*
X91500005Y-132193121D01*
X91471596Y-132210148D01*
X91441656Y-132224309D01*
X91410471Y-132235467D01*
X91378343Y-132243515D01*
X91345581Y-132248375D01*
X91312500Y-132250000D01*
X90637500Y-132250000D01*
X90604419Y-132248375D01*
X90571657Y-132243515D01*
X90539529Y-132235467D01*
X90508344Y-132224309D01*
X90478404Y-132210148D01*
X90449995Y-132193121D01*
X90423392Y-132173391D01*
X90398851Y-132151149D01*
X90376609Y-132126608D01*
X90356879Y-132100005D01*
X90339852Y-132071596D01*
X90325691Y-132041656D01*
X90314533Y-132010471D01*
X90306485Y-131978343D01*
X90301625Y-131945581D01*
X90300000Y-131912500D01*
X90300000Y-131087500D01*
X90301625Y-131054419D01*
X90306485Y-131021657D01*
X90314533Y-130989529D01*
X90325691Y-130958344D01*
X90339852Y-130928404D01*
X90356879Y-130899995D01*
X90376609Y-130873392D01*
X90398851Y-130848851D01*
X90423392Y-130826609D01*
X90449995Y-130806879D01*
X90478404Y-130789852D01*
X90508344Y-130775691D01*
X90539529Y-130764533D01*
X90571657Y-130756485D01*
X90604419Y-130751625D01*
X90637500Y-130750000D01*
X91312500Y-130750000D01*
X91345581Y-130751625D01*
X91345581Y-130751625D01*
G37*
D18*
X90975000Y-131500000D03*
%TD*%
D17*
%TO.C,D16*%
G36*
X86445581Y-127801625D02*
G01*
X86478343Y-127806485D01*
X86510471Y-127814533D01*
X86541656Y-127825691D01*
X86571596Y-127839852D01*
X86600005Y-127856879D01*
X86626608Y-127876609D01*
X86651149Y-127898851D01*
X86673391Y-127923392D01*
X86693121Y-127949995D01*
X86710148Y-127978404D01*
X86724309Y-128008344D01*
X86735467Y-128039529D01*
X86743515Y-128071657D01*
X86748375Y-128104419D01*
X86750000Y-128137500D01*
X86750000Y-128812500D01*
X86748375Y-128845581D01*
X86743515Y-128878343D01*
X86735467Y-128910471D01*
X86724309Y-128941656D01*
X86710148Y-128971596D01*
X86693121Y-129000005D01*
X86673391Y-129026608D01*
X86651149Y-129051149D01*
X86626608Y-129073391D01*
X86600005Y-129093121D01*
X86571596Y-129110148D01*
X86541656Y-129124309D01*
X86510471Y-129135467D01*
X86478343Y-129143515D01*
X86445581Y-129148375D01*
X86412500Y-129150000D01*
X85587500Y-129150000D01*
X85554419Y-129148375D01*
X85521657Y-129143515D01*
X85489529Y-129135467D01*
X85458344Y-129124309D01*
X85428404Y-129110148D01*
X85399995Y-129093121D01*
X85373392Y-129073391D01*
X85348851Y-129051149D01*
X85326609Y-129026608D01*
X85306879Y-129000005D01*
X85289852Y-128971596D01*
X85275691Y-128941656D01*
X85264533Y-128910471D01*
X85256485Y-128878343D01*
X85251625Y-128845581D01*
X85250000Y-128812500D01*
X85250000Y-128137500D01*
X85251625Y-128104419D01*
X85256485Y-128071657D01*
X85264533Y-128039529D01*
X85275691Y-128008344D01*
X85289852Y-127978404D01*
X85306879Y-127949995D01*
X85326609Y-127923392D01*
X85348851Y-127898851D01*
X85373392Y-127876609D01*
X85399995Y-127856879D01*
X85428404Y-127839852D01*
X85458344Y-127825691D01*
X85489529Y-127814533D01*
X85521657Y-127806485D01*
X85554419Y-127801625D01*
X85587500Y-127800000D01*
X86412500Y-127800000D01*
X86445581Y-127801625D01*
X86445581Y-127801625D01*
G37*
D18*
X86000000Y-128475000D03*
D17*
G36*
X86445581Y-125851625D02*
G01*
X86478343Y-125856485D01*
X86510471Y-125864533D01*
X86541656Y-125875691D01*
X86571596Y-125889852D01*
X86600005Y-125906879D01*
X86626608Y-125926609D01*
X86651149Y-125948851D01*
X86673391Y-125973392D01*
X86693121Y-125999995D01*
X86710148Y-126028404D01*
X86724309Y-126058344D01*
X86735467Y-126089529D01*
X86743515Y-126121657D01*
X86748375Y-126154419D01*
X86750000Y-126187500D01*
X86750000Y-126862500D01*
X86748375Y-126895581D01*
X86743515Y-126928343D01*
X86735467Y-126960471D01*
X86724309Y-126991656D01*
X86710148Y-127021596D01*
X86693121Y-127050005D01*
X86673391Y-127076608D01*
X86651149Y-127101149D01*
X86626608Y-127123391D01*
X86600005Y-127143121D01*
X86571596Y-127160148D01*
X86541656Y-127174309D01*
X86510471Y-127185467D01*
X86478343Y-127193515D01*
X86445581Y-127198375D01*
X86412500Y-127200000D01*
X85587500Y-127200000D01*
X85554419Y-127198375D01*
X85521657Y-127193515D01*
X85489529Y-127185467D01*
X85458344Y-127174309D01*
X85428404Y-127160148D01*
X85399995Y-127143121D01*
X85373392Y-127123391D01*
X85348851Y-127101149D01*
X85326609Y-127076608D01*
X85306879Y-127050005D01*
X85289852Y-127021596D01*
X85275691Y-126991656D01*
X85264533Y-126960471D01*
X85256485Y-126928343D01*
X85251625Y-126895581D01*
X85250000Y-126862500D01*
X85250000Y-126187500D01*
X85251625Y-126154419D01*
X85256485Y-126121657D01*
X85264533Y-126089529D01*
X85275691Y-126058344D01*
X85289852Y-126028404D01*
X85306879Y-125999995D01*
X85326609Y-125973392D01*
X85348851Y-125948851D01*
X85373392Y-125926609D01*
X85399995Y-125906879D01*
X85428404Y-125889852D01*
X85458344Y-125875691D01*
X85489529Y-125864533D01*
X85521657Y-125856485D01*
X85554419Y-125851625D01*
X85587500Y-125850000D01*
X86412500Y-125850000D01*
X86445581Y-125851625D01*
X86445581Y-125851625D01*
G37*
D18*
X86000000Y-126525000D03*
%TD*%
D17*
%TO.C,D15*%
G36*
X94445581Y-125851625D02*
G01*
X94478343Y-125856485D01*
X94510471Y-125864533D01*
X94541656Y-125875691D01*
X94571596Y-125889852D01*
X94600005Y-125906879D01*
X94626608Y-125926609D01*
X94651149Y-125948851D01*
X94673391Y-125973392D01*
X94693121Y-125999995D01*
X94710148Y-126028404D01*
X94724309Y-126058344D01*
X94735467Y-126089529D01*
X94743515Y-126121657D01*
X94748375Y-126154419D01*
X94750000Y-126187500D01*
X94750000Y-126862500D01*
X94748375Y-126895581D01*
X94743515Y-126928343D01*
X94735467Y-126960471D01*
X94724309Y-126991656D01*
X94710148Y-127021596D01*
X94693121Y-127050005D01*
X94673391Y-127076608D01*
X94651149Y-127101149D01*
X94626608Y-127123391D01*
X94600005Y-127143121D01*
X94571596Y-127160148D01*
X94541656Y-127174309D01*
X94510471Y-127185467D01*
X94478343Y-127193515D01*
X94445581Y-127198375D01*
X94412500Y-127200000D01*
X93587500Y-127200000D01*
X93554419Y-127198375D01*
X93521657Y-127193515D01*
X93489529Y-127185467D01*
X93458344Y-127174309D01*
X93428404Y-127160148D01*
X93399995Y-127143121D01*
X93373392Y-127123391D01*
X93348851Y-127101149D01*
X93326609Y-127076608D01*
X93306879Y-127050005D01*
X93289852Y-127021596D01*
X93275691Y-126991656D01*
X93264533Y-126960471D01*
X93256485Y-126928343D01*
X93251625Y-126895581D01*
X93250000Y-126862500D01*
X93250000Y-126187500D01*
X93251625Y-126154419D01*
X93256485Y-126121657D01*
X93264533Y-126089529D01*
X93275691Y-126058344D01*
X93289852Y-126028404D01*
X93306879Y-125999995D01*
X93326609Y-125973392D01*
X93348851Y-125948851D01*
X93373392Y-125926609D01*
X93399995Y-125906879D01*
X93428404Y-125889852D01*
X93458344Y-125875691D01*
X93489529Y-125864533D01*
X93521657Y-125856485D01*
X93554419Y-125851625D01*
X93587500Y-125850000D01*
X94412500Y-125850000D01*
X94445581Y-125851625D01*
X94445581Y-125851625D01*
G37*
D18*
X94000000Y-126525000D03*
D17*
G36*
X94445581Y-127801625D02*
G01*
X94478343Y-127806485D01*
X94510471Y-127814533D01*
X94541656Y-127825691D01*
X94571596Y-127839852D01*
X94600005Y-127856879D01*
X94626608Y-127876609D01*
X94651149Y-127898851D01*
X94673391Y-127923392D01*
X94693121Y-127949995D01*
X94710148Y-127978404D01*
X94724309Y-128008344D01*
X94735467Y-128039529D01*
X94743515Y-128071657D01*
X94748375Y-128104419D01*
X94750000Y-128137500D01*
X94750000Y-128812500D01*
X94748375Y-128845581D01*
X94743515Y-128878343D01*
X94735467Y-128910471D01*
X94724309Y-128941656D01*
X94710148Y-128971596D01*
X94693121Y-129000005D01*
X94673391Y-129026608D01*
X94651149Y-129051149D01*
X94626608Y-129073391D01*
X94600005Y-129093121D01*
X94571596Y-129110148D01*
X94541656Y-129124309D01*
X94510471Y-129135467D01*
X94478343Y-129143515D01*
X94445581Y-129148375D01*
X94412500Y-129150000D01*
X93587500Y-129150000D01*
X93554419Y-129148375D01*
X93521657Y-129143515D01*
X93489529Y-129135467D01*
X93458344Y-129124309D01*
X93428404Y-129110148D01*
X93399995Y-129093121D01*
X93373392Y-129073391D01*
X93348851Y-129051149D01*
X93326609Y-129026608D01*
X93306879Y-129000005D01*
X93289852Y-128971596D01*
X93275691Y-128941656D01*
X93264533Y-128910471D01*
X93256485Y-128878343D01*
X93251625Y-128845581D01*
X93250000Y-128812500D01*
X93250000Y-128137500D01*
X93251625Y-128104419D01*
X93256485Y-128071657D01*
X93264533Y-128039529D01*
X93275691Y-128008344D01*
X93289852Y-127978404D01*
X93306879Y-127949995D01*
X93326609Y-127923392D01*
X93348851Y-127898851D01*
X93373392Y-127876609D01*
X93399995Y-127856879D01*
X93428404Y-127839852D01*
X93458344Y-127825691D01*
X93489529Y-127814533D01*
X93521657Y-127806485D01*
X93554419Y-127801625D01*
X93587500Y-127800000D01*
X94412500Y-127800000D01*
X94445581Y-127801625D01*
X94445581Y-127801625D01*
G37*
D18*
X94000000Y-128475000D03*
%TD*%
D17*
%TO.C,D14*%
G36*
X91345581Y-122751625D02*
G01*
X91378343Y-122756485D01*
X91410471Y-122764533D01*
X91441656Y-122775691D01*
X91471596Y-122789852D01*
X91500005Y-122806879D01*
X91526608Y-122826609D01*
X91551149Y-122848851D01*
X91573391Y-122873392D01*
X91593121Y-122899995D01*
X91610148Y-122928404D01*
X91624309Y-122958344D01*
X91635467Y-122989529D01*
X91643515Y-123021657D01*
X91648375Y-123054419D01*
X91650000Y-123087500D01*
X91650000Y-123912500D01*
X91648375Y-123945581D01*
X91643515Y-123978343D01*
X91635467Y-124010471D01*
X91624309Y-124041656D01*
X91610148Y-124071596D01*
X91593121Y-124100005D01*
X91573391Y-124126608D01*
X91551149Y-124151149D01*
X91526608Y-124173391D01*
X91500005Y-124193121D01*
X91471596Y-124210148D01*
X91441656Y-124224309D01*
X91410471Y-124235467D01*
X91378343Y-124243515D01*
X91345581Y-124248375D01*
X91312500Y-124250000D01*
X90637500Y-124250000D01*
X90604419Y-124248375D01*
X90571657Y-124243515D01*
X90539529Y-124235467D01*
X90508344Y-124224309D01*
X90478404Y-124210148D01*
X90449995Y-124193121D01*
X90423392Y-124173391D01*
X90398851Y-124151149D01*
X90376609Y-124126608D01*
X90356879Y-124100005D01*
X90339852Y-124071596D01*
X90325691Y-124041656D01*
X90314533Y-124010471D01*
X90306485Y-123978343D01*
X90301625Y-123945581D01*
X90300000Y-123912500D01*
X90300000Y-123087500D01*
X90301625Y-123054419D01*
X90306485Y-123021657D01*
X90314533Y-122989529D01*
X90325691Y-122958344D01*
X90339852Y-122928404D01*
X90356879Y-122899995D01*
X90376609Y-122873392D01*
X90398851Y-122848851D01*
X90423392Y-122826609D01*
X90449995Y-122806879D01*
X90478404Y-122789852D01*
X90508344Y-122775691D01*
X90539529Y-122764533D01*
X90571657Y-122756485D01*
X90604419Y-122751625D01*
X90637500Y-122750000D01*
X91312500Y-122750000D01*
X91345581Y-122751625D01*
X91345581Y-122751625D01*
G37*
D18*
X90975000Y-123500000D03*
D17*
G36*
X89395581Y-122751625D02*
G01*
X89428343Y-122756485D01*
X89460471Y-122764533D01*
X89491656Y-122775691D01*
X89521596Y-122789852D01*
X89550005Y-122806879D01*
X89576608Y-122826609D01*
X89601149Y-122848851D01*
X89623391Y-122873392D01*
X89643121Y-122899995D01*
X89660148Y-122928404D01*
X89674309Y-122958344D01*
X89685467Y-122989529D01*
X89693515Y-123021657D01*
X89698375Y-123054419D01*
X89700000Y-123087500D01*
X89700000Y-123912500D01*
X89698375Y-123945581D01*
X89693515Y-123978343D01*
X89685467Y-124010471D01*
X89674309Y-124041656D01*
X89660148Y-124071596D01*
X89643121Y-124100005D01*
X89623391Y-124126608D01*
X89601149Y-124151149D01*
X89576608Y-124173391D01*
X89550005Y-124193121D01*
X89521596Y-124210148D01*
X89491656Y-124224309D01*
X89460471Y-124235467D01*
X89428343Y-124243515D01*
X89395581Y-124248375D01*
X89362500Y-124250000D01*
X88687500Y-124250000D01*
X88654419Y-124248375D01*
X88621657Y-124243515D01*
X88589529Y-124235467D01*
X88558344Y-124224309D01*
X88528404Y-124210148D01*
X88499995Y-124193121D01*
X88473392Y-124173391D01*
X88448851Y-124151149D01*
X88426609Y-124126608D01*
X88406879Y-124100005D01*
X88389852Y-124071596D01*
X88375691Y-124041656D01*
X88364533Y-124010471D01*
X88356485Y-123978343D01*
X88351625Y-123945581D01*
X88350000Y-123912500D01*
X88350000Y-123087500D01*
X88351625Y-123054419D01*
X88356485Y-123021657D01*
X88364533Y-122989529D01*
X88375691Y-122958344D01*
X88389852Y-122928404D01*
X88406879Y-122899995D01*
X88426609Y-122873392D01*
X88448851Y-122848851D01*
X88473392Y-122826609D01*
X88499995Y-122806879D01*
X88528404Y-122789852D01*
X88558344Y-122775691D01*
X88589529Y-122764533D01*
X88621657Y-122756485D01*
X88654419Y-122751625D01*
X88687500Y-122750000D01*
X89362500Y-122750000D01*
X89395581Y-122751625D01*
X89395581Y-122751625D01*
G37*
D18*
X89025000Y-123500000D03*
%TD*%
D17*
%TO.C,D13*%
G36*
X103095581Y-138751625D02*
G01*
X103128343Y-138756485D01*
X103160471Y-138764533D01*
X103191656Y-138775691D01*
X103221596Y-138789852D01*
X103250005Y-138806879D01*
X103276608Y-138826609D01*
X103301149Y-138848851D01*
X103323391Y-138873392D01*
X103343121Y-138899995D01*
X103360148Y-138928404D01*
X103374309Y-138958344D01*
X103385467Y-138989529D01*
X103393515Y-139021657D01*
X103398375Y-139054419D01*
X103400000Y-139087500D01*
X103400000Y-139912500D01*
X103398375Y-139945581D01*
X103393515Y-139978343D01*
X103385467Y-140010471D01*
X103374309Y-140041656D01*
X103360148Y-140071596D01*
X103343121Y-140100005D01*
X103323391Y-140126608D01*
X103301149Y-140151149D01*
X103276608Y-140173391D01*
X103250005Y-140193121D01*
X103221596Y-140210148D01*
X103191656Y-140224309D01*
X103160471Y-140235467D01*
X103128343Y-140243515D01*
X103095581Y-140248375D01*
X103062500Y-140250000D01*
X102387500Y-140250000D01*
X102354419Y-140248375D01*
X102321657Y-140243515D01*
X102289529Y-140235467D01*
X102258344Y-140224309D01*
X102228404Y-140210148D01*
X102199995Y-140193121D01*
X102173392Y-140173391D01*
X102148851Y-140151149D01*
X102126609Y-140126608D01*
X102106879Y-140100005D01*
X102089852Y-140071596D01*
X102075691Y-140041656D01*
X102064533Y-140010471D01*
X102056485Y-139978343D01*
X102051625Y-139945581D01*
X102050000Y-139912500D01*
X102050000Y-139087500D01*
X102051625Y-139054419D01*
X102056485Y-139021657D01*
X102064533Y-138989529D01*
X102075691Y-138958344D01*
X102089852Y-138928404D01*
X102106879Y-138899995D01*
X102126609Y-138873392D01*
X102148851Y-138848851D01*
X102173392Y-138826609D01*
X102199995Y-138806879D01*
X102228404Y-138789852D01*
X102258344Y-138775691D01*
X102289529Y-138764533D01*
X102321657Y-138756485D01*
X102354419Y-138751625D01*
X102387500Y-138750000D01*
X103062500Y-138750000D01*
X103095581Y-138751625D01*
X103095581Y-138751625D01*
G37*
D18*
X102725000Y-139500000D03*
D17*
G36*
X101145581Y-138751625D02*
G01*
X101178343Y-138756485D01*
X101210471Y-138764533D01*
X101241656Y-138775691D01*
X101271596Y-138789852D01*
X101300005Y-138806879D01*
X101326608Y-138826609D01*
X101351149Y-138848851D01*
X101373391Y-138873392D01*
X101393121Y-138899995D01*
X101410148Y-138928404D01*
X101424309Y-138958344D01*
X101435467Y-138989529D01*
X101443515Y-139021657D01*
X101448375Y-139054419D01*
X101450000Y-139087500D01*
X101450000Y-139912500D01*
X101448375Y-139945581D01*
X101443515Y-139978343D01*
X101435467Y-140010471D01*
X101424309Y-140041656D01*
X101410148Y-140071596D01*
X101393121Y-140100005D01*
X101373391Y-140126608D01*
X101351149Y-140151149D01*
X101326608Y-140173391D01*
X101300005Y-140193121D01*
X101271596Y-140210148D01*
X101241656Y-140224309D01*
X101210471Y-140235467D01*
X101178343Y-140243515D01*
X101145581Y-140248375D01*
X101112500Y-140250000D01*
X100437500Y-140250000D01*
X100404419Y-140248375D01*
X100371657Y-140243515D01*
X100339529Y-140235467D01*
X100308344Y-140224309D01*
X100278404Y-140210148D01*
X100249995Y-140193121D01*
X100223392Y-140173391D01*
X100198851Y-140151149D01*
X100176609Y-140126608D01*
X100156879Y-140100005D01*
X100139852Y-140071596D01*
X100125691Y-140041656D01*
X100114533Y-140010471D01*
X100106485Y-139978343D01*
X100101625Y-139945581D01*
X100100000Y-139912500D01*
X100100000Y-139087500D01*
X100101625Y-139054419D01*
X100106485Y-139021657D01*
X100114533Y-138989529D01*
X100125691Y-138958344D01*
X100139852Y-138928404D01*
X100156879Y-138899995D01*
X100176609Y-138873392D01*
X100198851Y-138848851D01*
X100223392Y-138826609D01*
X100249995Y-138806879D01*
X100278404Y-138789852D01*
X100308344Y-138775691D01*
X100339529Y-138764533D01*
X100371657Y-138756485D01*
X100404419Y-138751625D01*
X100437500Y-138750000D01*
X101112500Y-138750000D01*
X101145581Y-138751625D01*
X101145581Y-138751625D01*
G37*
D18*
X100775000Y-139500000D03*
%TD*%
D17*
%TO.C,D12*%
G36*
X98195581Y-133851625D02*
G01*
X98228343Y-133856485D01*
X98260471Y-133864533D01*
X98291656Y-133875691D01*
X98321596Y-133889852D01*
X98350005Y-133906879D01*
X98376608Y-133926609D01*
X98401149Y-133948851D01*
X98423391Y-133973392D01*
X98443121Y-133999995D01*
X98460148Y-134028404D01*
X98474309Y-134058344D01*
X98485467Y-134089529D01*
X98493515Y-134121657D01*
X98498375Y-134154419D01*
X98500000Y-134187500D01*
X98500000Y-134862500D01*
X98498375Y-134895581D01*
X98493515Y-134928343D01*
X98485467Y-134960471D01*
X98474309Y-134991656D01*
X98460148Y-135021596D01*
X98443121Y-135050005D01*
X98423391Y-135076608D01*
X98401149Y-135101149D01*
X98376608Y-135123391D01*
X98350005Y-135143121D01*
X98321596Y-135160148D01*
X98291656Y-135174309D01*
X98260471Y-135185467D01*
X98228343Y-135193515D01*
X98195581Y-135198375D01*
X98162500Y-135200000D01*
X97337500Y-135200000D01*
X97304419Y-135198375D01*
X97271657Y-135193515D01*
X97239529Y-135185467D01*
X97208344Y-135174309D01*
X97178404Y-135160148D01*
X97149995Y-135143121D01*
X97123392Y-135123391D01*
X97098851Y-135101149D01*
X97076609Y-135076608D01*
X97056879Y-135050005D01*
X97039852Y-135021596D01*
X97025691Y-134991656D01*
X97014533Y-134960471D01*
X97006485Y-134928343D01*
X97001625Y-134895581D01*
X97000000Y-134862500D01*
X97000000Y-134187500D01*
X97001625Y-134154419D01*
X97006485Y-134121657D01*
X97014533Y-134089529D01*
X97025691Y-134058344D01*
X97039852Y-134028404D01*
X97056879Y-133999995D01*
X97076609Y-133973392D01*
X97098851Y-133948851D01*
X97123392Y-133926609D01*
X97149995Y-133906879D01*
X97178404Y-133889852D01*
X97208344Y-133875691D01*
X97239529Y-133864533D01*
X97271657Y-133856485D01*
X97304419Y-133851625D01*
X97337500Y-133850000D01*
X98162500Y-133850000D01*
X98195581Y-133851625D01*
X98195581Y-133851625D01*
G37*
D18*
X97750000Y-134525000D03*
D17*
G36*
X98195581Y-135801625D02*
G01*
X98228343Y-135806485D01*
X98260471Y-135814533D01*
X98291656Y-135825691D01*
X98321596Y-135839852D01*
X98350005Y-135856879D01*
X98376608Y-135876609D01*
X98401149Y-135898851D01*
X98423391Y-135923392D01*
X98443121Y-135949995D01*
X98460148Y-135978404D01*
X98474309Y-136008344D01*
X98485467Y-136039529D01*
X98493515Y-136071657D01*
X98498375Y-136104419D01*
X98500000Y-136137500D01*
X98500000Y-136812500D01*
X98498375Y-136845581D01*
X98493515Y-136878343D01*
X98485467Y-136910471D01*
X98474309Y-136941656D01*
X98460148Y-136971596D01*
X98443121Y-137000005D01*
X98423391Y-137026608D01*
X98401149Y-137051149D01*
X98376608Y-137073391D01*
X98350005Y-137093121D01*
X98321596Y-137110148D01*
X98291656Y-137124309D01*
X98260471Y-137135467D01*
X98228343Y-137143515D01*
X98195581Y-137148375D01*
X98162500Y-137150000D01*
X97337500Y-137150000D01*
X97304419Y-137148375D01*
X97271657Y-137143515D01*
X97239529Y-137135467D01*
X97208344Y-137124309D01*
X97178404Y-137110148D01*
X97149995Y-137093121D01*
X97123392Y-137073391D01*
X97098851Y-137051149D01*
X97076609Y-137026608D01*
X97056879Y-137000005D01*
X97039852Y-136971596D01*
X97025691Y-136941656D01*
X97014533Y-136910471D01*
X97006485Y-136878343D01*
X97001625Y-136845581D01*
X97000000Y-136812500D01*
X97000000Y-136137500D01*
X97001625Y-136104419D01*
X97006485Y-136071657D01*
X97014533Y-136039529D01*
X97025691Y-136008344D01*
X97039852Y-135978404D01*
X97056879Y-135949995D01*
X97076609Y-135923392D01*
X97098851Y-135898851D01*
X97123392Y-135876609D01*
X97149995Y-135856879D01*
X97178404Y-135839852D01*
X97208344Y-135825691D01*
X97239529Y-135814533D01*
X97271657Y-135806485D01*
X97304419Y-135801625D01*
X97337500Y-135800000D01*
X98162500Y-135800000D01*
X98195581Y-135801625D01*
X98195581Y-135801625D01*
G37*
D18*
X97750000Y-136475000D03*
%TD*%
D17*
%TO.C,D11*%
G36*
X106195581Y-133851625D02*
G01*
X106228343Y-133856485D01*
X106260471Y-133864533D01*
X106291656Y-133875691D01*
X106321596Y-133889852D01*
X106350005Y-133906879D01*
X106376608Y-133926609D01*
X106401149Y-133948851D01*
X106423391Y-133973392D01*
X106443121Y-133999995D01*
X106460148Y-134028404D01*
X106474309Y-134058344D01*
X106485467Y-134089529D01*
X106493515Y-134121657D01*
X106498375Y-134154419D01*
X106500000Y-134187500D01*
X106500000Y-134862500D01*
X106498375Y-134895581D01*
X106493515Y-134928343D01*
X106485467Y-134960471D01*
X106474309Y-134991656D01*
X106460148Y-135021596D01*
X106443121Y-135050005D01*
X106423391Y-135076608D01*
X106401149Y-135101149D01*
X106376608Y-135123391D01*
X106350005Y-135143121D01*
X106321596Y-135160148D01*
X106291656Y-135174309D01*
X106260471Y-135185467D01*
X106228343Y-135193515D01*
X106195581Y-135198375D01*
X106162500Y-135200000D01*
X105337500Y-135200000D01*
X105304419Y-135198375D01*
X105271657Y-135193515D01*
X105239529Y-135185467D01*
X105208344Y-135174309D01*
X105178404Y-135160148D01*
X105149995Y-135143121D01*
X105123392Y-135123391D01*
X105098851Y-135101149D01*
X105076609Y-135076608D01*
X105056879Y-135050005D01*
X105039852Y-135021596D01*
X105025691Y-134991656D01*
X105014533Y-134960471D01*
X105006485Y-134928343D01*
X105001625Y-134895581D01*
X105000000Y-134862500D01*
X105000000Y-134187500D01*
X105001625Y-134154419D01*
X105006485Y-134121657D01*
X105014533Y-134089529D01*
X105025691Y-134058344D01*
X105039852Y-134028404D01*
X105056879Y-133999995D01*
X105076609Y-133973392D01*
X105098851Y-133948851D01*
X105123392Y-133926609D01*
X105149995Y-133906879D01*
X105178404Y-133889852D01*
X105208344Y-133875691D01*
X105239529Y-133864533D01*
X105271657Y-133856485D01*
X105304419Y-133851625D01*
X105337500Y-133850000D01*
X106162500Y-133850000D01*
X106195581Y-133851625D01*
X106195581Y-133851625D01*
G37*
D18*
X105750000Y-134525000D03*
D17*
G36*
X106195581Y-135801625D02*
G01*
X106228343Y-135806485D01*
X106260471Y-135814533D01*
X106291656Y-135825691D01*
X106321596Y-135839852D01*
X106350005Y-135856879D01*
X106376608Y-135876609D01*
X106401149Y-135898851D01*
X106423391Y-135923392D01*
X106443121Y-135949995D01*
X106460148Y-135978404D01*
X106474309Y-136008344D01*
X106485467Y-136039529D01*
X106493515Y-136071657D01*
X106498375Y-136104419D01*
X106500000Y-136137500D01*
X106500000Y-136812500D01*
X106498375Y-136845581D01*
X106493515Y-136878343D01*
X106485467Y-136910471D01*
X106474309Y-136941656D01*
X106460148Y-136971596D01*
X106443121Y-137000005D01*
X106423391Y-137026608D01*
X106401149Y-137051149D01*
X106376608Y-137073391D01*
X106350005Y-137093121D01*
X106321596Y-137110148D01*
X106291656Y-137124309D01*
X106260471Y-137135467D01*
X106228343Y-137143515D01*
X106195581Y-137148375D01*
X106162500Y-137150000D01*
X105337500Y-137150000D01*
X105304419Y-137148375D01*
X105271657Y-137143515D01*
X105239529Y-137135467D01*
X105208344Y-137124309D01*
X105178404Y-137110148D01*
X105149995Y-137093121D01*
X105123392Y-137073391D01*
X105098851Y-137051149D01*
X105076609Y-137026608D01*
X105056879Y-137000005D01*
X105039852Y-136971596D01*
X105025691Y-136941656D01*
X105014533Y-136910471D01*
X105006485Y-136878343D01*
X105001625Y-136845581D01*
X105000000Y-136812500D01*
X105000000Y-136137500D01*
X105001625Y-136104419D01*
X105006485Y-136071657D01*
X105014533Y-136039529D01*
X105025691Y-136008344D01*
X105039852Y-135978404D01*
X105056879Y-135949995D01*
X105076609Y-135923392D01*
X105098851Y-135898851D01*
X105123392Y-135876609D01*
X105149995Y-135856879D01*
X105178404Y-135839852D01*
X105208344Y-135825691D01*
X105239529Y-135814533D01*
X105271657Y-135806485D01*
X105304419Y-135801625D01*
X105337500Y-135800000D01*
X106162500Y-135800000D01*
X106195581Y-135801625D01*
X106195581Y-135801625D01*
G37*
D18*
X105750000Y-136475000D03*
%TD*%
D17*
%TO.C,D10*%
G36*
X103095581Y-130751625D02*
G01*
X103128343Y-130756485D01*
X103160471Y-130764533D01*
X103191656Y-130775691D01*
X103221596Y-130789852D01*
X103250005Y-130806879D01*
X103276608Y-130826609D01*
X103301149Y-130848851D01*
X103323391Y-130873392D01*
X103343121Y-130899995D01*
X103360148Y-130928404D01*
X103374309Y-130958344D01*
X103385467Y-130989529D01*
X103393515Y-131021657D01*
X103398375Y-131054419D01*
X103400000Y-131087500D01*
X103400000Y-131912500D01*
X103398375Y-131945581D01*
X103393515Y-131978343D01*
X103385467Y-132010471D01*
X103374309Y-132041656D01*
X103360148Y-132071596D01*
X103343121Y-132100005D01*
X103323391Y-132126608D01*
X103301149Y-132151149D01*
X103276608Y-132173391D01*
X103250005Y-132193121D01*
X103221596Y-132210148D01*
X103191656Y-132224309D01*
X103160471Y-132235467D01*
X103128343Y-132243515D01*
X103095581Y-132248375D01*
X103062500Y-132250000D01*
X102387500Y-132250000D01*
X102354419Y-132248375D01*
X102321657Y-132243515D01*
X102289529Y-132235467D01*
X102258344Y-132224309D01*
X102228404Y-132210148D01*
X102199995Y-132193121D01*
X102173392Y-132173391D01*
X102148851Y-132151149D01*
X102126609Y-132126608D01*
X102106879Y-132100005D01*
X102089852Y-132071596D01*
X102075691Y-132041656D01*
X102064533Y-132010471D01*
X102056485Y-131978343D01*
X102051625Y-131945581D01*
X102050000Y-131912500D01*
X102050000Y-131087500D01*
X102051625Y-131054419D01*
X102056485Y-131021657D01*
X102064533Y-130989529D01*
X102075691Y-130958344D01*
X102089852Y-130928404D01*
X102106879Y-130899995D01*
X102126609Y-130873392D01*
X102148851Y-130848851D01*
X102173392Y-130826609D01*
X102199995Y-130806879D01*
X102228404Y-130789852D01*
X102258344Y-130775691D01*
X102289529Y-130764533D01*
X102321657Y-130756485D01*
X102354419Y-130751625D01*
X102387500Y-130750000D01*
X103062500Y-130750000D01*
X103095581Y-130751625D01*
X103095581Y-130751625D01*
G37*
D18*
X102725000Y-131500000D03*
D17*
G36*
X101145581Y-130751625D02*
G01*
X101178343Y-130756485D01*
X101210471Y-130764533D01*
X101241656Y-130775691D01*
X101271596Y-130789852D01*
X101300005Y-130806879D01*
X101326608Y-130826609D01*
X101351149Y-130848851D01*
X101373391Y-130873392D01*
X101393121Y-130899995D01*
X101410148Y-130928404D01*
X101424309Y-130958344D01*
X101435467Y-130989529D01*
X101443515Y-131021657D01*
X101448375Y-131054419D01*
X101450000Y-131087500D01*
X101450000Y-131912500D01*
X101448375Y-131945581D01*
X101443515Y-131978343D01*
X101435467Y-132010471D01*
X101424309Y-132041656D01*
X101410148Y-132071596D01*
X101393121Y-132100005D01*
X101373391Y-132126608D01*
X101351149Y-132151149D01*
X101326608Y-132173391D01*
X101300005Y-132193121D01*
X101271596Y-132210148D01*
X101241656Y-132224309D01*
X101210471Y-132235467D01*
X101178343Y-132243515D01*
X101145581Y-132248375D01*
X101112500Y-132250000D01*
X100437500Y-132250000D01*
X100404419Y-132248375D01*
X100371657Y-132243515D01*
X100339529Y-132235467D01*
X100308344Y-132224309D01*
X100278404Y-132210148D01*
X100249995Y-132193121D01*
X100223392Y-132173391D01*
X100198851Y-132151149D01*
X100176609Y-132126608D01*
X100156879Y-132100005D01*
X100139852Y-132071596D01*
X100125691Y-132041656D01*
X100114533Y-132010471D01*
X100106485Y-131978343D01*
X100101625Y-131945581D01*
X100100000Y-131912500D01*
X100100000Y-131087500D01*
X100101625Y-131054419D01*
X100106485Y-131021657D01*
X100114533Y-130989529D01*
X100125691Y-130958344D01*
X100139852Y-130928404D01*
X100156879Y-130899995D01*
X100176609Y-130873392D01*
X100198851Y-130848851D01*
X100223392Y-130826609D01*
X100249995Y-130806879D01*
X100278404Y-130789852D01*
X100308344Y-130775691D01*
X100339529Y-130764533D01*
X100371657Y-130756485D01*
X100404419Y-130751625D01*
X100437500Y-130750000D01*
X101112500Y-130750000D01*
X101145581Y-130751625D01*
X101145581Y-130751625D01*
G37*
D18*
X100775000Y-131500000D03*
%TD*%
D17*
%TO.C,D9*%
G36*
X98195581Y-127801625D02*
G01*
X98228343Y-127806485D01*
X98260471Y-127814533D01*
X98291656Y-127825691D01*
X98321596Y-127839852D01*
X98350005Y-127856879D01*
X98376608Y-127876609D01*
X98401149Y-127898851D01*
X98423391Y-127923392D01*
X98443121Y-127949995D01*
X98460148Y-127978404D01*
X98474309Y-128008344D01*
X98485467Y-128039529D01*
X98493515Y-128071657D01*
X98498375Y-128104419D01*
X98500000Y-128137500D01*
X98500000Y-128812500D01*
X98498375Y-128845581D01*
X98493515Y-128878343D01*
X98485467Y-128910471D01*
X98474309Y-128941656D01*
X98460148Y-128971596D01*
X98443121Y-129000005D01*
X98423391Y-129026608D01*
X98401149Y-129051149D01*
X98376608Y-129073391D01*
X98350005Y-129093121D01*
X98321596Y-129110148D01*
X98291656Y-129124309D01*
X98260471Y-129135467D01*
X98228343Y-129143515D01*
X98195581Y-129148375D01*
X98162500Y-129150000D01*
X97337500Y-129150000D01*
X97304419Y-129148375D01*
X97271657Y-129143515D01*
X97239529Y-129135467D01*
X97208344Y-129124309D01*
X97178404Y-129110148D01*
X97149995Y-129093121D01*
X97123392Y-129073391D01*
X97098851Y-129051149D01*
X97076609Y-129026608D01*
X97056879Y-129000005D01*
X97039852Y-128971596D01*
X97025691Y-128941656D01*
X97014533Y-128910471D01*
X97006485Y-128878343D01*
X97001625Y-128845581D01*
X97000000Y-128812500D01*
X97000000Y-128137500D01*
X97001625Y-128104419D01*
X97006485Y-128071657D01*
X97014533Y-128039529D01*
X97025691Y-128008344D01*
X97039852Y-127978404D01*
X97056879Y-127949995D01*
X97076609Y-127923392D01*
X97098851Y-127898851D01*
X97123392Y-127876609D01*
X97149995Y-127856879D01*
X97178404Y-127839852D01*
X97208344Y-127825691D01*
X97239529Y-127814533D01*
X97271657Y-127806485D01*
X97304419Y-127801625D01*
X97337500Y-127800000D01*
X98162500Y-127800000D01*
X98195581Y-127801625D01*
X98195581Y-127801625D01*
G37*
D18*
X97750000Y-128475000D03*
D17*
G36*
X98195581Y-125851625D02*
G01*
X98228343Y-125856485D01*
X98260471Y-125864533D01*
X98291656Y-125875691D01*
X98321596Y-125889852D01*
X98350005Y-125906879D01*
X98376608Y-125926609D01*
X98401149Y-125948851D01*
X98423391Y-125973392D01*
X98443121Y-125999995D01*
X98460148Y-126028404D01*
X98474309Y-126058344D01*
X98485467Y-126089529D01*
X98493515Y-126121657D01*
X98498375Y-126154419D01*
X98500000Y-126187500D01*
X98500000Y-126862500D01*
X98498375Y-126895581D01*
X98493515Y-126928343D01*
X98485467Y-126960471D01*
X98474309Y-126991656D01*
X98460148Y-127021596D01*
X98443121Y-127050005D01*
X98423391Y-127076608D01*
X98401149Y-127101149D01*
X98376608Y-127123391D01*
X98350005Y-127143121D01*
X98321596Y-127160148D01*
X98291656Y-127174309D01*
X98260471Y-127185467D01*
X98228343Y-127193515D01*
X98195581Y-127198375D01*
X98162500Y-127200000D01*
X97337500Y-127200000D01*
X97304419Y-127198375D01*
X97271657Y-127193515D01*
X97239529Y-127185467D01*
X97208344Y-127174309D01*
X97178404Y-127160148D01*
X97149995Y-127143121D01*
X97123392Y-127123391D01*
X97098851Y-127101149D01*
X97076609Y-127076608D01*
X97056879Y-127050005D01*
X97039852Y-127021596D01*
X97025691Y-126991656D01*
X97014533Y-126960471D01*
X97006485Y-126928343D01*
X97001625Y-126895581D01*
X97000000Y-126862500D01*
X97000000Y-126187500D01*
X97001625Y-126154419D01*
X97006485Y-126121657D01*
X97014533Y-126089529D01*
X97025691Y-126058344D01*
X97039852Y-126028404D01*
X97056879Y-125999995D01*
X97076609Y-125973392D01*
X97098851Y-125948851D01*
X97123392Y-125926609D01*
X97149995Y-125906879D01*
X97178404Y-125889852D01*
X97208344Y-125875691D01*
X97239529Y-125864533D01*
X97271657Y-125856485D01*
X97304419Y-125851625D01*
X97337500Y-125850000D01*
X98162500Y-125850000D01*
X98195581Y-125851625D01*
X98195581Y-125851625D01*
G37*
D18*
X97750000Y-126525000D03*
%TD*%
D17*
%TO.C,D8*%
G36*
X106195581Y-127801625D02*
G01*
X106228343Y-127806485D01*
X106260471Y-127814533D01*
X106291656Y-127825691D01*
X106321596Y-127839852D01*
X106350005Y-127856879D01*
X106376608Y-127876609D01*
X106401149Y-127898851D01*
X106423391Y-127923392D01*
X106443121Y-127949995D01*
X106460148Y-127978404D01*
X106474309Y-128008344D01*
X106485467Y-128039529D01*
X106493515Y-128071657D01*
X106498375Y-128104419D01*
X106500000Y-128137500D01*
X106500000Y-128812500D01*
X106498375Y-128845581D01*
X106493515Y-128878343D01*
X106485467Y-128910471D01*
X106474309Y-128941656D01*
X106460148Y-128971596D01*
X106443121Y-129000005D01*
X106423391Y-129026608D01*
X106401149Y-129051149D01*
X106376608Y-129073391D01*
X106350005Y-129093121D01*
X106321596Y-129110148D01*
X106291656Y-129124309D01*
X106260471Y-129135467D01*
X106228343Y-129143515D01*
X106195581Y-129148375D01*
X106162500Y-129150000D01*
X105337500Y-129150000D01*
X105304419Y-129148375D01*
X105271657Y-129143515D01*
X105239529Y-129135467D01*
X105208344Y-129124309D01*
X105178404Y-129110148D01*
X105149995Y-129093121D01*
X105123392Y-129073391D01*
X105098851Y-129051149D01*
X105076609Y-129026608D01*
X105056879Y-129000005D01*
X105039852Y-128971596D01*
X105025691Y-128941656D01*
X105014533Y-128910471D01*
X105006485Y-128878343D01*
X105001625Y-128845581D01*
X105000000Y-128812500D01*
X105000000Y-128137500D01*
X105001625Y-128104419D01*
X105006485Y-128071657D01*
X105014533Y-128039529D01*
X105025691Y-128008344D01*
X105039852Y-127978404D01*
X105056879Y-127949995D01*
X105076609Y-127923392D01*
X105098851Y-127898851D01*
X105123392Y-127876609D01*
X105149995Y-127856879D01*
X105178404Y-127839852D01*
X105208344Y-127825691D01*
X105239529Y-127814533D01*
X105271657Y-127806485D01*
X105304419Y-127801625D01*
X105337500Y-127800000D01*
X106162500Y-127800000D01*
X106195581Y-127801625D01*
X106195581Y-127801625D01*
G37*
D18*
X105750000Y-128475000D03*
D17*
G36*
X106195581Y-125851625D02*
G01*
X106228343Y-125856485D01*
X106260471Y-125864533D01*
X106291656Y-125875691D01*
X106321596Y-125889852D01*
X106350005Y-125906879D01*
X106376608Y-125926609D01*
X106401149Y-125948851D01*
X106423391Y-125973392D01*
X106443121Y-125999995D01*
X106460148Y-126028404D01*
X106474309Y-126058344D01*
X106485467Y-126089529D01*
X106493515Y-126121657D01*
X106498375Y-126154419D01*
X106500000Y-126187500D01*
X106500000Y-126862500D01*
X106498375Y-126895581D01*
X106493515Y-126928343D01*
X106485467Y-126960471D01*
X106474309Y-126991656D01*
X106460148Y-127021596D01*
X106443121Y-127050005D01*
X106423391Y-127076608D01*
X106401149Y-127101149D01*
X106376608Y-127123391D01*
X106350005Y-127143121D01*
X106321596Y-127160148D01*
X106291656Y-127174309D01*
X106260471Y-127185467D01*
X106228343Y-127193515D01*
X106195581Y-127198375D01*
X106162500Y-127200000D01*
X105337500Y-127200000D01*
X105304419Y-127198375D01*
X105271657Y-127193515D01*
X105239529Y-127185467D01*
X105208344Y-127174309D01*
X105178404Y-127160148D01*
X105149995Y-127143121D01*
X105123392Y-127123391D01*
X105098851Y-127101149D01*
X105076609Y-127076608D01*
X105056879Y-127050005D01*
X105039852Y-127021596D01*
X105025691Y-126991656D01*
X105014533Y-126960471D01*
X105006485Y-126928343D01*
X105001625Y-126895581D01*
X105000000Y-126862500D01*
X105000000Y-126187500D01*
X105001625Y-126154419D01*
X105006485Y-126121657D01*
X105014533Y-126089529D01*
X105025691Y-126058344D01*
X105039852Y-126028404D01*
X105056879Y-125999995D01*
X105076609Y-125973392D01*
X105098851Y-125948851D01*
X105123392Y-125926609D01*
X105149995Y-125906879D01*
X105178404Y-125889852D01*
X105208344Y-125875691D01*
X105239529Y-125864533D01*
X105271657Y-125856485D01*
X105304419Y-125851625D01*
X105337500Y-125850000D01*
X106162500Y-125850000D01*
X106195581Y-125851625D01*
X106195581Y-125851625D01*
G37*
D18*
X105750000Y-126525000D03*
%TD*%
D17*
%TO.C,D7*%
G36*
X101145581Y-122751625D02*
G01*
X101178343Y-122756485D01*
X101210471Y-122764533D01*
X101241656Y-122775691D01*
X101271596Y-122789852D01*
X101300005Y-122806879D01*
X101326608Y-122826609D01*
X101351149Y-122848851D01*
X101373391Y-122873392D01*
X101393121Y-122899995D01*
X101410148Y-122928404D01*
X101424309Y-122958344D01*
X101435467Y-122989529D01*
X101443515Y-123021657D01*
X101448375Y-123054419D01*
X101450000Y-123087500D01*
X101450000Y-123912500D01*
X101448375Y-123945581D01*
X101443515Y-123978343D01*
X101435467Y-124010471D01*
X101424309Y-124041656D01*
X101410148Y-124071596D01*
X101393121Y-124100005D01*
X101373391Y-124126608D01*
X101351149Y-124151149D01*
X101326608Y-124173391D01*
X101300005Y-124193121D01*
X101271596Y-124210148D01*
X101241656Y-124224309D01*
X101210471Y-124235467D01*
X101178343Y-124243515D01*
X101145581Y-124248375D01*
X101112500Y-124250000D01*
X100437500Y-124250000D01*
X100404419Y-124248375D01*
X100371657Y-124243515D01*
X100339529Y-124235467D01*
X100308344Y-124224309D01*
X100278404Y-124210148D01*
X100249995Y-124193121D01*
X100223392Y-124173391D01*
X100198851Y-124151149D01*
X100176609Y-124126608D01*
X100156879Y-124100005D01*
X100139852Y-124071596D01*
X100125691Y-124041656D01*
X100114533Y-124010471D01*
X100106485Y-123978343D01*
X100101625Y-123945581D01*
X100100000Y-123912500D01*
X100100000Y-123087500D01*
X100101625Y-123054419D01*
X100106485Y-123021657D01*
X100114533Y-122989529D01*
X100125691Y-122958344D01*
X100139852Y-122928404D01*
X100156879Y-122899995D01*
X100176609Y-122873392D01*
X100198851Y-122848851D01*
X100223392Y-122826609D01*
X100249995Y-122806879D01*
X100278404Y-122789852D01*
X100308344Y-122775691D01*
X100339529Y-122764533D01*
X100371657Y-122756485D01*
X100404419Y-122751625D01*
X100437500Y-122750000D01*
X101112500Y-122750000D01*
X101145581Y-122751625D01*
X101145581Y-122751625D01*
G37*
D18*
X100775000Y-123500000D03*
D17*
G36*
X103095581Y-122751625D02*
G01*
X103128343Y-122756485D01*
X103160471Y-122764533D01*
X103191656Y-122775691D01*
X103221596Y-122789852D01*
X103250005Y-122806879D01*
X103276608Y-122826609D01*
X103301149Y-122848851D01*
X103323391Y-122873392D01*
X103343121Y-122899995D01*
X103360148Y-122928404D01*
X103374309Y-122958344D01*
X103385467Y-122989529D01*
X103393515Y-123021657D01*
X103398375Y-123054419D01*
X103400000Y-123087500D01*
X103400000Y-123912500D01*
X103398375Y-123945581D01*
X103393515Y-123978343D01*
X103385467Y-124010471D01*
X103374309Y-124041656D01*
X103360148Y-124071596D01*
X103343121Y-124100005D01*
X103323391Y-124126608D01*
X103301149Y-124151149D01*
X103276608Y-124173391D01*
X103250005Y-124193121D01*
X103221596Y-124210148D01*
X103191656Y-124224309D01*
X103160471Y-124235467D01*
X103128343Y-124243515D01*
X103095581Y-124248375D01*
X103062500Y-124250000D01*
X102387500Y-124250000D01*
X102354419Y-124248375D01*
X102321657Y-124243515D01*
X102289529Y-124235467D01*
X102258344Y-124224309D01*
X102228404Y-124210148D01*
X102199995Y-124193121D01*
X102173392Y-124173391D01*
X102148851Y-124151149D01*
X102126609Y-124126608D01*
X102106879Y-124100005D01*
X102089852Y-124071596D01*
X102075691Y-124041656D01*
X102064533Y-124010471D01*
X102056485Y-123978343D01*
X102051625Y-123945581D01*
X102050000Y-123912500D01*
X102050000Y-123087500D01*
X102051625Y-123054419D01*
X102056485Y-123021657D01*
X102064533Y-122989529D01*
X102075691Y-122958344D01*
X102089852Y-122928404D01*
X102106879Y-122899995D01*
X102126609Y-122873392D01*
X102148851Y-122848851D01*
X102173392Y-122826609D01*
X102199995Y-122806879D01*
X102228404Y-122789852D01*
X102258344Y-122775691D01*
X102289529Y-122764533D01*
X102321657Y-122756485D01*
X102354419Y-122751625D01*
X102387500Y-122750000D01*
X103062500Y-122750000D01*
X103095581Y-122751625D01*
X103095581Y-122751625D01*
G37*
D18*
X102725000Y-123500000D03*
%TD*%
D15*
%TO.C,H6*%
X96000000Y-145500000D03*
%TD*%
%TO.C,H5*%
X96000000Y-117500000D03*
%TD*%
M02*
