%TF.GenerationSoftware,KiCad,Pcbnew,(5.1.0-0)*%
%TF.CreationDate,2020-07-09T23:17:02+02:00*%
%TF.ProjectId,POxiM-wristcomputer,504f7869-4d2d-4777-9269-7374636f6d70,A*%
%TF.SameCoordinates,Original*%
%TF.FileFunction,Copper,L3,Inr*%
%TF.FilePolarity,Positive*%
%FSLAX46Y46*%
G04 Gerber Fmt 4.6, Leading zero omitted, Abs format (unit mm)*
G04 Created by KiCad (PCBNEW (5.1.0-0)) date 2020-07-09 23:17:02*
%MOMM*%
%LPD*%
G04 APERTURE LIST*
%TA.AperFunction,ViaPad*%
%ADD10O,0.950000X1.250000*%
%TD*%
%TA.AperFunction,ViaPad*%
%ADD11O,1.550000X0.890000*%
%TD*%
%TA.AperFunction,ViaPad*%
%ADD12C,1.000000*%
%TD*%
%TA.AperFunction,ViaPad*%
%ADD13C,0.600000*%
%TD*%
%TA.AperFunction,Conductor*%
%ADD14C,0.200000*%
%TD*%
G04 APERTURE END LIST*
D10*
%TO.N,GND*%
%TO.C,J1*%
X107850000Y-129000000D03*
X107850000Y-134000000D03*
D11*
X110550000Y-128000000D03*
X110550000Y-135000000D03*
%TD*%
D12*
%TO.N,+3V3*%
%TO.C,TP9*%
X86500000Y-140250000D03*
%TD*%
%TO.N,/Signal conditioning/LEDOut.IR*%
%TO.C,TP8*%
X78250000Y-127500000D03*
%TD*%
%TO.N,GNDA*%
%TO.C,TP7*%
X76250000Y-136000000D03*
%TD*%
%TO.N,/Signal conditioning/LEDOut.Red*%
%TO.C,TP6*%
X84000000Y-127500000D03*
%TD*%
%TO.N,/Signal conditioning/PhotoDiode*%
%TO.C,TP5*%
X71250000Y-137750000D03*
%TD*%
%TO.N,GND*%
%TO.C,TP4*%
X103750000Y-129250000D03*
%TD*%
%TO.N,/USB interface/DataTX*%
%TO.C,TP3*%
X102250000Y-142500000D03*
%TD*%
%TO.N,/Microcontroller/SWIM*%
%TO.C,TP2*%
X100250000Y-138000000D03*
%TD*%
%TO.N,/USB interface/5V_input*%
%TO.C,TP1*%
X107750000Y-136500000D03*
%TD*%
D13*
%TO.N,GND*%
X93300000Y-140675000D03*
X90500000Y-133875000D03*
X110750000Y-121500000D03*
X106000000Y-116500000D03*
X94075000Y-140550000D03*
X98250000Y-116000000D03*
X90250000Y-119250000D03*
X90400000Y-125150000D03*
X90000000Y-118500000D03*
X87250000Y-134500000D03*
X85150000Y-131200000D03*
X85125000Y-129825000D03*
X94000000Y-130750000D03*
X93500000Y-132250000D03*
X96050000Y-133300000D03*
X96475000Y-136025000D03*
X94450000Y-138050000D03*
X105000000Y-115750000D03*
X99500000Y-115750000D03*
X101750000Y-115750000D03*
X93250000Y-116000000D03*
X102500000Y-138250000D03*
X102500000Y-140750000D03*
X110200000Y-136250000D03*
X108800000Y-136450000D03*
X108500000Y-137300000D03*
X107200000Y-137400000D03*
X107050000Y-135550000D03*
X108750000Y-139750000D03*
X103250000Y-143000000D03*
X98250000Y-141250000D03*
X100750000Y-143000000D03*
X105500000Y-142750000D03*
X99250000Y-147250000D03*
X106500000Y-141500000D03*
X106500000Y-140250000D03*
X108000000Y-141750000D03*
X110500000Y-142750000D03*
X105800000Y-147200000D03*
X107500000Y-143500000D03*
X99100000Y-121100000D03*
X96500000Y-121250000D03*
X103200000Y-126900000D03*
X98800000Y-131000000D03*
X100500000Y-133750000D03*
X100525000Y-135700000D03*
X102000000Y-135750000D03*
X102250000Y-134750000D03*
X87925000Y-128575000D03*
X88900000Y-128575000D03*
X105225000Y-119125000D03*
X103260000Y-121180000D03*
X101400000Y-119500000D03*
X96425000Y-123750000D03*
X75000000Y-116000000D03*
X70750000Y-123000000D03*
X70750000Y-121500000D03*
X70750000Y-119750000D03*
X87000000Y-115750000D03*
X85000000Y-115750000D03*
X83000000Y-115750000D03*
X81000000Y-115750000D03*
X70750000Y-128250000D03*
X70750000Y-130250000D03*
X70750000Y-133250000D03*
X84750000Y-147250000D03*
X82750000Y-147250000D03*
X80750000Y-147250000D03*
X74750000Y-147250000D03*
X70750000Y-143000000D03*
X86750000Y-147250000D03*
X88750000Y-147250000D03*
X92250000Y-147250000D03*
X97750000Y-147250000D03*
X70750000Y-141000000D03*
X70750000Y-139000000D03*
X85750000Y-141000000D03*
X79250000Y-130000000D03*
X84500000Y-128500000D03*
X78750000Y-147250000D03*
X77150000Y-147250000D03*
X89750000Y-147250000D03*
X84750000Y-142500000D03*
X86250000Y-142500000D03*
X87750000Y-142500000D03*
X72750000Y-147250000D03*
X70750000Y-147250000D03*
X70750000Y-145250000D03*
X107750000Y-147250000D03*
X109500000Y-147250000D03*
X111250000Y-147250000D03*
X111250000Y-145250000D03*
X111250000Y-143250000D03*
X111250000Y-141250000D03*
X111250000Y-139250000D03*
X111250000Y-137250000D03*
X111250000Y-115750000D03*
X111250000Y-117750000D03*
X111250000Y-119750000D03*
X111250000Y-122750000D03*
X109250000Y-115750000D03*
X107250000Y-115750000D03*
X73250000Y-140500000D03*
X75250000Y-142750000D03*
X78250000Y-141750000D03*
X80000000Y-141250000D03*
X81250000Y-145750000D03*
X87250000Y-144500000D03*
X83500000Y-144500000D03*
X75750000Y-134250000D03*
X77300000Y-137500000D03*
X80000000Y-126250000D03*
X77750000Y-126250000D03*
X81000000Y-133750000D03*
X85000000Y-137500000D03*
X88000000Y-136500000D03*
X82750000Y-139750000D03*
X107750000Y-126750000D03*
X80450000Y-122750000D03*
X87000000Y-120500000D03*
X85000000Y-120500000D03*
X70750000Y-117750000D03*
X70750000Y-115750000D03*
X72750000Y-115750000D03*
X82000000Y-118250000D03*
X76250000Y-120000000D03*
X73250000Y-131000000D03*
X73000000Y-124500000D03*
X93175000Y-120750000D03*
X95525000Y-126275000D03*
X100600000Y-121250000D03*
X93925000Y-118100000D03*
X103250000Y-119500000D03*
X79000000Y-119250000D03*
%TO.N,+5V*%
X106000000Y-118750000D03*
X103500000Y-127750000D03*
X109500000Y-142500000D03*
%TO.N,Net-(D21-Pad2)*%
X104250000Y-116250000D03*
%TO.N,/Signal conditioning/LEDOut.Red*%
X80250000Y-130250000D03*
%TO.N,Net-(D10-Pad1)*%
X95250000Y-123750000D03*
%TO.N,Net-(D14-Pad1)*%
X87250000Y-133500000D03*
X86000000Y-131500000D03*
X86000000Y-129750000D03*
X91250000Y-125000000D03*
%TO.N,Net-(D22-Pad1)*%
X91250000Y-119500000D03*
%TO.N,/Microcontroller/SWIM*%
X90375000Y-134750000D03*
X95750000Y-140500000D03*
%TO.N,/USB interface/DataTX*%
X89750000Y-143250000D03*
X100750000Y-142000000D03*
X89500000Y-142500000D03*
%TO.N,/Display/Segment0*%
X89750000Y-128500000D03*
%TO.N,/Display/Segment1*%
X93000000Y-130750000D03*
X103500000Y-120350000D03*
X101500000Y-120350000D03*
%TO.N,/Display/Segment2*%
X87250000Y-129250000D03*
%TO.N,/Display/Segment5*%
X95250000Y-133000000D03*
X96750000Y-137750000D03*
X95250000Y-137750000D03*
%TO.N,/Display/Segment6*%
X96000000Y-136750000D03*
%TO.N,/Display/Common0*%
X97250000Y-121750000D03*
X100500000Y-134750000D03*
%TO.N,/Display/Common1*%
X99750000Y-134250000D03*
X97250000Y-123500000D03*
%TO.N,/Display/Common2*%
X98250000Y-121250000D03*
X101250000Y-135250000D03*
%TO.N,/Display/Segment3*%
X94500000Y-131500000D03*
X99500000Y-130500000D03*
%TO.N,/Display/Segment4*%
X94000000Y-133000000D03*
%TO.N,+3V3*%
X108250000Y-140750000D03*
X98250000Y-144000000D03*
X85500000Y-143550000D03*
%TO.N,GNDA*%
X70750000Y-127250000D03*
X102500000Y-144000000D03*
X88000000Y-125500000D03*
X70750000Y-124750000D03*
X79750000Y-121500000D03*
X87000000Y-118000000D03*
X76500000Y-119000000D03*
%TO.N,GNDREF*%
X101250000Y-147000000D03*
X100500000Y-147000000D03*
X78275000Y-137525000D03*
X76275000Y-147250000D03*
%TD*%
D14*
%TO.N,GND*%
G36*
X111450000Y-127446933D02*
G01*
X111342465Y-127352871D01*
X111207330Y-127275083D01*
X111059616Y-127225153D01*
X110905000Y-127205000D01*
X110575000Y-127205000D01*
X110575000Y-127975000D01*
X110595000Y-127975000D01*
X110595000Y-128025000D01*
X110575000Y-128025000D01*
X110575000Y-128795000D01*
X110905000Y-128795000D01*
X111059616Y-128774847D01*
X111207330Y-128724917D01*
X111342465Y-128647129D01*
X111450000Y-128553067D01*
X111450001Y-134446933D01*
X111342465Y-134352871D01*
X111207330Y-134275083D01*
X111059616Y-134225153D01*
X110905000Y-134205000D01*
X110575000Y-134205000D01*
X110575000Y-134975000D01*
X110595000Y-134975000D01*
X110595000Y-135025000D01*
X110575000Y-135025000D01*
X110575000Y-135795000D01*
X110905000Y-135795000D01*
X111059616Y-135774847D01*
X111207330Y-135724917D01*
X111342465Y-135647129D01*
X111450001Y-135553067D01*
X111450001Y-147450000D01*
X101719239Y-147450000D01*
X101754888Y-147414351D01*
X101826022Y-147307890D01*
X101875021Y-147189598D01*
X101900000Y-147064019D01*
X101900000Y-146935981D01*
X101875021Y-146810402D01*
X101826022Y-146692110D01*
X101754888Y-146585649D01*
X101664351Y-146495112D01*
X101557890Y-146423978D01*
X101439598Y-146374979D01*
X101314019Y-146350000D01*
X101185981Y-146350000D01*
X101060402Y-146374979D01*
X100942110Y-146423978D01*
X100875000Y-146468819D01*
X100807890Y-146423978D01*
X100689598Y-146374979D01*
X100564019Y-146350000D01*
X100435981Y-146350000D01*
X100310402Y-146374979D01*
X100192110Y-146423978D01*
X100085649Y-146495112D01*
X99995112Y-146585649D01*
X99923978Y-146692110D01*
X99874979Y-146810402D01*
X99850000Y-146935981D01*
X99850000Y-147064019D01*
X99874979Y-147189598D01*
X99923978Y-147307890D01*
X99995112Y-147414351D01*
X100030761Y-147450000D01*
X76895712Y-147450000D01*
X76900021Y-147439598D01*
X76925000Y-147314019D01*
X76925000Y-147185981D01*
X76900021Y-147060402D01*
X76851022Y-146942110D01*
X76779888Y-146835649D01*
X76689351Y-146745112D01*
X76582890Y-146673978D01*
X76464598Y-146624979D01*
X76339019Y-146600000D01*
X76210981Y-146600000D01*
X76085402Y-146624979D01*
X75967110Y-146673978D01*
X75860649Y-146745112D01*
X75770112Y-146835649D01*
X75698978Y-146942110D01*
X75649979Y-147060402D01*
X75625000Y-147185981D01*
X75625000Y-147314019D01*
X75649979Y-147439598D01*
X75654288Y-147450000D01*
X70550000Y-147450000D01*
X70550000Y-145357187D01*
X71050000Y-145357187D01*
X71050000Y-145642813D01*
X71105723Y-145922949D01*
X71215027Y-146186833D01*
X71373711Y-146424321D01*
X71575679Y-146626289D01*
X71813167Y-146784973D01*
X72077051Y-146894277D01*
X72357187Y-146950000D01*
X72642813Y-146950000D01*
X72922949Y-146894277D01*
X73186833Y-146784973D01*
X73424321Y-146626289D01*
X73626289Y-146424321D01*
X73784973Y-146186833D01*
X73894277Y-145922949D01*
X73950000Y-145642813D01*
X73950000Y-145357187D01*
X73949021Y-145352263D01*
X94500000Y-145352263D01*
X94500000Y-145647737D01*
X94557644Y-145937534D01*
X94670717Y-146210517D01*
X94834874Y-146456194D01*
X95043806Y-146665126D01*
X95289483Y-146829283D01*
X95562466Y-146942356D01*
X95852263Y-147000000D01*
X96147737Y-147000000D01*
X96437534Y-146942356D01*
X96710517Y-146829283D01*
X96956194Y-146665126D01*
X97165126Y-146456194D01*
X97329283Y-146210517D01*
X97442356Y-145937534D01*
X97500000Y-145647737D01*
X97500000Y-145357187D01*
X108050000Y-145357187D01*
X108050000Y-145642813D01*
X108105723Y-145922949D01*
X108215027Y-146186833D01*
X108373711Y-146424321D01*
X108575679Y-146626289D01*
X108813167Y-146784973D01*
X109077051Y-146894277D01*
X109357187Y-146950000D01*
X109642813Y-146950000D01*
X109922949Y-146894277D01*
X110186833Y-146784973D01*
X110424321Y-146626289D01*
X110626289Y-146424321D01*
X110784973Y-146186833D01*
X110894277Y-145922949D01*
X110950000Y-145642813D01*
X110950000Y-145357187D01*
X110894277Y-145077051D01*
X110784973Y-144813167D01*
X110626289Y-144575679D01*
X110424321Y-144373711D01*
X110186833Y-144215027D01*
X109922949Y-144105723D01*
X109642813Y-144050000D01*
X109357187Y-144050000D01*
X109077051Y-144105723D01*
X108813167Y-144215027D01*
X108575679Y-144373711D01*
X108373711Y-144575679D01*
X108215027Y-144813167D01*
X108105723Y-145077051D01*
X108050000Y-145357187D01*
X97500000Y-145357187D01*
X97500000Y-145352263D01*
X97442356Y-145062466D01*
X97329283Y-144789483D01*
X97165126Y-144543806D01*
X96956194Y-144334874D01*
X96710517Y-144170717D01*
X96437534Y-144057644D01*
X96147737Y-144000000D01*
X95852263Y-144000000D01*
X95562466Y-144057644D01*
X95289483Y-144170717D01*
X95043806Y-144334874D01*
X94834874Y-144543806D01*
X94670717Y-144789483D01*
X94557644Y-145062466D01*
X94500000Y-145352263D01*
X73949021Y-145352263D01*
X73894277Y-145077051D01*
X73784973Y-144813167D01*
X73626289Y-144575679D01*
X73424321Y-144373711D01*
X73186833Y-144215027D01*
X72922949Y-144105723D01*
X72642813Y-144050000D01*
X72357187Y-144050000D01*
X72077051Y-144105723D01*
X71813167Y-144215027D01*
X71575679Y-144373711D01*
X71373711Y-144575679D01*
X71215027Y-144813167D01*
X71105723Y-145077051D01*
X71050000Y-145357187D01*
X70550000Y-145357187D01*
X70550000Y-143485981D01*
X84850000Y-143485981D01*
X84850000Y-143614019D01*
X84874979Y-143739598D01*
X84923978Y-143857890D01*
X84995112Y-143964351D01*
X85085649Y-144054888D01*
X85192110Y-144126022D01*
X85310402Y-144175021D01*
X85435981Y-144200000D01*
X85564019Y-144200000D01*
X85689598Y-144175021D01*
X85807890Y-144126022D01*
X85914351Y-144054888D01*
X86004888Y-143964351D01*
X86023843Y-143935981D01*
X97600000Y-143935981D01*
X97600000Y-144064019D01*
X97624979Y-144189598D01*
X97673978Y-144307890D01*
X97745112Y-144414351D01*
X97835649Y-144504888D01*
X97942110Y-144576022D01*
X98060402Y-144625021D01*
X98185981Y-144650000D01*
X98314019Y-144650000D01*
X98439598Y-144625021D01*
X98557890Y-144576022D01*
X98664351Y-144504888D01*
X98754888Y-144414351D01*
X98826022Y-144307890D01*
X98875021Y-144189598D01*
X98900000Y-144064019D01*
X98900000Y-143935981D01*
X101850000Y-143935981D01*
X101850000Y-144064019D01*
X101874979Y-144189598D01*
X101923978Y-144307890D01*
X101995112Y-144414351D01*
X102085649Y-144504888D01*
X102192110Y-144576022D01*
X102310402Y-144625021D01*
X102435981Y-144650000D01*
X102564019Y-144650000D01*
X102689598Y-144625021D01*
X102807890Y-144576022D01*
X102914351Y-144504888D01*
X103004888Y-144414351D01*
X103076022Y-144307890D01*
X103125021Y-144189598D01*
X103150000Y-144064019D01*
X103150000Y-143935981D01*
X103125021Y-143810402D01*
X103076022Y-143692110D01*
X103004888Y-143585649D01*
X102914351Y-143495112D01*
X102807890Y-143423978D01*
X102689598Y-143374979D01*
X102564019Y-143350000D01*
X102435981Y-143350000D01*
X102310402Y-143374979D01*
X102192110Y-143423978D01*
X102085649Y-143495112D01*
X101995112Y-143585649D01*
X101923978Y-143692110D01*
X101874979Y-143810402D01*
X101850000Y-143935981D01*
X98900000Y-143935981D01*
X98875021Y-143810402D01*
X98826022Y-143692110D01*
X98754888Y-143585649D01*
X98664351Y-143495112D01*
X98557890Y-143423978D01*
X98439598Y-143374979D01*
X98314019Y-143350000D01*
X98185981Y-143350000D01*
X98060402Y-143374979D01*
X97942110Y-143423978D01*
X97835649Y-143495112D01*
X97745112Y-143585649D01*
X97673978Y-143692110D01*
X97624979Y-143810402D01*
X97600000Y-143935981D01*
X86023843Y-143935981D01*
X86076022Y-143857890D01*
X86125021Y-143739598D01*
X86150000Y-143614019D01*
X86150000Y-143485981D01*
X86125021Y-143360402D01*
X86076022Y-143242110D01*
X86004888Y-143135649D01*
X85914351Y-143045112D01*
X85807890Y-142973978D01*
X85689598Y-142924979D01*
X85564019Y-142900000D01*
X85435981Y-142900000D01*
X85310402Y-142924979D01*
X85192110Y-142973978D01*
X85085649Y-143045112D01*
X84995112Y-143135649D01*
X84923978Y-143242110D01*
X84874979Y-143360402D01*
X84850000Y-143485981D01*
X70550000Y-143485981D01*
X70550000Y-142435981D01*
X88850000Y-142435981D01*
X88850000Y-142564019D01*
X88874979Y-142689598D01*
X88923978Y-142807890D01*
X88995112Y-142914351D01*
X89085649Y-143004888D01*
X89134464Y-143037504D01*
X89124979Y-143060402D01*
X89100000Y-143185981D01*
X89100000Y-143314019D01*
X89124979Y-143439598D01*
X89173978Y-143557890D01*
X89245112Y-143664351D01*
X89335649Y-143754888D01*
X89442110Y-143826022D01*
X89560402Y-143875021D01*
X89685981Y-143900000D01*
X89814019Y-143900000D01*
X89939598Y-143875021D01*
X90057890Y-143826022D01*
X90164351Y-143754888D01*
X90254888Y-143664351D01*
X90326022Y-143557890D01*
X90375021Y-143439598D01*
X90400000Y-143314019D01*
X90400000Y-143185981D01*
X90375021Y-143060402D01*
X90326022Y-142942110D01*
X90254888Y-142835649D01*
X90164351Y-142745112D01*
X90115536Y-142712496D01*
X90125021Y-142689598D01*
X90150000Y-142564019D01*
X90150000Y-142435981D01*
X90125021Y-142310402D01*
X90076022Y-142192110D01*
X90004888Y-142085649D01*
X89914351Y-141995112D01*
X89825855Y-141935981D01*
X100100000Y-141935981D01*
X100100000Y-142064019D01*
X100124979Y-142189598D01*
X100173978Y-142307890D01*
X100245112Y-142414351D01*
X100335649Y-142504888D01*
X100442110Y-142576022D01*
X100560402Y-142625021D01*
X100685981Y-142650000D01*
X100814019Y-142650000D01*
X100939598Y-142625021D01*
X101057890Y-142576022D01*
X101164351Y-142504888D01*
X101252957Y-142416282D01*
X101400000Y-142416282D01*
X101400000Y-142583718D01*
X101432665Y-142747936D01*
X101496740Y-142902626D01*
X101589762Y-143041844D01*
X101708156Y-143160238D01*
X101847374Y-143253260D01*
X102002064Y-143317335D01*
X102166282Y-143350000D01*
X102333718Y-143350000D01*
X102497936Y-143317335D01*
X102652626Y-143253260D01*
X102791844Y-143160238D01*
X102910238Y-143041844D01*
X103003260Y-142902626D01*
X103067335Y-142747936D01*
X103100000Y-142583718D01*
X103100000Y-142435981D01*
X108850000Y-142435981D01*
X108850000Y-142564019D01*
X108874979Y-142689598D01*
X108923978Y-142807890D01*
X108995112Y-142914351D01*
X109085649Y-143004888D01*
X109192110Y-143076022D01*
X109310402Y-143125021D01*
X109435981Y-143150000D01*
X109564019Y-143150000D01*
X109689598Y-143125021D01*
X109807890Y-143076022D01*
X109914351Y-143004888D01*
X110004888Y-142914351D01*
X110076022Y-142807890D01*
X110125021Y-142689598D01*
X110150000Y-142564019D01*
X110150000Y-142435981D01*
X110125021Y-142310402D01*
X110076022Y-142192110D01*
X110004888Y-142085649D01*
X109914351Y-141995112D01*
X109807890Y-141923978D01*
X109689598Y-141874979D01*
X109564019Y-141850000D01*
X109435981Y-141850000D01*
X109310402Y-141874979D01*
X109192110Y-141923978D01*
X109085649Y-141995112D01*
X108995112Y-142085649D01*
X108923978Y-142192110D01*
X108874979Y-142310402D01*
X108850000Y-142435981D01*
X103100000Y-142435981D01*
X103100000Y-142416282D01*
X103067335Y-142252064D01*
X103003260Y-142097374D01*
X102910238Y-141958156D01*
X102791844Y-141839762D01*
X102652626Y-141746740D01*
X102497936Y-141682665D01*
X102333718Y-141650000D01*
X102166282Y-141650000D01*
X102002064Y-141682665D01*
X101847374Y-141746740D01*
X101708156Y-141839762D01*
X101589762Y-141958156D01*
X101496740Y-142097374D01*
X101432665Y-142252064D01*
X101400000Y-142416282D01*
X101252957Y-142416282D01*
X101254888Y-142414351D01*
X101326022Y-142307890D01*
X101375021Y-142189598D01*
X101400000Y-142064019D01*
X101400000Y-141935981D01*
X101375021Y-141810402D01*
X101326022Y-141692110D01*
X101254888Y-141585649D01*
X101164351Y-141495112D01*
X101057890Y-141423978D01*
X100939598Y-141374979D01*
X100814019Y-141350000D01*
X100685981Y-141350000D01*
X100560402Y-141374979D01*
X100442110Y-141423978D01*
X100335649Y-141495112D01*
X100245112Y-141585649D01*
X100173978Y-141692110D01*
X100124979Y-141810402D01*
X100100000Y-141935981D01*
X89825855Y-141935981D01*
X89807890Y-141923978D01*
X89689598Y-141874979D01*
X89564019Y-141850000D01*
X89435981Y-141850000D01*
X89310402Y-141874979D01*
X89192110Y-141923978D01*
X89085649Y-141995112D01*
X88995112Y-142085649D01*
X88923978Y-142192110D01*
X88874979Y-142310402D01*
X88850000Y-142435981D01*
X70550000Y-142435981D01*
X70550000Y-140166282D01*
X85650000Y-140166282D01*
X85650000Y-140333718D01*
X85682665Y-140497936D01*
X85746740Y-140652626D01*
X85839762Y-140791844D01*
X85958156Y-140910238D01*
X86097374Y-141003260D01*
X86252064Y-141067335D01*
X86416282Y-141100000D01*
X86583718Y-141100000D01*
X86747936Y-141067335D01*
X86902626Y-141003260D01*
X87041844Y-140910238D01*
X87160238Y-140791844D01*
X87253260Y-140652626D01*
X87317335Y-140497936D01*
X87329658Y-140435981D01*
X95100000Y-140435981D01*
X95100000Y-140564019D01*
X95124979Y-140689598D01*
X95173978Y-140807890D01*
X95245112Y-140914351D01*
X95335649Y-141004888D01*
X95442110Y-141076022D01*
X95560402Y-141125021D01*
X95685981Y-141150000D01*
X95814019Y-141150000D01*
X95939598Y-141125021D01*
X96057890Y-141076022D01*
X96164351Y-141004888D01*
X96254888Y-140914351D01*
X96326022Y-140807890D01*
X96375021Y-140689598D01*
X96375740Y-140685981D01*
X107600000Y-140685981D01*
X107600000Y-140814019D01*
X107624979Y-140939598D01*
X107673978Y-141057890D01*
X107745112Y-141164351D01*
X107835649Y-141254888D01*
X107942110Y-141326022D01*
X108060402Y-141375021D01*
X108185981Y-141400000D01*
X108314019Y-141400000D01*
X108439598Y-141375021D01*
X108557890Y-141326022D01*
X108664351Y-141254888D01*
X108754888Y-141164351D01*
X108826022Y-141057890D01*
X108875021Y-140939598D01*
X108900000Y-140814019D01*
X108900000Y-140685981D01*
X108875021Y-140560402D01*
X108826022Y-140442110D01*
X108754888Y-140335649D01*
X108664351Y-140245112D01*
X108557890Y-140173978D01*
X108439598Y-140124979D01*
X108314019Y-140100000D01*
X108185981Y-140100000D01*
X108060402Y-140124979D01*
X107942110Y-140173978D01*
X107835649Y-140245112D01*
X107745112Y-140335649D01*
X107673978Y-140442110D01*
X107624979Y-140560402D01*
X107600000Y-140685981D01*
X96375740Y-140685981D01*
X96400000Y-140564019D01*
X96400000Y-140435981D01*
X96375021Y-140310402D01*
X96326022Y-140192110D01*
X96254888Y-140085649D01*
X96164351Y-139995112D01*
X96057890Y-139923978D01*
X95939598Y-139874979D01*
X95814019Y-139850000D01*
X95685981Y-139850000D01*
X95560402Y-139874979D01*
X95442110Y-139923978D01*
X95335649Y-139995112D01*
X95245112Y-140085649D01*
X95173978Y-140192110D01*
X95124979Y-140310402D01*
X95100000Y-140435981D01*
X87329658Y-140435981D01*
X87350000Y-140333718D01*
X87350000Y-140166282D01*
X87317335Y-140002064D01*
X87253260Y-139847374D01*
X87160238Y-139708156D01*
X87041844Y-139589762D01*
X86902626Y-139496740D01*
X86747936Y-139432665D01*
X86583718Y-139400000D01*
X86416282Y-139400000D01*
X86252064Y-139432665D01*
X86097374Y-139496740D01*
X85958156Y-139589762D01*
X85839762Y-139708156D01*
X85746740Y-139847374D01*
X85682665Y-140002064D01*
X85650000Y-140166282D01*
X70550000Y-140166282D01*
X70550000Y-138232336D01*
X70589762Y-138291844D01*
X70708156Y-138410238D01*
X70847374Y-138503260D01*
X71002064Y-138567335D01*
X71166282Y-138600000D01*
X71333718Y-138600000D01*
X71497936Y-138567335D01*
X71652626Y-138503260D01*
X71791844Y-138410238D01*
X71910238Y-138291844D01*
X72003260Y-138152626D01*
X72067335Y-137997936D01*
X72100000Y-137833718D01*
X72100000Y-137666282D01*
X72067335Y-137502064D01*
X72050318Y-137460981D01*
X77625000Y-137460981D01*
X77625000Y-137589019D01*
X77649979Y-137714598D01*
X77698978Y-137832890D01*
X77770112Y-137939351D01*
X77860649Y-138029888D01*
X77967110Y-138101022D01*
X78085402Y-138150021D01*
X78210981Y-138175000D01*
X78339019Y-138175000D01*
X78464598Y-138150021D01*
X78582890Y-138101022D01*
X78689351Y-138029888D01*
X78779888Y-137939351D01*
X78851022Y-137832890D01*
X78900021Y-137714598D01*
X78905713Y-137685981D01*
X94600000Y-137685981D01*
X94600000Y-137814019D01*
X94624979Y-137939598D01*
X94673978Y-138057890D01*
X94745112Y-138164351D01*
X94835649Y-138254888D01*
X94942110Y-138326022D01*
X95060402Y-138375021D01*
X95185981Y-138400000D01*
X95314019Y-138400000D01*
X95439598Y-138375021D01*
X95557890Y-138326022D01*
X95664351Y-138254888D01*
X95754888Y-138164351D01*
X95826022Y-138057890D01*
X95875021Y-137939598D01*
X95900000Y-137814019D01*
X95900000Y-137685981D01*
X95875021Y-137560402D01*
X95826022Y-137442110D01*
X95770018Y-137358293D01*
X95810402Y-137375021D01*
X95935981Y-137400000D01*
X96064019Y-137400000D01*
X96189598Y-137375021D01*
X96229982Y-137358293D01*
X96173978Y-137442110D01*
X96124979Y-137560402D01*
X96100000Y-137685981D01*
X96100000Y-137814019D01*
X96124979Y-137939598D01*
X96173978Y-138057890D01*
X96245112Y-138164351D01*
X96335649Y-138254888D01*
X96442110Y-138326022D01*
X96560402Y-138375021D01*
X96685981Y-138400000D01*
X96814019Y-138400000D01*
X96939598Y-138375021D01*
X97057890Y-138326022D01*
X97164351Y-138254888D01*
X97254888Y-138164351D01*
X97326022Y-138057890D01*
X97375021Y-137939598D01*
X97379658Y-137916282D01*
X99400000Y-137916282D01*
X99400000Y-138083718D01*
X99432665Y-138247936D01*
X99496740Y-138402626D01*
X99589762Y-138541844D01*
X99708156Y-138660238D01*
X99847374Y-138753260D01*
X100002064Y-138817335D01*
X100166282Y-138850000D01*
X100333718Y-138850000D01*
X100497936Y-138817335D01*
X100652626Y-138753260D01*
X100791844Y-138660238D01*
X100910238Y-138541844D01*
X101003260Y-138402626D01*
X101067335Y-138247936D01*
X101100000Y-138083718D01*
X101100000Y-137916282D01*
X101067335Y-137752064D01*
X101003260Y-137597374D01*
X100910238Y-137458156D01*
X100791844Y-137339762D01*
X100652626Y-137246740D01*
X100497936Y-137182665D01*
X100333718Y-137150000D01*
X100166282Y-137150000D01*
X100002064Y-137182665D01*
X99847374Y-137246740D01*
X99708156Y-137339762D01*
X99589762Y-137458156D01*
X99496740Y-137597374D01*
X99432665Y-137752064D01*
X99400000Y-137916282D01*
X97379658Y-137916282D01*
X97400000Y-137814019D01*
X97400000Y-137685981D01*
X97375021Y-137560402D01*
X97326022Y-137442110D01*
X97254888Y-137335649D01*
X97164351Y-137245112D01*
X97057890Y-137173978D01*
X96939598Y-137124979D01*
X96814019Y-137100000D01*
X96685981Y-137100000D01*
X96560402Y-137124979D01*
X96520018Y-137141707D01*
X96576022Y-137057890D01*
X96625021Y-136939598D01*
X96650000Y-136814019D01*
X96650000Y-136685981D01*
X96625021Y-136560402D01*
X96576022Y-136442110D01*
X96558765Y-136416282D01*
X106900000Y-136416282D01*
X106900000Y-136583718D01*
X106932665Y-136747936D01*
X106996740Y-136902626D01*
X107089762Y-137041844D01*
X107208156Y-137160238D01*
X107347374Y-137253260D01*
X107502064Y-137317335D01*
X107666282Y-137350000D01*
X107833718Y-137350000D01*
X107997936Y-137317335D01*
X108152626Y-137253260D01*
X108291844Y-137160238D01*
X108410238Y-137041844D01*
X108503260Y-136902626D01*
X108567335Y-136747936D01*
X108600000Y-136583718D01*
X108600000Y-136416282D01*
X108567335Y-136252064D01*
X108503260Y-136097374D01*
X108410238Y-135958156D01*
X108291844Y-135839762D01*
X108152626Y-135746740D01*
X107997936Y-135682665D01*
X107833718Y-135650000D01*
X107666282Y-135650000D01*
X107502064Y-135682665D01*
X107347374Y-135746740D01*
X107208156Y-135839762D01*
X107089762Y-135958156D01*
X106996740Y-136097374D01*
X106932665Y-136252064D01*
X106900000Y-136416282D01*
X96558765Y-136416282D01*
X96504888Y-136335649D01*
X96414351Y-136245112D01*
X96307890Y-136173978D01*
X96189598Y-136124979D01*
X96064019Y-136100000D01*
X95935981Y-136100000D01*
X95810402Y-136124979D01*
X95692110Y-136173978D01*
X95585649Y-136245112D01*
X95495112Y-136335649D01*
X95423978Y-136442110D01*
X95374979Y-136560402D01*
X95350000Y-136685981D01*
X95350000Y-136814019D01*
X95374979Y-136939598D01*
X95423978Y-137057890D01*
X95479982Y-137141707D01*
X95439598Y-137124979D01*
X95314019Y-137100000D01*
X95185981Y-137100000D01*
X95060402Y-137124979D01*
X94942110Y-137173978D01*
X94835649Y-137245112D01*
X94745112Y-137335649D01*
X94673978Y-137442110D01*
X94624979Y-137560402D01*
X94600000Y-137685981D01*
X78905713Y-137685981D01*
X78925000Y-137589019D01*
X78925000Y-137460981D01*
X78900021Y-137335402D01*
X78851022Y-137217110D01*
X78779888Y-137110649D01*
X78689351Y-137020112D01*
X78582890Y-136948978D01*
X78464598Y-136899979D01*
X78339019Y-136875000D01*
X78210981Y-136875000D01*
X78085402Y-136899979D01*
X77967110Y-136948978D01*
X77860649Y-137020112D01*
X77770112Y-137110649D01*
X77698978Y-137217110D01*
X77649979Y-137335402D01*
X77625000Y-137460981D01*
X72050318Y-137460981D01*
X72003260Y-137347374D01*
X71910238Y-137208156D01*
X71791844Y-137089762D01*
X71652626Y-136996740D01*
X71497936Y-136932665D01*
X71333718Y-136900000D01*
X71166282Y-136900000D01*
X71002064Y-136932665D01*
X70847374Y-136996740D01*
X70708156Y-137089762D01*
X70589762Y-137208156D01*
X70550000Y-137267664D01*
X70550000Y-135916282D01*
X75400000Y-135916282D01*
X75400000Y-136083718D01*
X75432665Y-136247936D01*
X75496740Y-136402626D01*
X75589762Y-136541844D01*
X75708156Y-136660238D01*
X75847374Y-136753260D01*
X76002064Y-136817335D01*
X76166282Y-136850000D01*
X76333718Y-136850000D01*
X76497936Y-136817335D01*
X76652626Y-136753260D01*
X76791844Y-136660238D01*
X76910238Y-136541844D01*
X77003260Y-136402626D01*
X77067335Y-136247936D01*
X77100000Y-136083718D01*
X77100000Y-135916282D01*
X77067335Y-135752064D01*
X77003260Y-135597374D01*
X76910238Y-135458156D01*
X76791844Y-135339762D01*
X76652626Y-135246740D01*
X76497936Y-135182665D01*
X76333718Y-135150000D01*
X76166282Y-135150000D01*
X76002064Y-135182665D01*
X75847374Y-135246740D01*
X75708156Y-135339762D01*
X75589762Y-135458156D01*
X75496740Y-135597374D01*
X75432665Y-135752064D01*
X75400000Y-135916282D01*
X70550000Y-135916282D01*
X70550000Y-134685981D01*
X89725000Y-134685981D01*
X89725000Y-134814019D01*
X89749979Y-134939598D01*
X89798978Y-135057890D01*
X89870112Y-135164351D01*
X89960649Y-135254888D01*
X90067110Y-135326022D01*
X90185402Y-135375021D01*
X90310981Y-135400000D01*
X90439019Y-135400000D01*
X90564598Y-135375021D01*
X90682890Y-135326022D01*
X90789351Y-135254888D01*
X90879888Y-135164351D01*
X90951022Y-135057890D01*
X91000021Y-134939598D01*
X91025000Y-134814019D01*
X91025000Y-134685981D01*
X91000021Y-134560402D01*
X90951022Y-134442110D01*
X90879888Y-134335649D01*
X90789351Y-134245112D01*
X90700855Y-134185981D01*
X99100000Y-134185981D01*
X99100000Y-134314019D01*
X99124979Y-134439598D01*
X99173978Y-134557890D01*
X99245112Y-134664351D01*
X99335649Y-134754888D01*
X99442110Y-134826022D01*
X99560402Y-134875021D01*
X99685981Y-134900000D01*
X99814019Y-134900000D01*
X99865082Y-134889843D01*
X99874979Y-134939598D01*
X99923978Y-135057890D01*
X99995112Y-135164351D01*
X100085649Y-135254888D01*
X100192110Y-135326022D01*
X100310402Y-135375021D01*
X100435981Y-135400000D01*
X100564019Y-135400000D01*
X100615082Y-135389843D01*
X100624979Y-135439598D01*
X100673978Y-135557890D01*
X100745112Y-135664351D01*
X100835649Y-135754888D01*
X100942110Y-135826022D01*
X101060402Y-135875021D01*
X101185981Y-135900000D01*
X101314019Y-135900000D01*
X101439598Y-135875021D01*
X101557890Y-135826022D01*
X101664351Y-135754888D01*
X101754888Y-135664351D01*
X101826022Y-135557890D01*
X101875021Y-135439598D01*
X101900000Y-135314019D01*
X101900000Y-135185981D01*
X101892644Y-135148996D01*
X109439087Y-135148996D01*
X109475949Y-135281136D01*
X109545093Y-135420891D01*
X109640173Y-135544472D01*
X109757535Y-135647129D01*
X109892670Y-135724917D01*
X110040384Y-135774847D01*
X110195000Y-135795000D01*
X110525000Y-135795000D01*
X110525000Y-135025000D01*
X109512942Y-135025000D01*
X109439087Y-135148996D01*
X101892644Y-135148996D01*
X101875021Y-135060402D01*
X101826022Y-134942110D01*
X101754888Y-134835649D01*
X101664351Y-134745112D01*
X101557890Y-134673978D01*
X101439598Y-134624979D01*
X101314019Y-134600000D01*
X101185981Y-134600000D01*
X101134918Y-134610157D01*
X101125021Y-134560402D01*
X101076022Y-134442110D01*
X101004888Y-134335649D01*
X100914351Y-134245112D01*
X100807890Y-134173978D01*
X100689598Y-134124979D01*
X100564019Y-134100000D01*
X100435981Y-134100000D01*
X100384918Y-134110157D01*
X100375021Y-134060402D01*
X100360357Y-134025000D01*
X107025000Y-134025000D01*
X107025000Y-134175000D01*
X107045729Y-134335469D01*
X107097366Y-134488811D01*
X107177926Y-134629132D01*
X107284314Y-134751041D01*
X107412441Y-134849852D01*
X107557383Y-134921768D01*
X107696309Y-134960558D01*
X107825000Y-134887076D01*
X107825000Y-134025000D01*
X107875000Y-134025000D01*
X107875000Y-134887076D01*
X108003691Y-134960558D01*
X108142617Y-134921768D01*
X108285237Y-134851004D01*
X109439087Y-134851004D01*
X109512942Y-134975000D01*
X110525000Y-134975000D01*
X110525000Y-134205000D01*
X110195000Y-134205000D01*
X110040384Y-134225153D01*
X109892670Y-134275083D01*
X109757535Y-134352871D01*
X109640173Y-134455528D01*
X109545093Y-134579109D01*
X109475949Y-134718864D01*
X109439087Y-134851004D01*
X108285237Y-134851004D01*
X108287559Y-134849852D01*
X108415686Y-134751041D01*
X108522074Y-134629132D01*
X108602634Y-134488811D01*
X108654271Y-134335469D01*
X108675000Y-134175000D01*
X108675000Y-134025000D01*
X107875000Y-134025000D01*
X107825000Y-134025000D01*
X107025000Y-134025000D01*
X100360357Y-134025000D01*
X100326022Y-133942110D01*
X100254888Y-133835649D01*
X100244239Y-133825000D01*
X107025000Y-133825000D01*
X107025000Y-133975000D01*
X107825000Y-133975000D01*
X107825000Y-133112924D01*
X107875000Y-133112924D01*
X107875000Y-133975000D01*
X108675000Y-133975000D01*
X108675000Y-133825000D01*
X108654271Y-133664531D01*
X108602634Y-133511189D01*
X108522074Y-133370868D01*
X108415686Y-133248959D01*
X108287559Y-133150148D01*
X108142617Y-133078232D01*
X108003691Y-133039442D01*
X107875000Y-133112924D01*
X107825000Y-133112924D01*
X107696309Y-133039442D01*
X107557383Y-133078232D01*
X107412441Y-133150148D01*
X107284314Y-133248959D01*
X107177926Y-133370868D01*
X107097366Y-133511189D01*
X107045729Y-133664531D01*
X107025000Y-133825000D01*
X100244239Y-133825000D01*
X100164351Y-133745112D01*
X100057890Y-133673978D01*
X99939598Y-133624979D01*
X99814019Y-133600000D01*
X99685981Y-133600000D01*
X99560402Y-133624979D01*
X99442110Y-133673978D01*
X99335649Y-133745112D01*
X99245112Y-133835649D01*
X99173978Y-133942110D01*
X99124979Y-134060402D01*
X99100000Y-134185981D01*
X90700855Y-134185981D01*
X90682890Y-134173978D01*
X90564598Y-134124979D01*
X90439019Y-134100000D01*
X90310981Y-134100000D01*
X90185402Y-134124979D01*
X90067110Y-134173978D01*
X89960649Y-134245112D01*
X89870112Y-134335649D01*
X89798978Y-134442110D01*
X89749979Y-134560402D01*
X89725000Y-134685981D01*
X70550000Y-134685981D01*
X70550000Y-133435981D01*
X86600000Y-133435981D01*
X86600000Y-133564019D01*
X86624979Y-133689598D01*
X86673978Y-133807890D01*
X86745112Y-133914351D01*
X86835649Y-134004888D01*
X86942110Y-134076022D01*
X87060402Y-134125021D01*
X87185981Y-134150000D01*
X87314019Y-134150000D01*
X87439598Y-134125021D01*
X87557890Y-134076022D01*
X87664351Y-134004888D01*
X87754888Y-133914351D01*
X87826022Y-133807890D01*
X87875021Y-133689598D01*
X87900000Y-133564019D01*
X87900000Y-133435981D01*
X87875021Y-133310402D01*
X87826022Y-133192110D01*
X87754888Y-133085649D01*
X87664351Y-132995112D01*
X87575855Y-132935981D01*
X93350000Y-132935981D01*
X93350000Y-133064019D01*
X93374979Y-133189598D01*
X93423978Y-133307890D01*
X93495112Y-133414351D01*
X93585649Y-133504888D01*
X93692110Y-133576022D01*
X93810402Y-133625021D01*
X93935981Y-133650000D01*
X94064019Y-133650000D01*
X94189598Y-133625021D01*
X94307890Y-133576022D01*
X94414351Y-133504888D01*
X94504888Y-133414351D01*
X94576022Y-133307890D01*
X94625000Y-133189649D01*
X94673978Y-133307890D01*
X94745112Y-133414351D01*
X94835649Y-133504888D01*
X94942110Y-133576022D01*
X95060402Y-133625021D01*
X95185981Y-133650000D01*
X95314019Y-133650000D01*
X95439598Y-133625021D01*
X95557890Y-133576022D01*
X95664351Y-133504888D01*
X95754888Y-133414351D01*
X95826022Y-133307890D01*
X95875021Y-133189598D01*
X95900000Y-133064019D01*
X95900000Y-132935981D01*
X95875021Y-132810402D01*
X95826022Y-132692110D01*
X95754888Y-132585649D01*
X95664351Y-132495112D01*
X95557890Y-132423978D01*
X95439598Y-132374979D01*
X95314019Y-132350000D01*
X95185981Y-132350000D01*
X95060402Y-132374979D01*
X94942110Y-132423978D01*
X94835649Y-132495112D01*
X94745112Y-132585649D01*
X94673978Y-132692110D01*
X94625000Y-132810351D01*
X94576022Y-132692110D01*
X94504888Y-132585649D01*
X94414351Y-132495112D01*
X94307890Y-132423978D01*
X94189598Y-132374979D01*
X94064019Y-132350000D01*
X93935981Y-132350000D01*
X93810402Y-132374979D01*
X93692110Y-132423978D01*
X93585649Y-132495112D01*
X93495112Y-132585649D01*
X93423978Y-132692110D01*
X93374979Y-132810402D01*
X93350000Y-132935981D01*
X87575855Y-132935981D01*
X87557890Y-132923978D01*
X87439598Y-132874979D01*
X87314019Y-132850000D01*
X87185981Y-132850000D01*
X87060402Y-132874979D01*
X86942110Y-132923978D01*
X86835649Y-132995112D01*
X86745112Y-133085649D01*
X86673978Y-133192110D01*
X86624979Y-133310402D01*
X86600000Y-133435981D01*
X70550000Y-133435981D01*
X70550000Y-131381810D01*
X73900000Y-131381810D01*
X73900000Y-131618190D01*
X73946116Y-131850027D01*
X74036574Y-132068413D01*
X74167899Y-132264955D01*
X74335045Y-132432101D01*
X74531587Y-132563426D01*
X74749973Y-132653884D01*
X74981810Y-132700000D01*
X75218190Y-132700000D01*
X75450027Y-132653884D01*
X75668413Y-132563426D01*
X75864955Y-132432101D01*
X76032101Y-132264955D01*
X76163426Y-132068413D01*
X76253884Y-131850027D01*
X76300000Y-131618190D01*
X76300000Y-131381810D01*
X80900000Y-131381810D01*
X80900000Y-131618190D01*
X80946116Y-131850027D01*
X81036574Y-132068413D01*
X81167899Y-132264955D01*
X81335045Y-132432101D01*
X81531587Y-132563426D01*
X81749973Y-132653884D01*
X81981810Y-132700000D01*
X82218190Y-132700000D01*
X82450027Y-132653884D01*
X82668413Y-132563426D01*
X82864955Y-132432101D01*
X83032101Y-132264955D01*
X83163426Y-132068413D01*
X83253884Y-131850027D01*
X83300000Y-131618190D01*
X83300000Y-131435981D01*
X85350000Y-131435981D01*
X85350000Y-131564019D01*
X85374979Y-131689598D01*
X85423978Y-131807890D01*
X85495112Y-131914351D01*
X85585649Y-132004888D01*
X85692110Y-132076022D01*
X85810402Y-132125021D01*
X85935981Y-132150000D01*
X86064019Y-132150000D01*
X86189598Y-132125021D01*
X86307890Y-132076022D01*
X86414351Y-132004888D01*
X86504888Y-131914351D01*
X86576022Y-131807890D01*
X86625021Y-131689598D01*
X86650000Y-131564019D01*
X86650000Y-131435981D01*
X93850000Y-131435981D01*
X93850000Y-131564019D01*
X93874979Y-131689598D01*
X93923978Y-131807890D01*
X93995112Y-131914351D01*
X94085649Y-132004888D01*
X94192110Y-132076022D01*
X94310402Y-132125021D01*
X94435981Y-132150000D01*
X94564019Y-132150000D01*
X94689598Y-132125021D01*
X94807890Y-132076022D01*
X94914351Y-132004888D01*
X95004888Y-131914351D01*
X95076022Y-131807890D01*
X95125021Y-131689598D01*
X95150000Y-131564019D01*
X95150000Y-131435981D01*
X95125021Y-131310402D01*
X95076022Y-131192110D01*
X95004888Y-131085649D01*
X94914351Y-130995112D01*
X94807890Y-130923978D01*
X94689598Y-130874979D01*
X94564019Y-130850000D01*
X94435981Y-130850000D01*
X94310402Y-130874979D01*
X94192110Y-130923978D01*
X94085649Y-130995112D01*
X93995112Y-131085649D01*
X93923978Y-131192110D01*
X93874979Y-131310402D01*
X93850000Y-131435981D01*
X86650000Y-131435981D01*
X86625021Y-131310402D01*
X86576022Y-131192110D01*
X86504888Y-131085649D01*
X86414351Y-130995112D01*
X86307890Y-130923978D01*
X86189598Y-130874979D01*
X86064019Y-130850000D01*
X85935981Y-130850000D01*
X85810402Y-130874979D01*
X85692110Y-130923978D01*
X85585649Y-130995112D01*
X85495112Y-131085649D01*
X85423978Y-131192110D01*
X85374979Y-131310402D01*
X85350000Y-131435981D01*
X83300000Y-131435981D01*
X83300000Y-131381810D01*
X83253884Y-131149973D01*
X83163426Y-130931587D01*
X83032101Y-130735045D01*
X82983037Y-130685981D01*
X92350000Y-130685981D01*
X92350000Y-130814019D01*
X92374979Y-130939598D01*
X92423978Y-131057890D01*
X92495112Y-131164351D01*
X92585649Y-131254888D01*
X92692110Y-131326022D01*
X92810402Y-131375021D01*
X92935981Y-131400000D01*
X93064019Y-131400000D01*
X93189598Y-131375021D01*
X93307890Y-131326022D01*
X93414351Y-131254888D01*
X93504888Y-131164351D01*
X93576022Y-131057890D01*
X93625021Y-130939598D01*
X93650000Y-130814019D01*
X93650000Y-130685981D01*
X93625021Y-130560402D01*
X93576022Y-130442110D01*
X93571927Y-130435981D01*
X98850000Y-130435981D01*
X98850000Y-130564019D01*
X98874979Y-130689598D01*
X98923978Y-130807890D01*
X98995112Y-130914351D01*
X99085649Y-131004888D01*
X99192110Y-131076022D01*
X99310402Y-131125021D01*
X99435981Y-131150000D01*
X99564019Y-131150000D01*
X99689598Y-131125021D01*
X99807890Y-131076022D01*
X99914351Y-131004888D01*
X100004888Y-130914351D01*
X100076022Y-130807890D01*
X100125021Y-130689598D01*
X100150000Y-130564019D01*
X100150000Y-130435981D01*
X100125021Y-130310402D01*
X100076022Y-130192110D01*
X100004888Y-130085649D01*
X99914351Y-129995112D01*
X99807890Y-129923978D01*
X99689598Y-129874979D01*
X99564019Y-129850000D01*
X99435981Y-129850000D01*
X99310402Y-129874979D01*
X99192110Y-129923978D01*
X99085649Y-129995112D01*
X98995112Y-130085649D01*
X98923978Y-130192110D01*
X98874979Y-130310402D01*
X98850000Y-130435981D01*
X93571927Y-130435981D01*
X93504888Y-130335649D01*
X93414351Y-130245112D01*
X93307890Y-130173978D01*
X93189598Y-130124979D01*
X93064019Y-130100000D01*
X92935981Y-130100000D01*
X92810402Y-130124979D01*
X92692110Y-130173978D01*
X92585649Y-130245112D01*
X92495112Y-130335649D01*
X92423978Y-130442110D01*
X92374979Y-130560402D01*
X92350000Y-130685981D01*
X82983037Y-130685981D01*
X82864955Y-130567899D01*
X82668413Y-130436574D01*
X82450027Y-130346116D01*
X82218190Y-130300000D01*
X81981810Y-130300000D01*
X81749973Y-130346116D01*
X81531587Y-130436574D01*
X81335045Y-130567899D01*
X81167899Y-130735045D01*
X81036574Y-130931587D01*
X80946116Y-131149973D01*
X80900000Y-131381810D01*
X76300000Y-131381810D01*
X76253884Y-131149973D01*
X76163426Y-130931587D01*
X76032101Y-130735045D01*
X75864955Y-130567899D01*
X75668413Y-130436574D01*
X75450027Y-130346116D01*
X75218190Y-130300000D01*
X74981810Y-130300000D01*
X74749973Y-130346116D01*
X74531587Y-130436574D01*
X74335045Y-130567899D01*
X74167899Y-130735045D01*
X74036574Y-130931587D01*
X73946116Y-131149973D01*
X73900000Y-131381810D01*
X70550000Y-131381810D01*
X70550000Y-130185981D01*
X79600000Y-130185981D01*
X79600000Y-130314019D01*
X79624979Y-130439598D01*
X79673978Y-130557890D01*
X79745112Y-130664351D01*
X79835649Y-130754888D01*
X79942110Y-130826022D01*
X80060402Y-130875021D01*
X80185981Y-130900000D01*
X80314019Y-130900000D01*
X80439598Y-130875021D01*
X80557890Y-130826022D01*
X80664351Y-130754888D01*
X80754888Y-130664351D01*
X80826022Y-130557890D01*
X80875021Y-130439598D01*
X80900000Y-130314019D01*
X80900000Y-130185981D01*
X80875021Y-130060402D01*
X80826022Y-129942110D01*
X80754888Y-129835649D01*
X80664351Y-129745112D01*
X80575855Y-129685981D01*
X85350000Y-129685981D01*
X85350000Y-129814019D01*
X85374979Y-129939598D01*
X85423978Y-130057890D01*
X85495112Y-130164351D01*
X85585649Y-130254888D01*
X85692110Y-130326022D01*
X85810402Y-130375021D01*
X85935981Y-130400000D01*
X86064019Y-130400000D01*
X86189598Y-130375021D01*
X86307890Y-130326022D01*
X86414351Y-130254888D01*
X86504888Y-130164351D01*
X86576022Y-130057890D01*
X86625021Y-129939598D01*
X86650000Y-129814019D01*
X86650000Y-129685981D01*
X86625021Y-129560402D01*
X86576022Y-129442110D01*
X86504888Y-129335649D01*
X86414351Y-129245112D01*
X86325855Y-129185981D01*
X86600000Y-129185981D01*
X86600000Y-129314019D01*
X86624979Y-129439598D01*
X86673978Y-129557890D01*
X86745112Y-129664351D01*
X86835649Y-129754888D01*
X86942110Y-129826022D01*
X87060402Y-129875021D01*
X87185981Y-129900000D01*
X87314019Y-129900000D01*
X87439598Y-129875021D01*
X87557890Y-129826022D01*
X87582668Y-129809466D01*
X103225889Y-129809466D01*
X103268406Y-129955391D01*
X103415274Y-130035791D01*
X103575006Y-130085993D01*
X103741462Y-130104069D01*
X103908247Y-130089324D01*
X104068950Y-130042324D01*
X104217395Y-129964876D01*
X104231594Y-129955391D01*
X104274111Y-129809466D01*
X103750000Y-129285355D01*
X103225889Y-129809466D01*
X87582668Y-129809466D01*
X87664351Y-129754888D01*
X87754888Y-129664351D01*
X87826022Y-129557890D01*
X87875021Y-129439598D01*
X87900000Y-129314019D01*
X87900000Y-129241462D01*
X102895931Y-129241462D01*
X102910676Y-129408247D01*
X102957676Y-129568950D01*
X103035124Y-129717395D01*
X103044609Y-129731594D01*
X103190534Y-129774111D01*
X103714645Y-129250000D01*
X103785355Y-129250000D01*
X104309466Y-129774111D01*
X104455391Y-129731594D01*
X104535791Y-129584726D01*
X104585993Y-129424994D01*
X104604069Y-129258538D01*
X104589324Y-129091753D01*
X104569802Y-129025000D01*
X107025000Y-129025000D01*
X107025000Y-129175000D01*
X107045729Y-129335469D01*
X107097366Y-129488811D01*
X107177926Y-129629132D01*
X107284314Y-129751041D01*
X107412441Y-129849852D01*
X107557383Y-129921768D01*
X107696309Y-129960558D01*
X107825000Y-129887076D01*
X107825000Y-129025000D01*
X107875000Y-129025000D01*
X107875000Y-129887076D01*
X108003691Y-129960558D01*
X108142617Y-129921768D01*
X108287559Y-129849852D01*
X108415686Y-129751041D01*
X108522074Y-129629132D01*
X108602634Y-129488811D01*
X108654271Y-129335469D01*
X108675000Y-129175000D01*
X108675000Y-129025000D01*
X107875000Y-129025000D01*
X107825000Y-129025000D01*
X107025000Y-129025000D01*
X104569802Y-129025000D01*
X104542324Y-128931050D01*
X104486995Y-128825000D01*
X107025000Y-128825000D01*
X107025000Y-128975000D01*
X107825000Y-128975000D01*
X107825000Y-128112924D01*
X107875000Y-128112924D01*
X107875000Y-128975000D01*
X108675000Y-128975000D01*
X108675000Y-128825000D01*
X108654271Y-128664531D01*
X108602634Y-128511189D01*
X108522074Y-128370868D01*
X108415686Y-128248959D01*
X108287559Y-128150148D01*
X108285238Y-128148996D01*
X109439087Y-128148996D01*
X109475949Y-128281136D01*
X109545093Y-128420891D01*
X109640173Y-128544472D01*
X109757535Y-128647129D01*
X109892670Y-128724917D01*
X110040384Y-128774847D01*
X110195000Y-128795000D01*
X110525000Y-128795000D01*
X110525000Y-128025000D01*
X109512942Y-128025000D01*
X109439087Y-128148996D01*
X108285238Y-128148996D01*
X108142617Y-128078232D01*
X108003691Y-128039442D01*
X107875000Y-128112924D01*
X107825000Y-128112924D01*
X107696309Y-128039442D01*
X107557383Y-128078232D01*
X107412441Y-128150148D01*
X107284314Y-128248959D01*
X107177926Y-128370868D01*
X107097366Y-128511189D01*
X107045729Y-128664531D01*
X107025000Y-128825000D01*
X104486995Y-128825000D01*
X104464876Y-128782605D01*
X104455391Y-128768406D01*
X104309466Y-128725889D01*
X103785355Y-129250000D01*
X103714645Y-129250000D01*
X103190534Y-128725889D01*
X103044609Y-128768406D01*
X102964209Y-128915274D01*
X102914007Y-129075006D01*
X102895931Y-129241462D01*
X87900000Y-129241462D01*
X87900000Y-129185981D01*
X87875021Y-129060402D01*
X87826022Y-128942110D01*
X87754888Y-128835649D01*
X87664351Y-128745112D01*
X87557890Y-128673978D01*
X87439598Y-128624979D01*
X87314019Y-128600000D01*
X87185981Y-128600000D01*
X87060402Y-128624979D01*
X86942110Y-128673978D01*
X86835649Y-128745112D01*
X86745112Y-128835649D01*
X86673978Y-128942110D01*
X86624979Y-129060402D01*
X86600000Y-129185981D01*
X86325855Y-129185981D01*
X86307890Y-129173978D01*
X86189598Y-129124979D01*
X86064019Y-129100000D01*
X85935981Y-129100000D01*
X85810402Y-129124979D01*
X85692110Y-129173978D01*
X85585649Y-129245112D01*
X85495112Y-129335649D01*
X85423978Y-129442110D01*
X85374979Y-129560402D01*
X85350000Y-129685981D01*
X80575855Y-129685981D01*
X80557890Y-129673978D01*
X80439598Y-129624979D01*
X80314019Y-129600000D01*
X80185981Y-129600000D01*
X80060402Y-129624979D01*
X79942110Y-129673978D01*
X79835649Y-129745112D01*
X79745112Y-129835649D01*
X79673978Y-129942110D01*
X79624979Y-130060402D01*
X79600000Y-130185981D01*
X70550000Y-130185981D01*
X70550000Y-128435981D01*
X89100000Y-128435981D01*
X89100000Y-128564019D01*
X89124979Y-128689598D01*
X89173978Y-128807890D01*
X89245112Y-128914351D01*
X89335649Y-129004888D01*
X89442110Y-129076022D01*
X89560402Y-129125021D01*
X89685981Y-129150000D01*
X89814019Y-129150000D01*
X89939598Y-129125021D01*
X90057890Y-129076022D01*
X90164351Y-129004888D01*
X90254888Y-128914351D01*
X90326022Y-128807890D01*
X90374633Y-128690534D01*
X103225889Y-128690534D01*
X103750000Y-129214645D01*
X104274111Y-128690534D01*
X104231594Y-128544609D01*
X104084726Y-128464209D01*
X103924994Y-128414007D01*
X103758538Y-128395931D01*
X103591753Y-128410676D01*
X103431050Y-128457676D01*
X103282605Y-128535124D01*
X103268406Y-128544609D01*
X103225889Y-128690534D01*
X90374633Y-128690534D01*
X90375021Y-128689598D01*
X90400000Y-128564019D01*
X90400000Y-128435981D01*
X90375021Y-128310402D01*
X90326022Y-128192110D01*
X90254888Y-128085649D01*
X90164351Y-127995112D01*
X90057890Y-127923978D01*
X89939598Y-127874979D01*
X89814019Y-127850000D01*
X89685981Y-127850000D01*
X89560402Y-127874979D01*
X89442110Y-127923978D01*
X89335649Y-127995112D01*
X89245112Y-128085649D01*
X89173978Y-128192110D01*
X89124979Y-128310402D01*
X89100000Y-128435981D01*
X70550000Y-128435981D01*
X70550000Y-127870712D01*
X70560402Y-127875021D01*
X70685981Y-127900000D01*
X70814019Y-127900000D01*
X70939598Y-127875021D01*
X71057890Y-127826022D01*
X71164351Y-127754888D01*
X71254888Y-127664351D01*
X71326022Y-127557890D01*
X71375021Y-127439598D01*
X71379658Y-127416282D01*
X77400000Y-127416282D01*
X77400000Y-127583718D01*
X77432665Y-127747936D01*
X77496740Y-127902626D01*
X77589762Y-128041844D01*
X77708156Y-128160238D01*
X77847374Y-128253260D01*
X78002064Y-128317335D01*
X78166282Y-128350000D01*
X78333718Y-128350000D01*
X78497936Y-128317335D01*
X78652626Y-128253260D01*
X78791844Y-128160238D01*
X78910238Y-128041844D01*
X79003260Y-127902626D01*
X79067335Y-127747936D01*
X79100000Y-127583718D01*
X79100000Y-127416282D01*
X83150000Y-127416282D01*
X83150000Y-127583718D01*
X83182665Y-127747936D01*
X83246740Y-127902626D01*
X83339762Y-128041844D01*
X83458156Y-128160238D01*
X83597374Y-128253260D01*
X83752064Y-128317335D01*
X83916282Y-128350000D01*
X84083718Y-128350000D01*
X84247936Y-128317335D01*
X84402626Y-128253260D01*
X84541844Y-128160238D01*
X84660238Y-128041844D01*
X84753260Y-127902626D01*
X84817335Y-127747936D01*
X84829658Y-127685981D01*
X102850000Y-127685981D01*
X102850000Y-127814019D01*
X102874979Y-127939598D01*
X102923978Y-128057890D01*
X102995112Y-128164351D01*
X103085649Y-128254888D01*
X103192110Y-128326022D01*
X103310402Y-128375021D01*
X103435981Y-128400000D01*
X103564019Y-128400000D01*
X103689598Y-128375021D01*
X103807890Y-128326022D01*
X103914351Y-128254888D01*
X104004888Y-128164351D01*
X104076022Y-128057890D01*
X104125021Y-127939598D01*
X104142643Y-127851004D01*
X109439087Y-127851004D01*
X109512942Y-127975000D01*
X110525000Y-127975000D01*
X110525000Y-127205000D01*
X110195000Y-127205000D01*
X110040384Y-127225153D01*
X109892670Y-127275083D01*
X109757535Y-127352871D01*
X109640173Y-127455528D01*
X109545093Y-127579109D01*
X109475949Y-127718864D01*
X109439087Y-127851004D01*
X104142643Y-127851004D01*
X104150000Y-127814019D01*
X104150000Y-127685981D01*
X104125021Y-127560402D01*
X104076022Y-127442110D01*
X104004888Y-127335649D01*
X103914351Y-127245112D01*
X103807890Y-127173978D01*
X103689598Y-127124979D01*
X103564019Y-127100000D01*
X103435981Y-127100000D01*
X103310402Y-127124979D01*
X103192110Y-127173978D01*
X103085649Y-127245112D01*
X102995112Y-127335649D01*
X102923978Y-127442110D01*
X102874979Y-127560402D01*
X102850000Y-127685981D01*
X84829658Y-127685981D01*
X84850000Y-127583718D01*
X84850000Y-127416282D01*
X84817335Y-127252064D01*
X84753260Y-127097374D01*
X84660238Y-126958156D01*
X84541844Y-126839762D01*
X84402626Y-126746740D01*
X84247936Y-126682665D01*
X84083718Y-126650000D01*
X83916282Y-126650000D01*
X83752064Y-126682665D01*
X83597374Y-126746740D01*
X83458156Y-126839762D01*
X83339762Y-126958156D01*
X83246740Y-127097374D01*
X83182665Y-127252064D01*
X83150000Y-127416282D01*
X79100000Y-127416282D01*
X79067335Y-127252064D01*
X79003260Y-127097374D01*
X78910238Y-126958156D01*
X78791844Y-126839762D01*
X78652626Y-126746740D01*
X78497936Y-126682665D01*
X78333718Y-126650000D01*
X78166282Y-126650000D01*
X78002064Y-126682665D01*
X77847374Y-126746740D01*
X77708156Y-126839762D01*
X77589762Y-126958156D01*
X77496740Y-127097374D01*
X77432665Y-127252064D01*
X77400000Y-127416282D01*
X71379658Y-127416282D01*
X71400000Y-127314019D01*
X71400000Y-127185981D01*
X71375021Y-127060402D01*
X71326022Y-126942110D01*
X71254888Y-126835649D01*
X71164351Y-126745112D01*
X71057890Y-126673978D01*
X70939598Y-126624979D01*
X70814019Y-126600000D01*
X70685981Y-126600000D01*
X70560402Y-126624979D01*
X70550000Y-126629288D01*
X70550000Y-125435981D01*
X87350000Y-125435981D01*
X87350000Y-125564019D01*
X87374979Y-125689598D01*
X87423978Y-125807890D01*
X87495112Y-125914351D01*
X87585649Y-126004888D01*
X87692110Y-126076022D01*
X87810402Y-126125021D01*
X87935981Y-126150000D01*
X88064019Y-126150000D01*
X88189598Y-126125021D01*
X88307890Y-126076022D01*
X88414351Y-126004888D01*
X88504888Y-125914351D01*
X88576022Y-125807890D01*
X88625021Y-125689598D01*
X88650000Y-125564019D01*
X88650000Y-125435981D01*
X88625021Y-125310402D01*
X88576022Y-125192110D01*
X88504888Y-125085649D01*
X88414351Y-124995112D01*
X88325855Y-124935981D01*
X90600000Y-124935981D01*
X90600000Y-125064019D01*
X90624979Y-125189598D01*
X90673978Y-125307890D01*
X90745112Y-125414351D01*
X90835649Y-125504888D01*
X90942110Y-125576022D01*
X91060402Y-125625021D01*
X91185981Y-125650000D01*
X91314019Y-125650000D01*
X91439598Y-125625021D01*
X91557890Y-125576022D01*
X91664351Y-125504888D01*
X91754888Y-125414351D01*
X91826022Y-125307890D01*
X91875021Y-125189598D01*
X91900000Y-125064019D01*
X91900000Y-124935981D01*
X91875021Y-124810402D01*
X91826022Y-124692110D01*
X91754888Y-124585649D01*
X91664351Y-124495112D01*
X91557890Y-124423978D01*
X91439598Y-124374979D01*
X91314019Y-124350000D01*
X91185981Y-124350000D01*
X91060402Y-124374979D01*
X90942110Y-124423978D01*
X90835649Y-124495112D01*
X90745112Y-124585649D01*
X90673978Y-124692110D01*
X90624979Y-124810402D01*
X90600000Y-124935981D01*
X88325855Y-124935981D01*
X88307890Y-124923978D01*
X88189598Y-124874979D01*
X88064019Y-124850000D01*
X87935981Y-124850000D01*
X87810402Y-124874979D01*
X87692110Y-124923978D01*
X87585649Y-124995112D01*
X87495112Y-125085649D01*
X87423978Y-125192110D01*
X87374979Y-125310402D01*
X87350000Y-125435981D01*
X70550000Y-125435981D01*
X70550000Y-125370712D01*
X70560402Y-125375021D01*
X70685981Y-125400000D01*
X70814019Y-125400000D01*
X70939598Y-125375021D01*
X71057890Y-125326022D01*
X71164351Y-125254888D01*
X71254888Y-125164351D01*
X71326022Y-125057890D01*
X71375021Y-124939598D01*
X71400000Y-124814019D01*
X71400000Y-124685981D01*
X71375021Y-124560402D01*
X71326022Y-124442110D01*
X71254888Y-124335649D01*
X71164351Y-124245112D01*
X71057890Y-124173978D01*
X70939598Y-124124979D01*
X70814019Y-124100000D01*
X70685981Y-124100000D01*
X70560402Y-124124979D01*
X70550000Y-124129288D01*
X70550000Y-123685981D01*
X94600000Y-123685981D01*
X94600000Y-123814019D01*
X94624979Y-123939598D01*
X94673978Y-124057890D01*
X94745112Y-124164351D01*
X94835649Y-124254888D01*
X94942110Y-124326022D01*
X95060402Y-124375021D01*
X95185981Y-124400000D01*
X95314019Y-124400000D01*
X95439598Y-124375021D01*
X95557890Y-124326022D01*
X95664351Y-124254888D01*
X95754888Y-124164351D01*
X95826022Y-124057890D01*
X95875021Y-123939598D01*
X95900000Y-123814019D01*
X95900000Y-123685981D01*
X95875021Y-123560402D01*
X95826022Y-123442110D01*
X95821927Y-123435981D01*
X96600000Y-123435981D01*
X96600000Y-123564019D01*
X96624979Y-123689598D01*
X96673978Y-123807890D01*
X96745112Y-123914351D01*
X96835649Y-124004888D01*
X96942110Y-124076022D01*
X97060402Y-124125021D01*
X97185981Y-124150000D01*
X97314019Y-124150000D01*
X97439598Y-124125021D01*
X97557890Y-124076022D01*
X97664351Y-124004888D01*
X97754888Y-123914351D01*
X97826022Y-123807890D01*
X97875021Y-123689598D01*
X97900000Y-123564019D01*
X97900000Y-123435981D01*
X97875021Y-123310402D01*
X97826022Y-123192110D01*
X97754888Y-123085649D01*
X97664351Y-122995112D01*
X97557890Y-122923978D01*
X97439598Y-122874979D01*
X97314019Y-122850000D01*
X97185981Y-122850000D01*
X97060402Y-122874979D01*
X96942110Y-122923978D01*
X96835649Y-122995112D01*
X96745112Y-123085649D01*
X96673978Y-123192110D01*
X96624979Y-123310402D01*
X96600000Y-123435981D01*
X95821927Y-123435981D01*
X95754888Y-123335649D01*
X95664351Y-123245112D01*
X95557890Y-123173978D01*
X95439598Y-123124979D01*
X95314019Y-123100000D01*
X95185981Y-123100000D01*
X95060402Y-123124979D01*
X94942110Y-123173978D01*
X94835649Y-123245112D01*
X94745112Y-123335649D01*
X94673978Y-123442110D01*
X94624979Y-123560402D01*
X94600000Y-123685981D01*
X70550000Y-123685981D01*
X70550000Y-121435981D01*
X79100000Y-121435981D01*
X79100000Y-121564019D01*
X79124979Y-121689598D01*
X79173978Y-121807890D01*
X79245112Y-121914351D01*
X79335649Y-122004888D01*
X79442110Y-122076022D01*
X79560402Y-122125021D01*
X79685981Y-122150000D01*
X79814019Y-122150000D01*
X79939598Y-122125021D01*
X80057890Y-122076022D01*
X80164351Y-122004888D01*
X80254888Y-121914351D01*
X80326022Y-121807890D01*
X80375021Y-121689598D01*
X80375740Y-121685981D01*
X96600000Y-121685981D01*
X96600000Y-121814019D01*
X96624979Y-121939598D01*
X96673978Y-122057890D01*
X96745112Y-122164351D01*
X96835649Y-122254888D01*
X96942110Y-122326022D01*
X97060402Y-122375021D01*
X97185981Y-122400000D01*
X97314019Y-122400000D01*
X97439598Y-122375021D01*
X97557890Y-122326022D01*
X97664351Y-122254888D01*
X97754888Y-122164351D01*
X97826022Y-122057890D01*
X97875021Y-121939598D01*
X97900000Y-121814019D01*
X97900000Y-121797885D01*
X97942110Y-121826022D01*
X98060402Y-121875021D01*
X98185981Y-121900000D01*
X98314019Y-121900000D01*
X98439598Y-121875021D01*
X98557890Y-121826022D01*
X98664351Y-121754888D01*
X98754888Y-121664351D01*
X98826022Y-121557890D01*
X98875021Y-121439598D01*
X98900000Y-121314019D01*
X98900000Y-121185981D01*
X98875021Y-121060402D01*
X98826022Y-120942110D01*
X98754888Y-120835649D01*
X98664351Y-120745112D01*
X98557890Y-120673978D01*
X98439598Y-120624979D01*
X98314019Y-120600000D01*
X98185981Y-120600000D01*
X98060402Y-120624979D01*
X97942110Y-120673978D01*
X97835649Y-120745112D01*
X97745112Y-120835649D01*
X97673978Y-120942110D01*
X97624979Y-121060402D01*
X97600000Y-121185981D01*
X97600000Y-121202115D01*
X97557890Y-121173978D01*
X97439598Y-121124979D01*
X97314019Y-121100000D01*
X97185981Y-121100000D01*
X97060402Y-121124979D01*
X96942110Y-121173978D01*
X96835649Y-121245112D01*
X96745112Y-121335649D01*
X96673978Y-121442110D01*
X96624979Y-121560402D01*
X96600000Y-121685981D01*
X80375740Y-121685981D01*
X80400000Y-121564019D01*
X80400000Y-121435981D01*
X80375021Y-121310402D01*
X80326022Y-121192110D01*
X80254888Y-121085649D01*
X80164351Y-120995112D01*
X80057890Y-120923978D01*
X79939598Y-120874979D01*
X79814019Y-120850000D01*
X79685981Y-120850000D01*
X79560402Y-120874979D01*
X79442110Y-120923978D01*
X79335649Y-120995112D01*
X79245112Y-121085649D01*
X79173978Y-121192110D01*
X79124979Y-121310402D01*
X79100000Y-121435981D01*
X70550000Y-121435981D01*
X70550000Y-120285981D01*
X100850000Y-120285981D01*
X100850000Y-120414019D01*
X100874979Y-120539598D01*
X100923978Y-120657890D01*
X100995112Y-120764351D01*
X101085649Y-120854888D01*
X101192110Y-120926022D01*
X101310402Y-120975021D01*
X101435981Y-121000000D01*
X101564019Y-121000000D01*
X101689598Y-120975021D01*
X101807890Y-120926022D01*
X101914351Y-120854888D01*
X102004888Y-120764351D01*
X102076022Y-120657890D01*
X102125021Y-120539598D01*
X102150000Y-120414019D01*
X102150000Y-120285981D01*
X102850000Y-120285981D01*
X102850000Y-120414019D01*
X102874979Y-120539598D01*
X102923978Y-120657890D01*
X102995112Y-120764351D01*
X103085649Y-120854888D01*
X103192110Y-120926022D01*
X103310402Y-120975021D01*
X103435981Y-121000000D01*
X103564019Y-121000000D01*
X103689598Y-120975021D01*
X103807890Y-120926022D01*
X103914351Y-120854888D01*
X104004888Y-120764351D01*
X104076022Y-120657890D01*
X104125021Y-120539598D01*
X104150000Y-120414019D01*
X104150000Y-120285981D01*
X104125021Y-120160402D01*
X104076022Y-120042110D01*
X104004888Y-119935649D01*
X103914351Y-119845112D01*
X103807890Y-119773978D01*
X103689598Y-119724979D01*
X103564019Y-119700000D01*
X103435981Y-119700000D01*
X103310402Y-119724979D01*
X103192110Y-119773978D01*
X103085649Y-119845112D01*
X102995112Y-119935649D01*
X102923978Y-120042110D01*
X102874979Y-120160402D01*
X102850000Y-120285981D01*
X102150000Y-120285981D01*
X102125021Y-120160402D01*
X102076022Y-120042110D01*
X102004888Y-119935649D01*
X101914351Y-119845112D01*
X101807890Y-119773978D01*
X101689598Y-119724979D01*
X101564019Y-119700000D01*
X101435981Y-119700000D01*
X101310402Y-119724979D01*
X101192110Y-119773978D01*
X101085649Y-119845112D01*
X100995112Y-119935649D01*
X100923978Y-120042110D01*
X100874979Y-120160402D01*
X100850000Y-120285981D01*
X70550000Y-120285981D01*
X70550000Y-117357187D01*
X71050000Y-117357187D01*
X71050000Y-117642813D01*
X71105723Y-117922949D01*
X71215027Y-118186833D01*
X71373711Y-118424321D01*
X71575679Y-118626289D01*
X71813167Y-118784973D01*
X72077051Y-118894277D01*
X72357187Y-118950000D01*
X72642813Y-118950000D01*
X72713290Y-118935981D01*
X75850000Y-118935981D01*
X75850000Y-119064019D01*
X75874979Y-119189598D01*
X75923978Y-119307890D01*
X75995112Y-119414351D01*
X76085649Y-119504888D01*
X76192110Y-119576022D01*
X76310402Y-119625021D01*
X76435981Y-119650000D01*
X76564019Y-119650000D01*
X76689598Y-119625021D01*
X76807890Y-119576022D01*
X76914351Y-119504888D01*
X76983258Y-119435981D01*
X90600000Y-119435981D01*
X90600000Y-119564019D01*
X90624979Y-119689598D01*
X90673978Y-119807890D01*
X90745112Y-119914351D01*
X90835649Y-120004888D01*
X90942110Y-120076022D01*
X91060402Y-120125021D01*
X91185981Y-120150000D01*
X91314019Y-120150000D01*
X91439598Y-120125021D01*
X91557890Y-120076022D01*
X91664351Y-120004888D01*
X91754888Y-119914351D01*
X91826022Y-119807890D01*
X91875021Y-119689598D01*
X91900000Y-119564019D01*
X91900000Y-119435981D01*
X91875021Y-119310402D01*
X91826022Y-119192110D01*
X91754888Y-119085649D01*
X91664351Y-118995112D01*
X91557890Y-118923978D01*
X91439598Y-118874979D01*
X91314019Y-118850000D01*
X91185981Y-118850000D01*
X91060402Y-118874979D01*
X90942110Y-118923978D01*
X90835649Y-118995112D01*
X90745112Y-119085649D01*
X90673978Y-119192110D01*
X90624979Y-119310402D01*
X90600000Y-119435981D01*
X76983258Y-119435981D01*
X77004888Y-119414351D01*
X77076022Y-119307890D01*
X77125021Y-119189598D01*
X77150000Y-119064019D01*
X77150000Y-118935981D01*
X77125021Y-118810402D01*
X77076022Y-118692110D01*
X77004888Y-118585649D01*
X76914351Y-118495112D01*
X76807890Y-118423978D01*
X76689598Y-118374979D01*
X76564019Y-118350000D01*
X76435981Y-118350000D01*
X76310402Y-118374979D01*
X76192110Y-118423978D01*
X76085649Y-118495112D01*
X75995112Y-118585649D01*
X75923978Y-118692110D01*
X75874979Y-118810402D01*
X75850000Y-118935981D01*
X72713290Y-118935981D01*
X72922949Y-118894277D01*
X73186833Y-118784973D01*
X73424321Y-118626289D01*
X73626289Y-118424321D01*
X73784973Y-118186833D01*
X73888878Y-117935981D01*
X86350000Y-117935981D01*
X86350000Y-118064019D01*
X86374979Y-118189598D01*
X86423978Y-118307890D01*
X86495112Y-118414351D01*
X86585649Y-118504888D01*
X86692110Y-118576022D01*
X86810402Y-118625021D01*
X86935981Y-118650000D01*
X87064019Y-118650000D01*
X87189598Y-118625021D01*
X87307890Y-118576022D01*
X87414351Y-118504888D01*
X87504888Y-118414351D01*
X87576022Y-118307890D01*
X87625021Y-118189598D01*
X87650000Y-118064019D01*
X87650000Y-117935981D01*
X87625021Y-117810402D01*
X87576022Y-117692110D01*
X87504888Y-117585649D01*
X87414351Y-117495112D01*
X87307890Y-117423978D01*
X87189598Y-117374979D01*
X87075396Y-117352263D01*
X94500000Y-117352263D01*
X94500000Y-117647737D01*
X94557644Y-117937534D01*
X94670717Y-118210517D01*
X94834874Y-118456194D01*
X95043806Y-118665126D01*
X95289483Y-118829283D01*
X95562466Y-118942356D01*
X95852263Y-119000000D01*
X96147737Y-119000000D01*
X96437534Y-118942356D01*
X96710517Y-118829283D01*
X96924982Y-118685981D01*
X105350000Y-118685981D01*
X105350000Y-118814019D01*
X105374979Y-118939598D01*
X105423978Y-119057890D01*
X105495112Y-119164351D01*
X105585649Y-119254888D01*
X105692110Y-119326022D01*
X105810402Y-119375021D01*
X105935981Y-119400000D01*
X106064019Y-119400000D01*
X106189598Y-119375021D01*
X106307890Y-119326022D01*
X106414351Y-119254888D01*
X106504888Y-119164351D01*
X106576022Y-119057890D01*
X106625021Y-118939598D01*
X106650000Y-118814019D01*
X106650000Y-118685981D01*
X106625021Y-118560402D01*
X106576022Y-118442110D01*
X106504888Y-118335649D01*
X106414351Y-118245112D01*
X106307890Y-118173978D01*
X106189598Y-118124979D01*
X106064019Y-118100000D01*
X105935981Y-118100000D01*
X105810402Y-118124979D01*
X105692110Y-118173978D01*
X105585649Y-118245112D01*
X105495112Y-118335649D01*
X105423978Y-118442110D01*
X105374979Y-118560402D01*
X105350000Y-118685981D01*
X96924982Y-118685981D01*
X96956194Y-118665126D01*
X97165126Y-118456194D01*
X97329283Y-118210517D01*
X97442356Y-117937534D01*
X97500000Y-117647737D01*
X97500000Y-117357187D01*
X108050000Y-117357187D01*
X108050000Y-117642813D01*
X108105723Y-117922949D01*
X108215027Y-118186833D01*
X108373711Y-118424321D01*
X108575679Y-118626289D01*
X108813167Y-118784973D01*
X109077051Y-118894277D01*
X109357187Y-118950000D01*
X109642813Y-118950000D01*
X109922949Y-118894277D01*
X110186833Y-118784973D01*
X110424321Y-118626289D01*
X110626289Y-118424321D01*
X110784973Y-118186833D01*
X110894277Y-117922949D01*
X110950000Y-117642813D01*
X110950000Y-117357187D01*
X110894277Y-117077051D01*
X110784973Y-116813167D01*
X110626289Y-116575679D01*
X110424321Y-116373711D01*
X110186833Y-116215027D01*
X109922949Y-116105723D01*
X109642813Y-116050000D01*
X109357187Y-116050000D01*
X109077051Y-116105723D01*
X108813167Y-116215027D01*
X108575679Y-116373711D01*
X108373711Y-116575679D01*
X108215027Y-116813167D01*
X108105723Y-117077051D01*
X108050000Y-117357187D01*
X97500000Y-117357187D01*
X97500000Y-117352263D01*
X97442356Y-117062466D01*
X97329283Y-116789483D01*
X97165126Y-116543806D01*
X96956194Y-116334874D01*
X96733362Y-116185981D01*
X103600000Y-116185981D01*
X103600000Y-116314019D01*
X103624979Y-116439598D01*
X103673978Y-116557890D01*
X103745112Y-116664351D01*
X103835649Y-116754888D01*
X103942110Y-116826022D01*
X104060402Y-116875021D01*
X104185981Y-116900000D01*
X104314019Y-116900000D01*
X104439598Y-116875021D01*
X104557890Y-116826022D01*
X104664351Y-116754888D01*
X104754888Y-116664351D01*
X104826022Y-116557890D01*
X104875021Y-116439598D01*
X104900000Y-116314019D01*
X104900000Y-116185981D01*
X104875021Y-116060402D01*
X104826022Y-115942110D01*
X104754888Y-115835649D01*
X104664351Y-115745112D01*
X104557890Y-115673978D01*
X104439598Y-115624979D01*
X104314019Y-115600000D01*
X104185981Y-115600000D01*
X104060402Y-115624979D01*
X103942110Y-115673978D01*
X103835649Y-115745112D01*
X103745112Y-115835649D01*
X103673978Y-115942110D01*
X103624979Y-116060402D01*
X103600000Y-116185981D01*
X96733362Y-116185981D01*
X96710517Y-116170717D01*
X96437534Y-116057644D01*
X96147737Y-116000000D01*
X95852263Y-116000000D01*
X95562466Y-116057644D01*
X95289483Y-116170717D01*
X95043806Y-116334874D01*
X94834874Y-116543806D01*
X94670717Y-116789483D01*
X94557644Y-117062466D01*
X94500000Y-117352263D01*
X87075396Y-117352263D01*
X87064019Y-117350000D01*
X86935981Y-117350000D01*
X86810402Y-117374979D01*
X86692110Y-117423978D01*
X86585649Y-117495112D01*
X86495112Y-117585649D01*
X86423978Y-117692110D01*
X86374979Y-117810402D01*
X86350000Y-117935981D01*
X73888878Y-117935981D01*
X73894277Y-117922949D01*
X73950000Y-117642813D01*
X73950000Y-117357187D01*
X73894277Y-117077051D01*
X73784973Y-116813167D01*
X73626289Y-116575679D01*
X73424321Y-116373711D01*
X73186833Y-116215027D01*
X72922949Y-116105723D01*
X72642813Y-116050000D01*
X72357187Y-116050000D01*
X72077051Y-116105723D01*
X71813167Y-116215027D01*
X71575679Y-116373711D01*
X71373711Y-116575679D01*
X71215027Y-116813167D01*
X71105723Y-117077051D01*
X71050000Y-117357187D01*
X70550000Y-117357187D01*
X70550000Y-115550000D01*
X111450000Y-115550000D01*
X111450000Y-127446933D01*
X111450000Y-127446933D01*
G37*
X111450000Y-127446933D02*
X111342465Y-127352871D01*
X111207330Y-127275083D01*
X111059616Y-127225153D01*
X110905000Y-127205000D01*
X110575000Y-127205000D01*
X110575000Y-127975000D01*
X110595000Y-127975000D01*
X110595000Y-128025000D01*
X110575000Y-128025000D01*
X110575000Y-128795000D01*
X110905000Y-128795000D01*
X111059616Y-128774847D01*
X111207330Y-128724917D01*
X111342465Y-128647129D01*
X111450000Y-128553067D01*
X111450001Y-134446933D01*
X111342465Y-134352871D01*
X111207330Y-134275083D01*
X111059616Y-134225153D01*
X110905000Y-134205000D01*
X110575000Y-134205000D01*
X110575000Y-134975000D01*
X110595000Y-134975000D01*
X110595000Y-135025000D01*
X110575000Y-135025000D01*
X110575000Y-135795000D01*
X110905000Y-135795000D01*
X111059616Y-135774847D01*
X111207330Y-135724917D01*
X111342465Y-135647129D01*
X111450001Y-135553067D01*
X111450001Y-147450000D01*
X101719239Y-147450000D01*
X101754888Y-147414351D01*
X101826022Y-147307890D01*
X101875021Y-147189598D01*
X101900000Y-147064019D01*
X101900000Y-146935981D01*
X101875021Y-146810402D01*
X101826022Y-146692110D01*
X101754888Y-146585649D01*
X101664351Y-146495112D01*
X101557890Y-146423978D01*
X101439598Y-146374979D01*
X101314019Y-146350000D01*
X101185981Y-146350000D01*
X101060402Y-146374979D01*
X100942110Y-146423978D01*
X100875000Y-146468819D01*
X100807890Y-146423978D01*
X100689598Y-146374979D01*
X100564019Y-146350000D01*
X100435981Y-146350000D01*
X100310402Y-146374979D01*
X100192110Y-146423978D01*
X100085649Y-146495112D01*
X99995112Y-146585649D01*
X99923978Y-146692110D01*
X99874979Y-146810402D01*
X99850000Y-146935981D01*
X99850000Y-147064019D01*
X99874979Y-147189598D01*
X99923978Y-147307890D01*
X99995112Y-147414351D01*
X100030761Y-147450000D01*
X76895712Y-147450000D01*
X76900021Y-147439598D01*
X76925000Y-147314019D01*
X76925000Y-147185981D01*
X76900021Y-147060402D01*
X76851022Y-146942110D01*
X76779888Y-146835649D01*
X76689351Y-146745112D01*
X76582890Y-146673978D01*
X76464598Y-146624979D01*
X76339019Y-146600000D01*
X76210981Y-146600000D01*
X76085402Y-146624979D01*
X75967110Y-146673978D01*
X75860649Y-146745112D01*
X75770112Y-146835649D01*
X75698978Y-146942110D01*
X75649979Y-147060402D01*
X75625000Y-147185981D01*
X75625000Y-147314019D01*
X75649979Y-147439598D01*
X75654288Y-147450000D01*
X70550000Y-147450000D01*
X70550000Y-145357187D01*
X71050000Y-145357187D01*
X71050000Y-145642813D01*
X71105723Y-145922949D01*
X71215027Y-146186833D01*
X71373711Y-146424321D01*
X71575679Y-146626289D01*
X71813167Y-146784973D01*
X72077051Y-146894277D01*
X72357187Y-146950000D01*
X72642813Y-146950000D01*
X72922949Y-146894277D01*
X73186833Y-146784973D01*
X73424321Y-146626289D01*
X73626289Y-146424321D01*
X73784973Y-146186833D01*
X73894277Y-145922949D01*
X73950000Y-145642813D01*
X73950000Y-145357187D01*
X73949021Y-145352263D01*
X94500000Y-145352263D01*
X94500000Y-145647737D01*
X94557644Y-145937534D01*
X94670717Y-146210517D01*
X94834874Y-146456194D01*
X95043806Y-146665126D01*
X95289483Y-146829283D01*
X95562466Y-146942356D01*
X95852263Y-147000000D01*
X96147737Y-147000000D01*
X96437534Y-146942356D01*
X96710517Y-146829283D01*
X96956194Y-146665126D01*
X97165126Y-146456194D01*
X97329283Y-146210517D01*
X97442356Y-145937534D01*
X97500000Y-145647737D01*
X97500000Y-145357187D01*
X108050000Y-145357187D01*
X108050000Y-145642813D01*
X108105723Y-145922949D01*
X108215027Y-146186833D01*
X108373711Y-146424321D01*
X108575679Y-146626289D01*
X108813167Y-146784973D01*
X109077051Y-146894277D01*
X109357187Y-146950000D01*
X109642813Y-146950000D01*
X109922949Y-146894277D01*
X110186833Y-146784973D01*
X110424321Y-146626289D01*
X110626289Y-146424321D01*
X110784973Y-146186833D01*
X110894277Y-145922949D01*
X110950000Y-145642813D01*
X110950000Y-145357187D01*
X110894277Y-145077051D01*
X110784973Y-144813167D01*
X110626289Y-144575679D01*
X110424321Y-144373711D01*
X110186833Y-144215027D01*
X109922949Y-144105723D01*
X109642813Y-144050000D01*
X109357187Y-144050000D01*
X109077051Y-144105723D01*
X108813167Y-144215027D01*
X108575679Y-144373711D01*
X108373711Y-144575679D01*
X108215027Y-144813167D01*
X108105723Y-145077051D01*
X108050000Y-145357187D01*
X97500000Y-145357187D01*
X97500000Y-145352263D01*
X97442356Y-145062466D01*
X97329283Y-144789483D01*
X97165126Y-144543806D01*
X96956194Y-144334874D01*
X96710517Y-144170717D01*
X96437534Y-144057644D01*
X96147737Y-144000000D01*
X95852263Y-144000000D01*
X95562466Y-144057644D01*
X95289483Y-144170717D01*
X95043806Y-144334874D01*
X94834874Y-144543806D01*
X94670717Y-144789483D01*
X94557644Y-145062466D01*
X94500000Y-145352263D01*
X73949021Y-145352263D01*
X73894277Y-145077051D01*
X73784973Y-144813167D01*
X73626289Y-144575679D01*
X73424321Y-144373711D01*
X73186833Y-144215027D01*
X72922949Y-144105723D01*
X72642813Y-144050000D01*
X72357187Y-144050000D01*
X72077051Y-144105723D01*
X71813167Y-144215027D01*
X71575679Y-144373711D01*
X71373711Y-144575679D01*
X71215027Y-144813167D01*
X71105723Y-145077051D01*
X71050000Y-145357187D01*
X70550000Y-145357187D01*
X70550000Y-143485981D01*
X84850000Y-143485981D01*
X84850000Y-143614019D01*
X84874979Y-143739598D01*
X84923978Y-143857890D01*
X84995112Y-143964351D01*
X85085649Y-144054888D01*
X85192110Y-144126022D01*
X85310402Y-144175021D01*
X85435981Y-144200000D01*
X85564019Y-144200000D01*
X85689598Y-144175021D01*
X85807890Y-144126022D01*
X85914351Y-144054888D01*
X86004888Y-143964351D01*
X86023843Y-143935981D01*
X97600000Y-143935981D01*
X97600000Y-144064019D01*
X97624979Y-144189598D01*
X97673978Y-144307890D01*
X97745112Y-144414351D01*
X97835649Y-144504888D01*
X97942110Y-144576022D01*
X98060402Y-144625021D01*
X98185981Y-144650000D01*
X98314019Y-144650000D01*
X98439598Y-144625021D01*
X98557890Y-144576022D01*
X98664351Y-144504888D01*
X98754888Y-144414351D01*
X98826022Y-144307890D01*
X98875021Y-144189598D01*
X98900000Y-144064019D01*
X98900000Y-143935981D01*
X101850000Y-143935981D01*
X101850000Y-144064019D01*
X101874979Y-144189598D01*
X101923978Y-144307890D01*
X101995112Y-144414351D01*
X102085649Y-144504888D01*
X102192110Y-144576022D01*
X102310402Y-144625021D01*
X102435981Y-144650000D01*
X102564019Y-144650000D01*
X102689598Y-144625021D01*
X102807890Y-144576022D01*
X102914351Y-144504888D01*
X103004888Y-144414351D01*
X103076022Y-144307890D01*
X103125021Y-144189598D01*
X103150000Y-144064019D01*
X103150000Y-143935981D01*
X103125021Y-143810402D01*
X103076022Y-143692110D01*
X103004888Y-143585649D01*
X102914351Y-143495112D01*
X102807890Y-143423978D01*
X102689598Y-143374979D01*
X102564019Y-143350000D01*
X102435981Y-143350000D01*
X102310402Y-143374979D01*
X102192110Y-143423978D01*
X102085649Y-143495112D01*
X101995112Y-143585649D01*
X101923978Y-143692110D01*
X101874979Y-143810402D01*
X101850000Y-143935981D01*
X98900000Y-143935981D01*
X98875021Y-143810402D01*
X98826022Y-143692110D01*
X98754888Y-143585649D01*
X98664351Y-143495112D01*
X98557890Y-143423978D01*
X98439598Y-143374979D01*
X98314019Y-143350000D01*
X98185981Y-143350000D01*
X98060402Y-143374979D01*
X97942110Y-143423978D01*
X97835649Y-143495112D01*
X97745112Y-143585649D01*
X97673978Y-143692110D01*
X97624979Y-143810402D01*
X97600000Y-143935981D01*
X86023843Y-143935981D01*
X86076022Y-143857890D01*
X86125021Y-143739598D01*
X86150000Y-143614019D01*
X86150000Y-143485981D01*
X86125021Y-143360402D01*
X86076022Y-143242110D01*
X86004888Y-143135649D01*
X85914351Y-143045112D01*
X85807890Y-142973978D01*
X85689598Y-142924979D01*
X85564019Y-142900000D01*
X85435981Y-142900000D01*
X85310402Y-142924979D01*
X85192110Y-142973978D01*
X85085649Y-143045112D01*
X84995112Y-143135649D01*
X84923978Y-143242110D01*
X84874979Y-143360402D01*
X84850000Y-143485981D01*
X70550000Y-143485981D01*
X70550000Y-142435981D01*
X88850000Y-142435981D01*
X88850000Y-142564019D01*
X88874979Y-142689598D01*
X88923978Y-142807890D01*
X88995112Y-142914351D01*
X89085649Y-143004888D01*
X89134464Y-143037504D01*
X89124979Y-143060402D01*
X89100000Y-143185981D01*
X89100000Y-143314019D01*
X89124979Y-143439598D01*
X89173978Y-143557890D01*
X89245112Y-143664351D01*
X89335649Y-143754888D01*
X89442110Y-143826022D01*
X89560402Y-143875021D01*
X89685981Y-143900000D01*
X89814019Y-143900000D01*
X89939598Y-143875021D01*
X90057890Y-143826022D01*
X90164351Y-143754888D01*
X90254888Y-143664351D01*
X90326022Y-143557890D01*
X90375021Y-143439598D01*
X90400000Y-143314019D01*
X90400000Y-143185981D01*
X90375021Y-143060402D01*
X90326022Y-142942110D01*
X90254888Y-142835649D01*
X90164351Y-142745112D01*
X90115536Y-142712496D01*
X90125021Y-142689598D01*
X90150000Y-142564019D01*
X90150000Y-142435981D01*
X90125021Y-142310402D01*
X90076022Y-142192110D01*
X90004888Y-142085649D01*
X89914351Y-141995112D01*
X89825855Y-141935981D01*
X100100000Y-141935981D01*
X100100000Y-142064019D01*
X100124979Y-142189598D01*
X100173978Y-142307890D01*
X100245112Y-142414351D01*
X100335649Y-142504888D01*
X100442110Y-142576022D01*
X100560402Y-142625021D01*
X100685981Y-142650000D01*
X100814019Y-142650000D01*
X100939598Y-142625021D01*
X101057890Y-142576022D01*
X101164351Y-142504888D01*
X101252957Y-142416282D01*
X101400000Y-142416282D01*
X101400000Y-142583718D01*
X101432665Y-142747936D01*
X101496740Y-142902626D01*
X101589762Y-143041844D01*
X101708156Y-143160238D01*
X101847374Y-143253260D01*
X102002064Y-143317335D01*
X102166282Y-143350000D01*
X102333718Y-143350000D01*
X102497936Y-143317335D01*
X102652626Y-143253260D01*
X102791844Y-143160238D01*
X102910238Y-143041844D01*
X103003260Y-142902626D01*
X103067335Y-142747936D01*
X103100000Y-142583718D01*
X103100000Y-142435981D01*
X108850000Y-142435981D01*
X108850000Y-142564019D01*
X108874979Y-142689598D01*
X108923978Y-142807890D01*
X108995112Y-142914351D01*
X109085649Y-143004888D01*
X109192110Y-143076022D01*
X109310402Y-143125021D01*
X109435981Y-143150000D01*
X109564019Y-143150000D01*
X109689598Y-143125021D01*
X109807890Y-143076022D01*
X109914351Y-143004888D01*
X110004888Y-142914351D01*
X110076022Y-142807890D01*
X110125021Y-142689598D01*
X110150000Y-142564019D01*
X110150000Y-142435981D01*
X110125021Y-142310402D01*
X110076022Y-142192110D01*
X110004888Y-142085649D01*
X109914351Y-141995112D01*
X109807890Y-141923978D01*
X109689598Y-141874979D01*
X109564019Y-141850000D01*
X109435981Y-141850000D01*
X109310402Y-141874979D01*
X109192110Y-141923978D01*
X109085649Y-141995112D01*
X108995112Y-142085649D01*
X108923978Y-142192110D01*
X108874979Y-142310402D01*
X108850000Y-142435981D01*
X103100000Y-142435981D01*
X103100000Y-142416282D01*
X103067335Y-142252064D01*
X103003260Y-142097374D01*
X102910238Y-141958156D01*
X102791844Y-141839762D01*
X102652626Y-141746740D01*
X102497936Y-141682665D01*
X102333718Y-141650000D01*
X102166282Y-141650000D01*
X102002064Y-141682665D01*
X101847374Y-141746740D01*
X101708156Y-141839762D01*
X101589762Y-141958156D01*
X101496740Y-142097374D01*
X101432665Y-142252064D01*
X101400000Y-142416282D01*
X101252957Y-142416282D01*
X101254888Y-142414351D01*
X101326022Y-142307890D01*
X101375021Y-142189598D01*
X101400000Y-142064019D01*
X101400000Y-141935981D01*
X101375021Y-141810402D01*
X101326022Y-141692110D01*
X101254888Y-141585649D01*
X101164351Y-141495112D01*
X101057890Y-141423978D01*
X100939598Y-141374979D01*
X100814019Y-141350000D01*
X100685981Y-141350000D01*
X100560402Y-141374979D01*
X100442110Y-141423978D01*
X100335649Y-141495112D01*
X100245112Y-141585649D01*
X100173978Y-141692110D01*
X100124979Y-141810402D01*
X100100000Y-141935981D01*
X89825855Y-141935981D01*
X89807890Y-141923978D01*
X89689598Y-141874979D01*
X89564019Y-141850000D01*
X89435981Y-141850000D01*
X89310402Y-141874979D01*
X89192110Y-141923978D01*
X89085649Y-141995112D01*
X88995112Y-142085649D01*
X88923978Y-142192110D01*
X88874979Y-142310402D01*
X88850000Y-142435981D01*
X70550000Y-142435981D01*
X70550000Y-140166282D01*
X85650000Y-140166282D01*
X85650000Y-140333718D01*
X85682665Y-140497936D01*
X85746740Y-140652626D01*
X85839762Y-140791844D01*
X85958156Y-140910238D01*
X86097374Y-141003260D01*
X86252064Y-141067335D01*
X86416282Y-141100000D01*
X86583718Y-141100000D01*
X86747936Y-141067335D01*
X86902626Y-141003260D01*
X87041844Y-140910238D01*
X87160238Y-140791844D01*
X87253260Y-140652626D01*
X87317335Y-140497936D01*
X87329658Y-140435981D01*
X95100000Y-140435981D01*
X95100000Y-140564019D01*
X95124979Y-140689598D01*
X95173978Y-140807890D01*
X95245112Y-140914351D01*
X95335649Y-141004888D01*
X95442110Y-141076022D01*
X95560402Y-141125021D01*
X95685981Y-141150000D01*
X95814019Y-141150000D01*
X95939598Y-141125021D01*
X96057890Y-141076022D01*
X96164351Y-141004888D01*
X96254888Y-140914351D01*
X96326022Y-140807890D01*
X96375021Y-140689598D01*
X96375740Y-140685981D01*
X107600000Y-140685981D01*
X107600000Y-140814019D01*
X107624979Y-140939598D01*
X107673978Y-141057890D01*
X107745112Y-141164351D01*
X107835649Y-141254888D01*
X107942110Y-141326022D01*
X108060402Y-141375021D01*
X108185981Y-141400000D01*
X108314019Y-141400000D01*
X108439598Y-141375021D01*
X108557890Y-141326022D01*
X108664351Y-141254888D01*
X108754888Y-141164351D01*
X108826022Y-141057890D01*
X108875021Y-140939598D01*
X108900000Y-140814019D01*
X108900000Y-140685981D01*
X108875021Y-140560402D01*
X108826022Y-140442110D01*
X108754888Y-140335649D01*
X108664351Y-140245112D01*
X108557890Y-140173978D01*
X108439598Y-140124979D01*
X108314019Y-140100000D01*
X108185981Y-140100000D01*
X108060402Y-140124979D01*
X107942110Y-140173978D01*
X107835649Y-140245112D01*
X107745112Y-140335649D01*
X107673978Y-140442110D01*
X107624979Y-140560402D01*
X107600000Y-140685981D01*
X96375740Y-140685981D01*
X96400000Y-140564019D01*
X96400000Y-140435981D01*
X96375021Y-140310402D01*
X96326022Y-140192110D01*
X96254888Y-140085649D01*
X96164351Y-139995112D01*
X96057890Y-139923978D01*
X95939598Y-139874979D01*
X95814019Y-139850000D01*
X95685981Y-139850000D01*
X95560402Y-139874979D01*
X95442110Y-139923978D01*
X95335649Y-139995112D01*
X95245112Y-140085649D01*
X95173978Y-140192110D01*
X95124979Y-140310402D01*
X95100000Y-140435981D01*
X87329658Y-140435981D01*
X87350000Y-140333718D01*
X87350000Y-140166282D01*
X87317335Y-140002064D01*
X87253260Y-139847374D01*
X87160238Y-139708156D01*
X87041844Y-139589762D01*
X86902626Y-139496740D01*
X86747936Y-139432665D01*
X86583718Y-139400000D01*
X86416282Y-139400000D01*
X86252064Y-139432665D01*
X86097374Y-139496740D01*
X85958156Y-139589762D01*
X85839762Y-139708156D01*
X85746740Y-139847374D01*
X85682665Y-140002064D01*
X85650000Y-140166282D01*
X70550000Y-140166282D01*
X70550000Y-138232336D01*
X70589762Y-138291844D01*
X70708156Y-138410238D01*
X70847374Y-138503260D01*
X71002064Y-138567335D01*
X71166282Y-138600000D01*
X71333718Y-138600000D01*
X71497936Y-138567335D01*
X71652626Y-138503260D01*
X71791844Y-138410238D01*
X71910238Y-138291844D01*
X72003260Y-138152626D01*
X72067335Y-137997936D01*
X72100000Y-137833718D01*
X72100000Y-137666282D01*
X72067335Y-137502064D01*
X72050318Y-137460981D01*
X77625000Y-137460981D01*
X77625000Y-137589019D01*
X77649979Y-137714598D01*
X77698978Y-137832890D01*
X77770112Y-137939351D01*
X77860649Y-138029888D01*
X77967110Y-138101022D01*
X78085402Y-138150021D01*
X78210981Y-138175000D01*
X78339019Y-138175000D01*
X78464598Y-138150021D01*
X78582890Y-138101022D01*
X78689351Y-138029888D01*
X78779888Y-137939351D01*
X78851022Y-137832890D01*
X78900021Y-137714598D01*
X78905713Y-137685981D01*
X94600000Y-137685981D01*
X94600000Y-137814019D01*
X94624979Y-137939598D01*
X94673978Y-138057890D01*
X94745112Y-138164351D01*
X94835649Y-138254888D01*
X94942110Y-138326022D01*
X95060402Y-138375021D01*
X95185981Y-138400000D01*
X95314019Y-138400000D01*
X95439598Y-138375021D01*
X95557890Y-138326022D01*
X95664351Y-138254888D01*
X95754888Y-138164351D01*
X95826022Y-138057890D01*
X95875021Y-137939598D01*
X95900000Y-137814019D01*
X95900000Y-137685981D01*
X95875021Y-137560402D01*
X95826022Y-137442110D01*
X95770018Y-137358293D01*
X95810402Y-137375021D01*
X95935981Y-137400000D01*
X96064019Y-137400000D01*
X96189598Y-137375021D01*
X96229982Y-137358293D01*
X96173978Y-137442110D01*
X96124979Y-137560402D01*
X96100000Y-137685981D01*
X96100000Y-137814019D01*
X96124979Y-137939598D01*
X96173978Y-138057890D01*
X96245112Y-138164351D01*
X96335649Y-138254888D01*
X96442110Y-138326022D01*
X96560402Y-138375021D01*
X96685981Y-138400000D01*
X96814019Y-138400000D01*
X96939598Y-138375021D01*
X97057890Y-138326022D01*
X97164351Y-138254888D01*
X97254888Y-138164351D01*
X97326022Y-138057890D01*
X97375021Y-137939598D01*
X97379658Y-137916282D01*
X99400000Y-137916282D01*
X99400000Y-138083718D01*
X99432665Y-138247936D01*
X99496740Y-138402626D01*
X99589762Y-138541844D01*
X99708156Y-138660238D01*
X99847374Y-138753260D01*
X100002064Y-138817335D01*
X100166282Y-138850000D01*
X100333718Y-138850000D01*
X100497936Y-138817335D01*
X100652626Y-138753260D01*
X100791844Y-138660238D01*
X100910238Y-138541844D01*
X101003260Y-138402626D01*
X101067335Y-138247936D01*
X101100000Y-138083718D01*
X101100000Y-137916282D01*
X101067335Y-137752064D01*
X101003260Y-137597374D01*
X100910238Y-137458156D01*
X100791844Y-137339762D01*
X100652626Y-137246740D01*
X100497936Y-137182665D01*
X100333718Y-137150000D01*
X100166282Y-137150000D01*
X100002064Y-137182665D01*
X99847374Y-137246740D01*
X99708156Y-137339762D01*
X99589762Y-137458156D01*
X99496740Y-137597374D01*
X99432665Y-137752064D01*
X99400000Y-137916282D01*
X97379658Y-137916282D01*
X97400000Y-137814019D01*
X97400000Y-137685981D01*
X97375021Y-137560402D01*
X97326022Y-137442110D01*
X97254888Y-137335649D01*
X97164351Y-137245112D01*
X97057890Y-137173978D01*
X96939598Y-137124979D01*
X96814019Y-137100000D01*
X96685981Y-137100000D01*
X96560402Y-137124979D01*
X96520018Y-137141707D01*
X96576022Y-137057890D01*
X96625021Y-136939598D01*
X96650000Y-136814019D01*
X96650000Y-136685981D01*
X96625021Y-136560402D01*
X96576022Y-136442110D01*
X96558765Y-136416282D01*
X106900000Y-136416282D01*
X106900000Y-136583718D01*
X106932665Y-136747936D01*
X106996740Y-136902626D01*
X107089762Y-137041844D01*
X107208156Y-137160238D01*
X107347374Y-137253260D01*
X107502064Y-137317335D01*
X107666282Y-137350000D01*
X107833718Y-137350000D01*
X107997936Y-137317335D01*
X108152626Y-137253260D01*
X108291844Y-137160238D01*
X108410238Y-137041844D01*
X108503260Y-136902626D01*
X108567335Y-136747936D01*
X108600000Y-136583718D01*
X108600000Y-136416282D01*
X108567335Y-136252064D01*
X108503260Y-136097374D01*
X108410238Y-135958156D01*
X108291844Y-135839762D01*
X108152626Y-135746740D01*
X107997936Y-135682665D01*
X107833718Y-135650000D01*
X107666282Y-135650000D01*
X107502064Y-135682665D01*
X107347374Y-135746740D01*
X107208156Y-135839762D01*
X107089762Y-135958156D01*
X106996740Y-136097374D01*
X106932665Y-136252064D01*
X106900000Y-136416282D01*
X96558765Y-136416282D01*
X96504888Y-136335649D01*
X96414351Y-136245112D01*
X96307890Y-136173978D01*
X96189598Y-136124979D01*
X96064019Y-136100000D01*
X95935981Y-136100000D01*
X95810402Y-136124979D01*
X95692110Y-136173978D01*
X95585649Y-136245112D01*
X95495112Y-136335649D01*
X95423978Y-136442110D01*
X95374979Y-136560402D01*
X95350000Y-136685981D01*
X95350000Y-136814019D01*
X95374979Y-136939598D01*
X95423978Y-137057890D01*
X95479982Y-137141707D01*
X95439598Y-137124979D01*
X95314019Y-137100000D01*
X95185981Y-137100000D01*
X95060402Y-137124979D01*
X94942110Y-137173978D01*
X94835649Y-137245112D01*
X94745112Y-137335649D01*
X94673978Y-137442110D01*
X94624979Y-137560402D01*
X94600000Y-137685981D01*
X78905713Y-137685981D01*
X78925000Y-137589019D01*
X78925000Y-137460981D01*
X78900021Y-137335402D01*
X78851022Y-137217110D01*
X78779888Y-137110649D01*
X78689351Y-137020112D01*
X78582890Y-136948978D01*
X78464598Y-136899979D01*
X78339019Y-136875000D01*
X78210981Y-136875000D01*
X78085402Y-136899979D01*
X77967110Y-136948978D01*
X77860649Y-137020112D01*
X77770112Y-137110649D01*
X77698978Y-137217110D01*
X77649979Y-137335402D01*
X77625000Y-137460981D01*
X72050318Y-137460981D01*
X72003260Y-137347374D01*
X71910238Y-137208156D01*
X71791844Y-137089762D01*
X71652626Y-136996740D01*
X71497936Y-136932665D01*
X71333718Y-136900000D01*
X71166282Y-136900000D01*
X71002064Y-136932665D01*
X70847374Y-136996740D01*
X70708156Y-137089762D01*
X70589762Y-137208156D01*
X70550000Y-137267664D01*
X70550000Y-135916282D01*
X75400000Y-135916282D01*
X75400000Y-136083718D01*
X75432665Y-136247936D01*
X75496740Y-136402626D01*
X75589762Y-136541844D01*
X75708156Y-136660238D01*
X75847374Y-136753260D01*
X76002064Y-136817335D01*
X76166282Y-136850000D01*
X76333718Y-136850000D01*
X76497936Y-136817335D01*
X76652626Y-136753260D01*
X76791844Y-136660238D01*
X76910238Y-136541844D01*
X77003260Y-136402626D01*
X77067335Y-136247936D01*
X77100000Y-136083718D01*
X77100000Y-135916282D01*
X77067335Y-135752064D01*
X77003260Y-135597374D01*
X76910238Y-135458156D01*
X76791844Y-135339762D01*
X76652626Y-135246740D01*
X76497936Y-135182665D01*
X76333718Y-135150000D01*
X76166282Y-135150000D01*
X76002064Y-135182665D01*
X75847374Y-135246740D01*
X75708156Y-135339762D01*
X75589762Y-135458156D01*
X75496740Y-135597374D01*
X75432665Y-135752064D01*
X75400000Y-135916282D01*
X70550000Y-135916282D01*
X70550000Y-134685981D01*
X89725000Y-134685981D01*
X89725000Y-134814019D01*
X89749979Y-134939598D01*
X89798978Y-135057890D01*
X89870112Y-135164351D01*
X89960649Y-135254888D01*
X90067110Y-135326022D01*
X90185402Y-135375021D01*
X90310981Y-135400000D01*
X90439019Y-135400000D01*
X90564598Y-135375021D01*
X90682890Y-135326022D01*
X90789351Y-135254888D01*
X90879888Y-135164351D01*
X90951022Y-135057890D01*
X91000021Y-134939598D01*
X91025000Y-134814019D01*
X91025000Y-134685981D01*
X91000021Y-134560402D01*
X90951022Y-134442110D01*
X90879888Y-134335649D01*
X90789351Y-134245112D01*
X90700855Y-134185981D01*
X99100000Y-134185981D01*
X99100000Y-134314019D01*
X99124979Y-134439598D01*
X99173978Y-134557890D01*
X99245112Y-134664351D01*
X99335649Y-134754888D01*
X99442110Y-134826022D01*
X99560402Y-134875021D01*
X99685981Y-134900000D01*
X99814019Y-134900000D01*
X99865082Y-134889843D01*
X99874979Y-134939598D01*
X99923978Y-135057890D01*
X99995112Y-135164351D01*
X100085649Y-135254888D01*
X100192110Y-135326022D01*
X100310402Y-135375021D01*
X100435981Y-135400000D01*
X100564019Y-135400000D01*
X100615082Y-135389843D01*
X100624979Y-135439598D01*
X100673978Y-135557890D01*
X100745112Y-135664351D01*
X100835649Y-135754888D01*
X100942110Y-135826022D01*
X101060402Y-135875021D01*
X101185981Y-135900000D01*
X101314019Y-135900000D01*
X101439598Y-135875021D01*
X101557890Y-135826022D01*
X101664351Y-135754888D01*
X101754888Y-135664351D01*
X101826022Y-135557890D01*
X101875021Y-135439598D01*
X101900000Y-135314019D01*
X101900000Y-135185981D01*
X101892644Y-135148996D01*
X109439087Y-135148996D01*
X109475949Y-135281136D01*
X109545093Y-135420891D01*
X109640173Y-135544472D01*
X109757535Y-135647129D01*
X109892670Y-135724917D01*
X110040384Y-135774847D01*
X110195000Y-135795000D01*
X110525000Y-135795000D01*
X110525000Y-135025000D01*
X109512942Y-135025000D01*
X109439087Y-135148996D01*
X101892644Y-135148996D01*
X101875021Y-135060402D01*
X101826022Y-134942110D01*
X101754888Y-134835649D01*
X101664351Y-134745112D01*
X101557890Y-134673978D01*
X101439598Y-134624979D01*
X101314019Y-134600000D01*
X101185981Y-134600000D01*
X101134918Y-134610157D01*
X101125021Y-134560402D01*
X101076022Y-134442110D01*
X101004888Y-134335649D01*
X100914351Y-134245112D01*
X100807890Y-134173978D01*
X100689598Y-134124979D01*
X100564019Y-134100000D01*
X100435981Y-134100000D01*
X100384918Y-134110157D01*
X100375021Y-134060402D01*
X100360357Y-134025000D01*
X107025000Y-134025000D01*
X107025000Y-134175000D01*
X107045729Y-134335469D01*
X107097366Y-134488811D01*
X107177926Y-134629132D01*
X107284314Y-134751041D01*
X107412441Y-134849852D01*
X107557383Y-134921768D01*
X107696309Y-134960558D01*
X107825000Y-134887076D01*
X107825000Y-134025000D01*
X107875000Y-134025000D01*
X107875000Y-134887076D01*
X108003691Y-134960558D01*
X108142617Y-134921768D01*
X108285237Y-134851004D01*
X109439087Y-134851004D01*
X109512942Y-134975000D01*
X110525000Y-134975000D01*
X110525000Y-134205000D01*
X110195000Y-134205000D01*
X110040384Y-134225153D01*
X109892670Y-134275083D01*
X109757535Y-134352871D01*
X109640173Y-134455528D01*
X109545093Y-134579109D01*
X109475949Y-134718864D01*
X109439087Y-134851004D01*
X108285237Y-134851004D01*
X108287559Y-134849852D01*
X108415686Y-134751041D01*
X108522074Y-134629132D01*
X108602634Y-134488811D01*
X108654271Y-134335469D01*
X108675000Y-134175000D01*
X108675000Y-134025000D01*
X107875000Y-134025000D01*
X107825000Y-134025000D01*
X107025000Y-134025000D01*
X100360357Y-134025000D01*
X100326022Y-133942110D01*
X100254888Y-133835649D01*
X100244239Y-133825000D01*
X107025000Y-133825000D01*
X107025000Y-133975000D01*
X107825000Y-133975000D01*
X107825000Y-133112924D01*
X107875000Y-133112924D01*
X107875000Y-133975000D01*
X108675000Y-133975000D01*
X108675000Y-133825000D01*
X108654271Y-133664531D01*
X108602634Y-133511189D01*
X108522074Y-133370868D01*
X108415686Y-133248959D01*
X108287559Y-133150148D01*
X108142617Y-133078232D01*
X108003691Y-133039442D01*
X107875000Y-133112924D01*
X107825000Y-133112924D01*
X107696309Y-133039442D01*
X107557383Y-133078232D01*
X107412441Y-133150148D01*
X107284314Y-133248959D01*
X107177926Y-133370868D01*
X107097366Y-133511189D01*
X107045729Y-133664531D01*
X107025000Y-133825000D01*
X100244239Y-133825000D01*
X100164351Y-133745112D01*
X100057890Y-133673978D01*
X99939598Y-133624979D01*
X99814019Y-133600000D01*
X99685981Y-133600000D01*
X99560402Y-133624979D01*
X99442110Y-133673978D01*
X99335649Y-133745112D01*
X99245112Y-133835649D01*
X99173978Y-133942110D01*
X99124979Y-134060402D01*
X99100000Y-134185981D01*
X90700855Y-134185981D01*
X90682890Y-134173978D01*
X90564598Y-134124979D01*
X90439019Y-134100000D01*
X90310981Y-134100000D01*
X90185402Y-134124979D01*
X90067110Y-134173978D01*
X89960649Y-134245112D01*
X89870112Y-134335649D01*
X89798978Y-134442110D01*
X89749979Y-134560402D01*
X89725000Y-134685981D01*
X70550000Y-134685981D01*
X70550000Y-133435981D01*
X86600000Y-133435981D01*
X86600000Y-133564019D01*
X86624979Y-133689598D01*
X86673978Y-133807890D01*
X86745112Y-133914351D01*
X86835649Y-134004888D01*
X86942110Y-134076022D01*
X87060402Y-134125021D01*
X87185981Y-134150000D01*
X87314019Y-134150000D01*
X87439598Y-134125021D01*
X87557890Y-134076022D01*
X87664351Y-134004888D01*
X87754888Y-133914351D01*
X87826022Y-133807890D01*
X87875021Y-133689598D01*
X87900000Y-133564019D01*
X87900000Y-133435981D01*
X87875021Y-133310402D01*
X87826022Y-133192110D01*
X87754888Y-133085649D01*
X87664351Y-132995112D01*
X87575855Y-132935981D01*
X93350000Y-132935981D01*
X93350000Y-133064019D01*
X93374979Y-133189598D01*
X93423978Y-133307890D01*
X93495112Y-133414351D01*
X93585649Y-133504888D01*
X93692110Y-133576022D01*
X93810402Y-133625021D01*
X93935981Y-133650000D01*
X94064019Y-133650000D01*
X94189598Y-133625021D01*
X94307890Y-133576022D01*
X94414351Y-133504888D01*
X94504888Y-133414351D01*
X94576022Y-133307890D01*
X94625000Y-133189649D01*
X94673978Y-133307890D01*
X94745112Y-133414351D01*
X94835649Y-133504888D01*
X94942110Y-133576022D01*
X95060402Y-133625021D01*
X95185981Y-133650000D01*
X95314019Y-133650000D01*
X95439598Y-133625021D01*
X95557890Y-133576022D01*
X95664351Y-133504888D01*
X95754888Y-133414351D01*
X95826022Y-133307890D01*
X95875021Y-133189598D01*
X95900000Y-133064019D01*
X95900000Y-132935981D01*
X95875021Y-132810402D01*
X95826022Y-132692110D01*
X95754888Y-132585649D01*
X95664351Y-132495112D01*
X95557890Y-132423978D01*
X95439598Y-132374979D01*
X95314019Y-132350000D01*
X95185981Y-132350000D01*
X95060402Y-132374979D01*
X94942110Y-132423978D01*
X94835649Y-132495112D01*
X94745112Y-132585649D01*
X94673978Y-132692110D01*
X94625000Y-132810351D01*
X94576022Y-132692110D01*
X94504888Y-132585649D01*
X94414351Y-132495112D01*
X94307890Y-132423978D01*
X94189598Y-132374979D01*
X94064019Y-132350000D01*
X93935981Y-132350000D01*
X93810402Y-132374979D01*
X93692110Y-132423978D01*
X93585649Y-132495112D01*
X93495112Y-132585649D01*
X93423978Y-132692110D01*
X93374979Y-132810402D01*
X93350000Y-132935981D01*
X87575855Y-132935981D01*
X87557890Y-132923978D01*
X87439598Y-132874979D01*
X87314019Y-132850000D01*
X87185981Y-132850000D01*
X87060402Y-132874979D01*
X86942110Y-132923978D01*
X86835649Y-132995112D01*
X86745112Y-133085649D01*
X86673978Y-133192110D01*
X86624979Y-133310402D01*
X86600000Y-133435981D01*
X70550000Y-133435981D01*
X70550000Y-131381810D01*
X73900000Y-131381810D01*
X73900000Y-131618190D01*
X73946116Y-131850027D01*
X74036574Y-132068413D01*
X74167899Y-132264955D01*
X74335045Y-132432101D01*
X74531587Y-132563426D01*
X74749973Y-132653884D01*
X74981810Y-132700000D01*
X75218190Y-132700000D01*
X75450027Y-132653884D01*
X75668413Y-132563426D01*
X75864955Y-132432101D01*
X76032101Y-132264955D01*
X76163426Y-132068413D01*
X76253884Y-131850027D01*
X76300000Y-131618190D01*
X76300000Y-131381810D01*
X80900000Y-131381810D01*
X80900000Y-131618190D01*
X80946116Y-131850027D01*
X81036574Y-132068413D01*
X81167899Y-132264955D01*
X81335045Y-132432101D01*
X81531587Y-132563426D01*
X81749973Y-132653884D01*
X81981810Y-132700000D01*
X82218190Y-132700000D01*
X82450027Y-132653884D01*
X82668413Y-132563426D01*
X82864955Y-132432101D01*
X83032101Y-132264955D01*
X83163426Y-132068413D01*
X83253884Y-131850027D01*
X83300000Y-131618190D01*
X83300000Y-131435981D01*
X85350000Y-131435981D01*
X85350000Y-131564019D01*
X85374979Y-131689598D01*
X85423978Y-131807890D01*
X85495112Y-131914351D01*
X85585649Y-132004888D01*
X85692110Y-132076022D01*
X85810402Y-132125021D01*
X85935981Y-132150000D01*
X86064019Y-132150000D01*
X86189598Y-132125021D01*
X86307890Y-132076022D01*
X86414351Y-132004888D01*
X86504888Y-131914351D01*
X86576022Y-131807890D01*
X86625021Y-131689598D01*
X86650000Y-131564019D01*
X86650000Y-131435981D01*
X93850000Y-131435981D01*
X93850000Y-131564019D01*
X93874979Y-131689598D01*
X93923978Y-131807890D01*
X93995112Y-131914351D01*
X94085649Y-132004888D01*
X94192110Y-132076022D01*
X94310402Y-132125021D01*
X94435981Y-132150000D01*
X94564019Y-132150000D01*
X94689598Y-132125021D01*
X94807890Y-132076022D01*
X94914351Y-132004888D01*
X95004888Y-131914351D01*
X95076022Y-131807890D01*
X95125021Y-131689598D01*
X95150000Y-131564019D01*
X95150000Y-131435981D01*
X95125021Y-131310402D01*
X95076022Y-131192110D01*
X95004888Y-131085649D01*
X94914351Y-130995112D01*
X94807890Y-130923978D01*
X94689598Y-130874979D01*
X94564019Y-130850000D01*
X94435981Y-130850000D01*
X94310402Y-130874979D01*
X94192110Y-130923978D01*
X94085649Y-130995112D01*
X93995112Y-131085649D01*
X93923978Y-131192110D01*
X93874979Y-131310402D01*
X93850000Y-131435981D01*
X86650000Y-131435981D01*
X86625021Y-131310402D01*
X86576022Y-131192110D01*
X86504888Y-131085649D01*
X86414351Y-130995112D01*
X86307890Y-130923978D01*
X86189598Y-130874979D01*
X86064019Y-130850000D01*
X85935981Y-130850000D01*
X85810402Y-130874979D01*
X85692110Y-130923978D01*
X85585649Y-130995112D01*
X85495112Y-131085649D01*
X85423978Y-131192110D01*
X85374979Y-131310402D01*
X85350000Y-131435981D01*
X83300000Y-131435981D01*
X83300000Y-131381810D01*
X83253884Y-131149973D01*
X83163426Y-130931587D01*
X83032101Y-130735045D01*
X82983037Y-130685981D01*
X92350000Y-130685981D01*
X92350000Y-130814019D01*
X92374979Y-130939598D01*
X92423978Y-131057890D01*
X92495112Y-131164351D01*
X92585649Y-131254888D01*
X92692110Y-131326022D01*
X92810402Y-131375021D01*
X92935981Y-131400000D01*
X93064019Y-131400000D01*
X93189598Y-131375021D01*
X93307890Y-131326022D01*
X93414351Y-131254888D01*
X93504888Y-131164351D01*
X93576022Y-131057890D01*
X93625021Y-130939598D01*
X93650000Y-130814019D01*
X93650000Y-130685981D01*
X93625021Y-130560402D01*
X93576022Y-130442110D01*
X93571927Y-130435981D01*
X98850000Y-130435981D01*
X98850000Y-130564019D01*
X98874979Y-130689598D01*
X98923978Y-130807890D01*
X98995112Y-130914351D01*
X99085649Y-131004888D01*
X99192110Y-131076022D01*
X99310402Y-131125021D01*
X99435981Y-131150000D01*
X99564019Y-131150000D01*
X99689598Y-131125021D01*
X99807890Y-131076022D01*
X99914351Y-131004888D01*
X100004888Y-130914351D01*
X100076022Y-130807890D01*
X100125021Y-130689598D01*
X100150000Y-130564019D01*
X100150000Y-130435981D01*
X100125021Y-130310402D01*
X100076022Y-130192110D01*
X100004888Y-130085649D01*
X99914351Y-129995112D01*
X99807890Y-129923978D01*
X99689598Y-129874979D01*
X99564019Y-129850000D01*
X99435981Y-129850000D01*
X99310402Y-129874979D01*
X99192110Y-129923978D01*
X99085649Y-129995112D01*
X98995112Y-130085649D01*
X98923978Y-130192110D01*
X98874979Y-130310402D01*
X98850000Y-130435981D01*
X93571927Y-130435981D01*
X93504888Y-130335649D01*
X93414351Y-130245112D01*
X93307890Y-130173978D01*
X93189598Y-130124979D01*
X93064019Y-130100000D01*
X92935981Y-130100000D01*
X92810402Y-130124979D01*
X92692110Y-130173978D01*
X92585649Y-130245112D01*
X92495112Y-130335649D01*
X92423978Y-130442110D01*
X92374979Y-130560402D01*
X92350000Y-130685981D01*
X82983037Y-130685981D01*
X82864955Y-130567899D01*
X82668413Y-130436574D01*
X82450027Y-130346116D01*
X82218190Y-130300000D01*
X81981810Y-130300000D01*
X81749973Y-130346116D01*
X81531587Y-130436574D01*
X81335045Y-130567899D01*
X81167899Y-130735045D01*
X81036574Y-130931587D01*
X80946116Y-131149973D01*
X80900000Y-131381810D01*
X76300000Y-131381810D01*
X76253884Y-131149973D01*
X76163426Y-130931587D01*
X76032101Y-130735045D01*
X75864955Y-130567899D01*
X75668413Y-130436574D01*
X75450027Y-130346116D01*
X75218190Y-130300000D01*
X74981810Y-130300000D01*
X74749973Y-130346116D01*
X74531587Y-130436574D01*
X74335045Y-130567899D01*
X74167899Y-130735045D01*
X74036574Y-130931587D01*
X73946116Y-131149973D01*
X73900000Y-131381810D01*
X70550000Y-131381810D01*
X70550000Y-130185981D01*
X79600000Y-130185981D01*
X79600000Y-130314019D01*
X79624979Y-130439598D01*
X79673978Y-130557890D01*
X79745112Y-130664351D01*
X79835649Y-130754888D01*
X79942110Y-130826022D01*
X80060402Y-130875021D01*
X80185981Y-130900000D01*
X80314019Y-130900000D01*
X80439598Y-130875021D01*
X80557890Y-130826022D01*
X80664351Y-130754888D01*
X80754888Y-130664351D01*
X80826022Y-130557890D01*
X80875021Y-130439598D01*
X80900000Y-130314019D01*
X80900000Y-130185981D01*
X80875021Y-130060402D01*
X80826022Y-129942110D01*
X80754888Y-129835649D01*
X80664351Y-129745112D01*
X80575855Y-129685981D01*
X85350000Y-129685981D01*
X85350000Y-129814019D01*
X85374979Y-129939598D01*
X85423978Y-130057890D01*
X85495112Y-130164351D01*
X85585649Y-130254888D01*
X85692110Y-130326022D01*
X85810402Y-130375021D01*
X85935981Y-130400000D01*
X86064019Y-130400000D01*
X86189598Y-130375021D01*
X86307890Y-130326022D01*
X86414351Y-130254888D01*
X86504888Y-130164351D01*
X86576022Y-130057890D01*
X86625021Y-129939598D01*
X86650000Y-129814019D01*
X86650000Y-129685981D01*
X86625021Y-129560402D01*
X86576022Y-129442110D01*
X86504888Y-129335649D01*
X86414351Y-129245112D01*
X86325855Y-129185981D01*
X86600000Y-129185981D01*
X86600000Y-129314019D01*
X86624979Y-129439598D01*
X86673978Y-129557890D01*
X86745112Y-129664351D01*
X86835649Y-129754888D01*
X86942110Y-129826022D01*
X87060402Y-129875021D01*
X87185981Y-129900000D01*
X87314019Y-129900000D01*
X87439598Y-129875021D01*
X87557890Y-129826022D01*
X87582668Y-129809466D01*
X103225889Y-129809466D01*
X103268406Y-129955391D01*
X103415274Y-130035791D01*
X103575006Y-130085993D01*
X103741462Y-130104069D01*
X103908247Y-130089324D01*
X104068950Y-130042324D01*
X104217395Y-129964876D01*
X104231594Y-129955391D01*
X104274111Y-129809466D01*
X103750000Y-129285355D01*
X103225889Y-129809466D01*
X87582668Y-129809466D01*
X87664351Y-129754888D01*
X87754888Y-129664351D01*
X87826022Y-129557890D01*
X87875021Y-129439598D01*
X87900000Y-129314019D01*
X87900000Y-129241462D01*
X102895931Y-129241462D01*
X102910676Y-129408247D01*
X102957676Y-129568950D01*
X103035124Y-129717395D01*
X103044609Y-129731594D01*
X103190534Y-129774111D01*
X103714645Y-129250000D01*
X103785355Y-129250000D01*
X104309466Y-129774111D01*
X104455391Y-129731594D01*
X104535791Y-129584726D01*
X104585993Y-129424994D01*
X104604069Y-129258538D01*
X104589324Y-129091753D01*
X104569802Y-129025000D01*
X107025000Y-129025000D01*
X107025000Y-129175000D01*
X107045729Y-129335469D01*
X107097366Y-129488811D01*
X107177926Y-129629132D01*
X107284314Y-129751041D01*
X107412441Y-129849852D01*
X107557383Y-129921768D01*
X107696309Y-129960558D01*
X107825000Y-129887076D01*
X107825000Y-129025000D01*
X107875000Y-129025000D01*
X107875000Y-129887076D01*
X108003691Y-129960558D01*
X108142617Y-129921768D01*
X108287559Y-129849852D01*
X108415686Y-129751041D01*
X108522074Y-129629132D01*
X108602634Y-129488811D01*
X108654271Y-129335469D01*
X108675000Y-129175000D01*
X108675000Y-129025000D01*
X107875000Y-129025000D01*
X107825000Y-129025000D01*
X107025000Y-129025000D01*
X104569802Y-129025000D01*
X104542324Y-128931050D01*
X104486995Y-128825000D01*
X107025000Y-128825000D01*
X107025000Y-128975000D01*
X107825000Y-128975000D01*
X107825000Y-128112924D01*
X107875000Y-128112924D01*
X107875000Y-128975000D01*
X108675000Y-128975000D01*
X108675000Y-128825000D01*
X108654271Y-128664531D01*
X108602634Y-128511189D01*
X108522074Y-128370868D01*
X108415686Y-128248959D01*
X108287559Y-128150148D01*
X108285238Y-128148996D01*
X109439087Y-128148996D01*
X109475949Y-128281136D01*
X109545093Y-128420891D01*
X109640173Y-128544472D01*
X109757535Y-128647129D01*
X109892670Y-128724917D01*
X110040384Y-128774847D01*
X110195000Y-128795000D01*
X110525000Y-128795000D01*
X110525000Y-128025000D01*
X109512942Y-128025000D01*
X109439087Y-128148996D01*
X108285238Y-128148996D01*
X108142617Y-128078232D01*
X108003691Y-128039442D01*
X107875000Y-128112924D01*
X107825000Y-128112924D01*
X107696309Y-128039442D01*
X107557383Y-128078232D01*
X107412441Y-128150148D01*
X107284314Y-128248959D01*
X107177926Y-128370868D01*
X107097366Y-128511189D01*
X107045729Y-128664531D01*
X107025000Y-128825000D01*
X104486995Y-128825000D01*
X104464876Y-128782605D01*
X104455391Y-128768406D01*
X104309466Y-128725889D01*
X103785355Y-129250000D01*
X103714645Y-129250000D01*
X103190534Y-128725889D01*
X103044609Y-128768406D01*
X102964209Y-128915274D01*
X102914007Y-129075006D01*
X102895931Y-129241462D01*
X87900000Y-129241462D01*
X87900000Y-129185981D01*
X87875021Y-129060402D01*
X87826022Y-128942110D01*
X87754888Y-128835649D01*
X87664351Y-128745112D01*
X87557890Y-128673978D01*
X87439598Y-128624979D01*
X87314019Y-128600000D01*
X87185981Y-128600000D01*
X87060402Y-128624979D01*
X86942110Y-128673978D01*
X86835649Y-128745112D01*
X86745112Y-128835649D01*
X86673978Y-128942110D01*
X86624979Y-129060402D01*
X86600000Y-129185981D01*
X86325855Y-129185981D01*
X86307890Y-129173978D01*
X86189598Y-129124979D01*
X86064019Y-129100000D01*
X85935981Y-129100000D01*
X85810402Y-129124979D01*
X85692110Y-129173978D01*
X85585649Y-129245112D01*
X85495112Y-129335649D01*
X85423978Y-129442110D01*
X85374979Y-129560402D01*
X85350000Y-129685981D01*
X80575855Y-129685981D01*
X80557890Y-129673978D01*
X80439598Y-129624979D01*
X80314019Y-129600000D01*
X80185981Y-129600000D01*
X80060402Y-129624979D01*
X79942110Y-129673978D01*
X79835649Y-129745112D01*
X79745112Y-129835649D01*
X79673978Y-129942110D01*
X79624979Y-130060402D01*
X79600000Y-130185981D01*
X70550000Y-130185981D01*
X70550000Y-128435981D01*
X89100000Y-128435981D01*
X89100000Y-128564019D01*
X89124979Y-128689598D01*
X89173978Y-128807890D01*
X89245112Y-128914351D01*
X89335649Y-129004888D01*
X89442110Y-129076022D01*
X89560402Y-129125021D01*
X89685981Y-129150000D01*
X89814019Y-129150000D01*
X89939598Y-129125021D01*
X90057890Y-129076022D01*
X90164351Y-129004888D01*
X90254888Y-128914351D01*
X90326022Y-128807890D01*
X90374633Y-128690534D01*
X103225889Y-128690534D01*
X103750000Y-129214645D01*
X104274111Y-128690534D01*
X104231594Y-128544609D01*
X104084726Y-128464209D01*
X103924994Y-128414007D01*
X103758538Y-128395931D01*
X103591753Y-128410676D01*
X103431050Y-128457676D01*
X103282605Y-128535124D01*
X103268406Y-128544609D01*
X103225889Y-128690534D01*
X90374633Y-128690534D01*
X90375021Y-128689598D01*
X90400000Y-128564019D01*
X90400000Y-128435981D01*
X90375021Y-128310402D01*
X90326022Y-128192110D01*
X90254888Y-128085649D01*
X90164351Y-127995112D01*
X90057890Y-127923978D01*
X89939598Y-127874979D01*
X89814019Y-127850000D01*
X89685981Y-127850000D01*
X89560402Y-127874979D01*
X89442110Y-127923978D01*
X89335649Y-127995112D01*
X89245112Y-128085649D01*
X89173978Y-128192110D01*
X89124979Y-128310402D01*
X89100000Y-128435981D01*
X70550000Y-128435981D01*
X70550000Y-127870712D01*
X70560402Y-127875021D01*
X70685981Y-127900000D01*
X70814019Y-127900000D01*
X70939598Y-127875021D01*
X71057890Y-127826022D01*
X71164351Y-127754888D01*
X71254888Y-127664351D01*
X71326022Y-127557890D01*
X71375021Y-127439598D01*
X71379658Y-127416282D01*
X77400000Y-127416282D01*
X77400000Y-127583718D01*
X77432665Y-127747936D01*
X77496740Y-127902626D01*
X77589762Y-128041844D01*
X77708156Y-128160238D01*
X77847374Y-128253260D01*
X78002064Y-128317335D01*
X78166282Y-128350000D01*
X78333718Y-128350000D01*
X78497936Y-128317335D01*
X78652626Y-128253260D01*
X78791844Y-128160238D01*
X78910238Y-128041844D01*
X79003260Y-127902626D01*
X79067335Y-127747936D01*
X79100000Y-127583718D01*
X79100000Y-127416282D01*
X83150000Y-127416282D01*
X83150000Y-127583718D01*
X83182665Y-127747936D01*
X83246740Y-127902626D01*
X83339762Y-128041844D01*
X83458156Y-128160238D01*
X83597374Y-128253260D01*
X83752064Y-128317335D01*
X83916282Y-128350000D01*
X84083718Y-128350000D01*
X84247936Y-128317335D01*
X84402626Y-128253260D01*
X84541844Y-128160238D01*
X84660238Y-128041844D01*
X84753260Y-127902626D01*
X84817335Y-127747936D01*
X84829658Y-127685981D01*
X102850000Y-127685981D01*
X102850000Y-127814019D01*
X102874979Y-127939598D01*
X102923978Y-128057890D01*
X102995112Y-128164351D01*
X103085649Y-128254888D01*
X103192110Y-128326022D01*
X103310402Y-128375021D01*
X103435981Y-128400000D01*
X103564019Y-128400000D01*
X103689598Y-128375021D01*
X103807890Y-128326022D01*
X103914351Y-128254888D01*
X104004888Y-128164351D01*
X104076022Y-128057890D01*
X104125021Y-127939598D01*
X104142643Y-127851004D01*
X109439087Y-127851004D01*
X109512942Y-127975000D01*
X110525000Y-127975000D01*
X110525000Y-127205000D01*
X110195000Y-127205000D01*
X110040384Y-127225153D01*
X109892670Y-127275083D01*
X109757535Y-127352871D01*
X109640173Y-127455528D01*
X109545093Y-127579109D01*
X109475949Y-127718864D01*
X109439087Y-127851004D01*
X104142643Y-127851004D01*
X104150000Y-127814019D01*
X104150000Y-127685981D01*
X104125021Y-127560402D01*
X104076022Y-127442110D01*
X104004888Y-127335649D01*
X103914351Y-127245112D01*
X103807890Y-127173978D01*
X103689598Y-127124979D01*
X103564019Y-127100000D01*
X103435981Y-127100000D01*
X103310402Y-127124979D01*
X103192110Y-127173978D01*
X103085649Y-127245112D01*
X102995112Y-127335649D01*
X102923978Y-127442110D01*
X102874979Y-127560402D01*
X102850000Y-127685981D01*
X84829658Y-127685981D01*
X84850000Y-127583718D01*
X84850000Y-127416282D01*
X84817335Y-127252064D01*
X84753260Y-127097374D01*
X84660238Y-126958156D01*
X84541844Y-126839762D01*
X84402626Y-126746740D01*
X84247936Y-126682665D01*
X84083718Y-126650000D01*
X83916282Y-126650000D01*
X83752064Y-126682665D01*
X83597374Y-126746740D01*
X83458156Y-126839762D01*
X83339762Y-126958156D01*
X83246740Y-127097374D01*
X83182665Y-127252064D01*
X83150000Y-127416282D01*
X79100000Y-127416282D01*
X79067335Y-127252064D01*
X79003260Y-127097374D01*
X78910238Y-126958156D01*
X78791844Y-126839762D01*
X78652626Y-126746740D01*
X78497936Y-126682665D01*
X78333718Y-126650000D01*
X78166282Y-126650000D01*
X78002064Y-126682665D01*
X77847374Y-126746740D01*
X77708156Y-126839762D01*
X77589762Y-126958156D01*
X77496740Y-127097374D01*
X77432665Y-127252064D01*
X77400000Y-127416282D01*
X71379658Y-127416282D01*
X71400000Y-127314019D01*
X71400000Y-127185981D01*
X71375021Y-127060402D01*
X71326022Y-126942110D01*
X71254888Y-126835649D01*
X71164351Y-126745112D01*
X71057890Y-126673978D01*
X70939598Y-126624979D01*
X70814019Y-126600000D01*
X70685981Y-126600000D01*
X70560402Y-126624979D01*
X70550000Y-126629288D01*
X70550000Y-125435981D01*
X87350000Y-125435981D01*
X87350000Y-125564019D01*
X87374979Y-125689598D01*
X87423978Y-125807890D01*
X87495112Y-125914351D01*
X87585649Y-126004888D01*
X87692110Y-126076022D01*
X87810402Y-126125021D01*
X87935981Y-126150000D01*
X88064019Y-126150000D01*
X88189598Y-126125021D01*
X88307890Y-126076022D01*
X88414351Y-126004888D01*
X88504888Y-125914351D01*
X88576022Y-125807890D01*
X88625021Y-125689598D01*
X88650000Y-125564019D01*
X88650000Y-125435981D01*
X88625021Y-125310402D01*
X88576022Y-125192110D01*
X88504888Y-125085649D01*
X88414351Y-124995112D01*
X88325855Y-124935981D01*
X90600000Y-124935981D01*
X90600000Y-125064019D01*
X90624979Y-125189598D01*
X90673978Y-125307890D01*
X90745112Y-125414351D01*
X90835649Y-125504888D01*
X90942110Y-125576022D01*
X91060402Y-125625021D01*
X91185981Y-125650000D01*
X91314019Y-125650000D01*
X91439598Y-125625021D01*
X91557890Y-125576022D01*
X91664351Y-125504888D01*
X91754888Y-125414351D01*
X91826022Y-125307890D01*
X91875021Y-125189598D01*
X91900000Y-125064019D01*
X91900000Y-124935981D01*
X91875021Y-124810402D01*
X91826022Y-124692110D01*
X91754888Y-124585649D01*
X91664351Y-124495112D01*
X91557890Y-124423978D01*
X91439598Y-124374979D01*
X91314019Y-124350000D01*
X91185981Y-124350000D01*
X91060402Y-124374979D01*
X90942110Y-124423978D01*
X90835649Y-124495112D01*
X90745112Y-124585649D01*
X90673978Y-124692110D01*
X90624979Y-124810402D01*
X90600000Y-124935981D01*
X88325855Y-124935981D01*
X88307890Y-124923978D01*
X88189598Y-124874979D01*
X88064019Y-124850000D01*
X87935981Y-124850000D01*
X87810402Y-124874979D01*
X87692110Y-124923978D01*
X87585649Y-124995112D01*
X87495112Y-125085649D01*
X87423978Y-125192110D01*
X87374979Y-125310402D01*
X87350000Y-125435981D01*
X70550000Y-125435981D01*
X70550000Y-125370712D01*
X70560402Y-125375021D01*
X70685981Y-125400000D01*
X70814019Y-125400000D01*
X70939598Y-125375021D01*
X71057890Y-125326022D01*
X71164351Y-125254888D01*
X71254888Y-125164351D01*
X71326022Y-125057890D01*
X71375021Y-124939598D01*
X71400000Y-124814019D01*
X71400000Y-124685981D01*
X71375021Y-124560402D01*
X71326022Y-124442110D01*
X71254888Y-124335649D01*
X71164351Y-124245112D01*
X71057890Y-124173978D01*
X70939598Y-124124979D01*
X70814019Y-124100000D01*
X70685981Y-124100000D01*
X70560402Y-124124979D01*
X70550000Y-124129288D01*
X70550000Y-123685981D01*
X94600000Y-123685981D01*
X94600000Y-123814019D01*
X94624979Y-123939598D01*
X94673978Y-124057890D01*
X94745112Y-124164351D01*
X94835649Y-124254888D01*
X94942110Y-124326022D01*
X95060402Y-124375021D01*
X95185981Y-124400000D01*
X95314019Y-124400000D01*
X95439598Y-124375021D01*
X95557890Y-124326022D01*
X95664351Y-124254888D01*
X95754888Y-124164351D01*
X95826022Y-124057890D01*
X95875021Y-123939598D01*
X95900000Y-123814019D01*
X95900000Y-123685981D01*
X95875021Y-123560402D01*
X95826022Y-123442110D01*
X95821927Y-123435981D01*
X96600000Y-123435981D01*
X96600000Y-123564019D01*
X96624979Y-123689598D01*
X96673978Y-123807890D01*
X96745112Y-123914351D01*
X96835649Y-124004888D01*
X96942110Y-124076022D01*
X97060402Y-124125021D01*
X97185981Y-124150000D01*
X97314019Y-124150000D01*
X97439598Y-124125021D01*
X97557890Y-124076022D01*
X97664351Y-124004888D01*
X97754888Y-123914351D01*
X97826022Y-123807890D01*
X97875021Y-123689598D01*
X97900000Y-123564019D01*
X97900000Y-123435981D01*
X97875021Y-123310402D01*
X97826022Y-123192110D01*
X97754888Y-123085649D01*
X97664351Y-122995112D01*
X97557890Y-122923978D01*
X97439598Y-122874979D01*
X97314019Y-122850000D01*
X97185981Y-122850000D01*
X97060402Y-122874979D01*
X96942110Y-122923978D01*
X96835649Y-122995112D01*
X96745112Y-123085649D01*
X96673978Y-123192110D01*
X96624979Y-123310402D01*
X96600000Y-123435981D01*
X95821927Y-123435981D01*
X95754888Y-123335649D01*
X95664351Y-123245112D01*
X95557890Y-123173978D01*
X95439598Y-123124979D01*
X95314019Y-123100000D01*
X95185981Y-123100000D01*
X95060402Y-123124979D01*
X94942110Y-123173978D01*
X94835649Y-123245112D01*
X94745112Y-123335649D01*
X94673978Y-123442110D01*
X94624979Y-123560402D01*
X94600000Y-123685981D01*
X70550000Y-123685981D01*
X70550000Y-121435981D01*
X79100000Y-121435981D01*
X79100000Y-121564019D01*
X79124979Y-121689598D01*
X79173978Y-121807890D01*
X79245112Y-121914351D01*
X79335649Y-122004888D01*
X79442110Y-122076022D01*
X79560402Y-122125021D01*
X79685981Y-122150000D01*
X79814019Y-122150000D01*
X79939598Y-122125021D01*
X80057890Y-122076022D01*
X80164351Y-122004888D01*
X80254888Y-121914351D01*
X80326022Y-121807890D01*
X80375021Y-121689598D01*
X80375740Y-121685981D01*
X96600000Y-121685981D01*
X96600000Y-121814019D01*
X96624979Y-121939598D01*
X96673978Y-122057890D01*
X96745112Y-122164351D01*
X96835649Y-122254888D01*
X96942110Y-122326022D01*
X97060402Y-122375021D01*
X97185981Y-122400000D01*
X97314019Y-122400000D01*
X97439598Y-122375021D01*
X97557890Y-122326022D01*
X97664351Y-122254888D01*
X97754888Y-122164351D01*
X97826022Y-122057890D01*
X97875021Y-121939598D01*
X97900000Y-121814019D01*
X97900000Y-121797885D01*
X97942110Y-121826022D01*
X98060402Y-121875021D01*
X98185981Y-121900000D01*
X98314019Y-121900000D01*
X98439598Y-121875021D01*
X98557890Y-121826022D01*
X98664351Y-121754888D01*
X98754888Y-121664351D01*
X98826022Y-121557890D01*
X98875021Y-121439598D01*
X98900000Y-121314019D01*
X98900000Y-121185981D01*
X98875021Y-121060402D01*
X98826022Y-120942110D01*
X98754888Y-120835649D01*
X98664351Y-120745112D01*
X98557890Y-120673978D01*
X98439598Y-120624979D01*
X98314019Y-120600000D01*
X98185981Y-120600000D01*
X98060402Y-120624979D01*
X97942110Y-120673978D01*
X97835649Y-120745112D01*
X97745112Y-120835649D01*
X97673978Y-120942110D01*
X97624979Y-121060402D01*
X97600000Y-121185981D01*
X97600000Y-121202115D01*
X97557890Y-121173978D01*
X97439598Y-121124979D01*
X97314019Y-121100000D01*
X97185981Y-121100000D01*
X97060402Y-121124979D01*
X96942110Y-121173978D01*
X96835649Y-121245112D01*
X96745112Y-121335649D01*
X96673978Y-121442110D01*
X96624979Y-121560402D01*
X96600000Y-121685981D01*
X80375740Y-121685981D01*
X80400000Y-121564019D01*
X80400000Y-121435981D01*
X80375021Y-121310402D01*
X80326022Y-121192110D01*
X80254888Y-121085649D01*
X80164351Y-120995112D01*
X80057890Y-120923978D01*
X79939598Y-120874979D01*
X79814019Y-120850000D01*
X79685981Y-120850000D01*
X79560402Y-120874979D01*
X79442110Y-120923978D01*
X79335649Y-120995112D01*
X79245112Y-121085649D01*
X79173978Y-121192110D01*
X79124979Y-121310402D01*
X79100000Y-121435981D01*
X70550000Y-121435981D01*
X70550000Y-120285981D01*
X100850000Y-120285981D01*
X100850000Y-120414019D01*
X100874979Y-120539598D01*
X100923978Y-120657890D01*
X100995112Y-120764351D01*
X101085649Y-120854888D01*
X101192110Y-120926022D01*
X101310402Y-120975021D01*
X101435981Y-121000000D01*
X101564019Y-121000000D01*
X101689598Y-120975021D01*
X101807890Y-120926022D01*
X101914351Y-120854888D01*
X102004888Y-120764351D01*
X102076022Y-120657890D01*
X102125021Y-120539598D01*
X102150000Y-120414019D01*
X102150000Y-120285981D01*
X102850000Y-120285981D01*
X102850000Y-120414019D01*
X102874979Y-120539598D01*
X102923978Y-120657890D01*
X102995112Y-120764351D01*
X103085649Y-120854888D01*
X103192110Y-120926022D01*
X103310402Y-120975021D01*
X103435981Y-121000000D01*
X103564019Y-121000000D01*
X103689598Y-120975021D01*
X103807890Y-120926022D01*
X103914351Y-120854888D01*
X104004888Y-120764351D01*
X104076022Y-120657890D01*
X104125021Y-120539598D01*
X104150000Y-120414019D01*
X104150000Y-120285981D01*
X104125021Y-120160402D01*
X104076022Y-120042110D01*
X104004888Y-119935649D01*
X103914351Y-119845112D01*
X103807890Y-119773978D01*
X103689598Y-119724979D01*
X103564019Y-119700000D01*
X103435981Y-119700000D01*
X103310402Y-119724979D01*
X103192110Y-119773978D01*
X103085649Y-119845112D01*
X102995112Y-119935649D01*
X102923978Y-120042110D01*
X102874979Y-120160402D01*
X102850000Y-120285981D01*
X102150000Y-120285981D01*
X102125021Y-120160402D01*
X102076022Y-120042110D01*
X102004888Y-119935649D01*
X101914351Y-119845112D01*
X101807890Y-119773978D01*
X101689598Y-119724979D01*
X101564019Y-119700000D01*
X101435981Y-119700000D01*
X101310402Y-119724979D01*
X101192110Y-119773978D01*
X101085649Y-119845112D01*
X100995112Y-119935649D01*
X100923978Y-120042110D01*
X100874979Y-120160402D01*
X100850000Y-120285981D01*
X70550000Y-120285981D01*
X70550000Y-117357187D01*
X71050000Y-117357187D01*
X71050000Y-117642813D01*
X71105723Y-117922949D01*
X71215027Y-118186833D01*
X71373711Y-118424321D01*
X71575679Y-118626289D01*
X71813167Y-118784973D01*
X72077051Y-118894277D01*
X72357187Y-118950000D01*
X72642813Y-118950000D01*
X72713290Y-118935981D01*
X75850000Y-118935981D01*
X75850000Y-119064019D01*
X75874979Y-119189598D01*
X75923978Y-119307890D01*
X75995112Y-119414351D01*
X76085649Y-119504888D01*
X76192110Y-119576022D01*
X76310402Y-119625021D01*
X76435981Y-119650000D01*
X76564019Y-119650000D01*
X76689598Y-119625021D01*
X76807890Y-119576022D01*
X76914351Y-119504888D01*
X76983258Y-119435981D01*
X90600000Y-119435981D01*
X90600000Y-119564019D01*
X90624979Y-119689598D01*
X90673978Y-119807890D01*
X90745112Y-119914351D01*
X90835649Y-120004888D01*
X90942110Y-120076022D01*
X91060402Y-120125021D01*
X91185981Y-120150000D01*
X91314019Y-120150000D01*
X91439598Y-120125021D01*
X91557890Y-120076022D01*
X91664351Y-120004888D01*
X91754888Y-119914351D01*
X91826022Y-119807890D01*
X91875021Y-119689598D01*
X91900000Y-119564019D01*
X91900000Y-119435981D01*
X91875021Y-119310402D01*
X91826022Y-119192110D01*
X91754888Y-119085649D01*
X91664351Y-118995112D01*
X91557890Y-118923978D01*
X91439598Y-118874979D01*
X91314019Y-118850000D01*
X91185981Y-118850000D01*
X91060402Y-118874979D01*
X90942110Y-118923978D01*
X90835649Y-118995112D01*
X90745112Y-119085649D01*
X90673978Y-119192110D01*
X90624979Y-119310402D01*
X90600000Y-119435981D01*
X76983258Y-119435981D01*
X77004888Y-119414351D01*
X77076022Y-119307890D01*
X77125021Y-119189598D01*
X77150000Y-119064019D01*
X77150000Y-118935981D01*
X77125021Y-118810402D01*
X77076022Y-118692110D01*
X77004888Y-118585649D01*
X76914351Y-118495112D01*
X76807890Y-118423978D01*
X76689598Y-118374979D01*
X76564019Y-118350000D01*
X76435981Y-118350000D01*
X76310402Y-118374979D01*
X76192110Y-118423978D01*
X76085649Y-118495112D01*
X75995112Y-118585649D01*
X75923978Y-118692110D01*
X75874979Y-118810402D01*
X75850000Y-118935981D01*
X72713290Y-118935981D01*
X72922949Y-118894277D01*
X73186833Y-118784973D01*
X73424321Y-118626289D01*
X73626289Y-118424321D01*
X73784973Y-118186833D01*
X73888878Y-117935981D01*
X86350000Y-117935981D01*
X86350000Y-118064019D01*
X86374979Y-118189598D01*
X86423978Y-118307890D01*
X86495112Y-118414351D01*
X86585649Y-118504888D01*
X86692110Y-118576022D01*
X86810402Y-118625021D01*
X86935981Y-118650000D01*
X87064019Y-118650000D01*
X87189598Y-118625021D01*
X87307890Y-118576022D01*
X87414351Y-118504888D01*
X87504888Y-118414351D01*
X87576022Y-118307890D01*
X87625021Y-118189598D01*
X87650000Y-118064019D01*
X87650000Y-117935981D01*
X87625021Y-117810402D01*
X87576022Y-117692110D01*
X87504888Y-117585649D01*
X87414351Y-117495112D01*
X87307890Y-117423978D01*
X87189598Y-117374979D01*
X87075396Y-117352263D01*
X94500000Y-117352263D01*
X94500000Y-117647737D01*
X94557644Y-117937534D01*
X94670717Y-118210517D01*
X94834874Y-118456194D01*
X95043806Y-118665126D01*
X95289483Y-118829283D01*
X95562466Y-118942356D01*
X95852263Y-119000000D01*
X96147737Y-119000000D01*
X96437534Y-118942356D01*
X96710517Y-118829283D01*
X96924982Y-118685981D01*
X105350000Y-118685981D01*
X105350000Y-118814019D01*
X105374979Y-118939598D01*
X105423978Y-119057890D01*
X105495112Y-119164351D01*
X105585649Y-119254888D01*
X105692110Y-119326022D01*
X105810402Y-119375021D01*
X105935981Y-119400000D01*
X106064019Y-119400000D01*
X106189598Y-119375021D01*
X106307890Y-119326022D01*
X106414351Y-119254888D01*
X106504888Y-119164351D01*
X106576022Y-119057890D01*
X106625021Y-118939598D01*
X106650000Y-118814019D01*
X106650000Y-118685981D01*
X106625021Y-118560402D01*
X106576022Y-118442110D01*
X106504888Y-118335649D01*
X106414351Y-118245112D01*
X106307890Y-118173978D01*
X106189598Y-118124979D01*
X106064019Y-118100000D01*
X105935981Y-118100000D01*
X105810402Y-118124979D01*
X105692110Y-118173978D01*
X105585649Y-118245112D01*
X105495112Y-118335649D01*
X105423978Y-118442110D01*
X105374979Y-118560402D01*
X105350000Y-118685981D01*
X96924982Y-118685981D01*
X96956194Y-118665126D01*
X97165126Y-118456194D01*
X97329283Y-118210517D01*
X97442356Y-117937534D01*
X97500000Y-117647737D01*
X97500000Y-117357187D01*
X108050000Y-117357187D01*
X108050000Y-117642813D01*
X108105723Y-117922949D01*
X108215027Y-118186833D01*
X108373711Y-118424321D01*
X108575679Y-118626289D01*
X108813167Y-118784973D01*
X109077051Y-118894277D01*
X109357187Y-118950000D01*
X109642813Y-118950000D01*
X109922949Y-118894277D01*
X110186833Y-118784973D01*
X110424321Y-118626289D01*
X110626289Y-118424321D01*
X110784973Y-118186833D01*
X110894277Y-117922949D01*
X110950000Y-117642813D01*
X110950000Y-117357187D01*
X110894277Y-117077051D01*
X110784973Y-116813167D01*
X110626289Y-116575679D01*
X110424321Y-116373711D01*
X110186833Y-116215027D01*
X109922949Y-116105723D01*
X109642813Y-116050000D01*
X109357187Y-116050000D01*
X109077051Y-116105723D01*
X108813167Y-116215027D01*
X108575679Y-116373711D01*
X108373711Y-116575679D01*
X108215027Y-116813167D01*
X108105723Y-117077051D01*
X108050000Y-117357187D01*
X97500000Y-117357187D01*
X97500000Y-117352263D01*
X97442356Y-117062466D01*
X97329283Y-116789483D01*
X97165126Y-116543806D01*
X96956194Y-116334874D01*
X96733362Y-116185981D01*
X103600000Y-116185981D01*
X103600000Y-116314019D01*
X103624979Y-116439598D01*
X103673978Y-116557890D01*
X103745112Y-116664351D01*
X103835649Y-116754888D01*
X103942110Y-116826022D01*
X104060402Y-116875021D01*
X104185981Y-116900000D01*
X104314019Y-116900000D01*
X104439598Y-116875021D01*
X104557890Y-116826022D01*
X104664351Y-116754888D01*
X104754888Y-116664351D01*
X104826022Y-116557890D01*
X104875021Y-116439598D01*
X104900000Y-116314019D01*
X104900000Y-116185981D01*
X104875021Y-116060402D01*
X104826022Y-115942110D01*
X104754888Y-115835649D01*
X104664351Y-115745112D01*
X104557890Y-115673978D01*
X104439598Y-115624979D01*
X104314019Y-115600000D01*
X104185981Y-115600000D01*
X104060402Y-115624979D01*
X103942110Y-115673978D01*
X103835649Y-115745112D01*
X103745112Y-115835649D01*
X103673978Y-115942110D01*
X103624979Y-116060402D01*
X103600000Y-116185981D01*
X96733362Y-116185981D01*
X96710517Y-116170717D01*
X96437534Y-116057644D01*
X96147737Y-116000000D01*
X95852263Y-116000000D01*
X95562466Y-116057644D01*
X95289483Y-116170717D01*
X95043806Y-116334874D01*
X94834874Y-116543806D01*
X94670717Y-116789483D01*
X94557644Y-117062466D01*
X94500000Y-117352263D01*
X87075396Y-117352263D01*
X87064019Y-117350000D01*
X86935981Y-117350000D01*
X86810402Y-117374979D01*
X86692110Y-117423978D01*
X86585649Y-117495112D01*
X86495112Y-117585649D01*
X86423978Y-117692110D01*
X86374979Y-117810402D01*
X86350000Y-117935981D01*
X73888878Y-117935981D01*
X73894277Y-117922949D01*
X73950000Y-117642813D01*
X73950000Y-117357187D01*
X73894277Y-117077051D01*
X73784973Y-116813167D01*
X73626289Y-116575679D01*
X73424321Y-116373711D01*
X73186833Y-116215027D01*
X72922949Y-116105723D01*
X72642813Y-116050000D01*
X72357187Y-116050000D01*
X72077051Y-116105723D01*
X71813167Y-116215027D01*
X71575679Y-116373711D01*
X71373711Y-116575679D01*
X71215027Y-116813167D01*
X71105723Y-117077051D01*
X71050000Y-117357187D01*
X70550000Y-117357187D01*
X70550000Y-115550000D01*
X111450000Y-115550000D01*
X111450000Y-127446933D01*
%TD*%
M02*
