%TF.GenerationSoftware,KiCad,Pcbnew,(5.1.0-0)*%
%TF.CreationDate,2020-07-09T23:17:02+02:00*%
%TF.ProjectId,POxiM-wristcomputer,504f7869-4d2d-4777-9269-7374636f6d70,A*%
%TF.SameCoordinates,Original*%
%TF.FileFunction,Soldermask,Top*%
%TF.FilePolarity,Negative*%
%FSLAX46Y46*%
G04 Gerber Fmt 4.6, Leading zero omitted, Abs format (unit mm)*
G04 Created by KiCad (PCBNEW (5.1.0-0)) date 2020-07-09 23:17:02*
%MOMM*%
%LPD*%
G04 APERTURE LIST*
%ADD10R,1.450000X0.500000*%
%ADD11O,1.050000X1.350000*%
%ADD12R,1.650000X1.600000*%
%ADD13R,1.650000X1.300000*%
%ADD14O,1.650000X0.990000*%
%ADD15R,1.300000X1.000000*%
%ADD16R,0.700000X0.550000*%
%ADD17R,0.550000X0.700000*%
%ADD18R,1.000000X1.300000*%
%ADD19C,1.100000*%
%ADD20C,2.000000*%
%ADD21C,2.300000*%
%ADD22R,1.000000X0.900000*%
%ADD23C,1.800000*%
%ADD24R,2.300000X2.900000*%
%ADD25R,2.900000X2.700000*%
%ADD26R,2.100000X2.900000*%
%ADD27C,0.100000*%
%ADD28C,1.350000*%
%ADD29R,1.160000X0.750000*%
%ADD30R,0.900000X1.000000*%
%ADD31C,1.225000*%
%ADD32R,0.550000X1.550000*%
G04 APERTURE END LIST*
D10*
%TO.C,J1*%
X107875000Y-130200000D03*
X107875000Y-130850000D03*
X107875000Y-131500000D03*
X107875000Y-132150000D03*
X107875000Y-132800000D03*
D11*
X107850000Y-129000000D03*
X107850000Y-134000000D03*
D12*
X110550000Y-132500000D03*
X110550000Y-130500000D03*
D13*
X110550000Y-128600000D03*
D14*
X110550000Y-128000000D03*
D13*
X110550000Y-134400000D03*
D14*
X110550000Y-135000000D03*
%TD*%
D15*
%TO.C,D40*%
X109750000Y-137350000D03*
X109750000Y-140650000D03*
%TD*%
D16*
%TO.C,D39*%
X101700000Y-140750000D03*
X103800000Y-140750000D03*
%TD*%
%TO.C,D38*%
X105200000Y-140750000D03*
X107300000Y-140750000D03*
%TD*%
%TO.C,D37*%
X101700000Y-138250000D03*
X103800000Y-138250000D03*
%TD*%
%TO.C,D36*%
X105200000Y-138250000D03*
X107300000Y-138250000D03*
%TD*%
D17*
%TO.C,D35*%
X106000000Y-117450000D03*
X106000000Y-119550000D03*
%TD*%
D18*
%TO.C,D34*%
X109650000Y-121500000D03*
X106350000Y-121500000D03*
%TD*%
D17*
%TO.C,D6*%
X74000000Y-137700000D03*
X74000000Y-139800000D03*
%TD*%
%TO.C,D5*%
X76500000Y-139800000D03*
X76500000Y-137700000D03*
%TD*%
%TO.C,D4*%
X76250000Y-123200000D03*
X76250000Y-125300000D03*
%TD*%
%TO.C,D3*%
X83750000Y-123200000D03*
X83750000Y-125300000D03*
%TD*%
%TO.C,D2*%
X78750000Y-123200000D03*
X78750000Y-125300000D03*
%TD*%
%TO.C,D1*%
X81250000Y-123200000D03*
X81250000Y-125300000D03*
%TD*%
D19*
%TO.C,TP9*%
X86500000Y-140250000D03*
%TD*%
%TO.C,TP8*%
X78250000Y-127500000D03*
%TD*%
%TO.C,TP7*%
X76250000Y-136000000D03*
%TD*%
%TO.C,TP6*%
X84000000Y-127500000D03*
%TD*%
%TO.C,TP5*%
X71250000Y-137750000D03*
%TD*%
%TO.C,TP4*%
X103750000Y-129250000D03*
%TD*%
%TO.C,TP3*%
X102250000Y-142500000D03*
%TD*%
%TO.C,TP2*%
X100250000Y-138000000D03*
%TD*%
%TO.C,TP1*%
X107750000Y-136500000D03*
%TD*%
D20*
%TO.C,FID4*%
X107950000Y-119400000D03*
%TD*%
%TO.C,FID3*%
X74250000Y-143750000D03*
%TD*%
D21*
%TO.C,H4*%
X109500000Y-145500000D03*
%TD*%
%TO.C,H3*%
X72500000Y-145500000D03*
%TD*%
%TO.C,H2*%
X72500000Y-117500000D03*
%TD*%
%TO.C,H1*%
X109500000Y-117500000D03*
%TD*%
D22*
%TO.C,Q8*%
X83250000Y-120750000D03*
X81250000Y-121700000D03*
X81250000Y-119800000D03*
%TD*%
D23*
%TO.C,J2*%
X82100000Y-131500000D03*
X75100000Y-131500000D03*
D24*
X74000000Y-135200000D03*
X75900000Y-127800000D03*
D25*
X83400000Y-135100000D03*
D26*
X71200000Y-135200000D03*
%TD*%
D27*
%TO.C,C12*%
G36*
X73845581Y-125251625D02*
G01*
X73878343Y-125256485D01*
X73910471Y-125264533D01*
X73941656Y-125275691D01*
X73971596Y-125289852D01*
X74000005Y-125306879D01*
X74026608Y-125326609D01*
X74051149Y-125348851D01*
X74073391Y-125373392D01*
X74093121Y-125399995D01*
X74110148Y-125428404D01*
X74124309Y-125458344D01*
X74135467Y-125489529D01*
X74143515Y-125521657D01*
X74148375Y-125554419D01*
X74150000Y-125587500D01*
X74150000Y-126412500D01*
X74148375Y-126445581D01*
X74143515Y-126478343D01*
X74135467Y-126510471D01*
X74124309Y-126541656D01*
X74110148Y-126571596D01*
X74093121Y-126600005D01*
X74073391Y-126626608D01*
X74051149Y-126651149D01*
X74026608Y-126673391D01*
X74000005Y-126693121D01*
X73971596Y-126710148D01*
X73941656Y-126724309D01*
X73910471Y-126735467D01*
X73878343Y-126743515D01*
X73845581Y-126748375D01*
X73812500Y-126750000D01*
X73137500Y-126750000D01*
X73104419Y-126748375D01*
X73071657Y-126743515D01*
X73039529Y-126735467D01*
X73008344Y-126724309D01*
X72978404Y-126710148D01*
X72949995Y-126693121D01*
X72923392Y-126673391D01*
X72898851Y-126651149D01*
X72876609Y-126626608D01*
X72856879Y-126600005D01*
X72839852Y-126571596D01*
X72825691Y-126541656D01*
X72814533Y-126510471D01*
X72806485Y-126478343D01*
X72801625Y-126445581D01*
X72800000Y-126412500D01*
X72800000Y-125587500D01*
X72801625Y-125554419D01*
X72806485Y-125521657D01*
X72814533Y-125489529D01*
X72825691Y-125458344D01*
X72839852Y-125428404D01*
X72856879Y-125399995D01*
X72876609Y-125373392D01*
X72898851Y-125348851D01*
X72923392Y-125326609D01*
X72949995Y-125306879D01*
X72978404Y-125289852D01*
X73008344Y-125275691D01*
X73039529Y-125264533D01*
X73071657Y-125256485D01*
X73104419Y-125251625D01*
X73137500Y-125250000D01*
X73812500Y-125250000D01*
X73845581Y-125251625D01*
X73845581Y-125251625D01*
G37*
D28*
X73475000Y-126000000D03*
D27*
G36*
X71895581Y-125251625D02*
G01*
X71928343Y-125256485D01*
X71960471Y-125264533D01*
X71991656Y-125275691D01*
X72021596Y-125289852D01*
X72050005Y-125306879D01*
X72076608Y-125326609D01*
X72101149Y-125348851D01*
X72123391Y-125373392D01*
X72143121Y-125399995D01*
X72160148Y-125428404D01*
X72174309Y-125458344D01*
X72185467Y-125489529D01*
X72193515Y-125521657D01*
X72198375Y-125554419D01*
X72200000Y-125587500D01*
X72200000Y-126412500D01*
X72198375Y-126445581D01*
X72193515Y-126478343D01*
X72185467Y-126510471D01*
X72174309Y-126541656D01*
X72160148Y-126571596D01*
X72143121Y-126600005D01*
X72123391Y-126626608D01*
X72101149Y-126651149D01*
X72076608Y-126673391D01*
X72050005Y-126693121D01*
X72021596Y-126710148D01*
X71991656Y-126724309D01*
X71960471Y-126735467D01*
X71928343Y-126743515D01*
X71895581Y-126748375D01*
X71862500Y-126750000D01*
X71187500Y-126750000D01*
X71154419Y-126748375D01*
X71121657Y-126743515D01*
X71089529Y-126735467D01*
X71058344Y-126724309D01*
X71028404Y-126710148D01*
X70999995Y-126693121D01*
X70973392Y-126673391D01*
X70948851Y-126651149D01*
X70926609Y-126626608D01*
X70906879Y-126600005D01*
X70889852Y-126571596D01*
X70875691Y-126541656D01*
X70864533Y-126510471D01*
X70856485Y-126478343D01*
X70851625Y-126445581D01*
X70850000Y-126412500D01*
X70850000Y-125587500D01*
X70851625Y-125554419D01*
X70856485Y-125521657D01*
X70864533Y-125489529D01*
X70875691Y-125458344D01*
X70889852Y-125428404D01*
X70906879Y-125399995D01*
X70926609Y-125373392D01*
X70948851Y-125348851D01*
X70973392Y-125326609D01*
X70999995Y-125306879D01*
X71028404Y-125289852D01*
X71058344Y-125275691D01*
X71089529Y-125264533D01*
X71121657Y-125256485D01*
X71154419Y-125251625D01*
X71187500Y-125250000D01*
X71862500Y-125250000D01*
X71895581Y-125251625D01*
X71895581Y-125251625D01*
G37*
D28*
X71525000Y-126000000D03*
%TD*%
D29*
%TO.C,U3*%
X101400000Y-145950000D03*
X101400000Y-144050000D03*
X103600000Y-144050000D03*
X103600000Y-145000000D03*
X103600000Y-145950000D03*
%TD*%
D27*
%TO.C,C9*%
G36*
X97445581Y-142551625D02*
G01*
X97478343Y-142556485D01*
X97510471Y-142564533D01*
X97541656Y-142575691D01*
X97571596Y-142589852D01*
X97600005Y-142606879D01*
X97626608Y-142626609D01*
X97651149Y-142648851D01*
X97673391Y-142673392D01*
X97693121Y-142699995D01*
X97710148Y-142728404D01*
X97724309Y-142758344D01*
X97735467Y-142789529D01*
X97743515Y-142821657D01*
X97748375Y-142854419D01*
X97750000Y-142887500D01*
X97750000Y-143562500D01*
X97748375Y-143595581D01*
X97743515Y-143628343D01*
X97735467Y-143660471D01*
X97724309Y-143691656D01*
X97710148Y-143721596D01*
X97693121Y-143750005D01*
X97673391Y-143776608D01*
X97651149Y-143801149D01*
X97626608Y-143823391D01*
X97600005Y-143843121D01*
X97571596Y-143860148D01*
X97541656Y-143874309D01*
X97510471Y-143885467D01*
X97478343Y-143893515D01*
X97445581Y-143898375D01*
X97412500Y-143900000D01*
X96587500Y-143900000D01*
X96554419Y-143898375D01*
X96521657Y-143893515D01*
X96489529Y-143885467D01*
X96458344Y-143874309D01*
X96428404Y-143860148D01*
X96399995Y-143843121D01*
X96373392Y-143823391D01*
X96348851Y-143801149D01*
X96326609Y-143776608D01*
X96306879Y-143750005D01*
X96289852Y-143721596D01*
X96275691Y-143691656D01*
X96264533Y-143660471D01*
X96256485Y-143628343D01*
X96251625Y-143595581D01*
X96250000Y-143562500D01*
X96250000Y-142887500D01*
X96251625Y-142854419D01*
X96256485Y-142821657D01*
X96264533Y-142789529D01*
X96275691Y-142758344D01*
X96289852Y-142728404D01*
X96306879Y-142699995D01*
X96326609Y-142673392D01*
X96348851Y-142648851D01*
X96373392Y-142626609D01*
X96399995Y-142606879D01*
X96428404Y-142589852D01*
X96458344Y-142575691D01*
X96489529Y-142564533D01*
X96521657Y-142556485D01*
X96554419Y-142551625D01*
X96587500Y-142550000D01*
X97412500Y-142550000D01*
X97445581Y-142551625D01*
X97445581Y-142551625D01*
G37*
D28*
X97000000Y-143225000D03*
D27*
G36*
X97445581Y-140601625D02*
G01*
X97478343Y-140606485D01*
X97510471Y-140614533D01*
X97541656Y-140625691D01*
X97571596Y-140639852D01*
X97600005Y-140656879D01*
X97626608Y-140676609D01*
X97651149Y-140698851D01*
X97673391Y-140723392D01*
X97693121Y-140749995D01*
X97710148Y-140778404D01*
X97724309Y-140808344D01*
X97735467Y-140839529D01*
X97743515Y-140871657D01*
X97748375Y-140904419D01*
X97750000Y-140937500D01*
X97750000Y-141612500D01*
X97748375Y-141645581D01*
X97743515Y-141678343D01*
X97735467Y-141710471D01*
X97724309Y-141741656D01*
X97710148Y-141771596D01*
X97693121Y-141800005D01*
X97673391Y-141826608D01*
X97651149Y-141851149D01*
X97626608Y-141873391D01*
X97600005Y-141893121D01*
X97571596Y-141910148D01*
X97541656Y-141924309D01*
X97510471Y-141935467D01*
X97478343Y-141943515D01*
X97445581Y-141948375D01*
X97412500Y-141950000D01*
X96587500Y-141950000D01*
X96554419Y-141948375D01*
X96521657Y-141943515D01*
X96489529Y-141935467D01*
X96458344Y-141924309D01*
X96428404Y-141910148D01*
X96399995Y-141893121D01*
X96373392Y-141873391D01*
X96348851Y-141851149D01*
X96326609Y-141826608D01*
X96306879Y-141800005D01*
X96289852Y-141771596D01*
X96275691Y-141741656D01*
X96264533Y-141710471D01*
X96256485Y-141678343D01*
X96251625Y-141645581D01*
X96250000Y-141612500D01*
X96250000Y-140937500D01*
X96251625Y-140904419D01*
X96256485Y-140871657D01*
X96264533Y-140839529D01*
X96275691Y-140808344D01*
X96289852Y-140778404D01*
X96306879Y-140749995D01*
X96326609Y-140723392D01*
X96348851Y-140698851D01*
X96373392Y-140676609D01*
X96399995Y-140656879D01*
X96428404Y-140639852D01*
X96458344Y-140625691D01*
X96489529Y-140614533D01*
X96521657Y-140606485D01*
X96554419Y-140601625D01*
X96587500Y-140600000D01*
X97412500Y-140600000D01*
X97445581Y-140601625D01*
X97445581Y-140601625D01*
G37*
D28*
X97000000Y-141275000D03*
%TD*%
D27*
%TO.C,C1*%
G36*
X80595581Y-135501625D02*
G01*
X80628343Y-135506485D01*
X80660471Y-135514533D01*
X80691656Y-135525691D01*
X80721596Y-135539852D01*
X80750005Y-135556879D01*
X80776608Y-135576609D01*
X80801149Y-135598851D01*
X80823391Y-135623392D01*
X80843121Y-135649995D01*
X80860148Y-135678404D01*
X80874309Y-135708344D01*
X80885467Y-135739529D01*
X80893515Y-135771657D01*
X80898375Y-135804419D01*
X80900000Y-135837500D01*
X80900000Y-136662500D01*
X80898375Y-136695581D01*
X80893515Y-136728343D01*
X80885467Y-136760471D01*
X80874309Y-136791656D01*
X80860148Y-136821596D01*
X80843121Y-136850005D01*
X80823391Y-136876608D01*
X80801149Y-136901149D01*
X80776608Y-136923391D01*
X80750005Y-136943121D01*
X80721596Y-136960148D01*
X80691656Y-136974309D01*
X80660471Y-136985467D01*
X80628343Y-136993515D01*
X80595581Y-136998375D01*
X80562500Y-137000000D01*
X79887500Y-137000000D01*
X79854419Y-136998375D01*
X79821657Y-136993515D01*
X79789529Y-136985467D01*
X79758344Y-136974309D01*
X79728404Y-136960148D01*
X79699995Y-136943121D01*
X79673392Y-136923391D01*
X79648851Y-136901149D01*
X79626609Y-136876608D01*
X79606879Y-136850005D01*
X79589852Y-136821596D01*
X79575691Y-136791656D01*
X79564533Y-136760471D01*
X79556485Y-136728343D01*
X79551625Y-136695581D01*
X79550000Y-136662500D01*
X79550000Y-135837500D01*
X79551625Y-135804419D01*
X79556485Y-135771657D01*
X79564533Y-135739529D01*
X79575691Y-135708344D01*
X79589852Y-135678404D01*
X79606879Y-135649995D01*
X79626609Y-135623392D01*
X79648851Y-135598851D01*
X79673392Y-135576609D01*
X79699995Y-135556879D01*
X79728404Y-135539852D01*
X79758344Y-135525691D01*
X79789529Y-135514533D01*
X79821657Y-135506485D01*
X79854419Y-135501625D01*
X79887500Y-135500000D01*
X80562500Y-135500000D01*
X80595581Y-135501625D01*
X80595581Y-135501625D01*
G37*
D28*
X80225000Y-136250000D03*
D27*
G36*
X78645581Y-135501625D02*
G01*
X78678343Y-135506485D01*
X78710471Y-135514533D01*
X78741656Y-135525691D01*
X78771596Y-135539852D01*
X78800005Y-135556879D01*
X78826608Y-135576609D01*
X78851149Y-135598851D01*
X78873391Y-135623392D01*
X78893121Y-135649995D01*
X78910148Y-135678404D01*
X78924309Y-135708344D01*
X78935467Y-135739529D01*
X78943515Y-135771657D01*
X78948375Y-135804419D01*
X78950000Y-135837500D01*
X78950000Y-136662500D01*
X78948375Y-136695581D01*
X78943515Y-136728343D01*
X78935467Y-136760471D01*
X78924309Y-136791656D01*
X78910148Y-136821596D01*
X78893121Y-136850005D01*
X78873391Y-136876608D01*
X78851149Y-136901149D01*
X78826608Y-136923391D01*
X78800005Y-136943121D01*
X78771596Y-136960148D01*
X78741656Y-136974309D01*
X78710471Y-136985467D01*
X78678343Y-136993515D01*
X78645581Y-136998375D01*
X78612500Y-137000000D01*
X77937500Y-137000000D01*
X77904419Y-136998375D01*
X77871657Y-136993515D01*
X77839529Y-136985467D01*
X77808344Y-136974309D01*
X77778404Y-136960148D01*
X77749995Y-136943121D01*
X77723392Y-136923391D01*
X77698851Y-136901149D01*
X77676609Y-136876608D01*
X77656879Y-136850005D01*
X77639852Y-136821596D01*
X77625691Y-136791656D01*
X77614533Y-136760471D01*
X77606485Y-136728343D01*
X77601625Y-136695581D01*
X77600000Y-136662500D01*
X77600000Y-135837500D01*
X77601625Y-135804419D01*
X77606485Y-135771657D01*
X77614533Y-135739529D01*
X77625691Y-135708344D01*
X77639852Y-135678404D01*
X77656879Y-135649995D01*
X77676609Y-135623392D01*
X77698851Y-135598851D01*
X77723392Y-135576609D01*
X77749995Y-135556879D01*
X77778404Y-135539852D01*
X77808344Y-135525691D01*
X77839529Y-135514533D01*
X77871657Y-135506485D01*
X77904419Y-135501625D01*
X77937500Y-135500000D01*
X78612500Y-135500000D01*
X78645581Y-135501625D01*
X78645581Y-135501625D01*
G37*
D28*
X78275000Y-136250000D03*
%TD*%
D27*
%TO.C,C11*%
G36*
X106195581Y-127351625D02*
G01*
X106228343Y-127356485D01*
X106260471Y-127364533D01*
X106291656Y-127375691D01*
X106321596Y-127389852D01*
X106350005Y-127406879D01*
X106376608Y-127426609D01*
X106401149Y-127448851D01*
X106423391Y-127473392D01*
X106443121Y-127499995D01*
X106460148Y-127528404D01*
X106474309Y-127558344D01*
X106485467Y-127589529D01*
X106493515Y-127621657D01*
X106498375Y-127654419D01*
X106500000Y-127687500D01*
X106500000Y-128362500D01*
X106498375Y-128395581D01*
X106493515Y-128428343D01*
X106485467Y-128460471D01*
X106474309Y-128491656D01*
X106460148Y-128521596D01*
X106443121Y-128550005D01*
X106423391Y-128576608D01*
X106401149Y-128601149D01*
X106376608Y-128623391D01*
X106350005Y-128643121D01*
X106321596Y-128660148D01*
X106291656Y-128674309D01*
X106260471Y-128685467D01*
X106228343Y-128693515D01*
X106195581Y-128698375D01*
X106162500Y-128700000D01*
X105337500Y-128700000D01*
X105304419Y-128698375D01*
X105271657Y-128693515D01*
X105239529Y-128685467D01*
X105208344Y-128674309D01*
X105178404Y-128660148D01*
X105149995Y-128643121D01*
X105123392Y-128623391D01*
X105098851Y-128601149D01*
X105076609Y-128576608D01*
X105056879Y-128550005D01*
X105039852Y-128521596D01*
X105025691Y-128491656D01*
X105014533Y-128460471D01*
X105006485Y-128428343D01*
X105001625Y-128395581D01*
X105000000Y-128362500D01*
X105000000Y-127687500D01*
X105001625Y-127654419D01*
X105006485Y-127621657D01*
X105014533Y-127589529D01*
X105025691Y-127558344D01*
X105039852Y-127528404D01*
X105056879Y-127499995D01*
X105076609Y-127473392D01*
X105098851Y-127448851D01*
X105123392Y-127426609D01*
X105149995Y-127406879D01*
X105178404Y-127389852D01*
X105208344Y-127375691D01*
X105239529Y-127364533D01*
X105271657Y-127356485D01*
X105304419Y-127351625D01*
X105337500Y-127350000D01*
X106162500Y-127350000D01*
X106195581Y-127351625D01*
X106195581Y-127351625D01*
G37*
D28*
X105750000Y-128025000D03*
D27*
G36*
X106195581Y-129301625D02*
G01*
X106228343Y-129306485D01*
X106260471Y-129314533D01*
X106291656Y-129325691D01*
X106321596Y-129339852D01*
X106350005Y-129356879D01*
X106376608Y-129376609D01*
X106401149Y-129398851D01*
X106423391Y-129423392D01*
X106443121Y-129449995D01*
X106460148Y-129478404D01*
X106474309Y-129508344D01*
X106485467Y-129539529D01*
X106493515Y-129571657D01*
X106498375Y-129604419D01*
X106500000Y-129637500D01*
X106500000Y-130312500D01*
X106498375Y-130345581D01*
X106493515Y-130378343D01*
X106485467Y-130410471D01*
X106474309Y-130441656D01*
X106460148Y-130471596D01*
X106443121Y-130500005D01*
X106423391Y-130526608D01*
X106401149Y-130551149D01*
X106376608Y-130573391D01*
X106350005Y-130593121D01*
X106321596Y-130610148D01*
X106291656Y-130624309D01*
X106260471Y-130635467D01*
X106228343Y-130643515D01*
X106195581Y-130648375D01*
X106162500Y-130650000D01*
X105337500Y-130650000D01*
X105304419Y-130648375D01*
X105271657Y-130643515D01*
X105239529Y-130635467D01*
X105208344Y-130624309D01*
X105178404Y-130610148D01*
X105149995Y-130593121D01*
X105123392Y-130573391D01*
X105098851Y-130551149D01*
X105076609Y-130526608D01*
X105056879Y-130500005D01*
X105039852Y-130471596D01*
X105025691Y-130441656D01*
X105014533Y-130410471D01*
X105006485Y-130378343D01*
X105001625Y-130345581D01*
X105000000Y-130312500D01*
X105000000Y-129637500D01*
X105001625Y-129604419D01*
X105006485Y-129571657D01*
X105014533Y-129539529D01*
X105025691Y-129508344D01*
X105039852Y-129478404D01*
X105056879Y-129449995D01*
X105076609Y-129423392D01*
X105098851Y-129398851D01*
X105123392Y-129376609D01*
X105149995Y-129356879D01*
X105178404Y-129339852D01*
X105208344Y-129325691D01*
X105239529Y-129314533D01*
X105271657Y-129306485D01*
X105304419Y-129301625D01*
X105337500Y-129300000D01*
X106162500Y-129300000D01*
X106195581Y-129301625D01*
X106195581Y-129301625D01*
G37*
D28*
X105750000Y-129975000D03*
%TD*%
D27*
%TO.C,C6*%
G36*
X86395581Y-126001625D02*
G01*
X86428343Y-126006485D01*
X86460471Y-126014533D01*
X86491656Y-126025691D01*
X86521596Y-126039852D01*
X86550005Y-126056879D01*
X86576608Y-126076609D01*
X86601149Y-126098851D01*
X86623391Y-126123392D01*
X86643121Y-126149995D01*
X86660148Y-126178404D01*
X86674309Y-126208344D01*
X86685467Y-126239529D01*
X86693515Y-126271657D01*
X86698375Y-126304419D01*
X86700000Y-126337500D01*
X86700000Y-127162500D01*
X86698375Y-127195581D01*
X86693515Y-127228343D01*
X86685467Y-127260471D01*
X86674309Y-127291656D01*
X86660148Y-127321596D01*
X86643121Y-127350005D01*
X86623391Y-127376608D01*
X86601149Y-127401149D01*
X86576608Y-127423391D01*
X86550005Y-127443121D01*
X86521596Y-127460148D01*
X86491656Y-127474309D01*
X86460471Y-127485467D01*
X86428343Y-127493515D01*
X86395581Y-127498375D01*
X86362500Y-127500000D01*
X85687500Y-127500000D01*
X85654419Y-127498375D01*
X85621657Y-127493515D01*
X85589529Y-127485467D01*
X85558344Y-127474309D01*
X85528404Y-127460148D01*
X85499995Y-127443121D01*
X85473392Y-127423391D01*
X85448851Y-127401149D01*
X85426609Y-127376608D01*
X85406879Y-127350005D01*
X85389852Y-127321596D01*
X85375691Y-127291656D01*
X85364533Y-127260471D01*
X85356485Y-127228343D01*
X85351625Y-127195581D01*
X85350000Y-127162500D01*
X85350000Y-126337500D01*
X85351625Y-126304419D01*
X85356485Y-126271657D01*
X85364533Y-126239529D01*
X85375691Y-126208344D01*
X85389852Y-126178404D01*
X85406879Y-126149995D01*
X85426609Y-126123392D01*
X85448851Y-126098851D01*
X85473392Y-126076609D01*
X85499995Y-126056879D01*
X85528404Y-126039852D01*
X85558344Y-126025691D01*
X85589529Y-126014533D01*
X85621657Y-126006485D01*
X85654419Y-126001625D01*
X85687500Y-126000000D01*
X86362500Y-126000000D01*
X86395581Y-126001625D01*
X86395581Y-126001625D01*
G37*
D28*
X86025000Y-126750000D03*
D27*
G36*
X88345581Y-126001625D02*
G01*
X88378343Y-126006485D01*
X88410471Y-126014533D01*
X88441656Y-126025691D01*
X88471596Y-126039852D01*
X88500005Y-126056879D01*
X88526608Y-126076609D01*
X88551149Y-126098851D01*
X88573391Y-126123392D01*
X88593121Y-126149995D01*
X88610148Y-126178404D01*
X88624309Y-126208344D01*
X88635467Y-126239529D01*
X88643515Y-126271657D01*
X88648375Y-126304419D01*
X88650000Y-126337500D01*
X88650000Y-127162500D01*
X88648375Y-127195581D01*
X88643515Y-127228343D01*
X88635467Y-127260471D01*
X88624309Y-127291656D01*
X88610148Y-127321596D01*
X88593121Y-127350005D01*
X88573391Y-127376608D01*
X88551149Y-127401149D01*
X88526608Y-127423391D01*
X88500005Y-127443121D01*
X88471596Y-127460148D01*
X88441656Y-127474309D01*
X88410471Y-127485467D01*
X88378343Y-127493515D01*
X88345581Y-127498375D01*
X88312500Y-127500000D01*
X87637500Y-127500000D01*
X87604419Y-127498375D01*
X87571657Y-127493515D01*
X87539529Y-127485467D01*
X87508344Y-127474309D01*
X87478404Y-127460148D01*
X87449995Y-127443121D01*
X87423392Y-127423391D01*
X87398851Y-127401149D01*
X87376609Y-127376608D01*
X87356879Y-127350005D01*
X87339852Y-127321596D01*
X87325691Y-127291656D01*
X87314533Y-127260471D01*
X87306485Y-127228343D01*
X87301625Y-127195581D01*
X87300000Y-127162500D01*
X87300000Y-126337500D01*
X87301625Y-126304419D01*
X87306485Y-126271657D01*
X87314533Y-126239529D01*
X87325691Y-126208344D01*
X87339852Y-126178404D01*
X87356879Y-126149995D01*
X87376609Y-126123392D01*
X87398851Y-126098851D01*
X87423392Y-126076609D01*
X87449995Y-126056879D01*
X87478404Y-126039852D01*
X87508344Y-126025691D01*
X87539529Y-126014533D01*
X87571657Y-126006485D01*
X87604419Y-126001625D01*
X87637500Y-126000000D01*
X88312500Y-126000000D01*
X88345581Y-126001625D01*
X88345581Y-126001625D01*
G37*
D28*
X87975000Y-126750000D03*
%TD*%
D27*
%TO.C,C10*%
G36*
X93945581Y-143851625D02*
G01*
X93978343Y-143856485D01*
X94010471Y-143864533D01*
X94041656Y-143875691D01*
X94071596Y-143889852D01*
X94100005Y-143906879D01*
X94126608Y-143926609D01*
X94151149Y-143948851D01*
X94173391Y-143973392D01*
X94193121Y-143999995D01*
X94210148Y-144028404D01*
X94224309Y-144058344D01*
X94235467Y-144089529D01*
X94243515Y-144121657D01*
X94248375Y-144154419D01*
X94250000Y-144187500D01*
X94250000Y-144862500D01*
X94248375Y-144895581D01*
X94243515Y-144928343D01*
X94235467Y-144960471D01*
X94224309Y-144991656D01*
X94210148Y-145021596D01*
X94193121Y-145050005D01*
X94173391Y-145076608D01*
X94151149Y-145101149D01*
X94126608Y-145123391D01*
X94100005Y-145143121D01*
X94071596Y-145160148D01*
X94041656Y-145174309D01*
X94010471Y-145185467D01*
X93978343Y-145193515D01*
X93945581Y-145198375D01*
X93912500Y-145200000D01*
X93087500Y-145200000D01*
X93054419Y-145198375D01*
X93021657Y-145193515D01*
X92989529Y-145185467D01*
X92958344Y-145174309D01*
X92928404Y-145160148D01*
X92899995Y-145143121D01*
X92873392Y-145123391D01*
X92848851Y-145101149D01*
X92826609Y-145076608D01*
X92806879Y-145050005D01*
X92789852Y-145021596D01*
X92775691Y-144991656D01*
X92764533Y-144960471D01*
X92756485Y-144928343D01*
X92751625Y-144895581D01*
X92750000Y-144862500D01*
X92750000Y-144187500D01*
X92751625Y-144154419D01*
X92756485Y-144121657D01*
X92764533Y-144089529D01*
X92775691Y-144058344D01*
X92789852Y-144028404D01*
X92806879Y-143999995D01*
X92826609Y-143973392D01*
X92848851Y-143948851D01*
X92873392Y-143926609D01*
X92899995Y-143906879D01*
X92928404Y-143889852D01*
X92958344Y-143875691D01*
X92989529Y-143864533D01*
X93021657Y-143856485D01*
X93054419Y-143851625D01*
X93087500Y-143850000D01*
X93912500Y-143850000D01*
X93945581Y-143851625D01*
X93945581Y-143851625D01*
G37*
D28*
X93500000Y-144525000D03*
D27*
G36*
X93945581Y-145801625D02*
G01*
X93978343Y-145806485D01*
X94010471Y-145814533D01*
X94041656Y-145825691D01*
X94071596Y-145839852D01*
X94100005Y-145856879D01*
X94126608Y-145876609D01*
X94151149Y-145898851D01*
X94173391Y-145923392D01*
X94193121Y-145949995D01*
X94210148Y-145978404D01*
X94224309Y-146008344D01*
X94235467Y-146039529D01*
X94243515Y-146071657D01*
X94248375Y-146104419D01*
X94250000Y-146137500D01*
X94250000Y-146812500D01*
X94248375Y-146845581D01*
X94243515Y-146878343D01*
X94235467Y-146910471D01*
X94224309Y-146941656D01*
X94210148Y-146971596D01*
X94193121Y-147000005D01*
X94173391Y-147026608D01*
X94151149Y-147051149D01*
X94126608Y-147073391D01*
X94100005Y-147093121D01*
X94071596Y-147110148D01*
X94041656Y-147124309D01*
X94010471Y-147135467D01*
X93978343Y-147143515D01*
X93945581Y-147148375D01*
X93912500Y-147150000D01*
X93087500Y-147150000D01*
X93054419Y-147148375D01*
X93021657Y-147143515D01*
X92989529Y-147135467D01*
X92958344Y-147124309D01*
X92928404Y-147110148D01*
X92899995Y-147093121D01*
X92873392Y-147073391D01*
X92848851Y-147051149D01*
X92826609Y-147026608D01*
X92806879Y-147000005D01*
X92789852Y-146971596D01*
X92775691Y-146941656D01*
X92764533Y-146910471D01*
X92756485Y-146878343D01*
X92751625Y-146845581D01*
X92750000Y-146812500D01*
X92750000Y-146137500D01*
X92751625Y-146104419D01*
X92756485Y-146071657D01*
X92764533Y-146039529D01*
X92775691Y-146008344D01*
X92789852Y-145978404D01*
X92806879Y-145949995D01*
X92826609Y-145923392D01*
X92848851Y-145898851D01*
X92873392Y-145876609D01*
X92899995Y-145856879D01*
X92928404Y-145839852D01*
X92958344Y-145825691D01*
X92989529Y-145814533D01*
X93021657Y-145806485D01*
X93054419Y-145801625D01*
X93087500Y-145800000D01*
X93912500Y-145800000D01*
X93945581Y-145801625D01*
X93945581Y-145801625D01*
G37*
D28*
X93500000Y-146475000D03*
%TD*%
D27*
%TO.C,C8*%
G36*
X99945581Y-141301625D02*
G01*
X99978343Y-141306485D01*
X100010471Y-141314533D01*
X100041656Y-141325691D01*
X100071596Y-141339852D01*
X100100005Y-141356879D01*
X100126608Y-141376609D01*
X100151149Y-141398851D01*
X100173391Y-141423392D01*
X100193121Y-141449995D01*
X100210148Y-141478404D01*
X100224309Y-141508344D01*
X100235467Y-141539529D01*
X100243515Y-141571657D01*
X100248375Y-141604419D01*
X100250000Y-141637500D01*
X100250000Y-142312500D01*
X100248375Y-142345581D01*
X100243515Y-142378343D01*
X100235467Y-142410471D01*
X100224309Y-142441656D01*
X100210148Y-142471596D01*
X100193121Y-142500005D01*
X100173391Y-142526608D01*
X100151149Y-142551149D01*
X100126608Y-142573391D01*
X100100005Y-142593121D01*
X100071596Y-142610148D01*
X100041656Y-142624309D01*
X100010471Y-142635467D01*
X99978343Y-142643515D01*
X99945581Y-142648375D01*
X99912500Y-142650000D01*
X99087500Y-142650000D01*
X99054419Y-142648375D01*
X99021657Y-142643515D01*
X98989529Y-142635467D01*
X98958344Y-142624309D01*
X98928404Y-142610148D01*
X98899995Y-142593121D01*
X98873392Y-142573391D01*
X98848851Y-142551149D01*
X98826609Y-142526608D01*
X98806879Y-142500005D01*
X98789852Y-142471596D01*
X98775691Y-142441656D01*
X98764533Y-142410471D01*
X98756485Y-142378343D01*
X98751625Y-142345581D01*
X98750000Y-142312500D01*
X98750000Y-141637500D01*
X98751625Y-141604419D01*
X98756485Y-141571657D01*
X98764533Y-141539529D01*
X98775691Y-141508344D01*
X98789852Y-141478404D01*
X98806879Y-141449995D01*
X98826609Y-141423392D01*
X98848851Y-141398851D01*
X98873392Y-141376609D01*
X98899995Y-141356879D01*
X98928404Y-141339852D01*
X98958344Y-141325691D01*
X98989529Y-141314533D01*
X99021657Y-141306485D01*
X99054419Y-141301625D01*
X99087500Y-141300000D01*
X99912500Y-141300000D01*
X99945581Y-141301625D01*
X99945581Y-141301625D01*
G37*
D28*
X99500000Y-141975000D03*
D27*
G36*
X99945581Y-139351625D02*
G01*
X99978343Y-139356485D01*
X100010471Y-139364533D01*
X100041656Y-139375691D01*
X100071596Y-139389852D01*
X100100005Y-139406879D01*
X100126608Y-139426609D01*
X100151149Y-139448851D01*
X100173391Y-139473392D01*
X100193121Y-139499995D01*
X100210148Y-139528404D01*
X100224309Y-139558344D01*
X100235467Y-139589529D01*
X100243515Y-139621657D01*
X100248375Y-139654419D01*
X100250000Y-139687500D01*
X100250000Y-140362500D01*
X100248375Y-140395581D01*
X100243515Y-140428343D01*
X100235467Y-140460471D01*
X100224309Y-140491656D01*
X100210148Y-140521596D01*
X100193121Y-140550005D01*
X100173391Y-140576608D01*
X100151149Y-140601149D01*
X100126608Y-140623391D01*
X100100005Y-140643121D01*
X100071596Y-140660148D01*
X100041656Y-140674309D01*
X100010471Y-140685467D01*
X99978343Y-140693515D01*
X99945581Y-140698375D01*
X99912500Y-140700000D01*
X99087500Y-140700000D01*
X99054419Y-140698375D01*
X99021657Y-140693515D01*
X98989529Y-140685467D01*
X98958344Y-140674309D01*
X98928404Y-140660148D01*
X98899995Y-140643121D01*
X98873392Y-140623391D01*
X98848851Y-140601149D01*
X98826609Y-140576608D01*
X98806879Y-140550005D01*
X98789852Y-140521596D01*
X98775691Y-140491656D01*
X98764533Y-140460471D01*
X98756485Y-140428343D01*
X98751625Y-140395581D01*
X98750000Y-140362500D01*
X98750000Y-139687500D01*
X98751625Y-139654419D01*
X98756485Y-139621657D01*
X98764533Y-139589529D01*
X98775691Y-139558344D01*
X98789852Y-139528404D01*
X98806879Y-139499995D01*
X98826609Y-139473392D01*
X98848851Y-139448851D01*
X98873392Y-139426609D01*
X98899995Y-139406879D01*
X98928404Y-139389852D01*
X98958344Y-139375691D01*
X98989529Y-139364533D01*
X99021657Y-139356485D01*
X99054419Y-139351625D01*
X99087500Y-139350000D01*
X99912500Y-139350000D01*
X99945581Y-139351625D01*
X99945581Y-139351625D01*
G37*
D28*
X99500000Y-140025000D03*
%TD*%
D27*
%TO.C,C7*%
G36*
X91445581Y-143851625D02*
G01*
X91478343Y-143856485D01*
X91510471Y-143864533D01*
X91541656Y-143875691D01*
X91571596Y-143889852D01*
X91600005Y-143906879D01*
X91626608Y-143926609D01*
X91651149Y-143948851D01*
X91673391Y-143973392D01*
X91693121Y-143999995D01*
X91710148Y-144028404D01*
X91724309Y-144058344D01*
X91735467Y-144089529D01*
X91743515Y-144121657D01*
X91748375Y-144154419D01*
X91750000Y-144187500D01*
X91750000Y-144862500D01*
X91748375Y-144895581D01*
X91743515Y-144928343D01*
X91735467Y-144960471D01*
X91724309Y-144991656D01*
X91710148Y-145021596D01*
X91693121Y-145050005D01*
X91673391Y-145076608D01*
X91651149Y-145101149D01*
X91626608Y-145123391D01*
X91600005Y-145143121D01*
X91571596Y-145160148D01*
X91541656Y-145174309D01*
X91510471Y-145185467D01*
X91478343Y-145193515D01*
X91445581Y-145198375D01*
X91412500Y-145200000D01*
X90587500Y-145200000D01*
X90554419Y-145198375D01*
X90521657Y-145193515D01*
X90489529Y-145185467D01*
X90458344Y-145174309D01*
X90428404Y-145160148D01*
X90399995Y-145143121D01*
X90373392Y-145123391D01*
X90348851Y-145101149D01*
X90326609Y-145076608D01*
X90306879Y-145050005D01*
X90289852Y-145021596D01*
X90275691Y-144991656D01*
X90264533Y-144960471D01*
X90256485Y-144928343D01*
X90251625Y-144895581D01*
X90250000Y-144862500D01*
X90250000Y-144187500D01*
X90251625Y-144154419D01*
X90256485Y-144121657D01*
X90264533Y-144089529D01*
X90275691Y-144058344D01*
X90289852Y-144028404D01*
X90306879Y-143999995D01*
X90326609Y-143973392D01*
X90348851Y-143948851D01*
X90373392Y-143926609D01*
X90399995Y-143906879D01*
X90428404Y-143889852D01*
X90458344Y-143875691D01*
X90489529Y-143864533D01*
X90521657Y-143856485D01*
X90554419Y-143851625D01*
X90587500Y-143850000D01*
X91412500Y-143850000D01*
X91445581Y-143851625D01*
X91445581Y-143851625D01*
G37*
D28*
X91000000Y-144525000D03*
D27*
G36*
X91445581Y-145801625D02*
G01*
X91478343Y-145806485D01*
X91510471Y-145814533D01*
X91541656Y-145825691D01*
X91571596Y-145839852D01*
X91600005Y-145856879D01*
X91626608Y-145876609D01*
X91651149Y-145898851D01*
X91673391Y-145923392D01*
X91693121Y-145949995D01*
X91710148Y-145978404D01*
X91724309Y-146008344D01*
X91735467Y-146039529D01*
X91743515Y-146071657D01*
X91748375Y-146104419D01*
X91750000Y-146137500D01*
X91750000Y-146812500D01*
X91748375Y-146845581D01*
X91743515Y-146878343D01*
X91735467Y-146910471D01*
X91724309Y-146941656D01*
X91710148Y-146971596D01*
X91693121Y-147000005D01*
X91673391Y-147026608D01*
X91651149Y-147051149D01*
X91626608Y-147073391D01*
X91600005Y-147093121D01*
X91571596Y-147110148D01*
X91541656Y-147124309D01*
X91510471Y-147135467D01*
X91478343Y-147143515D01*
X91445581Y-147148375D01*
X91412500Y-147150000D01*
X90587500Y-147150000D01*
X90554419Y-147148375D01*
X90521657Y-147143515D01*
X90489529Y-147135467D01*
X90458344Y-147124309D01*
X90428404Y-147110148D01*
X90399995Y-147093121D01*
X90373392Y-147073391D01*
X90348851Y-147051149D01*
X90326609Y-147026608D01*
X90306879Y-147000005D01*
X90289852Y-146971596D01*
X90275691Y-146941656D01*
X90264533Y-146910471D01*
X90256485Y-146878343D01*
X90251625Y-146845581D01*
X90250000Y-146812500D01*
X90250000Y-146137500D01*
X90251625Y-146104419D01*
X90256485Y-146071657D01*
X90264533Y-146039529D01*
X90275691Y-146008344D01*
X90289852Y-145978404D01*
X90306879Y-145949995D01*
X90326609Y-145923392D01*
X90348851Y-145898851D01*
X90373392Y-145876609D01*
X90399995Y-145856879D01*
X90428404Y-145839852D01*
X90458344Y-145825691D01*
X90489529Y-145814533D01*
X90521657Y-145806485D01*
X90554419Y-145801625D01*
X90587500Y-145800000D01*
X91412500Y-145800000D01*
X91445581Y-145801625D01*
X91445581Y-145801625D01*
G37*
D28*
X91000000Y-146475000D03*
%TD*%
D27*
%TO.C,C5*%
G36*
X99945581Y-145301625D02*
G01*
X99978343Y-145306485D01*
X100010471Y-145314533D01*
X100041656Y-145325691D01*
X100071596Y-145339852D01*
X100100005Y-145356879D01*
X100126608Y-145376609D01*
X100151149Y-145398851D01*
X100173391Y-145423392D01*
X100193121Y-145449995D01*
X100210148Y-145478404D01*
X100224309Y-145508344D01*
X100235467Y-145539529D01*
X100243515Y-145571657D01*
X100248375Y-145604419D01*
X100250000Y-145637500D01*
X100250000Y-146312500D01*
X100248375Y-146345581D01*
X100243515Y-146378343D01*
X100235467Y-146410471D01*
X100224309Y-146441656D01*
X100210148Y-146471596D01*
X100193121Y-146500005D01*
X100173391Y-146526608D01*
X100151149Y-146551149D01*
X100126608Y-146573391D01*
X100100005Y-146593121D01*
X100071596Y-146610148D01*
X100041656Y-146624309D01*
X100010471Y-146635467D01*
X99978343Y-146643515D01*
X99945581Y-146648375D01*
X99912500Y-146650000D01*
X99087500Y-146650000D01*
X99054419Y-146648375D01*
X99021657Y-146643515D01*
X98989529Y-146635467D01*
X98958344Y-146624309D01*
X98928404Y-146610148D01*
X98899995Y-146593121D01*
X98873392Y-146573391D01*
X98848851Y-146551149D01*
X98826609Y-146526608D01*
X98806879Y-146500005D01*
X98789852Y-146471596D01*
X98775691Y-146441656D01*
X98764533Y-146410471D01*
X98756485Y-146378343D01*
X98751625Y-146345581D01*
X98750000Y-146312500D01*
X98750000Y-145637500D01*
X98751625Y-145604419D01*
X98756485Y-145571657D01*
X98764533Y-145539529D01*
X98775691Y-145508344D01*
X98789852Y-145478404D01*
X98806879Y-145449995D01*
X98826609Y-145423392D01*
X98848851Y-145398851D01*
X98873392Y-145376609D01*
X98899995Y-145356879D01*
X98928404Y-145339852D01*
X98958344Y-145325691D01*
X98989529Y-145314533D01*
X99021657Y-145306485D01*
X99054419Y-145301625D01*
X99087500Y-145300000D01*
X99912500Y-145300000D01*
X99945581Y-145301625D01*
X99945581Y-145301625D01*
G37*
D28*
X99500000Y-145975000D03*
D27*
G36*
X99945581Y-143351625D02*
G01*
X99978343Y-143356485D01*
X100010471Y-143364533D01*
X100041656Y-143375691D01*
X100071596Y-143389852D01*
X100100005Y-143406879D01*
X100126608Y-143426609D01*
X100151149Y-143448851D01*
X100173391Y-143473392D01*
X100193121Y-143499995D01*
X100210148Y-143528404D01*
X100224309Y-143558344D01*
X100235467Y-143589529D01*
X100243515Y-143621657D01*
X100248375Y-143654419D01*
X100250000Y-143687500D01*
X100250000Y-144362500D01*
X100248375Y-144395581D01*
X100243515Y-144428343D01*
X100235467Y-144460471D01*
X100224309Y-144491656D01*
X100210148Y-144521596D01*
X100193121Y-144550005D01*
X100173391Y-144576608D01*
X100151149Y-144601149D01*
X100126608Y-144623391D01*
X100100005Y-144643121D01*
X100071596Y-144660148D01*
X100041656Y-144674309D01*
X100010471Y-144685467D01*
X99978343Y-144693515D01*
X99945581Y-144698375D01*
X99912500Y-144700000D01*
X99087500Y-144700000D01*
X99054419Y-144698375D01*
X99021657Y-144693515D01*
X98989529Y-144685467D01*
X98958344Y-144674309D01*
X98928404Y-144660148D01*
X98899995Y-144643121D01*
X98873392Y-144623391D01*
X98848851Y-144601149D01*
X98826609Y-144576608D01*
X98806879Y-144550005D01*
X98789852Y-144521596D01*
X98775691Y-144491656D01*
X98764533Y-144460471D01*
X98756485Y-144428343D01*
X98751625Y-144395581D01*
X98750000Y-144362500D01*
X98750000Y-143687500D01*
X98751625Y-143654419D01*
X98756485Y-143621657D01*
X98764533Y-143589529D01*
X98775691Y-143558344D01*
X98789852Y-143528404D01*
X98806879Y-143499995D01*
X98826609Y-143473392D01*
X98848851Y-143448851D01*
X98873392Y-143426609D01*
X98899995Y-143406879D01*
X98928404Y-143389852D01*
X98958344Y-143375691D01*
X98989529Y-143364533D01*
X99021657Y-143356485D01*
X99054419Y-143351625D01*
X99087500Y-143350000D01*
X99912500Y-143350000D01*
X99945581Y-143351625D01*
X99945581Y-143351625D01*
G37*
D28*
X99500000Y-144025000D03*
%TD*%
D27*
%TO.C,C4*%
G36*
X105945581Y-145301625D02*
G01*
X105978343Y-145306485D01*
X106010471Y-145314533D01*
X106041656Y-145325691D01*
X106071596Y-145339852D01*
X106100005Y-145356879D01*
X106126608Y-145376609D01*
X106151149Y-145398851D01*
X106173391Y-145423392D01*
X106193121Y-145449995D01*
X106210148Y-145478404D01*
X106224309Y-145508344D01*
X106235467Y-145539529D01*
X106243515Y-145571657D01*
X106248375Y-145604419D01*
X106250000Y-145637500D01*
X106250000Y-146312500D01*
X106248375Y-146345581D01*
X106243515Y-146378343D01*
X106235467Y-146410471D01*
X106224309Y-146441656D01*
X106210148Y-146471596D01*
X106193121Y-146500005D01*
X106173391Y-146526608D01*
X106151149Y-146551149D01*
X106126608Y-146573391D01*
X106100005Y-146593121D01*
X106071596Y-146610148D01*
X106041656Y-146624309D01*
X106010471Y-146635467D01*
X105978343Y-146643515D01*
X105945581Y-146648375D01*
X105912500Y-146650000D01*
X105087500Y-146650000D01*
X105054419Y-146648375D01*
X105021657Y-146643515D01*
X104989529Y-146635467D01*
X104958344Y-146624309D01*
X104928404Y-146610148D01*
X104899995Y-146593121D01*
X104873392Y-146573391D01*
X104848851Y-146551149D01*
X104826609Y-146526608D01*
X104806879Y-146500005D01*
X104789852Y-146471596D01*
X104775691Y-146441656D01*
X104764533Y-146410471D01*
X104756485Y-146378343D01*
X104751625Y-146345581D01*
X104750000Y-146312500D01*
X104750000Y-145637500D01*
X104751625Y-145604419D01*
X104756485Y-145571657D01*
X104764533Y-145539529D01*
X104775691Y-145508344D01*
X104789852Y-145478404D01*
X104806879Y-145449995D01*
X104826609Y-145423392D01*
X104848851Y-145398851D01*
X104873392Y-145376609D01*
X104899995Y-145356879D01*
X104928404Y-145339852D01*
X104958344Y-145325691D01*
X104989529Y-145314533D01*
X105021657Y-145306485D01*
X105054419Y-145301625D01*
X105087500Y-145300000D01*
X105912500Y-145300000D01*
X105945581Y-145301625D01*
X105945581Y-145301625D01*
G37*
D28*
X105500000Y-145975000D03*
D27*
G36*
X105945581Y-143351625D02*
G01*
X105978343Y-143356485D01*
X106010471Y-143364533D01*
X106041656Y-143375691D01*
X106071596Y-143389852D01*
X106100005Y-143406879D01*
X106126608Y-143426609D01*
X106151149Y-143448851D01*
X106173391Y-143473392D01*
X106193121Y-143499995D01*
X106210148Y-143528404D01*
X106224309Y-143558344D01*
X106235467Y-143589529D01*
X106243515Y-143621657D01*
X106248375Y-143654419D01*
X106250000Y-143687500D01*
X106250000Y-144362500D01*
X106248375Y-144395581D01*
X106243515Y-144428343D01*
X106235467Y-144460471D01*
X106224309Y-144491656D01*
X106210148Y-144521596D01*
X106193121Y-144550005D01*
X106173391Y-144576608D01*
X106151149Y-144601149D01*
X106126608Y-144623391D01*
X106100005Y-144643121D01*
X106071596Y-144660148D01*
X106041656Y-144674309D01*
X106010471Y-144685467D01*
X105978343Y-144693515D01*
X105945581Y-144698375D01*
X105912500Y-144700000D01*
X105087500Y-144700000D01*
X105054419Y-144698375D01*
X105021657Y-144693515D01*
X104989529Y-144685467D01*
X104958344Y-144674309D01*
X104928404Y-144660148D01*
X104899995Y-144643121D01*
X104873392Y-144623391D01*
X104848851Y-144601149D01*
X104826609Y-144576608D01*
X104806879Y-144550005D01*
X104789852Y-144521596D01*
X104775691Y-144491656D01*
X104764533Y-144460471D01*
X104756485Y-144428343D01*
X104751625Y-144395581D01*
X104750000Y-144362500D01*
X104750000Y-143687500D01*
X104751625Y-143654419D01*
X104756485Y-143621657D01*
X104764533Y-143589529D01*
X104775691Y-143558344D01*
X104789852Y-143528404D01*
X104806879Y-143499995D01*
X104826609Y-143473392D01*
X104848851Y-143448851D01*
X104873392Y-143426609D01*
X104899995Y-143406879D01*
X104928404Y-143389852D01*
X104958344Y-143375691D01*
X104989529Y-143364533D01*
X105021657Y-143356485D01*
X105054419Y-143351625D01*
X105087500Y-143350000D01*
X105912500Y-143350000D01*
X105945581Y-143351625D01*
X105945581Y-143351625D01*
G37*
D28*
X105500000Y-144025000D03*
%TD*%
D27*
%TO.C,C3*%
G36*
X100595581Y-116751625D02*
G01*
X100628343Y-116756485D01*
X100660471Y-116764533D01*
X100691656Y-116775691D01*
X100721596Y-116789852D01*
X100750005Y-116806879D01*
X100776608Y-116826609D01*
X100801149Y-116848851D01*
X100823391Y-116873392D01*
X100843121Y-116899995D01*
X100860148Y-116928404D01*
X100874309Y-116958344D01*
X100885467Y-116989529D01*
X100893515Y-117021657D01*
X100898375Y-117054419D01*
X100900000Y-117087500D01*
X100900000Y-117912500D01*
X100898375Y-117945581D01*
X100893515Y-117978343D01*
X100885467Y-118010471D01*
X100874309Y-118041656D01*
X100860148Y-118071596D01*
X100843121Y-118100005D01*
X100823391Y-118126608D01*
X100801149Y-118151149D01*
X100776608Y-118173391D01*
X100750005Y-118193121D01*
X100721596Y-118210148D01*
X100691656Y-118224309D01*
X100660471Y-118235467D01*
X100628343Y-118243515D01*
X100595581Y-118248375D01*
X100562500Y-118250000D01*
X99887500Y-118250000D01*
X99854419Y-118248375D01*
X99821657Y-118243515D01*
X99789529Y-118235467D01*
X99758344Y-118224309D01*
X99728404Y-118210148D01*
X99699995Y-118193121D01*
X99673392Y-118173391D01*
X99648851Y-118151149D01*
X99626609Y-118126608D01*
X99606879Y-118100005D01*
X99589852Y-118071596D01*
X99575691Y-118041656D01*
X99564533Y-118010471D01*
X99556485Y-117978343D01*
X99551625Y-117945581D01*
X99550000Y-117912500D01*
X99550000Y-117087500D01*
X99551625Y-117054419D01*
X99556485Y-117021657D01*
X99564533Y-116989529D01*
X99575691Y-116958344D01*
X99589852Y-116928404D01*
X99606879Y-116899995D01*
X99626609Y-116873392D01*
X99648851Y-116848851D01*
X99673392Y-116826609D01*
X99699995Y-116806879D01*
X99728404Y-116789852D01*
X99758344Y-116775691D01*
X99789529Y-116764533D01*
X99821657Y-116756485D01*
X99854419Y-116751625D01*
X99887500Y-116750000D01*
X100562500Y-116750000D01*
X100595581Y-116751625D01*
X100595581Y-116751625D01*
G37*
D28*
X100225000Y-117500000D03*
D27*
G36*
X98645581Y-116751625D02*
G01*
X98678343Y-116756485D01*
X98710471Y-116764533D01*
X98741656Y-116775691D01*
X98771596Y-116789852D01*
X98800005Y-116806879D01*
X98826608Y-116826609D01*
X98851149Y-116848851D01*
X98873391Y-116873392D01*
X98893121Y-116899995D01*
X98910148Y-116928404D01*
X98924309Y-116958344D01*
X98935467Y-116989529D01*
X98943515Y-117021657D01*
X98948375Y-117054419D01*
X98950000Y-117087500D01*
X98950000Y-117912500D01*
X98948375Y-117945581D01*
X98943515Y-117978343D01*
X98935467Y-118010471D01*
X98924309Y-118041656D01*
X98910148Y-118071596D01*
X98893121Y-118100005D01*
X98873391Y-118126608D01*
X98851149Y-118151149D01*
X98826608Y-118173391D01*
X98800005Y-118193121D01*
X98771596Y-118210148D01*
X98741656Y-118224309D01*
X98710471Y-118235467D01*
X98678343Y-118243515D01*
X98645581Y-118248375D01*
X98612500Y-118250000D01*
X97937500Y-118250000D01*
X97904419Y-118248375D01*
X97871657Y-118243515D01*
X97839529Y-118235467D01*
X97808344Y-118224309D01*
X97778404Y-118210148D01*
X97749995Y-118193121D01*
X97723392Y-118173391D01*
X97698851Y-118151149D01*
X97676609Y-118126608D01*
X97656879Y-118100005D01*
X97639852Y-118071596D01*
X97625691Y-118041656D01*
X97614533Y-118010471D01*
X97606485Y-117978343D01*
X97601625Y-117945581D01*
X97600000Y-117912500D01*
X97600000Y-117087500D01*
X97601625Y-117054419D01*
X97606485Y-117021657D01*
X97614533Y-116989529D01*
X97625691Y-116958344D01*
X97639852Y-116928404D01*
X97656879Y-116899995D01*
X97676609Y-116873392D01*
X97698851Y-116848851D01*
X97723392Y-116826609D01*
X97749995Y-116806879D01*
X97778404Y-116789852D01*
X97808344Y-116775691D01*
X97839529Y-116764533D01*
X97871657Y-116756485D01*
X97904419Y-116751625D01*
X97937500Y-116750000D01*
X98612500Y-116750000D01*
X98645581Y-116751625D01*
X98645581Y-116751625D01*
G37*
D28*
X98275000Y-117500000D03*
%TD*%
D27*
%TO.C,C2*%
G36*
X81345581Y-142251625D02*
G01*
X81378343Y-142256485D01*
X81410471Y-142264533D01*
X81441656Y-142275691D01*
X81471596Y-142289852D01*
X81500005Y-142306879D01*
X81526608Y-142326609D01*
X81551149Y-142348851D01*
X81573391Y-142373392D01*
X81593121Y-142399995D01*
X81610148Y-142428404D01*
X81624309Y-142458344D01*
X81635467Y-142489529D01*
X81643515Y-142521657D01*
X81648375Y-142554419D01*
X81650000Y-142587500D01*
X81650000Y-143412500D01*
X81648375Y-143445581D01*
X81643515Y-143478343D01*
X81635467Y-143510471D01*
X81624309Y-143541656D01*
X81610148Y-143571596D01*
X81593121Y-143600005D01*
X81573391Y-143626608D01*
X81551149Y-143651149D01*
X81526608Y-143673391D01*
X81500005Y-143693121D01*
X81471596Y-143710148D01*
X81441656Y-143724309D01*
X81410471Y-143735467D01*
X81378343Y-143743515D01*
X81345581Y-143748375D01*
X81312500Y-143750000D01*
X80637500Y-143750000D01*
X80604419Y-143748375D01*
X80571657Y-143743515D01*
X80539529Y-143735467D01*
X80508344Y-143724309D01*
X80478404Y-143710148D01*
X80449995Y-143693121D01*
X80423392Y-143673391D01*
X80398851Y-143651149D01*
X80376609Y-143626608D01*
X80356879Y-143600005D01*
X80339852Y-143571596D01*
X80325691Y-143541656D01*
X80314533Y-143510471D01*
X80306485Y-143478343D01*
X80301625Y-143445581D01*
X80300000Y-143412500D01*
X80300000Y-142587500D01*
X80301625Y-142554419D01*
X80306485Y-142521657D01*
X80314533Y-142489529D01*
X80325691Y-142458344D01*
X80339852Y-142428404D01*
X80356879Y-142399995D01*
X80376609Y-142373392D01*
X80398851Y-142348851D01*
X80423392Y-142326609D01*
X80449995Y-142306879D01*
X80478404Y-142289852D01*
X80508344Y-142275691D01*
X80539529Y-142264533D01*
X80571657Y-142256485D01*
X80604419Y-142251625D01*
X80637500Y-142250000D01*
X81312500Y-142250000D01*
X81345581Y-142251625D01*
X81345581Y-142251625D01*
G37*
D28*
X80975000Y-143000000D03*
D27*
G36*
X79395581Y-142251625D02*
G01*
X79428343Y-142256485D01*
X79460471Y-142264533D01*
X79491656Y-142275691D01*
X79521596Y-142289852D01*
X79550005Y-142306879D01*
X79576608Y-142326609D01*
X79601149Y-142348851D01*
X79623391Y-142373392D01*
X79643121Y-142399995D01*
X79660148Y-142428404D01*
X79674309Y-142458344D01*
X79685467Y-142489529D01*
X79693515Y-142521657D01*
X79698375Y-142554419D01*
X79700000Y-142587500D01*
X79700000Y-143412500D01*
X79698375Y-143445581D01*
X79693515Y-143478343D01*
X79685467Y-143510471D01*
X79674309Y-143541656D01*
X79660148Y-143571596D01*
X79643121Y-143600005D01*
X79623391Y-143626608D01*
X79601149Y-143651149D01*
X79576608Y-143673391D01*
X79550005Y-143693121D01*
X79521596Y-143710148D01*
X79491656Y-143724309D01*
X79460471Y-143735467D01*
X79428343Y-143743515D01*
X79395581Y-143748375D01*
X79362500Y-143750000D01*
X78687500Y-143750000D01*
X78654419Y-143748375D01*
X78621657Y-143743515D01*
X78589529Y-143735467D01*
X78558344Y-143724309D01*
X78528404Y-143710148D01*
X78499995Y-143693121D01*
X78473392Y-143673391D01*
X78448851Y-143651149D01*
X78426609Y-143626608D01*
X78406879Y-143600005D01*
X78389852Y-143571596D01*
X78375691Y-143541656D01*
X78364533Y-143510471D01*
X78356485Y-143478343D01*
X78351625Y-143445581D01*
X78350000Y-143412500D01*
X78350000Y-142587500D01*
X78351625Y-142554419D01*
X78356485Y-142521657D01*
X78364533Y-142489529D01*
X78375691Y-142458344D01*
X78389852Y-142428404D01*
X78406879Y-142399995D01*
X78426609Y-142373392D01*
X78448851Y-142348851D01*
X78473392Y-142326609D01*
X78499995Y-142306879D01*
X78528404Y-142289852D01*
X78558344Y-142275691D01*
X78589529Y-142264533D01*
X78621657Y-142256485D01*
X78654419Y-142251625D01*
X78687500Y-142250000D01*
X79362500Y-142250000D01*
X79395581Y-142251625D01*
X79395581Y-142251625D01*
G37*
D28*
X79025000Y-143000000D03*
%TD*%
D22*
%TO.C,Q5*%
X104250000Y-122250000D03*
X102250000Y-123200000D03*
X102250000Y-121300000D03*
%TD*%
D27*
%TO.C,R25*%
G36*
X72395581Y-122751625D02*
G01*
X72428343Y-122756485D01*
X72460471Y-122764533D01*
X72491656Y-122775691D01*
X72521596Y-122789852D01*
X72550005Y-122806879D01*
X72576608Y-122826609D01*
X72601149Y-122848851D01*
X72623391Y-122873392D01*
X72643121Y-122899995D01*
X72660148Y-122928404D01*
X72674309Y-122958344D01*
X72685467Y-122989529D01*
X72693515Y-123021657D01*
X72698375Y-123054419D01*
X72700000Y-123087500D01*
X72700000Y-123912500D01*
X72698375Y-123945581D01*
X72693515Y-123978343D01*
X72685467Y-124010471D01*
X72674309Y-124041656D01*
X72660148Y-124071596D01*
X72643121Y-124100005D01*
X72623391Y-124126608D01*
X72601149Y-124151149D01*
X72576608Y-124173391D01*
X72550005Y-124193121D01*
X72521596Y-124210148D01*
X72491656Y-124224309D01*
X72460471Y-124235467D01*
X72428343Y-124243515D01*
X72395581Y-124248375D01*
X72362500Y-124250000D01*
X71687500Y-124250000D01*
X71654419Y-124248375D01*
X71621657Y-124243515D01*
X71589529Y-124235467D01*
X71558344Y-124224309D01*
X71528404Y-124210148D01*
X71499995Y-124193121D01*
X71473392Y-124173391D01*
X71448851Y-124151149D01*
X71426609Y-124126608D01*
X71406879Y-124100005D01*
X71389852Y-124071596D01*
X71375691Y-124041656D01*
X71364533Y-124010471D01*
X71356485Y-123978343D01*
X71351625Y-123945581D01*
X71350000Y-123912500D01*
X71350000Y-123087500D01*
X71351625Y-123054419D01*
X71356485Y-123021657D01*
X71364533Y-122989529D01*
X71375691Y-122958344D01*
X71389852Y-122928404D01*
X71406879Y-122899995D01*
X71426609Y-122873392D01*
X71448851Y-122848851D01*
X71473392Y-122826609D01*
X71499995Y-122806879D01*
X71528404Y-122789852D01*
X71558344Y-122775691D01*
X71589529Y-122764533D01*
X71621657Y-122756485D01*
X71654419Y-122751625D01*
X71687500Y-122750000D01*
X72362500Y-122750000D01*
X72395581Y-122751625D01*
X72395581Y-122751625D01*
G37*
D28*
X72025000Y-123500000D03*
D27*
G36*
X74345581Y-122751625D02*
G01*
X74378343Y-122756485D01*
X74410471Y-122764533D01*
X74441656Y-122775691D01*
X74471596Y-122789852D01*
X74500005Y-122806879D01*
X74526608Y-122826609D01*
X74551149Y-122848851D01*
X74573391Y-122873392D01*
X74593121Y-122899995D01*
X74610148Y-122928404D01*
X74624309Y-122958344D01*
X74635467Y-122989529D01*
X74643515Y-123021657D01*
X74648375Y-123054419D01*
X74650000Y-123087500D01*
X74650000Y-123912500D01*
X74648375Y-123945581D01*
X74643515Y-123978343D01*
X74635467Y-124010471D01*
X74624309Y-124041656D01*
X74610148Y-124071596D01*
X74593121Y-124100005D01*
X74573391Y-124126608D01*
X74551149Y-124151149D01*
X74526608Y-124173391D01*
X74500005Y-124193121D01*
X74471596Y-124210148D01*
X74441656Y-124224309D01*
X74410471Y-124235467D01*
X74378343Y-124243515D01*
X74345581Y-124248375D01*
X74312500Y-124250000D01*
X73637500Y-124250000D01*
X73604419Y-124248375D01*
X73571657Y-124243515D01*
X73539529Y-124235467D01*
X73508344Y-124224309D01*
X73478404Y-124210148D01*
X73449995Y-124193121D01*
X73423392Y-124173391D01*
X73398851Y-124151149D01*
X73376609Y-124126608D01*
X73356879Y-124100005D01*
X73339852Y-124071596D01*
X73325691Y-124041656D01*
X73314533Y-124010471D01*
X73306485Y-123978343D01*
X73301625Y-123945581D01*
X73300000Y-123912500D01*
X73300000Y-123087500D01*
X73301625Y-123054419D01*
X73306485Y-123021657D01*
X73314533Y-122989529D01*
X73325691Y-122958344D01*
X73339852Y-122928404D01*
X73356879Y-122899995D01*
X73376609Y-122873392D01*
X73398851Y-122848851D01*
X73423392Y-122826609D01*
X73449995Y-122806879D01*
X73478404Y-122789852D01*
X73508344Y-122775691D01*
X73539529Y-122764533D01*
X73571657Y-122756485D01*
X73604419Y-122751625D01*
X73637500Y-122750000D01*
X74312500Y-122750000D01*
X74345581Y-122751625D01*
X74345581Y-122751625D01*
G37*
D28*
X73975000Y-123500000D03*
%TD*%
D27*
%TO.C,R24*%
G36*
X88345581Y-123501625D02*
G01*
X88378343Y-123506485D01*
X88410471Y-123514533D01*
X88441656Y-123525691D01*
X88471596Y-123539852D01*
X88500005Y-123556879D01*
X88526608Y-123576609D01*
X88551149Y-123598851D01*
X88573391Y-123623392D01*
X88593121Y-123649995D01*
X88610148Y-123678404D01*
X88624309Y-123708344D01*
X88635467Y-123739529D01*
X88643515Y-123771657D01*
X88648375Y-123804419D01*
X88650000Y-123837500D01*
X88650000Y-124662500D01*
X88648375Y-124695581D01*
X88643515Y-124728343D01*
X88635467Y-124760471D01*
X88624309Y-124791656D01*
X88610148Y-124821596D01*
X88593121Y-124850005D01*
X88573391Y-124876608D01*
X88551149Y-124901149D01*
X88526608Y-124923391D01*
X88500005Y-124943121D01*
X88471596Y-124960148D01*
X88441656Y-124974309D01*
X88410471Y-124985467D01*
X88378343Y-124993515D01*
X88345581Y-124998375D01*
X88312500Y-125000000D01*
X87637500Y-125000000D01*
X87604419Y-124998375D01*
X87571657Y-124993515D01*
X87539529Y-124985467D01*
X87508344Y-124974309D01*
X87478404Y-124960148D01*
X87449995Y-124943121D01*
X87423392Y-124923391D01*
X87398851Y-124901149D01*
X87376609Y-124876608D01*
X87356879Y-124850005D01*
X87339852Y-124821596D01*
X87325691Y-124791656D01*
X87314533Y-124760471D01*
X87306485Y-124728343D01*
X87301625Y-124695581D01*
X87300000Y-124662500D01*
X87300000Y-123837500D01*
X87301625Y-123804419D01*
X87306485Y-123771657D01*
X87314533Y-123739529D01*
X87325691Y-123708344D01*
X87339852Y-123678404D01*
X87356879Y-123649995D01*
X87376609Y-123623392D01*
X87398851Y-123598851D01*
X87423392Y-123576609D01*
X87449995Y-123556879D01*
X87478404Y-123539852D01*
X87508344Y-123525691D01*
X87539529Y-123514533D01*
X87571657Y-123506485D01*
X87604419Y-123501625D01*
X87637500Y-123500000D01*
X88312500Y-123500000D01*
X88345581Y-123501625D01*
X88345581Y-123501625D01*
G37*
D28*
X87975000Y-124250000D03*
D27*
G36*
X86395581Y-123501625D02*
G01*
X86428343Y-123506485D01*
X86460471Y-123514533D01*
X86491656Y-123525691D01*
X86521596Y-123539852D01*
X86550005Y-123556879D01*
X86576608Y-123576609D01*
X86601149Y-123598851D01*
X86623391Y-123623392D01*
X86643121Y-123649995D01*
X86660148Y-123678404D01*
X86674309Y-123708344D01*
X86685467Y-123739529D01*
X86693515Y-123771657D01*
X86698375Y-123804419D01*
X86700000Y-123837500D01*
X86700000Y-124662500D01*
X86698375Y-124695581D01*
X86693515Y-124728343D01*
X86685467Y-124760471D01*
X86674309Y-124791656D01*
X86660148Y-124821596D01*
X86643121Y-124850005D01*
X86623391Y-124876608D01*
X86601149Y-124901149D01*
X86576608Y-124923391D01*
X86550005Y-124943121D01*
X86521596Y-124960148D01*
X86491656Y-124974309D01*
X86460471Y-124985467D01*
X86428343Y-124993515D01*
X86395581Y-124998375D01*
X86362500Y-125000000D01*
X85687500Y-125000000D01*
X85654419Y-124998375D01*
X85621657Y-124993515D01*
X85589529Y-124985467D01*
X85558344Y-124974309D01*
X85528404Y-124960148D01*
X85499995Y-124943121D01*
X85473392Y-124923391D01*
X85448851Y-124901149D01*
X85426609Y-124876608D01*
X85406879Y-124850005D01*
X85389852Y-124821596D01*
X85375691Y-124791656D01*
X85364533Y-124760471D01*
X85356485Y-124728343D01*
X85351625Y-124695581D01*
X85350000Y-124662500D01*
X85350000Y-123837500D01*
X85351625Y-123804419D01*
X85356485Y-123771657D01*
X85364533Y-123739529D01*
X85375691Y-123708344D01*
X85389852Y-123678404D01*
X85406879Y-123649995D01*
X85426609Y-123623392D01*
X85448851Y-123598851D01*
X85473392Y-123576609D01*
X85499995Y-123556879D01*
X85528404Y-123539852D01*
X85558344Y-123525691D01*
X85589529Y-123514533D01*
X85621657Y-123506485D01*
X85654419Y-123501625D01*
X85687500Y-123500000D01*
X86362500Y-123500000D01*
X86395581Y-123501625D01*
X86395581Y-123501625D01*
G37*
D28*
X86025000Y-124250000D03*
%TD*%
D27*
%TO.C,R23*%
G36*
X83345581Y-116501625D02*
G01*
X83378343Y-116506485D01*
X83410471Y-116514533D01*
X83441656Y-116525691D01*
X83471596Y-116539852D01*
X83500005Y-116556879D01*
X83526608Y-116576609D01*
X83551149Y-116598851D01*
X83573391Y-116623392D01*
X83593121Y-116649995D01*
X83610148Y-116678404D01*
X83624309Y-116708344D01*
X83635467Y-116739529D01*
X83643515Y-116771657D01*
X83648375Y-116804419D01*
X83650000Y-116837500D01*
X83650000Y-117662500D01*
X83648375Y-117695581D01*
X83643515Y-117728343D01*
X83635467Y-117760471D01*
X83624309Y-117791656D01*
X83610148Y-117821596D01*
X83593121Y-117850005D01*
X83573391Y-117876608D01*
X83551149Y-117901149D01*
X83526608Y-117923391D01*
X83500005Y-117943121D01*
X83471596Y-117960148D01*
X83441656Y-117974309D01*
X83410471Y-117985467D01*
X83378343Y-117993515D01*
X83345581Y-117998375D01*
X83312500Y-118000000D01*
X82637500Y-118000000D01*
X82604419Y-117998375D01*
X82571657Y-117993515D01*
X82539529Y-117985467D01*
X82508344Y-117974309D01*
X82478404Y-117960148D01*
X82449995Y-117943121D01*
X82423392Y-117923391D01*
X82398851Y-117901149D01*
X82376609Y-117876608D01*
X82356879Y-117850005D01*
X82339852Y-117821596D01*
X82325691Y-117791656D01*
X82314533Y-117760471D01*
X82306485Y-117728343D01*
X82301625Y-117695581D01*
X82300000Y-117662500D01*
X82300000Y-116837500D01*
X82301625Y-116804419D01*
X82306485Y-116771657D01*
X82314533Y-116739529D01*
X82325691Y-116708344D01*
X82339852Y-116678404D01*
X82356879Y-116649995D01*
X82376609Y-116623392D01*
X82398851Y-116598851D01*
X82423392Y-116576609D01*
X82449995Y-116556879D01*
X82478404Y-116539852D01*
X82508344Y-116525691D01*
X82539529Y-116514533D01*
X82571657Y-116506485D01*
X82604419Y-116501625D01*
X82637500Y-116500000D01*
X83312500Y-116500000D01*
X83345581Y-116501625D01*
X83345581Y-116501625D01*
G37*
D28*
X82975000Y-117250000D03*
D27*
G36*
X81395581Y-116501625D02*
G01*
X81428343Y-116506485D01*
X81460471Y-116514533D01*
X81491656Y-116525691D01*
X81521596Y-116539852D01*
X81550005Y-116556879D01*
X81576608Y-116576609D01*
X81601149Y-116598851D01*
X81623391Y-116623392D01*
X81643121Y-116649995D01*
X81660148Y-116678404D01*
X81674309Y-116708344D01*
X81685467Y-116739529D01*
X81693515Y-116771657D01*
X81698375Y-116804419D01*
X81700000Y-116837500D01*
X81700000Y-117662500D01*
X81698375Y-117695581D01*
X81693515Y-117728343D01*
X81685467Y-117760471D01*
X81674309Y-117791656D01*
X81660148Y-117821596D01*
X81643121Y-117850005D01*
X81623391Y-117876608D01*
X81601149Y-117901149D01*
X81576608Y-117923391D01*
X81550005Y-117943121D01*
X81521596Y-117960148D01*
X81491656Y-117974309D01*
X81460471Y-117985467D01*
X81428343Y-117993515D01*
X81395581Y-117998375D01*
X81362500Y-118000000D01*
X80687500Y-118000000D01*
X80654419Y-117998375D01*
X80621657Y-117993515D01*
X80589529Y-117985467D01*
X80558344Y-117974309D01*
X80528404Y-117960148D01*
X80499995Y-117943121D01*
X80473392Y-117923391D01*
X80448851Y-117901149D01*
X80426609Y-117876608D01*
X80406879Y-117850005D01*
X80389852Y-117821596D01*
X80375691Y-117791656D01*
X80364533Y-117760471D01*
X80356485Y-117728343D01*
X80351625Y-117695581D01*
X80350000Y-117662500D01*
X80350000Y-116837500D01*
X80351625Y-116804419D01*
X80356485Y-116771657D01*
X80364533Y-116739529D01*
X80375691Y-116708344D01*
X80389852Y-116678404D01*
X80406879Y-116649995D01*
X80426609Y-116623392D01*
X80448851Y-116598851D01*
X80473392Y-116576609D01*
X80499995Y-116556879D01*
X80528404Y-116539852D01*
X80558344Y-116525691D01*
X80589529Y-116514533D01*
X80621657Y-116506485D01*
X80654419Y-116501625D01*
X80687500Y-116500000D01*
X81362500Y-116500000D01*
X81395581Y-116501625D01*
X81395581Y-116501625D01*
G37*
D28*
X81025000Y-117250000D03*
%TD*%
D27*
%TO.C,R22*%
G36*
X88345581Y-121001625D02*
G01*
X88378343Y-121006485D01*
X88410471Y-121014533D01*
X88441656Y-121025691D01*
X88471596Y-121039852D01*
X88500005Y-121056879D01*
X88526608Y-121076609D01*
X88551149Y-121098851D01*
X88573391Y-121123392D01*
X88593121Y-121149995D01*
X88610148Y-121178404D01*
X88624309Y-121208344D01*
X88635467Y-121239529D01*
X88643515Y-121271657D01*
X88648375Y-121304419D01*
X88650000Y-121337500D01*
X88650000Y-122162500D01*
X88648375Y-122195581D01*
X88643515Y-122228343D01*
X88635467Y-122260471D01*
X88624309Y-122291656D01*
X88610148Y-122321596D01*
X88593121Y-122350005D01*
X88573391Y-122376608D01*
X88551149Y-122401149D01*
X88526608Y-122423391D01*
X88500005Y-122443121D01*
X88471596Y-122460148D01*
X88441656Y-122474309D01*
X88410471Y-122485467D01*
X88378343Y-122493515D01*
X88345581Y-122498375D01*
X88312500Y-122500000D01*
X87637500Y-122500000D01*
X87604419Y-122498375D01*
X87571657Y-122493515D01*
X87539529Y-122485467D01*
X87508344Y-122474309D01*
X87478404Y-122460148D01*
X87449995Y-122443121D01*
X87423392Y-122423391D01*
X87398851Y-122401149D01*
X87376609Y-122376608D01*
X87356879Y-122350005D01*
X87339852Y-122321596D01*
X87325691Y-122291656D01*
X87314533Y-122260471D01*
X87306485Y-122228343D01*
X87301625Y-122195581D01*
X87300000Y-122162500D01*
X87300000Y-121337500D01*
X87301625Y-121304419D01*
X87306485Y-121271657D01*
X87314533Y-121239529D01*
X87325691Y-121208344D01*
X87339852Y-121178404D01*
X87356879Y-121149995D01*
X87376609Y-121123392D01*
X87398851Y-121098851D01*
X87423392Y-121076609D01*
X87449995Y-121056879D01*
X87478404Y-121039852D01*
X87508344Y-121025691D01*
X87539529Y-121014533D01*
X87571657Y-121006485D01*
X87604419Y-121001625D01*
X87637500Y-121000000D01*
X88312500Y-121000000D01*
X88345581Y-121001625D01*
X88345581Y-121001625D01*
G37*
D28*
X87975000Y-121750000D03*
D27*
G36*
X86395581Y-121001625D02*
G01*
X86428343Y-121006485D01*
X86460471Y-121014533D01*
X86491656Y-121025691D01*
X86521596Y-121039852D01*
X86550005Y-121056879D01*
X86576608Y-121076609D01*
X86601149Y-121098851D01*
X86623391Y-121123392D01*
X86643121Y-121149995D01*
X86660148Y-121178404D01*
X86674309Y-121208344D01*
X86685467Y-121239529D01*
X86693515Y-121271657D01*
X86698375Y-121304419D01*
X86700000Y-121337500D01*
X86700000Y-122162500D01*
X86698375Y-122195581D01*
X86693515Y-122228343D01*
X86685467Y-122260471D01*
X86674309Y-122291656D01*
X86660148Y-122321596D01*
X86643121Y-122350005D01*
X86623391Y-122376608D01*
X86601149Y-122401149D01*
X86576608Y-122423391D01*
X86550005Y-122443121D01*
X86521596Y-122460148D01*
X86491656Y-122474309D01*
X86460471Y-122485467D01*
X86428343Y-122493515D01*
X86395581Y-122498375D01*
X86362500Y-122500000D01*
X85687500Y-122500000D01*
X85654419Y-122498375D01*
X85621657Y-122493515D01*
X85589529Y-122485467D01*
X85558344Y-122474309D01*
X85528404Y-122460148D01*
X85499995Y-122443121D01*
X85473392Y-122423391D01*
X85448851Y-122401149D01*
X85426609Y-122376608D01*
X85406879Y-122350005D01*
X85389852Y-122321596D01*
X85375691Y-122291656D01*
X85364533Y-122260471D01*
X85356485Y-122228343D01*
X85351625Y-122195581D01*
X85350000Y-122162500D01*
X85350000Y-121337500D01*
X85351625Y-121304419D01*
X85356485Y-121271657D01*
X85364533Y-121239529D01*
X85375691Y-121208344D01*
X85389852Y-121178404D01*
X85406879Y-121149995D01*
X85426609Y-121123392D01*
X85448851Y-121098851D01*
X85473392Y-121076609D01*
X85499995Y-121056879D01*
X85528404Y-121039852D01*
X85558344Y-121025691D01*
X85589529Y-121014533D01*
X85621657Y-121006485D01*
X85654419Y-121001625D01*
X85687500Y-121000000D01*
X86362500Y-121000000D01*
X86395581Y-121001625D01*
X86395581Y-121001625D01*
G37*
D28*
X86025000Y-121750000D03*
%TD*%
D27*
%TO.C,R21*%
G36*
X76895581Y-116501625D02*
G01*
X76928343Y-116506485D01*
X76960471Y-116514533D01*
X76991656Y-116525691D01*
X77021596Y-116539852D01*
X77050005Y-116556879D01*
X77076608Y-116576609D01*
X77101149Y-116598851D01*
X77123391Y-116623392D01*
X77143121Y-116649995D01*
X77160148Y-116678404D01*
X77174309Y-116708344D01*
X77185467Y-116739529D01*
X77193515Y-116771657D01*
X77198375Y-116804419D01*
X77200000Y-116837500D01*
X77200000Y-117662500D01*
X77198375Y-117695581D01*
X77193515Y-117728343D01*
X77185467Y-117760471D01*
X77174309Y-117791656D01*
X77160148Y-117821596D01*
X77143121Y-117850005D01*
X77123391Y-117876608D01*
X77101149Y-117901149D01*
X77076608Y-117923391D01*
X77050005Y-117943121D01*
X77021596Y-117960148D01*
X76991656Y-117974309D01*
X76960471Y-117985467D01*
X76928343Y-117993515D01*
X76895581Y-117998375D01*
X76862500Y-118000000D01*
X76187500Y-118000000D01*
X76154419Y-117998375D01*
X76121657Y-117993515D01*
X76089529Y-117985467D01*
X76058344Y-117974309D01*
X76028404Y-117960148D01*
X75999995Y-117943121D01*
X75973392Y-117923391D01*
X75948851Y-117901149D01*
X75926609Y-117876608D01*
X75906879Y-117850005D01*
X75889852Y-117821596D01*
X75875691Y-117791656D01*
X75864533Y-117760471D01*
X75856485Y-117728343D01*
X75851625Y-117695581D01*
X75850000Y-117662500D01*
X75850000Y-116837500D01*
X75851625Y-116804419D01*
X75856485Y-116771657D01*
X75864533Y-116739529D01*
X75875691Y-116708344D01*
X75889852Y-116678404D01*
X75906879Y-116649995D01*
X75926609Y-116623392D01*
X75948851Y-116598851D01*
X75973392Y-116576609D01*
X75999995Y-116556879D01*
X76028404Y-116539852D01*
X76058344Y-116525691D01*
X76089529Y-116514533D01*
X76121657Y-116506485D01*
X76154419Y-116501625D01*
X76187500Y-116500000D01*
X76862500Y-116500000D01*
X76895581Y-116501625D01*
X76895581Y-116501625D01*
G37*
D28*
X76525000Y-117250000D03*
D27*
G36*
X78845581Y-116501625D02*
G01*
X78878343Y-116506485D01*
X78910471Y-116514533D01*
X78941656Y-116525691D01*
X78971596Y-116539852D01*
X79000005Y-116556879D01*
X79026608Y-116576609D01*
X79051149Y-116598851D01*
X79073391Y-116623392D01*
X79093121Y-116649995D01*
X79110148Y-116678404D01*
X79124309Y-116708344D01*
X79135467Y-116739529D01*
X79143515Y-116771657D01*
X79148375Y-116804419D01*
X79150000Y-116837500D01*
X79150000Y-117662500D01*
X79148375Y-117695581D01*
X79143515Y-117728343D01*
X79135467Y-117760471D01*
X79124309Y-117791656D01*
X79110148Y-117821596D01*
X79093121Y-117850005D01*
X79073391Y-117876608D01*
X79051149Y-117901149D01*
X79026608Y-117923391D01*
X79000005Y-117943121D01*
X78971596Y-117960148D01*
X78941656Y-117974309D01*
X78910471Y-117985467D01*
X78878343Y-117993515D01*
X78845581Y-117998375D01*
X78812500Y-118000000D01*
X78137500Y-118000000D01*
X78104419Y-117998375D01*
X78071657Y-117993515D01*
X78039529Y-117985467D01*
X78008344Y-117974309D01*
X77978404Y-117960148D01*
X77949995Y-117943121D01*
X77923392Y-117923391D01*
X77898851Y-117901149D01*
X77876609Y-117876608D01*
X77856879Y-117850005D01*
X77839852Y-117821596D01*
X77825691Y-117791656D01*
X77814533Y-117760471D01*
X77806485Y-117728343D01*
X77801625Y-117695581D01*
X77800000Y-117662500D01*
X77800000Y-116837500D01*
X77801625Y-116804419D01*
X77806485Y-116771657D01*
X77814533Y-116739529D01*
X77825691Y-116708344D01*
X77839852Y-116678404D01*
X77856879Y-116649995D01*
X77876609Y-116623392D01*
X77898851Y-116598851D01*
X77923392Y-116576609D01*
X77949995Y-116556879D01*
X77978404Y-116539852D01*
X78008344Y-116525691D01*
X78039529Y-116514533D01*
X78071657Y-116506485D01*
X78104419Y-116501625D01*
X78137500Y-116500000D01*
X78812500Y-116500000D01*
X78845581Y-116501625D01*
X78845581Y-116501625D01*
G37*
D28*
X78475000Y-117250000D03*
%TD*%
D27*
%TO.C,R20*%
G36*
X72395581Y-120251625D02*
G01*
X72428343Y-120256485D01*
X72460471Y-120264533D01*
X72491656Y-120275691D01*
X72521596Y-120289852D01*
X72550005Y-120306879D01*
X72576608Y-120326609D01*
X72601149Y-120348851D01*
X72623391Y-120373392D01*
X72643121Y-120399995D01*
X72660148Y-120428404D01*
X72674309Y-120458344D01*
X72685467Y-120489529D01*
X72693515Y-120521657D01*
X72698375Y-120554419D01*
X72700000Y-120587500D01*
X72700000Y-121412500D01*
X72698375Y-121445581D01*
X72693515Y-121478343D01*
X72685467Y-121510471D01*
X72674309Y-121541656D01*
X72660148Y-121571596D01*
X72643121Y-121600005D01*
X72623391Y-121626608D01*
X72601149Y-121651149D01*
X72576608Y-121673391D01*
X72550005Y-121693121D01*
X72521596Y-121710148D01*
X72491656Y-121724309D01*
X72460471Y-121735467D01*
X72428343Y-121743515D01*
X72395581Y-121748375D01*
X72362500Y-121750000D01*
X71687500Y-121750000D01*
X71654419Y-121748375D01*
X71621657Y-121743515D01*
X71589529Y-121735467D01*
X71558344Y-121724309D01*
X71528404Y-121710148D01*
X71499995Y-121693121D01*
X71473392Y-121673391D01*
X71448851Y-121651149D01*
X71426609Y-121626608D01*
X71406879Y-121600005D01*
X71389852Y-121571596D01*
X71375691Y-121541656D01*
X71364533Y-121510471D01*
X71356485Y-121478343D01*
X71351625Y-121445581D01*
X71350000Y-121412500D01*
X71350000Y-120587500D01*
X71351625Y-120554419D01*
X71356485Y-120521657D01*
X71364533Y-120489529D01*
X71375691Y-120458344D01*
X71389852Y-120428404D01*
X71406879Y-120399995D01*
X71426609Y-120373392D01*
X71448851Y-120348851D01*
X71473392Y-120326609D01*
X71499995Y-120306879D01*
X71528404Y-120289852D01*
X71558344Y-120275691D01*
X71589529Y-120264533D01*
X71621657Y-120256485D01*
X71654419Y-120251625D01*
X71687500Y-120250000D01*
X72362500Y-120250000D01*
X72395581Y-120251625D01*
X72395581Y-120251625D01*
G37*
D28*
X72025000Y-121000000D03*
D27*
G36*
X74345581Y-120251625D02*
G01*
X74378343Y-120256485D01*
X74410471Y-120264533D01*
X74441656Y-120275691D01*
X74471596Y-120289852D01*
X74500005Y-120306879D01*
X74526608Y-120326609D01*
X74551149Y-120348851D01*
X74573391Y-120373392D01*
X74593121Y-120399995D01*
X74610148Y-120428404D01*
X74624309Y-120458344D01*
X74635467Y-120489529D01*
X74643515Y-120521657D01*
X74648375Y-120554419D01*
X74650000Y-120587500D01*
X74650000Y-121412500D01*
X74648375Y-121445581D01*
X74643515Y-121478343D01*
X74635467Y-121510471D01*
X74624309Y-121541656D01*
X74610148Y-121571596D01*
X74593121Y-121600005D01*
X74573391Y-121626608D01*
X74551149Y-121651149D01*
X74526608Y-121673391D01*
X74500005Y-121693121D01*
X74471596Y-121710148D01*
X74441656Y-121724309D01*
X74410471Y-121735467D01*
X74378343Y-121743515D01*
X74345581Y-121748375D01*
X74312500Y-121750000D01*
X73637500Y-121750000D01*
X73604419Y-121748375D01*
X73571657Y-121743515D01*
X73539529Y-121735467D01*
X73508344Y-121724309D01*
X73478404Y-121710148D01*
X73449995Y-121693121D01*
X73423392Y-121673391D01*
X73398851Y-121651149D01*
X73376609Y-121626608D01*
X73356879Y-121600005D01*
X73339852Y-121571596D01*
X73325691Y-121541656D01*
X73314533Y-121510471D01*
X73306485Y-121478343D01*
X73301625Y-121445581D01*
X73300000Y-121412500D01*
X73300000Y-120587500D01*
X73301625Y-120554419D01*
X73306485Y-120521657D01*
X73314533Y-120489529D01*
X73325691Y-120458344D01*
X73339852Y-120428404D01*
X73356879Y-120399995D01*
X73376609Y-120373392D01*
X73398851Y-120348851D01*
X73423392Y-120326609D01*
X73449995Y-120306879D01*
X73478404Y-120289852D01*
X73508344Y-120275691D01*
X73539529Y-120264533D01*
X73571657Y-120256485D01*
X73604419Y-120251625D01*
X73637500Y-120250000D01*
X74312500Y-120250000D01*
X74345581Y-120251625D01*
X74345581Y-120251625D01*
G37*
D28*
X73975000Y-121000000D03*
%TD*%
D27*
%TO.C,R19*%
G36*
X98645581Y-119251625D02*
G01*
X98678343Y-119256485D01*
X98710471Y-119264533D01*
X98741656Y-119275691D01*
X98771596Y-119289852D01*
X98800005Y-119306879D01*
X98826608Y-119326609D01*
X98851149Y-119348851D01*
X98873391Y-119373392D01*
X98893121Y-119399995D01*
X98910148Y-119428404D01*
X98924309Y-119458344D01*
X98935467Y-119489529D01*
X98943515Y-119521657D01*
X98948375Y-119554419D01*
X98950000Y-119587500D01*
X98950000Y-120412500D01*
X98948375Y-120445581D01*
X98943515Y-120478343D01*
X98935467Y-120510471D01*
X98924309Y-120541656D01*
X98910148Y-120571596D01*
X98893121Y-120600005D01*
X98873391Y-120626608D01*
X98851149Y-120651149D01*
X98826608Y-120673391D01*
X98800005Y-120693121D01*
X98771596Y-120710148D01*
X98741656Y-120724309D01*
X98710471Y-120735467D01*
X98678343Y-120743515D01*
X98645581Y-120748375D01*
X98612500Y-120750000D01*
X97937500Y-120750000D01*
X97904419Y-120748375D01*
X97871657Y-120743515D01*
X97839529Y-120735467D01*
X97808344Y-120724309D01*
X97778404Y-120710148D01*
X97749995Y-120693121D01*
X97723392Y-120673391D01*
X97698851Y-120651149D01*
X97676609Y-120626608D01*
X97656879Y-120600005D01*
X97639852Y-120571596D01*
X97625691Y-120541656D01*
X97614533Y-120510471D01*
X97606485Y-120478343D01*
X97601625Y-120445581D01*
X97600000Y-120412500D01*
X97600000Y-119587500D01*
X97601625Y-119554419D01*
X97606485Y-119521657D01*
X97614533Y-119489529D01*
X97625691Y-119458344D01*
X97639852Y-119428404D01*
X97656879Y-119399995D01*
X97676609Y-119373392D01*
X97698851Y-119348851D01*
X97723392Y-119326609D01*
X97749995Y-119306879D01*
X97778404Y-119289852D01*
X97808344Y-119275691D01*
X97839529Y-119264533D01*
X97871657Y-119256485D01*
X97904419Y-119251625D01*
X97937500Y-119250000D01*
X98612500Y-119250000D01*
X98645581Y-119251625D01*
X98645581Y-119251625D01*
G37*
D28*
X98275000Y-120000000D03*
D27*
G36*
X100595581Y-119251625D02*
G01*
X100628343Y-119256485D01*
X100660471Y-119264533D01*
X100691656Y-119275691D01*
X100721596Y-119289852D01*
X100750005Y-119306879D01*
X100776608Y-119326609D01*
X100801149Y-119348851D01*
X100823391Y-119373392D01*
X100843121Y-119399995D01*
X100860148Y-119428404D01*
X100874309Y-119458344D01*
X100885467Y-119489529D01*
X100893515Y-119521657D01*
X100898375Y-119554419D01*
X100900000Y-119587500D01*
X100900000Y-120412500D01*
X100898375Y-120445581D01*
X100893515Y-120478343D01*
X100885467Y-120510471D01*
X100874309Y-120541656D01*
X100860148Y-120571596D01*
X100843121Y-120600005D01*
X100823391Y-120626608D01*
X100801149Y-120651149D01*
X100776608Y-120673391D01*
X100750005Y-120693121D01*
X100721596Y-120710148D01*
X100691656Y-120724309D01*
X100660471Y-120735467D01*
X100628343Y-120743515D01*
X100595581Y-120748375D01*
X100562500Y-120750000D01*
X99887500Y-120750000D01*
X99854419Y-120748375D01*
X99821657Y-120743515D01*
X99789529Y-120735467D01*
X99758344Y-120724309D01*
X99728404Y-120710148D01*
X99699995Y-120693121D01*
X99673392Y-120673391D01*
X99648851Y-120651149D01*
X99626609Y-120626608D01*
X99606879Y-120600005D01*
X99589852Y-120571596D01*
X99575691Y-120541656D01*
X99564533Y-120510471D01*
X99556485Y-120478343D01*
X99551625Y-120445581D01*
X99550000Y-120412500D01*
X99550000Y-119587500D01*
X99551625Y-119554419D01*
X99556485Y-119521657D01*
X99564533Y-119489529D01*
X99575691Y-119458344D01*
X99589852Y-119428404D01*
X99606879Y-119399995D01*
X99626609Y-119373392D01*
X99648851Y-119348851D01*
X99673392Y-119326609D01*
X99699995Y-119306879D01*
X99728404Y-119289852D01*
X99758344Y-119275691D01*
X99789529Y-119264533D01*
X99821657Y-119256485D01*
X99854419Y-119251625D01*
X99887500Y-119250000D01*
X100562500Y-119250000D01*
X100595581Y-119251625D01*
X100595581Y-119251625D01*
G37*
D28*
X100225000Y-120000000D03*
%TD*%
D27*
%TO.C,R18*%
G36*
X98645581Y-121751625D02*
G01*
X98678343Y-121756485D01*
X98710471Y-121764533D01*
X98741656Y-121775691D01*
X98771596Y-121789852D01*
X98800005Y-121806879D01*
X98826608Y-121826609D01*
X98851149Y-121848851D01*
X98873391Y-121873392D01*
X98893121Y-121899995D01*
X98910148Y-121928404D01*
X98924309Y-121958344D01*
X98935467Y-121989529D01*
X98943515Y-122021657D01*
X98948375Y-122054419D01*
X98950000Y-122087500D01*
X98950000Y-122912500D01*
X98948375Y-122945581D01*
X98943515Y-122978343D01*
X98935467Y-123010471D01*
X98924309Y-123041656D01*
X98910148Y-123071596D01*
X98893121Y-123100005D01*
X98873391Y-123126608D01*
X98851149Y-123151149D01*
X98826608Y-123173391D01*
X98800005Y-123193121D01*
X98771596Y-123210148D01*
X98741656Y-123224309D01*
X98710471Y-123235467D01*
X98678343Y-123243515D01*
X98645581Y-123248375D01*
X98612500Y-123250000D01*
X97937500Y-123250000D01*
X97904419Y-123248375D01*
X97871657Y-123243515D01*
X97839529Y-123235467D01*
X97808344Y-123224309D01*
X97778404Y-123210148D01*
X97749995Y-123193121D01*
X97723392Y-123173391D01*
X97698851Y-123151149D01*
X97676609Y-123126608D01*
X97656879Y-123100005D01*
X97639852Y-123071596D01*
X97625691Y-123041656D01*
X97614533Y-123010471D01*
X97606485Y-122978343D01*
X97601625Y-122945581D01*
X97600000Y-122912500D01*
X97600000Y-122087500D01*
X97601625Y-122054419D01*
X97606485Y-122021657D01*
X97614533Y-121989529D01*
X97625691Y-121958344D01*
X97639852Y-121928404D01*
X97656879Y-121899995D01*
X97676609Y-121873392D01*
X97698851Y-121848851D01*
X97723392Y-121826609D01*
X97749995Y-121806879D01*
X97778404Y-121789852D01*
X97808344Y-121775691D01*
X97839529Y-121764533D01*
X97871657Y-121756485D01*
X97904419Y-121751625D01*
X97937500Y-121750000D01*
X98612500Y-121750000D01*
X98645581Y-121751625D01*
X98645581Y-121751625D01*
G37*
D28*
X98275000Y-122500000D03*
D27*
G36*
X100595581Y-121751625D02*
G01*
X100628343Y-121756485D01*
X100660471Y-121764533D01*
X100691656Y-121775691D01*
X100721596Y-121789852D01*
X100750005Y-121806879D01*
X100776608Y-121826609D01*
X100801149Y-121848851D01*
X100823391Y-121873392D01*
X100843121Y-121899995D01*
X100860148Y-121928404D01*
X100874309Y-121958344D01*
X100885467Y-121989529D01*
X100893515Y-122021657D01*
X100898375Y-122054419D01*
X100900000Y-122087500D01*
X100900000Y-122912500D01*
X100898375Y-122945581D01*
X100893515Y-122978343D01*
X100885467Y-123010471D01*
X100874309Y-123041656D01*
X100860148Y-123071596D01*
X100843121Y-123100005D01*
X100823391Y-123126608D01*
X100801149Y-123151149D01*
X100776608Y-123173391D01*
X100750005Y-123193121D01*
X100721596Y-123210148D01*
X100691656Y-123224309D01*
X100660471Y-123235467D01*
X100628343Y-123243515D01*
X100595581Y-123248375D01*
X100562500Y-123250000D01*
X99887500Y-123250000D01*
X99854419Y-123248375D01*
X99821657Y-123243515D01*
X99789529Y-123235467D01*
X99758344Y-123224309D01*
X99728404Y-123210148D01*
X99699995Y-123193121D01*
X99673392Y-123173391D01*
X99648851Y-123151149D01*
X99626609Y-123126608D01*
X99606879Y-123100005D01*
X99589852Y-123071596D01*
X99575691Y-123041656D01*
X99564533Y-123010471D01*
X99556485Y-122978343D01*
X99551625Y-122945581D01*
X99550000Y-122912500D01*
X99550000Y-122087500D01*
X99551625Y-122054419D01*
X99556485Y-122021657D01*
X99564533Y-121989529D01*
X99575691Y-121958344D01*
X99589852Y-121928404D01*
X99606879Y-121899995D01*
X99626609Y-121873392D01*
X99648851Y-121848851D01*
X99673392Y-121826609D01*
X99699995Y-121806879D01*
X99728404Y-121789852D01*
X99758344Y-121775691D01*
X99789529Y-121764533D01*
X99821657Y-121756485D01*
X99854419Y-121751625D01*
X99887500Y-121750000D01*
X100562500Y-121750000D01*
X100595581Y-121751625D01*
X100595581Y-121751625D01*
G37*
D28*
X100225000Y-122500000D03*
%TD*%
D27*
%TO.C,R17*%
G36*
X98645581Y-124251625D02*
G01*
X98678343Y-124256485D01*
X98710471Y-124264533D01*
X98741656Y-124275691D01*
X98771596Y-124289852D01*
X98800005Y-124306879D01*
X98826608Y-124326609D01*
X98851149Y-124348851D01*
X98873391Y-124373392D01*
X98893121Y-124399995D01*
X98910148Y-124428404D01*
X98924309Y-124458344D01*
X98935467Y-124489529D01*
X98943515Y-124521657D01*
X98948375Y-124554419D01*
X98950000Y-124587500D01*
X98950000Y-125412500D01*
X98948375Y-125445581D01*
X98943515Y-125478343D01*
X98935467Y-125510471D01*
X98924309Y-125541656D01*
X98910148Y-125571596D01*
X98893121Y-125600005D01*
X98873391Y-125626608D01*
X98851149Y-125651149D01*
X98826608Y-125673391D01*
X98800005Y-125693121D01*
X98771596Y-125710148D01*
X98741656Y-125724309D01*
X98710471Y-125735467D01*
X98678343Y-125743515D01*
X98645581Y-125748375D01*
X98612500Y-125750000D01*
X97937500Y-125750000D01*
X97904419Y-125748375D01*
X97871657Y-125743515D01*
X97839529Y-125735467D01*
X97808344Y-125724309D01*
X97778404Y-125710148D01*
X97749995Y-125693121D01*
X97723392Y-125673391D01*
X97698851Y-125651149D01*
X97676609Y-125626608D01*
X97656879Y-125600005D01*
X97639852Y-125571596D01*
X97625691Y-125541656D01*
X97614533Y-125510471D01*
X97606485Y-125478343D01*
X97601625Y-125445581D01*
X97600000Y-125412500D01*
X97600000Y-124587500D01*
X97601625Y-124554419D01*
X97606485Y-124521657D01*
X97614533Y-124489529D01*
X97625691Y-124458344D01*
X97639852Y-124428404D01*
X97656879Y-124399995D01*
X97676609Y-124373392D01*
X97698851Y-124348851D01*
X97723392Y-124326609D01*
X97749995Y-124306879D01*
X97778404Y-124289852D01*
X97808344Y-124275691D01*
X97839529Y-124264533D01*
X97871657Y-124256485D01*
X97904419Y-124251625D01*
X97937500Y-124250000D01*
X98612500Y-124250000D01*
X98645581Y-124251625D01*
X98645581Y-124251625D01*
G37*
D28*
X98275000Y-125000000D03*
D27*
G36*
X100595581Y-124251625D02*
G01*
X100628343Y-124256485D01*
X100660471Y-124264533D01*
X100691656Y-124275691D01*
X100721596Y-124289852D01*
X100750005Y-124306879D01*
X100776608Y-124326609D01*
X100801149Y-124348851D01*
X100823391Y-124373392D01*
X100843121Y-124399995D01*
X100860148Y-124428404D01*
X100874309Y-124458344D01*
X100885467Y-124489529D01*
X100893515Y-124521657D01*
X100898375Y-124554419D01*
X100900000Y-124587500D01*
X100900000Y-125412500D01*
X100898375Y-125445581D01*
X100893515Y-125478343D01*
X100885467Y-125510471D01*
X100874309Y-125541656D01*
X100860148Y-125571596D01*
X100843121Y-125600005D01*
X100823391Y-125626608D01*
X100801149Y-125651149D01*
X100776608Y-125673391D01*
X100750005Y-125693121D01*
X100721596Y-125710148D01*
X100691656Y-125724309D01*
X100660471Y-125735467D01*
X100628343Y-125743515D01*
X100595581Y-125748375D01*
X100562500Y-125750000D01*
X99887500Y-125750000D01*
X99854419Y-125748375D01*
X99821657Y-125743515D01*
X99789529Y-125735467D01*
X99758344Y-125724309D01*
X99728404Y-125710148D01*
X99699995Y-125693121D01*
X99673392Y-125673391D01*
X99648851Y-125651149D01*
X99626609Y-125626608D01*
X99606879Y-125600005D01*
X99589852Y-125571596D01*
X99575691Y-125541656D01*
X99564533Y-125510471D01*
X99556485Y-125478343D01*
X99551625Y-125445581D01*
X99550000Y-125412500D01*
X99550000Y-124587500D01*
X99551625Y-124554419D01*
X99556485Y-124521657D01*
X99564533Y-124489529D01*
X99575691Y-124458344D01*
X99589852Y-124428404D01*
X99606879Y-124399995D01*
X99626609Y-124373392D01*
X99648851Y-124348851D01*
X99673392Y-124326609D01*
X99699995Y-124306879D01*
X99728404Y-124289852D01*
X99758344Y-124275691D01*
X99789529Y-124264533D01*
X99821657Y-124256485D01*
X99854419Y-124251625D01*
X99887500Y-124250000D01*
X100562500Y-124250000D01*
X100595581Y-124251625D01*
X100595581Y-124251625D01*
G37*
D28*
X100225000Y-125000000D03*
%TD*%
D27*
%TO.C,R16*%
G36*
X96595581Y-124251625D02*
G01*
X96628343Y-124256485D01*
X96660471Y-124264533D01*
X96691656Y-124275691D01*
X96721596Y-124289852D01*
X96750005Y-124306879D01*
X96776608Y-124326609D01*
X96801149Y-124348851D01*
X96823391Y-124373392D01*
X96843121Y-124399995D01*
X96860148Y-124428404D01*
X96874309Y-124458344D01*
X96885467Y-124489529D01*
X96893515Y-124521657D01*
X96898375Y-124554419D01*
X96900000Y-124587500D01*
X96900000Y-125412500D01*
X96898375Y-125445581D01*
X96893515Y-125478343D01*
X96885467Y-125510471D01*
X96874309Y-125541656D01*
X96860148Y-125571596D01*
X96843121Y-125600005D01*
X96823391Y-125626608D01*
X96801149Y-125651149D01*
X96776608Y-125673391D01*
X96750005Y-125693121D01*
X96721596Y-125710148D01*
X96691656Y-125724309D01*
X96660471Y-125735467D01*
X96628343Y-125743515D01*
X96595581Y-125748375D01*
X96562500Y-125750000D01*
X95887500Y-125750000D01*
X95854419Y-125748375D01*
X95821657Y-125743515D01*
X95789529Y-125735467D01*
X95758344Y-125724309D01*
X95728404Y-125710148D01*
X95699995Y-125693121D01*
X95673392Y-125673391D01*
X95648851Y-125651149D01*
X95626609Y-125626608D01*
X95606879Y-125600005D01*
X95589852Y-125571596D01*
X95575691Y-125541656D01*
X95564533Y-125510471D01*
X95556485Y-125478343D01*
X95551625Y-125445581D01*
X95550000Y-125412500D01*
X95550000Y-124587500D01*
X95551625Y-124554419D01*
X95556485Y-124521657D01*
X95564533Y-124489529D01*
X95575691Y-124458344D01*
X95589852Y-124428404D01*
X95606879Y-124399995D01*
X95626609Y-124373392D01*
X95648851Y-124348851D01*
X95673392Y-124326609D01*
X95699995Y-124306879D01*
X95728404Y-124289852D01*
X95758344Y-124275691D01*
X95789529Y-124264533D01*
X95821657Y-124256485D01*
X95854419Y-124251625D01*
X95887500Y-124250000D01*
X96562500Y-124250000D01*
X96595581Y-124251625D01*
X96595581Y-124251625D01*
G37*
D28*
X96225000Y-125000000D03*
D27*
G36*
X94645581Y-124251625D02*
G01*
X94678343Y-124256485D01*
X94710471Y-124264533D01*
X94741656Y-124275691D01*
X94771596Y-124289852D01*
X94800005Y-124306879D01*
X94826608Y-124326609D01*
X94851149Y-124348851D01*
X94873391Y-124373392D01*
X94893121Y-124399995D01*
X94910148Y-124428404D01*
X94924309Y-124458344D01*
X94935467Y-124489529D01*
X94943515Y-124521657D01*
X94948375Y-124554419D01*
X94950000Y-124587500D01*
X94950000Y-125412500D01*
X94948375Y-125445581D01*
X94943515Y-125478343D01*
X94935467Y-125510471D01*
X94924309Y-125541656D01*
X94910148Y-125571596D01*
X94893121Y-125600005D01*
X94873391Y-125626608D01*
X94851149Y-125651149D01*
X94826608Y-125673391D01*
X94800005Y-125693121D01*
X94771596Y-125710148D01*
X94741656Y-125724309D01*
X94710471Y-125735467D01*
X94678343Y-125743515D01*
X94645581Y-125748375D01*
X94612500Y-125750000D01*
X93937500Y-125750000D01*
X93904419Y-125748375D01*
X93871657Y-125743515D01*
X93839529Y-125735467D01*
X93808344Y-125724309D01*
X93778404Y-125710148D01*
X93749995Y-125693121D01*
X93723392Y-125673391D01*
X93698851Y-125651149D01*
X93676609Y-125626608D01*
X93656879Y-125600005D01*
X93639852Y-125571596D01*
X93625691Y-125541656D01*
X93614533Y-125510471D01*
X93606485Y-125478343D01*
X93601625Y-125445581D01*
X93600000Y-125412500D01*
X93600000Y-124587500D01*
X93601625Y-124554419D01*
X93606485Y-124521657D01*
X93614533Y-124489529D01*
X93625691Y-124458344D01*
X93639852Y-124428404D01*
X93656879Y-124399995D01*
X93676609Y-124373392D01*
X93698851Y-124348851D01*
X93723392Y-124326609D01*
X93749995Y-124306879D01*
X93778404Y-124289852D01*
X93808344Y-124275691D01*
X93839529Y-124264533D01*
X93871657Y-124256485D01*
X93904419Y-124251625D01*
X93937500Y-124250000D01*
X94612500Y-124250000D01*
X94645581Y-124251625D01*
X94645581Y-124251625D01*
G37*
D28*
X94275000Y-125000000D03*
%TD*%
D27*
%TO.C,R15*%
G36*
X96595581Y-119251625D02*
G01*
X96628343Y-119256485D01*
X96660471Y-119264533D01*
X96691656Y-119275691D01*
X96721596Y-119289852D01*
X96750005Y-119306879D01*
X96776608Y-119326609D01*
X96801149Y-119348851D01*
X96823391Y-119373392D01*
X96843121Y-119399995D01*
X96860148Y-119428404D01*
X96874309Y-119458344D01*
X96885467Y-119489529D01*
X96893515Y-119521657D01*
X96898375Y-119554419D01*
X96900000Y-119587500D01*
X96900000Y-120412500D01*
X96898375Y-120445581D01*
X96893515Y-120478343D01*
X96885467Y-120510471D01*
X96874309Y-120541656D01*
X96860148Y-120571596D01*
X96843121Y-120600005D01*
X96823391Y-120626608D01*
X96801149Y-120651149D01*
X96776608Y-120673391D01*
X96750005Y-120693121D01*
X96721596Y-120710148D01*
X96691656Y-120724309D01*
X96660471Y-120735467D01*
X96628343Y-120743515D01*
X96595581Y-120748375D01*
X96562500Y-120750000D01*
X95887500Y-120750000D01*
X95854419Y-120748375D01*
X95821657Y-120743515D01*
X95789529Y-120735467D01*
X95758344Y-120724309D01*
X95728404Y-120710148D01*
X95699995Y-120693121D01*
X95673392Y-120673391D01*
X95648851Y-120651149D01*
X95626609Y-120626608D01*
X95606879Y-120600005D01*
X95589852Y-120571596D01*
X95575691Y-120541656D01*
X95564533Y-120510471D01*
X95556485Y-120478343D01*
X95551625Y-120445581D01*
X95550000Y-120412500D01*
X95550000Y-119587500D01*
X95551625Y-119554419D01*
X95556485Y-119521657D01*
X95564533Y-119489529D01*
X95575691Y-119458344D01*
X95589852Y-119428404D01*
X95606879Y-119399995D01*
X95626609Y-119373392D01*
X95648851Y-119348851D01*
X95673392Y-119326609D01*
X95699995Y-119306879D01*
X95728404Y-119289852D01*
X95758344Y-119275691D01*
X95789529Y-119264533D01*
X95821657Y-119256485D01*
X95854419Y-119251625D01*
X95887500Y-119250000D01*
X96562500Y-119250000D01*
X96595581Y-119251625D01*
X96595581Y-119251625D01*
G37*
D28*
X96225000Y-120000000D03*
D27*
G36*
X94645581Y-119251625D02*
G01*
X94678343Y-119256485D01*
X94710471Y-119264533D01*
X94741656Y-119275691D01*
X94771596Y-119289852D01*
X94800005Y-119306879D01*
X94826608Y-119326609D01*
X94851149Y-119348851D01*
X94873391Y-119373392D01*
X94893121Y-119399995D01*
X94910148Y-119428404D01*
X94924309Y-119458344D01*
X94935467Y-119489529D01*
X94943515Y-119521657D01*
X94948375Y-119554419D01*
X94950000Y-119587500D01*
X94950000Y-120412500D01*
X94948375Y-120445581D01*
X94943515Y-120478343D01*
X94935467Y-120510471D01*
X94924309Y-120541656D01*
X94910148Y-120571596D01*
X94893121Y-120600005D01*
X94873391Y-120626608D01*
X94851149Y-120651149D01*
X94826608Y-120673391D01*
X94800005Y-120693121D01*
X94771596Y-120710148D01*
X94741656Y-120724309D01*
X94710471Y-120735467D01*
X94678343Y-120743515D01*
X94645581Y-120748375D01*
X94612500Y-120750000D01*
X93937500Y-120750000D01*
X93904419Y-120748375D01*
X93871657Y-120743515D01*
X93839529Y-120735467D01*
X93808344Y-120724309D01*
X93778404Y-120710148D01*
X93749995Y-120693121D01*
X93723392Y-120673391D01*
X93698851Y-120651149D01*
X93676609Y-120626608D01*
X93656879Y-120600005D01*
X93639852Y-120571596D01*
X93625691Y-120541656D01*
X93614533Y-120510471D01*
X93606485Y-120478343D01*
X93601625Y-120445581D01*
X93600000Y-120412500D01*
X93600000Y-119587500D01*
X93601625Y-119554419D01*
X93606485Y-119521657D01*
X93614533Y-119489529D01*
X93625691Y-119458344D01*
X93639852Y-119428404D01*
X93656879Y-119399995D01*
X93676609Y-119373392D01*
X93698851Y-119348851D01*
X93723392Y-119326609D01*
X93749995Y-119306879D01*
X93778404Y-119289852D01*
X93808344Y-119275691D01*
X93839529Y-119264533D01*
X93871657Y-119256485D01*
X93904419Y-119251625D01*
X93937500Y-119250000D01*
X94612500Y-119250000D01*
X94645581Y-119251625D01*
X94645581Y-119251625D01*
G37*
D28*
X94275000Y-120000000D03*
%TD*%
D27*
%TO.C,R14*%
G36*
X96595581Y-121751625D02*
G01*
X96628343Y-121756485D01*
X96660471Y-121764533D01*
X96691656Y-121775691D01*
X96721596Y-121789852D01*
X96750005Y-121806879D01*
X96776608Y-121826609D01*
X96801149Y-121848851D01*
X96823391Y-121873392D01*
X96843121Y-121899995D01*
X96860148Y-121928404D01*
X96874309Y-121958344D01*
X96885467Y-121989529D01*
X96893515Y-122021657D01*
X96898375Y-122054419D01*
X96900000Y-122087500D01*
X96900000Y-122912500D01*
X96898375Y-122945581D01*
X96893515Y-122978343D01*
X96885467Y-123010471D01*
X96874309Y-123041656D01*
X96860148Y-123071596D01*
X96843121Y-123100005D01*
X96823391Y-123126608D01*
X96801149Y-123151149D01*
X96776608Y-123173391D01*
X96750005Y-123193121D01*
X96721596Y-123210148D01*
X96691656Y-123224309D01*
X96660471Y-123235467D01*
X96628343Y-123243515D01*
X96595581Y-123248375D01*
X96562500Y-123250000D01*
X95887500Y-123250000D01*
X95854419Y-123248375D01*
X95821657Y-123243515D01*
X95789529Y-123235467D01*
X95758344Y-123224309D01*
X95728404Y-123210148D01*
X95699995Y-123193121D01*
X95673392Y-123173391D01*
X95648851Y-123151149D01*
X95626609Y-123126608D01*
X95606879Y-123100005D01*
X95589852Y-123071596D01*
X95575691Y-123041656D01*
X95564533Y-123010471D01*
X95556485Y-122978343D01*
X95551625Y-122945581D01*
X95550000Y-122912500D01*
X95550000Y-122087500D01*
X95551625Y-122054419D01*
X95556485Y-122021657D01*
X95564533Y-121989529D01*
X95575691Y-121958344D01*
X95589852Y-121928404D01*
X95606879Y-121899995D01*
X95626609Y-121873392D01*
X95648851Y-121848851D01*
X95673392Y-121826609D01*
X95699995Y-121806879D01*
X95728404Y-121789852D01*
X95758344Y-121775691D01*
X95789529Y-121764533D01*
X95821657Y-121756485D01*
X95854419Y-121751625D01*
X95887500Y-121750000D01*
X96562500Y-121750000D01*
X96595581Y-121751625D01*
X96595581Y-121751625D01*
G37*
D28*
X96225000Y-122500000D03*
D27*
G36*
X94645581Y-121751625D02*
G01*
X94678343Y-121756485D01*
X94710471Y-121764533D01*
X94741656Y-121775691D01*
X94771596Y-121789852D01*
X94800005Y-121806879D01*
X94826608Y-121826609D01*
X94851149Y-121848851D01*
X94873391Y-121873392D01*
X94893121Y-121899995D01*
X94910148Y-121928404D01*
X94924309Y-121958344D01*
X94935467Y-121989529D01*
X94943515Y-122021657D01*
X94948375Y-122054419D01*
X94950000Y-122087500D01*
X94950000Y-122912500D01*
X94948375Y-122945581D01*
X94943515Y-122978343D01*
X94935467Y-123010471D01*
X94924309Y-123041656D01*
X94910148Y-123071596D01*
X94893121Y-123100005D01*
X94873391Y-123126608D01*
X94851149Y-123151149D01*
X94826608Y-123173391D01*
X94800005Y-123193121D01*
X94771596Y-123210148D01*
X94741656Y-123224309D01*
X94710471Y-123235467D01*
X94678343Y-123243515D01*
X94645581Y-123248375D01*
X94612500Y-123250000D01*
X93937500Y-123250000D01*
X93904419Y-123248375D01*
X93871657Y-123243515D01*
X93839529Y-123235467D01*
X93808344Y-123224309D01*
X93778404Y-123210148D01*
X93749995Y-123193121D01*
X93723392Y-123173391D01*
X93698851Y-123151149D01*
X93676609Y-123126608D01*
X93656879Y-123100005D01*
X93639852Y-123071596D01*
X93625691Y-123041656D01*
X93614533Y-123010471D01*
X93606485Y-122978343D01*
X93601625Y-122945581D01*
X93600000Y-122912500D01*
X93600000Y-122087500D01*
X93601625Y-122054419D01*
X93606485Y-122021657D01*
X93614533Y-121989529D01*
X93625691Y-121958344D01*
X93639852Y-121928404D01*
X93656879Y-121899995D01*
X93676609Y-121873392D01*
X93698851Y-121848851D01*
X93723392Y-121826609D01*
X93749995Y-121806879D01*
X93778404Y-121789852D01*
X93808344Y-121775691D01*
X93839529Y-121764533D01*
X93871657Y-121756485D01*
X93904419Y-121751625D01*
X93937500Y-121750000D01*
X94612500Y-121750000D01*
X94645581Y-121751625D01*
X94645581Y-121751625D01*
G37*
D28*
X94275000Y-122500000D03*
%TD*%
D27*
%TO.C,R13*%
G36*
X86395581Y-116001625D02*
G01*
X86428343Y-116006485D01*
X86460471Y-116014533D01*
X86491656Y-116025691D01*
X86521596Y-116039852D01*
X86550005Y-116056879D01*
X86576608Y-116076609D01*
X86601149Y-116098851D01*
X86623391Y-116123392D01*
X86643121Y-116149995D01*
X86660148Y-116178404D01*
X86674309Y-116208344D01*
X86685467Y-116239529D01*
X86693515Y-116271657D01*
X86698375Y-116304419D01*
X86700000Y-116337500D01*
X86700000Y-117162500D01*
X86698375Y-117195581D01*
X86693515Y-117228343D01*
X86685467Y-117260471D01*
X86674309Y-117291656D01*
X86660148Y-117321596D01*
X86643121Y-117350005D01*
X86623391Y-117376608D01*
X86601149Y-117401149D01*
X86576608Y-117423391D01*
X86550005Y-117443121D01*
X86521596Y-117460148D01*
X86491656Y-117474309D01*
X86460471Y-117485467D01*
X86428343Y-117493515D01*
X86395581Y-117498375D01*
X86362500Y-117500000D01*
X85687500Y-117500000D01*
X85654419Y-117498375D01*
X85621657Y-117493515D01*
X85589529Y-117485467D01*
X85558344Y-117474309D01*
X85528404Y-117460148D01*
X85499995Y-117443121D01*
X85473392Y-117423391D01*
X85448851Y-117401149D01*
X85426609Y-117376608D01*
X85406879Y-117350005D01*
X85389852Y-117321596D01*
X85375691Y-117291656D01*
X85364533Y-117260471D01*
X85356485Y-117228343D01*
X85351625Y-117195581D01*
X85350000Y-117162500D01*
X85350000Y-116337500D01*
X85351625Y-116304419D01*
X85356485Y-116271657D01*
X85364533Y-116239529D01*
X85375691Y-116208344D01*
X85389852Y-116178404D01*
X85406879Y-116149995D01*
X85426609Y-116123392D01*
X85448851Y-116098851D01*
X85473392Y-116076609D01*
X85499995Y-116056879D01*
X85528404Y-116039852D01*
X85558344Y-116025691D01*
X85589529Y-116014533D01*
X85621657Y-116006485D01*
X85654419Y-116001625D01*
X85687500Y-116000000D01*
X86362500Y-116000000D01*
X86395581Y-116001625D01*
X86395581Y-116001625D01*
G37*
D28*
X86025000Y-116750000D03*
D27*
G36*
X88345581Y-116001625D02*
G01*
X88378343Y-116006485D01*
X88410471Y-116014533D01*
X88441656Y-116025691D01*
X88471596Y-116039852D01*
X88500005Y-116056879D01*
X88526608Y-116076609D01*
X88551149Y-116098851D01*
X88573391Y-116123392D01*
X88593121Y-116149995D01*
X88610148Y-116178404D01*
X88624309Y-116208344D01*
X88635467Y-116239529D01*
X88643515Y-116271657D01*
X88648375Y-116304419D01*
X88650000Y-116337500D01*
X88650000Y-117162500D01*
X88648375Y-117195581D01*
X88643515Y-117228343D01*
X88635467Y-117260471D01*
X88624309Y-117291656D01*
X88610148Y-117321596D01*
X88593121Y-117350005D01*
X88573391Y-117376608D01*
X88551149Y-117401149D01*
X88526608Y-117423391D01*
X88500005Y-117443121D01*
X88471596Y-117460148D01*
X88441656Y-117474309D01*
X88410471Y-117485467D01*
X88378343Y-117493515D01*
X88345581Y-117498375D01*
X88312500Y-117500000D01*
X87637500Y-117500000D01*
X87604419Y-117498375D01*
X87571657Y-117493515D01*
X87539529Y-117485467D01*
X87508344Y-117474309D01*
X87478404Y-117460148D01*
X87449995Y-117443121D01*
X87423392Y-117423391D01*
X87398851Y-117401149D01*
X87376609Y-117376608D01*
X87356879Y-117350005D01*
X87339852Y-117321596D01*
X87325691Y-117291656D01*
X87314533Y-117260471D01*
X87306485Y-117228343D01*
X87301625Y-117195581D01*
X87300000Y-117162500D01*
X87300000Y-116337500D01*
X87301625Y-116304419D01*
X87306485Y-116271657D01*
X87314533Y-116239529D01*
X87325691Y-116208344D01*
X87339852Y-116178404D01*
X87356879Y-116149995D01*
X87376609Y-116123392D01*
X87398851Y-116098851D01*
X87423392Y-116076609D01*
X87449995Y-116056879D01*
X87478404Y-116039852D01*
X87508344Y-116025691D01*
X87539529Y-116014533D01*
X87571657Y-116006485D01*
X87604419Y-116001625D01*
X87637500Y-116000000D01*
X88312500Y-116000000D01*
X88345581Y-116001625D01*
X88345581Y-116001625D01*
G37*
D28*
X87975000Y-116750000D03*
%TD*%
D27*
%TO.C,R12*%
G36*
X91095581Y-129251625D02*
G01*
X91128343Y-129256485D01*
X91160471Y-129264533D01*
X91191656Y-129275691D01*
X91221596Y-129289852D01*
X91250005Y-129306879D01*
X91276608Y-129326609D01*
X91301149Y-129348851D01*
X91323391Y-129373392D01*
X91343121Y-129399995D01*
X91360148Y-129428404D01*
X91374309Y-129458344D01*
X91385467Y-129489529D01*
X91393515Y-129521657D01*
X91398375Y-129554419D01*
X91400000Y-129587500D01*
X91400000Y-130412500D01*
X91398375Y-130445581D01*
X91393515Y-130478343D01*
X91385467Y-130510471D01*
X91374309Y-130541656D01*
X91360148Y-130571596D01*
X91343121Y-130600005D01*
X91323391Y-130626608D01*
X91301149Y-130651149D01*
X91276608Y-130673391D01*
X91250005Y-130693121D01*
X91221596Y-130710148D01*
X91191656Y-130724309D01*
X91160471Y-130735467D01*
X91128343Y-130743515D01*
X91095581Y-130748375D01*
X91062500Y-130750000D01*
X90387500Y-130750000D01*
X90354419Y-130748375D01*
X90321657Y-130743515D01*
X90289529Y-130735467D01*
X90258344Y-130724309D01*
X90228404Y-130710148D01*
X90199995Y-130693121D01*
X90173392Y-130673391D01*
X90148851Y-130651149D01*
X90126609Y-130626608D01*
X90106879Y-130600005D01*
X90089852Y-130571596D01*
X90075691Y-130541656D01*
X90064533Y-130510471D01*
X90056485Y-130478343D01*
X90051625Y-130445581D01*
X90050000Y-130412500D01*
X90050000Y-129587500D01*
X90051625Y-129554419D01*
X90056485Y-129521657D01*
X90064533Y-129489529D01*
X90075691Y-129458344D01*
X90089852Y-129428404D01*
X90106879Y-129399995D01*
X90126609Y-129373392D01*
X90148851Y-129348851D01*
X90173392Y-129326609D01*
X90199995Y-129306879D01*
X90228404Y-129289852D01*
X90258344Y-129275691D01*
X90289529Y-129264533D01*
X90321657Y-129256485D01*
X90354419Y-129251625D01*
X90387500Y-129250000D01*
X91062500Y-129250000D01*
X91095581Y-129251625D01*
X91095581Y-129251625D01*
G37*
D28*
X90725000Y-130000000D03*
D27*
G36*
X89145581Y-129251625D02*
G01*
X89178343Y-129256485D01*
X89210471Y-129264533D01*
X89241656Y-129275691D01*
X89271596Y-129289852D01*
X89300005Y-129306879D01*
X89326608Y-129326609D01*
X89351149Y-129348851D01*
X89373391Y-129373392D01*
X89393121Y-129399995D01*
X89410148Y-129428404D01*
X89424309Y-129458344D01*
X89435467Y-129489529D01*
X89443515Y-129521657D01*
X89448375Y-129554419D01*
X89450000Y-129587500D01*
X89450000Y-130412500D01*
X89448375Y-130445581D01*
X89443515Y-130478343D01*
X89435467Y-130510471D01*
X89424309Y-130541656D01*
X89410148Y-130571596D01*
X89393121Y-130600005D01*
X89373391Y-130626608D01*
X89351149Y-130651149D01*
X89326608Y-130673391D01*
X89300005Y-130693121D01*
X89271596Y-130710148D01*
X89241656Y-130724309D01*
X89210471Y-130735467D01*
X89178343Y-130743515D01*
X89145581Y-130748375D01*
X89112500Y-130750000D01*
X88437500Y-130750000D01*
X88404419Y-130748375D01*
X88371657Y-130743515D01*
X88339529Y-130735467D01*
X88308344Y-130724309D01*
X88278404Y-130710148D01*
X88249995Y-130693121D01*
X88223392Y-130673391D01*
X88198851Y-130651149D01*
X88176609Y-130626608D01*
X88156879Y-130600005D01*
X88139852Y-130571596D01*
X88125691Y-130541656D01*
X88114533Y-130510471D01*
X88106485Y-130478343D01*
X88101625Y-130445581D01*
X88100000Y-130412500D01*
X88100000Y-129587500D01*
X88101625Y-129554419D01*
X88106485Y-129521657D01*
X88114533Y-129489529D01*
X88125691Y-129458344D01*
X88139852Y-129428404D01*
X88156879Y-129399995D01*
X88176609Y-129373392D01*
X88198851Y-129348851D01*
X88223392Y-129326609D01*
X88249995Y-129306879D01*
X88278404Y-129289852D01*
X88308344Y-129275691D01*
X88339529Y-129264533D01*
X88371657Y-129256485D01*
X88404419Y-129251625D01*
X88437500Y-129250000D01*
X89112500Y-129250000D01*
X89145581Y-129251625D01*
X89145581Y-129251625D01*
G37*
D28*
X88775000Y-130000000D03*
%TD*%
D27*
%TO.C,R11*%
G36*
X88345581Y-118501625D02*
G01*
X88378343Y-118506485D01*
X88410471Y-118514533D01*
X88441656Y-118525691D01*
X88471596Y-118539852D01*
X88500005Y-118556879D01*
X88526608Y-118576609D01*
X88551149Y-118598851D01*
X88573391Y-118623392D01*
X88593121Y-118649995D01*
X88610148Y-118678404D01*
X88624309Y-118708344D01*
X88635467Y-118739529D01*
X88643515Y-118771657D01*
X88648375Y-118804419D01*
X88650000Y-118837500D01*
X88650000Y-119662500D01*
X88648375Y-119695581D01*
X88643515Y-119728343D01*
X88635467Y-119760471D01*
X88624309Y-119791656D01*
X88610148Y-119821596D01*
X88593121Y-119850005D01*
X88573391Y-119876608D01*
X88551149Y-119901149D01*
X88526608Y-119923391D01*
X88500005Y-119943121D01*
X88471596Y-119960148D01*
X88441656Y-119974309D01*
X88410471Y-119985467D01*
X88378343Y-119993515D01*
X88345581Y-119998375D01*
X88312500Y-120000000D01*
X87637500Y-120000000D01*
X87604419Y-119998375D01*
X87571657Y-119993515D01*
X87539529Y-119985467D01*
X87508344Y-119974309D01*
X87478404Y-119960148D01*
X87449995Y-119943121D01*
X87423392Y-119923391D01*
X87398851Y-119901149D01*
X87376609Y-119876608D01*
X87356879Y-119850005D01*
X87339852Y-119821596D01*
X87325691Y-119791656D01*
X87314533Y-119760471D01*
X87306485Y-119728343D01*
X87301625Y-119695581D01*
X87300000Y-119662500D01*
X87300000Y-118837500D01*
X87301625Y-118804419D01*
X87306485Y-118771657D01*
X87314533Y-118739529D01*
X87325691Y-118708344D01*
X87339852Y-118678404D01*
X87356879Y-118649995D01*
X87376609Y-118623392D01*
X87398851Y-118598851D01*
X87423392Y-118576609D01*
X87449995Y-118556879D01*
X87478404Y-118539852D01*
X87508344Y-118525691D01*
X87539529Y-118514533D01*
X87571657Y-118506485D01*
X87604419Y-118501625D01*
X87637500Y-118500000D01*
X88312500Y-118500000D01*
X88345581Y-118501625D01*
X88345581Y-118501625D01*
G37*
D28*
X87975000Y-119250000D03*
D27*
G36*
X86395581Y-118501625D02*
G01*
X86428343Y-118506485D01*
X86460471Y-118514533D01*
X86491656Y-118525691D01*
X86521596Y-118539852D01*
X86550005Y-118556879D01*
X86576608Y-118576609D01*
X86601149Y-118598851D01*
X86623391Y-118623392D01*
X86643121Y-118649995D01*
X86660148Y-118678404D01*
X86674309Y-118708344D01*
X86685467Y-118739529D01*
X86693515Y-118771657D01*
X86698375Y-118804419D01*
X86700000Y-118837500D01*
X86700000Y-119662500D01*
X86698375Y-119695581D01*
X86693515Y-119728343D01*
X86685467Y-119760471D01*
X86674309Y-119791656D01*
X86660148Y-119821596D01*
X86643121Y-119850005D01*
X86623391Y-119876608D01*
X86601149Y-119901149D01*
X86576608Y-119923391D01*
X86550005Y-119943121D01*
X86521596Y-119960148D01*
X86491656Y-119974309D01*
X86460471Y-119985467D01*
X86428343Y-119993515D01*
X86395581Y-119998375D01*
X86362500Y-120000000D01*
X85687500Y-120000000D01*
X85654419Y-119998375D01*
X85621657Y-119993515D01*
X85589529Y-119985467D01*
X85558344Y-119974309D01*
X85528404Y-119960148D01*
X85499995Y-119943121D01*
X85473392Y-119923391D01*
X85448851Y-119901149D01*
X85426609Y-119876608D01*
X85406879Y-119850005D01*
X85389852Y-119821596D01*
X85375691Y-119791656D01*
X85364533Y-119760471D01*
X85356485Y-119728343D01*
X85351625Y-119695581D01*
X85350000Y-119662500D01*
X85350000Y-118837500D01*
X85351625Y-118804419D01*
X85356485Y-118771657D01*
X85364533Y-118739529D01*
X85375691Y-118708344D01*
X85389852Y-118678404D01*
X85406879Y-118649995D01*
X85426609Y-118623392D01*
X85448851Y-118598851D01*
X85473392Y-118576609D01*
X85499995Y-118556879D01*
X85528404Y-118539852D01*
X85558344Y-118525691D01*
X85589529Y-118514533D01*
X85621657Y-118506485D01*
X85654419Y-118501625D01*
X85687500Y-118500000D01*
X86362500Y-118500000D01*
X86395581Y-118501625D01*
X86395581Y-118501625D01*
G37*
D28*
X86025000Y-119250000D03*
%TD*%
D27*
%TO.C,R10*%
G36*
X97895581Y-132001625D02*
G01*
X97928343Y-132006485D01*
X97960471Y-132014533D01*
X97991656Y-132025691D01*
X98021596Y-132039852D01*
X98050005Y-132056879D01*
X98076608Y-132076609D01*
X98101149Y-132098851D01*
X98123391Y-132123392D01*
X98143121Y-132149995D01*
X98160148Y-132178404D01*
X98174309Y-132208344D01*
X98185467Y-132239529D01*
X98193515Y-132271657D01*
X98198375Y-132304419D01*
X98200000Y-132337500D01*
X98200000Y-133162500D01*
X98198375Y-133195581D01*
X98193515Y-133228343D01*
X98185467Y-133260471D01*
X98174309Y-133291656D01*
X98160148Y-133321596D01*
X98143121Y-133350005D01*
X98123391Y-133376608D01*
X98101149Y-133401149D01*
X98076608Y-133423391D01*
X98050005Y-133443121D01*
X98021596Y-133460148D01*
X97991656Y-133474309D01*
X97960471Y-133485467D01*
X97928343Y-133493515D01*
X97895581Y-133498375D01*
X97862500Y-133500000D01*
X97187500Y-133500000D01*
X97154419Y-133498375D01*
X97121657Y-133493515D01*
X97089529Y-133485467D01*
X97058344Y-133474309D01*
X97028404Y-133460148D01*
X96999995Y-133443121D01*
X96973392Y-133423391D01*
X96948851Y-133401149D01*
X96926609Y-133376608D01*
X96906879Y-133350005D01*
X96889852Y-133321596D01*
X96875691Y-133291656D01*
X96864533Y-133260471D01*
X96856485Y-133228343D01*
X96851625Y-133195581D01*
X96850000Y-133162500D01*
X96850000Y-132337500D01*
X96851625Y-132304419D01*
X96856485Y-132271657D01*
X96864533Y-132239529D01*
X96875691Y-132208344D01*
X96889852Y-132178404D01*
X96906879Y-132149995D01*
X96926609Y-132123392D01*
X96948851Y-132098851D01*
X96973392Y-132076609D01*
X96999995Y-132056879D01*
X97028404Y-132039852D01*
X97058344Y-132025691D01*
X97089529Y-132014533D01*
X97121657Y-132006485D01*
X97154419Y-132001625D01*
X97187500Y-132000000D01*
X97862500Y-132000000D01*
X97895581Y-132001625D01*
X97895581Y-132001625D01*
G37*
D28*
X97525000Y-132750000D03*
D27*
G36*
X99845581Y-132001625D02*
G01*
X99878343Y-132006485D01*
X99910471Y-132014533D01*
X99941656Y-132025691D01*
X99971596Y-132039852D01*
X100000005Y-132056879D01*
X100026608Y-132076609D01*
X100051149Y-132098851D01*
X100073391Y-132123392D01*
X100093121Y-132149995D01*
X100110148Y-132178404D01*
X100124309Y-132208344D01*
X100135467Y-132239529D01*
X100143515Y-132271657D01*
X100148375Y-132304419D01*
X100150000Y-132337500D01*
X100150000Y-133162500D01*
X100148375Y-133195581D01*
X100143515Y-133228343D01*
X100135467Y-133260471D01*
X100124309Y-133291656D01*
X100110148Y-133321596D01*
X100093121Y-133350005D01*
X100073391Y-133376608D01*
X100051149Y-133401149D01*
X100026608Y-133423391D01*
X100000005Y-133443121D01*
X99971596Y-133460148D01*
X99941656Y-133474309D01*
X99910471Y-133485467D01*
X99878343Y-133493515D01*
X99845581Y-133498375D01*
X99812500Y-133500000D01*
X99137500Y-133500000D01*
X99104419Y-133498375D01*
X99071657Y-133493515D01*
X99039529Y-133485467D01*
X99008344Y-133474309D01*
X98978404Y-133460148D01*
X98949995Y-133443121D01*
X98923392Y-133423391D01*
X98898851Y-133401149D01*
X98876609Y-133376608D01*
X98856879Y-133350005D01*
X98839852Y-133321596D01*
X98825691Y-133291656D01*
X98814533Y-133260471D01*
X98806485Y-133228343D01*
X98801625Y-133195581D01*
X98800000Y-133162500D01*
X98800000Y-132337500D01*
X98801625Y-132304419D01*
X98806485Y-132271657D01*
X98814533Y-132239529D01*
X98825691Y-132208344D01*
X98839852Y-132178404D01*
X98856879Y-132149995D01*
X98876609Y-132123392D01*
X98898851Y-132098851D01*
X98923392Y-132076609D01*
X98949995Y-132056879D01*
X98978404Y-132039852D01*
X99008344Y-132025691D01*
X99039529Y-132014533D01*
X99071657Y-132006485D01*
X99104419Y-132001625D01*
X99137500Y-132000000D01*
X99812500Y-132000000D01*
X99845581Y-132001625D01*
X99845581Y-132001625D01*
G37*
D28*
X99475000Y-132750000D03*
%TD*%
D27*
%TO.C,R9*%
G36*
X100945581Y-128801625D02*
G01*
X100978343Y-128806485D01*
X101010471Y-128814533D01*
X101041656Y-128825691D01*
X101071596Y-128839852D01*
X101100005Y-128856879D01*
X101126608Y-128876609D01*
X101151149Y-128898851D01*
X101173391Y-128923392D01*
X101193121Y-128949995D01*
X101210148Y-128978404D01*
X101224309Y-129008344D01*
X101235467Y-129039529D01*
X101243515Y-129071657D01*
X101248375Y-129104419D01*
X101250000Y-129137500D01*
X101250000Y-129812500D01*
X101248375Y-129845581D01*
X101243515Y-129878343D01*
X101235467Y-129910471D01*
X101224309Y-129941656D01*
X101210148Y-129971596D01*
X101193121Y-130000005D01*
X101173391Y-130026608D01*
X101151149Y-130051149D01*
X101126608Y-130073391D01*
X101100005Y-130093121D01*
X101071596Y-130110148D01*
X101041656Y-130124309D01*
X101010471Y-130135467D01*
X100978343Y-130143515D01*
X100945581Y-130148375D01*
X100912500Y-130150000D01*
X100087500Y-130150000D01*
X100054419Y-130148375D01*
X100021657Y-130143515D01*
X99989529Y-130135467D01*
X99958344Y-130124309D01*
X99928404Y-130110148D01*
X99899995Y-130093121D01*
X99873392Y-130073391D01*
X99848851Y-130051149D01*
X99826609Y-130026608D01*
X99806879Y-130000005D01*
X99789852Y-129971596D01*
X99775691Y-129941656D01*
X99764533Y-129910471D01*
X99756485Y-129878343D01*
X99751625Y-129845581D01*
X99750000Y-129812500D01*
X99750000Y-129137500D01*
X99751625Y-129104419D01*
X99756485Y-129071657D01*
X99764533Y-129039529D01*
X99775691Y-129008344D01*
X99789852Y-128978404D01*
X99806879Y-128949995D01*
X99826609Y-128923392D01*
X99848851Y-128898851D01*
X99873392Y-128876609D01*
X99899995Y-128856879D01*
X99928404Y-128839852D01*
X99958344Y-128825691D01*
X99989529Y-128814533D01*
X100021657Y-128806485D01*
X100054419Y-128801625D01*
X100087500Y-128800000D01*
X100912500Y-128800000D01*
X100945581Y-128801625D01*
X100945581Y-128801625D01*
G37*
D28*
X100500000Y-129475000D03*
D27*
G36*
X100945581Y-126851625D02*
G01*
X100978343Y-126856485D01*
X101010471Y-126864533D01*
X101041656Y-126875691D01*
X101071596Y-126889852D01*
X101100005Y-126906879D01*
X101126608Y-126926609D01*
X101151149Y-126948851D01*
X101173391Y-126973392D01*
X101193121Y-126999995D01*
X101210148Y-127028404D01*
X101224309Y-127058344D01*
X101235467Y-127089529D01*
X101243515Y-127121657D01*
X101248375Y-127154419D01*
X101250000Y-127187500D01*
X101250000Y-127862500D01*
X101248375Y-127895581D01*
X101243515Y-127928343D01*
X101235467Y-127960471D01*
X101224309Y-127991656D01*
X101210148Y-128021596D01*
X101193121Y-128050005D01*
X101173391Y-128076608D01*
X101151149Y-128101149D01*
X101126608Y-128123391D01*
X101100005Y-128143121D01*
X101071596Y-128160148D01*
X101041656Y-128174309D01*
X101010471Y-128185467D01*
X100978343Y-128193515D01*
X100945581Y-128198375D01*
X100912500Y-128200000D01*
X100087500Y-128200000D01*
X100054419Y-128198375D01*
X100021657Y-128193515D01*
X99989529Y-128185467D01*
X99958344Y-128174309D01*
X99928404Y-128160148D01*
X99899995Y-128143121D01*
X99873392Y-128123391D01*
X99848851Y-128101149D01*
X99826609Y-128076608D01*
X99806879Y-128050005D01*
X99789852Y-128021596D01*
X99775691Y-127991656D01*
X99764533Y-127960471D01*
X99756485Y-127928343D01*
X99751625Y-127895581D01*
X99750000Y-127862500D01*
X99750000Y-127187500D01*
X99751625Y-127154419D01*
X99756485Y-127121657D01*
X99764533Y-127089529D01*
X99775691Y-127058344D01*
X99789852Y-127028404D01*
X99806879Y-126999995D01*
X99826609Y-126973392D01*
X99848851Y-126948851D01*
X99873392Y-126926609D01*
X99899995Y-126906879D01*
X99928404Y-126889852D01*
X99958344Y-126875691D01*
X99989529Y-126864533D01*
X100021657Y-126856485D01*
X100054419Y-126851625D01*
X100087500Y-126850000D01*
X100912500Y-126850000D01*
X100945581Y-126851625D01*
X100945581Y-126851625D01*
G37*
D28*
X100500000Y-127525000D03*
%TD*%
D27*
%TO.C,R8*%
G36*
X98445581Y-128801625D02*
G01*
X98478343Y-128806485D01*
X98510471Y-128814533D01*
X98541656Y-128825691D01*
X98571596Y-128839852D01*
X98600005Y-128856879D01*
X98626608Y-128876609D01*
X98651149Y-128898851D01*
X98673391Y-128923392D01*
X98693121Y-128949995D01*
X98710148Y-128978404D01*
X98724309Y-129008344D01*
X98735467Y-129039529D01*
X98743515Y-129071657D01*
X98748375Y-129104419D01*
X98750000Y-129137500D01*
X98750000Y-129812500D01*
X98748375Y-129845581D01*
X98743515Y-129878343D01*
X98735467Y-129910471D01*
X98724309Y-129941656D01*
X98710148Y-129971596D01*
X98693121Y-130000005D01*
X98673391Y-130026608D01*
X98651149Y-130051149D01*
X98626608Y-130073391D01*
X98600005Y-130093121D01*
X98571596Y-130110148D01*
X98541656Y-130124309D01*
X98510471Y-130135467D01*
X98478343Y-130143515D01*
X98445581Y-130148375D01*
X98412500Y-130150000D01*
X97587500Y-130150000D01*
X97554419Y-130148375D01*
X97521657Y-130143515D01*
X97489529Y-130135467D01*
X97458344Y-130124309D01*
X97428404Y-130110148D01*
X97399995Y-130093121D01*
X97373392Y-130073391D01*
X97348851Y-130051149D01*
X97326609Y-130026608D01*
X97306879Y-130000005D01*
X97289852Y-129971596D01*
X97275691Y-129941656D01*
X97264533Y-129910471D01*
X97256485Y-129878343D01*
X97251625Y-129845581D01*
X97250000Y-129812500D01*
X97250000Y-129137500D01*
X97251625Y-129104419D01*
X97256485Y-129071657D01*
X97264533Y-129039529D01*
X97275691Y-129008344D01*
X97289852Y-128978404D01*
X97306879Y-128949995D01*
X97326609Y-128923392D01*
X97348851Y-128898851D01*
X97373392Y-128876609D01*
X97399995Y-128856879D01*
X97428404Y-128839852D01*
X97458344Y-128825691D01*
X97489529Y-128814533D01*
X97521657Y-128806485D01*
X97554419Y-128801625D01*
X97587500Y-128800000D01*
X98412500Y-128800000D01*
X98445581Y-128801625D01*
X98445581Y-128801625D01*
G37*
D28*
X98000000Y-129475000D03*
D27*
G36*
X98445581Y-126851625D02*
G01*
X98478343Y-126856485D01*
X98510471Y-126864533D01*
X98541656Y-126875691D01*
X98571596Y-126889852D01*
X98600005Y-126906879D01*
X98626608Y-126926609D01*
X98651149Y-126948851D01*
X98673391Y-126973392D01*
X98693121Y-126999995D01*
X98710148Y-127028404D01*
X98724309Y-127058344D01*
X98735467Y-127089529D01*
X98743515Y-127121657D01*
X98748375Y-127154419D01*
X98750000Y-127187500D01*
X98750000Y-127862500D01*
X98748375Y-127895581D01*
X98743515Y-127928343D01*
X98735467Y-127960471D01*
X98724309Y-127991656D01*
X98710148Y-128021596D01*
X98693121Y-128050005D01*
X98673391Y-128076608D01*
X98651149Y-128101149D01*
X98626608Y-128123391D01*
X98600005Y-128143121D01*
X98571596Y-128160148D01*
X98541656Y-128174309D01*
X98510471Y-128185467D01*
X98478343Y-128193515D01*
X98445581Y-128198375D01*
X98412500Y-128200000D01*
X97587500Y-128200000D01*
X97554419Y-128198375D01*
X97521657Y-128193515D01*
X97489529Y-128185467D01*
X97458344Y-128174309D01*
X97428404Y-128160148D01*
X97399995Y-128143121D01*
X97373392Y-128123391D01*
X97348851Y-128101149D01*
X97326609Y-128076608D01*
X97306879Y-128050005D01*
X97289852Y-128021596D01*
X97275691Y-127991656D01*
X97264533Y-127960471D01*
X97256485Y-127928343D01*
X97251625Y-127895581D01*
X97250000Y-127862500D01*
X97250000Y-127187500D01*
X97251625Y-127154419D01*
X97256485Y-127121657D01*
X97264533Y-127089529D01*
X97275691Y-127058344D01*
X97289852Y-127028404D01*
X97306879Y-126999995D01*
X97326609Y-126973392D01*
X97348851Y-126948851D01*
X97373392Y-126926609D01*
X97399995Y-126906879D01*
X97428404Y-126889852D01*
X97458344Y-126875691D01*
X97489529Y-126864533D01*
X97521657Y-126856485D01*
X97554419Y-126851625D01*
X97587500Y-126850000D01*
X98412500Y-126850000D01*
X98445581Y-126851625D01*
X98445581Y-126851625D01*
G37*
D28*
X98000000Y-127525000D03*
%TD*%
D27*
%TO.C,R7*%
G36*
X95945581Y-128801625D02*
G01*
X95978343Y-128806485D01*
X96010471Y-128814533D01*
X96041656Y-128825691D01*
X96071596Y-128839852D01*
X96100005Y-128856879D01*
X96126608Y-128876609D01*
X96151149Y-128898851D01*
X96173391Y-128923392D01*
X96193121Y-128949995D01*
X96210148Y-128978404D01*
X96224309Y-129008344D01*
X96235467Y-129039529D01*
X96243515Y-129071657D01*
X96248375Y-129104419D01*
X96250000Y-129137500D01*
X96250000Y-129812500D01*
X96248375Y-129845581D01*
X96243515Y-129878343D01*
X96235467Y-129910471D01*
X96224309Y-129941656D01*
X96210148Y-129971596D01*
X96193121Y-130000005D01*
X96173391Y-130026608D01*
X96151149Y-130051149D01*
X96126608Y-130073391D01*
X96100005Y-130093121D01*
X96071596Y-130110148D01*
X96041656Y-130124309D01*
X96010471Y-130135467D01*
X95978343Y-130143515D01*
X95945581Y-130148375D01*
X95912500Y-130150000D01*
X95087500Y-130150000D01*
X95054419Y-130148375D01*
X95021657Y-130143515D01*
X94989529Y-130135467D01*
X94958344Y-130124309D01*
X94928404Y-130110148D01*
X94899995Y-130093121D01*
X94873392Y-130073391D01*
X94848851Y-130051149D01*
X94826609Y-130026608D01*
X94806879Y-130000005D01*
X94789852Y-129971596D01*
X94775691Y-129941656D01*
X94764533Y-129910471D01*
X94756485Y-129878343D01*
X94751625Y-129845581D01*
X94750000Y-129812500D01*
X94750000Y-129137500D01*
X94751625Y-129104419D01*
X94756485Y-129071657D01*
X94764533Y-129039529D01*
X94775691Y-129008344D01*
X94789852Y-128978404D01*
X94806879Y-128949995D01*
X94826609Y-128923392D01*
X94848851Y-128898851D01*
X94873392Y-128876609D01*
X94899995Y-128856879D01*
X94928404Y-128839852D01*
X94958344Y-128825691D01*
X94989529Y-128814533D01*
X95021657Y-128806485D01*
X95054419Y-128801625D01*
X95087500Y-128800000D01*
X95912500Y-128800000D01*
X95945581Y-128801625D01*
X95945581Y-128801625D01*
G37*
D28*
X95500000Y-129475000D03*
D27*
G36*
X95945581Y-126851625D02*
G01*
X95978343Y-126856485D01*
X96010471Y-126864533D01*
X96041656Y-126875691D01*
X96071596Y-126889852D01*
X96100005Y-126906879D01*
X96126608Y-126926609D01*
X96151149Y-126948851D01*
X96173391Y-126973392D01*
X96193121Y-126999995D01*
X96210148Y-127028404D01*
X96224309Y-127058344D01*
X96235467Y-127089529D01*
X96243515Y-127121657D01*
X96248375Y-127154419D01*
X96250000Y-127187500D01*
X96250000Y-127862500D01*
X96248375Y-127895581D01*
X96243515Y-127928343D01*
X96235467Y-127960471D01*
X96224309Y-127991656D01*
X96210148Y-128021596D01*
X96193121Y-128050005D01*
X96173391Y-128076608D01*
X96151149Y-128101149D01*
X96126608Y-128123391D01*
X96100005Y-128143121D01*
X96071596Y-128160148D01*
X96041656Y-128174309D01*
X96010471Y-128185467D01*
X95978343Y-128193515D01*
X95945581Y-128198375D01*
X95912500Y-128200000D01*
X95087500Y-128200000D01*
X95054419Y-128198375D01*
X95021657Y-128193515D01*
X94989529Y-128185467D01*
X94958344Y-128174309D01*
X94928404Y-128160148D01*
X94899995Y-128143121D01*
X94873392Y-128123391D01*
X94848851Y-128101149D01*
X94826609Y-128076608D01*
X94806879Y-128050005D01*
X94789852Y-128021596D01*
X94775691Y-127991656D01*
X94764533Y-127960471D01*
X94756485Y-127928343D01*
X94751625Y-127895581D01*
X94750000Y-127862500D01*
X94750000Y-127187500D01*
X94751625Y-127154419D01*
X94756485Y-127121657D01*
X94764533Y-127089529D01*
X94775691Y-127058344D01*
X94789852Y-127028404D01*
X94806879Y-126999995D01*
X94826609Y-126973392D01*
X94848851Y-126948851D01*
X94873392Y-126926609D01*
X94899995Y-126906879D01*
X94928404Y-126889852D01*
X94958344Y-126875691D01*
X94989529Y-126864533D01*
X95021657Y-126856485D01*
X95054419Y-126851625D01*
X95087500Y-126850000D01*
X95912500Y-126850000D01*
X95945581Y-126851625D01*
X95945581Y-126851625D01*
G37*
D28*
X95500000Y-127525000D03*
%TD*%
D27*
%TO.C,R6*%
G36*
X91095581Y-131751625D02*
G01*
X91128343Y-131756485D01*
X91160471Y-131764533D01*
X91191656Y-131775691D01*
X91221596Y-131789852D01*
X91250005Y-131806879D01*
X91276608Y-131826609D01*
X91301149Y-131848851D01*
X91323391Y-131873392D01*
X91343121Y-131899995D01*
X91360148Y-131928404D01*
X91374309Y-131958344D01*
X91385467Y-131989529D01*
X91393515Y-132021657D01*
X91398375Y-132054419D01*
X91400000Y-132087500D01*
X91400000Y-132912500D01*
X91398375Y-132945581D01*
X91393515Y-132978343D01*
X91385467Y-133010471D01*
X91374309Y-133041656D01*
X91360148Y-133071596D01*
X91343121Y-133100005D01*
X91323391Y-133126608D01*
X91301149Y-133151149D01*
X91276608Y-133173391D01*
X91250005Y-133193121D01*
X91221596Y-133210148D01*
X91191656Y-133224309D01*
X91160471Y-133235467D01*
X91128343Y-133243515D01*
X91095581Y-133248375D01*
X91062500Y-133250000D01*
X90387500Y-133250000D01*
X90354419Y-133248375D01*
X90321657Y-133243515D01*
X90289529Y-133235467D01*
X90258344Y-133224309D01*
X90228404Y-133210148D01*
X90199995Y-133193121D01*
X90173392Y-133173391D01*
X90148851Y-133151149D01*
X90126609Y-133126608D01*
X90106879Y-133100005D01*
X90089852Y-133071596D01*
X90075691Y-133041656D01*
X90064533Y-133010471D01*
X90056485Y-132978343D01*
X90051625Y-132945581D01*
X90050000Y-132912500D01*
X90050000Y-132087500D01*
X90051625Y-132054419D01*
X90056485Y-132021657D01*
X90064533Y-131989529D01*
X90075691Y-131958344D01*
X90089852Y-131928404D01*
X90106879Y-131899995D01*
X90126609Y-131873392D01*
X90148851Y-131848851D01*
X90173392Y-131826609D01*
X90199995Y-131806879D01*
X90228404Y-131789852D01*
X90258344Y-131775691D01*
X90289529Y-131764533D01*
X90321657Y-131756485D01*
X90354419Y-131751625D01*
X90387500Y-131750000D01*
X91062500Y-131750000D01*
X91095581Y-131751625D01*
X91095581Y-131751625D01*
G37*
D28*
X90725000Y-132500000D03*
D27*
G36*
X89145581Y-131751625D02*
G01*
X89178343Y-131756485D01*
X89210471Y-131764533D01*
X89241656Y-131775691D01*
X89271596Y-131789852D01*
X89300005Y-131806879D01*
X89326608Y-131826609D01*
X89351149Y-131848851D01*
X89373391Y-131873392D01*
X89393121Y-131899995D01*
X89410148Y-131928404D01*
X89424309Y-131958344D01*
X89435467Y-131989529D01*
X89443515Y-132021657D01*
X89448375Y-132054419D01*
X89450000Y-132087500D01*
X89450000Y-132912500D01*
X89448375Y-132945581D01*
X89443515Y-132978343D01*
X89435467Y-133010471D01*
X89424309Y-133041656D01*
X89410148Y-133071596D01*
X89393121Y-133100005D01*
X89373391Y-133126608D01*
X89351149Y-133151149D01*
X89326608Y-133173391D01*
X89300005Y-133193121D01*
X89271596Y-133210148D01*
X89241656Y-133224309D01*
X89210471Y-133235467D01*
X89178343Y-133243515D01*
X89145581Y-133248375D01*
X89112500Y-133250000D01*
X88437500Y-133250000D01*
X88404419Y-133248375D01*
X88371657Y-133243515D01*
X88339529Y-133235467D01*
X88308344Y-133224309D01*
X88278404Y-133210148D01*
X88249995Y-133193121D01*
X88223392Y-133173391D01*
X88198851Y-133151149D01*
X88176609Y-133126608D01*
X88156879Y-133100005D01*
X88139852Y-133071596D01*
X88125691Y-133041656D01*
X88114533Y-133010471D01*
X88106485Y-132978343D01*
X88101625Y-132945581D01*
X88100000Y-132912500D01*
X88100000Y-132087500D01*
X88101625Y-132054419D01*
X88106485Y-132021657D01*
X88114533Y-131989529D01*
X88125691Y-131958344D01*
X88139852Y-131928404D01*
X88156879Y-131899995D01*
X88176609Y-131873392D01*
X88198851Y-131848851D01*
X88223392Y-131826609D01*
X88249995Y-131806879D01*
X88278404Y-131789852D01*
X88308344Y-131775691D01*
X88339529Y-131764533D01*
X88371657Y-131756485D01*
X88404419Y-131751625D01*
X88437500Y-131750000D01*
X89112500Y-131750000D01*
X89145581Y-131751625D01*
X89145581Y-131751625D01*
G37*
D28*
X88775000Y-132500000D03*
%TD*%
D27*
%TO.C,R5*%
G36*
X93445581Y-128801625D02*
G01*
X93478343Y-128806485D01*
X93510471Y-128814533D01*
X93541656Y-128825691D01*
X93571596Y-128839852D01*
X93600005Y-128856879D01*
X93626608Y-128876609D01*
X93651149Y-128898851D01*
X93673391Y-128923392D01*
X93693121Y-128949995D01*
X93710148Y-128978404D01*
X93724309Y-129008344D01*
X93735467Y-129039529D01*
X93743515Y-129071657D01*
X93748375Y-129104419D01*
X93750000Y-129137500D01*
X93750000Y-129812500D01*
X93748375Y-129845581D01*
X93743515Y-129878343D01*
X93735467Y-129910471D01*
X93724309Y-129941656D01*
X93710148Y-129971596D01*
X93693121Y-130000005D01*
X93673391Y-130026608D01*
X93651149Y-130051149D01*
X93626608Y-130073391D01*
X93600005Y-130093121D01*
X93571596Y-130110148D01*
X93541656Y-130124309D01*
X93510471Y-130135467D01*
X93478343Y-130143515D01*
X93445581Y-130148375D01*
X93412500Y-130150000D01*
X92587500Y-130150000D01*
X92554419Y-130148375D01*
X92521657Y-130143515D01*
X92489529Y-130135467D01*
X92458344Y-130124309D01*
X92428404Y-130110148D01*
X92399995Y-130093121D01*
X92373392Y-130073391D01*
X92348851Y-130051149D01*
X92326609Y-130026608D01*
X92306879Y-130000005D01*
X92289852Y-129971596D01*
X92275691Y-129941656D01*
X92264533Y-129910471D01*
X92256485Y-129878343D01*
X92251625Y-129845581D01*
X92250000Y-129812500D01*
X92250000Y-129137500D01*
X92251625Y-129104419D01*
X92256485Y-129071657D01*
X92264533Y-129039529D01*
X92275691Y-129008344D01*
X92289852Y-128978404D01*
X92306879Y-128949995D01*
X92326609Y-128923392D01*
X92348851Y-128898851D01*
X92373392Y-128876609D01*
X92399995Y-128856879D01*
X92428404Y-128839852D01*
X92458344Y-128825691D01*
X92489529Y-128814533D01*
X92521657Y-128806485D01*
X92554419Y-128801625D01*
X92587500Y-128800000D01*
X93412500Y-128800000D01*
X93445581Y-128801625D01*
X93445581Y-128801625D01*
G37*
D28*
X93000000Y-129475000D03*
D27*
G36*
X93445581Y-126851625D02*
G01*
X93478343Y-126856485D01*
X93510471Y-126864533D01*
X93541656Y-126875691D01*
X93571596Y-126889852D01*
X93600005Y-126906879D01*
X93626608Y-126926609D01*
X93651149Y-126948851D01*
X93673391Y-126973392D01*
X93693121Y-126999995D01*
X93710148Y-127028404D01*
X93724309Y-127058344D01*
X93735467Y-127089529D01*
X93743515Y-127121657D01*
X93748375Y-127154419D01*
X93750000Y-127187500D01*
X93750000Y-127862500D01*
X93748375Y-127895581D01*
X93743515Y-127928343D01*
X93735467Y-127960471D01*
X93724309Y-127991656D01*
X93710148Y-128021596D01*
X93693121Y-128050005D01*
X93673391Y-128076608D01*
X93651149Y-128101149D01*
X93626608Y-128123391D01*
X93600005Y-128143121D01*
X93571596Y-128160148D01*
X93541656Y-128174309D01*
X93510471Y-128185467D01*
X93478343Y-128193515D01*
X93445581Y-128198375D01*
X93412500Y-128200000D01*
X92587500Y-128200000D01*
X92554419Y-128198375D01*
X92521657Y-128193515D01*
X92489529Y-128185467D01*
X92458344Y-128174309D01*
X92428404Y-128160148D01*
X92399995Y-128143121D01*
X92373392Y-128123391D01*
X92348851Y-128101149D01*
X92326609Y-128076608D01*
X92306879Y-128050005D01*
X92289852Y-128021596D01*
X92275691Y-127991656D01*
X92264533Y-127960471D01*
X92256485Y-127928343D01*
X92251625Y-127895581D01*
X92250000Y-127862500D01*
X92250000Y-127187500D01*
X92251625Y-127154419D01*
X92256485Y-127121657D01*
X92264533Y-127089529D01*
X92275691Y-127058344D01*
X92289852Y-127028404D01*
X92306879Y-126999995D01*
X92326609Y-126973392D01*
X92348851Y-126948851D01*
X92373392Y-126926609D01*
X92399995Y-126906879D01*
X92428404Y-126889852D01*
X92458344Y-126875691D01*
X92489529Y-126864533D01*
X92521657Y-126856485D01*
X92554419Y-126851625D01*
X92587500Y-126850000D01*
X93412500Y-126850000D01*
X93445581Y-126851625D01*
X93445581Y-126851625D01*
G37*
D28*
X93000000Y-127525000D03*
%TD*%
D27*
%TO.C,R4*%
G36*
X76645581Y-145251625D02*
G01*
X76678343Y-145256485D01*
X76710471Y-145264533D01*
X76741656Y-145275691D01*
X76771596Y-145289852D01*
X76800005Y-145306879D01*
X76826608Y-145326609D01*
X76851149Y-145348851D01*
X76873391Y-145373392D01*
X76893121Y-145399995D01*
X76910148Y-145428404D01*
X76924309Y-145458344D01*
X76935467Y-145489529D01*
X76943515Y-145521657D01*
X76948375Y-145554419D01*
X76950000Y-145587500D01*
X76950000Y-146412500D01*
X76948375Y-146445581D01*
X76943515Y-146478343D01*
X76935467Y-146510471D01*
X76924309Y-146541656D01*
X76910148Y-146571596D01*
X76893121Y-146600005D01*
X76873391Y-146626608D01*
X76851149Y-146651149D01*
X76826608Y-146673391D01*
X76800005Y-146693121D01*
X76771596Y-146710148D01*
X76741656Y-146724309D01*
X76710471Y-146735467D01*
X76678343Y-146743515D01*
X76645581Y-146748375D01*
X76612500Y-146750000D01*
X75937500Y-146750000D01*
X75904419Y-146748375D01*
X75871657Y-146743515D01*
X75839529Y-146735467D01*
X75808344Y-146724309D01*
X75778404Y-146710148D01*
X75749995Y-146693121D01*
X75723392Y-146673391D01*
X75698851Y-146651149D01*
X75676609Y-146626608D01*
X75656879Y-146600005D01*
X75639852Y-146571596D01*
X75625691Y-146541656D01*
X75614533Y-146510471D01*
X75606485Y-146478343D01*
X75601625Y-146445581D01*
X75600000Y-146412500D01*
X75600000Y-145587500D01*
X75601625Y-145554419D01*
X75606485Y-145521657D01*
X75614533Y-145489529D01*
X75625691Y-145458344D01*
X75639852Y-145428404D01*
X75656879Y-145399995D01*
X75676609Y-145373392D01*
X75698851Y-145348851D01*
X75723392Y-145326609D01*
X75749995Y-145306879D01*
X75778404Y-145289852D01*
X75808344Y-145275691D01*
X75839529Y-145264533D01*
X75871657Y-145256485D01*
X75904419Y-145251625D01*
X75937500Y-145250000D01*
X76612500Y-145250000D01*
X76645581Y-145251625D01*
X76645581Y-145251625D01*
G37*
D28*
X76275000Y-146000000D03*
D27*
G36*
X78595581Y-145251625D02*
G01*
X78628343Y-145256485D01*
X78660471Y-145264533D01*
X78691656Y-145275691D01*
X78721596Y-145289852D01*
X78750005Y-145306879D01*
X78776608Y-145326609D01*
X78801149Y-145348851D01*
X78823391Y-145373392D01*
X78843121Y-145399995D01*
X78860148Y-145428404D01*
X78874309Y-145458344D01*
X78885467Y-145489529D01*
X78893515Y-145521657D01*
X78898375Y-145554419D01*
X78900000Y-145587500D01*
X78900000Y-146412500D01*
X78898375Y-146445581D01*
X78893515Y-146478343D01*
X78885467Y-146510471D01*
X78874309Y-146541656D01*
X78860148Y-146571596D01*
X78843121Y-146600005D01*
X78823391Y-146626608D01*
X78801149Y-146651149D01*
X78776608Y-146673391D01*
X78750005Y-146693121D01*
X78721596Y-146710148D01*
X78691656Y-146724309D01*
X78660471Y-146735467D01*
X78628343Y-146743515D01*
X78595581Y-146748375D01*
X78562500Y-146750000D01*
X77887500Y-146750000D01*
X77854419Y-146748375D01*
X77821657Y-146743515D01*
X77789529Y-146735467D01*
X77758344Y-146724309D01*
X77728404Y-146710148D01*
X77699995Y-146693121D01*
X77673392Y-146673391D01*
X77648851Y-146651149D01*
X77626609Y-146626608D01*
X77606879Y-146600005D01*
X77589852Y-146571596D01*
X77575691Y-146541656D01*
X77564533Y-146510471D01*
X77556485Y-146478343D01*
X77551625Y-146445581D01*
X77550000Y-146412500D01*
X77550000Y-145587500D01*
X77551625Y-145554419D01*
X77556485Y-145521657D01*
X77564533Y-145489529D01*
X77575691Y-145458344D01*
X77589852Y-145428404D01*
X77606879Y-145399995D01*
X77626609Y-145373392D01*
X77648851Y-145348851D01*
X77673392Y-145326609D01*
X77699995Y-145306879D01*
X77728404Y-145289852D01*
X77758344Y-145275691D01*
X77789529Y-145264533D01*
X77821657Y-145256485D01*
X77854419Y-145251625D01*
X77887500Y-145250000D01*
X78562500Y-145250000D01*
X78595581Y-145251625D01*
X78595581Y-145251625D01*
G37*
D28*
X78225000Y-146000000D03*
%TD*%
D27*
%TO.C,R3*%
G36*
X86645581Y-144751625D02*
G01*
X86678343Y-144756485D01*
X86710471Y-144764533D01*
X86741656Y-144775691D01*
X86771596Y-144789852D01*
X86800005Y-144806879D01*
X86826608Y-144826609D01*
X86851149Y-144848851D01*
X86873391Y-144873392D01*
X86893121Y-144899995D01*
X86910148Y-144928404D01*
X86924309Y-144958344D01*
X86935467Y-144989529D01*
X86943515Y-145021657D01*
X86948375Y-145054419D01*
X86950000Y-145087500D01*
X86950000Y-145912500D01*
X86948375Y-145945581D01*
X86943515Y-145978343D01*
X86935467Y-146010471D01*
X86924309Y-146041656D01*
X86910148Y-146071596D01*
X86893121Y-146100005D01*
X86873391Y-146126608D01*
X86851149Y-146151149D01*
X86826608Y-146173391D01*
X86800005Y-146193121D01*
X86771596Y-146210148D01*
X86741656Y-146224309D01*
X86710471Y-146235467D01*
X86678343Y-146243515D01*
X86645581Y-146248375D01*
X86612500Y-146250000D01*
X85937500Y-146250000D01*
X85904419Y-146248375D01*
X85871657Y-146243515D01*
X85839529Y-146235467D01*
X85808344Y-146224309D01*
X85778404Y-146210148D01*
X85749995Y-146193121D01*
X85723392Y-146173391D01*
X85698851Y-146151149D01*
X85676609Y-146126608D01*
X85656879Y-146100005D01*
X85639852Y-146071596D01*
X85625691Y-146041656D01*
X85614533Y-146010471D01*
X85606485Y-145978343D01*
X85601625Y-145945581D01*
X85600000Y-145912500D01*
X85600000Y-145087500D01*
X85601625Y-145054419D01*
X85606485Y-145021657D01*
X85614533Y-144989529D01*
X85625691Y-144958344D01*
X85639852Y-144928404D01*
X85656879Y-144899995D01*
X85676609Y-144873392D01*
X85698851Y-144848851D01*
X85723392Y-144826609D01*
X85749995Y-144806879D01*
X85778404Y-144789852D01*
X85808344Y-144775691D01*
X85839529Y-144764533D01*
X85871657Y-144756485D01*
X85904419Y-144751625D01*
X85937500Y-144750000D01*
X86612500Y-144750000D01*
X86645581Y-144751625D01*
X86645581Y-144751625D01*
G37*
D28*
X86275000Y-145500000D03*
D27*
G36*
X88595581Y-144751625D02*
G01*
X88628343Y-144756485D01*
X88660471Y-144764533D01*
X88691656Y-144775691D01*
X88721596Y-144789852D01*
X88750005Y-144806879D01*
X88776608Y-144826609D01*
X88801149Y-144848851D01*
X88823391Y-144873392D01*
X88843121Y-144899995D01*
X88860148Y-144928404D01*
X88874309Y-144958344D01*
X88885467Y-144989529D01*
X88893515Y-145021657D01*
X88898375Y-145054419D01*
X88900000Y-145087500D01*
X88900000Y-145912500D01*
X88898375Y-145945581D01*
X88893515Y-145978343D01*
X88885467Y-146010471D01*
X88874309Y-146041656D01*
X88860148Y-146071596D01*
X88843121Y-146100005D01*
X88823391Y-146126608D01*
X88801149Y-146151149D01*
X88776608Y-146173391D01*
X88750005Y-146193121D01*
X88721596Y-146210148D01*
X88691656Y-146224309D01*
X88660471Y-146235467D01*
X88628343Y-146243515D01*
X88595581Y-146248375D01*
X88562500Y-146250000D01*
X87887500Y-146250000D01*
X87854419Y-146248375D01*
X87821657Y-146243515D01*
X87789529Y-146235467D01*
X87758344Y-146224309D01*
X87728404Y-146210148D01*
X87699995Y-146193121D01*
X87673392Y-146173391D01*
X87648851Y-146151149D01*
X87626609Y-146126608D01*
X87606879Y-146100005D01*
X87589852Y-146071596D01*
X87575691Y-146041656D01*
X87564533Y-146010471D01*
X87556485Y-145978343D01*
X87551625Y-145945581D01*
X87550000Y-145912500D01*
X87550000Y-145087500D01*
X87551625Y-145054419D01*
X87556485Y-145021657D01*
X87564533Y-144989529D01*
X87575691Y-144958344D01*
X87589852Y-144928404D01*
X87606879Y-144899995D01*
X87626609Y-144873392D01*
X87648851Y-144848851D01*
X87673392Y-144826609D01*
X87699995Y-144806879D01*
X87728404Y-144789852D01*
X87758344Y-144775691D01*
X87789529Y-144764533D01*
X87821657Y-144756485D01*
X87854419Y-144751625D01*
X87887500Y-144750000D01*
X88562500Y-144750000D01*
X88595581Y-144751625D01*
X88595581Y-144751625D01*
G37*
D28*
X88225000Y-145500000D03*
%TD*%
D27*
%TO.C,R2*%
G36*
X72395581Y-141001625D02*
G01*
X72428343Y-141006485D01*
X72460471Y-141014533D01*
X72491656Y-141025691D01*
X72521596Y-141039852D01*
X72550005Y-141056879D01*
X72576608Y-141076609D01*
X72601149Y-141098851D01*
X72623391Y-141123392D01*
X72643121Y-141149995D01*
X72660148Y-141178404D01*
X72674309Y-141208344D01*
X72685467Y-141239529D01*
X72693515Y-141271657D01*
X72698375Y-141304419D01*
X72700000Y-141337500D01*
X72700000Y-142162500D01*
X72698375Y-142195581D01*
X72693515Y-142228343D01*
X72685467Y-142260471D01*
X72674309Y-142291656D01*
X72660148Y-142321596D01*
X72643121Y-142350005D01*
X72623391Y-142376608D01*
X72601149Y-142401149D01*
X72576608Y-142423391D01*
X72550005Y-142443121D01*
X72521596Y-142460148D01*
X72491656Y-142474309D01*
X72460471Y-142485467D01*
X72428343Y-142493515D01*
X72395581Y-142498375D01*
X72362500Y-142500000D01*
X71687500Y-142500000D01*
X71654419Y-142498375D01*
X71621657Y-142493515D01*
X71589529Y-142485467D01*
X71558344Y-142474309D01*
X71528404Y-142460148D01*
X71499995Y-142443121D01*
X71473392Y-142423391D01*
X71448851Y-142401149D01*
X71426609Y-142376608D01*
X71406879Y-142350005D01*
X71389852Y-142321596D01*
X71375691Y-142291656D01*
X71364533Y-142260471D01*
X71356485Y-142228343D01*
X71351625Y-142195581D01*
X71350000Y-142162500D01*
X71350000Y-141337500D01*
X71351625Y-141304419D01*
X71356485Y-141271657D01*
X71364533Y-141239529D01*
X71375691Y-141208344D01*
X71389852Y-141178404D01*
X71406879Y-141149995D01*
X71426609Y-141123392D01*
X71448851Y-141098851D01*
X71473392Y-141076609D01*
X71499995Y-141056879D01*
X71528404Y-141039852D01*
X71558344Y-141025691D01*
X71589529Y-141014533D01*
X71621657Y-141006485D01*
X71654419Y-141001625D01*
X71687500Y-141000000D01*
X72362500Y-141000000D01*
X72395581Y-141001625D01*
X72395581Y-141001625D01*
G37*
D28*
X72025000Y-141750000D03*
D27*
G36*
X74345581Y-141001625D02*
G01*
X74378343Y-141006485D01*
X74410471Y-141014533D01*
X74441656Y-141025691D01*
X74471596Y-141039852D01*
X74500005Y-141056879D01*
X74526608Y-141076609D01*
X74551149Y-141098851D01*
X74573391Y-141123392D01*
X74593121Y-141149995D01*
X74610148Y-141178404D01*
X74624309Y-141208344D01*
X74635467Y-141239529D01*
X74643515Y-141271657D01*
X74648375Y-141304419D01*
X74650000Y-141337500D01*
X74650000Y-142162500D01*
X74648375Y-142195581D01*
X74643515Y-142228343D01*
X74635467Y-142260471D01*
X74624309Y-142291656D01*
X74610148Y-142321596D01*
X74593121Y-142350005D01*
X74573391Y-142376608D01*
X74551149Y-142401149D01*
X74526608Y-142423391D01*
X74500005Y-142443121D01*
X74471596Y-142460148D01*
X74441656Y-142474309D01*
X74410471Y-142485467D01*
X74378343Y-142493515D01*
X74345581Y-142498375D01*
X74312500Y-142500000D01*
X73637500Y-142500000D01*
X73604419Y-142498375D01*
X73571657Y-142493515D01*
X73539529Y-142485467D01*
X73508344Y-142474309D01*
X73478404Y-142460148D01*
X73449995Y-142443121D01*
X73423392Y-142423391D01*
X73398851Y-142401149D01*
X73376609Y-142376608D01*
X73356879Y-142350005D01*
X73339852Y-142321596D01*
X73325691Y-142291656D01*
X73314533Y-142260471D01*
X73306485Y-142228343D01*
X73301625Y-142195581D01*
X73300000Y-142162500D01*
X73300000Y-141337500D01*
X73301625Y-141304419D01*
X73306485Y-141271657D01*
X73314533Y-141239529D01*
X73325691Y-141208344D01*
X73339852Y-141178404D01*
X73356879Y-141149995D01*
X73376609Y-141123392D01*
X73398851Y-141098851D01*
X73423392Y-141076609D01*
X73449995Y-141056879D01*
X73478404Y-141039852D01*
X73508344Y-141025691D01*
X73539529Y-141014533D01*
X73571657Y-141006485D01*
X73604419Y-141001625D01*
X73637500Y-141000000D01*
X74312500Y-141000000D01*
X74345581Y-141001625D01*
X74345581Y-141001625D01*
G37*
D28*
X73975000Y-141750000D03*
%TD*%
D27*
%TO.C,R1*%
G36*
X76695581Y-143051625D02*
G01*
X76728343Y-143056485D01*
X76760471Y-143064533D01*
X76791656Y-143075691D01*
X76821596Y-143089852D01*
X76850005Y-143106879D01*
X76876608Y-143126609D01*
X76901149Y-143148851D01*
X76923391Y-143173392D01*
X76943121Y-143199995D01*
X76960148Y-143228404D01*
X76974309Y-143258344D01*
X76985467Y-143289529D01*
X76993515Y-143321657D01*
X76998375Y-143354419D01*
X77000000Y-143387500D01*
X77000000Y-144062500D01*
X76998375Y-144095581D01*
X76993515Y-144128343D01*
X76985467Y-144160471D01*
X76974309Y-144191656D01*
X76960148Y-144221596D01*
X76943121Y-144250005D01*
X76923391Y-144276608D01*
X76901149Y-144301149D01*
X76876608Y-144323391D01*
X76850005Y-144343121D01*
X76821596Y-144360148D01*
X76791656Y-144374309D01*
X76760471Y-144385467D01*
X76728343Y-144393515D01*
X76695581Y-144398375D01*
X76662500Y-144400000D01*
X75837500Y-144400000D01*
X75804419Y-144398375D01*
X75771657Y-144393515D01*
X75739529Y-144385467D01*
X75708344Y-144374309D01*
X75678404Y-144360148D01*
X75649995Y-144343121D01*
X75623392Y-144323391D01*
X75598851Y-144301149D01*
X75576609Y-144276608D01*
X75556879Y-144250005D01*
X75539852Y-144221596D01*
X75525691Y-144191656D01*
X75514533Y-144160471D01*
X75506485Y-144128343D01*
X75501625Y-144095581D01*
X75500000Y-144062500D01*
X75500000Y-143387500D01*
X75501625Y-143354419D01*
X75506485Y-143321657D01*
X75514533Y-143289529D01*
X75525691Y-143258344D01*
X75539852Y-143228404D01*
X75556879Y-143199995D01*
X75576609Y-143173392D01*
X75598851Y-143148851D01*
X75623392Y-143126609D01*
X75649995Y-143106879D01*
X75678404Y-143089852D01*
X75708344Y-143075691D01*
X75739529Y-143064533D01*
X75771657Y-143056485D01*
X75804419Y-143051625D01*
X75837500Y-143050000D01*
X76662500Y-143050000D01*
X76695581Y-143051625D01*
X76695581Y-143051625D01*
G37*
D28*
X76250000Y-143725000D03*
D27*
G36*
X76695581Y-141101625D02*
G01*
X76728343Y-141106485D01*
X76760471Y-141114533D01*
X76791656Y-141125691D01*
X76821596Y-141139852D01*
X76850005Y-141156879D01*
X76876608Y-141176609D01*
X76901149Y-141198851D01*
X76923391Y-141223392D01*
X76943121Y-141249995D01*
X76960148Y-141278404D01*
X76974309Y-141308344D01*
X76985467Y-141339529D01*
X76993515Y-141371657D01*
X76998375Y-141404419D01*
X77000000Y-141437500D01*
X77000000Y-142112500D01*
X76998375Y-142145581D01*
X76993515Y-142178343D01*
X76985467Y-142210471D01*
X76974309Y-142241656D01*
X76960148Y-142271596D01*
X76943121Y-142300005D01*
X76923391Y-142326608D01*
X76901149Y-142351149D01*
X76876608Y-142373391D01*
X76850005Y-142393121D01*
X76821596Y-142410148D01*
X76791656Y-142424309D01*
X76760471Y-142435467D01*
X76728343Y-142443515D01*
X76695581Y-142448375D01*
X76662500Y-142450000D01*
X75837500Y-142450000D01*
X75804419Y-142448375D01*
X75771657Y-142443515D01*
X75739529Y-142435467D01*
X75708344Y-142424309D01*
X75678404Y-142410148D01*
X75649995Y-142393121D01*
X75623392Y-142373391D01*
X75598851Y-142351149D01*
X75576609Y-142326608D01*
X75556879Y-142300005D01*
X75539852Y-142271596D01*
X75525691Y-142241656D01*
X75514533Y-142210471D01*
X75506485Y-142178343D01*
X75501625Y-142145581D01*
X75500000Y-142112500D01*
X75500000Y-141437500D01*
X75501625Y-141404419D01*
X75506485Y-141371657D01*
X75514533Y-141339529D01*
X75525691Y-141308344D01*
X75539852Y-141278404D01*
X75556879Y-141249995D01*
X75576609Y-141223392D01*
X75598851Y-141198851D01*
X75623392Y-141176609D01*
X75649995Y-141156879D01*
X75678404Y-141139852D01*
X75708344Y-141125691D01*
X75739529Y-141114533D01*
X75771657Y-141106485D01*
X75804419Y-141101625D01*
X75837500Y-141100000D01*
X76662500Y-141100000D01*
X76695581Y-141101625D01*
X76695581Y-141101625D01*
G37*
D28*
X76250000Y-141775000D03*
%TD*%
D27*
%TO.C,JP2*%
G36*
X106195581Y-135051625D02*
G01*
X106228343Y-135056485D01*
X106260471Y-135064533D01*
X106291656Y-135075691D01*
X106321596Y-135089852D01*
X106350005Y-135106879D01*
X106376608Y-135126609D01*
X106401149Y-135148851D01*
X106423391Y-135173392D01*
X106443121Y-135199995D01*
X106460148Y-135228404D01*
X106474309Y-135258344D01*
X106485467Y-135289529D01*
X106493515Y-135321657D01*
X106498375Y-135354419D01*
X106500000Y-135387500D01*
X106500000Y-136062500D01*
X106498375Y-136095581D01*
X106493515Y-136128343D01*
X106485467Y-136160471D01*
X106474309Y-136191656D01*
X106460148Y-136221596D01*
X106443121Y-136250005D01*
X106423391Y-136276608D01*
X106401149Y-136301149D01*
X106376608Y-136323391D01*
X106350005Y-136343121D01*
X106321596Y-136360148D01*
X106291656Y-136374309D01*
X106260471Y-136385467D01*
X106228343Y-136393515D01*
X106195581Y-136398375D01*
X106162500Y-136400000D01*
X105337500Y-136400000D01*
X105304419Y-136398375D01*
X105271657Y-136393515D01*
X105239529Y-136385467D01*
X105208344Y-136374309D01*
X105178404Y-136360148D01*
X105149995Y-136343121D01*
X105123392Y-136323391D01*
X105098851Y-136301149D01*
X105076609Y-136276608D01*
X105056879Y-136250005D01*
X105039852Y-136221596D01*
X105025691Y-136191656D01*
X105014533Y-136160471D01*
X105006485Y-136128343D01*
X105001625Y-136095581D01*
X105000000Y-136062500D01*
X105000000Y-135387500D01*
X105001625Y-135354419D01*
X105006485Y-135321657D01*
X105014533Y-135289529D01*
X105025691Y-135258344D01*
X105039852Y-135228404D01*
X105056879Y-135199995D01*
X105076609Y-135173392D01*
X105098851Y-135148851D01*
X105123392Y-135126609D01*
X105149995Y-135106879D01*
X105178404Y-135089852D01*
X105208344Y-135075691D01*
X105239529Y-135064533D01*
X105271657Y-135056485D01*
X105304419Y-135051625D01*
X105337500Y-135050000D01*
X106162500Y-135050000D01*
X106195581Y-135051625D01*
X106195581Y-135051625D01*
G37*
D28*
X105750000Y-135725000D03*
D27*
G36*
X106195581Y-133101625D02*
G01*
X106228343Y-133106485D01*
X106260471Y-133114533D01*
X106291656Y-133125691D01*
X106321596Y-133139852D01*
X106350005Y-133156879D01*
X106376608Y-133176609D01*
X106401149Y-133198851D01*
X106423391Y-133223392D01*
X106443121Y-133249995D01*
X106460148Y-133278404D01*
X106474309Y-133308344D01*
X106485467Y-133339529D01*
X106493515Y-133371657D01*
X106498375Y-133404419D01*
X106500000Y-133437500D01*
X106500000Y-134112500D01*
X106498375Y-134145581D01*
X106493515Y-134178343D01*
X106485467Y-134210471D01*
X106474309Y-134241656D01*
X106460148Y-134271596D01*
X106443121Y-134300005D01*
X106423391Y-134326608D01*
X106401149Y-134351149D01*
X106376608Y-134373391D01*
X106350005Y-134393121D01*
X106321596Y-134410148D01*
X106291656Y-134424309D01*
X106260471Y-134435467D01*
X106228343Y-134443515D01*
X106195581Y-134448375D01*
X106162500Y-134450000D01*
X105337500Y-134450000D01*
X105304419Y-134448375D01*
X105271657Y-134443515D01*
X105239529Y-134435467D01*
X105208344Y-134424309D01*
X105178404Y-134410148D01*
X105149995Y-134393121D01*
X105123392Y-134373391D01*
X105098851Y-134351149D01*
X105076609Y-134326608D01*
X105056879Y-134300005D01*
X105039852Y-134271596D01*
X105025691Y-134241656D01*
X105014533Y-134210471D01*
X105006485Y-134178343D01*
X105001625Y-134145581D01*
X105000000Y-134112500D01*
X105000000Y-133437500D01*
X105001625Y-133404419D01*
X105006485Y-133371657D01*
X105014533Y-133339529D01*
X105025691Y-133308344D01*
X105039852Y-133278404D01*
X105056879Y-133249995D01*
X105076609Y-133223392D01*
X105098851Y-133198851D01*
X105123392Y-133176609D01*
X105149995Y-133156879D01*
X105178404Y-133139852D01*
X105208344Y-133125691D01*
X105239529Y-133114533D01*
X105271657Y-133106485D01*
X105304419Y-133101625D01*
X105337500Y-133100000D01*
X106162500Y-133100000D01*
X106195581Y-133101625D01*
X106195581Y-133101625D01*
G37*
D28*
X105750000Y-133775000D03*
%TD*%
D27*
%TO.C,JP1*%
G36*
X103695581Y-135051625D02*
G01*
X103728343Y-135056485D01*
X103760471Y-135064533D01*
X103791656Y-135075691D01*
X103821596Y-135089852D01*
X103850005Y-135106879D01*
X103876608Y-135126609D01*
X103901149Y-135148851D01*
X103923391Y-135173392D01*
X103943121Y-135199995D01*
X103960148Y-135228404D01*
X103974309Y-135258344D01*
X103985467Y-135289529D01*
X103993515Y-135321657D01*
X103998375Y-135354419D01*
X104000000Y-135387500D01*
X104000000Y-136062500D01*
X103998375Y-136095581D01*
X103993515Y-136128343D01*
X103985467Y-136160471D01*
X103974309Y-136191656D01*
X103960148Y-136221596D01*
X103943121Y-136250005D01*
X103923391Y-136276608D01*
X103901149Y-136301149D01*
X103876608Y-136323391D01*
X103850005Y-136343121D01*
X103821596Y-136360148D01*
X103791656Y-136374309D01*
X103760471Y-136385467D01*
X103728343Y-136393515D01*
X103695581Y-136398375D01*
X103662500Y-136400000D01*
X102837500Y-136400000D01*
X102804419Y-136398375D01*
X102771657Y-136393515D01*
X102739529Y-136385467D01*
X102708344Y-136374309D01*
X102678404Y-136360148D01*
X102649995Y-136343121D01*
X102623392Y-136323391D01*
X102598851Y-136301149D01*
X102576609Y-136276608D01*
X102556879Y-136250005D01*
X102539852Y-136221596D01*
X102525691Y-136191656D01*
X102514533Y-136160471D01*
X102506485Y-136128343D01*
X102501625Y-136095581D01*
X102500000Y-136062500D01*
X102500000Y-135387500D01*
X102501625Y-135354419D01*
X102506485Y-135321657D01*
X102514533Y-135289529D01*
X102525691Y-135258344D01*
X102539852Y-135228404D01*
X102556879Y-135199995D01*
X102576609Y-135173392D01*
X102598851Y-135148851D01*
X102623392Y-135126609D01*
X102649995Y-135106879D01*
X102678404Y-135089852D01*
X102708344Y-135075691D01*
X102739529Y-135064533D01*
X102771657Y-135056485D01*
X102804419Y-135051625D01*
X102837500Y-135050000D01*
X103662500Y-135050000D01*
X103695581Y-135051625D01*
X103695581Y-135051625D01*
G37*
D28*
X103250000Y-135725000D03*
D27*
G36*
X103695581Y-133101625D02*
G01*
X103728343Y-133106485D01*
X103760471Y-133114533D01*
X103791656Y-133125691D01*
X103821596Y-133139852D01*
X103850005Y-133156879D01*
X103876608Y-133176609D01*
X103901149Y-133198851D01*
X103923391Y-133223392D01*
X103943121Y-133249995D01*
X103960148Y-133278404D01*
X103974309Y-133308344D01*
X103985467Y-133339529D01*
X103993515Y-133371657D01*
X103998375Y-133404419D01*
X104000000Y-133437500D01*
X104000000Y-134112500D01*
X103998375Y-134145581D01*
X103993515Y-134178343D01*
X103985467Y-134210471D01*
X103974309Y-134241656D01*
X103960148Y-134271596D01*
X103943121Y-134300005D01*
X103923391Y-134326608D01*
X103901149Y-134351149D01*
X103876608Y-134373391D01*
X103850005Y-134393121D01*
X103821596Y-134410148D01*
X103791656Y-134424309D01*
X103760471Y-134435467D01*
X103728343Y-134443515D01*
X103695581Y-134448375D01*
X103662500Y-134450000D01*
X102837500Y-134450000D01*
X102804419Y-134448375D01*
X102771657Y-134443515D01*
X102739529Y-134435467D01*
X102708344Y-134424309D01*
X102678404Y-134410148D01*
X102649995Y-134393121D01*
X102623392Y-134373391D01*
X102598851Y-134351149D01*
X102576609Y-134326608D01*
X102556879Y-134300005D01*
X102539852Y-134271596D01*
X102525691Y-134241656D01*
X102514533Y-134210471D01*
X102506485Y-134178343D01*
X102501625Y-134145581D01*
X102500000Y-134112500D01*
X102500000Y-133437500D01*
X102501625Y-133404419D01*
X102506485Y-133371657D01*
X102514533Y-133339529D01*
X102525691Y-133308344D01*
X102539852Y-133278404D01*
X102556879Y-133249995D01*
X102576609Y-133223392D01*
X102598851Y-133198851D01*
X102623392Y-133176609D01*
X102649995Y-133156879D01*
X102678404Y-133139852D01*
X102708344Y-133125691D01*
X102739529Y-133114533D01*
X102771657Y-133106485D01*
X102804419Y-133101625D01*
X102837500Y-133100000D01*
X103662500Y-133100000D01*
X103695581Y-133101625D01*
X103695581Y-133101625D01*
G37*
D28*
X103250000Y-133775000D03*
%TD*%
D21*
%TO.C,H6*%
X96000000Y-145500000D03*
%TD*%
%TO.C,H5*%
X96000000Y-117500000D03*
%TD*%
D30*
%TO.C,Q9*%
X77750000Y-119500000D03*
X78700000Y-121500000D03*
X76800000Y-121500000D03*
%TD*%
D22*
%TO.C,Q7*%
X82500000Y-144500000D03*
X84500000Y-143550000D03*
X84500000Y-145450000D03*
%TD*%
%TO.C,Q6*%
X104250000Y-117750000D03*
X102250000Y-118700000D03*
X102250000Y-116800000D03*
%TD*%
%TO.C,Q4*%
X104250000Y-126750000D03*
X102250000Y-127700000D03*
X102250000Y-125800000D03*
%TD*%
D30*
%TO.C,Q3*%
X91250000Y-126000000D03*
X90300000Y-124000000D03*
X92200000Y-124000000D03*
%TD*%
%TO.C,Q2*%
X91250000Y-118500000D03*
X90300000Y-116500000D03*
X92200000Y-116500000D03*
%TD*%
%TO.C,Q1*%
X91250000Y-122250000D03*
X90300000Y-120250000D03*
X92200000Y-120250000D03*
%TD*%
D27*
%TO.C,F1*%
G36*
X111004461Y-123251311D02*
G01*
X111030887Y-123255231D01*
X111056801Y-123261722D01*
X111081953Y-123270722D01*
X111106103Y-123282144D01*
X111129017Y-123295878D01*
X111150474Y-123311791D01*
X111170268Y-123329732D01*
X111188209Y-123349526D01*
X111204122Y-123370983D01*
X111217856Y-123393897D01*
X111229278Y-123418047D01*
X111238278Y-123443199D01*
X111244769Y-123469113D01*
X111248689Y-123495539D01*
X111250000Y-123522221D01*
X111250000Y-126477779D01*
X111248689Y-126504461D01*
X111244769Y-126530887D01*
X111238278Y-126556801D01*
X111229278Y-126581953D01*
X111217856Y-126606103D01*
X111204122Y-126629017D01*
X111188209Y-126650474D01*
X111170268Y-126670268D01*
X111150474Y-126688209D01*
X111129017Y-126704122D01*
X111106103Y-126717856D01*
X111081953Y-126729278D01*
X111056801Y-126738278D01*
X111030887Y-126744769D01*
X111004461Y-126748689D01*
X110977779Y-126750000D01*
X110297221Y-126750000D01*
X110270539Y-126748689D01*
X110244113Y-126744769D01*
X110218199Y-126738278D01*
X110193047Y-126729278D01*
X110168897Y-126717856D01*
X110145983Y-126704122D01*
X110124526Y-126688209D01*
X110104732Y-126670268D01*
X110086791Y-126650474D01*
X110070878Y-126629017D01*
X110057144Y-126606103D01*
X110045722Y-126581953D01*
X110036722Y-126556801D01*
X110030231Y-126530887D01*
X110026311Y-126504461D01*
X110025000Y-126477779D01*
X110025000Y-123522221D01*
X110026311Y-123495539D01*
X110030231Y-123469113D01*
X110036722Y-123443199D01*
X110045722Y-123418047D01*
X110057144Y-123393897D01*
X110070878Y-123370983D01*
X110086791Y-123349526D01*
X110104732Y-123329732D01*
X110124526Y-123311791D01*
X110145983Y-123295878D01*
X110168897Y-123282144D01*
X110193047Y-123270722D01*
X110218199Y-123261722D01*
X110244113Y-123255231D01*
X110270539Y-123251311D01*
X110297221Y-123250000D01*
X110977779Y-123250000D01*
X111004461Y-123251311D01*
X111004461Y-123251311D01*
G37*
D31*
X110637500Y-125000000D03*
D27*
G36*
X106729461Y-123251311D02*
G01*
X106755887Y-123255231D01*
X106781801Y-123261722D01*
X106806953Y-123270722D01*
X106831103Y-123282144D01*
X106854017Y-123295878D01*
X106875474Y-123311791D01*
X106895268Y-123329732D01*
X106913209Y-123349526D01*
X106929122Y-123370983D01*
X106942856Y-123393897D01*
X106954278Y-123418047D01*
X106963278Y-123443199D01*
X106969769Y-123469113D01*
X106973689Y-123495539D01*
X106975000Y-123522221D01*
X106975000Y-126477779D01*
X106973689Y-126504461D01*
X106969769Y-126530887D01*
X106963278Y-126556801D01*
X106954278Y-126581953D01*
X106942856Y-126606103D01*
X106929122Y-126629017D01*
X106913209Y-126650474D01*
X106895268Y-126670268D01*
X106875474Y-126688209D01*
X106854017Y-126704122D01*
X106831103Y-126717856D01*
X106806953Y-126729278D01*
X106781801Y-126738278D01*
X106755887Y-126744769D01*
X106729461Y-126748689D01*
X106702779Y-126750000D01*
X106022221Y-126750000D01*
X105995539Y-126748689D01*
X105969113Y-126744769D01*
X105943199Y-126738278D01*
X105918047Y-126729278D01*
X105893897Y-126717856D01*
X105870983Y-126704122D01*
X105849526Y-126688209D01*
X105829732Y-126670268D01*
X105811791Y-126650474D01*
X105795878Y-126629017D01*
X105782144Y-126606103D01*
X105770722Y-126581953D01*
X105761722Y-126556801D01*
X105755231Y-126530887D01*
X105751311Y-126504461D01*
X105750000Y-126477779D01*
X105750000Y-123522221D01*
X105751311Y-123495539D01*
X105755231Y-123469113D01*
X105761722Y-123443199D01*
X105770722Y-123418047D01*
X105782144Y-123393897D01*
X105795878Y-123370983D01*
X105811791Y-123349526D01*
X105829732Y-123329732D01*
X105849526Y-123311791D01*
X105870983Y-123295878D01*
X105893897Y-123282144D01*
X105918047Y-123270722D01*
X105943199Y-123261722D01*
X105969113Y-123255231D01*
X105995539Y-123251311D01*
X106022221Y-123250000D01*
X106702779Y-123250000D01*
X106729461Y-123251311D01*
X106729461Y-123251311D01*
G37*
D31*
X106362500Y-125000000D03*
%TD*%
D32*
%TO.C,U2*%
X89075000Y-136050000D03*
X89725000Y-136050000D03*
X90375000Y-136050000D03*
X91025000Y-136050000D03*
X91675000Y-136050000D03*
X92325000Y-136050000D03*
X92975000Y-136050000D03*
X93625000Y-136050000D03*
X94275000Y-136050000D03*
X94925000Y-136050000D03*
X94925000Y-141950000D03*
X94275000Y-141950000D03*
X93625000Y-141950000D03*
X92975000Y-141950000D03*
X92325000Y-141950000D03*
X91675000Y-141950000D03*
X91025000Y-141950000D03*
X90375000Y-141950000D03*
X89725000Y-141950000D03*
X89075000Y-141950000D03*
%TD*%
D29*
%TO.C,U1*%
X81100000Y-138800000D03*
X81100000Y-140700000D03*
X78900000Y-140700000D03*
X78900000Y-139750000D03*
X78900000Y-138800000D03*
%TD*%
M02*
