%TF.GenerationSoftware,KiCad,Pcbnew,(5.1.0-0)*%
%TF.CreationDate,2020-07-09T23:17:02+02:00*%
%TF.ProjectId,POxiM-wristcomputer,504f7869-4d2d-4777-9269-7374636f6d70,A*%
%TF.SameCoordinates,Original*%
%TF.FileFunction,Legend,Top*%
%TF.FilePolarity,Positive*%
%FSLAX46Y46*%
G04 Gerber Fmt 4.6, Leading zero omitted, Abs format (unit mm)*
G04 Created by KiCad (PCBNEW (5.1.0-0)) date 2020-07-09 23:17:02*
%MOMM*%
%LPD*%
G04 APERTURE LIST*
%ADD10C,0.150000*%
%ADD11C,0.010000*%
%ADD12C,0.120000*%
%ADD13C,0.127000*%
%ADD14C,0.400000*%
%ADD15C,0.100000*%
%ADD16C,0.160000*%
G04 APERTURE END LIST*
D10*
X83176309Y-139811904D02*
X83671547Y-139811904D01*
X83404880Y-140116666D01*
X83519166Y-140116666D01*
X83595357Y-140154761D01*
X83633452Y-140192857D01*
X83671547Y-140269047D01*
X83671547Y-140459523D01*
X83633452Y-140535714D01*
X83595357Y-140573809D01*
X83519166Y-140611904D01*
X83290595Y-140611904D01*
X83214404Y-140573809D01*
X83176309Y-140535714D01*
X84014404Y-140535714D02*
X84052500Y-140573809D01*
X84014404Y-140611904D01*
X83976309Y-140573809D01*
X84014404Y-140535714D01*
X84014404Y-140611904D01*
X84319166Y-139811904D02*
X84814404Y-139811904D01*
X84547738Y-140116666D01*
X84662023Y-140116666D01*
X84738214Y-140154761D01*
X84776309Y-140192857D01*
X84814404Y-140269047D01*
X84814404Y-140459523D01*
X84776309Y-140535714D01*
X84738214Y-140573809D01*
X84662023Y-140611904D01*
X84433452Y-140611904D01*
X84357261Y-140573809D01*
X84319166Y-140535714D01*
X85042976Y-139811904D02*
X85309642Y-140611904D01*
X85576309Y-139811904D01*
X77707023Y-134550000D02*
X77630833Y-134511904D01*
X77516547Y-134511904D01*
X77402261Y-134550000D01*
X77326071Y-134626190D01*
X77287976Y-134702380D01*
X77249880Y-134854761D01*
X77249880Y-134969047D01*
X77287976Y-135121428D01*
X77326071Y-135197619D01*
X77402261Y-135273809D01*
X77516547Y-135311904D01*
X77592738Y-135311904D01*
X77707023Y-135273809D01*
X77745119Y-135235714D01*
X77745119Y-134969047D01*
X77592738Y-134969047D01*
X78087976Y-135311904D02*
X78087976Y-134511904D01*
X78545119Y-135311904D01*
X78545119Y-134511904D01*
X78926071Y-135311904D02*
X78926071Y-134511904D01*
X79116547Y-134511904D01*
X79230833Y-134550000D01*
X79307023Y-134626190D01*
X79345119Y-134702380D01*
X79383214Y-134854761D01*
X79383214Y-134969047D01*
X79345119Y-135121428D01*
X79307023Y-135197619D01*
X79230833Y-135273809D01*
X79116547Y-135311904D01*
X78926071Y-135311904D01*
X79687976Y-135083333D02*
X80068928Y-135083333D01*
X79611785Y-135311904D02*
X79878452Y-134511904D01*
X80145119Y-135311904D01*
X70888095Y-138787976D02*
X71688095Y-138787976D01*
X71688095Y-139092738D01*
X71650000Y-139168928D01*
X71611904Y-139207023D01*
X71535714Y-139245119D01*
X71421428Y-139245119D01*
X71345238Y-139207023D01*
X71307142Y-139168928D01*
X71269047Y-139092738D01*
X71269047Y-138787976D01*
X70888095Y-139587976D02*
X71688095Y-139587976D01*
X71688095Y-139778452D01*
X71650000Y-139892738D01*
X71573809Y-139968928D01*
X71497619Y-140007023D01*
X71345238Y-140045119D01*
X71230952Y-140045119D01*
X71078571Y-140007023D01*
X71002380Y-139968928D01*
X70926190Y-139892738D01*
X70888095Y-139778452D01*
X70888095Y-139587976D01*
X79237976Y-127861904D02*
X79237976Y-127061904D01*
X80076071Y-127861904D02*
X79809404Y-127480952D01*
X79618928Y-127861904D02*
X79618928Y-127061904D01*
X79923690Y-127061904D01*
X79999880Y-127100000D01*
X80037976Y-127138095D01*
X80076071Y-127214285D01*
X80076071Y-127328571D01*
X80037976Y-127404761D01*
X79999880Y-127442857D01*
X79923690Y-127480952D01*
X79618928Y-127480952D01*
X81640595Y-127861904D02*
X81373928Y-127480952D01*
X81183452Y-127861904D02*
X81183452Y-127061904D01*
X81488214Y-127061904D01*
X81564404Y-127100000D01*
X81602500Y-127138095D01*
X81640595Y-127214285D01*
X81640595Y-127328571D01*
X81602500Y-127404761D01*
X81564404Y-127442857D01*
X81488214Y-127480952D01*
X81183452Y-127480952D01*
X82288214Y-127823809D02*
X82212023Y-127861904D01*
X82059642Y-127861904D01*
X81983452Y-127823809D01*
X81945357Y-127747619D01*
X81945357Y-127442857D01*
X81983452Y-127366666D01*
X82059642Y-127328571D01*
X82212023Y-127328571D01*
X82288214Y-127366666D01*
X82326309Y-127442857D01*
X82326309Y-127519047D01*
X81945357Y-127595238D01*
X83012023Y-127861904D02*
X83012023Y-127061904D01*
X83012023Y-127823809D02*
X82935833Y-127861904D01*
X82783452Y-127861904D01*
X82707261Y-127823809D01*
X82669166Y-127785714D01*
X82631071Y-127709523D01*
X82631071Y-127480952D01*
X82669166Y-127404761D01*
X82707261Y-127366666D01*
X82783452Y-127328571D01*
X82935833Y-127328571D01*
X83012023Y-127366666D01*
X96583452Y-138323809D02*
X96697738Y-138361904D01*
X96888214Y-138361904D01*
X96964404Y-138323809D01*
X97002500Y-138285714D01*
X97040595Y-138209523D01*
X97040595Y-138133333D01*
X97002500Y-138057142D01*
X96964404Y-138019047D01*
X96888214Y-137980952D01*
X96735833Y-137942857D01*
X96659642Y-137904761D01*
X96621547Y-137866666D01*
X96583452Y-137790476D01*
X96583452Y-137714285D01*
X96621547Y-137638095D01*
X96659642Y-137600000D01*
X96735833Y-137561904D01*
X96926309Y-137561904D01*
X97040595Y-137600000D01*
X97307261Y-137561904D02*
X97497738Y-138361904D01*
X97650119Y-137790476D01*
X97802500Y-138361904D01*
X97992976Y-137561904D01*
X98297738Y-138361904D02*
X98297738Y-137561904D01*
X98678690Y-138361904D02*
X98678690Y-137561904D01*
X98945357Y-138133333D01*
X99212023Y-137561904D01*
X99212023Y-138361904D01*
X103287976Y-142061904D02*
X103287976Y-142709523D01*
X103326071Y-142785714D01*
X103364166Y-142823809D01*
X103440357Y-142861904D01*
X103592738Y-142861904D01*
X103668928Y-142823809D01*
X103707023Y-142785714D01*
X103745119Y-142709523D01*
X103745119Y-142061904D01*
X104087976Y-142633333D02*
X104468928Y-142633333D01*
X104011785Y-142861904D02*
X104278452Y-142061904D01*
X104545119Y-142861904D01*
X105268928Y-142861904D02*
X105002261Y-142480952D01*
X104811785Y-142861904D02*
X104811785Y-142061904D01*
X105116547Y-142061904D01*
X105192738Y-142100000D01*
X105230833Y-142138095D01*
X105268928Y-142214285D01*
X105268928Y-142328571D01*
X105230833Y-142404761D01*
X105192738Y-142442857D01*
X105116547Y-142480952D01*
X104811785Y-142480952D01*
X105497500Y-142061904D02*
X105954642Y-142061904D01*
X105726071Y-142861904D02*
X105726071Y-142061904D01*
X106221309Y-142785714D02*
X106259404Y-142823809D01*
X106221309Y-142861904D01*
X106183214Y-142823809D01*
X106221309Y-142785714D01*
X106221309Y-142861904D01*
X106487976Y-142061904D02*
X106945119Y-142061904D01*
X106716547Y-142861904D02*
X106716547Y-142061904D01*
X107135595Y-142061904D02*
X107668928Y-142861904D01*
X107668928Y-142061904D02*
X107135595Y-142861904D01*
X102073928Y-130350000D02*
X101997738Y-130311904D01*
X101883452Y-130311904D01*
X101769166Y-130350000D01*
X101692976Y-130426190D01*
X101654880Y-130502380D01*
X101616785Y-130654761D01*
X101616785Y-130769047D01*
X101654880Y-130921428D01*
X101692976Y-130997619D01*
X101769166Y-131073809D01*
X101883452Y-131111904D01*
X101959642Y-131111904D01*
X102073928Y-131073809D01*
X102112023Y-131035714D01*
X102112023Y-130769047D01*
X101959642Y-130769047D01*
X102454880Y-131111904D02*
X102454880Y-130311904D01*
X102912023Y-131111904D01*
X102912023Y-130311904D01*
X103292976Y-131111904D02*
X103292976Y-130311904D01*
X103483452Y-130311904D01*
X103597738Y-130350000D01*
X103673928Y-130426190D01*
X103712023Y-130502380D01*
X103750119Y-130654761D01*
X103750119Y-130769047D01*
X103712023Y-130921428D01*
X103673928Y-130997619D01*
X103597738Y-131073809D01*
X103483452Y-131111904D01*
X103292976Y-131111904D01*
X109168928Y-135811904D02*
X108787976Y-135811904D01*
X108749880Y-136192857D01*
X108787976Y-136154761D01*
X108864166Y-136116666D01*
X109054642Y-136116666D01*
X109130833Y-136154761D01*
X109168928Y-136192857D01*
X109207023Y-136269047D01*
X109207023Y-136459523D01*
X109168928Y-136535714D01*
X109130833Y-136573809D01*
X109054642Y-136611904D01*
X108864166Y-136611904D01*
X108787976Y-136573809D01*
X108749880Y-136535714D01*
X109435595Y-135811904D02*
X109702261Y-136611904D01*
X109968928Y-135811904D01*
D11*
%TO.C,G\002A\002A\002A*%
G36*
X93299959Y-133384791D02*
G01*
X93328987Y-133394947D01*
X93354924Y-133410921D01*
X93376749Y-133431935D01*
X93393444Y-133457210D01*
X93403537Y-133484113D01*
X93408812Y-133505070D01*
X93411664Y-133491734D01*
X93420642Y-133465904D01*
X93435649Y-133440745D01*
X93455187Y-133418110D01*
X93477756Y-133399853D01*
X93492714Y-133391498D01*
X93510535Y-133385990D01*
X93532847Y-133383023D01*
X93556959Y-133382596D01*
X93580176Y-133384710D01*
X93599806Y-133389364D01*
X93605126Y-133391498D01*
X93624458Y-133403228D01*
X93643993Y-133419840D01*
X93661393Y-133439031D01*
X93674320Y-133458497D01*
X93675500Y-133460825D01*
X93680967Y-133473319D01*
X93684156Y-133484863D01*
X93685644Y-133498410D01*
X93686006Y-133514596D01*
X93685346Y-133532131D01*
X93682840Y-133547728D01*
X93677853Y-133562865D01*
X93669748Y-133579019D01*
X93657890Y-133597670D01*
X93641643Y-133620293D01*
X93639044Y-133623778D01*
X93631775Y-133632705D01*
X93620450Y-133645608D01*
X93605739Y-133661798D01*
X93588311Y-133680584D01*
X93568833Y-133701276D01*
X93547976Y-133723185D01*
X93526409Y-133745620D01*
X93504799Y-133767892D01*
X93483816Y-133789311D01*
X93464130Y-133809186D01*
X93446408Y-133826829D01*
X93431320Y-133841548D01*
X93419535Y-133852654D01*
X93411721Y-133859457D01*
X93408721Y-133861341D01*
X93405238Y-133858729D01*
X93397053Y-133851310D01*
X93384811Y-133839705D01*
X93369155Y-133824539D01*
X93350731Y-133806434D01*
X93330182Y-133786013D01*
X93313090Y-133768874D01*
X93276523Y-133731676D01*
X93245240Y-133698961D01*
X93218791Y-133670197D01*
X93196723Y-133644850D01*
X93178585Y-133622385D01*
X93163927Y-133602270D01*
X93152297Y-133583970D01*
X93144444Y-133569423D01*
X93137006Y-133553587D01*
X93132649Y-133541533D01*
X93130644Y-133530440D01*
X93130261Y-133517490D01*
X93130308Y-133514784D01*
X93134542Y-133483772D01*
X93145351Y-133455451D01*
X93161934Y-133430593D01*
X93183488Y-133409971D01*
X93209213Y-133394356D01*
X93238309Y-133384521D01*
X93268857Y-133381233D01*
X93299959Y-133384791D01*
X93299959Y-133384791D01*
G37*
X93299959Y-133384791D02*
X93328987Y-133394947D01*
X93354924Y-133410921D01*
X93376749Y-133431935D01*
X93393444Y-133457210D01*
X93403537Y-133484113D01*
X93408812Y-133505070D01*
X93411664Y-133491734D01*
X93420642Y-133465904D01*
X93435649Y-133440745D01*
X93455187Y-133418110D01*
X93477756Y-133399853D01*
X93492714Y-133391498D01*
X93510535Y-133385990D01*
X93532847Y-133383023D01*
X93556959Y-133382596D01*
X93580176Y-133384710D01*
X93599806Y-133389364D01*
X93605126Y-133391498D01*
X93624458Y-133403228D01*
X93643993Y-133419840D01*
X93661393Y-133439031D01*
X93674320Y-133458497D01*
X93675500Y-133460825D01*
X93680967Y-133473319D01*
X93684156Y-133484863D01*
X93685644Y-133498410D01*
X93686006Y-133514596D01*
X93685346Y-133532131D01*
X93682840Y-133547728D01*
X93677853Y-133562865D01*
X93669748Y-133579019D01*
X93657890Y-133597670D01*
X93641643Y-133620293D01*
X93639044Y-133623778D01*
X93631775Y-133632705D01*
X93620450Y-133645608D01*
X93605739Y-133661798D01*
X93588311Y-133680584D01*
X93568833Y-133701276D01*
X93547976Y-133723185D01*
X93526409Y-133745620D01*
X93504799Y-133767892D01*
X93483816Y-133789311D01*
X93464130Y-133809186D01*
X93446408Y-133826829D01*
X93431320Y-133841548D01*
X93419535Y-133852654D01*
X93411721Y-133859457D01*
X93408721Y-133861341D01*
X93405238Y-133858729D01*
X93397053Y-133851310D01*
X93384811Y-133839705D01*
X93369155Y-133824539D01*
X93350731Y-133806434D01*
X93330182Y-133786013D01*
X93313090Y-133768874D01*
X93276523Y-133731676D01*
X93245240Y-133698961D01*
X93218791Y-133670197D01*
X93196723Y-133644850D01*
X93178585Y-133622385D01*
X93163927Y-133602270D01*
X93152297Y-133583970D01*
X93144444Y-133569423D01*
X93137006Y-133553587D01*
X93132649Y-133541533D01*
X93130644Y-133530440D01*
X93130261Y-133517490D01*
X93130308Y-133514784D01*
X93134542Y-133483772D01*
X93145351Y-133455451D01*
X93161934Y-133430593D01*
X93183488Y-133409971D01*
X93209213Y-133394356D01*
X93238309Y-133384521D01*
X93268857Y-133381233D01*
X93299959Y-133384791D01*
G36*
X95566099Y-133377962D02*
G01*
X95591610Y-133378431D01*
X95612434Y-133379246D01*
X95629304Y-133380456D01*
X95642952Y-133382113D01*
X95654112Y-133384265D01*
X95663517Y-133386962D01*
X95671900Y-133390254D01*
X95678418Y-133393378D01*
X95700420Y-133408103D01*
X95720516Y-133428030D01*
X95736413Y-133450750D01*
X95740348Y-133458453D01*
X95751321Y-133482208D01*
X95751321Y-135017792D01*
X95740348Y-135041547D01*
X95723796Y-135068582D01*
X95701724Y-135090840D01*
X95675081Y-135107567D01*
X95644819Y-135118009D01*
X95643490Y-135118297D01*
X95631897Y-135119835D01*
X95614334Y-135121026D01*
X95592445Y-135121866D01*
X95567873Y-135122348D01*
X95542263Y-135122468D01*
X95517257Y-135122219D01*
X95494499Y-135121597D01*
X95475632Y-135120595D01*
X95462301Y-135119207D01*
X95460629Y-135118919D01*
X95429617Y-135109291D01*
X95402095Y-135093149D01*
X95378926Y-135071130D01*
X95361978Y-135045820D01*
X95351231Y-135025412D01*
X95350382Y-134832988D01*
X95350255Y-134800378D01*
X95350189Y-134770676D01*
X95350208Y-134743178D01*
X95350331Y-134717182D01*
X95350582Y-134691984D01*
X95350982Y-134666881D01*
X95351552Y-134641171D01*
X95352315Y-134614149D01*
X95353293Y-134585114D01*
X95354506Y-134553362D01*
X95355977Y-134518189D01*
X95357727Y-134478893D01*
X95359779Y-134434771D01*
X95362153Y-134385119D01*
X95364872Y-134329234D01*
X95367828Y-134269052D01*
X95370384Y-134216499D01*
X95372773Y-134166092D01*
X95374975Y-134118353D01*
X95376967Y-134073804D01*
X95378728Y-134032966D01*
X95380238Y-133996362D01*
X95381475Y-133964513D01*
X95382418Y-133937943D01*
X95383045Y-133917173D01*
X95383335Y-133902725D01*
X95383268Y-133895121D01*
X95383107Y-133894061D01*
X95379911Y-133894674D01*
X95376199Y-133900849D01*
X95375904Y-133901598D01*
X95374219Y-133906392D01*
X95370210Y-133918002D01*
X95364011Y-133936033D01*
X95355757Y-133960087D01*
X95345586Y-133989769D01*
X95333631Y-134024683D01*
X95320029Y-134064433D01*
X95304914Y-134108621D01*
X95288423Y-134156853D01*
X95270692Y-134208732D01*
X95251855Y-134263861D01*
X95232048Y-134321845D01*
X95211406Y-134382288D01*
X95190066Y-134444792D01*
X95179197Y-134476634D01*
X95152055Y-134556095D01*
X95127248Y-134628598D01*
X95104683Y-134694408D01*
X95084267Y-134753792D01*
X95065905Y-134807014D01*
X95049504Y-134854340D01*
X95034971Y-134896035D01*
X95022213Y-134932366D01*
X95011135Y-134963596D01*
X95001645Y-134989993D01*
X94993650Y-135011821D01*
X94987055Y-135029346D01*
X94981767Y-135042833D01*
X94977693Y-135052548D01*
X94974739Y-135058756D01*
X94973645Y-135060641D01*
X94955046Y-135082818D01*
X94931381Y-135101227D01*
X94905416Y-135113909D01*
X94896649Y-135116514D01*
X94886390Y-135118381D01*
X94873271Y-135119620D01*
X94855924Y-135120337D01*
X94832981Y-135120641D01*
X94819682Y-135120672D01*
X94795540Y-135120630D01*
X94777579Y-135120389D01*
X94764357Y-135119773D01*
X94754436Y-135118609D01*
X94746375Y-135116722D01*
X94738734Y-135113937D01*
X94730072Y-135110081D01*
X94729291Y-135109720D01*
X94710879Y-135098898D01*
X94692373Y-135084099D01*
X94676040Y-135067415D01*
X94664144Y-135050943D01*
X94662594Y-135048054D01*
X94660752Y-135043235D01*
X94656598Y-135031597D01*
X94650268Y-135013535D01*
X94641897Y-134989447D01*
X94631623Y-134959729D01*
X94619581Y-134924777D01*
X94605908Y-134884990D01*
X94590739Y-134840763D01*
X94574210Y-134792493D01*
X94556459Y-134740577D01*
X94537621Y-134685412D01*
X94517831Y-134627394D01*
X94497227Y-134566920D01*
X94475944Y-134504387D01*
X94465239Y-134472907D01*
X94443719Y-134409647D01*
X94422840Y-134348337D01*
X94402734Y-134289367D01*
X94383536Y-134233126D01*
X94365380Y-134180004D01*
X94348398Y-134130391D01*
X94332726Y-134084677D01*
X94318497Y-134043251D01*
X94305844Y-134006503D01*
X94294901Y-133974823D01*
X94285802Y-133948600D01*
X94278682Y-133928223D01*
X94273673Y-133914084D01*
X94270910Y-133906571D01*
X94270406Y-133905414D01*
X94266361Y-133903258D01*
X94265489Y-133903673D01*
X94265420Y-133907650D01*
X94265711Y-133918729D01*
X94266338Y-133936402D01*
X94267280Y-133960161D01*
X94268515Y-133989495D01*
X94270018Y-134023898D01*
X94271769Y-134062860D01*
X94273744Y-134105872D01*
X94275922Y-134152426D01*
X94278279Y-134202012D01*
X94280793Y-134254124D01*
X94282647Y-134292078D01*
X94285783Y-134356174D01*
X94288552Y-134413317D01*
X94290975Y-134464164D01*
X94293072Y-134509373D01*
X94294866Y-134549603D01*
X94296377Y-134585510D01*
X94297626Y-134617752D01*
X94298635Y-134646987D01*
X94299424Y-134673874D01*
X94300015Y-134699068D01*
X94300429Y-134723229D01*
X94300687Y-134747014D01*
X94300811Y-134771080D01*
X94300821Y-134796086D01*
X94300738Y-134822688D01*
X94300593Y-134850135D01*
X94300340Y-134890777D01*
X94300089Y-134924525D01*
X94299803Y-134952107D01*
X94299445Y-134974250D01*
X94298980Y-134991681D01*
X94298372Y-135005127D01*
X94297583Y-135015316D01*
X94296577Y-135022974D01*
X94295318Y-135028829D01*
X94293770Y-135033608D01*
X94291896Y-135038039D01*
X94291113Y-135039735D01*
X94280195Y-135057924D01*
X94265047Y-135076333D01*
X94247896Y-135092606D01*
X94230970Y-135104382D01*
X94229149Y-135105337D01*
X94214560Y-135111472D01*
X94197970Y-135116775D01*
X94191735Y-135118293D01*
X94180971Y-135119672D01*
X94164177Y-135120744D01*
X94142940Y-135121505D01*
X94118843Y-135121953D01*
X94093473Y-135122086D01*
X94068414Y-135121899D01*
X94045252Y-135121392D01*
X94025572Y-135120560D01*
X94010959Y-135119402D01*
X94005614Y-135118616D01*
X93978510Y-135109622D01*
X93952975Y-135094348D01*
X93930702Y-135074132D01*
X93913387Y-135050315D01*
X93909361Y-135042559D01*
X93899475Y-135021602D01*
X93899475Y-133478398D01*
X93909372Y-133457441D01*
X93925995Y-133431006D01*
X93948616Y-133408802D01*
X93976439Y-133391608D01*
X93976984Y-133391348D01*
X94002356Y-133379328D01*
X94179538Y-133379328D01*
X94220870Y-133379334D01*
X94255307Y-133379375D01*
X94283573Y-133379482D01*
X94306393Y-133379687D01*
X94324493Y-133380022D01*
X94338598Y-133380520D01*
X94349432Y-133381212D01*
X94357722Y-133382130D01*
X94364191Y-133383307D01*
X94369566Y-133384773D01*
X94374570Y-133386562D01*
X94378447Y-133388106D01*
X94401285Y-133400402D01*
X94422374Y-133417395D01*
X94439528Y-133437104D01*
X94447784Y-133450953D01*
X94449650Y-133456015D01*
X94453662Y-133467799D01*
X94459669Y-133485829D01*
X94467516Y-133509629D01*
X94477050Y-133538723D01*
X94488119Y-133572634D01*
X94500569Y-133610888D01*
X94514247Y-133653007D01*
X94528999Y-133698515D01*
X94544673Y-133746937D01*
X94561115Y-133797797D01*
X94578173Y-133850618D01*
X94595692Y-133904924D01*
X94613520Y-133960240D01*
X94631503Y-134016088D01*
X94649488Y-134071994D01*
X94667323Y-134127481D01*
X94684853Y-134182073D01*
X94701926Y-134235294D01*
X94718389Y-134286668D01*
X94734088Y-134335718D01*
X94748870Y-134381969D01*
X94762581Y-134424945D01*
X94775070Y-134464170D01*
X94786182Y-134499167D01*
X94795764Y-134529460D01*
X94803663Y-134554574D01*
X94809726Y-134574032D01*
X94813800Y-134587358D01*
X94815731Y-134594077D01*
X94815872Y-134594778D01*
X94818910Y-134596606D01*
X94820635Y-134596737D01*
X94822452Y-134593137D01*
X94826511Y-134582465D01*
X94832750Y-134564913D01*
X94841103Y-134540674D01*
X94851509Y-134509939D01*
X94863902Y-134472901D01*
X94878220Y-134429751D01*
X94894399Y-134380682D01*
X94912375Y-134325885D01*
X94932084Y-134265552D01*
X94953463Y-134199875D01*
X94976448Y-134129047D01*
X95000976Y-134053259D01*
X95006048Y-134037564D01*
X95026592Y-133974037D01*
X95046618Y-133912242D01*
X95065988Y-133852594D01*
X95084568Y-133795505D01*
X95102220Y-133741389D01*
X95118810Y-133690659D01*
X95134202Y-133643729D01*
X95148258Y-133601012D01*
X95160845Y-133562921D01*
X95171825Y-133529869D01*
X95181064Y-133502271D01*
X95188424Y-133480539D01*
X95193771Y-133465086D01*
X95196968Y-133456326D01*
X95197565Y-133454895D01*
X95212934Y-133430194D01*
X95234006Y-133408829D01*
X95259060Y-133392421D01*
X95268539Y-133388113D01*
X95273981Y-133385990D01*
X95279321Y-133384234D01*
X95285323Y-133382804D01*
X95292747Y-133381659D01*
X95302357Y-133380757D01*
X95314916Y-133380059D01*
X95331185Y-133379522D01*
X95351927Y-133379106D01*
X95377905Y-133378770D01*
X95409880Y-133378473D01*
X95448616Y-133378174D01*
X95454111Y-133378133D01*
X95498082Y-133377863D01*
X95535167Y-133377789D01*
X95566099Y-133377962D01*
X95566099Y-133377962D01*
G37*
X95566099Y-133377962D02*
X95591610Y-133378431D01*
X95612434Y-133379246D01*
X95629304Y-133380456D01*
X95642952Y-133382113D01*
X95654112Y-133384265D01*
X95663517Y-133386962D01*
X95671900Y-133390254D01*
X95678418Y-133393378D01*
X95700420Y-133408103D01*
X95720516Y-133428030D01*
X95736413Y-133450750D01*
X95740348Y-133458453D01*
X95751321Y-133482208D01*
X95751321Y-135017792D01*
X95740348Y-135041547D01*
X95723796Y-135068582D01*
X95701724Y-135090840D01*
X95675081Y-135107567D01*
X95644819Y-135118009D01*
X95643490Y-135118297D01*
X95631897Y-135119835D01*
X95614334Y-135121026D01*
X95592445Y-135121866D01*
X95567873Y-135122348D01*
X95542263Y-135122468D01*
X95517257Y-135122219D01*
X95494499Y-135121597D01*
X95475632Y-135120595D01*
X95462301Y-135119207D01*
X95460629Y-135118919D01*
X95429617Y-135109291D01*
X95402095Y-135093149D01*
X95378926Y-135071130D01*
X95361978Y-135045820D01*
X95351231Y-135025412D01*
X95350382Y-134832988D01*
X95350255Y-134800378D01*
X95350189Y-134770676D01*
X95350208Y-134743178D01*
X95350331Y-134717182D01*
X95350582Y-134691984D01*
X95350982Y-134666881D01*
X95351552Y-134641171D01*
X95352315Y-134614149D01*
X95353293Y-134585114D01*
X95354506Y-134553362D01*
X95355977Y-134518189D01*
X95357727Y-134478893D01*
X95359779Y-134434771D01*
X95362153Y-134385119D01*
X95364872Y-134329234D01*
X95367828Y-134269052D01*
X95370384Y-134216499D01*
X95372773Y-134166092D01*
X95374975Y-134118353D01*
X95376967Y-134073804D01*
X95378728Y-134032966D01*
X95380238Y-133996362D01*
X95381475Y-133964513D01*
X95382418Y-133937943D01*
X95383045Y-133917173D01*
X95383335Y-133902725D01*
X95383268Y-133895121D01*
X95383107Y-133894061D01*
X95379911Y-133894674D01*
X95376199Y-133900849D01*
X95375904Y-133901598D01*
X95374219Y-133906392D01*
X95370210Y-133918002D01*
X95364011Y-133936033D01*
X95355757Y-133960087D01*
X95345586Y-133989769D01*
X95333631Y-134024683D01*
X95320029Y-134064433D01*
X95304914Y-134108621D01*
X95288423Y-134156853D01*
X95270692Y-134208732D01*
X95251855Y-134263861D01*
X95232048Y-134321845D01*
X95211406Y-134382288D01*
X95190066Y-134444792D01*
X95179197Y-134476634D01*
X95152055Y-134556095D01*
X95127248Y-134628598D01*
X95104683Y-134694408D01*
X95084267Y-134753792D01*
X95065905Y-134807014D01*
X95049504Y-134854340D01*
X95034971Y-134896035D01*
X95022213Y-134932366D01*
X95011135Y-134963596D01*
X95001645Y-134989993D01*
X94993650Y-135011821D01*
X94987055Y-135029346D01*
X94981767Y-135042833D01*
X94977693Y-135052548D01*
X94974739Y-135058756D01*
X94973645Y-135060641D01*
X94955046Y-135082818D01*
X94931381Y-135101227D01*
X94905416Y-135113909D01*
X94896649Y-135116514D01*
X94886390Y-135118381D01*
X94873271Y-135119620D01*
X94855924Y-135120337D01*
X94832981Y-135120641D01*
X94819682Y-135120672D01*
X94795540Y-135120630D01*
X94777579Y-135120389D01*
X94764357Y-135119773D01*
X94754436Y-135118609D01*
X94746375Y-135116722D01*
X94738734Y-135113937D01*
X94730072Y-135110081D01*
X94729291Y-135109720D01*
X94710879Y-135098898D01*
X94692373Y-135084099D01*
X94676040Y-135067415D01*
X94664144Y-135050943D01*
X94662594Y-135048054D01*
X94660752Y-135043235D01*
X94656598Y-135031597D01*
X94650268Y-135013535D01*
X94641897Y-134989447D01*
X94631623Y-134959729D01*
X94619581Y-134924777D01*
X94605908Y-134884990D01*
X94590739Y-134840763D01*
X94574210Y-134792493D01*
X94556459Y-134740577D01*
X94537621Y-134685412D01*
X94517831Y-134627394D01*
X94497227Y-134566920D01*
X94475944Y-134504387D01*
X94465239Y-134472907D01*
X94443719Y-134409647D01*
X94422840Y-134348337D01*
X94402734Y-134289367D01*
X94383536Y-134233126D01*
X94365380Y-134180004D01*
X94348398Y-134130391D01*
X94332726Y-134084677D01*
X94318497Y-134043251D01*
X94305844Y-134006503D01*
X94294901Y-133974823D01*
X94285802Y-133948600D01*
X94278682Y-133928223D01*
X94273673Y-133914084D01*
X94270910Y-133906571D01*
X94270406Y-133905414D01*
X94266361Y-133903258D01*
X94265489Y-133903673D01*
X94265420Y-133907650D01*
X94265711Y-133918729D01*
X94266338Y-133936402D01*
X94267280Y-133960161D01*
X94268515Y-133989495D01*
X94270018Y-134023898D01*
X94271769Y-134062860D01*
X94273744Y-134105872D01*
X94275922Y-134152426D01*
X94278279Y-134202012D01*
X94280793Y-134254124D01*
X94282647Y-134292078D01*
X94285783Y-134356174D01*
X94288552Y-134413317D01*
X94290975Y-134464164D01*
X94293072Y-134509373D01*
X94294866Y-134549603D01*
X94296377Y-134585510D01*
X94297626Y-134617752D01*
X94298635Y-134646987D01*
X94299424Y-134673874D01*
X94300015Y-134699068D01*
X94300429Y-134723229D01*
X94300687Y-134747014D01*
X94300811Y-134771080D01*
X94300821Y-134796086D01*
X94300738Y-134822688D01*
X94300593Y-134850135D01*
X94300340Y-134890777D01*
X94300089Y-134924525D01*
X94299803Y-134952107D01*
X94299445Y-134974250D01*
X94298980Y-134991681D01*
X94298372Y-135005127D01*
X94297583Y-135015316D01*
X94296577Y-135022974D01*
X94295318Y-135028829D01*
X94293770Y-135033608D01*
X94291896Y-135038039D01*
X94291113Y-135039735D01*
X94280195Y-135057924D01*
X94265047Y-135076333D01*
X94247896Y-135092606D01*
X94230970Y-135104382D01*
X94229149Y-135105337D01*
X94214560Y-135111472D01*
X94197970Y-135116775D01*
X94191735Y-135118293D01*
X94180971Y-135119672D01*
X94164177Y-135120744D01*
X94142940Y-135121505D01*
X94118843Y-135121953D01*
X94093473Y-135122086D01*
X94068414Y-135121899D01*
X94045252Y-135121392D01*
X94025572Y-135120560D01*
X94010959Y-135119402D01*
X94005614Y-135118616D01*
X93978510Y-135109622D01*
X93952975Y-135094348D01*
X93930702Y-135074132D01*
X93913387Y-135050315D01*
X93909361Y-135042559D01*
X93899475Y-135021602D01*
X93899475Y-133478398D01*
X93909372Y-133457441D01*
X93925995Y-133431006D01*
X93948616Y-133408802D01*
X93976439Y-133391608D01*
X93976984Y-133391348D01*
X94002356Y-133379328D01*
X94179538Y-133379328D01*
X94220870Y-133379334D01*
X94255307Y-133379375D01*
X94283573Y-133379482D01*
X94306393Y-133379687D01*
X94324493Y-133380022D01*
X94338598Y-133380520D01*
X94349432Y-133381212D01*
X94357722Y-133382130D01*
X94364191Y-133383307D01*
X94369566Y-133384773D01*
X94374570Y-133386562D01*
X94378447Y-133388106D01*
X94401285Y-133400402D01*
X94422374Y-133417395D01*
X94439528Y-133437104D01*
X94447784Y-133450953D01*
X94449650Y-133456015D01*
X94453662Y-133467799D01*
X94459669Y-133485829D01*
X94467516Y-133509629D01*
X94477050Y-133538723D01*
X94488119Y-133572634D01*
X94500569Y-133610888D01*
X94514247Y-133653007D01*
X94528999Y-133698515D01*
X94544673Y-133746937D01*
X94561115Y-133797797D01*
X94578173Y-133850618D01*
X94595692Y-133904924D01*
X94613520Y-133960240D01*
X94631503Y-134016088D01*
X94649488Y-134071994D01*
X94667323Y-134127481D01*
X94684853Y-134182073D01*
X94701926Y-134235294D01*
X94718389Y-134286668D01*
X94734088Y-134335718D01*
X94748870Y-134381969D01*
X94762581Y-134424945D01*
X94775070Y-134464170D01*
X94786182Y-134499167D01*
X94795764Y-134529460D01*
X94803663Y-134554574D01*
X94809726Y-134574032D01*
X94813800Y-134587358D01*
X94815731Y-134594077D01*
X94815872Y-134594778D01*
X94818910Y-134596606D01*
X94820635Y-134596737D01*
X94822452Y-134593137D01*
X94826511Y-134582465D01*
X94832750Y-134564913D01*
X94841103Y-134540674D01*
X94851509Y-134509939D01*
X94863902Y-134472901D01*
X94878220Y-134429751D01*
X94894399Y-134380682D01*
X94912375Y-134325885D01*
X94932084Y-134265552D01*
X94953463Y-134199875D01*
X94976448Y-134129047D01*
X95000976Y-134053259D01*
X95006048Y-134037564D01*
X95026592Y-133974037D01*
X95046618Y-133912242D01*
X95065988Y-133852594D01*
X95084568Y-133795505D01*
X95102220Y-133741389D01*
X95118810Y-133690659D01*
X95134202Y-133643729D01*
X95148258Y-133601012D01*
X95160845Y-133562921D01*
X95171825Y-133529869D01*
X95181064Y-133502271D01*
X95188424Y-133480539D01*
X95193771Y-133465086D01*
X95196968Y-133456326D01*
X95197565Y-133454895D01*
X95212934Y-133430194D01*
X95234006Y-133408829D01*
X95259060Y-133392421D01*
X95268539Y-133388113D01*
X95273981Y-133385990D01*
X95279321Y-133384234D01*
X95285323Y-133382804D01*
X95292747Y-133381659D01*
X95302357Y-133380757D01*
X95314916Y-133380059D01*
X95331185Y-133379522D01*
X95351927Y-133379106D01*
X95377905Y-133378770D01*
X95409880Y-133378473D01*
X95448616Y-133378174D01*
X95454111Y-133378133D01*
X95498082Y-133377863D01*
X95535167Y-133377789D01*
X95566099Y-133377962D01*
G36*
X93265978Y-133982326D02*
G01*
X93407984Y-134124268D01*
X93501315Y-134030655D01*
X93525675Y-134006309D01*
X93550517Y-133981638D01*
X93574776Y-133957690D01*
X93597384Y-133935514D01*
X93617276Y-133916157D01*
X93633386Y-133900665D01*
X93639465Y-133894908D01*
X93684284Y-133852772D01*
X93682284Y-135021602D01*
X93673831Y-135039735D01*
X93662913Y-135057924D01*
X93647765Y-135076333D01*
X93630614Y-135092606D01*
X93613688Y-135104382D01*
X93611867Y-135105337D01*
X93603217Y-135109429D01*
X93594472Y-135112822D01*
X93584850Y-135115578D01*
X93573567Y-135117761D01*
X93559837Y-135119433D01*
X93542878Y-135120658D01*
X93521904Y-135121500D01*
X93496133Y-135122020D01*
X93464779Y-135122283D01*
X93427058Y-135122352D01*
X93401081Y-135122326D01*
X93360482Y-135122207D01*
X93326780Y-135121977D01*
X93299248Y-135121612D01*
X93277162Y-135121088D01*
X93259799Y-135120380D01*
X93246432Y-135119464D01*
X93236337Y-135118316D01*
X93228791Y-135116911D01*
X93227036Y-135116469D01*
X93196919Y-135104641D01*
X93170987Y-135086776D01*
X93149996Y-135063538D01*
X93134706Y-135035592D01*
X93134668Y-135035499D01*
X93125968Y-135013981D01*
X93124969Y-134427182D01*
X93123971Y-133840384D01*
X93265978Y-133982326D01*
X93265978Y-133982326D01*
G37*
X93265978Y-133982326D02*
X93407984Y-134124268D01*
X93501315Y-134030655D01*
X93525675Y-134006309D01*
X93550517Y-133981638D01*
X93574776Y-133957690D01*
X93597384Y-133935514D01*
X93617276Y-133916157D01*
X93633386Y-133900665D01*
X93639465Y-133894908D01*
X93684284Y-133852772D01*
X93682284Y-135021602D01*
X93673831Y-135039735D01*
X93662913Y-135057924D01*
X93647765Y-135076333D01*
X93630614Y-135092606D01*
X93613688Y-135104382D01*
X93611867Y-135105337D01*
X93603217Y-135109429D01*
X93594472Y-135112822D01*
X93584850Y-135115578D01*
X93573567Y-135117761D01*
X93559837Y-135119433D01*
X93542878Y-135120658D01*
X93521904Y-135121500D01*
X93496133Y-135122020D01*
X93464779Y-135122283D01*
X93427058Y-135122352D01*
X93401081Y-135122326D01*
X93360482Y-135122207D01*
X93326780Y-135121977D01*
X93299248Y-135121612D01*
X93277162Y-135121088D01*
X93259799Y-135120380D01*
X93246432Y-135119464D01*
X93236337Y-135118316D01*
X93228791Y-135116911D01*
X93227036Y-135116469D01*
X93196919Y-135104641D01*
X93170987Y-135086776D01*
X93149996Y-135063538D01*
X93134706Y-135035592D01*
X93134668Y-135035499D01*
X93125968Y-135013981D01*
X93124969Y-134427182D01*
X93123971Y-133840384D01*
X93265978Y-133982326D01*
G36*
X92717183Y-133389540D02*
G01*
X92743940Y-133405802D01*
X92766747Y-133427120D01*
X92784047Y-133451965D01*
X92787286Y-133458453D01*
X92793042Y-133472179D01*
X92796379Y-133484352D01*
X92797912Y-133498122D01*
X92798258Y-133514596D01*
X92797905Y-133532022D01*
X92796391Y-133544959D01*
X92793069Y-133556520D01*
X92787292Y-133569820D01*
X92786368Y-133571752D01*
X92782782Y-133578550D01*
X92775655Y-133591448D01*
X92765270Y-133609956D01*
X92751907Y-133633579D01*
X92735847Y-133661826D01*
X92717372Y-133694203D01*
X92696763Y-133730220D01*
X92674301Y-133769382D01*
X92650267Y-133811198D01*
X92624943Y-133855175D01*
X92598609Y-133900821D01*
X92587714Y-133919681D01*
X92400967Y-134242843D01*
X92611368Y-134586945D01*
X92644889Y-134641858D01*
X92676143Y-134693242D01*
X92704956Y-134740803D01*
X92731154Y-134784250D01*
X92754562Y-134823288D01*
X92775007Y-134857626D01*
X92792313Y-134886970D01*
X92806306Y-134911027D01*
X92816812Y-134929504D01*
X92823657Y-134942109D01*
X92826666Y-134948548D01*
X92826716Y-134948716D01*
X92829491Y-134965146D01*
X92830218Y-134985585D01*
X92829849Y-134994652D01*
X92824269Y-135026345D01*
X92811990Y-135054576D01*
X92793298Y-135078934D01*
X92768478Y-135099008D01*
X92750646Y-135108880D01*
X92725878Y-135120672D01*
X92628899Y-135121969D01*
X92592646Y-135122289D01*
X92563000Y-135122107D01*
X92538958Y-135121317D01*
X92519517Y-135119811D01*
X92503673Y-135117481D01*
X92490424Y-135114220D01*
X92478766Y-135109920D01*
X92468152Y-135104722D01*
X92462130Y-135101422D01*
X92456555Y-135098109D01*
X92451219Y-135094414D01*
X92445916Y-135089964D01*
X92440438Y-135084390D01*
X92434579Y-135077321D01*
X92428130Y-135068386D01*
X92420886Y-135057215D01*
X92412638Y-135043437D01*
X92403181Y-135026682D01*
X92392306Y-135006579D01*
X92379806Y-134982757D01*
X92365475Y-134954846D01*
X92349106Y-134922476D01*
X92330491Y-134885275D01*
X92309423Y-134842873D01*
X92285695Y-134794900D01*
X92259100Y-134740984D01*
X92229431Y-134680756D01*
X92216206Y-134653900D01*
X92151472Y-134522442D01*
X92017076Y-134793082D01*
X91991526Y-134844531D01*
X91969099Y-134889614D01*
X91949518Y-134928788D01*
X91932505Y-134962507D01*
X91917784Y-134991228D01*
X91905076Y-135015405D01*
X91894105Y-135035494D01*
X91884593Y-135051950D01*
X91876263Y-135065228D01*
X91868837Y-135075784D01*
X91862039Y-135084072D01*
X91855591Y-135090549D01*
X91849215Y-135095669D01*
X91842634Y-135099888D01*
X91835572Y-135103660D01*
X91827750Y-135107442D01*
X91824723Y-135108880D01*
X91799955Y-135120672D01*
X91706601Y-135121374D01*
X91679662Y-135121433D01*
X91654361Y-135121217D01*
X91631989Y-135120761D01*
X91613835Y-135120095D01*
X91601190Y-135119252D01*
X91596602Y-135118638D01*
X91568157Y-135109003D01*
X91542204Y-135092872D01*
X91520044Y-135071278D01*
X91502976Y-135045252D01*
X91502220Y-135043730D01*
X91494028Y-135020577D01*
X91489927Y-134994593D01*
X91490086Y-134968572D01*
X91494676Y-134945303D01*
X91496000Y-134941584D01*
X91498924Y-134935678D01*
X91505431Y-134923666D01*
X91515251Y-134906017D01*
X91528116Y-134883200D01*
X91543757Y-134855686D01*
X91561905Y-134823943D01*
X91582291Y-134788442D01*
X91604647Y-134749651D01*
X91628703Y-134708041D01*
X91654191Y-134664080D01*
X91680841Y-134618239D01*
X91698916Y-134587218D01*
X91726023Y-134540703D01*
X91752049Y-134495979D01*
X91776735Y-134453495D01*
X91799823Y-134413698D01*
X91821056Y-134377034D01*
X91840174Y-134343951D01*
X91856919Y-134314896D01*
X91871034Y-134290316D01*
X91882260Y-134270658D01*
X91890340Y-134256370D01*
X91895014Y-134247898D01*
X91896123Y-134245662D01*
X91894491Y-134241511D01*
X91889256Y-134231185D01*
X91880646Y-134215091D01*
X91868894Y-134193642D01*
X91854228Y-134167245D01*
X91836879Y-134136312D01*
X91817078Y-134101252D01*
X91795055Y-134062474D01*
X91771040Y-134020390D01*
X91745263Y-133975407D01*
X91717954Y-133927937D01*
X91705167Y-133905769D01*
X91678214Y-133859001D01*
X91652258Y-133813801D01*
X91627565Y-133770644D01*
X91604401Y-133730001D01*
X91583033Y-133692346D01*
X91563728Y-133658151D01*
X91546752Y-133627891D01*
X91532372Y-133602038D01*
X91520854Y-133581065D01*
X91512465Y-133565445D01*
X91507472Y-133555651D01*
X91506203Y-133552724D01*
X91501977Y-133531053D01*
X91501593Y-133506182D01*
X91504866Y-133481380D01*
X91511441Y-133460295D01*
X91523968Y-133439279D01*
X91541788Y-133418961D01*
X91562719Y-133401512D01*
X91581916Y-133390279D01*
X91605626Y-133379328D01*
X91706601Y-133379406D01*
X91738098Y-133379493D01*
X91762956Y-133379738D01*
X91782155Y-133380196D01*
X91796678Y-133380920D01*
X91807506Y-133381965D01*
X91815619Y-133383385D01*
X91821998Y-133385236D01*
X91823812Y-133385919D01*
X91845334Y-133396654D01*
X91865428Y-133410641D01*
X91881453Y-133425956D01*
X91885173Y-133430660D01*
X91888499Y-133436397D01*
X91894823Y-133448440D01*
X91903861Y-133466213D01*
X91915330Y-133489144D01*
X91928947Y-133516659D01*
X91944430Y-133548183D01*
X91961496Y-133583143D01*
X91979862Y-133620966D01*
X91999244Y-133661077D01*
X92018840Y-133701817D01*
X92038731Y-133743233D01*
X92057695Y-133782655D01*
X92075470Y-133819543D01*
X92091795Y-133853357D01*
X92106406Y-133883557D01*
X92119043Y-133909601D01*
X92129444Y-133930950D01*
X92137346Y-133947062D01*
X92142489Y-133957397D01*
X92144609Y-133961416D01*
X92144623Y-133961432D01*
X92146659Y-133958563D01*
X92151751Y-133949351D01*
X92159640Y-133934313D01*
X92170063Y-133913968D01*
X92182763Y-133888834D01*
X92197477Y-133859428D01*
X92213947Y-133826270D01*
X92231911Y-133789876D01*
X92251110Y-133750765D01*
X92271284Y-133709456D01*
X92274607Y-133702630D01*
X92298347Y-133653878D01*
X92319024Y-133611493D01*
X92336897Y-133574982D01*
X92352223Y-133543854D01*
X92365261Y-133517616D01*
X92376269Y-133495776D01*
X92385507Y-133477842D01*
X92393233Y-133463321D01*
X92399704Y-133451723D01*
X92405179Y-133442553D01*
X92409917Y-133435321D01*
X92414176Y-133429534D01*
X92418215Y-133424700D01*
X92422291Y-133420327D01*
X92423468Y-133419125D01*
X92444479Y-133400920D01*
X92465856Y-133388928D01*
X92467287Y-133388338D01*
X92474253Y-133385645D01*
X92480875Y-133383549D01*
X92488196Y-133381976D01*
X92497257Y-133380852D01*
X92509097Y-133380100D01*
X92524760Y-133379647D01*
X92545285Y-133379418D01*
X92571715Y-133379336D01*
X92592515Y-133379328D01*
X92695395Y-133379328D01*
X92717183Y-133389540D01*
X92717183Y-133389540D01*
G37*
X92717183Y-133389540D02*
X92743940Y-133405802D01*
X92766747Y-133427120D01*
X92784047Y-133451965D01*
X92787286Y-133458453D01*
X92793042Y-133472179D01*
X92796379Y-133484352D01*
X92797912Y-133498122D01*
X92798258Y-133514596D01*
X92797905Y-133532022D01*
X92796391Y-133544959D01*
X92793069Y-133556520D01*
X92787292Y-133569820D01*
X92786368Y-133571752D01*
X92782782Y-133578550D01*
X92775655Y-133591448D01*
X92765270Y-133609956D01*
X92751907Y-133633579D01*
X92735847Y-133661826D01*
X92717372Y-133694203D01*
X92696763Y-133730220D01*
X92674301Y-133769382D01*
X92650267Y-133811198D01*
X92624943Y-133855175D01*
X92598609Y-133900821D01*
X92587714Y-133919681D01*
X92400967Y-134242843D01*
X92611368Y-134586945D01*
X92644889Y-134641858D01*
X92676143Y-134693242D01*
X92704956Y-134740803D01*
X92731154Y-134784250D01*
X92754562Y-134823288D01*
X92775007Y-134857626D01*
X92792313Y-134886970D01*
X92806306Y-134911027D01*
X92816812Y-134929504D01*
X92823657Y-134942109D01*
X92826666Y-134948548D01*
X92826716Y-134948716D01*
X92829491Y-134965146D01*
X92830218Y-134985585D01*
X92829849Y-134994652D01*
X92824269Y-135026345D01*
X92811990Y-135054576D01*
X92793298Y-135078934D01*
X92768478Y-135099008D01*
X92750646Y-135108880D01*
X92725878Y-135120672D01*
X92628899Y-135121969D01*
X92592646Y-135122289D01*
X92563000Y-135122107D01*
X92538958Y-135121317D01*
X92519517Y-135119811D01*
X92503673Y-135117481D01*
X92490424Y-135114220D01*
X92478766Y-135109920D01*
X92468152Y-135104722D01*
X92462130Y-135101422D01*
X92456555Y-135098109D01*
X92451219Y-135094414D01*
X92445916Y-135089964D01*
X92440438Y-135084390D01*
X92434579Y-135077321D01*
X92428130Y-135068386D01*
X92420886Y-135057215D01*
X92412638Y-135043437D01*
X92403181Y-135026682D01*
X92392306Y-135006579D01*
X92379806Y-134982757D01*
X92365475Y-134954846D01*
X92349106Y-134922476D01*
X92330491Y-134885275D01*
X92309423Y-134842873D01*
X92285695Y-134794900D01*
X92259100Y-134740984D01*
X92229431Y-134680756D01*
X92216206Y-134653900D01*
X92151472Y-134522442D01*
X92017076Y-134793082D01*
X91991526Y-134844531D01*
X91969099Y-134889614D01*
X91949518Y-134928788D01*
X91932505Y-134962507D01*
X91917784Y-134991228D01*
X91905076Y-135015405D01*
X91894105Y-135035494D01*
X91884593Y-135051950D01*
X91876263Y-135065228D01*
X91868837Y-135075784D01*
X91862039Y-135084072D01*
X91855591Y-135090549D01*
X91849215Y-135095669D01*
X91842634Y-135099888D01*
X91835572Y-135103660D01*
X91827750Y-135107442D01*
X91824723Y-135108880D01*
X91799955Y-135120672D01*
X91706601Y-135121374D01*
X91679662Y-135121433D01*
X91654361Y-135121217D01*
X91631989Y-135120761D01*
X91613835Y-135120095D01*
X91601190Y-135119252D01*
X91596602Y-135118638D01*
X91568157Y-135109003D01*
X91542204Y-135092872D01*
X91520044Y-135071278D01*
X91502976Y-135045252D01*
X91502220Y-135043730D01*
X91494028Y-135020577D01*
X91489927Y-134994593D01*
X91490086Y-134968572D01*
X91494676Y-134945303D01*
X91496000Y-134941584D01*
X91498924Y-134935678D01*
X91505431Y-134923666D01*
X91515251Y-134906017D01*
X91528116Y-134883200D01*
X91543757Y-134855686D01*
X91561905Y-134823943D01*
X91582291Y-134788442D01*
X91604647Y-134749651D01*
X91628703Y-134708041D01*
X91654191Y-134664080D01*
X91680841Y-134618239D01*
X91698916Y-134587218D01*
X91726023Y-134540703D01*
X91752049Y-134495979D01*
X91776735Y-134453495D01*
X91799823Y-134413698D01*
X91821056Y-134377034D01*
X91840174Y-134343951D01*
X91856919Y-134314896D01*
X91871034Y-134290316D01*
X91882260Y-134270658D01*
X91890340Y-134256370D01*
X91895014Y-134247898D01*
X91896123Y-134245662D01*
X91894491Y-134241511D01*
X91889256Y-134231185D01*
X91880646Y-134215091D01*
X91868894Y-134193642D01*
X91854228Y-134167245D01*
X91836879Y-134136312D01*
X91817078Y-134101252D01*
X91795055Y-134062474D01*
X91771040Y-134020390D01*
X91745263Y-133975407D01*
X91717954Y-133927937D01*
X91705167Y-133905769D01*
X91678214Y-133859001D01*
X91652258Y-133813801D01*
X91627565Y-133770644D01*
X91604401Y-133730001D01*
X91583033Y-133692346D01*
X91563728Y-133658151D01*
X91546752Y-133627891D01*
X91532372Y-133602038D01*
X91520854Y-133581065D01*
X91512465Y-133565445D01*
X91507472Y-133555651D01*
X91506203Y-133552724D01*
X91501977Y-133531053D01*
X91501593Y-133506182D01*
X91504866Y-133481380D01*
X91511441Y-133460295D01*
X91523968Y-133439279D01*
X91541788Y-133418961D01*
X91562719Y-133401512D01*
X91581916Y-133390279D01*
X91605626Y-133379328D01*
X91706601Y-133379406D01*
X91738098Y-133379493D01*
X91762956Y-133379738D01*
X91782155Y-133380196D01*
X91796678Y-133380920D01*
X91807506Y-133381965D01*
X91815619Y-133383385D01*
X91821998Y-133385236D01*
X91823812Y-133385919D01*
X91845334Y-133396654D01*
X91865428Y-133410641D01*
X91881453Y-133425956D01*
X91885173Y-133430660D01*
X91888499Y-133436397D01*
X91894823Y-133448440D01*
X91903861Y-133466213D01*
X91915330Y-133489144D01*
X91928947Y-133516659D01*
X91944430Y-133548183D01*
X91961496Y-133583143D01*
X91979862Y-133620966D01*
X91999244Y-133661077D01*
X92018840Y-133701817D01*
X92038731Y-133743233D01*
X92057695Y-133782655D01*
X92075470Y-133819543D01*
X92091795Y-133853357D01*
X92106406Y-133883557D01*
X92119043Y-133909601D01*
X92129444Y-133930950D01*
X92137346Y-133947062D01*
X92142489Y-133957397D01*
X92144609Y-133961416D01*
X92144623Y-133961432D01*
X92146659Y-133958563D01*
X92151751Y-133949351D01*
X92159640Y-133934313D01*
X92170063Y-133913968D01*
X92182763Y-133888834D01*
X92197477Y-133859428D01*
X92213947Y-133826270D01*
X92231911Y-133789876D01*
X92251110Y-133750765D01*
X92271284Y-133709456D01*
X92274607Y-133702630D01*
X92298347Y-133653878D01*
X92319024Y-133611493D01*
X92336897Y-133574982D01*
X92352223Y-133543854D01*
X92365261Y-133517616D01*
X92376269Y-133495776D01*
X92385507Y-133477842D01*
X92393233Y-133463321D01*
X92399704Y-133451723D01*
X92405179Y-133442553D01*
X92409917Y-133435321D01*
X92414176Y-133429534D01*
X92418215Y-133424700D01*
X92422291Y-133420327D01*
X92423468Y-133419125D01*
X92444479Y-133400920D01*
X92465856Y-133388928D01*
X92467287Y-133388338D01*
X92474253Y-133385645D01*
X92480875Y-133383549D01*
X92488196Y-133381976D01*
X92497257Y-133380852D01*
X92509097Y-133380100D01*
X92524760Y-133379647D01*
X92545285Y-133379418D01*
X92571715Y-133379336D01*
X92592515Y-133379328D01*
X92695395Y-133379328D01*
X92717183Y-133389540D01*
G36*
X90605445Y-133378833D02*
G01*
X90682389Y-133385664D01*
X90756079Y-133399231D01*
X90826380Y-133419481D01*
X90893156Y-133446359D01*
X90956271Y-133479814D01*
X91015590Y-133519790D01*
X91070977Y-133566235D01*
X91115164Y-133611093D01*
X91161082Y-133667462D01*
X91200470Y-133727742D01*
X91233302Y-133791868D01*
X91259548Y-133859777D01*
X91279183Y-133931401D01*
X91292177Y-134006678D01*
X91294840Y-134030612D01*
X91295836Y-134045225D01*
X91296687Y-134066426D01*
X91297393Y-134093181D01*
X91297955Y-134124459D01*
X91298371Y-134159227D01*
X91298644Y-134196453D01*
X91298771Y-134235105D01*
X91298754Y-134274151D01*
X91298592Y-134312558D01*
X91298286Y-134349293D01*
X91297834Y-134383326D01*
X91297238Y-134413623D01*
X91296498Y-134439152D01*
X91295612Y-134458881D01*
X91294840Y-134469387D01*
X91283895Y-134546423D01*
X91266431Y-134619518D01*
X91242432Y-134688700D01*
X91211886Y-134753996D01*
X91174779Y-134815434D01*
X91131097Y-134873039D01*
X91080827Y-134926840D01*
X91052111Y-134953293D01*
X90998301Y-134995416D01*
X90939828Y-135031708D01*
X90877056Y-135062068D01*
X90810347Y-135086392D01*
X90740066Y-135104577D01*
X90666575Y-135116522D01*
X90590240Y-135122123D01*
X90511422Y-135121279D01*
X90468227Y-135118131D01*
X90393857Y-135107524D01*
X90322308Y-135090082D01*
X90253925Y-135065991D01*
X90189050Y-135035439D01*
X90128029Y-134998613D01*
X90071204Y-134955701D01*
X90018920Y-134906889D01*
X89971520Y-134852364D01*
X89965395Y-134844419D01*
X89924533Y-134784456D01*
X89890374Y-134720947D01*
X89862891Y-134653826D01*
X89842058Y-134583025D01*
X89827848Y-134508478D01*
X89826230Y-134496527D01*
X89824696Y-134480096D01*
X89823378Y-134457062D01*
X89822276Y-134428417D01*
X89821389Y-134395152D01*
X89820717Y-134358259D01*
X89820260Y-134318732D01*
X89820018Y-134277562D01*
X89820006Y-134259280D01*
X90221078Y-134259280D01*
X90221115Y-134311143D01*
X90221744Y-134356703D01*
X90222997Y-134396611D01*
X90224903Y-134431517D01*
X90227497Y-134462069D01*
X90230808Y-134488919D01*
X90234868Y-134512717D01*
X90237343Y-134524347D01*
X90252771Y-134578854D01*
X90272877Y-134628234D01*
X90297439Y-134672218D01*
X90326233Y-134710538D01*
X90359036Y-134742923D01*
X90395625Y-134769106D01*
X90435777Y-134788818D01*
X90464633Y-134798289D01*
X90480377Y-134802449D01*
X90492883Y-134805424D01*
X90503945Y-134807384D01*
X90515354Y-134808501D01*
X90528905Y-134808948D01*
X90546388Y-134808897D01*
X90569597Y-134808518D01*
X90571108Y-134808490D01*
X90594338Y-134807965D01*
X90611893Y-134807180D01*
X90625716Y-134805863D01*
X90637752Y-134803739D01*
X90649945Y-134800536D01*
X90664241Y-134795981D01*
X90667232Y-134794981D01*
X90709728Y-134776800D01*
X90748345Y-134752164D01*
X90782921Y-134721271D01*
X90813293Y-134684317D01*
X90839299Y-134641502D01*
X90860777Y-134593023D01*
X90877565Y-134539077D01*
X90877705Y-134538525D01*
X90881465Y-134522948D01*
X90884646Y-134507824D01*
X90887294Y-134492366D01*
X90889457Y-134475784D01*
X90891181Y-134457289D01*
X90892514Y-134436093D01*
X90893503Y-134411406D01*
X90894196Y-134382440D01*
X90894639Y-134348405D01*
X90894880Y-134308513D01*
X90894966Y-134261975D01*
X90894968Y-134250000D01*
X90894912Y-134201760D01*
X90894710Y-134160353D01*
X90894318Y-134124992D01*
X90893687Y-134094889D01*
X90892770Y-134069258D01*
X90891522Y-134047311D01*
X90889895Y-134028262D01*
X90887843Y-134011322D01*
X90885318Y-133995706D01*
X90882274Y-133980625D01*
X90878664Y-133965293D01*
X90877836Y-133961992D01*
X90861037Y-133907872D01*
X90839493Y-133859239D01*
X90813360Y-133816272D01*
X90782796Y-133779154D01*
X90747956Y-133748066D01*
X90708995Y-133723190D01*
X90666072Y-133704706D01*
X90652859Y-133700555D01*
X90640396Y-133697208D01*
X90628695Y-133694831D01*
X90616053Y-133693268D01*
X90600766Y-133692365D01*
X90581132Y-133691967D01*
X90557771Y-133691914D01*
X90527087Y-133692331D01*
X90502177Y-133693666D01*
X90481216Y-133696261D01*
X90462380Y-133700455D01*
X90443845Y-133706589D01*
X90423786Y-133715003D01*
X90416787Y-133718214D01*
X90379353Y-133739786D01*
X90344993Y-133768001D01*
X90314099Y-133802366D01*
X90287065Y-133842391D01*
X90264282Y-133887584D01*
X90249090Y-133928023D01*
X90243209Y-133947061D01*
X90238273Y-133965345D01*
X90234189Y-133983794D01*
X90230864Y-134003327D01*
X90228206Y-134024861D01*
X90226122Y-134049315D01*
X90224520Y-134077608D01*
X90223306Y-134110659D01*
X90222389Y-134149385D01*
X90221675Y-134194706D01*
X90221601Y-134200465D01*
X90221078Y-134259280D01*
X89820006Y-134259280D01*
X89819990Y-134235740D01*
X89820176Y-134194260D01*
X89820577Y-134154114D01*
X89821191Y-134116293D01*
X89822020Y-134081790D01*
X89823062Y-134051597D01*
X89824317Y-134026706D01*
X89825786Y-134008110D01*
X89826324Y-134003473D01*
X89839620Y-133928853D01*
X89859553Y-133857481D01*
X89885957Y-133789656D01*
X89918670Y-133725677D01*
X89957530Y-133665846D01*
X90002372Y-133610460D01*
X90053034Y-133559820D01*
X90080728Y-133536186D01*
X90135957Y-133495492D01*
X90193353Y-133461196D01*
X90253493Y-133433092D01*
X90316956Y-133410975D01*
X90384322Y-133394640D01*
X90456168Y-133383883D01*
X90525383Y-133378791D01*
X90605445Y-133378833D01*
X90605445Y-133378833D01*
G37*
X90605445Y-133378833D02*
X90682389Y-133385664D01*
X90756079Y-133399231D01*
X90826380Y-133419481D01*
X90893156Y-133446359D01*
X90956271Y-133479814D01*
X91015590Y-133519790D01*
X91070977Y-133566235D01*
X91115164Y-133611093D01*
X91161082Y-133667462D01*
X91200470Y-133727742D01*
X91233302Y-133791868D01*
X91259548Y-133859777D01*
X91279183Y-133931401D01*
X91292177Y-134006678D01*
X91294840Y-134030612D01*
X91295836Y-134045225D01*
X91296687Y-134066426D01*
X91297393Y-134093181D01*
X91297955Y-134124459D01*
X91298371Y-134159227D01*
X91298644Y-134196453D01*
X91298771Y-134235105D01*
X91298754Y-134274151D01*
X91298592Y-134312558D01*
X91298286Y-134349293D01*
X91297834Y-134383326D01*
X91297238Y-134413623D01*
X91296498Y-134439152D01*
X91295612Y-134458881D01*
X91294840Y-134469387D01*
X91283895Y-134546423D01*
X91266431Y-134619518D01*
X91242432Y-134688700D01*
X91211886Y-134753996D01*
X91174779Y-134815434D01*
X91131097Y-134873039D01*
X91080827Y-134926840D01*
X91052111Y-134953293D01*
X90998301Y-134995416D01*
X90939828Y-135031708D01*
X90877056Y-135062068D01*
X90810347Y-135086392D01*
X90740066Y-135104577D01*
X90666575Y-135116522D01*
X90590240Y-135122123D01*
X90511422Y-135121279D01*
X90468227Y-135118131D01*
X90393857Y-135107524D01*
X90322308Y-135090082D01*
X90253925Y-135065991D01*
X90189050Y-135035439D01*
X90128029Y-134998613D01*
X90071204Y-134955701D01*
X90018920Y-134906889D01*
X89971520Y-134852364D01*
X89965395Y-134844419D01*
X89924533Y-134784456D01*
X89890374Y-134720947D01*
X89862891Y-134653826D01*
X89842058Y-134583025D01*
X89827848Y-134508478D01*
X89826230Y-134496527D01*
X89824696Y-134480096D01*
X89823378Y-134457062D01*
X89822276Y-134428417D01*
X89821389Y-134395152D01*
X89820717Y-134358259D01*
X89820260Y-134318732D01*
X89820018Y-134277562D01*
X89820006Y-134259280D01*
X90221078Y-134259280D01*
X90221115Y-134311143D01*
X90221744Y-134356703D01*
X90222997Y-134396611D01*
X90224903Y-134431517D01*
X90227497Y-134462069D01*
X90230808Y-134488919D01*
X90234868Y-134512717D01*
X90237343Y-134524347D01*
X90252771Y-134578854D01*
X90272877Y-134628234D01*
X90297439Y-134672218D01*
X90326233Y-134710538D01*
X90359036Y-134742923D01*
X90395625Y-134769106D01*
X90435777Y-134788818D01*
X90464633Y-134798289D01*
X90480377Y-134802449D01*
X90492883Y-134805424D01*
X90503945Y-134807384D01*
X90515354Y-134808501D01*
X90528905Y-134808948D01*
X90546388Y-134808897D01*
X90569597Y-134808518D01*
X90571108Y-134808490D01*
X90594338Y-134807965D01*
X90611893Y-134807180D01*
X90625716Y-134805863D01*
X90637752Y-134803739D01*
X90649945Y-134800536D01*
X90664241Y-134795981D01*
X90667232Y-134794981D01*
X90709728Y-134776800D01*
X90748345Y-134752164D01*
X90782921Y-134721271D01*
X90813293Y-134684317D01*
X90839299Y-134641502D01*
X90860777Y-134593023D01*
X90877565Y-134539077D01*
X90877705Y-134538525D01*
X90881465Y-134522948D01*
X90884646Y-134507824D01*
X90887294Y-134492366D01*
X90889457Y-134475784D01*
X90891181Y-134457289D01*
X90892514Y-134436093D01*
X90893503Y-134411406D01*
X90894196Y-134382440D01*
X90894639Y-134348405D01*
X90894880Y-134308513D01*
X90894966Y-134261975D01*
X90894968Y-134250000D01*
X90894912Y-134201760D01*
X90894710Y-134160353D01*
X90894318Y-134124992D01*
X90893687Y-134094889D01*
X90892770Y-134069258D01*
X90891522Y-134047311D01*
X90889895Y-134028262D01*
X90887843Y-134011322D01*
X90885318Y-133995706D01*
X90882274Y-133980625D01*
X90878664Y-133965293D01*
X90877836Y-133961992D01*
X90861037Y-133907872D01*
X90839493Y-133859239D01*
X90813360Y-133816272D01*
X90782796Y-133779154D01*
X90747956Y-133748066D01*
X90708995Y-133723190D01*
X90666072Y-133704706D01*
X90652859Y-133700555D01*
X90640396Y-133697208D01*
X90628695Y-133694831D01*
X90616053Y-133693268D01*
X90600766Y-133692365D01*
X90581132Y-133691967D01*
X90557771Y-133691914D01*
X90527087Y-133692331D01*
X90502177Y-133693666D01*
X90481216Y-133696261D01*
X90462380Y-133700455D01*
X90443845Y-133706589D01*
X90423786Y-133715003D01*
X90416787Y-133718214D01*
X90379353Y-133739786D01*
X90344993Y-133768001D01*
X90314099Y-133802366D01*
X90287065Y-133842391D01*
X90264282Y-133887584D01*
X90249090Y-133928023D01*
X90243209Y-133947061D01*
X90238273Y-133965345D01*
X90234189Y-133983794D01*
X90230864Y-134003327D01*
X90228206Y-134024861D01*
X90226122Y-134049315D01*
X90224520Y-134077608D01*
X90223306Y-134110659D01*
X90222389Y-134149385D01*
X90221675Y-134194706D01*
X90221601Y-134200465D01*
X90221078Y-134259280D01*
X89820006Y-134259280D01*
X89819990Y-134235740D01*
X89820176Y-134194260D01*
X89820577Y-134154114D01*
X89821191Y-134116293D01*
X89822020Y-134081790D01*
X89823062Y-134051597D01*
X89824317Y-134026706D01*
X89825786Y-134008110D01*
X89826324Y-134003473D01*
X89839620Y-133928853D01*
X89859553Y-133857481D01*
X89885957Y-133789656D01*
X89918670Y-133725677D01*
X89957530Y-133665846D01*
X90002372Y-133610460D01*
X90053034Y-133559820D01*
X90080728Y-133536186D01*
X90135957Y-133495492D01*
X90193353Y-133461196D01*
X90253493Y-133433092D01*
X90316956Y-133410975D01*
X90384322Y-133394640D01*
X90456168Y-133383883D01*
X90525383Y-133378791D01*
X90605445Y-133378833D01*
G36*
X88591771Y-133377909D02*
G01*
X88643516Y-133378106D01*
X88702267Y-133378377D01*
X88717357Y-133378450D01*
X88778640Y-133378756D01*
X88832871Y-133379063D01*
X88880621Y-133379403D01*
X88922459Y-133379806D01*
X88958955Y-133380305D01*
X88990678Y-133380932D01*
X89018198Y-133381719D01*
X89042085Y-133382697D01*
X89062908Y-133383898D01*
X89081238Y-133385353D01*
X89097642Y-133387096D01*
X89112692Y-133389157D01*
X89126957Y-133391569D01*
X89141006Y-133394362D01*
X89155409Y-133397570D01*
X89170736Y-133401223D01*
X89184129Y-133404509D01*
X89250859Y-133424348D01*
X89313175Y-133449756D01*
X89370787Y-133480488D01*
X89423405Y-133516299D01*
X89470740Y-133556942D01*
X89512501Y-133602173D01*
X89548398Y-133651746D01*
X89578143Y-133705415D01*
X89598998Y-133755838D01*
X89608157Y-133783227D01*
X89615221Y-133808199D01*
X89620439Y-133832443D01*
X89624057Y-133857648D01*
X89626322Y-133885507D01*
X89627481Y-133917707D01*
X89627782Y-133952790D01*
X89627692Y-133982266D01*
X89627356Y-134005586D01*
X89626673Y-134024213D01*
X89625545Y-134039610D01*
X89623872Y-134053242D01*
X89621555Y-134066571D01*
X89619313Y-134077345D01*
X89604243Y-134134354D01*
X89584795Y-134185999D01*
X89560248Y-134233601D01*
X89529886Y-134278480D01*
X89492991Y-134321955D01*
X89477612Y-134337876D01*
X89432817Y-134378648D01*
X89384916Y-134413956D01*
X89333298Y-134444089D01*
X89277351Y-134469334D01*
X89216463Y-134489978D01*
X89150022Y-134506310D01*
X89100058Y-134515302D01*
X89089254Y-134516770D01*
X89076593Y-134518035D01*
X89061390Y-134519120D01*
X89042959Y-134520046D01*
X89020618Y-134520838D01*
X88993681Y-134521516D01*
X88961464Y-134522104D01*
X88923282Y-134522624D01*
X88878451Y-134523099D01*
X88857494Y-134523290D01*
X88654696Y-134525071D01*
X88653638Y-134775241D01*
X88652581Y-135025412D01*
X88641834Y-135045820D01*
X88623508Y-135072751D01*
X88600025Y-135094401D01*
X88572247Y-135110134D01*
X88543183Y-135118919D01*
X88530995Y-135120372D01*
X88513076Y-135121404D01*
X88491003Y-135122029D01*
X88466351Y-135122261D01*
X88440698Y-135122115D01*
X88415619Y-135121605D01*
X88392692Y-135120746D01*
X88373491Y-135119550D01*
X88359594Y-135118033D01*
X88355371Y-135117221D01*
X88325393Y-135106033D01*
X88299197Y-135088574D01*
X88277703Y-135065604D01*
X88263463Y-135041547D01*
X88252491Y-135017792D01*
X88252491Y-134212296D01*
X88654486Y-134212296D01*
X88840242Y-134210971D01*
X88882763Y-134210658D01*
X88918395Y-134210354D01*
X88947868Y-134210025D01*
X88971915Y-134209638D01*
X88991265Y-134209158D01*
X89006650Y-134208551D01*
X89018802Y-134207783D01*
X89028452Y-134206820D01*
X89036329Y-134205628D01*
X89043167Y-134204173D01*
X89049696Y-134202420D01*
X89054549Y-134200975D01*
X89095187Y-134184951D01*
X89130939Y-134163160D01*
X89161546Y-134135856D01*
X89186748Y-134103288D01*
X89206285Y-134065710D01*
X89213249Y-134046962D01*
X89217287Y-134034046D01*
X89220129Y-134022648D01*
X89221990Y-134010924D01*
X89223087Y-133997028D01*
X89223637Y-133979116D01*
X89223850Y-133956600D01*
X89223540Y-133926115D01*
X89222015Y-133901235D01*
X89218881Y-133879989D01*
X89213745Y-133860404D01*
X89206212Y-133840509D01*
X89196428Y-133819427D01*
X89184487Y-133798577D01*
X89169226Y-133778683D01*
X89153715Y-133762106D01*
X89128550Y-133739462D01*
X89102848Y-133722195D01*
X89074017Y-133708764D01*
X89050738Y-133700866D01*
X89043928Y-133698886D01*
X89037295Y-133697228D01*
X89030101Y-133695857D01*
X89021610Y-133694737D01*
X89011085Y-133693834D01*
X88997791Y-133693113D01*
X88980990Y-133692539D01*
X88959945Y-133692077D01*
X88933922Y-133691692D01*
X88902181Y-133691350D01*
X88863989Y-133691015D01*
X88838337Y-133690809D01*
X88654486Y-133689352D01*
X88654486Y-134212296D01*
X88252491Y-134212296D01*
X88252491Y-133482208D01*
X88263463Y-133458453D01*
X88277471Y-133435340D01*
X88296434Y-133414224D01*
X88318060Y-133397516D01*
X88325393Y-133393378D01*
X88331105Y-133390572D01*
X88336881Y-133388103D01*
X88343219Y-133385952D01*
X88350614Y-133384101D01*
X88359562Y-133382530D01*
X88370558Y-133381221D01*
X88384098Y-133380155D01*
X88400679Y-133379313D01*
X88420796Y-133378677D01*
X88444944Y-133378226D01*
X88473620Y-133377943D01*
X88507319Y-133377808D01*
X88546538Y-133377803D01*
X88591771Y-133377909D01*
X88591771Y-133377909D01*
G37*
X88591771Y-133377909D02*
X88643516Y-133378106D01*
X88702267Y-133378377D01*
X88717357Y-133378450D01*
X88778640Y-133378756D01*
X88832871Y-133379063D01*
X88880621Y-133379403D01*
X88922459Y-133379806D01*
X88958955Y-133380305D01*
X88990678Y-133380932D01*
X89018198Y-133381719D01*
X89042085Y-133382697D01*
X89062908Y-133383898D01*
X89081238Y-133385353D01*
X89097642Y-133387096D01*
X89112692Y-133389157D01*
X89126957Y-133391569D01*
X89141006Y-133394362D01*
X89155409Y-133397570D01*
X89170736Y-133401223D01*
X89184129Y-133404509D01*
X89250859Y-133424348D01*
X89313175Y-133449756D01*
X89370787Y-133480488D01*
X89423405Y-133516299D01*
X89470740Y-133556942D01*
X89512501Y-133602173D01*
X89548398Y-133651746D01*
X89578143Y-133705415D01*
X89598998Y-133755838D01*
X89608157Y-133783227D01*
X89615221Y-133808199D01*
X89620439Y-133832443D01*
X89624057Y-133857648D01*
X89626322Y-133885507D01*
X89627481Y-133917707D01*
X89627782Y-133952790D01*
X89627692Y-133982266D01*
X89627356Y-134005586D01*
X89626673Y-134024213D01*
X89625545Y-134039610D01*
X89623872Y-134053242D01*
X89621555Y-134066571D01*
X89619313Y-134077345D01*
X89604243Y-134134354D01*
X89584795Y-134185999D01*
X89560248Y-134233601D01*
X89529886Y-134278480D01*
X89492991Y-134321955D01*
X89477612Y-134337876D01*
X89432817Y-134378648D01*
X89384916Y-134413956D01*
X89333298Y-134444089D01*
X89277351Y-134469334D01*
X89216463Y-134489978D01*
X89150022Y-134506310D01*
X89100058Y-134515302D01*
X89089254Y-134516770D01*
X89076593Y-134518035D01*
X89061390Y-134519120D01*
X89042959Y-134520046D01*
X89020618Y-134520838D01*
X88993681Y-134521516D01*
X88961464Y-134522104D01*
X88923282Y-134522624D01*
X88878451Y-134523099D01*
X88857494Y-134523290D01*
X88654696Y-134525071D01*
X88653638Y-134775241D01*
X88652581Y-135025412D01*
X88641834Y-135045820D01*
X88623508Y-135072751D01*
X88600025Y-135094401D01*
X88572247Y-135110134D01*
X88543183Y-135118919D01*
X88530995Y-135120372D01*
X88513076Y-135121404D01*
X88491003Y-135122029D01*
X88466351Y-135122261D01*
X88440698Y-135122115D01*
X88415619Y-135121605D01*
X88392692Y-135120746D01*
X88373491Y-135119550D01*
X88359594Y-135118033D01*
X88355371Y-135117221D01*
X88325393Y-135106033D01*
X88299197Y-135088574D01*
X88277703Y-135065604D01*
X88263463Y-135041547D01*
X88252491Y-135017792D01*
X88252491Y-134212296D01*
X88654486Y-134212296D01*
X88840242Y-134210971D01*
X88882763Y-134210658D01*
X88918395Y-134210354D01*
X88947868Y-134210025D01*
X88971915Y-134209638D01*
X88991265Y-134209158D01*
X89006650Y-134208551D01*
X89018802Y-134207783D01*
X89028452Y-134206820D01*
X89036329Y-134205628D01*
X89043167Y-134204173D01*
X89049696Y-134202420D01*
X89054549Y-134200975D01*
X89095187Y-134184951D01*
X89130939Y-134163160D01*
X89161546Y-134135856D01*
X89186748Y-134103288D01*
X89206285Y-134065710D01*
X89213249Y-134046962D01*
X89217287Y-134034046D01*
X89220129Y-134022648D01*
X89221990Y-134010924D01*
X89223087Y-133997028D01*
X89223637Y-133979116D01*
X89223850Y-133956600D01*
X89223540Y-133926115D01*
X89222015Y-133901235D01*
X89218881Y-133879989D01*
X89213745Y-133860404D01*
X89206212Y-133840509D01*
X89196428Y-133819427D01*
X89184487Y-133798577D01*
X89169226Y-133778683D01*
X89153715Y-133762106D01*
X89128550Y-133739462D01*
X89102848Y-133722195D01*
X89074017Y-133708764D01*
X89050738Y-133700866D01*
X89043928Y-133698886D01*
X89037295Y-133697228D01*
X89030101Y-133695857D01*
X89021610Y-133694737D01*
X89011085Y-133693834D01*
X88997791Y-133693113D01*
X88980990Y-133692539D01*
X88959945Y-133692077D01*
X88933922Y-133691692D01*
X88902181Y-133691350D01*
X88863989Y-133691015D01*
X88838337Y-133690809D01*
X88654486Y-133689352D01*
X88654486Y-134212296D01*
X88252491Y-134212296D01*
X88252491Y-133482208D01*
X88263463Y-133458453D01*
X88277471Y-133435340D01*
X88296434Y-133414224D01*
X88318060Y-133397516D01*
X88325393Y-133393378D01*
X88331105Y-133390572D01*
X88336881Y-133388103D01*
X88343219Y-133385952D01*
X88350614Y-133384101D01*
X88359562Y-133382530D01*
X88370558Y-133381221D01*
X88384098Y-133380155D01*
X88400679Y-133379313D01*
X88420796Y-133378677D01*
X88444944Y-133378226D01*
X88473620Y-133377943D01*
X88507319Y-133377808D01*
X88546538Y-133377803D01*
X88591771Y-133377909D01*
D12*
%TO.C,J1*%
X107640000Y-127740000D02*
X107640000Y-128200000D01*
X111850000Y-127740000D02*
X111500000Y-127740000D01*
X109600000Y-127740000D02*
X107640000Y-127740000D01*
X107640000Y-135260000D02*
X107640000Y-134800000D01*
X111850000Y-135260000D02*
X111500000Y-135260000D01*
X109600000Y-135260000D02*
X107640000Y-135260000D01*
X107012500Y-133200000D02*
X107012500Y-132750000D01*
X107012500Y-133200000D02*
X107462500Y-133200000D01*
%TO.C,D40*%
X109350000Y-139350000D02*
X110150000Y-139350000D01*
X109750000Y-139350000D02*
X109350000Y-138750000D01*
X110150000Y-138750000D02*
X109750000Y-139350000D01*
X109350000Y-138750000D02*
X110150000Y-138750000D01*
X108750000Y-141250000D02*
X108750000Y-137350000D01*
X110750000Y-141250000D02*
X110750000Y-137350000D01*
X108750000Y-141250000D02*
X110750000Y-141250000D01*
%TO.C,D39*%
X103050000Y-141100000D02*
X103050000Y-140400000D01*
X103050000Y-140750000D02*
X102550000Y-140400000D01*
X102550000Y-141100000D02*
X103050000Y-140750000D01*
X102550000Y-140400000D02*
X102550000Y-141100000D01*
X104250000Y-141600000D02*
X101700000Y-141600000D01*
X104250000Y-139900000D02*
X101700000Y-139900000D01*
X104250000Y-141600000D02*
X104250000Y-139900000D01*
%TO.C,D38*%
X106550000Y-141100000D02*
X106550000Y-140400000D01*
X106550000Y-140750000D02*
X106050000Y-140400000D01*
X106050000Y-141100000D02*
X106550000Y-140750000D01*
X106050000Y-140400000D02*
X106050000Y-141100000D01*
X107750000Y-141600000D02*
X105200000Y-141600000D01*
X107750000Y-139900000D02*
X105200000Y-139900000D01*
X107750000Y-141600000D02*
X107750000Y-139900000D01*
%TO.C,D37*%
X103050000Y-138600000D02*
X103050000Y-137900000D01*
X103050000Y-138250000D02*
X102550000Y-137900000D01*
X102550000Y-138600000D02*
X103050000Y-138250000D01*
X102550000Y-137900000D02*
X102550000Y-138600000D01*
X104250000Y-139100000D02*
X101700000Y-139100000D01*
X104250000Y-137400000D02*
X101700000Y-137400000D01*
X104250000Y-139100000D02*
X104250000Y-137400000D01*
%TO.C,D36*%
X106550000Y-138600000D02*
X106550000Y-137900000D01*
X106550000Y-138250000D02*
X106050000Y-137900000D01*
X106050000Y-138600000D02*
X106550000Y-138250000D01*
X106050000Y-137900000D02*
X106050000Y-138600000D01*
X107750000Y-139100000D02*
X105200000Y-139100000D01*
X107750000Y-137400000D02*
X105200000Y-137400000D01*
X107750000Y-139100000D02*
X107750000Y-137400000D01*
%TO.C,D35*%
X105650000Y-118800000D02*
X106350000Y-118800000D01*
X106000000Y-118800000D02*
X106350000Y-118300000D01*
X105650000Y-118300000D02*
X106000000Y-118800000D01*
X106350000Y-118300000D02*
X105650000Y-118300000D01*
X105150000Y-120000000D02*
X105150000Y-117450000D01*
X106850000Y-120000000D02*
X106850000Y-117450000D01*
X105150000Y-120000000D02*
X106850000Y-120000000D01*
%TO.C,D34*%
X107650000Y-121100000D02*
X107650000Y-121900000D01*
X107650000Y-121500000D02*
X108250000Y-121100000D01*
X108250000Y-121900000D02*
X107650000Y-121500000D01*
X108250000Y-121100000D02*
X108250000Y-121900000D01*
X105750000Y-120500000D02*
X109650000Y-120500000D01*
X105750000Y-122500000D02*
X109650000Y-122500000D01*
X105750000Y-120500000D02*
X105750000Y-122500000D01*
%TO.C,D6*%
X73650000Y-139050000D02*
X74350000Y-139050000D01*
X74000000Y-139050000D02*
X74350000Y-138550000D01*
X73650000Y-138550000D02*
X74000000Y-139050000D01*
X74350000Y-138550000D02*
X73650000Y-138550000D01*
X73150000Y-140250000D02*
X73150000Y-137700000D01*
X74850000Y-140250000D02*
X74850000Y-137700000D01*
X73150000Y-140250000D02*
X74850000Y-140250000D01*
%TO.C,D5*%
X76850000Y-138450000D02*
X76150000Y-138450000D01*
X76500000Y-138450000D02*
X76150000Y-138950000D01*
X76850000Y-138950000D02*
X76500000Y-138450000D01*
X76150000Y-138950000D02*
X76850000Y-138950000D01*
X77350000Y-137250000D02*
X77350000Y-139800000D01*
X75650000Y-137250000D02*
X75650000Y-139800000D01*
X77350000Y-137250000D02*
X75650000Y-137250000D01*
%TO.C,D4*%
X75900000Y-124550000D02*
X76600000Y-124550000D01*
X76250000Y-124550000D02*
X76600000Y-124050000D01*
X75900000Y-124050000D02*
X76250000Y-124550000D01*
X76600000Y-124050000D02*
X75900000Y-124050000D01*
X75400000Y-125750000D02*
X75400000Y-123200000D01*
X77100000Y-125750000D02*
X77100000Y-123200000D01*
X75400000Y-125750000D02*
X77100000Y-125750000D01*
%TO.C,D3*%
X83400000Y-124550000D02*
X84100000Y-124550000D01*
X83750000Y-124550000D02*
X84100000Y-124050000D01*
X83400000Y-124050000D02*
X83750000Y-124550000D01*
X84100000Y-124050000D02*
X83400000Y-124050000D01*
X82900000Y-125750000D02*
X82900000Y-123200000D01*
X84600000Y-125750000D02*
X84600000Y-123200000D01*
X82900000Y-125750000D02*
X84600000Y-125750000D01*
%TO.C,D2*%
X78400000Y-124550000D02*
X79100000Y-124550000D01*
X78750000Y-124550000D02*
X79100000Y-124050000D01*
X78400000Y-124050000D02*
X78750000Y-124550000D01*
X79100000Y-124050000D02*
X78400000Y-124050000D01*
X77900000Y-125750000D02*
X77900000Y-123200000D01*
X79600000Y-125750000D02*
X79600000Y-123200000D01*
X77900000Y-125750000D02*
X79600000Y-125750000D01*
%TO.C,D1*%
X80900000Y-124550000D02*
X81600000Y-124550000D01*
X81250000Y-124550000D02*
X81600000Y-124050000D01*
X80900000Y-124050000D02*
X81250000Y-124550000D01*
X81600000Y-124050000D02*
X80900000Y-124050000D01*
X80400000Y-125750000D02*
X80400000Y-123200000D01*
X82100000Y-125750000D02*
X82100000Y-123200000D01*
X80400000Y-125750000D02*
X82100000Y-125750000D01*
%TO.C,TP9*%
X87200000Y-140250000D02*
G75*
G03X87200000Y-140250000I-700000J0D01*
G01*
%TO.C,TP8*%
X78950000Y-127500000D02*
G75*
G03X78950000Y-127500000I-700000J0D01*
G01*
%TO.C,TP7*%
X76950000Y-136000000D02*
G75*
G03X76950000Y-136000000I-700000J0D01*
G01*
%TO.C,TP6*%
X84700000Y-127500000D02*
G75*
G03X84700000Y-127500000I-700000J0D01*
G01*
%TO.C,TP5*%
X71950000Y-137750000D02*
G75*
G03X71950000Y-137750000I-700000J0D01*
G01*
%TO.C,TP4*%
X104450000Y-129250000D02*
G75*
G03X104450000Y-129250000I-700000J0D01*
G01*
%TO.C,TP3*%
X102950000Y-142500000D02*
G75*
G03X102950000Y-142500000I-700000J0D01*
G01*
%TO.C,TP2*%
X100950000Y-138000000D02*
G75*
G03X100950000Y-138000000I-700000J0D01*
G01*
%TO.C,TP1*%
X108450000Y-136500000D02*
G75*
G03X108450000Y-136500000I-700000J0D01*
G01*
%TO.C,Q8*%
X83010000Y-122330000D02*
X81550000Y-122330000D01*
X83010000Y-119170000D02*
X80850000Y-119170000D01*
X83010000Y-119170000D02*
X83010000Y-120100000D01*
X83010000Y-122330000D02*
X83010000Y-121400000D01*
D13*
%TO.C,J2*%
X74300000Y-128500000D02*
X70600000Y-128500000D01*
X70600000Y-128500000D02*
X70600000Y-129000000D01*
X70600000Y-129000000D02*
X70600000Y-133450000D01*
X70600000Y-129000000D02*
X69100000Y-129000000D01*
X69100000Y-129000000D02*
X69100000Y-134000000D01*
X69100000Y-134000000D02*
X69900000Y-134000000D01*
X75300000Y-134500000D02*
X81500000Y-134500000D01*
X85150000Y-134500000D02*
X86100000Y-134500000D01*
X86100000Y-128500000D02*
X77300000Y-128500000D01*
D14*
X69550000Y-135250000D02*
G75*
G03X69550000Y-135250000I-200000J0D01*
G01*
D13*
X86100000Y-128500000D02*
X86100000Y-134500000D01*
D15*
%TO.C,C12*%
G36*
X72300000Y-126000000D02*
G01*
X72350000Y-126150000D01*
X72500000Y-126200000D01*
X72650000Y-126150000D01*
X72700000Y-126000000D01*
X72650000Y-125850000D01*
X72500000Y-125800000D01*
X72350000Y-125850000D01*
X72300000Y-126000000D01*
G37*
X72300000Y-126000000D02*
X72350000Y-126150000D01*
X72500000Y-126200000D01*
X72650000Y-126150000D01*
X72700000Y-126000000D01*
X72650000Y-125850000D01*
X72500000Y-125800000D01*
X72350000Y-125850000D01*
X72300000Y-126000000D01*
D16*
X72700000Y-126000000D02*
G75*
G03X72700000Y-126000000I-200000J0D01*
G01*
D12*
X72662779Y-125490000D02*
X72337221Y-125490000D01*
X72662779Y-126510000D02*
X72337221Y-126510000D01*
X72758578Y-126710000D02*
X72241422Y-126710000D01*
X72758578Y-125290000D02*
X72241422Y-125290000D01*
%TO.C,U3*%
X101600000Y-146610000D02*
X104050000Y-146610000D01*
X103400000Y-143390000D02*
X101600000Y-143390000D01*
D15*
%TO.C,C9*%
G36*
X97000000Y-142050000D02*
G01*
X96850000Y-142100000D01*
X96800000Y-142250000D01*
X96850000Y-142400000D01*
X97000000Y-142450000D01*
X97150000Y-142400000D01*
X97200000Y-142250000D01*
X97150000Y-142100000D01*
X97000000Y-142050000D01*
G37*
X97000000Y-142050000D02*
X96850000Y-142100000D01*
X96800000Y-142250000D01*
X96850000Y-142400000D01*
X97000000Y-142450000D01*
X97150000Y-142400000D01*
X97200000Y-142250000D01*
X97150000Y-142100000D01*
X97000000Y-142050000D01*
D16*
X97200000Y-142250000D02*
G75*
G03X97200000Y-142250000I-200000J0D01*
G01*
D12*
X97510000Y-142412779D02*
X97510000Y-142087221D01*
X96490000Y-142412779D02*
X96490000Y-142087221D01*
X96290000Y-142508578D02*
X96290000Y-141991422D01*
X97710000Y-142508578D02*
X97710000Y-141991422D01*
D15*
%TO.C,C1*%
G36*
X79050000Y-136250000D02*
G01*
X79100000Y-136400000D01*
X79250000Y-136450000D01*
X79400000Y-136400000D01*
X79450000Y-136250000D01*
X79400000Y-136100000D01*
X79250000Y-136050000D01*
X79100000Y-136100000D01*
X79050000Y-136250000D01*
G37*
X79050000Y-136250000D02*
X79100000Y-136400000D01*
X79250000Y-136450000D01*
X79400000Y-136400000D01*
X79450000Y-136250000D01*
X79400000Y-136100000D01*
X79250000Y-136050000D01*
X79100000Y-136100000D01*
X79050000Y-136250000D01*
D16*
X79450000Y-136250000D02*
G75*
G03X79450000Y-136250000I-200000J0D01*
G01*
D12*
X79412779Y-135740000D02*
X79087221Y-135740000D01*
X79412779Y-136760000D02*
X79087221Y-136760000D01*
X79508578Y-136960000D02*
X78991422Y-136960000D01*
X79508578Y-135540000D02*
X78991422Y-135540000D01*
D15*
%TO.C,C11*%
G36*
X105750000Y-129200000D02*
G01*
X105900000Y-129150000D01*
X105950000Y-129000000D01*
X105900000Y-128850000D01*
X105750000Y-128800000D01*
X105600000Y-128850000D01*
X105550000Y-129000000D01*
X105600000Y-129150000D01*
X105750000Y-129200000D01*
G37*
X105750000Y-129200000D02*
X105900000Y-129150000D01*
X105950000Y-129000000D01*
X105900000Y-128850000D01*
X105750000Y-128800000D01*
X105600000Y-128850000D01*
X105550000Y-129000000D01*
X105600000Y-129150000D01*
X105750000Y-129200000D01*
D16*
X105950000Y-129000000D02*
G75*
G03X105950000Y-129000000I-200000J0D01*
G01*
D12*
X105240000Y-128837221D02*
X105240000Y-129162779D01*
X106260000Y-128837221D02*
X106260000Y-129162779D01*
X106460000Y-128741422D02*
X106460000Y-129258578D01*
X105040000Y-128741422D02*
X105040000Y-129258578D01*
D15*
%TO.C,C6*%
G36*
X87200000Y-126750000D02*
G01*
X87150000Y-126600000D01*
X87000000Y-126550000D01*
X86850000Y-126600000D01*
X86800000Y-126750000D01*
X86850000Y-126900000D01*
X87000000Y-126950000D01*
X87150000Y-126900000D01*
X87200000Y-126750000D01*
G37*
X87200000Y-126750000D02*
X87150000Y-126600000D01*
X87000000Y-126550000D01*
X86850000Y-126600000D01*
X86800000Y-126750000D01*
X86850000Y-126900000D01*
X87000000Y-126950000D01*
X87150000Y-126900000D01*
X87200000Y-126750000D01*
D16*
X87200000Y-126750000D02*
G75*
G03X87200000Y-126750000I-200000J0D01*
G01*
D12*
X86837221Y-127260000D02*
X87162779Y-127260000D01*
X86837221Y-126240000D02*
X87162779Y-126240000D01*
X86741422Y-126040000D02*
X87258578Y-126040000D01*
X86741422Y-127460000D02*
X87258578Y-127460000D01*
D15*
%TO.C,C10*%
G36*
X93500000Y-145700000D02*
G01*
X93650000Y-145650000D01*
X93700000Y-145500000D01*
X93650000Y-145350000D01*
X93500000Y-145300000D01*
X93350000Y-145350000D01*
X93300000Y-145500000D01*
X93350000Y-145650000D01*
X93500000Y-145700000D01*
G37*
X93500000Y-145700000D02*
X93650000Y-145650000D01*
X93700000Y-145500000D01*
X93650000Y-145350000D01*
X93500000Y-145300000D01*
X93350000Y-145350000D01*
X93300000Y-145500000D01*
X93350000Y-145650000D01*
X93500000Y-145700000D01*
D16*
X93700000Y-145500000D02*
G75*
G03X93700000Y-145500000I-200000J0D01*
G01*
D12*
X92990000Y-145337221D02*
X92990000Y-145662779D01*
X94010000Y-145337221D02*
X94010000Y-145662779D01*
X94210000Y-145241422D02*
X94210000Y-145758578D01*
X92790000Y-145241422D02*
X92790000Y-145758578D01*
D15*
%TO.C,C8*%
G36*
X99500000Y-140800000D02*
G01*
X99350000Y-140850000D01*
X99300000Y-141000000D01*
X99350000Y-141150000D01*
X99500000Y-141200000D01*
X99650000Y-141150000D01*
X99700000Y-141000000D01*
X99650000Y-140850000D01*
X99500000Y-140800000D01*
G37*
X99500000Y-140800000D02*
X99350000Y-140850000D01*
X99300000Y-141000000D01*
X99350000Y-141150000D01*
X99500000Y-141200000D01*
X99650000Y-141150000D01*
X99700000Y-141000000D01*
X99650000Y-140850000D01*
X99500000Y-140800000D01*
D16*
X99700000Y-141000000D02*
G75*
G03X99700000Y-141000000I-200000J0D01*
G01*
D12*
X100010000Y-141162779D02*
X100010000Y-140837221D01*
X98990000Y-141162779D02*
X98990000Y-140837221D01*
X98790000Y-141258578D02*
X98790000Y-140741422D01*
X100210000Y-141258578D02*
X100210000Y-140741422D01*
D15*
%TO.C,C7*%
G36*
X91000000Y-145700000D02*
G01*
X91150000Y-145650000D01*
X91200000Y-145500000D01*
X91150000Y-145350000D01*
X91000000Y-145300000D01*
X90850000Y-145350000D01*
X90800000Y-145500000D01*
X90850000Y-145650000D01*
X91000000Y-145700000D01*
G37*
X91000000Y-145700000D02*
X91150000Y-145650000D01*
X91200000Y-145500000D01*
X91150000Y-145350000D01*
X91000000Y-145300000D01*
X90850000Y-145350000D01*
X90800000Y-145500000D01*
X90850000Y-145650000D01*
X91000000Y-145700000D01*
D16*
X91200000Y-145500000D02*
G75*
G03X91200000Y-145500000I-200000J0D01*
G01*
D12*
X90490000Y-145337221D02*
X90490000Y-145662779D01*
X91510000Y-145337221D02*
X91510000Y-145662779D01*
X91710000Y-145241422D02*
X91710000Y-145758578D01*
X90290000Y-145241422D02*
X90290000Y-145758578D01*
D15*
%TO.C,C5*%
G36*
X99500000Y-144800000D02*
G01*
X99350000Y-144850000D01*
X99300000Y-145000000D01*
X99350000Y-145150000D01*
X99500000Y-145200000D01*
X99650000Y-145150000D01*
X99700000Y-145000000D01*
X99650000Y-144850000D01*
X99500000Y-144800000D01*
G37*
X99500000Y-144800000D02*
X99350000Y-144850000D01*
X99300000Y-145000000D01*
X99350000Y-145150000D01*
X99500000Y-145200000D01*
X99650000Y-145150000D01*
X99700000Y-145000000D01*
X99650000Y-144850000D01*
X99500000Y-144800000D01*
D16*
X99700000Y-145000000D02*
G75*
G03X99700000Y-145000000I-200000J0D01*
G01*
D12*
X100010000Y-145162779D02*
X100010000Y-144837221D01*
X98990000Y-145162779D02*
X98990000Y-144837221D01*
X98790000Y-145258578D02*
X98790000Y-144741422D01*
X100210000Y-145258578D02*
X100210000Y-144741422D01*
D15*
%TO.C,C4*%
G36*
X105500000Y-144800000D02*
G01*
X105350000Y-144850000D01*
X105300000Y-145000000D01*
X105350000Y-145150000D01*
X105500000Y-145200000D01*
X105650000Y-145150000D01*
X105700000Y-145000000D01*
X105650000Y-144850000D01*
X105500000Y-144800000D01*
G37*
X105500000Y-144800000D02*
X105350000Y-144850000D01*
X105300000Y-145000000D01*
X105350000Y-145150000D01*
X105500000Y-145200000D01*
X105650000Y-145150000D01*
X105700000Y-145000000D01*
X105650000Y-144850000D01*
X105500000Y-144800000D01*
D16*
X105700000Y-145000000D02*
G75*
G03X105700000Y-145000000I-200000J0D01*
G01*
D12*
X106010000Y-145162779D02*
X106010000Y-144837221D01*
X104990000Y-145162779D02*
X104990000Y-144837221D01*
X104790000Y-145258578D02*
X104790000Y-144741422D01*
X106210000Y-145258578D02*
X106210000Y-144741422D01*
D15*
%TO.C,C3*%
G36*
X99050000Y-117500000D02*
G01*
X99100000Y-117650000D01*
X99250000Y-117700000D01*
X99400000Y-117650000D01*
X99450000Y-117500000D01*
X99400000Y-117350000D01*
X99250000Y-117300000D01*
X99100000Y-117350000D01*
X99050000Y-117500000D01*
G37*
X99050000Y-117500000D02*
X99100000Y-117650000D01*
X99250000Y-117700000D01*
X99400000Y-117650000D01*
X99450000Y-117500000D01*
X99400000Y-117350000D01*
X99250000Y-117300000D01*
X99100000Y-117350000D01*
X99050000Y-117500000D01*
D16*
X99450000Y-117500000D02*
G75*
G03X99450000Y-117500000I-200000J0D01*
G01*
D12*
X99412779Y-116990000D02*
X99087221Y-116990000D01*
X99412779Y-118010000D02*
X99087221Y-118010000D01*
X99508578Y-118210000D02*
X98991422Y-118210000D01*
X99508578Y-116790000D02*
X98991422Y-116790000D01*
D15*
%TO.C,C2*%
G36*
X79800000Y-143000000D02*
G01*
X79850000Y-143150000D01*
X80000000Y-143200000D01*
X80150000Y-143150000D01*
X80200000Y-143000000D01*
X80150000Y-142850000D01*
X80000000Y-142800000D01*
X79850000Y-142850000D01*
X79800000Y-143000000D01*
G37*
X79800000Y-143000000D02*
X79850000Y-143150000D01*
X80000000Y-143200000D01*
X80150000Y-143150000D01*
X80200000Y-143000000D01*
X80150000Y-142850000D01*
X80000000Y-142800000D01*
X79850000Y-142850000D01*
X79800000Y-143000000D01*
D16*
X80200000Y-143000000D02*
G75*
G03X80200000Y-143000000I-200000J0D01*
G01*
D12*
X80162779Y-142490000D02*
X79837221Y-142490000D01*
X80162779Y-143510000D02*
X79837221Y-143510000D01*
X80258578Y-143710000D02*
X79741422Y-143710000D01*
X80258578Y-142290000D02*
X79741422Y-142290000D01*
%TO.C,Q5*%
X104010000Y-123830000D02*
X102550000Y-123830000D01*
X104010000Y-120670000D02*
X101850000Y-120670000D01*
X104010000Y-120670000D02*
X104010000Y-121600000D01*
X104010000Y-123830000D02*
X104010000Y-122900000D01*
%TO.C,R25*%
X73258578Y-122790000D02*
X72741422Y-122790000D01*
X73258578Y-124210000D02*
X72741422Y-124210000D01*
X73162779Y-122990000D02*
X72837221Y-122990000D01*
X73162779Y-124010000D02*
X72837221Y-124010000D01*
D15*
G36*
X73200000Y-123700000D02*
G01*
X72800000Y-123700000D01*
X72800000Y-123300000D01*
X73200000Y-123300000D01*
X73200000Y-123700000D01*
G37*
X73200000Y-123700000D02*
X72800000Y-123700000D01*
X72800000Y-123300000D01*
X73200000Y-123300000D01*
X73200000Y-123700000D01*
D12*
%TO.C,R24*%
X86741422Y-124960000D02*
X87258578Y-124960000D01*
X86741422Y-123540000D02*
X87258578Y-123540000D01*
X86837221Y-124760000D02*
X87162779Y-124760000D01*
X86837221Y-123740000D02*
X87162779Y-123740000D01*
D15*
G36*
X86800000Y-124050000D02*
G01*
X87200000Y-124050000D01*
X87200000Y-124450000D01*
X86800000Y-124450000D01*
X86800000Y-124050000D01*
G37*
X86800000Y-124050000D02*
X87200000Y-124050000D01*
X87200000Y-124450000D01*
X86800000Y-124450000D01*
X86800000Y-124050000D01*
D12*
%TO.C,R23*%
X81741422Y-117960000D02*
X82258578Y-117960000D01*
X81741422Y-116540000D02*
X82258578Y-116540000D01*
X81837221Y-117760000D02*
X82162779Y-117760000D01*
X81837221Y-116740000D02*
X82162779Y-116740000D01*
D15*
G36*
X81800000Y-117050000D02*
G01*
X82200000Y-117050000D01*
X82200000Y-117450000D01*
X81800000Y-117450000D01*
X81800000Y-117050000D01*
G37*
X81800000Y-117050000D02*
X82200000Y-117050000D01*
X82200000Y-117450000D01*
X81800000Y-117450000D01*
X81800000Y-117050000D01*
D12*
%TO.C,R22*%
X86741422Y-122460000D02*
X87258578Y-122460000D01*
X86741422Y-121040000D02*
X87258578Y-121040000D01*
X86837221Y-122260000D02*
X87162779Y-122260000D01*
X86837221Y-121240000D02*
X87162779Y-121240000D01*
D15*
G36*
X86800000Y-121550000D02*
G01*
X87200000Y-121550000D01*
X87200000Y-121950000D01*
X86800000Y-121950000D01*
X86800000Y-121550000D01*
G37*
X86800000Y-121550000D02*
X87200000Y-121550000D01*
X87200000Y-121950000D01*
X86800000Y-121950000D01*
X86800000Y-121550000D01*
D12*
%TO.C,R21*%
X77758578Y-116540000D02*
X77241422Y-116540000D01*
X77758578Y-117960000D02*
X77241422Y-117960000D01*
X77662779Y-116740000D02*
X77337221Y-116740000D01*
X77662779Y-117760000D02*
X77337221Y-117760000D01*
D15*
G36*
X77700000Y-117450000D02*
G01*
X77300000Y-117450000D01*
X77300000Y-117050000D01*
X77700000Y-117050000D01*
X77700000Y-117450000D01*
G37*
X77700000Y-117450000D02*
X77300000Y-117450000D01*
X77300000Y-117050000D01*
X77700000Y-117050000D01*
X77700000Y-117450000D01*
D12*
%TO.C,R20*%
X73258578Y-120290000D02*
X72741422Y-120290000D01*
X73258578Y-121710000D02*
X72741422Y-121710000D01*
X73162779Y-120490000D02*
X72837221Y-120490000D01*
X73162779Y-121510000D02*
X72837221Y-121510000D01*
D15*
G36*
X73200000Y-121200000D02*
G01*
X72800000Y-121200000D01*
X72800000Y-120800000D01*
X73200000Y-120800000D01*
X73200000Y-121200000D01*
G37*
X73200000Y-121200000D02*
X72800000Y-121200000D01*
X72800000Y-120800000D01*
X73200000Y-120800000D01*
X73200000Y-121200000D01*
D12*
%TO.C,R19*%
X99508578Y-119290000D02*
X98991422Y-119290000D01*
X99508578Y-120710000D02*
X98991422Y-120710000D01*
X99412779Y-119490000D02*
X99087221Y-119490000D01*
X99412779Y-120510000D02*
X99087221Y-120510000D01*
D15*
G36*
X99450000Y-120200000D02*
G01*
X99050000Y-120200000D01*
X99050000Y-119800000D01*
X99450000Y-119800000D01*
X99450000Y-120200000D01*
G37*
X99450000Y-120200000D02*
X99050000Y-120200000D01*
X99050000Y-119800000D01*
X99450000Y-119800000D01*
X99450000Y-120200000D01*
D12*
%TO.C,R18*%
X99508578Y-121790000D02*
X98991422Y-121790000D01*
X99508578Y-123210000D02*
X98991422Y-123210000D01*
X99412779Y-121990000D02*
X99087221Y-121990000D01*
X99412779Y-123010000D02*
X99087221Y-123010000D01*
D15*
G36*
X99450000Y-122700000D02*
G01*
X99050000Y-122700000D01*
X99050000Y-122300000D01*
X99450000Y-122300000D01*
X99450000Y-122700000D01*
G37*
X99450000Y-122700000D02*
X99050000Y-122700000D01*
X99050000Y-122300000D01*
X99450000Y-122300000D01*
X99450000Y-122700000D01*
D12*
%TO.C,R17*%
X99508578Y-124290000D02*
X98991422Y-124290000D01*
X99508578Y-125710000D02*
X98991422Y-125710000D01*
X99412779Y-124490000D02*
X99087221Y-124490000D01*
X99412779Y-125510000D02*
X99087221Y-125510000D01*
D15*
G36*
X99450000Y-125200000D02*
G01*
X99050000Y-125200000D01*
X99050000Y-124800000D01*
X99450000Y-124800000D01*
X99450000Y-125200000D01*
G37*
X99450000Y-125200000D02*
X99050000Y-125200000D01*
X99050000Y-124800000D01*
X99450000Y-124800000D01*
X99450000Y-125200000D01*
D12*
%TO.C,R16*%
X94991422Y-125710000D02*
X95508578Y-125710000D01*
X94991422Y-124290000D02*
X95508578Y-124290000D01*
X95087221Y-125510000D02*
X95412779Y-125510000D01*
X95087221Y-124490000D02*
X95412779Y-124490000D01*
D15*
G36*
X95050000Y-124800000D02*
G01*
X95450000Y-124800000D01*
X95450000Y-125200000D01*
X95050000Y-125200000D01*
X95050000Y-124800000D01*
G37*
X95050000Y-124800000D02*
X95450000Y-124800000D01*
X95450000Y-125200000D01*
X95050000Y-125200000D01*
X95050000Y-124800000D01*
D12*
%TO.C,R15*%
X94991422Y-120710000D02*
X95508578Y-120710000D01*
X94991422Y-119290000D02*
X95508578Y-119290000D01*
X95087221Y-120510000D02*
X95412779Y-120510000D01*
X95087221Y-119490000D02*
X95412779Y-119490000D01*
D15*
G36*
X95050000Y-119800000D02*
G01*
X95450000Y-119800000D01*
X95450000Y-120200000D01*
X95050000Y-120200000D01*
X95050000Y-119800000D01*
G37*
X95050000Y-119800000D02*
X95450000Y-119800000D01*
X95450000Y-120200000D01*
X95050000Y-120200000D01*
X95050000Y-119800000D01*
D12*
%TO.C,R14*%
X94991422Y-123210000D02*
X95508578Y-123210000D01*
X94991422Y-121790000D02*
X95508578Y-121790000D01*
X95087221Y-123010000D02*
X95412779Y-123010000D01*
X95087221Y-121990000D02*
X95412779Y-121990000D01*
D15*
G36*
X95050000Y-122300000D02*
G01*
X95450000Y-122300000D01*
X95450000Y-122700000D01*
X95050000Y-122700000D01*
X95050000Y-122300000D01*
G37*
X95050000Y-122300000D02*
X95450000Y-122300000D01*
X95450000Y-122700000D01*
X95050000Y-122700000D01*
X95050000Y-122300000D01*
D12*
%TO.C,R13*%
X87258578Y-116040000D02*
X86741422Y-116040000D01*
X87258578Y-117460000D02*
X86741422Y-117460000D01*
X87162779Y-116240000D02*
X86837221Y-116240000D01*
X87162779Y-117260000D02*
X86837221Y-117260000D01*
D15*
G36*
X87200000Y-116950000D02*
G01*
X86800000Y-116950000D01*
X86800000Y-116550000D01*
X87200000Y-116550000D01*
X87200000Y-116950000D01*
G37*
X87200000Y-116950000D02*
X86800000Y-116950000D01*
X86800000Y-116550000D01*
X87200000Y-116550000D01*
X87200000Y-116950000D01*
%TO.C,R12*%
G36*
X89950000Y-130200000D02*
G01*
X89550000Y-130200000D01*
X89550000Y-129800000D01*
X89950000Y-129800000D01*
X89950000Y-130200000D01*
G37*
X89950000Y-130200000D02*
X89550000Y-130200000D01*
X89550000Y-129800000D01*
X89950000Y-129800000D01*
X89950000Y-130200000D01*
D12*
X89912779Y-130510000D02*
X89587221Y-130510000D01*
X89912779Y-129490000D02*
X89587221Y-129490000D01*
X90008578Y-130710000D02*
X89491422Y-130710000D01*
X90008578Y-129290000D02*
X89491422Y-129290000D01*
%TO.C,R11*%
X86741422Y-119960000D02*
X87258578Y-119960000D01*
X86741422Y-118540000D02*
X87258578Y-118540000D01*
X86837221Y-119760000D02*
X87162779Y-119760000D01*
X86837221Y-118740000D02*
X87162779Y-118740000D01*
D15*
G36*
X86800000Y-119050000D02*
G01*
X87200000Y-119050000D01*
X87200000Y-119450000D01*
X86800000Y-119450000D01*
X86800000Y-119050000D01*
G37*
X86800000Y-119050000D02*
X87200000Y-119050000D01*
X87200000Y-119450000D01*
X86800000Y-119450000D01*
X86800000Y-119050000D01*
D12*
%TO.C,R10*%
X98758578Y-132040000D02*
X98241422Y-132040000D01*
X98758578Y-133460000D02*
X98241422Y-133460000D01*
X98662779Y-132240000D02*
X98337221Y-132240000D01*
X98662779Y-133260000D02*
X98337221Y-133260000D01*
D15*
G36*
X98700000Y-132950000D02*
G01*
X98300000Y-132950000D01*
X98300000Y-132550000D01*
X98700000Y-132550000D01*
X98700000Y-132950000D01*
G37*
X98700000Y-132950000D02*
X98300000Y-132950000D01*
X98300000Y-132550000D01*
X98700000Y-132550000D01*
X98700000Y-132950000D01*
D12*
%TO.C,R9*%
X99790000Y-128241422D02*
X99790000Y-128758578D01*
X101210000Y-128241422D02*
X101210000Y-128758578D01*
X99990000Y-128337221D02*
X99990000Y-128662779D01*
X101010000Y-128337221D02*
X101010000Y-128662779D01*
D15*
G36*
X100700000Y-128300000D02*
G01*
X100700000Y-128700000D01*
X100300000Y-128700000D01*
X100300000Y-128300000D01*
X100700000Y-128300000D01*
G37*
X100700000Y-128300000D02*
X100700000Y-128700000D01*
X100300000Y-128700000D01*
X100300000Y-128300000D01*
X100700000Y-128300000D01*
D12*
%TO.C,R8*%
X97290000Y-128241422D02*
X97290000Y-128758578D01*
X98710000Y-128241422D02*
X98710000Y-128758578D01*
X97490000Y-128337221D02*
X97490000Y-128662779D01*
X98510000Y-128337221D02*
X98510000Y-128662779D01*
D15*
G36*
X98200000Y-128300000D02*
G01*
X98200000Y-128700000D01*
X97800000Y-128700000D01*
X97800000Y-128300000D01*
X98200000Y-128300000D01*
G37*
X98200000Y-128300000D02*
X98200000Y-128700000D01*
X97800000Y-128700000D01*
X97800000Y-128300000D01*
X98200000Y-128300000D01*
D12*
%TO.C,R7*%
X94790000Y-128241422D02*
X94790000Y-128758578D01*
X96210000Y-128241422D02*
X96210000Y-128758578D01*
X94990000Y-128337221D02*
X94990000Y-128662779D01*
X96010000Y-128337221D02*
X96010000Y-128662779D01*
D15*
G36*
X95700000Y-128300000D02*
G01*
X95700000Y-128700000D01*
X95300000Y-128700000D01*
X95300000Y-128300000D01*
X95700000Y-128300000D01*
G37*
X95700000Y-128300000D02*
X95700000Y-128700000D01*
X95300000Y-128700000D01*
X95300000Y-128300000D01*
X95700000Y-128300000D01*
%TO.C,R6*%
G36*
X89950000Y-132700000D02*
G01*
X89550000Y-132700000D01*
X89550000Y-132300000D01*
X89950000Y-132300000D01*
X89950000Y-132700000D01*
G37*
X89950000Y-132700000D02*
X89550000Y-132700000D01*
X89550000Y-132300000D01*
X89950000Y-132300000D01*
X89950000Y-132700000D01*
D12*
X89912779Y-133010000D02*
X89587221Y-133010000D01*
X89912779Y-131990000D02*
X89587221Y-131990000D01*
X90008578Y-133210000D02*
X89491422Y-133210000D01*
X90008578Y-131790000D02*
X89491422Y-131790000D01*
%TO.C,R5*%
X92290000Y-128241422D02*
X92290000Y-128758578D01*
X93710000Y-128241422D02*
X93710000Y-128758578D01*
X92490000Y-128337221D02*
X92490000Y-128662779D01*
X93510000Y-128337221D02*
X93510000Y-128662779D01*
D15*
G36*
X93200000Y-128300000D02*
G01*
X93200000Y-128700000D01*
X92800000Y-128700000D01*
X92800000Y-128300000D01*
X93200000Y-128300000D01*
G37*
X93200000Y-128300000D02*
X93200000Y-128700000D01*
X92800000Y-128700000D01*
X92800000Y-128300000D01*
X93200000Y-128300000D01*
D12*
%TO.C,R4*%
X77508578Y-145290000D02*
X76991422Y-145290000D01*
X77508578Y-146710000D02*
X76991422Y-146710000D01*
X77412779Y-145490000D02*
X77087221Y-145490000D01*
X77412779Y-146510000D02*
X77087221Y-146510000D01*
D15*
G36*
X77450000Y-146200000D02*
G01*
X77050000Y-146200000D01*
X77050000Y-145800000D01*
X77450000Y-145800000D01*
X77450000Y-146200000D01*
G37*
X77450000Y-146200000D02*
X77050000Y-146200000D01*
X77050000Y-145800000D01*
X77450000Y-145800000D01*
X77450000Y-146200000D01*
D12*
%TO.C,R3*%
X87508578Y-144790000D02*
X86991422Y-144790000D01*
X87508578Y-146210000D02*
X86991422Y-146210000D01*
X87412779Y-144990000D02*
X87087221Y-144990000D01*
X87412779Y-146010000D02*
X87087221Y-146010000D01*
D15*
G36*
X87450000Y-145700000D02*
G01*
X87050000Y-145700000D01*
X87050000Y-145300000D01*
X87450000Y-145300000D01*
X87450000Y-145700000D01*
G37*
X87450000Y-145700000D02*
X87050000Y-145700000D01*
X87050000Y-145300000D01*
X87450000Y-145300000D01*
X87450000Y-145700000D01*
D12*
%TO.C,R2*%
X73258578Y-141040000D02*
X72741422Y-141040000D01*
X73258578Y-142460000D02*
X72741422Y-142460000D01*
X73162779Y-141240000D02*
X72837221Y-141240000D01*
X73162779Y-142260000D02*
X72837221Y-142260000D01*
D15*
G36*
X73200000Y-141950000D02*
G01*
X72800000Y-141950000D01*
X72800000Y-141550000D01*
X73200000Y-141550000D01*
X73200000Y-141950000D01*
G37*
X73200000Y-141950000D02*
X72800000Y-141950000D01*
X72800000Y-141550000D01*
X73200000Y-141550000D01*
X73200000Y-141950000D01*
D12*
%TO.C,R1*%
X75540000Y-142491422D02*
X75540000Y-143008578D01*
X76960000Y-142491422D02*
X76960000Y-143008578D01*
X75740000Y-142587221D02*
X75740000Y-142912779D01*
X76760000Y-142587221D02*
X76760000Y-142912779D01*
D15*
G36*
X76450000Y-142550000D02*
G01*
X76450000Y-142950000D01*
X76050000Y-142950000D01*
X76050000Y-142550000D01*
X76450000Y-142550000D01*
G37*
X76450000Y-142550000D02*
X76450000Y-142950000D01*
X76050000Y-142950000D01*
X76050000Y-142550000D01*
X76450000Y-142550000D01*
D12*
%TO.C,JP2*%
X105040000Y-134491422D02*
X105040000Y-135008578D01*
X106460000Y-134491422D02*
X106460000Y-135008578D01*
X105240000Y-134587221D02*
X105240000Y-134912779D01*
X106260000Y-134587221D02*
X106260000Y-134912779D01*
D15*
G36*
X105950000Y-134550000D02*
G01*
X105950000Y-134950000D01*
X105550000Y-134950000D01*
X105550000Y-134550000D01*
X105950000Y-134550000D01*
G37*
X105950000Y-134550000D02*
X105950000Y-134950000D01*
X105550000Y-134950000D01*
X105550000Y-134550000D01*
X105950000Y-134550000D01*
D12*
%TO.C,JP1*%
X102540000Y-134491422D02*
X102540000Y-135008578D01*
X103960000Y-134491422D02*
X103960000Y-135008578D01*
X102740000Y-134587221D02*
X102740000Y-134912779D01*
X103760000Y-134587221D02*
X103760000Y-134912779D01*
D15*
G36*
X103450000Y-134550000D02*
G01*
X103450000Y-134950000D01*
X103050000Y-134950000D01*
X103050000Y-134550000D01*
X103450000Y-134550000D01*
G37*
X103450000Y-134550000D02*
X103450000Y-134950000D01*
X103050000Y-134950000D01*
X103050000Y-134550000D01*
X103450000Y-134550000D01*
D12*
%TO.C,Q9*%
X79330000Y-119740000D02*
X79330000Y-121200000D01*
X76170000Y-119740000D02*
X76170000Y-121900000D01*
X76170000Y-119740000D02*
X77100000Y-119740000D01*
X79330000Y-119740000D02*
X78400000Y-119740000D01*
%TO.C,Q7*%
X82740000Y-142920000D02*
X84200000Y-142920000D01*
X82740000Y-146080000D02*
X84900000Y-146080000D01*
X82740000Y-146080000D02*
X82740000Y-145150000D01*
X82740000Y-142920000D02*
X82740000Y-143850000D01*
%TO.C,Q6*%
X104010000Y-119330000D02*
X102550000Y-119330000D01*
X104010000Y-116170000D02*
X101850000Y-116170000D01*
X104010000Y-116170000D02*
X104010000Y-117100000D01*
X104010000Y-119330000D02*
X104010000Y-118400000D01*
%TO.C,Q4*%
X104010000Y-128330000D02*
X102550000Y-128330000D01*
X104010000Y-125170000D02*
X101850000Y-125170000D01*
X104010000Y-125170000D02*
X104010000Y-126100000D01*
X104010000Y-128330000D02*
X104010000Y-127400000D01*
%TO.C,Q3*%
X89670000Y-125760000D02*
X89670000Y-124300000D01*
X92830000Y-125760000D02*
X92830000Y-123600000D01*
X92830000Y-125760000D02*
X91900000Y-125760000D01*
X89670000Y-125760000D02*
X90600000Y-125760000D01*
%TO.C,Q2*%
X89670000Y-118260000D02*
X89670000Y-116800000D01*
X92830000Y-118260000D02*
X92830000Y-116100000D01*
X92830000Y-118260000D02*
X91900000Y-118260000D01*
X89670000Y-118260000D02*
X90600000Y-118260000D01*
%TO.C,Q1*%
X89670000Y-122010000D02*
X89670000Y-120550000D01*
X92830000Y-122010000D02*
X92830000Y-119850000D01*
X92830000Y-122010000D02*
X91900000Y-122010000D01*
X89670000Y-122010000D02*
X90600000Y-122010000D01*
%TO.C,F1*%
X107113748Y-126710000D02*
X109886252Y-126710000D01*
X107113748Y-123290000D02*
X109886252Y-123290000D01*
D10*
%TO.C,U2*%
X88550000Y-142750000D02*
X88550000Y-136775000D01*
X95450000Y-141225000D02*
X95450000Y-136775000D01*
D12*
%TO.C,U1*%
X80900000Y-138140000D02*
X78450000Y-138140000D01*
X79100000Y-141360000D02*
X80900000Y-141360000D01*
%TD*%
M02*
