<?xml version="1.0" standalone="no"?>
 <!DOCTYPE svg PUBLIC "-//W3C//DTD SVG 1.1//EN" 
 "http://www.w3.org/Graphics/SVG/1.1/DTD/svg11.dtd"> 
<svg xmlns="http://www.w3.org/2000/svg" version="1.1" 
    width="4.51866cm" height="2.77114cm" viewBox="0 0 17790 10910 ">
<title>SVG Picture created as POxiM-wristcomputer-brd.svg date 2020/05/15 16:35:02 </title>
  <desc>Picture generated by PCBNEW </desc>
<g style="fill:#000000; fill-opacity:1;stroke:#000000; stroke-opacity:1;
stroke-linecap:round; stroke-linejoin:round; "
 transform="translate(0 0) scale(1 1)">
</g>
<g style="fill:#000000; fill-opacity:0.0; 
stroke:#000000; stroke-width:-0.000393701; stroke-opacity:1; 
stroke-linecap:round; stroke-linejoin:round;">
</g>
<g style="fill:#000000; fill-opacity:0.0; 
stroke:#000000; stroke-width:787.402; stroke-opacity:1; 
stroke-linecap:round; stroke-linejoin:round;">
</g>
<g style="fill:#000000; fill-opacity:1.0; 
stroke:#000000; stroke-width:0; stroke-opacity:1; 
stroke-linecap:round; stroke-linejoin:round;">
<circle cx="1712.13" cy="3318.19" r="393.701" /> 
</g>
<g style="fill:#000000; fill-opacity:0.0; 
stroke:#000000; stroke-width:0; stroke-opacity:1; 
stroke-linecap:round; stroke-linejoin:round;">
</g>
<g style="fill:#000000; fill-opacity:0.0; 
stroke:#000000; stroke-width:78.7402; stroke-opacity:1; 
stroke-linecap:round; stroke-linejoin:round;">
<path d="M15519 6890
L15564 6905
L15639 6905
L15669 6890
L15684 6875
L15699 6845
L15699 6815
L15684 6785
L15669 6770
L15639 6755
L15579 6740
L15549 6725
L15534 6710
L15519 6680
L15519 6650
L15534 6620
L15549 6605
L15579 6590
L15654 6590
L15699 6605
" />
<path d="M15834 6905
L15834 6590
L15954 6590
L15984 6605
L15999 6620
L16014 6650
L16014 6695
L15999 6725
L15984 6740
L15954 6755
L15834 6755
" />
<path d="M16209 6590
L16269 6590
L16299 6605
L16329 6635
L16344 6695
L16344 6800
L16329 6860
L16299 6890
L16269 6905
L16209 6905
L16179 6890
L16149 6860
L16134 6800
L16134 6695
L16149 6635
L16179 6605
L16209 6590
" />
<path d="M16464 6620
L16479 6605
L16509 6590
L16584 6590
L16614 6605
L16629 6620
L16644 6650
L16644 6680
L16629 6725
L16449 6905
L16644 6905
" />
</g>
<g style="fill:#000000; fill-opacity:0.0; 
stroke:#000000; stroke-width:59.0551; stroke-opacity:1; 
stroke-linecap:round; stroke-linejoin:round;">
<path d="M15767 4772
L15812 4787
L15827 4802
L15842 4832
L15842 4877
L15827 4907
L15812 4922
L15782 4937
L15662 4937
L15662 4622
L15767 4622
L15797 4637
L15812 4652
L15827 4682
L15827 4712
L15812 4742
L15797 4757
L15767 4772
L15662 4772
" />
<path d="M15977 4937
L15977 4622
L16097 4622
L16127 4637
L16142 4652
L16157 4682
L16157 4727
L16142 4757
L16127 4772
L16097 4787
L15977 4787
" />
<path d="M16292 4937
L16292 4622
L16397 4847
L16502 4622
L16502 4937
" />
</g>
<g style="fill:#000000; fill-opacity:0.0; 
stroke:#000000; stroke-width:39.3701; stroke-opacity:1; 
stroke-linecap:round; stroke-linejoin:round;">
</g>
<g style="fill:#000000; fill-opacity:1.0; 
stroke:#000000; stroke-width:39.3701; stroke-opacity:1; 
stroke-linecap:round; stroke-linejoin:round;">
<path style="fill:#000000; fill-opacity:1.0; 
stroke:#000000; stroke-width:39.3701; stroke-opacity:1; 
stroke-linecap:round; stroke-linejoin:round;fill-rule:evenodd;"
d="M 14999,2629
14704,2924
12342,2924
12046,2629
12342,2333
14704,2333
Z" /> 
<path style="fill:#000000; fill-opacity:1.0; 
stroke:#000000; stroke-width:39.3701; stroke-opacity:1; 
stroke-linecap:round; stroke-linejoin:round;fill-rule:evenodd;"
d="M 15393,6172
15393,8534
15097,8830
14802,8534
14802,6172
15097,5877
Z" /> 
<path style="fill:#000000; fill-opacity:1.0; 
stroke:#000000; stroke-width:39.3701; stroke-opacity:1; 
stroke-linecap:round; stroke-linejoin:round;fill-rule:evenodd;"
d="M 12243,3022
12243,5385
11948,5680
11653,5385
11653,3022
11948,2727
Z" /> 
<path style="fill:#000000; fill-opacity:1.0; 
stroke:#000000; stroke-width:39.3701; stroke-opacity:1; 
stroke-linecap:round; stroke-linejoin:round;fill-rule:evenodd;"
d="M 14999,5778
14704,6074
12342,6074
12046,5778
12342,5483
14704,5483
Z" /> 
<path style="fill:#000000; fill-opacity:1.0; 
stroke:#000000; stroke-width:39.3701; stroke-opacity:1; 
stroke-linecap:round; stroke-linejoin:round;fill-rule:evenodd;"
d="M 15393,3022
15393,5385
15097,5680
14802,5385
14802,3022
15097,2727
Z" /> 
<path style="fill:#000000; fill-opacity:1.0; 
stroke:#000000; stroke-width:39.3701; stroke-opacity:1; 
stroke-linecap:round; stroke-linejoin:round;fill-rule:evenodd;"
d="M 14999,8928
14704,9223
12342,9223
12046,8928
12342,8633
14704,8633
Z" /> 
<path style="fill:#000000; fill-opacity:1.0; 
stroke:#000000; stroke-width:39.3701; stroke-opacity:1; 
stroke-linecap:round; stroke-linejoin:round;fill-rule:evenodd;"
d="M 12243,6172
12243,8534
11948,8830
11653,8534
11653,6172
11948,5877
Z" /> 
<path style="fill:#000000; fill-opacity:1.0; 
stroke:#000000; stroke-width:39.3701; stroke-opacity:1; 
stroke-linecap:round; stroke-linejoin:round;fill-rule:evenodd;"
d="M 5747,2629
5452,2924
3090,2924
2794,2629
3090,2333
5452,2333
Z" /> 
<path style="fill:#000000; fill-opacity:1.0; 
stroke:#000000; stroke-width:39.3701; stroke-opacity:1; 
stroke-linecap:round; stroke-linejoin:round;fill-rule:evenodd;"
d="M 6141,6172
6141,8534
5845,8830
5550,8534
5550,6172
5845,5877
Z" /> 
<path style="fill:#000000; fill-opacity:1.0; 
stroke:#000000; stroke-width:39.3701; stroke-opacity:1; 
stroke-linecap:round; stroke-linejoin:round;fill-rule:evenodd;"
d="M 2991,3022
2991,5385
2696,5680
2401,5385
2401,3022
2696,2727
Z" /> 
<path style="fill:#000000; fill-opacity:1.0; 
stroke:#000000; stroke-width:39.3701; stroke-opacity:1; 
stroke-linecap:round; stroke-linejoin:round;fill-rule:evenodd;"
d="M 5747,5778
5452,6074
3090,6074
2794,5778
3090,5483
5452,5483
Z" /> 
<path style="fill:#000000; fill-opacity:1.0; 
stroke:#000000; stroke-width:39.3701; stroke-opacity:1; 
stroke-linecap:round; stroke-linejoin:round;fill-rule:evenodd;"
d="M 6141,3022
6141,5385
5845,5680
5550,5385
5550,3022
5845,2727
Z" /> 
<path style="fill:#000000; fill-opacity:1.0; 
stroke:#000000; stroke-width:39.3701; stroke-opacity:1; 
stroke-linecap:round; stroke-linejoin:round;fill-rule:evenodd;"
d="M 5747,8928
5452,9223
3090,9223
2794,8928
3090,8633
5452,8633
Z" /> 
<path style="fill:#000000; fill-opacity:1.0; 
stroke:#000000; stroke-width:39.3701; stroke-opacity:1; 
stroke-linecap:round; stroke-linejoin:round;fill-rule:evenodd;"
d="M 2991,6172
2991,8534
2696,8830
2401,8534
2401,6172
2696,5877
Z" /> 
<path style="fill:#000000; fill-opacity:1.0; 
stroke:#000000; stroke-width:39.3701; stroke-opacity:1; 
stroke-linecap:round; stroke-linejoin:round;fill-rule:evenodd;"
d="M 10373,2629
10078,2924
7716,2924
7420,2629
7716,2333
10078,2333
Z" /> 
<path style="fill:#000000; fill-opacity:1.0; 
stroke:#000000; stroke-width:39.3701; stroke-opacity:1; 
stroke-linecap:round; stroke-linejoin:round;fill-rule:evenodd;"
d="M 7617,3022
7617,5385
7322,5680
7027,5385
7027,3022
7322,2727
Z" /> 
<path style="fill:#000000; fill-opacity:1.0; 
stroke:#000000; stroke-width:39.3701; stroke-opacity:1; 
stroke-linecap:round; stroke-linejoin:round;fill-rule:evenodd;"
d="M 7617,6172
7617,8534
7322,8830
7027,8534
7027,6172
7322,5877
Z" /> 
<path style="fill:#000000; fill-opacity:1.0; 
stroke:#000000; stroke-width:39.3701; stroke-opacity:1; 
stroke-linecap:round; stroke-linejoin:round;fill-rule:evenodd;"
d="M 10373,8928
10078,9223
7716,9223
7420,8928
7716,8633
10078,8633
Z" /> 
<path style="fill:#000000; fill-opacity:1.0; 
stroke:#000000; stroke-width:39.3701; stroke-opacity:1; 
stroke-linecap:round; stroke-linejoin:round;fill-rule:evenodd;"
d="M 10767,6172
10767,8534
10471,8830
10176,8534
10176,6172
10471,5877
Z" /> 
<path style="fill:#000000; fill-opacity:1.0; 
stroke:#000000; stroke-width:39.3701; stroke-opacity:1; 
stroke-linecap:round; stroke-linejoin:round;fill-rule:evenodd;"
d="M 10767,3022
10767,5385
10471,5680
10176,5385
10176,3022
10471,2727
Z" /> 
<path style="fill:#000000; fill-opacity:1.0; 
stroke:#000000; stroke-width:39.3701; stroke-opacity:1; 
stroke-linecap:round; stroke-linejoin:round;fill-rule:evenodd;"
d="M 10373,5778
10078,6074
7716,6074
7420,5778
7716,5483
10078,5483
Z" /> 
<g >
</g>
<g >
</g>
<g >
</g>
<g >
</g>
<g >
</g>
<g >
</g>
<g >
</g>
<g >
</g>
<g >
</g>
<g >
</g>
<g >
</g>
<g >
</g>
<g >
</g>
<g >
</g>
<g >
</g>
<g >
</g>
<g >
</g>
<g >
</g>
<g >
</g>
<g >
</g>
<g >
</g>
<g >
</g>
<g >
</g>
<g >
</g>
<g >
</g>
<g >
</g>
<g >
</g>
<g >
</g>
<g >
</g>
<g >
</g>
<g >
</g>
<g >
</g>
<g >
</g>
<g >
</g>
<g >
</g>
<g >
</g>
<g >
</g>
<g >
</g>
<g >
</g>
<g >
</g>
<g >
</g>
<g >
</g>
<g >
</g>
<g >
</g>
<g >
</g>
<g >
</g>
<g >
</g>
<g >
</g>
<g >
</g>
<g >
</g>
<g >
</g>
<g >
</g>
<g >
</g>
<g >
</g>
<g >
</g>
<g >
</g>
<g >
</g>
<g >
</g>
<g >
</g>
<g >
</g>
<g >
</g>
<g >
</g>
</g>
<g style="fill:#000000; fill-opacity:0.0; 
stroke:#000000; stroke-width:39.3701; stroke-opacity:1; 
stroke-linecap:round; stroke-linejoin:round;">
</g>
<g style="fill:#000000; fill-opacity:0.0; 
stroke:#000000; stroke-width:31.4961; stroke-opacity:1; 
stroke-linecap:round; stroke-linejoin:round;">
<path d="M1107 6473
L910 6473
L910 6398
L919 6379
L929 6370
L947 6360
L976 6360
L994 6370
L1004 6379
L1013 6398
L1013 6473
" />
<path d="M1088 6164
L1097 6173
L1107 6201
L1107 6220
L1097 6248
L1079 6267
L1060 6276
L1022 6285
L994 6285
L957 6276
L938 6267
L919 6248
L910 6220
L910 6201
L919 6173
L929 6164
" />
<path d="M1004 6014
L1013 5985
L1022 5976
L1041 5967
L1069 5967
L1088 5976
L1097 5985
L1107 6004
L1107 6079
L910 6079
L910 6014
L919 5995
L929 5985
L947 5976
L966 5976
L985 5985
L994 5995
L1004 6014
L1004 6079
" />
<path d="M1004 5732
L1004 5667
" />
<path d="M1107 5639
L1107 5732
L910 5732
L910 5639
" />
<path d="M1107 5470
L910 5470
" />
<path d="M1097 5470
L1107 5489
L1107 5526
L1097 5545
L1088 5554
L1069 5564
L1013 5564
L994 5554
L985 5545
L976 5526
L976 5489
L985 5470
" />
<path d="M976 5292
L1135 5292
L1154 5301
L1163 5311
L1172 5329
L1172 5357
L1163 5376
" />
<path d="M1097 5292
L1107 5311
L1107 5348
L1097 5367
L1088 5376
L1069 5386
L1013 5386
L994 5376
L985 5367
L976 5348
L976 5311
L985 5292
" />
<path d="M1097 5123
L1107 5142
L1107 5179
L1097 5198
L1079 5207
L1004 5207
L985 5198
L976 5179
L976 5142
L985 5123
L1004 5114
L1022 5114
L1041 5207
" />
<g >
</g>
</g>
<g style="fill:#000000; fill-opacity:0.0; 
stroke:#000000; stroke-width:157.48; stroke-opacity:1; 
stroke-linecap:round; stroke-linejoin:round;">
<path d="M16771 10404
L1023 10404
" />
<path d="M16771 10404
L16771 1152
" />
<path d="M1023 1152
L1023 10404
" />
<path d="M1023 1152
L16771 1152
" />
<g >
</g>
<g >
</g>
<g >
</g>
<g >
</g>
<g >
</g>
<g >
</g>
<g >
</g>
<g >
</g>
<g >
</g>
<g >
</g>
<g >
</g>
<g >
</g>
<g >
</g>
<g >
</g>
<g >
</g>
<g >
</g>
<g >
</g>
<g >
</g>
<g >
</g>
<g >
</g>
<g >
</g>
<g >
</g>
<g >
</g>
<g >
</g>
<g >
</g>
<g >
</g>
<g >
</g>
<g >
</g>
<g >
</g>
<g >
</g>
<g >
</g>
<g >
</g>
<g >
</g>
<g >
</g>
<g >
</g>
<g >
</g>
<g >
</g>
<g >
</g>
<g >
</g>
<g >
</g>
<g >
</g>
<g >
</g>
<g >
</g>
<g >
</g>
<g >
</g>
<g >
</g>
<g >
</g>
<g >
</g>
<g >
</g>
<g >
</g>
<g >
</g>
<g >
</g>
<g >
</g>
<g >
</g>
<g >
</g>
<g >
</g>
<g >
</g>
<g >
</g>
<g >
</g>
<g >
</g>
<g >
</g>
<g >
</g>
<g >
</g>
</g> 
</svg>
