  0
SECTION
  2
HEADER
  9
$ACADVER
  1
AC1014
  9
$HANDSEED
  5
FFFF
  9
$MEASUREMENT
 70
     1
  0
ENDSEC
  0
SECTION
  2
TABLES
  0
TABLE
  2
VPORT
  5
8
330
0
100
AcDbSymbolTable
 70
     4
  0
VPORT
  5
2E
330
8
100
AcDbSymbolTableRecord
100
AcDbViewportTableRecord
  2
*ACTIVE
 70
     0
 10
0.0
 20
0.0
 11
1.0
 21
1.0
 12
210.0
 22
148.5
 13
0.0
 23
0.0
 14
10.0
 24
10.0
 15
10.0
 25
10.0
 16
0.0
 26
0.0
 36
1.0
 17
0.0
 27
0.0
 37
0.0
 40
341.0
 41
1.24
 42
50.0
 43
0.0
 44
0.0
 50
0.0
 51
0.0
 71
     0
 72
   100
 73
     1
 74
     3
 75
     0
 76
     0
 77
     0
 78
     0
  0
ENDTAB
  0
TABLE
  2
LTYPE
  5
5
330
0
100
AcDbSymbolTable
 70
     1
  0
LTYPE
  5
14
330
5
100
AcDbSymbolTableRecord
100
AcDbLinetypeTableRecord
  2
BYBLOCK
 70
     0
  3

 72
    65
 73
     0
 40
0.0
  0
LTYPE
  5
15
330
5
100
AcDbSymbolTableRecord
100
AcDbLinetypeTableRecord
  2
BYLAYER
 70
     0
  3

 72
    65
 73
     0
 40
0.0
  0
LTYPE
  5
16
330
5
100
AcDbSymbolTableRecord
100
AcDbLinetypeTableRecord
  2
CONTINUOUS
 70
     0
  3
Solid line
 72
    65
 73
     0
 40
0.0
  0
ENDTAB
  0
TABLE
  2
LAYER
  5
2
100
AcDbSymbolTable
 70
1
  0
LAYER
  5
50
100
AcDbSymbolTableRecord
100
AcDbLayerTableRecord
  2
0
 70
0
  6
CONTINUOUS
  0
ENDTAB
  0
TABLE
  2
STYLE
  5
3
330
0
100
AcDbSymbolTable
 70
     1
  0
STYLE
  5
11
330
3
100
AcDbSymbolTableRecord
100
AcDbTextStyleTableRecord
  2
STANDARD
 70
     0
 40
0.0
 41
1.0
 50
0.0
 71
     0
 42
2.5
  3
txt
  4

  0
ENDTAB
  0
TABLE
  2
VIEW
  5
6
330
0
100
AcDbSymbolTable
 70
     0
  0
ENDTAB
  0
TABLE
  2
UCS
  5
7
330
0
100
AcDbSymbolTable
 70
     0
  0
ENDTAB
  0
TABLE
  2
APPID
  5
9
330
0
100
AcDbSymbolTable
 70
     2
  0
APPID
  5
12
330
9
100
AcDbSymbolTableRecord
100
AcDbRegAppTableRecord
  2
ACAD
 70
     0
  0
ENDTAB
  0
TABLE
  2
DIMSTYLE
  5
A
330
0
100
AcDbSymbolTable
 70
     1
  0
DIMSTYLE
105
27
330
A
100
AcDbSymbolTableRecord
100
AcDbDimStyleTableRecord
  2
ISO-25
 70
     0
  3

  4

  5

  6

  7

 40
1.0
 41
2.5
 42
0.625
 43
3.75
 44
1.25
 45
0.0
 46
0.0
 47
0.0
 48
0.0
140
2.5
141
2.5
142
0.0
143
0.03937007874016
144
1.0
145
0.0
146
1.0
147
0.625
 71
     0
 72
     0
 73
     0
 74
     0
 75
     0
 76
     0
 77
     1
 78
     8
170
     0
171
     3
172
     1
173
     0
174
     0
175
     0
176
     0
177
     0
178
     0
270
     2
271
     2
272
     2
273
     2
274
     3
340
11
275
     0
280
     0
281
     0
282
     0
283
     0
284
     8
285
     0
286
     0
287
     3
288
     0
  0
ENDTAB
  0
TABLE
  2
BLOCK_RECORD
  5
1
330
0
100
AcDbSymbolTable
 70
     1
  0
BLOCK_RECORD
  5
1F
330
1
100
AcDbSymbolTableRecord
100
AcDbBlockTableRecord
  2
*MODEL_SPACE
  0
BLOCK_RECORD
  5
1B
330
1
100
AcDbSymbolTableRecord
100
AcDbBlockTableRecord
  2
*PAPER_SPACE
  0
ENDTAB
  0
ENDSEC
  0
SECTION
  2
BLOCKS
  0
BLOCK
  5
20
330
1F
100
AcDbEntity
  8
0
100
AcDbBlockBegin
  2
*MODEL_SPACE
 70
     0
 10
0.0
 20
0.0
 30
0.0
  3
*MODEL_SPACE
  1

  0
ENDBLK
  5
21
330
1F
100
AcDbEntity
  8
0
100
AcDbBlockEnd
  0
BLOCK
  5
1C
330
1B
100
AcDbEntity
 67
     1
  8
0
100
AcDbBlockBegin
  2
*PAPER_SPACE
  1

  0
ENDBLK
  5
1D
330
1B
100
AcDbEntity
 67
     1
  8
0
100
AcDbBlockEnd
  0
ENDSEC
  0
SECTION
  2
ENTITIES
  0
SPLINE
  5
100
100
AcDbEntity
  8
0
 62
7
100
AcDbSpline
 70
8
 71
3
 72
8
 73
4
 74
0
 40
0
 40
0
 40
0
 40
0
 40
1
 40
1
 40
1
 40
1
 10
546.370584
 20
-283.759449
 30
0.0
 10
545.169246
 20
-283.878659
 30
0.0
 10
544.046617
 20
-284.411454
 30
0.0
 10
543.194620
 20
-285.266747
 30
0.0
  0
SPLINE
  5
101
100
AcDbEntity
  8
0
 62
7
100
AcDbSpline
 70
8
 71
3
 72
8
 73
4
 74
0
 40
0
 40
0
 40
0
 40
0
 40
1
 40
1
 40
1
 40
1
 10
464.872556
 20
-363.588838
 30
0.0
 10
463.900458
 20
-364.573322
 30
0.0
 10
463.359963
 20
-365.904098
 30
0.0
 10
463.370304
 20
-367.287599
 30
0.0
  0
SPLINE
  5
102
100
AcDbEntity
  8
0
 62
7
100
AcDbSpline
 70
8
 71
3
 72
8
 73
4
 74
0
 40
0
 40
0
 40
0
 40
0
 40
1
 40
1
 40
1
 40
1
 10
463.370304
 20
-367.287599
 30
0.0
 10
463.380645
 20
-368.671101
 30
0.0
 10
463.940972
 20
-369.993649
 30
0.0
 10
464.927678
 20
-370.963492
 30
0.0
  0
LWPOLYLINE
  5
103
100
AcDbEntity
  8
0
 62
7
100
AcDbPolyline
 90
2
 70
0
 10
543.194620
 20
-285.266747
 30
0.0
 10
464.872556
 20
-363.588838
 30
0.0
  0
SPLINE
  5
104
100
AcDbEntity
  8
0
 62
7
100
AcDbSpline
 70
8
 71
3
 72
8
 73
4
 74
0
 40
0
 40
0
 40
0
 40
0
 40
1
 40
1
 40
1
 40
1
 10
543.195915
 20
-449.016424
 30
0.0
 10
544.183371
 20
-449.994194
 30
0.0
 10
545.520590
 20
-450.536857
 30
0.0
 10
546.910169
 20
-450.523722
 30
0.0
  0
SPLINE
  5
105
100
AcDbEntity
  8
0
 62
7
100
AcDbSpline
 70
8
 71
3
 72
8
 73
4
 74
0
 40
0
 40
0
 40
0
 40
0
 40
1
 40
1
 40
1
 40
1
 10
546.910169
 20
-450.523722
 30
0.0
 10
546.910169
 20
-450.523722
 30
0.0
 10
1171.818149
 20
-450.523722
 30
0.0
 10
1171.818149
 20
-450.523722
 30
0.0
  0
SPLINE
  5
106
100
AcDbEntity
  8
0
 62
7
100
AcDbSpline
 70
8
 71
3
 72
8
 73
4
 74
0
 40
0
 40
0
 40
0
 40
0
 40
1
 40
1
 40
1
 40
1
 10
1171.818149
 20
-450.523722
 30
0.0
 10
1173.207728
 20
-450.536857
 30
0.0
 10
1174.544947
 20
-449.994194
 30
0.0
 10
1175.532402
 20
-449.016424
 30
0.0
  0
LWPOLYLINE
  5
107
100
AcDbEntity
  8
0
 62
7
100
AcDbPolyline
 90
2
 70
0
 10
464.927678
 20
-370.963492
 30
0.0
 10
543.195915
 20
-449.016424
 30
0.0
  0
SPLINE
  5
108
100
AcDbEntity
  8
0
 62
7
100
AcDbSpline
 70
8
 71
3
 72
8
 73
4
 74
0
 40
0
 40
0
 40
0
 40
0
 40
1
 40
1
 40
1
 40
1
 10
1253.584040
 20
-370.963409
 30
0.0
 10
1254.563406
 20
-369.986227
 30
0.0
 10
1255.113792
 20
-368.659572
 30
0.0
 10
1255.113792
 20
-367.276082
 30
0.0
  0
SPLINE
  5
109
100
AcDbEntity
  8
0
 62
7
100
AcDbSpline
 70
8
 71
3
 72
8
 73
4
 74
0
 40
0
 40
0
 40
0
 40
0
 40
1
 40
1
 40
1
 40
1
 10
1255.113792
 20
-367.276082
 30
0.0
 10
1255.113792
 20
-365.892593
 30
0.0
 10
1254.563406
 20
-364.565938
 30
0.0
 10
1253.584040
 20
-363.588755
 30
0.0
  0
SPLINE
  5
10a
100
AcDbEntity
  8
0
 62
7
100
AcDbSpline
 70
8
 71
3
 72
8
 73
4
 74
0
 40
0
 40
0
 40
0
 40
0
 40
1
 40
1
 40
1
 40
1
 10
1253.584040
 20
-363.588755
 30
0.0
 10
1253.584040
 20
-363.588755
 30
0.0
 10
1175.531107
 20
-285.266664
 30
0.0
 10
1175.531107
 20
-285.266664
 30
0.0
  0
SPLINE
  5
10b
100
AcDbEntity
  8
0
 62
7
100
AcDbSpline
 70
8
 71
3
 72
8
 73
4
 74
0
 40
0
 40
0
 40
0
 40
0
 40
1
 40
1
 40
1
 40
1
 10
1175.531107
 20
-285.266664
 30
0.0
 10
1174.543651
 20
-284.288894
 30
0.0
 10
1173.206433
 20
-283.746231
 30
0.0
 10
1171.816853
 20
-283.759366
 30
0.0
  0
LWPOLYLINE
  5
10c
100
AcDbEntity
  8
0
 62
7
100
AcDbPolyline
 90
2
 70
0
 10
1175.532402
 20
-449.016424
 30
0.0
 10
1253.584040
 20
-370.963409
 30
0.0
  0
SPLINE
  5
10d
100
AcDbEntity
  8
0
 62
7
100
AcDbSpline
 70
8
 71
3
 72
8
 73
4
 74
0
 40
0
 40
0
 40
0
 40
0
 40
1
 40
1
 40
1
 40
1
 10
546.908873
 20
-283.759366
 30
0.0
 10
546.729573
 20
-283.750090
 30
0.0
 10
546.549912
 20
-283.750090
 30
0.0
 10
546.370612
 20
-283.759366
 30
0.0
  0
LWPOLYLINE
  5
10e
100
AcDbEntity
  8
0
 62
7
100
AcDbPolyline
 90
2
 70
0
 10
1171.816853
 20
-283.759366
 30
0.0
 10
546.908873
 20
-283.759366
 30
0.0
  0
SPLINE
  5
10f
100
AcDbEntity
  8
0
 62
7
100
AcDbSpline
 70
8
 71
3
 72
8
 73
4
 74
0
 40
0
 40
0
 40
0
 40
0
 40
1
 40
1
 40
1
 40
1
 10
1770.348330
 20
-283.759449
 30
0.0
 10
1769.147001
 20
-283.878666
 30
0.0
 10
1768.024383
 20
-284.411460
 30
0.0
 10
1767.172393
 20
-285.266747
 30
0.0
  0
SPLINE
  5
110
100
AcDbEntity
  8
0
 62
7
100
AcDbSpline
 70
8
 71
3
 72
8
 73
4
 74
0
 40
0
 40
0
 40
0
 40
0
 40
1
 40
1
 40
1
 40
1
 10
1767.172393
 20
-285.266747
 30
0.0
 10
1767.172393
 20
-285.266747
 30
0.0
 10
1688.850302
 20
-363.588838
 30
0.0
 10
1688.850302
 20
-363.588838
 30
0.0
  0
SPLINE
  5
111
100
AcDbEntity
  8
0
 62
7
100
AcDbSpline
 70
8
 71
3
 72
8
 73
4
 74
0
 40
0
 40
0
 40
0
 40
0
 40
1
 40
1
 40
1
 40
1
 10
1688.850302
 20
-363.588838
 30
0.0
 10
1687.870935
 20
-364.566020
 30
0.0
 10
1687.320549
 20
-365.892675
 30
0.0
 10
1687.320549
 20
-367.276165
 30
0.0
  0
SPLINE
  5
112
100
AcDbEntity
  8
0
 62
7
100
AcDbSpline
 70
8
 71
3
 72
8
 73
4
 74
0
 40
0
 40
0
 40
0
 40
0
 40
1
 40
1
 40
1
 40
1
 10
1687.320549
 20
-367.276165
 30
0.0
 10
1687.320549
 20
-368.659654
 30
0.0
 10
1687.870935
 20
-369.986309
 30
0.0
 10
1688.850302
 20
-370.963492
 30
0.0
  0
SPLINE
  5
113
100
AcDbEntity
  8
0
 62
7
100
AcDbSpline
 70
8
 71
3
 72
8
 73
4
 74
0
 40
0
 40
0
 40
0
 40
0
 40
1
 40
1
 40
1
 40
1
 10
1688.850302
 20
-370.963492
 30
0.0
 10
1688.850302
 20
-370.963492
 30
0.0
 10
1767.172393
 20
-449.016424
 30
0.0
 10
1767.172393
 20
-449.016424
 30
0.0
  0
SPLINE
  5
114
100
AcDbEntity
  8
0
 62
7
100
AcDbSpline
 70
8
 71
3
 72
8
 73
4
 74
0
 40
0
 40
0
 40
0
 40
0
 40
1
 40
1
 40
1
 40
1
 10
1767.172393
 20
-449.016424
 30
0.0
 10
1768.146626
 20
-449.980980
 30
0.0
 10
1769.461845
 20
-450.522568
 30
0.0
 10
1770.832793
 20
-450.523722
 30
0.0
  0
SPLINE
  5
115
100
AcDbEntity
  8
0
 62
7
100
AcDbSpline
 70
8
 71
3
 72
8
 73
4
 74
0
 40
0
 40
0
 40
0
 40
0
 40
1
 40
1
 40
1
 40
1
 10
1770.832793
 20
-450.523722
 30
0.0
 10
1770.832793
 20
-450.523722
 30
0.0
 10
2395.794599
 20
-450.523722
 30
0.0
 10
2395.794599
 20
-450.523722
 30
0.0
  0
SPLINE
  5
116
100
AcDbEntity
  8
0
 62
7
100
AcDbSpline
 70
8
 71
3
 72
8
 73
4
 74
0
 40
0
 40
0
 40
0
 40
0
 40
1
 40
1
 40
1
 40
1
 10
2395.794599
 20
-450.523722
 30
0.0
 10
2397.184190
 20
-450.536835
 30
0.0
 10
2398.521410
 20
-449.994142
 30
0.0
 10
2399.508853
 20
-449.016342
 30
0.0
  0
SPLINE
  5
117
100
AcDbEntity
  8
0
 62
7
100
AcDbSpline
 70
8
 71
3
 72
8
 73
4
 74
0
 40
0
 40
0
 40
0
 40
0
 40
1
 40
1
 40
1
 40
1
 10
2399.508853
 20
-449.016342
 30
0.0
 10
2399.508853
 20
-449.016342
 30
0.0
 10
2477.561785
 20
-370.963409
 30
0.0
 10
2477.561785
 20
-370.963409
 30
0.0
  0
SPLINE
  5
118
100
AcDbEntity
  8
0
 62
7
100
AcDbSpline
 70
8
 71
3
 72
8
 73
4
 74
0
 40
0
 40
0
 40
0
 40
0
 40
1
 40
1
 40
1
 40
1
 10
2477.561785
 20
-370.963409
 30
0.0
 10
2478.541151
 20
-369.986227
 30
0.0
 10
2479.091538
 20
-368.659572
 30
0.0
 10
2479.091538
 20
-367.276082
 30
0.0
  0
SPLINE
  5
119
100
AcDbEntity
  8
0
 62
7
100
AcDbSpline
 70
8
 71
3
 72
8
 73
4
 74
0
 40
0
 40
0
 40
0
 40
0
 40
1
 40
1
 40
1
 40
1
 10
2479.091538
 20
-367.276082
 30
0.0
 10
2479.091538
 20
-365.892593
 30
0.0
 10
2478.541151
 20
-364.565938
 30
0.0
 10
2477.561785
 20
-363.588755
 30
0.0
  0
SPLINE
  5
11a
100
AcDbEntity
  8
0
 62
7
100
AcDbSpline
 70
8
 71
3
 72
8
 73
4
 74
0
 40
0
 40
0
 40
0
 40
0
 40
1
 40
1
 40
1
 40
1
 10
2477.561785
 20
-363.588755
 30
0.0
 10
2477.561785
 20
-363.588755
 30
0.0
 10
2399.508853
 20
-285.266664
 30
0.0
 10
2399.508853
 20
-285.266664
 30
0.0
  0
SPLINE
  5
11b
100
AcDbEntity
  8
0
 62
7
100
AcDbSpline
 70
8
 71
3
 72
8
 73
4
 74
0
 40
0
 40
0
 40
0
 40
0
 40
1
 40
1
 40
1
 40
1
 10
2399.508853
 20
-285.266664
 30
0.0
 10
2398.521397
 20
-284.288894
 30
0.0
 10
2397.184178
 20
-283.746231
 30
0.0
 10
2395.794599
 20
-283.759366
 30
0.0
  0
LWPOLYLINE
  5
11c
100
AcDbEntity
  8
0
 62
7
100
AcDbPolyline
 90
1
 70
1
 10
546.370612
 20
-283.759366
 30
0.0
  0
SPLINE
  5
11d
100
AcDbEntity
  8
0
 62
7
100
AcDbSpline
 70
8
 71
3
 72
8
 73
4
 74
0
 40
0
 40
0
 40
0
 40
0
 40
1
 40
1
 40
1
 40
1
 10
1770.832793
 20
-283.759366
 30
0.0
 10
1770.671374
 20
-283.751851
 30
0.0
 10
1770.509693
 20
-283.751851
 30
0.0
 10
1770.348275
 20
-283.759366
 30
0.0
  0
LWPOLYLINE
  5
11e
100
AcDbEntity
  8
0
 62
7
100
AcDbPolyline
 90
2
 70
0
 10
2395.794599
 20
-283.759366
 30
0.0
 10
1770.832793
 20
-283.759366
 30
0.0
  0
SPLINE
  5
11f
100
AcDbEntity
  8
0
 62
7
100
AcDbSpline
 70
8
 71
3
 72
8
 73
4
 74
0
 40
0
 40
0
 40
0
 40
0
 40
1
 40
1
 40
1
 40
1
 10
2994.272304
 20
-283.759449
 30
0.0
 10
2993.090030
 20
-283.890652
 30
0.0
 10
2991.988278
 20
-284.422563
 30
0.0
 10
2991.150221
 20
-285.266747
 30
0.0
  0
SPLINE
  5
120
100
AcDbEntity
  8
0
 62
7
100
AcDbSpline
 70
8
 71
3
 72
8
 73
4
 74
0
 40
0
 40
0
 40
0
 40
0
 40
1
 40
1
 40
1
 40
1
 10
2991.150221
 20
-285.266747
 30
0.0
 10
2991.150221
 20
-285.266747
 30
0.0
 10
2912.828047
 20
-363.588838
 30
0.0
 10
2912.828047
 20
-363.588838
 30
0.0
  0
SPLINE
  5
121
100
AcDbEntity
  8
0
 62
7
100
AcDbSpline
 70
8
 71
3
 72
8
 73
4
 74
0
 40
0
 40
0
 40
0
 40
0
 40
1
 40
1
 40
1
 40
1
 10
2912.828047
 20
-363.588838
 30
0.0
 10
2911.848681
 20
-364.566020
 30
0.0
 10
2911.298295
 20
-365.892675
 30
0.0
 10
2911.298295
 20
-367.276165
 30
0.0
  0
SPLINE
  5
122
100
AcDbEntity
  8
0
 62
7
100
AcDbSpline
 70
8
 71
3
 72
8
 73
4
 74
0
 40
0
 40
0
 40
0
 40
0
 40
1
 40
1
 40
1
 40
1
 10
2911.298295
 20
-367.276165
 30
0.0
 10
2911.298295
 20
-368.659654
 30
0.0
 10
2911.848681
 20
-369.986309
 30
0.0
 10
2912.828047
 20
-370.963492
 30
0.0
  0
SPLINE
  5
123
100
AcDbEntity
  8
0
 62
7
100
AcDbSpline
 70
8
 71
3
 72
8
 73
4
 74
0
 40
0
 40
0
 40
0
 40
0
 40
1
 40
1
 40
1
 40
1
 10
2912.828047
 20
-370.963492
 30
0.0
 10
2912.828047
 20
-370.963492
 30
0.0
 10
2991.150221
 20
-449.016424
 30
0.0
 10
2991.150221
 20
-449.016424
 30
0.0
  0
SPLINE
  5
124
100
AcDbEntity
  8
0
 62
7
100
AcDbSpline
 70
8
 71
3
 72
8
 73
4
 74
0
 40
0
 40
0
 40
0
 40
0
 40
1
 40
1
 40
1
 40
1
 10
2991.150221
 20
-449.016424
 30
0.0
 10
2992.124441
 20
-449.980967
 30
0.0
 10
2993.439637
 20
-450.522553
 30
0.0
 10
2994.810566
 20
-450.523722
 30
0.0
  0
SPLINE
  5
125
100
AcDbEntity
  8
0
 62
7
100
AcDbSpline
 70
8
 71
3
 72
8
 73
4
 74
0
 40
0
 40
0
 40
0
 40
0
 40
1
 40
1
 40
1
 40
1
 10
2994.810566
 20
-450.523722
 30
0.0
 10
2994.810566
 20
-450.523722
 30
0.0
 10
3619.772344
 20
-450.523722
 30
0.0
 10
3619.772344
 20
-450.523722
 30
0.0
  0
SPLINE
  5
126
100
AcDbEntity
  8
0
 62
7
100
AcDbSpline
 70
8
 71
3
 72
8
 73
4
 74
0
 40
0
 40
0
 40
0
 40
0
 40
1
 40
1
 40
1
 40
1
 10
3619.772344
 20
-450.523722
 30
0.0
 10
3621.143273
 20
-450.522553
 30
0.0
 10
3622.458469
 20
-449.980967
 30
0.0
 10
3623.432689
 20
-449.016424
 30
0.0
  0
SPLINE
  5
127
100
AcDbEntity
  8
0
 62
7
100
AcDbSpline
 70
8
 71
3
 72
8
 73
4
 74
0
 40
0
 40
0
 40
0
 40
0
 40
1
 40
1
 40
1
 40
1
 10
3623.432689
 20
-449.016424
 30
0.0
 10
3623.432689
 20
-449.016424
 30
0.0
 10
3701.485594
 20
-370.963492
 30
0.0
 10
3701.485594
 20
-370.963492
 30
0.0
  0
SPLINE
  5
128
100
AcDbEntity
  8
0
 62
7
100
AcDbSpline
 70
8
 71
3
 72
8
 73
4
 74
0
 40
0
 40
0
 40
0
 40
0
 40
1
 40
1
 40
1
 40
1
 10
3701.485594
 20
-370.963492
 30
0.0
 10
3702.464960
 20
-369.986309
 30
0.0
 10
3703.015347
 20
-368.659654
 30
0.0
 10
3703.015347
 20
-367.276165
 30
0.0
  0
SPLINE
  5
129
100
AcDbEntity
  8
0
 62
7
100
AcDbSpline
 70
8
 71
3
 72
8
 73
4
 74
0
 40
0
 40
0
 40
0
 40
0
 40
1
 40
1
 40
1
 40
1
 10
3703.015347
 20
-367.276165
 30
0.0
 10
3703.015347
 20
-365.892675
 30
0.0
 10
3702.464960
 20
-364.566020
 30
0.0
 10
3701.485594
 20
-363.588838
 30
0.0
  0
SPLINE
  5
12a
100
AcDbEntity
  8
0
 62
7
100
AcDbSpline
 70
8
 71
3
 72
8
 73
4
 74
0
 40
0
 40
0
 40
0
 40
0
 40
1
 40
1
 40
1
 40
1
 10
3701.485594
 20
-363.588838
 30
0.0
 10
3701.485594
 20
-363.588838
 30
0.0
 10
3623.432689
 20
-285.266747
 30
0.0
 10
3623.432689
 20
-285.266747
 30
0.0
  0
SPLINE
  5
12b
100
AcDbEntity
  8
0
 62
7
100
AcDbSpline
 70
8
 71
3
 72
8
 73
4
 74
0
 40
0
 40
0
 40
0
 40
0
 40
1
 40
1
 40
1
 40
1
 10
3623.432689
 20
-285.266747
 30
0.0
 10
3622.458469
 20
-284.302205
 30
0.0
 10
3621.143273
 20
-283.760618
 30
0.0
 10
3619.772344
 20
-283.759449
 30
0.0
  0
LWPOLYLINE
  5
12c
100
AcDbEntity
  8
0
 62
7
100
AcDbPolyline
 90
1
 70
1
 10
1770.348275
 20
-283.759366
 30
0.0
  0
SPLINE
  5
12d
100
AcDbEntity
  8
0
 62
7
100
AcDbSpline
 70
8
 71
3
 72
8
 73
4
 74
0
 40
0
 40
0
 40
0
 40
0
 40
1
 40
1
 40
1
 40
1
 10
2994.810566
 20
-283.759449
 30
0.0
 10
2994.631540
 20
-283.750201
 30
0.0
 10
2994.452156
 20
-283.750201
 30
0.0
 10
2994.273131
 20
-283.759449
 30
0.0
  0
LWPOLYLINE
  5
12e
100
AcDbEntity
  8
0
 62
7
100
AcDbPolyline
 90
2
 70
0
 10
3619.772344
 20
-283.759449
 30
0.0
 10
2994.810566
 20
-283.759449
 30
0.0
  0
SPLINE
  5
12f
100
AcDbEntity
  8
0
 62
7
100
AcDbSpline
 70
8
 71
3
 72
8
 73
4
 74
0
 40
0
 40
0
 40
0
 40
0
 40
1
 40
1
 40
1
 40
1
 10
442.048772
 20
-388.027407
 30
0.0
 10
440.885568
 20
-388.170362
 30
0.0
 10
439.804561
 20
-388.701408
 30
0.0
 10
438.980488
 20
-389.534705
 30
0.0
  0
SPLINE
  5
130
100
AcDbEntity
  8
0
 62
7
100
AcDbSpline
 70
8
 71
3
 72
8
 73
4
 74
0
 40
0
 40
0
 40
0
 40
0
 40
1
 40
1
 40
1
 40
1
 10
438.980488
 20
-389.534705
 30
0.0
 10
438.980488
 20
-389.534705
 30
0.0
 10
360.927555
 20
-467.587638
 30
0.0
 10
360.927555
 20
-467.587638
 30
0.0
  0
SPLINE
  5
131
100
AcDbEntity
  8
0
 62
7
100
AcDbSpline
 70
8
 71
3
 72
8
 73
4
 74
0
 40
0
 40
0
 40
0
 40
0
 40
1
 40
1
 40
1
 40
1
 10
360.927555
 20
-467.587638
 30
0.0
 10
359.943273
 20
-468.553097
 30
0.0
 10
359.381912
 20
-469.869411
 30
0.0
 10
359.366514
 20
-471.248065
 30
0.0
  0
SPLINE
  5
132
100
AcDbEntity
  8
0
 62
7
100
AcDbSpline
 70
8
 71
3
 72
8
 73
4
 74
0
 40
0
 40
0
 40
0
 40
0
 40
1
 40
1
 40
1
 40
1
 10
359.366514
 20
-471.248065
 30
0.0
 10
359.366514
 20
-471.248065
 30
0.0
 10
359.366514
 20
-1096.479030
 30
0.0
 10
359.366514
 20
-1096.479030
 30
0.0
  0
SPLINE
  5
133
100
AcDbEntity
  8
0
 62
7
100
AcDbSpline
 70
8
 71
3
 72
8
 73
4
 74
0
 40
0
 40
0
 40
0
 40
0
 40
1
 40
1
 40
1
 40
1
 10
359.366514
 20
-1096.479030
 30
0.0
 10
359.381919
 20
-1097.857674
 30
0.0
 10
359.943279
 20
-1099.173976
 30
0.0
 10
360.927555
 20
-1100.139430
 30
0.0
  0
LWPOLYLINE
  5
134
100
AcDbEntity
  8
0
 62
7
100
AcDbPolyline
 90
2
 70
0
 10
2994.273131
 20
-283.759449
 30
0.0
 10
2994.272304
 20
-283.759449
 30
0.0
  0
SPLINE
  5
135
100
AcDbEntity
  8
0
 62
7
100
AcDbSpline
 70
8
 71
3
 72
8
 73
4
 74
0
 40
0
 40
0
 40
0
 40
0
 40
1
 40
1
 40
1
 40
1
 10
438.980488
 20
-1178.192362
 30
0.0
 10
439.957670
 20
-1179.171728
 30
0.0
 10
441.284325
 20
-1179.722115
 30
0.0
 10
442.667815
 20
-1179.722115
 30
0.0
  0
SPLINE
  5
136
100
AcDbEntity
  8
0
 62
7
100
AcDbSpline
 70
8
 71
3
 72
8
 73
4
 74
0
 40
0
 40
0
 40
0
 40
0
 40
1
 40
1
 40
1
 40
1
 10
442.667815
 20
-1179.722115
 30
0.0
 10
444.051304
 20
-1179.722115
 30
0.0
 10
445.377959
 20
-1179.171728
 30
0.0
 10
446.355142
 20
-1178.192362
 30
0.0
  0
LWPOLYLINE
  5
137
100
AcDbEntity
  8
0
 62
7
100
AcDbPolyline
 90
2
 70
0
 10
360.927555
 20
-1100.139430
 30
0.0
 10
438.980488
 20
-1178.192362
 30
0.0
  0
SPLINE
  5
138
100
AcDbEntity
  8
0
 62
7
100
AcDbSpline
 70
8
 71
3
 72
8
 73
4
 74
0
 40
0
 40
0
 40
0
 40
0
 40
1
 40
1
 40
1
 40
1
 10
524.408102
 20
-1100.139430
 30
0.0
 10
525.372657
 20
-1099.165196
 30
0.0
 10
525.914245
 20
-1097.849977
 30
0.0
 10
525.915400
 20
-1096.479030
 30
0.0
  0
SPLINE
  5
139
100
AcDbEntity
  8
0
 62
7
100
AcDbSpline
 70
8
 71
3
 72
8
 73
4
 74
0
 40
0
 40
0
 40
0
 40
0
 40
1
 40
1
 40
1
 40
1
 10
525.915400
 20
-1096.479030
 30
0.0
 10
525.915400
 20
-1096.479030
 30
0.0
 10
525.915400
 20
-471.247982
 30
0.0
 10
525.915400
 20
-471.247982
 30
0.0
  0
SPLINE
  5
13a
100
AcDbEntity
  8
0
 62
7
100
AcDbSpline
 70
8
 71
3
 72
8
 73
4
 74
0
 40
0
 40
0
 40
0
 40
0
 40
1
 40
1
 40
1
 40
1
 10
525.915400
 20
-471.247982
 30
0.0
 10
525.914252
 20
-469.877025
 30
0.0
 10
525.372664
 20
-468.561795
 30
0.0
 10
524.408102
 20
-467.587555
 30
0.0
  0
SPLINE
  5
13b
100
AcDbEntity
  8
0
 62
7
100
AcDbSpline
 70
8
 71
3
 72
8
 73
4
 74
0
 40
0
 40
0
 40
0
 40
0
 40
1
 40
1
 40
1
 40
1
 10
524.408102
 20
-467.587555
 30
0.0
 10
524.408102
 20
-467.587555
 30
0.0
 10
446.355142
 20
-389.534622
 30
0.0
 10
446.355142
 20
-389.534622
 30
0.0
  0
SPLINE
  5
13c
100
AcDbEntity
  8
0
 62
7
100
AcDbSpline
 70
8
 71
3
 72
8
 73
4
 74
0
 40
0
 40
0
 40
0
 40
0
 40
1
 40
1
 40
1
 40
1
 10
446.355142
 20
-389.534622
 30
0.0
 10
445.354555
 20
-388.543433
 30
0.0
 10
443.995232
 20
-387.999676
 30
0.0
 10
442.587089
 20
-388.027324
 30
0.0
  0
SPLINE
  5
13d
100
AcDbEntity
  8
0
 62
7
100
AcDbSpline
 70
8
 71
3
 72
8
 73
4
 74
0
 40
0
 40
0
 40
0
 40
0
 40
1
 40
1
 40
1
 40
1
 10
442.587089
 20
-388.027324
 30
0.0
 10
442.407789
 20
-388.018048
 30
0.0
 10
442.228128
 20
-388.018048
 30
0.0
 10
442.048828
 20
-388.027324
 30
0.0
  0
LWPOLYLINE
  5
13e
100
AcDbEntity
  8
0
 62
7
100
AcDbPolyline
 90
2
 70
0
 10
446.355142
 20
-1178.192362
 30
0.0
 10
524.408102
 20
-1100.139430
 30
0.0
  0
SPLINE
  5
13f
100
AcDbEntity
  8
0
 62
7
100
AcDbSpline
 70
8
 71
3
 72
8
 73
4
 74
0
 40
0
 40
0
 40
0
 40
0
 40
1
 40
1
 40
1
 40
1
 10
1275.223538
 20
-388.027407
 30
0.0
 10
1274.060333
 20
-388.170362
 30
0.0
 10
1272.979326
 20
-388.701408
 30
0.0
 10
1272.155253
 20
-389.534705
 30
0.0
  0
LWPOLYLINE
  5
140
100
AcDbEntity
  8
0
 62
7
100
AcDbPolyline
 90
1
 70
1
 10
442.048828
 20
-388.027324
 30
0.0
  0
SPLINE
  5
141
100
AcDbEntity
  8
0
 62
7
100
AcDbSpline
 70
8
 71
3
 72
8
 73
4
 74
0
 40
0
 40
0
 40
0
 40
0
 40
1
 40
1
 40
1
 40
1
 10
1194.102320
 20
-467.587638
 30
0.0
 10
1193.118038
 20
-468.553097
 30
0.0
 10
1192.556677
 20
-469.869411
 30
0.0
 10
1192.541279
 20
-471.248065
 30
0.0
  0
LWPOLYLINE
  5
142
100
AcDbEntity
  8
0
 62
7
100
AcDbPolyline
 90
2
 70
0
 10
1272.155253
 20
-389.534705
 30
0.0
 10
1194.102320
 20
-467.587638
 30
0.0
  0
SPLINE
  5
143
100
AcDbEntity
  8
0
 62
7
100
AcDbSpline
 70
8
 71
3
 72
8
 73
4
 74
0
 40
0
 40
0
 40
0
 40
0
 40
1
 40
1
 40
1
 40
1
 10
1192.541279
 20
-1096.479030
 30
0.0
 10
1192.556684
 20
-1097.857674
 30
0.0
 10
1193.118044
 20
-1099.173976
 30
0.0
 10
1194.102320
 20
-1100.139430
 30
0.0
  0
LWPOLYLINE
  5
144
100
AcDbEntity
  8
0
 62
7
100
AcDbPolyline
 90
2
 70
0
 10
1192.541279
 20
-471.248065
 30
0.0
 10
1192.541279
 20
-1096.479030
 30
0.0
  0
SPLINE
  5
145
100
AcDbEntity
  8
0
 62
7
100
AcDbSpline
 70
8
 71
3
 72
8
 73
4
 74
0
 40
0
 40
0
 40
0
 40
0
 40
1
 40
1
 40
1
 40
1
 10
1272.155253
 20
-1178.192362
 30
0.0
 10
1274.184112
 20
-1180.196329
 30
0.0
 10
1277.447221
 20
-1180.196329
 30
0.0
 10
1279.476080
 20
-1178.192362
 30
0.0
  0
SPLINE
  5
146
100
AcDbEntity
  8
0
 62
7
100
AcDbSpline
 70
8
 71
3
 72
8
 73
4
 74
0
 40
0
 40
0
 40
0
 40
0
 40
1
 40
1
 40
1
 40
1
 10
1279.476080
 20
-1178.192362
 30
0.0
 10
1279.476080
 20
-1178.192362
 30
0.0
 10
1357.798172
 20
-1100.139430
 30
0.0
 10
1357.798172
 20
-1100.139430
 30
0.0
  0
SPLINE
  5
147
100
AcDbEntity
  8
0
 62
7
100
AcDbSpline
 70
8
 71
3
 72
8
 73
4
 74
0
 40
0
 40
0
 40
0
 40
0
 40
1
 40
1
 40
1
 40
1
 10
1357.798172
 20
-1100.139430
 30
0.0
 10
1358.782447
 20
-1099.173976
 30
0.0
 10
1359.343807
 20
-1097.857674
 30
0.0
 10
1359.359213
 20
-1096.479030
 30
0.0
  0
SPLINE
  5
148
100
AcDbEntity
  8
0
 62
7
100
AcDbSpline
 70
8
 71
3
 72
8
 73
4
 74
0
 40
0
 40
0
 40
0
 40
0
 40
1
 40
1
 40
1
 40
1
 10
1359.359213
 20
-1096.479030
 30
0.0
 10
1359.359213
 20
-1096.479030
 30
0.0
 10
1359.359213
 20
-471.247982
 30
0.0
 10
1359.359213
 20
-471.247982
 30
0.0
  0
SPLINE
  5
149
100
AcDbEntity
  8
0
 62
7
100
AcDbSpline
 70
8
 71
3
 72
8
 73
4
 74
0
 40
0
 40
0
 40
0
 40
0
 40
1
 40
1
 40
1
 40
1
 10
1359.359213
 20
-471.247982
 30
0.0
 10
1359.343815
 20
-469.869328
 30
0.0
 10
1358.782454
 20
-468.553015
 30
0.0
 10
1357.798172
 20
-467.587555
 30
0.0
  0
SPLINE
  5
14a
100
AcDbEntity
  8
0
 62
7
100
AcDbSpline
 70
8
 71
3
 72
8
 73
4
 74
0
 40
0
 40
0
 40
0
 40
0
 40
1
 40
1
 40
1
 40
1
 10
1357.798172
 20
-467.587555
 30
0.0
 10
1357.798172
 20
-467.587555
 30
0.0
 10
1279.476080
 20
-389.534622
 30
0.0
 10
1279.476080
 20
-389.534622
 30
0.0
  0
SPLINE
  5
14b
100
AcDbEntity
  8
0
 62
7
100
AcDbSpline
 70
8
 71
3
 72
8
 73
4
 74
0
 40
0
 40
0
 40
0
 40
0
 40
1
 40
1
 40
1
 40
1
 10
1279.476080
 20
-389.534622
 30
0.0
 10
1278.488625
 20
-388.556852
 30
0.0
 10
1277.151406
 20
-388.014189
 30
0.0
 10
1275.761827
 20
-388.027324
 30
0.0
  0
SPLINE
  5
14c
100
AcDbEntity
  8
0
 62
7
100
AcDbSpline
 70
8
 71
3
 72
8
 73
4
 74
0
 40
0
 40
0
 40
0
 40
0
 40
1
 40
1
 40
1
 40
1
 10
1275.761827
 20
-388.027324
 30
0.0
 10
1275.582526
 20
-388.018048
 30
0.0
 10
1275.402866
 20
-388.018048
 30
0.0
 10
1275.223565
 20
-388.027324
 30
0.0
  0
LWPOLYLINE
  5
14d
100
AcDbEntity
  8
0
 62
7
100
AcDbPolyline
 90
2
 70
0
 10
1194.102320
 20
-1100.139430
 30
0.0
 10
1272.155253
 20
-1178.192362
 30
0.0
  0
SPLINE
  5
14e
100
AcDbEntity
  8
0
 62
7
100
AcDbSpline
 70
8
 71
3
 72
8
 73
4
 74
0
 40
0
 40
0
 40
0
 40
0
 40
1
 40
1
 40
1
 40
1
 10
1666.026546
 20
-388.027407
 30
0.0
 10
1664.844262
 20
-388.158604
 30
0.0
 10
1663.742499
 20
-388.690515
 30
0.0
 10
1662.904435
 20
-389.534705
 30
0.0
  0
SPLINE
  5
14f
100
AcDbEntity
  8
0
 62
7
100
AcDbSpline
 70
8
 71
3
 72
8
 73
4
 74
0
 40
0
 40
0
 40
0
 40
0
 40
1
 40
1
 40
1
 40
1
 10
1662.904435
 20
-389.534705
 30
0.0
 10
1662.904435
 20
-389.534705
 30
0.0
 10
1584.851475
 20
-467.587638
 30
0.0
 10
1584.851475
 20
-467.587638
 30
0.0
  0
SPLINE
  5
150
100
AcDbEntity
  8
0
 62
7
100
AcDbSpline
 70
8
 71
3
 72
8
 73
4
 74
0
 40
0
 40
0
 40
0
 40
0
 40
1
 40
1
 40
1
 40
1
 10
1584.851475
 20
-467.587638
 30
0.0
 10
1583.886912
 20
-468.561878
 30
0.0
 10
1583.345324
 20
-469.877108
 30
0.0
 10
1583.344176
 20
-471.248065
 30
0.0
  0
SPLINE
  5
151
100
AcDbEntity
  8
0
 62
7
100
AcDbSpline
 70
8
 71
3
 72
8
 73
4
 74
0
 40
0
 40
0
 40
0
 40
0
 40
1
 40
1
 40
1
 40
1
 10
1583.344176
 20
-471.248065
 30
0.0
 10
1583.344176
 20
-471.248065
 30
0.0
 10
1583.344176
 20
-1096.479030
 30
0.0
 10
1583.344176
 20
-1096.479030
 30
0.0
  0
SPLINE
  5
152
100
AcDbEntity
  8
0
 62
7
100
AcDbSpline
 70
8
 71
3
 72
8
 73
4
 74
0
 40
0
 40
0
 40
0
 40
0
 40
1
 40
1
 40
1
 40
1
 10
1583.344176
 20
-1096.479030
 30
0.0
 10
1583.345331
 20
-1097.849977
 30
0.0
 10
1583.886919
 20
-1099.165196
 30
0.0
 10
1584.851475
 20
-1100.139430
 30
0.0
  0
LWPOLYLINE
  5
153
100
AcDbEntity
  8
0
 62
7
100
AcDbPolyline
 90
1
 70
1
 10
1275.223565
 20
-388.027324
 30
0.0
  0
SPLINE
  5
154
100
AcDbEntity
  8
0
 62
7
100
AcDbSpline
 70
8
 71
3
 72
8
 73
4
 74
0
 40
0
 40
0
 40
0
 40
0
 40
1
 40
1
 40
1
 40
1
 10
1662.904435
 20
-1178.192362
 30
0.0
 10
1663.881617
 20
-1179.171728
 30
0.0
 10
1665.208272
 20
-1179.722115
 30
0.0
 10
1666.591762
 20
-1179.722115
 30
0.0
  0
SPLINE
  5
155
100
AcDbEntity
  8
0
 62
7
100
AcDbSpline
 70
8
 71
3
 72
8
 73
4
 74
0
 40
0
 40
0
 40
0
 40
0
 40
1
 40
1
 40
1
 40
1
 10
1666.591762
 20
-1179.722115
 30
0.0
 10
1667.975251
 20
-1179.722115
 30
0.0
 10
1669.301906
 20
-1179.171728
 30
0.0
 10
1670.279088
 20
-1178.192362
 30
0.0
  0
LWPOLYLINE
  5
156
100
AcDbEntity
  8
0
 62
7
100
AcDbPolyline
 90
2
 70
0
 10
1584.851475
 20
-1100.139430
 30
0.0
 10
1662.904435
 20
-1178.192362
 30
0.0
  0
SPLINE
  5
157
100
AcDbEntity
  8
0
 62
7
100
AcDbSpline
 70
8
 71
3
 72
8
 73
4
 74
0
 40
0
 40
0
 40
0
 40
0
 40
1
 40
1
 40
1
 40
1
 10
1748.332021
 20
-1100.139430
 30
0.0
 10
1749.316297
 20
-1099.173976
 30
0.0
 10
1749.877657
 20
-1097.857674
 30
0.0
 10
1749.893063
 20
-1096.479030
 30
0.0
  0
LWPOLYLINE
  5
158
100
AcDbEntity
  8
0
 62
7
100
AcDbPolyline
 90
2
 70
0
 10
1670.279088
 20
-1178.192362
 30
0.0
 10
1748.332021
 20
-1100.139430
 30
0.0
  0
SPLINE
  5
159
100
AcDbEntity
  8
0
 62
7
100
AcDbSpline
 70
8
 71
3
 72
8
 73
4
 74
0
 40
0
 40
0
 40
0
 40
0
 40
1
 40
1
 40
1
 40
1
 10
1749.893063
 20
-471.247982
 30
0.0
 10
1749.877664
 20
-469.869328
 30
0.0
 10
1749.316304
 20
-468.553015
 30
0.0
 10
1748.332021
 20
-467.587555
 30
0.0
  0
SPLINE
  5
15a
100
AcDbEntity
  8
0
 62
7
100
AcDbSpline
 70
8
 71
3
 72
8
 73
4
 74
0
 40
0
 40
0
 40
0
 40
0
 40
1
 40
1
 40
1
 40
1
 10
1748.332021
 20
-467.587555
 30
0.0
 10
1748.332021
 20
-467.587555
 30
0.0
 10
1670.279088
 20
-389.534622
 30
0.0
 10
1670.279088
 20
-389.534622
 30
0.0
  0
SPLINE
  5
15b
100
AcDbEntity
  8
0
 62
7
100
AcDbSpline
 70
8
 71
3
 72
8
 73
4
 74
0
 40
0
 40
0
 40
0
 40
0
 40
1
 40
1
 40
1
 40
1
 10
1670.279088
 20
-389.534622
 30
0.0
 10
1669.278495
 20
-388.543426
 30
0.0
 10
1667.919161
 20
-387.999668
 30
0.0
 10
1666.511009
 20
-388.027324
 30
0.0
  0
SPLINE
  5
15c
100
AcDbEntity
  8
0
 62
7
100
AcDbSpline
 70
8
 71
3
 72
8
 73
4
 74
0
 40
0
 40
0
 40
0
 40
0
 40
1
 40
1
 40
1
 40
1
 10
1666.511009
 20
-388.027324
 30
0.0
 10
1666.349590
 20
-388.019808
 30
0.0
 10
1666.187909
 20
-388.019808
 30
0.0
 10
1666.026490
 20
-388.027324
 30
0.0
  0
LWPOLYLINE
  5
15d
100
AcDbEntity
  8
0
 62
7
100
AcDbPolyline
 90
2
 70
0
 10
1749.893063
 20
-1096.479030
 30
0.0
 10
1749.893063
 20
-471.247982
 30
0.0
  0
SPLINE
  5
15e
100
AcDbEntity
  8
0
 62
7
100
AcDbSpline
 70
8
 71
3
 72
8
 73
4
 74
0
 40
0
 40
0
 40
0
 40
0
 40
1
 40
1
 40
1
 40
1
 10
2499.201311
 20
-388.027407
 30
0.0
 10
2498.019017
 20
-388.158598
 30
0.0
 10
2496.917243
 20
-388.690509
 30
0.0
 10
2496.079172
 20
-389.534705
 30
0.0
  0
SPLINE
  5
15f
100
AcDbEntity
  8
0
 62
7
100
AcDbSpline
 70
8
 71
3
 72
8
 73
4
 74
0
 40
0
 40
0
 40
0
 40
0
 40
1
 40
1
 40
1
 40
1
 10
2496.079172
 20
-389.534705
 30
0.0
 10
2496.079172
 20
-389.534705
 30
0.0
 10
2418.026240
 20
-467.587638
 30
0.0
 10
2418.026240
 20
-467.587638
 30
0.0
  0
SPLINE
  5
160
100
AcDbEntity
  8
0
 62
7
100
AcDbSpline
 70
8
 71
3
 72
8
 73
4
 74
0
 40
0
 40
0
 40
0
 40
0
 40
1
 40
1
 40
1
 40
1
 10
2418.026240
 20
-467.587638
 30
0.0
 10
2417.061677
 20
-468.561878
 30
0.0
 10
2416.520089
 20
-469.877108
 30
0.0
 10
2416.518941
 20
-471.248065
 30
0.0
  0
SPLINE
  5
161
100
AcDbEntity
  8
0
 62
7
100
AcDbSpline
 70
8
 71
3
 72
8
 73
4
 74
0
 40
0
 40
0
 40
0
 40
0
 40
1
 40
1
 40
1
 40
1
 10
2416.518941
 20
-471.248065
 30
0.0
 10
2416.518941
 20
-471.248065
 30
0.0
 10
2416.518941
 20
-1096.479030
 30
0.0
 10
2416.518941
 20
-1096.479030
 30
0.0
  0
SPLINE
  5
162
100
AcDbEntity
  8
0
 62
7
100
AcDbSpline
 70
8
 71
3
 72
8
 73
4
 74
0
 40
0
 40
0
 40
0
 40
0
 40
1
 40
1
 40
1
 40
1
 10
2416.518941
 20
-1096.479030
 30
0.0
 10
2416.520096
 20
-1097.849977
 30
0.0
 10
2417.061684
 20
-1099.165196
 30
0.0
 10
2418.026240
 20
-1100.139430
 30
0.0
  0
LWPOLYLINE
  5
163
100
AcDbEntity
  8
0
 62
7
100
AcDbPolyline
 90
1
 70
1
 10
1666.026490
 20
-388.027324
 30
0.0
  0
SPLINE
  5
164
100
AcDbEntity
  8
0
 62
7
100
AcDbSpline
 70
8
 71
3
 72
8
 73
4
 74
0
 40
0
 40
0
 40
0
 40
0
 40
1
 40
1
 40
1
 40
1
 10
2496.079172
 20
-1178.192362
 30
0.0
 10
2497.056355
 20
-1179.171728
 30
0.0
 10
2498.383010
 20
-1179.722115
 30
0.0
 10
2499.766499
 20
-1179.722115
 30
0.0
  0
SPLINE
  5
165
100
AcDbEntity
  8
0
 62
7
100
AcDbSpline
 70
8
 71
3
 72
8
 73
4
 74
0
 40
0
 40
0
 40
0
 40
0
 40
1
 40
1
 40
1
 40
1
 10
2499.766499
 20
-1179.722115
 30
0.0
 10
2501.149989
 20
-1179.722115
 30
0.0
 10
2502.476644
 20
-1179.171728
 30
0.0
 10
2503.453826
 20
-1178.192362
 30
0.0
  0
LWPOLYLINE
  5
166
100
AcDbEntity
  8
0
 62
7
100
AcDbPolyline
 90
2
 70
0
 10
2418.026240
 20
-1100.139430
 30
0.0
 10
2496.079172
 20
-1178.192362
 30
0.0
  0
SPLINE
  5
167
100
AcDbEntity
  8
0
 62
7
100
AcDbSpline
 70
8
 71
3
 72
8
 73
4
 74
0
 40
0
 40
0
 40
0
 40
0
 40
1
 40
1
 40
1
 40
1
 10
2581.775917
 20
-1100.139430
 30
0.0
 10
2582.740473
 20
-1099.165196
 30
0.0
 10
2583.282060
 20
-1097.849977
 30
0.0
 10
2583.283215
 20
-1096.479030
 30
0.0
  0
LWPOLYLINE
  5
168
100
AcDbEntity
  8
0
 62
7
100
AcDbPolyline
 90
2
 70
0
 10
2503.453826
 20
-1178.192362
 30
0.0
 10
2581.775917
 20
-1100.139430
 30
0.0
  0
SPLINE
  5
169
100
AcDbEntity
  8
0
 62
7
100
AcDbSpline
 70
8
 71
3
 72
8
 73
4
 74
0
 40
0
 40
0
 40
0
 40
0
 40
1
 40
1
 40
1
 40
1
 10
2583.283215
 20
-471.247982
 30
0.0
 10
2583.282068
 20
-469.877025
 30
0.0
 10
2582.740479
 20
-468.561795
 30
0.0
 10
2581.775917
 20
-467.587555
 30
0.0
  0
SPLINE
  5
16a
100
AcDbEntity
  8
0
 62
7
100
AcDbSpline
 70
8
 71
3
 72
8
 73
4
 74
0
 40
0
 40
0
 40
0
 40
0
 40
1
 40
1
 40
1
 40
1
 10
2581.775917
 20
-467.587555
 30
0.0
 10
2581.775917
 20
-467.587555
 30
0.0
 10
2503.453826
 20
-389.534622
 30
0.0
 10
2503.453826
 20
-389.534622
 30
0.0
  0
SPLINE
  5
16b
100
AcDbEntity
  8
0
 62
7
100
AcDbSpline
 70
8
 71
3
 72
8
 73
4
 74
0
 40
0
 40
0
 40
0
 40
0
 40
1
 40
1
 40
1
 40
1
 10
2503.453826
 20
-389.534622
 30
0.0
 10
2502.453239
 20
-388.543433
 30
0.0
 10
2501.093916
 20
-387.999676
 30
0.0
 10
2499.685774
 20
-388.027324
 30
0.0
  0
SPLINE
  5
16c
100
AcDbEntity
  8
0
 62
7
100
AcDbSpline
 70
8
 71
3
 72
8
 73
4
 74
0
 40
0
 40
0
 40
0
 40
0
 40
1
 40
1
 40
1
 40
1
 10
2499.685774
 20
-388.027324
 30
0.0
 10
2499.524355
 20
-388.019808
 30
0.0
 10
2499.362674
 20
-388.019808
 30
0.0
 10
2499.201255
 20
-388.027324
 30
0.0
  0
LWPOLYLINE
  5
16d
100
AcDbEntity
  8
0
 62
7
100
AcDbPolyline
 90
2
 70
0
 10
2583.283215
 20
-1096.479030
 30
0.0
 10
2583.283215
 20
-471.247982
 30
0.0
  0
SPLINE
  5
16e
100
AcDbEntity
  8
0
 62
7
100
AcDbSpline
 70
8
 71
3
 72
8
 73
4
 74
0
 40
0
 40
0
 40
0
 40
0
 40
1
 40
1
 40
1
 40
1
 10
2889.950410
 20
-388.027407
 30
0.0
 10
2888.787186
 20
-388.170350
 30
0.0
 10
2887.706157
 20
-388.701397
 30
0.0
 10
2886.882070
 20
-389.534705
 30
0.0
  0
SPLINE
  5
16f
100
AcDbEntity
  8
0
 62
7
100
AcDbSpline
 70
8
 71
3
 72
8
 73
4
 74
0
 40
0
 40
0
 40
0
 40
0
 40
1
 40
1
 40
1
 40
1
 10
2886.882070
 20
-389.534705
 30
0.0
 10
2886.882070
 20
-389.534705
 30
0.0
 10
2808.829165
 20
-467.587638
 30
0.0
 10
2808.829165
 20
-467.587638
 30
0.0
  0
SPLINE
  5
170
100
AcDbEntity
  8
0
 62
7
100
AcDbSpline
 70
8
 71
3
 72
8
 73
4
 74
0
 40
0
 40
0
 40
0
 40
0
 40
1
 40
1
 40
1
 40
1
 10
2808.829165
 20
-467.587638
 30
0.0
 10
2807.864502
 20
-468.561833
 30
0.0
 10
2807.322812
 20
-469.877069
 30
0.0
 10
2807.321591
 20
-471.248065
 30
0.0
  0
LWPOLYLINE
  5
171
100
AcDbEntity
  8
0
 62
7
100
AcDbPolyline
 90
1
 70
1
 10
2499.201255
 20
-388.027324
 30
0.0
  0
SPLINE
  5
172
100
AcDbEntity
  8
0
 62
7
100
AcDbSpline
 70
8
 71
3
 72
8
 73
4
 74
0
 40
0
 40
0
 40
0
 40
0
 40
1
 40
1
 40
1
 40
1
 10
2807.321591
 20
-1096.479030
 30
0.0
 10
2807.322819
 20
-1097.850016
 30
0.0
 10
2807.864508
 20
-1099.165241
 30
0.0
 10
2808.829165
 20
-1100.139430
 30
0.0
  0
SPLINE
  5
173
100
AcDbEntity
  8
0
 62
7
100
AcDbSpline
 70
8
 71
3
 72
8
 73
4
 74
0
 40
0
 40
0
 40
0
 40
0
 40
1
 40
1
 40
1
 40
1
 10
2808.829165
 20
-1100.139430
 30
0.0
 10
2808.829165
 20
-1100.139430
 30
0.0
 10
2886.882070
 20
-1178.192362
 30
0.0
 10
2886.882070
 20
-1178.192362
 30
0.0
  0
SPLINE
  5
174
100
AcDbEntity
  8
0
 62
7
100
AcDbSpline
 70
8
 71
3
 72
8
 73
4
 74
0
 40
0
 40
0
 40
0
 40
0
 40
1
 40
1
 40
1
 40
1
 10
2886.882070
 20
-1178.192362
 30
0.0
 10
2887.859254
 20
-1179.171745
 30
0.0
 10
2889.185921
 20
-1179.722142
 30
0.0
 10
2890.569424
 20
-1179.722142
 30
0.0
  0
SPLINE
  5
175
100
AcDbEntity
  8
0
 62
7
100
AcDbSpline
 70
8
 71
3
 72
8
 73
4
 74
0
 40
0
 40
0
 40
0
 40
0
 40
1
 40
1
 40
1
 40
1
 10
2890.569424
 20
-1179.722142
 30
0.0
 10
2891.952927
 20
-1179.722142
 30
0.0
 10
2893.279594
 20
-1179.171745
 30
0.0
 10
2894.256779
 20
-1178.192362
 30
0.0
  0
SPLINE
  5
176
100
AcDbEntity
  8
0
 62
7
100
AcDbSpline
 70
8
 71
3
 72
8
 73
4
 74
0
 40
0
 40
0
 40
0
 40
0
 40
1
 40
1
 40
1
 40
1
 10
2894.256779
 20
-1178.192362
 30
0.0
 10
2894.256779
 20
-1178.192362
 30
0.0
 10
2972.309684
 20
-1100.139430
 30
0.0
 10
2972.309684
 20
-1100.139430
 30
0.0
  0
SPLINE
  5
177
100
AcDbEntity
  8
0
 62
7
100
AcDbSpline
 70
8
 71
3
 72
8
 73
4
 74
0
 40
0
 40
0
 40
0
 40
0
 40
1
 40
1
 40
1
 40
1
 10
2972.309684
 20
-1100.139430
 30
0.0
 10
2973.274341
 20
-1099.165241
 30
0.0
 10
2973.816030
 20
-1097.850016
 30
0.0
 10
2973.817258
 20
-1096.479030
 30
0.0
  0
SPLINE
  5
178
100
AcDbEntity
  8
0
 62
7
100
AcDbSpline
 70
8
 71
3
 72
8
 73
4
 74
0
 40
0
 40
0
 40
0
 40
0
 40
1
 40
1
 40
1
 40
1
 10
2973.817258
 20
-1096.479030
 30
0.0
 10
2973.817258
 20
-1096.479030
 30
0.0
 10
2973.817258
 20
-471.247982
 30
0.0
 10
2973.817258
 20
-471.247982
 30
0.0
  0
SPLINE
  5
179
100
AcDbEntity
  8
0
 62
7
100
AcDbSpline
 70
8
 71
3
 72
8
 73
4
 74
0
 40
0
 40
0
 40
0
 40
0
 40
1
 40
1
 40
1
 40
1
 10
2973.817258
 20
-471.247982
 30
0.0
 10
2973.816037
 20
-469.876986
 30
0.0
 10
2973.274347
 20
-468.561750
 30
0.0
 10
2972.309684
 20
-467.587555
 30
0.0
  0
SPLINE
  5
17a
100
AcDbEntity
  8
0
 62
7
100
AcDbSpline
 70
8
 71
3
 72
8
 73
4
 74
0
 40
0
 40
0
 40
0
 40
0
 40
1
 40
1
 40
1
 40
1
 10
2972.309684
 20
-467.587555
 30
0.0
 10
2972.309684
 20
-467.587555
 30
0.0
 10
2894.256779
 20
-389.534622
 30
0.0
 10
2894.256779
 20
-389.534622
 30
0.0
  0
SPLINE
  5
17b
100
AcDbEntity
  8
0
 62
7
100
AcDbSpline
 70
8
 71
3
 72
8
 73
4
 74
0
 40
0
 40
0
 40
0
 40
0
 40
1
 40
1
 40
1
 40
1
 10
2894.256779
 20
-389.534622
 30
0.0
 10
2893.256179
 20
-388.543419
 30
0.0
 10
2891.896833
 20
-387.999661
 30
0.0
 10
2890.488671
 20
-388.027324
 30
0.0
  0
SPLINE
  5
17c
100
AcDbEntity
  8
0
 62
7
100
AcDbSpline
 70
8
 71
3
 72
8
 73
4
 74
0
 40
0
 40
0
 40
0
 40
0
 40
1
 40
1
 40
1
 40
1
 10
2890.488671
 20
-388.027324
 30
0.0
 10
2890.309646
 20
-388.018076
 30
0.0
 10
2890.130262
 20
-388.018076
 30
0.0
 10
2889.951236
 20
-388.027324
 30
0.0
  0
LWPOLYLINE
  5
17d
100
AcDbEntity
  8
0
 62
7
100
AcDbPolyline
 90
2
 70
0
 10
2807.321591
 20
-471.248065
 30
0.0
 10
2807.321591
 20
-1096.479030
 30
0.0
  0
SPLINE
  5
17e
100
AcDbEntity
  8
0
 62
7
100
AcDbSpline
 70
8
 71
3
 72
8
 73
4
 74
0
 40
0
 40
0
 40
0
 40
0
 40
1
 40
1
 40
1
 40
1
 10
3723.125202
 20
-388.027407
 30
0.0
 10
3721.961978
 20
-388.170350
 30
0.0
 10
3720.880950
 20
-388.701397
 30
0.0
 10
3720.056863
 20
-389.534705
 30
0.0
  0
SPLINE
  5
17f
100
AcDbEntity
  8
0
 62
7
100
AcDbSpline
 70
8
 71
3
 72
8
 73
4
 74
0
 40
0
 40
0
 40
0
 40
0
 40
1
 40
1
 40
1
 40
1
 10
3720.056863
 20
-389.534705
 30
0.0
 10
3720.056863
 20
-389.534705
 30
0.0
 10
3642.003957
 20
-467.587638
 30
0.0
 10
3642.003957
 20
-467.587638
 30
0.0
  0
SPLINE
  5
180
100
AcDbEntity
  8
0
 62
7
100
AcDbSpline
 70
8
 71
3
 72
8
 73
4
 74
0
 40
0
 40
0
 40
0
 40
0
 40
1
 40
1
 40
1
 40
1
 10
3642.003957
 20
-467.587638
 30
0.0
 10
3641.039294
 20
-468.561833
 30
0.0
 10
3640.497605
 20
-469.877069
 30
0.0
 10
3640.496384
 20
-471.248065
 30
0.0
  0
LWPOLYLINE
  5
181
100
AcDbEntity
  8
0
 62
7
100
AcDbPolyline
 90
2
 70
0
 10
2889.951236
 20
-388.027324
 30
0.0
 10
2889.950410
 20
-388.027407
 30
0.0
  0
SPLINE
  5
182
100
AcDbEntity
  8
0
 62
7
100
AcDbSpline
 70
8
 71
3
 72
8
 73
4
 74
0
 40
0
 40
0
 40
0
 40
0
 40
1
 40
1
 40
1
 40
1
 10
3640.496384
 20
-1096.479030
 30
0.0
 10
3640.497612
 20
-1097.850016
 30
0.0
 10
3641.039301
 20
-1099.165241
 30
0.0
 10
3642.003957
 20
-1100.139430
 30
0.0
  0
LWPOLYLINE
  5
183
100
AcDbEntity
  8
0
 62
7
100
AcDbPolyline
 90
2
 70
0
 10
3640.496384
 20
-471.248065
 30
0.0
 10
3640.496384
 20
-1096.479030
 30
0.0
  0
SPLINE
  5
184
100
AcDbEntity
  8
0
 62
7
100
AcDbSpline
 70
8
 71
3
 72
8
 73
4
 74
0
 40
0
 40
0
 40
0
 40
0
 40
1
 40
1
 40
1
 40
1
 10
3720.056863
 20
-1178.192362
 30
0.0
 10
3721.034047
 20
-1179.171745
 30
0.0
 10
3722.360714
 20
-1179.722142
 30
0.0
 10
3723.744217
 20
-1179.722142
 30
0.0
  0
SPLINE
  5
185
100
AcDbEntity
  8
0
 62
7
100
AcDbSpline
 70
8
 71
3
 72
8
 73
4
 74
0
 40
0
 40
0
 40
0
 40
0
 40
1
 40
1
 40
1
 40
1
 10
3723.744217
 20
-1179.722142
 30
0.0
 10
3725.127720
 20
-1179.722142
 30
0.0
 10
3726.454387
 20
-1179.171745
 30
0.0
 10
3727.431571
 20
-1178.192362
 30
0.0
  0
SPLINE
  5
186
100
AcDbEntity
  8
0
 62
7
100
AcDbSpline
 70
8
 71
3
 72
8
 73
4
 74
0
 40
0
 40
0
 40
0
 40
0
 40
1
 40
1
 40
1
 40
1
 10
3727.431571
 20
-1178.192362
 30
0.0
 10
3727.431571
 20
-1178.192362
 30
0.0
 10
3805.753745
 20
-1100.139430
 30
0.0
 10
3805.753745
 20
-1100.139430
 30
0.0
  0
SPLINE
  5
187
100
AcDbEntity
  8
0
 62
7
100
AcDbSpline
 70
8
 71
3
 72
8
 73
4
 74
0
 40
0
 40
0
 40
0
 40
0
 40
1
 40
1
 40
1
 40
1
 10
3805.753745
 20
-1100.139430
 30
0.0
 10
3806.718402
 20
-1099.165241
 30
0.0
 10
3807.260091
 20
-1097.850016
 30
0.0
 10
3807.261319
 20
-1096.479030
 30
0.0
  0
SPLINE
  5
188
100
AcDbEntity
  8
0
 62
7
100
AcDbSpline
 70
8
 71
3
 72
8
 73
4
 74
0
 40
0
 40
0
 40
0
 40
0
 40
1
 40
1
 40
1
 40
1
 10
3807.261319
 20
-1096.479030
 30
0.0
 10
3807.261319
 20
-1096.479030
 30
0.0
 10
3807.261319
 20
-471.247982
 30
0.0
 10
3807.261319
 20
-471.247982
 30
0.0
  0
SPLINE
  5
189
100
AcDbEntity
  8
0
 62
7
100
AcDbSpline
 70
8
 71
3
 72
8
 73
4
 74
0
 40
0
 40
0
 40
0
 40
0
 40
1
 40
1
 40
1
 40
1
 10
3807.261319
 20
-471.247982
 30
0.0
 10
3807.260098
 20
-469.876986
 30
0.0
 10
3806.718408
 20
-468.561750
 30
0.0
 10
3805.753745
 20
-467.587555
 30
0.0
  0
SPLINE
  5
18a
100
AcDbEntity
  8
0
 62
7
100
AcDbSpline
 70
8
 71
3
 72
8
 73
4
 74
0
 40
0
 40
0
 40
0
 40
0
 40
1
 40
1
 40
1
 40
1
 10
3805.753745
 20
-467.587555
 30
0.0
 10
3805.753745
 20
-467.587555
 30
0.0
 10
3727.431571
 20
-389.534622
 30
0.0
 10
3727.431571
 20
-389.534622
 30
0.0
  0
SPLINE
  5
18b
100
AcDbEntity
  8
0
 62
7
100
AcDbSpline
 70
8
 71
3
 72
8
 73
4
 74
0
 40
0
 40
0
 40
0
 40
0
 40
1
 40
1
 40
1
 40
1
 10
3727.431571
 20
-389.534622
 30
0.0
 10
3726.430971
 20
-388.543419
 30
0.0
 10
3725.071625
 20
-387.999661
 30
0.0
 10
3723.663464
 20
-388.027324
 30
0.0
  0
SPLINE
  5
18c
100
AcDbEntity
  8
0
 62
7
100
AcDbSpline
 70
8
 71
3
 72
8
 73
4
 74
0
 40
0
 40
0
 40
0
 40
0
 40
1
 40
1
 40
1
 40
1
 10
3723.663464
 20
-388.027324
 30
0.0
 10
3723.484438
 20
-388.018076
 30
0.0
 10
3723.305055
 20
-388.018076
 30
0.0
 10
3723.126029
 20
-388.027324
 30
0.0
  0
LWPOLYLINE
  5
18d
100
AcDbEntity
  8
0
 62
7
100
AcDbPolyline
 90
2
 70
0
 10
3642.003957
 20
-1100.139430
 30
0.0
 10
3720.056863
 20
-1178.192362
 30
0.0
  0
SPLINE
  5
18e
100
AcDbEntity
  8
0
 62
7
100
AcDbSpline
 70
8
 71
3
 72
8
 73
4
 74
0
 40
0
 40
0
 40
0
 40
0
 40
1
 40
1
 40
1
 40
1
 10
546.370584
 20
-1117.203345
 30
0.0
 10
545.169246
 20
-1117.322555
 30
0.0
 10
544.046617
 20
-1117.855350
 30
0.0
 10
543.194620
 20
-1118.710643
 30
0.0
  0
LWPOLYLINE
  5
18f
100
AcDbEntity
  8
0
 62
7
100
AcDbPolyline
 90
2
 70
0
 10
3723.126029
 20
-388.027324
 30
0.0
 10
3723.125202
 20
-388.027407
 30
0.0
  0
SPLINE
  5
190
100
AcDbEntity
  8
0
 62
7
100
AcDbSpline
 70
8
 71
3
 72
8
 73
4
 74
0
 40
0
 40
0
 40
0
 40
0
 40
1
 40
1
 40
1
 40
1
 10
464.926382
 20
-1196.763603
 30
0.0
 10
463.939677
 20
-1197.733446
 30
0.0
 10
463.379350
 20
-1199.055994
 30
0.0
 10
463.369009
 20
-1200.439495
 30
0.0
  0
SPLINE
  5
191
100
AcDbEntity
  8
0
 62
7
100
AcDbSpline
 70
8
 71
3
 72
8
 73
4
 74
0
 40
0
 40
0
 40
0
 40
0
 40
1
 40
1
 40
1
 40
1
 10
463.369009
 20
-1200.439495
 30
0.0
 10
463.358668
 20
-1201.822997
 30
0.0
 10
463.899163
 20
-1203.153773
 30
0.0
 10
464.871261
 20
-1204.138257
 30
0.0
  0
LWPOLYLINE
  5
192
100
AcDbEntity
  8
0
 62
7
100
AcDbPolyline
 90
2
 70
0
 10
543.194620
 20
-1118.710643
 30
0.0
 10
464.926382
 20
-1196.763603
 30
0.0
  0
SPLINE
  5
193
100
AcDbEntity
  8
0
 62
7
100
AcDbSpline
 70
8
 71
3
 72
8
 73
4
 74
0
 40
0
 40
0
 40
0
 40
0
 40
1
 40
1
 40
1
 40
1
 10
543.193324
 20
-1282.460348
 30
0.0
 10
544.180780
 20
-1283.438118
 30
0.0
 10
545.517999
 20
-1283.980781
 30
0.0
 10
546.907578
 20
-1283.967646
 30
0.0
  0
LWPOLYLINE
  5
194
100
AcDbEntity
  8
0
 62
7
100
AcDbPolyline
 90
2
 70
0
 10
464.871261
 20
-1204.138257
 30
0.0
 10
543.193324
 20
-1282.460348
 30
0.0
  0
SPLINE
  5
195
100
AcDbEntity
  8
0
 62
7
100
AcDbSpline
 70
8
 71
3
 72
8
 73
4
 74
0
 40
0
 40
0
 40
0
 40
0
 40
1
 40
1
 40
1
 40
1
 10
1171.815558
 20
-1283.967646
 30
0.0
 10
1173.205137
 20
-1283.980781
 30
0.0
 10
1174.542356
 20
-1283.438118
 30
0.0
 10
1175.529812
 20
-1282.460348
 30
0.0
  0
LWPOLYLINE
  5
196
100
AcDbEntity
  8
0
 62
7
100
AcDbPolyline
 90
2
 70
0
 10
546.907578
 20
-1283.967646
 30
0.0
 10
1171.815558
 20
-1283.967646
 30
0.0
  0
SPLINE
  5
197
100
AcDbEntity
  8
0
 62
7
100
AcDbSpline
 70
8
 71
3
 72
8
 73
4
 74
0
 40
0
 40
0
 40
0
 40
0
 40
1
 40
1
 40
1
 40
1
 10
1253.582744
 20
-1204.138257
 30
0.0
 10
1254.562111
 20
-1203.161074
 30
0.0
 10
1255.112497
 20
-1201.834419
 30
0.0
 10
1255.112497
 20
-1200.450930
 30
0.0
  0
SPLINE
  5
198
100
AcDbEntity
  8
0
 62
7
100
AcDbSpline
 70
8
 71
3
 72
8
 73
4
 74
0
 40
0
 40
0
 40
0
 40
0
 40
1
 40
1
 40
1
 40
1
 10
1255.112497
 20
-1200.450930
 30
0.0
 10
1255.112497
 20
-1199.067440
 30
0.0
 10
1254.562111
 20
-1197.740785
 30
0.0
 10
1253.582744
 20
-1196.763603
 30
0.0
  0
LWPOLYLINE
  5
199
100
AcDbEntity
  8
0
 62
7
100
AcDbPolyline
 90
2
 70
0
 10
1175.529812
 20
-1282.460348
 30
0.0
 10
1253.582744
 20
-1204.138257
 30
0.0
  0
SPLINE
  5
19a
100
AcDbEntity
  8
0
 62
7
100
AcDbSpline
 70
8
 71
3
 72
8
 73
4
 74
0
 40
0
 40
0
 40
0
 40
0
 40
1
 40
1
 40
1
 40
1
 10
1175.529812
 20
-1118.710643
 30
0.0
 10
1174.542356
 20
-1117.732873
 30
0.0
 10
1173.205137
 20
-1117.190210
 30
0.0
 10
1171.815558
 20
-1117.203345
 30
0.0
  0
LWPOLYLINE
  5
19b
100
AcDbEntity
  8
0
 62
7
100
AcDbPolyline
 90
2
 70
0
 10
1253.582744
 20
-1196.763603
 30
0.0
 10
1175.529812
 20
-1118.710643
 30
0.0
  0
SPLINE
  5
19c
100
AcDbEntity
  8
0
 62
7
100
AcDbSpline
 70
8
 71
3
 72
8
 73
4
 74
0
 40
0
 40
0
 40
0
 40
0
 40
1
 40
1
 40
1
 40
1
 10
546.908873
 20
-1117.203345
 30
0.0
 10
546.729573
 20
-1117.194068
 30
0.0
 10
546.549912
 20
-1117.194068
 30
0.0
 10
546.370612
 20
-1117.203345
 30
0.0
  0
LWPOLYLINE
  5
19d
100
AcDbEntity
  8
0
 62
7
100
AcDbPolyline
 90
2
 70
0
 10
1171.815558
 20
-1117.203345
 30
0.0
 10
546.908873
 20
-1117.203345
 30
0.0
  0
SPLINE
  5
19e
100
AcDbEntity
  8
0
 62
7
100
AcDbSpline
 70
8
 71
3
 72
8
 73
4
 74
0
 40
0
 40
0
 40
0
 40
0
 40
1
 40
1
 40
1
 40
1
 10
1770.348330
 20
-1117.203345
 30
0.0
 10
1769.147001
 20
-1117.322561
 30
0.0
 10
1768.024383
 20
-1117.855356
 30
0.0
 10
1767.172393
 20
-1118.710643
 30
0.0
  0
SPLINE
  5
19f
100
AcDbEntity
  8
0
 62
7
100
AcDbSpline
 70
8
 71
3
 72
8
 73
4
 74
0
 40
0
 40
0
 40
0
 40
0
 40
1
 40
1
 40
1
 40
1
 10
1767.172393
 20
-1118.710643
 30
0.0
 10
1767.172393
 20
-1118.710643
 30
0.0
 10
1688.850302
 20
-1196.763603
 30
0.0
 10
1688.850302
 20
-1196.763603
 30
0.0
  0
SPLINE
  5
1a0
100
AcDbEntity
  8
0
 62
7
100
AcDbSpline
 70
8
 71
3
 72
8
 73
4
 74
0
 40
0
 40
0
 40
0
 40
0
 40
1
 40
1
 40
1
 40
1
 10
1688.850302
 20
-1196.763603
 30
0.0
 10
1687.870935
 20
-1197.740785
 30
0.0
 10
1687.320549
 20
-1199.067440
 30
0.0
 10
1687.320549
 20
-1200.450930
 30
0.0
  0
SPLINE
  5
1a1
100
AcDbEntity
  8
0
 62
7
100
AcDbSpline
 70
8
 71
3
 72
8
 73
4
 74
0
 40
0
 40
0
 40
0
 40
0
 40
1
 40
1
 40
1
 40
1
 10
1687.320549
 20
-1200.450930
 30
0.0
 10
1687.320549
 20
-1201.834419
 30
0.0
 10
1687.870935
 20
-1203.161074
 30
0.0
 10
1688.850302
 20
-1204.138257
 30
0.0
  0
LWPOLYLINE
  5
1a2
100
AcDbEntity
  8
0
 62
7
100
AcDbPolyline
 90
1
 70
1
 10
546.370612
 20
-1117.203345
 30
0.0
  0
SPLINE
  5
1a3
100
AcDbEntity
  8
0
 62
7
100
AcDbSpline
 70
8
 71
3
 72
8
 73
4
 74
0
 40
0
 40
0
 40
0
 40
0
 40
1
 40
1
 40
1
 40
1
 10
1767.172393
 20
-1282.460348
 30
0.0
 10
1768.146626
 20
-1283.424903
 30
0.0
 10
1769.461845
 20
-1283.966491
 30
0.0
 10
1770.832793
 20
-1283.967646
 30
0.0
  0
LWPOLYLINE
  5
1a4
100
AcDbEntity
  8
0
 62
7
100
AcDbPolyline
 90
2
 70
0
 10
1688.850302
 20
-1204.138257
 30
0.0
 10
1767.172393
 20
-1282.460348
 30
0.0
  0
SPLINE
  5
1a5
100
AcDbEntity
  8
0
 62
7
100
AcDbSpline
 70
8
 71
3
 72
8
 73
4
 74
0
 40
0
 40
0
 40
0
 40
0
 40
1
 40
1
 40
1
 40
1
 10
2395.794599
 20
-1283.967646
 30
0.0
 10
2397.184178
 20
-1283.980781
 30
0.0
 10
2398.521397
 20
-1283.438118
 30
0.0
 10
2399.508853
 20
-1282.460348
 30
0.0
  0
LWPOLYLINE
  5
1a6
100
AcDbEntity
  8
0
 62
7
100
AcDbPolyline
 90
2
 70
0
 10
1770.832793
 20
-1283.967646
 30
0.0
 10
2395.794599
 20
-1283.967646
 30
0.0
  0
SPLINE
  5
1a7
100
AcDbEntity
  8
0
 62
7
100
AcDbSpline
 70
8
 71
3
 72
8
 73
4
 74
0
 40
0
 40
0
 40
0
 40
0
 40
1
 40
1
 40
1
 40
1
 10
2477.561785
 20
-1204.138257
 30
0.0
 10
2478.541151
 20
-1203.161074
 30
0.0
 10
2479.091538
 20
-1201.834419
 30
0.0
 10
2479.091538
 20
-1200.450930
 30
0.0
  0
SPLINE
  5
1a8
100
AcDbEntity
  8
0
 62
7
100
AcDbSpline
 70
8
 71
3
 72
8
 73
4
 74
0
 40
0
 40
0
 40
0
 40
0
 40
1
 40
1
 40
1
 40
1
 10
2479.091538
 20
-1200.450930
 30
0.0
 10
2479.091538
 20
-1199.067440
 30
0.0
 10
2478.541151
 20
-1197.740785
 30
0.0
 10
2477.561785
 20
-1196.763603
 30
0.0
  0
SPLINE
  5
1a9
100
AcDbEntity
  8
0
 62
7
100
AcDbSpline
 70
8
 71
3
 72
8
 73
4
 74
0
 40
0
 40
0
 40
0
 40
0
 40
1
 40
1
 40
1
 40
1
 10
2477.561785
 20
-1196.763603
 30
0.0
 10
2477.561785
 20
-1196.763603
 30
0.0
 10
2399.508853
 20
-1118.710560
 30
0.0
 10
2399.508853
 20
-1118.710560
 30
0.0
  0
SPLINE
  5
1aa
100
AcDbEntity
  8
0
 62
7
100
AcDbSpline
 70
8
 71
3
 72
8
 73
4
 74
0
 40
0
 40
0
 40
0
 40
0
 40
1
 40
1
 40
1
 40
1
 10
2399.508853
 20
-1118.710560
 30
0.0
 10
2398.521397
 20
-1117.732790
 30
0.0
 10
2397.184178
 20
-1117.190127
 30
0.0
 10
2395.794599
 20
-1117.203262
 30
0.0
  0
LWPOLYLINE
  5
1ab
100
AcDbEntity
  8
0
 62
7
100
AcDbPolyline
 90
2
 70
0
 10
2399.508853
 20
-1282.460348
 30
0.0
 10
2477.561785
 20
-1204.138257
 30
0.0
  0
SPLINE
  5
1ac
100
AcDbEntity
  8
0
 62
7
100
AcDbSpline
 70
8
 71
3
 72
8
 73
4
 74
0
 40
0
 40
0
 40
0
 40
0
 40
1
 40
1
 40
1
 40
1
 10
1770.832793
 20
-1117.203262
 30
0.0
 10
1770.671374
 20
-1117.195746
 30
0.0
 10
1770.509693
 20
-1117.195746
 30
0.0
 10
1770.348275
 20
-1117.203262
 30
0.0
  0
LWPOLYLINE
  5
1ad
100
AcDbEntity
  8
0
 62
7
100
AcDbPolyline
 90
2
 70
0
 10
2395.794599
 20
-1117.203262
 30
0.0
 10
1770.832793
 20
-1117.203262
 30
0.0
  0
SPLINE
  5
1ae
100
AcDbEntity
  8
0
 62
7
100
AcDbSpline
 70
8
 71
3
 72
8
 73
4
 74
0
 40
0
 40
0
 40
0
 40
0
 40
1
 40
1
 40
1
 40
1
 10
2994.272304
 20
-1117.203345
 30
0.0
 10
2993.090030
 20
-1117.334548
 30
0.0
 10
2991.988278
 20
-1117.866458
 30
0.0
 10
2991.150221
 20
-1118.710643
 30
0.0
  0
LWPOLYLINE
  5
1af
100
AcDbEntity
  8
0
 62
7
100
AcDbPolyline
 90
1
 70
1
 10
1770.348275
 20
-1117.203262
 30
0.0
  0
SPLINE
  5
1b0
100
AcDbEntity
  8
0
 62
7
100
AcDbSpline
 70
8
 71
3
 72
8
 73
4
 74
0
 40
0
 40
0
 40
0
 40
0
 40
1
 40
1
 40
1
 40
1
 10
2912.828047
 20
-1196.763603
 30
0.0
 10
2911.848681
 20
-1197.740785
 30
0.0
 10
2911.298295
 20
-1199.067440
 30
0.0
 10
2911.298295
 20
-1200.450930
 30
0.0
  0
SPLINE
  5
1b1
100
AcDbEntity
  8
0
 62
7
100
AcDbSpline
 70
8
 71
3
 72
8
 73
4
 74
0
 40
0
 40
0
 40
0
 40
0
 40
1
 40
1
 40
1
 40
1
 10
2911.298295
 20
-1200.450930
 30
0.0
 10
2911.298295
 20
-1201.834419
 30
0.0
 10
2911.848681
 20
-1203.161074
 30
0.0
 10
2912.828047
 20
-1204.138257
 30
0.0
  0
LWPOLYLINE
  5
1b2
100
AcDbEntity
  8
0
 62
7
100
AcDbPolyline
 90
2
 70
0
 10
2991.150221
 20
-1118.710643
 30
0.0
 10
2912.828047
 20
-1196.763603
 30
0.0
  0
SPLINE
  5
1b3
100
AcDbEntity
  8
0
 62
7
100
AcDbSpline
 70
8
 71
3
 72
8
 73
4
 74
0
 40
0
 40
0
 40
0
 40
0
 40
1
 40
1
 40
1
 40
1
 10
2991.150221
 20
-1282.460348
 30
0.0
 10
2992.124441
 20
-1283.424890
 30
0.0
 10
2993.439637
 20
-1283.966477
 30
0.0
 10
2994.810566
 20
-1283.967646
 30
0.0
  0
LWPOLYLINE
  5
1b4
100
AcDbEntity
  8
0
 62
7
100
AcDbPolyline
 90
2
 70
0
 10
2912.828047
 20
-1204.138257
 30
0.0
 10
2991.150221
 20
-1282.460348
 30
0.0
  0
SPLINE
  5
1b5
100
AcDbEntity
  8
0
 62
7
100
AcDbSpline
 70
8
 71
3
 72
8
 73
4
 74
0
 40
0
 40
0
 40
0
 40
0
 40
1
 40
1
 40
1
 40
1
 10
3619.772344
 20
-1283.967646
 30
0.0
 10
3621.143273
 20
-1283.966477
 30
0.0
 10
3622.458469
 20
-1283.424890
 30
0.0
 10
3623.432689
 20
-1282.460348
 30
0.0
  0
SPLINE
  5
1b6
100
AcDbEntity
  8
0
 62
7
100
AcDbSpline
 70
8
 71
3
 72
8
 73
4
 74
0
 40
0
 40
0
 40
0
 40
0
 40
1
 40
1
 40
1
 40
1
 10
3623.432689
 20
-1282.460348
 30
0.0
 10
3623.432689
 20
-1282.460348
 30
0.0
 10
3701.485594
 20
-1204.138257
 30
0.0
 10
3701.485594
 20
-1204.138257
 30
0.0
  0
SPLINE
  5
1b7
100
AcDbEntity
  8
0
 62
7
100
AcDbSpline
 70
8
 71
3
 72
8
 73
4
 74
0
 40
0
 40
0
 40
0
 40
0
 40
1
 40
1
 40
1
 40
1
 10
3701.485594
 20
-1204.138257
 30
0.0
 10
3702.464960
 20
-1203.161074
 30
0.0
 10
3703.015347
 20
-1201.834419
 30
0.0
 10
3703.015347
 20
-1200.450930
 30
0.0
  0
SPLINE
  5
1b8
100
AcDbEntity
  8
0
 62
7
100
AcDbSpline
 70
8
 71
3
 72
8
 73
4
 74
0
 40
0
 40
0
 40
0
 40
0
 40
1
 40
1
 40
1
 40
1
 10
3703.015347
 20
-1200.450930
 30
0.0
 10
3703.015347
 20
-1199.067440
 30
0.0
 10
3702.464960
 20
-1197.740785
 30
0.0
 10
3701.485594
 20
-1196.763603
 30
0.0
  0
SPLINE
  5
1b9
100
AcDbEntity
  8
0
 62
7
100
AcDbSpline
 70
8
 71
3
 72
8
 73
4
 74
0
 40
0
 40
0
 40
0
 40
0
 40
1
 40
1
 40
1
 40
1
 10
3701.485594
 20
-1196.763603
 30
0.0
 10
3701.485594
 20
-1196.763603
 30
0.0
 10
3623.432689
 20
-1118.710643
 30
0.0
 10
3623.432689
 20
-1118.710643
 30
0.0
  0
SPLINE
  5
1ba
100
AcDbEntity
  8
0
 62
7
100
AcDbSpline
 70
8
 71
3
 72
8
 73
4
 74
0
 40
0
 40
0
 40
0
 40
0
 40
1
 40
1
 40
1
 40
1
 10
3623.432689
 20
-1118.710643
 30
0.0
 10
3622.458469
 20
-1117.746101
 30
0.0
 10
3621.143273
 20
-1117.204514
 30
0.0
 10
3619.772344
 20
-1117.203345
 30
0.0
  0
LWPOLYLINE
  5
1bb
100
AcDbEntity
  8
0
 62
7
100
AcDbPolyline
 90
2
 70
0
 10
2994.810566
 20
-1283.967646
 30
0.0
 10
3619.772344
 20
-1283.967646
 30
0.0
  0
SPLINE
  5
1bc
100
AcDbEntity
  8
0
 62
7
100
AcDbSpline
 70
8
 71
3
 72
8
 73
4
 74
0
 40
0
 40
0
 40
0
 40
0
 40
1
 40
1
 40
1
 40
1
 10
2994.810566
 20
-1117.203345
 30
0.0
 10
2994.631540
 20
-1117.194097
 30
0.0
 10
2994.452156
 20
-1117.194097
 30
0.0
 10
2994.273131
 20
-1117.203345
 30
0.0
  0
LWPOLYLINE
  5
1bd
100
AcDbEntity
  8
0
 62
7
100
AcDbPolyline
 90
2
 70
0
 10
3619.772344
 20
-1117.203345
 30
0.0
 10
2994.810566
 20
-1117.203345
 30
0.0
  0
SPLINE
  5
1be
100
AcDbEntity
  8
0
 62
7
100
AcDbSpline
 70
8
 71
3
 72
8
 73
4
 74
0
 40
0
 40
0
 40
0
 40
0
 40
1
 40
1
 40
1
 40
1
 10
442.587089
 20
-1221.417476
 30
0.0
 10
441.227180
 20
-1221.446954
 30
0.0
 10
439.932750
 20
-1222.007221
 30
0.0
 10
438.980488
 20
-1222.978518
 30
0.0
  0
LWPOLYLINE
  5
1bf
100
AcDbEntity
  8
0
 62
7
100
AcDbPolyline
 90
2
 70
0
 10
2994.273131
 20
-1117.203345
 30
0.0
 10
2994.272304
 20
-1117.203345
 30
0.0
  0
SPLINE
  5
1c0
100
AcDbEntity
  8
0
 62
7
100
AcDbSpline
 70
8
 71
3
 72
8
 73
4
 74
0
 40
0
 40
0
 40
0
 40
0
 40
1
 40
1
 40
1
 40
1
 10
360.927555
 20
-1301.031478
 30
0.0
 10
359.943279
 20
-1301.996931
 30
0.0
 10
359.381919
 20
-1303.313233
 30
0.0
 10
359.366514
 20
-1304.691878
 30
0.0
  0
LWPOLYLINE
  5
1c1
100
AcDbEntity
  8
0
 62
7
100
AcDbPolyline
 90
2
 70
0
 10
438.980488
 20
-1222.978518
 30
0.0
 10
360.927555
 20
-1301.031478
 30
0.0
  0
SPLINE
  5
1c2
100
AcDbEntity
  8
0
 62
7
100
AcDbSpline
 70
8
 71
3
 72
8
 73
4
 74
0
 40
0
 40
0
 40
0
 40
0
 40
1
 40
1
 40
1
 40
1
 10
359.366514
 20
-1929.653712
 30
0.0
 10
359.381919
 20
-1931.032357
 30
0.0
 10
359.943279
 20
-1932.348659
 30
0.0
 10
360.927555
 20
-1933.314112
 30
0.0
  0
SPLINE
  5
1c3
100
AcDbEntity
  8
0
 62
7
100
AcDbSpline
 70
8
 71
3
 72
8
 73
4
 74
0
 40
0
 40
0
 40
0
 40
0
 40
1
 40
1
 40
1
 40
1
 10
360.927555
 20
-1933.314112
 30
0.0
 10
360.927555
 20
-1933.314112
 30
0.0
 10
438.980488
 20
-2011.636203
 30
0.0
 10
438.980488
 20
-2011.636203
 30
0.0
  0
SPLINE
  5
1c4
100
AcDbEntity
  8
0
 62
7
100
AcDbSpline
 70
8
 71
3
 72
8
 73
4
 74
0
 40
0
 40
0
 40
0
 40
0
 40
1
 40
1
 40
1
 40
1
 10
438.980488
 20
-2011.636203
 30
0.0
 10
439.957670
 20
-2012.615569
 30
0.0
 10
441.284325
 20
-2013.165955
 30
0.0
 10
442.667815
 20
-2013.165955
 30
0.0
  0
SPLINE
  5
1c5
100
AcDbEntity
  8
0
 62
7
100
AcDbSpline
 70
8
 71
3
 72
8
 73
4
 74
0
 40
0
 40
0
 40
0
 40
0
 40
1
 40
1
 40
1
 40
1
 10
442.667815
 20
-2013.165955
 30
0.0
 10
444.051304
 20
-2013.165955
 30
0.0
 10
445.377959
 20
-2012.615569
 30
0.0
 10
446.355142
 20
-2011.636203
 30
0.0
  0
LWPOLYLINE
  5
1c6
100
AcDbEntity
  8
0
 62
7
100
AcDbPolyline
 90
2
 70
0
 10
359.366514
 20
-1304.691878
 30
0.0
 10
359.366514
 20
-1929.653712
 30
0.0
  0
SPLINE
  5
1c7
100
AcDbEntity
  8
0
 62
7
100
AcDbSpline
 70
8
 71
3
 72
8
 73
4
 74
0
 40
0
 40
0
 40
0
 40
0
 40
1
 40
1
 40
1
 40
1
 10
524.408102
 20
-1933.314112
 30
0.0
 10
525.372657
 20
-1932.339879
 30
0.0
 10
525.914245
 20
-1931.024659
 30
0.0
 10
525.915400
 20
-1929.653712
 30
0.0
  0
SPLINE
  5
1c8
100
AcDbEntity
  8
0
 62
7
100
AcDbSpline
 70
8
 71
3
 72
8
 73
4
 74
0
 40
0
 40
0
 40
0
 40
0
 40
1
 40
1
 40
1
 40
1
 10
525.915400
 20
-1929.653712
 30
0.0
 10
525.915400
 20
-1929.653712
 30
0.0
 10
525.915400
 20
-1304.691878
 30
0.0
 10
525.915400
 20
-1304.691878
 30
0.0
  0
SPLINE
  5
1c9
100
AcDbEntity
  8
0
 62
7
100
AcDbSpline
 70
8
 71
3
 72
8
 73
4
 74
0
 40
0
 40
0
 40
0
 40
0
 40
1
 40
1
 40
1
 40
1
 10
525.915400
 20
-1304.691878
 30
0.0
 10
525.914245
 20
-1303.320931
 30
0.0
 10
525.372657
 20
-1302.005712
 30
0.0
 10
524.408102
 20
-1301.031478
 30
0.0
  0
LWPOLYLINE
  5
1ca
100
AcDbEntity
  8
0
 62
7
100
AcDbPolyline
 90
2
 70
0
 10
446.355142
 20
-2011.636203
 30
0.0
 10
524.408102
 20
-1933.314112
 30
0.0
  0
SPLINE
  5
1cb
100
AcDbEntity
  8
0
 62
7
100
AcDbSpline
 70
8
 71
3
 72
8
 73
4
 74
0
 40
0
 40
0
 40
0
 40
0
 40
1
 40
1
 40
1
 40
1
 10
446.355142
 20
-1222.978518
 30
0.0
 10
445.363528
 20
-1221.967620
 30
0.0
 10
444.003081
 20
-1221.404009
 30
0.0
 10
442.587089
 20
-1221.417476
 30
0.0
  0
LWPOLYLINE
  5
1cc
100
AcDbEntity
  8
0
 62
7
100
AcDbPolyline
 90
2
 70
0
 10
524.408102
 20
-1301.031478
 30
0.0
 10
446.355142
 20
-1222.978518
 30
0.0
  0
SPLINE
  5
1cd
100
AcDbEntity
  8
0
 62
7
100
AcDbSpline
 70
8
 71
3
 72
8
 73
4
 74
0
 40
0
 40
0
 40
0
 40
0
 40
1
 40
1
 40
1
 40
1
 10
1275.761827
 20
-1221.417476
 30
0.0
 10
1274.401927
 20
-1221.446961
 30
0.0
 10
1273.107509
 20
-1222.007227
 30
0.0
 10
1272.155253
 20
-1222.978518
 30
0.0
  0
LWPOLYLINE
  5
1ce
100
AcDbEntity
  8
0
 62
7
100
AcDbPolyline
 90
1
 70
1
 10
442.587089
 20
-1221.417476
 30
0.0
  0
SPLINE
  5
1cf
100
AcDbEntity
  8
0
 62
7
100
AcDbSpline
 70
8
 71
3
 72
8
 73
4
 74
0
 40
0
 40
0
 40
0
 40
0
 40
1
 40
1
 40
1
 40
1
 10
1194.102320
 20
-1301.031478
 30
0.0
 10
1193.118044
 20
-1301.996931
 30
0.0
 10
1192.556684
 20
-1303.313233
 30
0.0
 10
1192.541279
 20
-1304.691878
 30
0.0
  0
LWPOLYLINE
  5
1d0
100
AcDbEntity
  8
0
 62
7
100
AcDbPolyline
 90
2
 70
0
 10
1272.155253
 20
-1222.978518
 30
0.0
 10
1194.102320
 20
-1301.031478
 30
0.0
  0
SPLINE
  5
1d1
100
AcDbEntity
  8
0
 62
7
100
AcDbSpline
 70
8
 71
3
 72
8
 73
4
 74
0
 40
0
 40
0
 40
0
 40
0
 40
1
 40
1
 40
1
 40
1
 10
1192.541279
 20
-1929.653712
 30
0.0
 10
1192.556684
 20
-1931.032357
 30
0.0
 10
1193.118044
 20
-1932.348659
 30
0.0
 10
1194.102320
 20
-1933.314112
 30
0.0
  0
SPLINE
  5
1d2
100
AcDbEntity
  8
0
 62
7
100
AcDbSpline
 70
8
 71
3
 72
8
 73
4
 74
0
 40
0
 40
0
 40
0
 40
0
 40
1
 40
1
 40
1
 40
1
 10
1194.102320
 20
-1933.314112
 30
0.0
 10
1194.102320
 20
-1933.314112
 30
0.0
 10
1272.155253
 20
-2011.636203
 30
0.0
 10
1272.155253
 20
-2011.636203
 30
0.0
  0
SPLINE
  5
1d3
100
AcDbEntity
  8
0
 62
7
100
AcDbSpline
 70
8
 71
3
 72
8
 73
4
 74
0
 40
0
 40
0
 40
0
 40
0
 40
1
 40
1
 40
1
 40
1
 10
1272.155253
 20
-2011.636203
 30
0.0
 10
1273.132435
 20
-2012.615569
 30
0.0
 10
1274.459090
 20
-2013.165955
 30
0.0
 10
1275.842580
 20
-2013.165955
 30
0.0
  0
SPLINE
  5
1d4
100
AcDbEntity
  8
0
 62
7
100
AcDbSpline
 70
8
 71
3
 72
8
 73
4
 74
0
 40
0
 40
0
 40
0
 40
0
 40
1
 40
1
 40
1
 40
1
 10
1275.842580
 20
-2013.165955
 30
0.0
 10
1277.226069
 20
-2013.165955
 30
0.0
 10
1278.552724
 20
-2012.615569
 30
0.0
 10
1279.529907
 20
-2011.636203
 30
0.0
  0
SPLINE
  5
1d5
100
AcDbEntity
  8
0
 62
7
100
AcDbSpline
 70
8
 71
3
 72
8
 73
4
 74
0
 40
0
 40
0
 40
0
 40
0
 40
1
 40
1
 40
1
 40
1
 10
1279.529907
 20
-2011.636203
 30
0.0
 10
1279.529907
 20
-2011.636203
 30
0.0
 10
1357.798172
 20
-1933.314112
 30
0.0
 10
1357.798172
 20
-1933.314112
 30
0.0
  0
SPLINE
  5
1d6
100
AcDbEntity
  8
0
 62
7
100
AcDbSpline
 70
8
 71
3
 72
8
 73
4
 74
0
 40
0
 40
0
 40
0
 40
0
 40
1
 40
1
 40
1
 40
1
 10
1357.798172
 20
-1933.314112
 30
0.0
 10
1358.782447
 20
-1932.348659
 30
0.0
 10
1359.343807
 20
-1931.032357
 30
0.0
 10
1359.359213
 20
-1929.653712
 30
0.0
  0
SPLINE
  5
1d7
100
AcDbEntity
  8
0
 62
7
100
AcDbSpline
 70
8
 71
3
 72
8
 73
4
 74
0
 40
0
 40
0
 40
0
 40
0
 40
1
 40
1
 40
1
 40
1
 10
1359.359213
 20
-1929.653712
 30
0.0
 10
1359.359213
 20
-1929.653712
 30
0.0
 10
1359.359213
 20
-1304.691878
 30
0.0
 10
1359.359213
 20
-1304.691878
 30
0.0
  0
SPLINE
  5
1d8
100
AcDbEntity
  8
0
 62
7
100
AcDbSpline
 70
8
 71
3
 72
8
 73
4
 74
0
 40
0
 40
0
 40
0
 40
0
 40
1
 40
1
 40
1
 40
1
 10
1359.359213
 20
-1304.691878
 30
0.0
 10
1359.343807
 20
-1303.313233
 30
0.0
 10
1358.782447
 20
-1301.996931
 30
0.0
 10
1357.798172
 20
-1301.031478
 30
0.0
  0
LWPOLYLINE
  5
1d9
100
AcDbEntity
  8
0
 62
7
100
AcDbPolyline
 90
2
 70
0
 10
1192.541279
 20
-1304.691878
 30
0.0
 10
1192.541279
 20
-1929.653712
 30
0.0
  0
SPLINE
  5
1da
100
AcDbEntity
  8
0
 62
7
100
AcDbSpline
 70
8
 71
3
 72
8
 73
4
 74
0
 40
0
 40
0
 40
0
 40
0
 40
1
 40
1
 40
1
 40
1
 10
1279.476080
 20
-1222.978518
 30
0.0
 10
1278.497501
 20
-1221.981033
 30
0.0
 10
1277.159179
 20
-1221.418558
 30
0.0
 10
1275.761827
 20
-1221.417476
 30
0.0
  0
LWPOLYLINE
  5
1db
100
AcDbEntity
  8
0
 62
7
100
AcDbPolyline
 90
2
 70
0
 10
1357.798172
 20
-1301.031478
 30
0.0
 10
1279.476080
 20
-1222.978518
 30
0.0
  0
SPLINE
  5
1dc
100
AcDbEntity
  8
0
 62
7
100
AcDbSpline
 70
8
 71
3
 72
8
 73
4
 74
0
 40
0
 40
0
 40
0
 40
0
 40
1
 40
1
 40
1
 40
1
 10
1666.511009
 20
-1221.417476
 30
0.0
 10
1665.151109
 20
-1221.446961
 30
0.0
 10
1663.856691
 20
-1222.007227
 30
0.0
 10
1662.904435
 20
-1222.978518
 30
0.0
  0
SPLINE
  5
1dd
100
AcDbEntity
  8
0
 62
7
100
AcDbSpline
 70
8
 71
3
 72
8
 73
4
 74
0
 40
0
 40
0
 40
0
 40
0
 40
1
 40
1
 40
1
 40
1
 10
1662.904435
 20
-1222.978518
 30
0.0
 10
1662.904435
 20
-1222.978518
 30
0.0
 10
1584.851475
 20
-1301.031478
 30
0.0
 10
1584.851475
 20
-1301.031478
 30
0.0
  0
SPLINE
  5
1de
100
AcDbEntity
  8
0
 62
7
100
AcDbSpline
 70
8
 71
3
 72
8
 73
4
 74
0
 40
0
 40
0
 40
0
 40
0
 40
1
 40
1
 40
1
 40
1
 10
1584.851475
 20
-1301.031478
 30
0.0
 10
1583.886919
 20
-1302.005712
 30
0.0
 10
1583.345331
 20
-1303.320931
 30
0.0
 10
1583.344176
 20
-1304.691878
 30
0.0
  0
SPLINE
  5
1df
100
AcDbEntity
  8
0
 62
7
100
AcDbSpline
 70
8
 71
3
 72
8
 73
4
 74
0
 40
0
 40
0
 40
0
 40
0
 40
1
 40
1
 40
1
 40
1
 10
1583.344176
 20
-1304.691878
 30
0.0
 10
1583.344176
 20
-1304.691878
 30
0.0
 10
1583.344176
 20
-1929.653712
 30
0.0
 10
1583.344176
 20
-1929.653712
 30
0.0
  0
SPLINE
  5
1e0
100
AcDbEntity
  8
0
 62
7
100
AcDbSpline
 70
8
 71
3
 72
8
 73
4
 74
0
 40
0
 40
0
 40
0
 40
0
 40
1
 40
1
 40
1
 40
1
 10
1583.344176
 20
-1929.653712
 30
0.0
 10
1583.345331
 20
-1931.024659
 30
0.0
 10
1583.886919
 20
-1932.339879
 30
0.0
 10
1584.851475
 20
-1933.314112
 30
0.0
  0
SPLINE
  5
1e1
100
AcDbEntity
  8
0
 62
7
100
AcDbSpline
 70
8
 71
3
 72
8
 73
4
 74
0
 40
0
 40
0
 40
0
 40
0
 40
1
 40
1
 40
1
 40
1
 10
1584.851475
 20
-1933.314112
 30
0.0
 10
1584.851475
 20
-1933.314112
 30
0.0
 10
1662.904435
 20
-2011.636203
 30
0.0
 10
1662.904435
 20
-2011.636203
 30
0.0
  0
SPLINE
  5
1e2
100
AcDbEntity
  8
0
 62
7
100
AcDbSpline
 70
8
 71
3
 72
8
 73
4
 74
0
 40
0
 40
0
 40
0
 40
0
 40
1
 40
1
 40
1
 40
1
 10
1662.904435
 20
-2011.636203
 30
0.0
 10
1663.881617
 20
-2012.615569
 30
0.0
 10
1665.208272
 20
-2013.165955
 30
0.0
 10
1666.591762
 20
-2013.165955
 30
0.0
  0
SPLINE
  5
1e3
100
AcDbEntity
  8
0
 62
7
100
AcDbSpline
 70
8
 71
3
 72
8
 73
4
 74
0
 40
0
 40
0
 40
0
 40
0
 40
1
 40
1
 40
1
 40
1
 10
1666.591762
 20
-2013.165955
 30
0.0
 10
1667.975251
 20
-2013.165955
 30
0.0
 10
1669.301906
 20
-2012.615569
 30
0.0
 10
1670.279088
 20
-2011.636203
 30
0.0
  0
LWPOLYLINE
  5
1e4
100
AcDbEntity
  8
0
 62
7
100
AcDbPolyline
 90
1
 70
1
 10
1275.761827
 20
-1221.417476
 30
0.0
  0
SPLINE
  5
1e5
100
AcDbEntity
  8
0
 62
7
100
AcDbSpline
 70
8
 71
3
 72
8
 73
4
 74
0
 40
0
 40
0
 40
0
 40
0
 40
1
 40
1
 40
1
 40
1
 10
1748.332021
 20
-1933.314112
 30
0.0
 10
1749.316297
 20
-1932.348659
 30
0.0
 10
1749.877657
 20
-1931.032357
 30
0.0
 10
1749.893063
 20
-1929.653712
 30
0.0
  0
SPLINE
  5
1e6
100
AcDbEntity
  8
0
 62
7
100
AcDbSpline
 70
8
 71
3
 72
8
 73
4
 74
0
 40
0
 40
0
 40
0
 40
0
 40
1
 40
1
 40
1
 40
1
 10
1749.893063
 20
-1929.653712
 30
0.0
 10
1749.893063
 20
-1929.653712
 30
0.0
 10
1749.893063
 20
-1304.691878
 30
0.0
 10
1749.893063
 20
-1304.691878
 30
0.0
  0
SPLINE
  5
1e7
100
AcDbEntity
  8
0
 62
7
100
AcDbSpline
 70
8
 71
3
 72
8
 73
4
 74
0
 40
0
 40
0
 40
0
 40
0
 40
1
 40
1
 40
1
 40
1
 10
1749.893063
 20
-1304.691878
 30
0.0
 10
1749.877657
 20
-1303.313233
 30
0.0
 10
1749.316297
 20
-1301.996931
 30
0.0
 10
1748.332021
 20
-1301.031478
 30
0.0
  0
LWPOLYLINE
  5
1e8
100
AcDbEntity
  8
0
 62
7
100
AcDbPolyline
 90
2
 70
0
 10
1670.279088
 20
-2011.636203
 30
0.0
 10
1748.332021
 20
-1933.314112
 30
0.0
  0
SPLINE
  5
1e9
100
AcDbEntity
  8
0
 62
7
100
AcDbSpline
 70
8
 71
3
 72
8
 73
4
 74
0
 40
0
 40
0
 40
0
 40
0
 40
1
 40
1
 40
1
 40
1
 10
1670.279088
 20
-1222.978518
 30
0.0
 10
1669.287468
 20
-1221.967613
 30
0.0
 10
1667.927009
 20
-1221.404002
 30
0.0
 10
1666.511009
 20
-1221.417476
 30
0.0
  0
LWPOLYLINE
  5
1ea
100
AcDbEntity
  8
0
 62
7
100
AcDbPolyline
 90
2
 70
0
 10
1748.332021
 20
-1301.031478
 30
0.0
 10
1670.279088
 20
-1222.978518
 30
0.0
  0
SPLINE
  5
1eb
100
AcDbEntity
  8
0
 62
7
100
AcDbSpline
 70
8
 71
3
 72
8
 73
4
 74
0
 40
0
 40
0
 40
0
 40
0
 40
1
 40
1
 40
1
 40
1
 10
2499.685774
 20
-1221.417476
 30
0.0
 10
2498.325864
 20
-1221.446954
 30
0.0
 10
2497.031435
 20
-1222.007221
 30
0.0
 10
2496.079172
 20
-1222.978518
 30
0.0
  0
LWPOLYLINE
  5
1ec
100
AcDbEntity
  8
0
 62
7
100
AcDbPolyline
 90
1
 70
1
 10
1666.511009
 20
-1221.417476
 30
0.0
  0
SPLINE
  5
1ed
100
AcDbEntity
  8
0
 62
7
100
AcDbSpline
 70
8
 71
3
 72
8
 73
4
 74
0
 40
0
 40
0
 40
0
 40
0
 40
1
 40
1
 40
1
 40
1
 10
2418.026240
 20
-1301.031478
 30
0.0
 10
2417.061684
 20
-1302.005712
 30
0.0
 10
2416.520096
 20
-1303.320931
 30
0.0
 10
2416.518941
 20
-1304.691878
 30
0.0
  0
SPLINE
  5
1ee
100
AcDbEntity
  8
0
 62
7
100
AcDbSpline
 70
8
 71
3
 72
8
 73
4
 74
0
 40
0
 40
0
 40
0
 40
0
 40
1
 40
1
 40
1
 40
1
 10
2416.518941
 20
-1304.691878
 30
0.0
 10
2416.518941
 20
-1304.691878
 30
0.0
 10
2416.518941
 20
-1929.653712
 30
0.0
 10
2416.518941
 20
-1929.653712
 30
0.0
  0
SPLINE
  5
1ef
100
AcDbEntity
  8
0
 62
7
100
AcDbSpline
 70
8
 71
3
 72
8
 73
4
 74
0
 40
0
 40
0
 40
0
 40
0
 40
1
 40
1
 40
1
 40
1
 10
2416.518941
 20
-1929.653712
 30
0.0
 10
2416.520096
 20
-1931.024659
 30
0.0
 10
2417.061684
 20
-1932.339879
 30
0.0
 10
2418.026240
 20
-1933.314112
 30
0.0
  0
LWPOLYLINE
  5
1f0
100
AcDbEntity
  8
0
 62
7
100
AcDbPolyline
 90
2
 70
0
 10
2496.079172
 20
-1222.978518
 30
0.0
 10
2418.026240
 20
-1301.031478
 30
0.0
  0
SPLINE
  5
1f1
100
AcDbEntity
  8
0
 62
7
100
AcDbSpline
 70
8
 71
3
 72
8
 73
4
 74
0
 40
0
 40
0
 40
0
 40
0
 40
1
 40
1
 40
1
 40
1
 10
2496.079172
 20
-2011.636203
 30
0.0
 10
2497.056355
 20
-2012.615569
 30
0.0
 10
2498.383010
 20
-2013.165955
 30
0.0
 10
2499.766499
 20
-2013.165955
 30
0.0
  0
SPLINE
  5
1f2
100
AcDbEntity
  8
0
 62
7
100
AcDbSpline
 70
8
 71
3
 72
8
 73
4
 74
0
 40
0
 40
0
 40
0
 40
0
 40
1
 40
1
 40
1
 40
1
 10
2499.766499
 20
-2013.165955
 30
0.0
 10
2501.149989
 20
-2013.165955
 30
0.0
 10
2502.476644
 20
-2012.615569
 30
0.0
 10
2503.453826
 20
-2011.636203
 30
0.0
  0
LWPOLYLINE
  5
1f3
100
AcDbEntity
  8
0
 62
7
100
AcDbPolyline
 90
2
 70
0
 10
2418.026240
 20
-1933.314112
 30
0.0
 10
2496.079172
 20
-2011.636203
 30
0.0
  0
SPLINE
  5
1f4
100
AcDbEntity
  8
0
 62
7
100
AcDbSpline
 70
8
 71
3
 72
8
 73
4
 74
0
 40
0
 40
0
 40
0
 40
0
 40
1
 40
1
 40
1
 40
1
 10
2581.775917
 20
-1933.314112
 30
0.0
 10
2582.740473
 20
-1932.339879
 30
0.0
 10
2583.282060
 20
-1931.024659
 30
0.0
 10
2583.283215
 20
-1929.653712
 30
0.0
  0
SPLINE
  5
1f5
100
AcDbEntity
  8
0
 62
7
100
AcDbSpline
 70
8
 71
3
 72
8
 73
4
 74
0
 40
0
 40
0
 40
0
 40
0
 40
1
 40
1
 40
1
 40
1
 10
2583.283215
 20
-1929.653712
 30
0.0
 10
2583.283215
 20
-1929.653712
 30
0.0
 10
2583.283215
 20
-1304.691878
 30
0.0
 10
2583.283215
 20
-1304.691878
 30
0.0
  0
SPLINE
  5
1f6
100
AcDbEntity
  8
0
 62
7
100
AcDbSpline
 70
8
 71
3
 72
8
 73
4
 74
0
 40
0
 40
0
 40
0
 40
0
 40
1
 40
1
 40
1
 40
1
 10
2583.283215
 20
-1304.691878
 30
0.0
 10
2583.282060
 20
-1303.320931
 30
0.0
 10
2582.740473
 20
-1302.005712
 30
0.0
 10
2581.775917
 20
-1301.031478
 30
0.0
  0
LWPOLYLINE
  5
1f7
100
AcDbEntity
  8
0
 62
7
100
AcDbPolyline
 90
2
 70
0
 10
2503.453826
 20
-2011.636203
 30
0.0
 10
2581.775917
 20
-1933.314112
 30
0.0
  0
SPLINE
  5
1f8
100
AcDbEntity
  8
0
 62
7
100
AcDbSpline
 70
8
 71
3
 72
8
 73
4
 74
0
 40
0
 40
0
 40
0
 40
0
 40
1
 40
1
 40
1
 40
1
 10
2503.453826
 20
-1222.978518
 30
0.0
 10
2502.462212
 20
-1221.967620
 30
0.0
 10
2501.101765
 20
-1221.404009
 30
0.0
 10
2499.685774
 20
-1221.417476
 30
0.0
  0
LWPOLYLINE
  5
1f9
100
AcDbEntity
  8
0
 62
7
100
AcDbPolyline
 90
2
 70
0
 10
2581.775917
 20
-1301.031478
 30
0.0
 10
2503.453826
 20
-1222.978518
 30
0.0
  0
SPLINE
  5
1fa
100
AcDbEntity
  8
0
 62
7
100
AcDbSpline
 70
8
 71
3
 72
8
 73
4
 74
0
 40
0
 40
0
 40
0
 40
0
 40
1
 40
1
 40
1
 40
1
 10
2890.488671
 20
-1221.417476
 30
0.0
 10
2889.128762
 20
-1221.446954
 30
0.0
 10
2887.834332
 20
-1222.007221
 30
0.0
 10
2886.882070
 20
-1222.978518
 30
0.0
  0
SPLINE
  5
1fb
100
AcDbEntity
  8
0
 62
7
100
AcDbSpline
 70
8
 71
3
 72
8
 73
4
 74
0
 40
0
 40
0
 40
0
 40
0
 40
1
 40
1
 40
1
 40
1
 10
2886.882070
 20
-1222.978518
 30
0.0
 10
2886.882070
 20
-1222.978518
 30
0.0
 10
2808.829165
 20
-1301.031478
 30
0.0
 10
2808.829165
 20
-1301.031478
 30
0.0
  0
SPLINE
  5
1fc
100
AcDbEntity
  8
0
 62
7
100
AcDbSpline
 70
8
 71
3
 72
8
 73
4
 74
0
 40
0
 40
0
 40
0
 40
0
 40
1
 40
1
 40
1
 40
1
 10
2808.829165
 20
-1301.031478
 30
0.0
 10
2807.864508
 20
-1302.005667
 30
0.0
 10
2807.322819
 20
-1303.320892
 30
0.0
 10
2807.321591
 20
-1304.691878
 30
0.0
  0
SPLINE
  5
1fd
100
AcDbEntity
  8
0
 62
7
100
AcDbSpline
 70
8
 71
3
 72
8
 73
4
 74
0
 40
0
 40
0
 40
0
 40
0
 40
1
 40
1
 40
1
 40
1
 10
2807.321591
 20
-1304.691878
 30
0.0
 10
2807.321591
 20
-1304.691878
 30
0.0
 10
2807.321591
 20
-1929.653712
 30
0.0
 10
2807.321591
 20
-1929.653712
 30
0.0
  0
SPLINE
  5
1fe
100
AcDbEntity
  8
0
 62
7
100
AcDbSpline
 70
8
 71
3
 72
8
 73
4
 74
0
 40
0
 40
0
 40
0
 40
0
 40
1
 40
1
 40
1
 40
1
 10
2807.321591
 20
-1929.653712
 30
0.0
 10
2807.322819
 20
-1931.024699
 30
0.0
 10
2807.864508
 20
-1932.339923
 30
0.0
 10
2808.829165
 20
-1933.314112
 30
0.0
  0
LWPOLYLINE
  5
1ff
100
AcDbEntity
  8
0
 62
7
100
AcDbPolyline
 90
1
 70
1
 10
2499.685774
 20
-1221.417476
 30
0.0
  0
SPLINE
  5
200
100
AcDbEntity
  8
0
 62
7
100
AcDbSpline
 70
8
 71
3
 72
8
 73
4
 74
0
 40
0
 40
0
 40
0
 40
0
 40
1
 40
1
 40
1
 40
1
 10
2886.882070
 20
-2011.636203
 30
0.0
 10
2887.859254
 20
-2012.615586
 30
0.0
 10
2889.185921
 20
-2013.165983
 30
0.0
 10
2890.569424
 20
-2013.165983
 30
0.0
  0
SPLINE
  5
201
100
AcDbEntity
  8
0
 62
7
100
AcDbSpline
 70
8
 71
3
 72
8
 73
4
 74
0
 40
0
 40
0
 40
0
 40
0
 40
1
 40
1
 40
1
 40
1
 10
2890.569424
 20
-2013.165983
 30
0.0
 10
2891.952927
 20
-2013.165983
 30
0.0
 10
2893.279594
 20
-2012.615586
 30
0.0
 10
2894.256779
 20
-2011.636203
 30
0.0
  0
SPLINE
  5
202
100
AcDbEntity
  8
0
 62
7
100
AcDbSpline
 70
8
 71
3
 72
8
 73
4
 74
0
 40
0
 40
0
 40
0
 40
0
 40
1
 40
1
 40
1
 40
1
 10
2894.256779
 20
-2011.636203
 30
0.0
 10
2894.256779
 20
-2011.636203
 30
0.0
 10
2972.309684
 20
-1933.314112
 30
0.0
 10
2972.309684
 20
-1933.314112
 30
0.0
  0
SPLINE
  5
203
100
AcDbEntity
  8
0
 62
7
100
AcDbSpline
 70
8
 71
3
 72
8
 73
4
 74
0
 40
0
 40
0
 40
0
 40
0
 40
1
 40
1
 40
1
 40
1
 10
2972.309684
 20
-1933.314112
 30
0.0
 10
2973.274341
 20
-1932.339923
 30
0.0
 10
2973.816030
 20
-1931.024699
 30
0.0
 10
2973.817258
 20
-1929.653712
 30
0.0
  0
SPLINE
  5
204
100
AcDbEntity
  8
0
 62
7
100
AcDbSpline
 70
8
 71
3
 72
8
 73
4
 74
0
 40
0
 40
0
 40
0
 40
0
 40
1
 40
1
 40
1
 40
1
 10
2973.817258
 20
-1929.653712
 30
0.0
 10
2973.817258
 20
-1929.653712
 30
0.0
 10
2973.817258
 20
-1304.691878
 30
0.0
 10
2973.817258
 20
-1304.691878
 30
0.0
  0
SPLINE
  5
205
100
AcDbEntity
  8
0
 62
7
100
AcDbSpline
 70
8
 71
3
 72
8
 73
4
 74
0
 40
0
 40
0
 40
0
 40
0
 40
1
 40
1
 40
1
 40
1
 10
2973.817258
 20
-1304.691878
 30
0.0
 10
2973.816030
 20
-1303.320892
 30
0.0
 10
2973.274341
 20
-1302.005667
 30
0.0
 10
2972.309684
 20
-1301.031478
 30
0.0
  0
SPLINE
  5
206
100
AcDbEntity
  8
0
 62
7
100
AcDbSpline
 70
8
 71
3
 72
8
 73
4
 74
0
 40
0
 40
0
 40
0
 40
0
 40
1
 40
1
 40
1
 40
1
 10
2972.309684
 20
-1301.031478
 30
0.0
 10
2972.309684
 20
-1301.031478
 30
0.0
 10
2894.256779
 20
-1222.978518
 30
0.0
 10
2894.256779
 20
-1222.978518
 30
0.0
  0
SPLINE
  5
207
100
AcDbEntity
  8
0
 62
7
100
AcDbSpline
 70
8
 71
3
 72
8
 73
4
 74
0
 40
0
 40
0
 40
0
 40
0
 40
1
 40
1
 40
1
 40
1
 10
2894.256779
 20
-1222.978518
 30
0.0
 10
2893.265152
 20
-1221.967606
 30
0.0
 10
2891.904682
 20
-1221.403994
 30
0.0
 10
2890.488671
 20
-1221.417476
 30
0.0
  0
LWPOLYLINE
  5
208
100
AcDbEntity
  8
0
 62
7
100
AcDbPolyline
 90
2
 70
0
 10
2808.829165
 20
-1933.314112
 30
0.0
 10
2886.882070
 20
-2011.636203
 30
0.0
  0
SPLINE
  5
209
100
AcDbEntity
  8
0
 62
7
100
AcDbSpline
 70
8
 71
3
 72
8
 73
4
 74
0
 40
0
 40
0
 40
0
 40
0
 40
1
 40
1
 40
1
 40
1
 10
3723.663464
 20
-1221.417476
 30
0.0
 10
3722.303555
 20
-1221.446954
 30
0.0
 10
3721.009125
 20
-1222.007221
 30
0.0
 10
3720.056863
 20
-1222.978518
 30
0.0
  0
SPLINE
  5
20a
100
AcDbEntity
  8
0
 62
7
100
AcDbSpline
 70
8
 71
3
 72
8
 73
4
 74
0
 40
0
 40
0
 40
0
 40
0
 40
1
 40
1
 40
1
 40
1
 10
3720.056863
 20
-1222.978518
 30
0.0
 10
3720.056863
 20
-1222.978518
 30
0.0
 10
3642.003957
 20
-1301.031478
 30
0.0
 10
3642.003957
 20
-1301.031478
 30
0.0
  0
SPLINE
  5
20b
100
AcDbEntity
  8
0
 62
7
100
AcDbSpline
 70
8
 71
3
 72
8
 73
4
 74
0
 40
0
 40
0
 40
0
 40
0
 40
1
 40
1
 40
1
 40
1
 10
3642.003957
 20
-1301.031478
 30
0.0
 10
3641.039301
 20
-1302.005667
 30
0.0
 10
3640.497612
 20
-1303.320892
 30
0.0
 10
3640.496384
 20
-1304.691878
 30
0.0
  0
LWPOLYLINE
  5
20c
100
AcDbEntity
  8
0
 62
7
100
AcDbPolyline
 90
1
 70
1
 10
2890.488671
 20
-1221.417476
 30
0.0
  0
SPLINE
  5
20d
100
AcDbEntity
  8
0
 62
7
100
AcDbSpline
 70
8
 71
3
 72
8
 73
4
 74
0
 40
0
 40
0
 40
0
 40
0
 40
1
 40
1
 40
1
 40
1
 10
3640.496384
 20
-1929.653712
 30
0.0
 10
3640.497612
 20
-1931.024699
 30
0.0
 10
3641.039301
 20
-1932.339923
 30
0.0
 10
3642.003957
 20
-1933.314112
 30
0.0
  0
LWPOLYLINE
  5
20e
100
AcDbEntity
  8
0
 62
7
100
AcDbPolyline
 90
2
 70
0
 10
3640.496384
 20
-1304.691878
 30
0.0
 10
3640.496384
 20
-1929.653712
 30
0.0
  0
SPLINE
  5
20f
100
AcDbEntity
  8
0
 62
7
100
AcDbSpline
 70
8
 71
3
 72
8
 73
4
 74
0
 40
0
 40
0
 40
0
 40
0
 40
1
 40
1
 40
1
 40
1
 10
3720.056863
 20
-2011.636203
 30
0.0
 10
3721.034047
 20
-2012.615586
 30
0.0
 10
3722.360714
 20
-2013.165983
 30
0.0
 10
3723.744217
 20
-2013.165983
 30
0.0
  0
SPLINE
  5
210
100
AcDbEntity
  8
0
 62
7
100
AcDbSpline
 70
8
 71
3
 72
8
 73
4
 74
0
 40
0
 40
0
 40
0
 40
0
 40
1
 40
1
 40
1
 40
1
 10
3723.744217
 20
-2013.165983
 30
0.0
 10
3725.127720
 20
-2013.165983
 30
0.0
 10
3726.454387
 20
-2012.615586
 30
0.0
 10
3727.431571
 20
-2011.636203
 30
0.0
  0
LWPOLYLINE
  5
211
100
AcDbEntity
  8
0
 62
7
100
AcDbPolyline
 90
2
 70
0
 10
3642.003957
 20
-1933.314112
 30
0.0
 10
3720.056863
 20
-2011.636203
 30
0.0
  0
SPLINE
  5
212
100
AcDbEntity
  8
0
 62
7
100
AcDbSpline
 70
8
 71
3
 72
8
 73
4
 74
0
 40
0
 40
0
 40
0
 40
0
 40
1
 40
1
 40
1
 40
1
 10
3805.753745
 20
-1933.314112
 30
0.0
 10
3806.718402
 20
-1932.339923
 30
0.0
 10
3807.260091
 20
-1931.024699
 30
0.0
 10
3807.261319
 20
-1929.653712
 30
0.0
  0
LWPOLYLINE
  5
213
100
AcDbEntity
  8
0
 62
7
100
AcDbPolyline
 90
2
 70
0
 10
3727.431571
 20
-2011.636203
 30
0.0
 10
3805.753745
 20
-1933.314112
 30
0.0
  0
SPLINE
  5
214
100
AcDbEntity
  8
0
 62
7
100
AcDbSpline
 70
8
 71
3
 72
8
 73
4
 74
0
 40
0
 40
0
 40
0
 40
0
 40
1
 40
1
 40
1
 40
1
 10
3807.261319
 20
-1304.691878
 30
0.0
 10
3807.260091
 20
-1303.320892
 30
0.0
 10
3806.718402
 20
-1302.005667
 30
0.0
 10
3805.753745
 20
-1301.031478
 30
0.0
  0
SPLINE
  5
215
100
AcDbEntity
  8
0
 62
7
100
AcDbSpline
 70
8
 71
3
 72
8
 73
4
 74
0
 40
0
 40
0
 40
0
 40
0
 40
1
 40
1
 40
1
 40
1
 10
3805.753745
 20
-1301.031478
 30
0.0
 10
3805.753745
 20
-1301.031478
 30
0.0
 10
3727.431571
 20
-1222.978518
 30
0.0
 10
3727.431571
 20
-1222.978518
 30
0.0
  0
SPLINE
  5
216
100
AcDbEntity
  8
0
 62
7
100
AcDbSpline
 70
8
 71
3
 72
8
 73
4
 74
0
 40
0
 40
0
 40
0
 40
0
 40
1
 40
1
 40
1
 40
1
 10
3727.431571
 20
-1222.978518
 30
0.0
 10
3726.439944
 20
-1221.967606
 30
0.0
 10
3725.079474
 20
-1221.403994
 30
0.0
 10
3723.663464
 20
-1221.417476
 30
0.0
  0
LWPOLYLINE
  5
217
100
AcDbEntity
  8
0
 62
7
100
AcDbPolyline
 90
2
 70
0
 10
3807.261319
 20
-1929.653712
 30
0.0
 10
3807.261319
 20
-1304.691878
 30
0.0
  0
SPLINE
  5
218
100
AcDbEntity
  8
0
 62
7
100
AcDbSpline
 70
8
 71
3
 72
8
 73
4
 74
0
 40
0
 40
0
 40
0
 40
0
 40
1
 40
1
 40
1
 40
1
 10
546.370584
 20
-1950.647241
 30
0.0
 10
545.169246
 20
-1950.766451
 30
0.0
 10
544.046617
 20
-1951.299246
 30
0.0
 10
543.194620
 20
-1952.154539
 30
0.0
  0
SPLINE
  5
219
100
AcDbEntity
  8
0
 62
7
100
AcDbSpline
 70
8
 71
3
 72
8
 73
4
 74
0
 40
0
 40
0
 40
0
 40
0
 40
1
 40
1
 40
1
 40
1
 10
543.194620
 20
-1952.154539
 30
0.0
 10
543.194620
 20
-1952.154539
 30
0.0
 10
464.926382
 20
-2030.207471
 30
0.0
 10
464.926382
 20
-2030.207471
 30
0.0
  0
SPLINE
  5
21a
100
AcDbEntity
  8
0
 62
7
100
AcDbSpline
 70
8
 71
3
 72
8
 73
4
 74
0
 40
0
 40
0
 40
0
 40
0
 40
1
 40
1
 40
1
 40
1
 10
464.926382
 20
-2030.207471
 30
0.0
 10
463.947016
 20
-2031.184654
 30
0.0
 10
463.396630
 20
-2032.511309
 30
0.0
 10
463.396630
 20
-2033.894798
 30
0.0
  0
SPLINE
  5
21b
100
AcDbEntity
  8
0
 62
7
100
AcDbSpline
 70
8
 71
3
 72
8
 73
4
 74
0
 40
0
 40
0
 40
0
 40
0
 40
1
 40
1
 40
1
 40
1
 10
463.396630
 20
-2033.894798
 30
0.0
 10
463.396630
 20
-2035.278288
 30
0.0
 10
463.947016
 20
-2036.604943
 30
0.0
 10
464.926382
 20
-2037.582125
 30
0.0
  0
SPLINE
  5
21c
100
AcDbEntity
  8
0
 62
7
100
AcDbSpline
 70
8
 71
3
 72
8
 73
4
 74
0
 40
0
 40
0
 40
0
 40
0
 40
1
 40
1
 40
1
 40
1
 10
464.926382
 20
-2037.582125
 30
0.0
 10
464.926382
 20
-2037.582125
 30
0.0
 10
543.194620
 20
-2115.635058
 30
0.0
 10
543.194620
 20
-2115.635058
 30
0.0
  0
SPLINE
  5
21d
100
AcDbEntity
  8
0
 62
7
100
AcDbSpline
 70
8
 71
3
 72
8
 73
4
 74
0
 40
0
 40
0
 40
0
 40
0
 40
1
 40
1
 40
1
 40
1
 10
543.194620
 20
-2115.635058
 30
0.0
 10
544.182075
 20
-2116.612828
 30
0.0
 10
545.519294
 20
-2117.155490
 30
0.0
 10
546.908873
 20
-2117.142356
 30
0.0
  0
LWPOLYLINE
  5
21e
100
AcDbEntity
  8
0
 62
7
100
AcDbPolyline
 90
1
 70
1
 10
3723.663464
 20
-1221.417476
 30
0.0
  0
SPLINE
  5
21f
100
AcDbEntity
  8
0
 62
7
100
AcDbSpline
 70
8
 71
3
 72
8
 73
4
 74
0
 40
0
 40
0
 40
0
 40
0
 40
1
 40
1
 40
1
 40
1
 10
1171.816853
 20
-2117.142356
 30
0.0
 10
1173.206433
 20
-2117.155490
 30
0.0
 10
1174.543651
 20
-2116.612828
 30
0.0
 10
1175.531107
 20
-2115.635058
 30
0.0
  0
LWPOLYLINE
  5
220
100
AcDbEntity
  8
0
 62
7
100
AcDbPolyline
 90
2
 70
0
 10
546.908873
 20
-2117.142356
 30
0.0
 10
1171.816853
 20
-2117.142356
 30
0.0
  0
SPLINE
  5
221
100
AcDbEntity
  8
0
 62
7
100
AcDbSpline
 70
8
 71
3
 72
8
 73
4
 74
0
 40
0
 40
0
 40
0
 40
0
 40
1
 40
1
 40
1
 40
1
 10
1253.584040
 20
-2037.582125
 30
0.0
 10
1254.563406
 20
-2036.604943
 30
0.0
 10
1255.113792
 20
-2035.278288
 30
0.0
 10
1255.113792
 20
-2033.894798
 30
0.0
  0
SPLINE
  5
222
100
AcDbEntity
  8
0
 62
7
100
AcDbSpline
 70
8
 71
3
 72
8
 73
4
 74
0
 40
0
 40
0
 40
0
 40
0
 40
1
 40
1
 40
1
 40
1
 10
1255.113792
 20
-2033.894798
 30
0.0
 10
1255.113792
 20
-2032.511309
 30
0.0
 10
1254.563406
 20
-2031.184654
 30
0.0
 10
1253.584040
 20
-2030.207471
 30
0.0
  0
LWPOLYLINE
  5
223
100
AcDbEntity
  8
0
 62
7
100
AcDbPolyline
 90
2
 70
0
 10
1175.531107
 20
-2115.635058
 30
0.0
 10
1253.584040
 20
-2037.582125
 30
0.0
  0
SPLINE
  5
224
100
AcDbEntity
  8
0
 62
7
100
AcDbSpline
 70
8
 71
3
 72
8
 73
4
 74
0
 40
0
 40
0
 40
0
 40
0
 40
1
 40
1
 40
1
 40
1
 10
1175.531107
 20
-1952.154539
 30
0.0
 10
1174.543651
 20
-1951.176769
 30
0.0
 10
1173.206433
 20
-1950.634106
 30
0.0
 10
1171.816853
 20
-1950.647241
 30
0.0
  0
LWPOLYLINE
  5
225
100
AcDbEntity
  8
0
 62
7
100
AcDbPolyline
 90
2
 70
0
 10
1253.584040
 20
-2030.207471
 30
0.0
 10
1175.531107
 20
-1952.154539
 30
0.0
  0
SPLINE
  5
226
100
AcDbEntity
  8
0
 62
7
100
AcDbSpline
 70
8
 71
3
 72
8
 73
4
 74
0
 40
0
 40
0
 40
0
 40
0
 40
1
 40
1
 40
1
 40
1
 10
546.908873
 20
-1950.647241
 30
0.0
 10
546.729573
 20
-1950.637964
 30
0.0
 10
546.549912
 20
-1950.637964
 30
0.0
 10
546.370612
 20
-1950.647241
 30
0.0
  0
LWPOLYLINE
  5
227
100
AcDbEntity
  8
0
 62
7
100
AcDbPolyline
 90
2
 70
0
 10
1171.816853
 20
-1950.647241
 30
0.0
 10
546.908873
 20
-1950.647241
 30
0.0
  0
SPLINE
  5
228
100
AcDbEntity
  8
0
 62
7
100
AcDbSpline
 70
8
 71
3
 72
8
 73
4
 74
0
 40
0
 40
0
 40
0
 40
0
 40
1
 40
1
 40
1
 40
1
 10
1770.348330
 20
-1950.647241
 30
0.0
 10
1769.147001
 20
-1950.766457
 30
0.0
 10
1768.024383
 20
-1951.299252
 30
0.0
 10
1767.172393
 20
-1952.154539
 30
0.0
  0
SPLINE
  5
229
100
AcDbEntity
  8
0
 62
7
100
AcDbSpline
 70
8
 71
3
 72
8
 73
4
 74
0
 40
0
 40
0
 40
0
 40
0
 40
1
 40
1
 40
1
 40
1
 10
1767.172393
 20
-1952.154539
 30
0.0
 10
1767.172393
 20
-1952.154539
 30
0.0
 10
1688.850302
 20
-2030.207471
 30
0.0
 10
1688.850302
 20
-2030.207471
 30
0.0
  0
SPLINE
  5
22a
100
AcDbEntity
  8
0
 62
7
100
AcDbSpline
 70
8
 71
3
 72
8
 73
4
 74
0
 40
0
 40
0
 40
0
 40
0
 40
1
 40
1
 40
1
 40
1
 10
1688.850302
 20
-2030.207471
 30
0.0
 10
1687.870935
 20
-2031.184654
 30
0.0
 10
1687.320549
 20
-2032.511309
 30
0.0
 10
1687.320549
 20
-2033.894798
 30
0.0
  0
SPLINE
  5
22b
100
AcDbEntity
  8
0
 62
7
100
AcDbSpline
 70
8
 71
3
 72
8
 73
4
 74
0
 40
0
 40
0
 40
0
 40
0
 40
1
 40
1
 40
1
 40
1
 10
1687.320549
 20
-2033.894798
 30
0.0
 10
1687.320549
 20
-2035.278288
 30
0.0
 10
1687.870935
 20
-2036.604943
 30
0.0
 10
1688.850302
 20
-2037.582125
 30
0.0
  0
LWPOLYLINE
  5
22c
100
AcDbEntity
  8
0
 62
7
100
AcDbPolyline
 90
1
 70
1
 10
546.370612
 20
-1950.647241
 30
0.0
  0
SPLINE
  5
22d
100
AcDbEntity
  8
0
 62
7
100
AcDbSpline
 70
8
 71
3
 72
8
 73
4
 74
0
 40
0
 40
0
 40
0
 40
0
 40
1
 40
1
 40
1
 40
1
 10
1767.172393
 20
-2115.635058
 30
0.0
 10
1768.146626
 20
-2116.599613
 30
0.0
 10
1769.461845
 20
-2117.141201
 30
0.0
 10
1770.832793
 20
-2117.142356
 30
0.0
  0
LWPOLYLINE
  5
22e
100
AcDbEntity
  8
0
 62
7
100
AcDbPolyline
 90
2
 70
0
 10
1688.850302
 20
-2037.582125
 30
0.0
 10
1767.172393
 20
-2115.635058
 30
0.0
  0
SPLINE
  5
22f
100
AcDbEntity
  8
0
 62
7
100
AcDbSpline
 70
8
 71
3
 72
8
 73
4
 74
0
 40
0
 40
0
 40
0
 40
0
 40
1
 40
1
 40
1
 40
1
 10
2395.794599
 20
-2117.142356
 30
0.0
 10
2397.184178
 20
-2117.155490
 30
0.0
 10
2398.521397
 20
-2116.612828
 30
0.0
 10
2399.508853
 20
-2115.635058
 30
0.0
  0
LWPOLYLINE
  5
230
100
AcDbEntity
  8
0
 62
7
100
AcDbPolyline
 90
2
 70
0
 10
1770.832793
 20
-2117.142356
 30
0.0
 10
2395.794599
 20
-2117.142356
 30
0.0
  0
SPLINE
  5
231
100
AcDbEntity
  8
0
 62
7
100
AcDbSpline
 70
8
 71
3
 72
8
 73
4
 74
0
 40
0
 40
0
 40
0
 40
0
 40
1
 40
1
 40
1
 40
1
 10
2477.561785
 20
-2037.582125
 30
0.0
 10
2478.541151
 20
-2036.604943
 30
0.0
 10
2479.091538
 20
-2035.278288
 30
0.0
 10
2479.091538
 20
-2033.894798
 30
0.0
  0
SPLINE
  5
232
100
AcDbEntity
  8
0
 62
7
100
AcDbSpline
 70
8
 71
3
 72
8
 73
4
 74
0
 40
0
 40
0
 40
0
 40
0
 40
1
 40
1
 40
1
 40
1
 10
2479.091538
 20
-2033.894798
 30
0.0
 10
2479.091538
 20
-2032.511309
 30
0.0
 10
2478.541151
 20
-2031.184654
 30
0.0
 10
2477.561785
 20
-2030.207471
 30
0.0
  0
LWPOLYLINE
  5
233
100
AcDbEntity
  8
0
 62
7
100
AcDbPolyline
 90
2
 70
0
 10
2399.508853
 20
-2115.635058
 30
0.0
 10
2477.561785
 20
-2037.582125
 30
0.0
  0
SPLINE
  5
234
100
AcDbEntity
  8
0
 62
7
100
AcDbSpline
 70
8
 71
3
 72
8
 73
4
 74
0
 40
0
 40
0
 40
0
 40
0
 40
1
 40
1
 40
1
 40
1
 10
2399.508853
 20
-1952.154483
 30
0.0
 10
2398.521397
 20
-1951.176714
 30
0.0
 10
2397.184178
 20
-1950.634051
 30
0.0
 10
2395.794599
 20
-1950.647185
 30
0.0
  0
LWPOLYLINE
  5
235
100
AcDbEntity
  8
0
 62
7
100
AcDbPolyline
 90
2
 70
0
 10
2477.561785
 20
-2030.207471
 30
0.0
 10
2399.508853
 20
-1952.154483
 30
0.0
  0
SPLINE
  5
236
100
AcDbEntity
  8
0
 62
7
100
AcDbSpline
 70
8
 71
3
 72
8
 73
4
 74
0
 40
0
 40
0
 40
0
 40
0
 40
1
 40
1
 40
1
 40
1
 10
1770.832793
 20
-1950.647185
 30
0.0
 10
1770.671374
 20
-1950.639670
 30
0.0
 10
1770.509693
 20
-1950.639670
 30
0.0
 10
1770.348275
 20
-1950.647185
 30
0.0
  0
LWPOLYLINE
  5
237
100
AcDbEntity
  8
0
 62
7
100
AcDbPolyline
 90
2
 70
0
 10
2395.794599
 20
-1950.647185
 30
0.0
 10
1770.832793
 20
-1950.647185
 30
0.0
  0
SPLINE
  5
238
100
AcDbEntity
  8
0
 62
7
100
AcDbSpline
 70
8
 71
3
 72
8
 73
4
 74
0
 40
0
 40
0
 40
0
 40
0
 40
1
 40
1
 40
1
 40
1
 10
2994.272304
 20
-1950.647241
 30
0.0
 10
2993.090030
 20
-1950.778444
 30
0.0
 10
2991.988278
 20
-1951.310354
 30
0.0
 10
2991.150221
 20
-1952.154539
 30
0.0
  0
LWPOLYLINE
  5
239
100
AcDbEntity
  8
0
 62
7
100
AcDbPolyline
 90
1
 70
1
 10
1770.348275
 20
-1950.647185
 30
0.0
  0
SPLINE
  5
23a
100
AcDbEntity
  8
0
 62
7
100
AcDbSpline
 70
8
 71
3
 72
8
 73
4
 74
0
 40
0
 40
0
 40
0
 40
0
 40
1
 40
1
 40
1
 40
1
 10
2912.828047
 20
-2030.207471
 30
0.0
 10
2911.848681
 20
-2031.184654
 30
0.0
 10
2911.298295
 20
-2032.511309
 30
0.0
 10
2911.298295
 20
-2033.894798
 30
0.0
  0
SPLINE
  5
23b
100
AcDbEntity
  8
0
 62
7
100
AcDbSpline
 70
8
 71
3
 72
8
 73
4
 74
0
 40
0
 40
0
 40
0
 40
0
 40
1
 40
1
 40
1
 40
1
 10
2911.298295
 20
-2033.894798
 30
0.0
 10
2911.298295
 20
-2035.278288
 30
0.0
 10
2911.848681
 20
-2036.604943
 30
0.0
 10
2912.828047
 20
-2037.582125
 30
0.0
  0
LWPOLYLINE
  5
23c
100
AcDbEntity
  8
0
 62
7
100
AcDbPolyline
 90
2
 70
0
 10
2991.150221
 20
-1952.154539
 30
0.0
 10
2912.828047
 20
-2030.207471
 30
0.0
  0
SPLINE
  5
23d
100
AcDbEntity
  8
0
 62
7
100
AcDbSpline
 70
8
 71
3
 72
8
 73
4
 74
0
 40
0
 40
0
 40
0
 40
0
 40
1
 40
1
 40
1
 40
1
 10
2991.150221
 20
-2115.635058
 30
0.0
 10
2992.124441
 20
-2116.599600
 30
0.0
 10
2993.439637
 20
-2117.141187
 30
0.0
 10
2994.810566
 20
-2117.142356
 30
0.0
  0
LWPOLYLINE
  5
23e
100
AcDbEntity
  8
0
 62
7
100
AcDbPolyline
 90
2
 70
0
 10
2912.828047
 20
-2037.582125
 30
0.0
 10
2991.150221
 20
-2115.635058
 30
0.0
  0
SPLINE
  5
23f
100
AcDbEntity
  8
0
 62
7
100
AcDbSpline
 70
8
 71
3
 72
8
 73
4
 74
0
 40
0
 40
0
 40
0
 40
0
 40
1
 40
1
 40
1
 40
1
 10
3619.772344
 20
-2117.142356
 30
0.0
 10
3621.143273
 20
-2117.141187
 30
0.0
 10
3622.458469
 20
-2116.599600
 30
0.0
 10
3623.432689
 20
-2115.635058
 30
0.0
  0
LWPOLYLINE
  5
240
100
AcDbEntity
  8
0
 62
7
100
AcDbPolyline
 90
2
 70
0
 10
2994.810566
 20
-2117.142356
 30
0.0
 10
3619.772344
 20
-2117.142356
 30
0.0
  0
SPLINE
  5
241
100
AcDbEntity
  8
0
 62
7
100
AcDbSpline
 70
8
 71
3
 72
8
 73
4
 74
0
 40
0
 40
0
 40
0
 40
0
 40
1
 40
1
 40
1
 40
1
 10
3701.485594
 20
-2037.582125
 30
0.0
 10
3702.464960
 20
-2036.604943
 30
0.0
 10
3703.015347
 20
-2035.278288
 30
0.0
 10
3703.015347
 20
-2033.894798
 30
0.0
  0
SPLINE
  5
242
100
AcDbEntity
  8
0
 62
7
100
AcDbSpline
 70
8
 71
3
 72
8
 73
4
 74
0
 40
0
 40
0
 40
0
 40
0
 40
1
 40
1
 40
1
 40
1
 10
3703.015347
 20
-2033.894798
 30
0.0
 10
3703.015347
 20
-2032.511309
 30
0.0
 10
3702.464960
 20
-2031.184654
 30
0.0
 10
3701.485594
 20
-2030.207471
 30
0.0
  0
SPLINE
  5
243
100
AcDbEntity
  8
0
 62
7
100
AcDbSpline
 70
8
 71
3
 72
8
 73
4
 74
0
 40
0
 40
0
 40
0
 40
0
 40
1
 40
1
 40
1
 40
1
 10
3701.485594
 20
-2030.207471
 30
0.0
 10
3701.485594
 20
-2030.207471
 30
0.0
 10
3623.432689
 20
-1952.154539
 30
0.0
 10
3623.432689
 20
-1952.154539
 30
0.0
  0
SPLINE
  5
244
100
AcDbEntity
  8
0
 62
7
100
AcDbSpline
 70
8
 71
3
 72
8
 73
4
 74
0
 40
0
 40
0
 40
0
 40
0
 40
1
 40
1
 40
1
 40
1
 10
3623.432689
 20
-1952.154539
 30
0.0
 10
3622.458469
 20
-1951.189996
 30
0.0
 10
3621.143273
 20
-1950.648410
 30
0.0
 10
3619.772344
 20
-1950.647241
 30
0.0
  0
LWPOLYLINE
  5
245
100
AcDbEntity
  8
0
 62
7
100
AcDbPolyline
 90
2
 70
0
 10
3623.432689
 20
-2115.635058
 30
0.0
 10
3701.485594
 20
-2037.582125
 30
0.0
  0
SPLINE
  5
246
100
AcDbEntity
  8
0
 62
7
100
AcDbSpline
 70
8
 71
3
 72
8
 73
4
 74
0
 40
0
 40
0
 40
0
 40
0
 40
1
 40
1
 40
1
 40
1
 10
2994.810566
 20
-1950.647241
 30
0.0
 10
2994.631540
 20
-1950.637993
 30
0.0
 10
2994.452156
 20
-1950.637993
 30
0.0
 10
2994.273131
 20
-1950.647241
 30
0.0
  0
LWPOLYLINE
  5
247
100
AcDbEntity
  8
0
 62
7
100
AcDbPolyline
 90
2
 70
0
 10
3619.772344
 20
-1950.647241
 30
0.0
 10
2994.810566
 20
-1950.647241
 30
0.0
  0
SPLINE
  5
248
100
AcDbEntity
  8
0
 62
7
100
AcDbSpline
 70
8
 71
3
 72
8
 73
4
 74
0
 40
0
 40
0
 40
0
 40
0
 40
1
 40
1
 40
1
 40
1
 10
286.499028
 20
-549.629164
 30
0.0
 10
286.499030
 20
-577.255896
 30
0.0
 10
275.524355
 20
-603.751111
 30
0.0
 10
255.989306
 20
-623.286162
 30
0.0
  0
SPLINE
  5
249
100
AcDbEntity
  8
0
 62
7
100
AcDbSpline
 70
8
 71
3
 72
8
 73
4
 74
0
 40
0
 40
0
 40
0
 40
0
 40
1
 40
1
 40
1
 40
1
 10
255.989306
 20
-623.286162
 30
0.0
 10
236.454257
 20
-642.821212
 30
0.0
 10
209.959044
 20
-653.795890
 30
0.0
 10
182.332312
 20
-653.795891
 30
0.0
  0
SPLINE
  5
24a
100
AcDbEntity
  8
0
 62
7
100
AcDbSpline
 70
8
 71
3
 72
8
 73
4
 74
0
 40
0
 40
0
 40
0
 40
0
 40
1
 40
1
 40
1
 40
1
 10
182.332312
 20
-653.795891
 30
0.0
 10
154.705578
 20
-653.795892
 30
0.0
 10
128.210364
 20
-642.821215
 30
0.0
 10
108.675314
 20
-623.286163
 30
0.0
  0
SPLINE
  5
24b
100
AcDbEntity
  8
0
 62
7
100
AcDbSpline
 70
8
 71
3
 72
8
 73
4
 74
0
 40
0
 40
0
 40
0
 40
0
 40
1
 40
1
 40
1
 40
1
 10
108.675314
 20
-623.286163
 30
0.0
 10
89.140264
 20
-603.751112
 30
0.0
 10
78.165588
 20
-577.255897
 30
0.0
 10
78.165590
 20
-549.629164
 30
0.0
  0
SPLINE
  5
24c
100
AcDbEntity
  8
0
 62
7
100
AcDbSpline
 70
8
 71
3
 72
8
 73
4
 74
0
 40
0
 40
0
 40
0
 40
0
 40
1
 40
1
 40
1
 40
1
 10
78.165590
 20
-549.629164
 30
0.0
 10
78.165601
 20
-492.099480
 30
0.0
 10
124.802628
 20
-445.462463
 30
0.0
 10
182.332312
 20
-445.462464
 30
0.0
  0
SPLINE
  5
24d
100
AcDbEntity
  8
0
 62
7
100
AcDbSpline
 70
8
 71
3
 72
8
 73
4
 74
0
 40
0
 40
0
 40
0
 40
0
 40
1
 40
1
 40
1
 40
1
 10
182.332312
 20
-445.462464
 30
0.0
 10
239.861994
 20
-445.462466
 30
0.0
 10
286.499017
 20
-492.099482
 30
0.0
 10
286.499028
 20
-549.629164
 30
0.0
  0
LWPOLYLINE
  5
24e
100
AcDbEntity
  8
0
 62
7
100
AcDbPolyline
 90
2
 70
0
 10
2994.273131
 20
-1950.647241
 30
0.0
 10
2994.272304
 20
-1950.647241
 30
0.0
  0
SPLINE
  5
24f
100
AcDbEntity
  8
0
 62
7
100
AcDbSpline
 70
8
 71
3
 72
8
 73
4
 74
0
 40
0
 40
0
 40
0
 40
0
 40
1
 40
1
 40
1
 40
1
 10
4095.252817
 20
-886.789365
 30
0.0
 10
4092.303301
 20
-886.876831
 30
0.0
 10
4089.654667
 20
-888.618518
 30
0.0
 10
4088.405622
 20
-891.291939
 30
0.0
  0
LWPOLYLINE
  5
250
100
AcDbEntity
  8
0
 62
7
100
AcDbPolyline
 90
1
 70
1
 10
286.499028
 20
-549.629164
 30
0.0
  0
SPLINE
  5
251
100
AcDbEntity
  8
0
 62
7
100
AcDbSpline
 70
8
 71
3
 72
8
 73
4
 74
0
 40
0
 40
0
 40
0
 40
0
 40
1
 40
1
 40
1
 40
1
 10
4067.704182
 20
-935.652529
 30
0.0
 10
4067.704182
 20
-935.652529
 30
0.0
 10
4047.002742
 20
-891.291939
 30
0.0
 10
4047.002742
 20
-891.291939
 30
0.0
  0
SPLINE
  5
252
100
AcDbEntity
  8
0
 62
7
100
AcDbSpline
 70
8
 71
3
 72
8
 73
4
 74
0
 40
0
 40
0
 40
0
 40
0
 40
1
 40
1
 40
1
 40
1
 10
4047.002742
 20
-891.291939
 30
0.0
 10
4045.452824
 20
-887.974241
 30
0.0
 10
4041.806663
 20
-886.178062
 30
0.0
 10
4038.231692
 20
-886.971126
 30
0.0
  0
SPLINE
  5
253
100
AcDbEntity
  8
0
 62
7
100
AcDbSpline
 70
8
 71
3
 72
8
 73
4
 74
0
 40
0
 40
0
 40
0
 40
0
 40
1
 40
1
 40
1
 40
1
 10
4038.231692
 20
-886.971126
 30
0.0
 10
4034.656722
 20
-887.764191
 30
0.0
 10
4032.112142
 20
-890.933713
 30
0.0
 10
4032.110560
 20
-894.595593
 30
0.0
  0
SPLINE
  5
254
100
AcDbEntity
  8
0
 62
7
100
AcDbSpline
 70
8
 71
3
 72
8
 73
4
 74
0
 40
0
 40
0
 40
0
 40
0
 40
1
 40
1
 40
1
 40
1
 10
4032.110560
 20
-894.595593
 30
0.0
 10
4032.110560
 20
-894.595593
 30
0.0
 10
4032.110560
 20
-977.939337
 30
0.0
 10
4032.110560
 20
-977.939337
 30
0.0
  0
SPLINE
  5
255
100
AcDbEntity
  8
0
 62
7
100
AcDbSpline
 70
8
 71
3
 72
8
 73
4
 74
0
 40
0
 40
0
 40
0
 40
0
 40
1
 40
1
 40
1
 40
1
 10
4032.110560
 20
-977.939337
 30
0.0
 10
4032.067642
 20
-980.758771
 30
0.0
 10
4033.547214
 20
-983.382598
 30
0.0
 10
4035.982013
 20
-984.804850
 30
0.0
  0
SPLINE
  5
256
100
AcDbEntity
  8
0
 62
7
100
AcDbSpline
 70
8
 71
3
 72
8
 73
4
 74
0
 40
0
 40
0
 40
0
 40
0
 40
1
 40
1
 40
1
 40
1
 10
4035.982013
 20
-984.804850
 30
0.0
 10
4038.416813
 20
-986.227102
 30
0.0
 10
4041.429054
 20
-986.227102
 30
0.0
 10
4043.863854
 20
-984.804850
 30
0.0
  0
SPLINE
  5
257
100
AcDbEntity
  8
0
 62
7
100
AcDbSpline
 70
8
 71
3
 72
8
 73
4
 74
0
 40
0
 40
0
 40
0
 40
0
 40
1
 40
1
 40
1
 40
1
 10
4043.863854
 20
-984.804850
 30
0.0
 10
4046.298654
 20
-983.382598
 30
0.0
 10
4047.778226
 20
-980.758771
 30
0.0
 10
4047.735307
 20
-977.939337
 30
0.0
  0
LWPOLYLINE
  5
258
100
AcDbEntity
  8
0
 62
7
100
AcDbPolyline
 90
2
 70
0
 10
4088.405622
 20
-891.291939
 30
0.0
 10
4067.704182
 20
-935.652529
 30
0.0
  0
SPLINE
  5
259
100
AcDbEntity
  8
0
 62
7
100
AcDbSpline
 70
8
 71
3
 72
8
 73
4
 74
0
 40
0
 40
0
 40
0
 40
0
 40
1
 40
1
 40
1
 40
1
 10
4047.735307
 20
-929.811026
 30
0.0
 10
4047.735307
 20
-929.811026
 30
0.0
 10
4060.624373
 20
-957.430520
 30
0.0
 10
4060.624373
 20
-957.430520
 30
0.0
  0
SPLINE
  5
25a
100
AcDbEntity
  8
0
 62
7
100
AcDbSpline
 70
8
 71
3
 72
8
 73
4
 74
0
 40
0
 40
0
 40
0
 40
0
 40
1
 40
1
 40
1
 40
1
 10
4060.624373
 20
-957.430520
 30
0.0
 10
4061.908319
 20
-960.180849
 30
0.0
 10
4064.668918
 20
-961.938706
 30
0.0
 10
4067.704182
 20
-961.938706
 30
0.0
  0
SPLINE
  5
25b
100
AcDbEntity
  8
0
 62
7
100
AcDbSpline
 70
8
 71
3
 72
8
 73
4
 74
0
 40
0
 40
0
 40
0
 40
0
 40
1
 40
1
 40
1
 40
1
 10
4067.704182
 20
-961.938706
 30
0.0
 10
4070.739446
 20
-961.938706
 30
0.0
 10
4073.500045
 20
-960.180849
 30
0.0
 10
4074.783991
 20
-957.430520
 30
0.0
  0
LWPOLYLINE
  5
25c
100
AcDbEntity
  8
0
 62
7
100
AcDbPolyline
 90
2
 70
0
 10
4047.735307
 20
-977.939337
 30
0.0
 10
4047.735307
 20
-929.811026
 30
0.0
  0
SPLINE
  5
25d
100
AcDbEntity
  8
0
 62
7
100
AcDbSpline
 70
8
 71
3
 72
8
 73
4
 74
0
 40
0
 40
0
 40
0
 40
0
 40
1
 40
1
 40
1
 40
1
 10
4087.673057
 20
-929.811026
 30
0.0
 10
4087.673057
 20
-929.811026
 30
0.0
 10
4087.673057
 20
-977.939337
 30
0.0
 10
4087.673057
 20
-977.939337
 30
0.0
  0
SPLINE
  5
25e
100
AcDbEntity
  8
0
 62
7
100
AcDbSpline
 70
8
 71
3
 72
8
 73
4
 74
0
 40
0
 40
0
 40
0
 40
0
 40
1
 40
1
 40
1
 40
1
 10
4087.673057
 20
-977.939337
 30
0.0
 10
4087.630138
 20
-980.758771
 30
0.0
 10
4089.109710
 20
-983.382598
 30
0.0
 10
4091.544510
 20
-984.804850
 30
0.0
  0
SPLINE
  5
25f
100
AcDbEntity
  8
0
 62
7
100
AcDbSpline
 70
8
 71
3
 72
8
 73
4
 74
0
 40
0
 40
0
 40
0
 40
0
 40
1
 40
1
 40
1
 40
1
 10
4091.544510
 20
-984.804850
 30
0.0
 10
4093.979309
 20
-986.227102
 30
0.0
 10
4096.991551
 20
-986.227102
 30
0.0
 10
4099.426351
 20
-984.804850
 30
0.0
  0
SPLINE
  5
260
100
AcDbEntity
  8
0
 62
7
100
AcDbSpline
 70
8
 71
3
 72
8
 73
4
 74
0
 40
0
 40
0
 40
0
 40
0
 40
1
 40
1
 40
1
 40
1
 10
4099.426351
 20
-984.804850
 30
0.0
 10
4101.861150
 20
-983.382598
 30
0.0
 10
4103.340722
 20
-980.758771
 30
0.0
 10
4103.297804
 20
-977.939337
 30
0.0
  0
SPLINE
  5
261
100
AcDbEntity
  8
0
 62
7
100
AcDbSpline
 70
8
 71
3
 72
8
 73
4
 74
0
 40
0
 40
0
 40
0
 40
0
 40
1
 40
1
 40
1
 40
1
 10
4103.297804
 20
-977.939337
 30
0.0
 10
4103.297804
 20
-977.939337
 30
0.0
 10
4103.297804
 20
-894.595593
 30
0.0
 10
4103.297804
 20
-894.595593
 30
0.0
  0
SPLINE
  5
262
100
AcDbEntity
  8
0
 62
7
100
AcDbSpline
 70
8
 71
3
 72
8
 73
4
 74
0
 40
0
 40
0
 40
0
 40
0
 40
1
 40
1
 40
1
 40
1
 10
4103.297804
 20
-894.595593
 30
0.0
 10
4103.296827
 20
-892.483828
 30
0.0
 10
4102.441077
 20
-890.462388
 30
0.0
 10
4100.925513
 20
-888.991803
 30
0.0
  0
SPLINE
  5
263
100
AcDbEntity
  8
0
 62
7
100
AcDbSpline
 70
8
 71
3
 72
8
 73
4
 74
0
 40
0
 40
0
 40
0
 40
0
 40
1
 40
1
 40
1
 40
1
 10
4100.925513
 20
-888.991803
 30
0.0
 10
4099.409950
 20
-887.521219
 30
0.0
 10
4097.363653
 20
-886.726739
 30
0.0
 10
4095.252817
 20
-886.789365
 30
0.0
  0
LWPOLYLINE
  5
264
100
AcDbEntity
  8
0
 62
7
100
AcDbPolyline
 90
2
 70
0
 10
4074.783991
 20
-957.430520
 30
0.0
 10
4087.673057
 20
-929.811026
 30
0.0
  0
SPLINE
  5
265
100
AcDbEntity
  8
0
 62
7
100
AcDbSpline
 70
8
 71
3
 72
8
 73
4
 74
0
 40
0
 40
0
 40
0
 40
0
 40
1
 40
1
 40
1
 40
1
 10
3956.579189
 20
-886.783164
 30
0.0
 10
3952.264720
 20
-886.783664
 30
0.0
 10
3948.767285
 20
-890.281123
 30
0.0
 10
3948.766815
 20
-894.595593
 30
0.0
  0
LWPOLYLINE
  5
266
100
AcDbEntity
  8
0
 62
7
100
AcDbPolyline
 90
1
 70
1
 10
4095.252817
 20
-886.789365
 30
0.0
  0
SPLINE
  5
267
100
AcDbEntity
  8
0
 62
7
100
AcDbSpline
 70
8
 71
3
 72
8
 73
4
 74
0
 40
0
 40
0
 40
0
 40
0
 40
1
 40
1
 40
1
 40
1
 10
3948.766815
 20
-936.975446
 30
0.0
 10
3948.629301
 20
-937.813384
 30
0.0
 10
3948.629301
 20
-938.668136
 30
0.0
 10
3948.766815
 20
-939.506075
 30
0.0
  0
LWPOLYLINE
  5
268
100
AcDbEntity
  8
0
 62
7
100
AcDbPolyline
 90
2
 70
0
 10
3948.766815
 20
-894.595593
 30
0.0
 10
3948.766815
 20
-936.975446
 30
0.0
  0
SPLINE
  5
269
100
AcDbEntity
  8
0
 62
7
100
AcDbSpline
 70
8
 71
3
 72
8
 73
4
 74
0
 40
0
 40
0
 40
0
 40
0
 40
1
 40
1
 40
1
 40
1
 10
3948.766815
 20
-977.939392
 30
0.0
 10
3948.723897
 20
-980.758827
 30
0.0
 10
3950.203469
 20
-983.382653
 30
0.0
 10
3952.638269
 20
-984.804905
 30
0.0
  0
SPLINE
  5
26a
100
AcDbEntity
  8
0
 62
7
100
AcDbSpline
 70
8
 71
3
 72
8
 73
4
 74
0
 40
0
 40
0
 40
0
 40
0
 40
1
 40
1
 40
1
 40
1
 10
3952.638269
 20
-984.804905
 30
0.0
 10
3955.073068
 20
-986.227157
 30
0.0
 10
3958.085310
 20
-986.227157
 30
0.0
 10
3960.520109
 20
-984.804905
 30
0.0
  0
SPLINE
  5
26b
100
AcDbEntity
  8
0
 62
7
100
AcDbSpline
 70
8
 71
3
 72
8
 73
4
 74
0
 40
0
 40
0
 40
0
 40
0
 40
1
 40
1
 40
1
 40
1
 10
3960.520109
 20
-984.804905
 30
0.0
 10
3962.954909
 20
-983.382653
 30
0.0
 10
3964.434481
 20
-980.758827
 30
0.0
 10
3964.391563
 20
-977.939392
 30
0.0
  0
LWPOLYLINE
  5
26c
100
AcDbEntity
  8
0
 62
7
100
AcDbPolyline
 90
2
 70
0
 10
3948.766815
 20
-939.506075
 30
0.0
 10
3948.766815
 20
-977.939392
 30
0.0
  0
SPLINE
  5
26d
100
AcDbEntity
  8
0
 62
7
100
AcDbSpline
 70
8
 71
3
 72
8
 73
4
 74
0
 40
0
 40
0
 40
0
 40
0
 40
1
 40
1
 40
1
 40
1
 10
3964.391563
 20
-946.064324
 30
0.0
 10
3964.391563
 20
-946.064324
 30
0.0
 10
3988.329187
 20
-946.064324
 30
0.0
 10
3988.329187
 20
-946.064324
 30
0.0
  0
SPLINE
  5
26e
100
AcDbEntity
  8
0
 62
7
100
AcDbSpline
 70
8
 71
3
 72
8
 73
4
 74
0
 40
0
 40
0
 40
0
 40
0
 40
1
 40
1
 40
1
 40
1
 10
3988.329187
 20
-946.064324
 30
0.0
 10
3989.542030
 20
-946.064351
 30
0.0
 10
3990.738226
 20
-945.782027
 30
0.0
 10
3991.823065
 20
-945.239706
 30
0.0
  0
SPLINE
  5
26f
100
AcDbEntity
  8
0
 62
7
100
AcDbSpline
 70
8
 71
3
 72
8
 73
4
 74
0
 40
0
 40
0
 40
0
 40
0
 40
1
 40
1
 40
1
 40
1
 10
3991.823065
 20
-945.239706
 30
0.0
 10
3991.823065
 20
-945.239706
 30
0.0
 10
3999.760564
 20
-941.270956
 30
0.0
 10
3999.760564
 20
-941.270956
 30
0.0
  0
SPLINE
  5
270
100
AcDbEntity
  8
0
 62
7
100
AcDbSpline
 70
8
 71
3
 72
8
 73
4
 74
0
 40
0
 40
0
 40
0
 40
0
 40
1
 40
1
 40
1
 40
1
 10
3999.760564
 20
-941.270956
 30
0.0
 10
4000.511902
 20
-940.895481
 30
0.0
 10
4001.197780
 20
-940.401313
 30
0.0
 10
4001.791792
 20
-939.807479
 30
0.0
  0
SPLINE
  5
271
100
AcDbEntity
  8
0
 62
7
100
AcDbSpline
 70
8
 71
3
 72
8
 73
4
 74
0
 40
0
 40
0
 40
0
 40
0
 40
1
 40
1
 40
1
 40
1
 10
4001.791792
 20
-939.807479
 30
0.0
 10
4001.791792
 20
-939.807479
 30
0.0
 10
4005.760542
 20
-935.838730
 30
0.0
 10
4005.760542
 20
-935.838730
 30
0.0
  0
SPLINE
  5
272
100
AcDbEntity
  8
0
 62
7
100
AcDbSpline
 70
8
 71
3
 72
8
 73
4
 74
0
 40
0
 40
0
 40
0
 40
0
 40
1
 40
1
 40
1
 40
1
 10
4005.760542
 20
-935.838730
 30
0.0
 10
4006.354304
 20
-935.244968
 30
0.0
 10
4006.848468
 20
-934.559373
 30
0.0
 10
4007.224019
 20
-933.808328
 30
0.0
  0
SPLINE
  5
273
100
AcDbEntity
  8
0
 62
7
100
AcDbSpline
 70
8
 71
3
 72
8
 73
4
 74
0
 40
0
 40
0
 40
0
 40
0
 40
1
 40
1
 40
1
 40
1
 10
4007.224019
 20
-933.808328
 30
0.0
 10
4007.224019
 20
-933.808328
 30
0.0
 10
4011.192768
 20
-925.870829
 30
0.0
 10
4011.192768
 20
-925.870829
 30
0.0
  0
SPLINE
  5
274
100
AcDbEntity
  8
0
 62
7
100
AcDbSpline
 70
8
 71
3
 72
8
 73
4
 74
0
 40
0
 40
0
 40
0
 40
0
 40
1
 40
1
 40
1
 40
1
 10
4011.192768
 20
-925.870829
 30
0.0
 10
4011.734895
 20
-924.785952
 30
0.0
 10
4012.017030
 20
-923.589768
 30
0.0
 10
4012.016835
 20
-922.376979
 30
0.0
  0
SPLINE
  5
275
100
AcDbEntity
  8
0
 62
7
100
AcDbSpline
 70
8
 71
3
 72
8
 73
4
 74
0
 40
0
 40
0
 40
0
 40
0
 40
1
 40
1
 40
1
 40
1
 10
4012.016835
 20
-922.376979
 30
0.0
 10
4012.016835
 20
-922.376979
 30
0.0
 10
4012.016835
 20
-910.470729
 30
0.0
 10
4012.016835
 20
-910.470729
 30
0.0
  0
SPLINE
  5
276
100
AcDbEntity
  8
0
 62
7
100
AcDbSpline
 70
8
 71
3
 72
8
 73
4
 74
0
 40
0
 40
0
 40
0
 40
0
 40
1
 40
1
 40
1
 40
1
 10
4012.016835
 20
-910.470729
 30
0.0
 10
4012.017030
 20
-909.257940
 30
0.0
 10
4011.734895
 20
-908.061756
 30
0.0
 10
4011.192768
 20
-906.976879
 30
0.0
  0
SPLINE
  5
277
100
AcDbEntity
  8
0
 62
7
100
AcDbSpline
 70
8
 71
3
 72
8
 73
4
 74
0
 40
0
 40
0
 40
0
 40
0
 40
1
 40
1
 40
1
 40
1
 10
4011.192768
 20
-906.976879
 30
0.0
 10
4011.192768
 20
-906.976879
 30
0.0
 10
4007.224019
 20
-899.039380
 30
0.0
 10
4007.224019
 20
-899.039380
 30
0.0
  0
SPLINE
  5
278
100
AcDbEntity
  8
0
 62
7
100
AcDbSpline
 70
8
 71
3
 72
8
 73
4
 74
0
 40
0
 40
0
 40
0
 40
0
 40
1
 40
1
 40
1
 40
1
 10
4007.224019
 20
-899.039380
 30
0.0
 10
4006.848468
 20
-898.288335
 30
0.0
 10
4006.354304
 20
-897.602741
 30
0.0
 10
4005.760542
 20
-897.008978
 30
0.0
  0
SPLINE
  5
279
100
AcDbEntity
  8
0
 62
7
100
AcDbSpline
 70
8
 71
3
 72
8
 73
4
 74
0
 40
0
 40
0
 40
0
 40
0
 40
1
 40
1
 40
1
 40
1
 10
4005.760542
 20
-897.008978
 30
0.0
 10
4005.760542
 20
-897.008978
 30
0.0
 10
4001.791792
 20
-893.040229
 30
0.0
 10
4001.791792
 20
-893.040229
 30
0.0
  0
SPLINE
  5
27a
100
AcDbEntity
  8
0
 62
7
100
AcDbSpline
 70
8
 71
3
 72
8
 73
4
 74
0
 40
0
 40
0
 40
0
 40
0
 40
1
 40
1
 40
1
 40
1
 10
4001.791792
 20
-893.040229
 30
0.0
 10
4001.197780
 20
-892.446395
 30
0.0
 10
4000.511902
 20
-891.952227
 30
0.0
 10
3999.760564
 20
-891.576752
 30
0.0
  0
LWPOLYLINE
  5
27b
100
AcDbEntity
  8
0
 62
7
100
AcDbPolyline
 90
2
 70
0
 10
3964.391563
 20
-977.939392
 30
0.0
 10
3964.391563
 20
-946.064324
 30
0.0
  0
SPLINE
  5
27c
100
AcDbEntity
  8
0
 62
7
100
AcDbSpline
 70
8
 71
3
 72
8
 73
4
 74
0
 40
0
 40
0
 40
0
 40
0
 40
1
 40
1
 40
1
 40
1
 10
3991.823065
 20
-887.608002
 30
0.0
 10
3990.738226
 20
-887.065681
 30
0.0
 10
3989.542030
 20
-886.783357
 30
0.0
 10
3988.329187
 20
-886.783384
 30
0.0
  0
LWPOLYLINE
  5
27d
100
AcDbEntity
  8
0
 62
7
100
AcDbPolyline
 90
2
 70
0
 10
3999.760564
 20
-891.576752
 30
0.0
 10
3991.823065
 20
-887.608002
 30
0.0
  0
LWPOLYLINE
  5
27e
100
AcDbEntity
  8
0
 62
7
100
AcDbPolyline
 90
2
 70
0
 10
3988.329187
 20
-886.783384
 30
0.0
 10
3956.579189
 20
-886.783164
 30
0.0
  0
SPLINE
  5
27f
100
AcDbEntity
  8
0
 62
7
100
AcDbSpline
 70
8
 71
3
 72
8
 73
4
 74
0
 40
0
 40
0
 40
0
 40
0
 40
1
 40
1
 40
1
 40
1
 10
3873.235444
 20
-886.783164
 30
0.0
 10
3868.920975
 20
-886.783664
 30
0.0
 10
3865.423540
 20
-890.281123
 30
0.0
 10
3865.423071
 20
-894.595593
 30
0.0
  0
SPLINE
  5
280
100
AcDbEntity
  8
0
 62
7
100
AcDbSpline
 70
8
 71
3
 72
8
 73
4
 74
0
 40
0
 40
0
 40
0
 40
0
 40
1
 40
1
 40
1
 40
1
 10
3865.423071
 20
-894.595593
 30
0.0
 10
3865.423071
 20
-894.595593
 30
0.0
 10
3865.423071
 20
-933.006696
 30
0.0
 10
3865.423071
 20
-933.006696
 30
0.0
  0
SPLINE
  5
281
100
AcDbEntity
  8
0
 62
7
100
AcDbSpline
 70
8
 71
3
 72
8
 73
4
 74
0
 40
0
 40
0
 40
0
 40
0
 40
1
 40
1
 40
1
 40
1
 10
3865.423071
 20
-933.006696
 30
0.0
 10
3865.285556
 20
-933.844635
 30
0.0
 10
3865.285556
 20
-934.699387
 30
0.0
 10
3865.423071
 20
-935.537325
 30
0.0
  0
SPLINE
  5
282
100
AcDbEntity
  8
0
 62
7
100
AcDbSpline
 70
8
 71
3
 72
8
 73
4
 74
0
 40
0
 40
0
 40
0
 40
0
 40
1
 40
1
 40
1
 40
1
 10
3865.423071
 20
-935.537325
 30
0.0
 10
3865.423071
 20
-935.537325
 30
0.0
 10
3865.423071
 20
-977.939392
 30
0.0
 10
3865.423071
 20
-977.939392
 30
0.0
  0
SPLINE
  5
283
100
AcDbEntity
  8
0
 62
7
100
AcDbSpline
 70
8
 71
3
 72
8
 73
4
 74
0
 40
0
 40
0
 40
0
 40
0
 40
1
 40
1
 40
1
 40
1
 10
3865.423071
 20
-977.939392
 30
0.0
 10
3865.423540
 20
-982.253862
 30
0.0
 10
3868.920975
 20
-985.751321
 30
0.0
 10
3873.235444
 20
-985.751821
 30
0.0
  0
LWPOLYLINE
  5
284
100
AcDbEntity
  8
0
 62
7
100
AcDbPolyline
 90
10
 70
1
 10
3964.391563
 20
-902.408021
 30
0.0
 10
3986.484821
 20
-902.408021
 30
0.0
 10
3991.639235
 20
-904.985228
 30
0.0
 10
3993.813779
 20
-907.160875
 30
0.0
 10
3996.390710
 20
-912.315096
 30
0.0
 10
3996.390710
 20
-920.532668
 30
0.0
 10
3993.813779
 20
-925.686888
 30
0.0
 10
3991.639235
 20
-927.862535
 30
0.0
 10
3986.484821
 20
-930.439742
 30
0.0
 10
3964.391563
 20
-930.439742
 30
0.0
  0
SPLINE
  5
285
100
AcDbEntity
  8
0
 62
7
100
AcDbSpline
 70
8
 71
3
 72
8
 73
4
 74
0
 40
0
 40
0
 40
0
 40
0
 40
1
 40
1
 40
1
 40
1
 10
3904.985442
 20
-985.751821
 30
0.0
 10
3906.198285
 20
-985.751849
 30
0.0
 10
3907.394482
 20
-985.469525
 30
0.0
 10
3908.479320
 20
-984.927203
 30
0.0
  0
LWPOLYLINE
  5
286
100
AcDbEntity
  8
0
 62
7
100
AcDbPolyline
 90
2
 70
0
 10
3873.235444
 20
-985.751821
 30
0.0
 10
3904.985442
 20
-985.751821
 30
0.0
  0
SPLINE
  5
287
100
AcDbEntity
  8
0
 62
7
100
AcDbSpline
 70
8
 71
3
 72
8
 73
4
 74
0
 40
0
 40
0
 40
0
 40
0
 40
1
 40
1
 40
1
 40
1
 10
3916.416820
 20
-980.958453
 30
0.0
 10
3917.168157
 20
-980.582978
 30
0.0
 10
3917.854036
 20
-980.088811
 30
0.0
 10
3918.448048
 20
-979.494977
 30
0.0
  0
SPLINE
  5
288
100
AcDbEntity
  8
0
 62
7
100
AcDbSpline
 70
8
 71
3
 72
8
 73
4
 74
0
 40
0
 40
0
 40
0
 40
0
 40
1
 40
1
 40
1
 40
1
 10
3918.448048
 20
-979.494977
 30
0.0
 10
3918.448048
 20
-979.494977
 30
0.0
 10
3922.416798
 20
-975.526227
 30
0.0
 10
3922.416798
 20
-975.526227
 30
0.0
  0
SPLINE
  5
289
100
AcDbEntity
  8
0
 62
7
100
AcDbSpline
 70
8
 71
3
 72
8
 73
4
 74
0
 40
0
 40
0
 40
0
 40
0
 40
1
 40
1
 40
1
 40
1
 10
3922.416798
 20
-975.526227
 30
0.0
 10
3923.010559
 20
-974.932465
 30
0.0
 10
3923.504723
 20
-974.246870
 30
0.0
 10
3923.880274
 20
-973.495826
 30
0.0
  0
SPLINE
  5
28a
100
AcDbEntity
  8
0
 62
7
100
AcDbSpline
 70
8
 71
3
 72
8
 73
4
 74
0
 40
0
 40
0
 40
0
 40
0
 40
1
 40
1
 40
1
 40
1
 10
3923.880274
 20
-973.495826
 30
0.0
 10
3923.880274
 20
-973.495826
 30
0.0
 10
3927.849024
 20
-965.558326
 30
0.0
 10
3927.849024
 20
-965.558326
 30
0.0
  0
SPLINE
  5
28b
100
AcDbEntity
  8
0
 62
7
100
AcDbSpline
 70
8
 71
3
 72
8
 73
4
 74
0
 40
0
 40
0
 40
0
 40
0
 40
1
 40
1
 40
1
 40
1
 10
3927.849024
 20
-965.558326
 30
0.0
 10
3928.391150
 20
-964.473450
 30
0.0
 10
3928.673285
 20
-963.277266
 30
0.0
 10
3928.673091
 20
-962.064476
 30
0.0
  0
SPLINE
  5
28c
100
AcDbEntity
  8
0
 62
7
100
AcDbSpline
 70
8
 71
3
 72
8
 73
4
 74
0
 40
0
 40
0
 40
0
 40
0
 40
1
 40
1
 40
1
 40
1
 10
3928.673091
 20
-962.064476
 30
0.0
 10
3928.673091
 20
-962.064476
 30
0.0
 10
3928.673091
 20
-950.158227
 30
0.0
 10
3928.673091
 20
-950.158227
 30
0.0
  0
SPLINE
  5
28d
100
AcDbEntity
  8
0
 62
7
100
AcDbSpline
 70
8
 71
3
 72
8
 73
4
 74
0
 40
0
 40
0
 40
0
 40
0
 40
1
 40
1
 40
1
 40
1
 10
3928.673091
 20
-950.158227
 30
0.0
 10
3928.673285
 20
-948.945437
 30
0.0
 10
3928.391150
 20
-947.749253
 30
0.0
 10
3927.849024
 20
-946.664377
 30
0.0
  0
LWPOLYLINE
  5
28e
100
AcDbEntity
  8
0
 62
7
100
AcDbPolyline
 90
2
 70
0
 10
3908.479320
 20
-984.927203
 30
0.0
 10
3916.416820
 20
-980.958453
 30
0.0
  0
SPLINE
  5
28f
100
AcDbEntity
  8
0
 62
7
100
AcDbSpline
 70
8
 71
3
 72
8
 73
4
 74
0
 40
0
 40
0
 40
0
 40
0
 40
1
 40
1
 40
1
 40
1
 10
3923.880274
 20
-938.726877
 30
0.0
 10
3923.504723
 20
-937.975833
 30
0.0
 10
3923.010559
 20
-937.290238
 30
0.0
 10
3922.416798
 20
-936.696476
 30
0.0
  0
SPLINE
  5
290
100
AcDbEntity
  8
0
 62
7
100
AcDbSpline
 70
8
 71
3
 72
8
 73
4
 74
0
 40
0
 40
0
 40
0
 40
0
 40
1
 40
1
 40
1
 40
1
 10
3922.416798
 20
-936.696476
 30
0.0
 10
3922.416798
 20
-936.696476
 30
0.0
 10
3918.448048
 20
-932.727726
 30
0.0
 10
3918.448048
 20
-932.727726
 30
0.0
  0
SPLINE
  5
291
100
AcDbEntity
  8
0
 62
7
100
AcDbSpline
 70
8
 71
3
 72
8
 73
4
 74
0
 40
0
 40
0
 40
0
 40
0
 40
1
 40
1
 40
1
 40
1
 10
3918.448048
 20
-932.727726
 30
0.0
 10
3918.303629
 20
-932.586181
 30
0.0
 10
3918.153769
 20
-932.450296
 30
0.0
 10
3917.998807
 20
-932.320378
 30
0.0
  0
LWPOLYLINE
  5
292
100
AcDbEntity
  8
0
 62
7
100
AcDbPolyline
 90
2
 70
0
 10
3927.849024
 20
-946.664377
 30
0.0
 10
3923.880274
 20
-938.726877
 30
0.0
  0
SPLINE
  5
293
100
AcDbEntity
  8
0
 62
7
100
AcDbSpline
 70
8
 71
3
 72
8
 73
4
 74
0
 40
0
 40
0
 40
0
 40
0
 40
1
 40
1
 40
1
 40
1
 10
3918.448048
 20
-931.869760
 30
0.0
 10
3919.041809
 20
-931.275997
 30
0.0
 10
3919.535973
 20
-930.590403
 30
0.0
 10
3919.911524
 20
-929.839358
 30
0.0
  0
LWPOLYLINE
  5
294
100
AcDbEntity
  8
0
 62
7
100
AcDbPolyline
 90
2
 70
0
 10
3917.998807
 20
-932.320378
 30
0.0
 10
3918.448048
 20
-931.869760
 30
0.0
  0
SPLINE
  5
295
100
AcDbEntity
  8
0
 62
7
100
AcDbSpline
 70
8
 71
3
 72
8
 73
4
 74
0
 40
0
 40
0
 40
0
 40
0
 40
1
 40
1
 40
1
 40
1
 10
3923.880274
 20
-921.901859
 30
0.0
 10
3924.422401
 20
-920.816982
 30
0.0
 10
3924.704535
 20
-919.620798
 30
0.0
 10
3924.704341
 20
-918.408008
 30
0.0
  0
SPLINE
  5
296
100
AcDbEntity
  8
0
 62
7
100
AcDbSpline
 70
8
 71
3
 72
8
 73
4
 74
0
 40
0
 40
0
 40
0
 40
0
 40
1
 40
1
 40
1
 40
1
 10
3924.704341
 20
-918.408008
 30
0.0
 10
3924.704341
 20
-918.408008
 30
0.0
 10
3924.704341
 20
-910.470509
 30
0.0
 10
3924.704341
 20
-910.470509
 30
0.0
  0
SPLINE
  5
297
100
AcDbEntity
  8
0
 62
7
100
AcDbSpline
 70
8
 71
3
 72
8
 73
4
 74
0
 40
0
 40
0
 40
0
 40
0
 40
1
 40
1
 40
1
 40
1
 10
3924.704341
 20
-910.470509
 30
0.0
 10
3924.704535
 20
-909.257719
 30
0.0
 10
3924.422401
 20
-908.061535
 30
0.0
 10
3923.880274
 20
-906.976659
 30
0.0
  0
LWPOLYLINE
  5
298
100
AcDbEntity
  8
0
 62
7
100
AcDbPolyline
 90
2
 70
0
 10
3919.911524
 20
-929.839358
 30
0.0
 10
3923.880274
 20
-921.901859
 30
0.0
  0
SPLINE
  5
299
100
AcDbEntity
  8
0
 62
7
100
AcDbSpline
 70
8
 71
3
 72
8
 73
4
 74
0
 40
0
 40
0
 40
0
 40
0
 40
1
 40
1
 40
1
 40
1
 10
3919.911524
 20
-899.039159
 30
0.0
 10
3919.535973
 20
-898.288115
 30
0.0
 10
3919.041809
 20
-897.602520
 30
0.0
 10
3918.448048
 20
-897.008758
 30
0.0
  0
LWPOLYLINE
  5
29a
100
AcDbEntity
  8
0
 62
7
100
AcDbPolyline
 90
2
 70
0
 10
3923.880274
 20
-906.976659
 30
0.0
 10
3919.911524
 20
-899.039159
 30
0.0
  0
SPLINE
  5
29b
100
AcDbEntity
  8
0
 62
7
100
AcDbSpline
 70
8
 71
3
 72
8
 73
4
 74
0
 40
0
 40
0
 40
0
 40
0
 40
1
 40
1
 40
1
 40
1
 10
3914.479298
 20
-893.040008
 30
0.0
 10
3913.885286
 20
-892.446174
 30
0.0
 10
3913.199407
 20
-891.952007
 30
0.0
 10
3912.448070
 20
-891.576532
 30
0.0
  0
LWPOLYLINE
  5
29c
100
AcDbEntity
  8
0
 62
7
100
AcDbPolyline
 90
2
 70
0
 10
3918.448048
 20
-897.008758
 30
0.0
 10
3914.479298
 20
-893.040008
 30
0.0
  0
SPLINE
  5
29d
100
AcDbEntity
  8
0
 62
7
100
AcDbSpline
 70
8
 71
3
 72
8
 73
4
 74
0
 40
0
 40
0
 40
0
 40
0
 40
1
 40
1
 40
1
 40
1
 10
3904.510570
 20
-887.607782
 30
0.0
 10
3903.425732
 20
-887.065460
 30
0.0
 10
3902.229535
 20
-886.783136
 30
0.0
 10
3901.016693
 20
-886.783164
 30
0.0
  0
LWPOLYLINE
  5
29e
100
AcDbEntity
  8
0
 62
7
100
AcDbPolyline
 90
2
 70
0
 10
3912.448070
 20
-891.576532
 30
0.0
 10
3904.510570
 20
-887.607782
 30
0.0
  0
LWPOLYLINE
  5
29f
100
AcDbEntity
  8
0
 62
7
100
AcDbPolyline
 90
2
 70
0
 10
3901.016693
 20
-886.783164
 30
0.0
 10
3873.235444
 20
-886.783164
 30
0.0
  0
LWPOLYLINE
  5
2a0
100
AcDbEntity
  8
0
 62
7
100
AcDbPolyline
 90
10
 70
1
 10
3881.047818
 20
-902.408021
 30
0.0
 10
3899.172326
 20
-902.408021
 30
0.0
 10
3904.326740
 20
-904.985228
 30
0.0
 10
3906.501284
 20
-907.160875
 30
0.0
 10
3909.078216
 20
-912.315096
 30
0.0
 10
3909.078216
 20
-916.563918
 30
0.0
 10
3906.501284
 20
-921.718139
 30
0.0
 10
3904.326740
 20
-923.893785
 30
0.0
 10
3899.172326
 20
-926.470992
 30
0.0
 10
3881.047818
 20
-926.470992
 30
0.0
  0
SPLINE
  5
2a1
100
AcDbEntity
  8
0
 62
7
100
AcDbSpline
 70
8
 71
3
 72
8
 73
4
 74
0
 40
0
 40
0
 40
0
 40
0
 40
1
 40
1
 40
1
 40
1
 10
4097.337513
 20
-1404.879190
 30
0.0
 10
4095.720344
 20
-1404.879196
 30
0.0
 10
4094.125382
 20
-1405.255692
 30
0.0
 10
4092.678918
 20
-1405.978864
 30
0.0
  0
SPLINE
  5
2a2
100
AcDbEntity
  8
0
 62
7
100
AcDbSpline
 70
8
 71
3
 72
8
 73
4
 74
0
 40
0
 40
0
 40
0
 40
0
 40
1
 40
1
 40
1
 40
1
 10
4092.678918
 20
-1405.978864
 30
0.0
 10
4092.678918
 20
-1405.978864
 30
0.0
 10
4084.741418
 20
-1409.947614
 30
0.0
 10
4084.741418
 20
-1409.947614
 30
0.0
  0
SPLINE
  5
2a3
100
AcDbEntity
  8
0
 62
7
100
AcDbSpline
 70
8
 71
3
 72
8
 73
4
 74
0
 40
0
 40
0
 40
0
 40
0
 40
1
 40
1
 40
1
 40
1
 10
4084.741418
 20
-1409.947614
 30
0.0
 10
4083.740286
 20
-1410.448416
 30
0.0
 10
4082.826412
 20
-1411.107298
 30
0.0
 10
4082.034951
 20
-1411.898916
 30
0.0
  0
SPLINE
  5
2a4
100
AcDbEntity
  8
0
 62
7
100
AcDbSpline
 70
8
 71
3
 72
8
 73
4
 74
0
 40
0
 40
0
 40
0
 40
0
 40
1
 40
1
 40
1
 40
1
 10
4082.034951
 20
-1411.898916
 30
0.0
 10
4082.034951
 20
-1411.898916
 30
0.0
 10
4078.066202
 20
-1415.867666
 30
0.0
 10
4078.066202
 20
-1415.867666
 30
0.0
  0
SPLINE
  5
2a5
100
AcDbEntity
  8
0
 62
7
100
AcDbSpline
 70
8
 71
3
 72
8
 73
4
 74
0
 40
0
 40
0
 40
0
 40
0
 40
1
 40
1
 40
1
 40
1
 10
4078.066202
 20
-1415.867666
 30
0.0
 10
4075.362982
 20
-1418.484388
 30
0.0
 10
4074.280667
 20
-1422.355337
 30
0.0
 10
4075.234710
 20
-1425.994627
 30
0.0
  0
SPLINE
  5
2a6
100
AcDbEntity
  8
0
 62
7
100
AcDbSpline
 70
8
 71
3
 72
8
 73
4
 74
0
 40
0
 40
0
 40
0
 40
0
 40
1
 40
1
 40
1
 40
1
 10
4075.234710
 20
-1425.994627
 30
0.0
 10
4076.188752
 20
-1429.633917
 30
0.0
 10
4079.030909
 20
-1432.476064
 30
0.0
 10
4082.670203
 20
-1433.430092
 30
0.0
  0
SPLINE
  5
2a7
100
AcDbEntity
  8
0
 62
7
100
AcDbSpline
 70
8
 71
3
 72
8
 73
4
 74
0
 40
0
 40
0
 40
0
 40
0
 40
1
 40
1
 40
1
 40
1
 10
4082.670203
 20
-1433.430092
 30
0.0
 10
4086.309496
 20
-1434.384121
 30
0.0
 10
4090.180441
 20
-1433.301791
 30
0.0
 10
4092.797153
 20
-1430.598562
 30
0.0
  0
LWPOLYLINE
  5
2a8
100
AcDbEntity
  8
0
 62
7
100
AcDbPolyline
 90
10
 70
1
 10
3881.047818
 20
-942.095519
 30
0.0
 10
3899.749173
 20
-942.095519
 30
0.0
 10
3908.702562
 20
-945.080377
 30
0.0
 10
3910.471963
 20
-946.848124
 30
0.0
 10
3913.048895
 20
-952.002345
 30
0.0
 10
3913.048895
 20
-960.219945
 30
0.0
 10
3910.471963
 20
-965.374138
 30
0.0
 10
3908.297419
 20
-967.549784
 30
0.0
 10
3903.143005
 20
-970.126991
 30
0.0
 10
3881.049747
 20
-970.126991
 30
0.0
  0
SPLINE
  5
2a9
100
AcDbEntity
  8
0
 62
7
100
AcDbSpline
 70
8
 71
3
 72
8
 73
4
 74
0
 40
0
 40
0
 40
0
 40
0
 40
1
 40
1
 40
1
 40
1
 10
4119.982814
 20
-1445.387199
 30
0.0
 10
4119.982814
 20
-1445.387199
 30
0.0
 10
4074.096625
 20
-1491.273828
 30
0.0
 10
4074.096625
 20
-1491.273828
 30
0.0
  0
SPLINE
  5
2aa
100
AcDbEntity
  8
0
 62
7
100
AcDbSpline
 70
8
 71
3
 72
8
 73
4
 74
0
 40
0
 40
0
 40
0
 40
0
 40
1
 40
1
 40
1
 40
1
 10
4074.096625
 20
-1491.273828
 30
0.0
 10
4071.118933
 20
-1494.253383
 30
0.0
 10
4070.228632
 20
-1498.732959
 30
0.0
 10
4071.840677
 20
-1502.624708
 30
0.0
  0
SPLINE
  5
2ab
100
AcDbEntity
  8
0
 62
7
100
AcDbSpline
 70
8
 71
3
 72
8
 73
4
 74
0
 40
0
 40
0
 40
0
 40
0
 40
1
 40
1
 40
1
 40
1
 10
4071.840677
 20
-1502.624708
 30
0.0
 10
4073.452721
 20
-1506.516457
 30
0.0
 10
4077.249829
 20
-1509.054410
 30
0.0
 10
4081.462239
 20
-1509.055674
 30
0.0
  0
SPLINE
  5
2ac
100
AcDbEntity
  8
0
 62
7
100
AcDbSpline
 70
8
 71
3
 72
8
 73
4
 74
0
 40
0
 40
0
 40
0
 40
0
 40
1
 40
1
 40
1
 40
1
 10
4081.462239
 20
-1509.055674
 30
0.0
 10
4081.462239
 20
-1509.055674
 30
0.0
 10
4133.055985
 20
-1509.055674
 30
0.0
 10
4133.055985
 20
-1509.055674
 30
0.0
  0
SPLINE
  5
2ad
100
AcDbEntity
  8
0
 62
7
100
AcDbSpline
 70
8
 71
3
 72
8
 73
4
 74
0
 40
0
 40
0
 40
0
 40
0
 40
1
 40
1
 40
1
 40
1
 10
4133.055985
 20
-1509.055674
 30
0.0
 10
4136.816671
 20
-1509.115148
 30
0.0
 10
4140.317420
 20
-1507.142901
 30
0.0
 10
4142.215141
 20
-1503.895603
 30
0.0
  0
SPLINE
  5
2ae
100
AcDbEntity
  8
0
 62
7
100
AcDbSpline
 70
8
 71
3
 72
8
 73
4
 74
0
 40
0
 40
0
 40
0
 40
0
 40
1
 40
1
 40
1
 40
1
 10
4142.215141
 20
-1503.895603
 30
0.0
 10
4144.112862
 20
-1500.648305
 30
0.0
 10
4144.112862
 20
-1496.630221
 30
0.0
 10
4142.215141
 20
-1493.382922
 30
0.0
  0
SPLINE
  5
2af
100
AcDbEntity
  8
0
 62
7
100
AcDbSpline
 70
8
 71
3
 72
8
 73
4
 74
0
 40
0
 40
0
 40
0
 40
0
 40
1
 40
1
 40
1
 40
1
 10
4142.215141
 20
-1493.382922
 30
0.0
 10
4140.317420
 20
-1490.135624
 30
0.0
 10
4136.816671
 20
-1488.163377
 30
0.0
 10
4133.055985
 20
-1488.222852
 30
0.0
  0
LWPOLYLINE
  5
2b0
100
AcDbEntity
  8
0
 62
7
100
AcDbPolyline
 90
9
 70
0
 10
4092.797153
 20
-1430.598562
 30
0.0
 10
4095.570593
 20
-1427.825591
 30
0.0
 10
4099.797311
 20
-1425.711956
 30
0.0
 10
4114.722567
 20
-1425.711956
 30
0.0
 10
4118.949285
 20
-1427.825591
 30
0.0
 10
4120.525761
 20
-1429.403169
 30
0.0
 10
4122.639671
 20
-1433.629778
 30
0.0
 10
4122.639671
 20
-1437.417674
 30
0.0
 10
4119.982814
 20
-1445.387199
 30
0.0
  0
SPLINE
  5
2b1
100
AcDbEntity
  8
0
 62
7
100
AcDbSpline
 70
8
 71
3
 72
8
 73
4
 74
0
 40
0
 40
0
 40
0
 40
0
 40
1
 40
1
 40
1
 40
1
 10
4106.609505
 20
-1488.222852
 30
0.0
 10
4106.609505
 20
-1488.222852
 30
0.0
 10
4136.452574
 20
-1458.379700
 30
0.0
 10
4136.452574
 20
-1458.379700
 30
0.0
  0
SPLINE
  5
2b2
100
AcDbEntity
  8
0
 62
7
100
AcDbSpline
 70
8
 71
3
 72
8
 73
4
 74
0
 40
0
 40
0
 40
0
 40
0
 40
1
 40
1
 40
1
 40
1
 10
4136.452574
 20
-1458.379700
 30
0.0
 10
4137.595976
 20
-1457.236197
 30
0.0
 10
4138.457478
 20
-1455.842216
 30
0.0
 10
4138.968871
 20
-1454.308121
 30
0.0
  0
LWPOLYLINE
  5
2b3
100
AcDbEntity
  8
0
 62
7
100
AcDbPolyline
 90
2
 70
0
 10
4133.055985
 20
-1488.222852
 30
0.0
 10
4106.609505
 20
-1488.222852
 30
0.0
  0
SPLINE
  5
2b4
100
AcDbEntity
  8
0
 62
7
100
AcDbSpline
 70
8
 71
3
 72
8
 73
4
 74
0
 40
0
 40
0
 40
0
 40
0
 40
1
 40
1
 40
1
 40
1
 10
4142.937621
 20
-1442.401872
 30
0.0
 10
4143.291680
 20
-1441.339778
 30
0.0
 10
4143.472222
 20
-1440.227556
 30
0.0
 10
4143.472300
 20
-1439.108003
 30
0.0
  0
SPLINE
  5
2b5
100
AcDbEntity
  8
0
 62
7
100
AcDbSpline
 70
8
 71
3
 72
8
 73
4
 74
0
 40
0
 40
0
 40
0
 40
0
 40
1
 40
1
 40
1
 40
1
 10
4143.472300
 20
-1439.108003
 30
0.0
 10
4143.472300
 20
-1439.108003
 30
0.0
 10
4143.472300
 20
-1431.170503
 30
0.0
 10
4143.472300
 20
-1431.170503
 30
0.0
  0
SPLINE
  5
2b6
100
AcDbEntity
  8
0
 62
7
100
AcDbSpline
 70
8
 71
3
 72
8
 73
4
 74
0
 40
0
 40
0
 40
0
 40
0
 40
1
 40
1
 40
1
 40
1
 10
4143.472300
 20
-1431.170503
 30
0.0
 10
4143.472298
 20
-1429.553325
 30
0.0
 10
4143.095802
 20
-1427.958352
 30
0.0
 10
4142.372626
 20
-1426.511880
 30
0.0
  0
LWPOLYLINE
  5
2b7
100
AcDbEntity
  8
0
 62
7
100
AcDbPolyline
 90
2
 70
0
 10
4138.968871
 20
-1454.308121
 30
0.0
 10
4142.937621
 20
-1442.401872
 30
0.0
  0
SPLINE
  5
2b8
100
AcDbEntity
  8
0
 62
7
100
AcDbSpline
 70
8
 71
3
 72
8
 73
4
 74
0
 40
0
 40
0
 40
0
 40
0
 40
1
 40
1
 40
1
 40
1
 10
4138.403876
 20
-1418.574380
 30
0.0
 10
4137.903099
 20
-1417.573151
 30
0.0
 10
4137.244215
 20
-1416.659182
 30
0.0
 10
4136.452574
 20
-1415.867638
 30
0.0
  0
SPLINE
  5
2b9
100
AcDbEntity
  8
0
 62
7
100
AcDbSpline
 70
8
 71
3
 72
8
 73
4
 74
0
 40
0
 40
0
 40
0
 40
0
 40
1
 40
1
 40
1
 40
1
 10
4136.452574
 20
-1415.867638
 30
0.0
 10
4136.452574
 20
-1415.867638
 30
0.0
 10
4132.483824
 20
-1411.898888
 30
0.0
 10
4132.483824
 20
-1411.898888
 30
0.0
  0
SPLINE
  5
2ba
100
AcDbEntity
  8
0
 62
7
100
AcDbSpline
 70
8
 71
3
 72
8
 73
4
 74
0
 40
0
 40
0
 40
0
 40
0
 40
1
 40
1
 40
1
 40
1
 10
4132.483824
 20
-1411.898888
 30
0.0
 10
4131.692363
 20
-1411.107271
 30
0.0
 10
4130.778489
 20
-1410.448388
 30
0.0
 10
4129.777357
 20
-1409.947586
 30
0.0
  0
SPLINE
  5
2bb
100
AcDbEntity
  8
0
 62
7
100
AcDbSpline
 70
8
 71
3
 72
8
 73
4
 74
0
 40
0
 40
0
 40
0
 40
0
 40
1
 40
1
 40
1
 40
1
 10
4129.777357
 20
-1409.947586
 30
0.0
 10
4129.777357
 20
-1409.947586
 30
0.0
 10
4121.839858
 20
-1405.978837
 30
0.0
 10
4121.839858
 20
-1405.978837
 30
0.0
  0
SPLINE
  5
2bc
100
AcDbEntity
  8
0
 62
7
100
AcDbSpline
 70
8
 71
3
 72
8
 73
4
 74
0
 40
0
 40
0
 40
0
 40
0
 40
1
 40
1
 40
1
 40
1
 10
4121.839858
 20
-1405.978837
 30
0.0
 10
4120.393394
 20
-1405.255664
 30
0.0
 10
4118.798431
 20
-1404.879169
 30
0.0
 10
4117.181262
 20
-1404.879162
 30
0.0
  0
LWPOLYLINE
  5
2bd
100
AcDbEntity
  8
0
 62
7
100
AcDbPolyline
 90
2
 70
0
 10
4142.372626
 20
-1426.511880
 30
0.0
 10
4138.403876
 20
-1418.574380
 30
0.0
  0
SPLINE
  5
2be
100
AcDbEntity
  8
0
 62
7
100
AcDbSpline
 70
8
 71
3
 72
8
 73
4
 74
0
 40
0
 40
0
 40
0
 40
0
 40
1
 40
1
 40
1
 40
1
 10
4018.011577
 20
-1404.813044
 30
0.0
 10
4017.195344
 20
-1404.823432
 30
0.0
 10
4016.383161
 20
-1404.929719
 30
0.0
 10
4015.591742
 20
-1405.129717
 30
0.0
  0
SPLINE
  5
2bf
100
AcDbEntity
  8
0
 62
7
100
AcDbSpline
 70
8
 71
3
 72
8
 73
4
 74
0
 40
0
 40
0
 40
0
 40
0
 40
1
 40
1
 40
1
 40
1
 10
4015.591742
 20
-1405.129717
 30
0.0
 10
4014.379475
 20
-1405.393547
 30
0.0
 10
4013.224081
 20
-1405.871796
 30
0.0
 10
4012.179995
 20
-1406.541931
 30
0.0
  0
SPLINE
  5
2c0
100
AcDbEntity
  8
0
 62
7
100
AcDbSpline
 70
8
 71
3
 72
8
 73
4
 74
0
 40
0
 40
0
 40
0
 40
0
 40
1
 40
1
 40
1
 40
1
 10
4012.179995
 20
-1406.541931
 30
0.0
 10
4012.179995
 20
-1406.541931
 30
0.0
 10
4005.367526
 20
-1409.947890
 30
0.0
 10
4005.367526
 20
-1409.947890
 30
0.0
  0
SPLINE
  5
2c1
100
AcDbEntity
  8
0
 62
7
100
AcDbSpline
 70
8
 71
3
 72
8
 73
4
 74
0
 40
0
 40
0
 40
0
 40
0
 40
1
 40
1
 40
1
 40
1
 10
4005.367526
 20
-1409.947890
 30
0.0
 10
4004.366394
 20
-1410.448691
 30
0.0
 10
4003.452520
 20
-1411.107574
 30
0.0
 10
4002.661059
 20
-1411.899191
 30
0.0
  0
LWPOLYLINE
  5
2c2
100
AcDbEntity
  8
0
 62
7
100
AcDbPolyline
 90
2
 70
0
 10
4117.181262
 20
-1404.879162
 30
0.0
 10
4097.337513
 20
-1404.879190
 30
0.0
  0
SPLINE
  5
2c3
100
AcDbEntity
  8
0
 62
7
100
AcDbSpline
 70
8
 71
3
 72
8
 73
4
 74
0
 40
0
 40
0
 40
0
 40
0
 40
1
 40
1
 40
1
 40
1
 10
3994.723559
 20
-1419.836691
 30
0.0
 10
3993.388808
 20
-1421.171684
 30
0.0
 10
3992.441894
 20
-1422.844274
 30
0.0
 10
3991.984020
 20
-1424.675699
 30
0.0
  0
LWPOLYLINE
  5
2c4
100
AcDbEntity
  8
0
 62
7
100
AcDbPolyline
 90
2
 70
0
 10
4002.661059
 20
-1411.899191
 30
0.0
 10
3994.723559
 20
-1419.836691
 30
0.0
  0
SPLINE
  5
2c5
100
AcDbEntity
  8
0
 62
7
100
AcDbSpline
 70
8
 71
3
 72
8
 73
4
 74
0
 40
0
 40
0
 40
0
 40
0
 40
1
 40
1
 40
1
 40
1
 10
3988.015270
 20
-1440.550698
 30
0.0
 10
3987.808568
 20
-1441.376966
 30
0.0
 10
3987.703975
 20
-1442.225464
 30
0.0
 10
3987.703833
 20
-1443.077193
 30
0.0
  0
SPLINE
  5
2c6
100
AcDbEntity
  8
0
 62
7
100
AcDbSpline
 70
8
 71
3
 72
8
 73
4
 74
0
 40
0
 40
0
 40
0
 40
0
 40
1
 40
1
 40
1
 40
1
 10
3987.703833
 20
-1443.077193
 30
0.0
 10
3987.703833
 20
-1443.077193
 30
0.0
 10
3987.703833
 20
-1470.858442
 30
0.0
 10
3987.703833
 20
-1470.858442
 30
0.0
  0
SPLINE
  5
2c7
100
AcDbEntity
  8
0
 62
7
100
AcDbSpline
 70
8
 71
3
 72
8
 73
4
 74
0
 40
0
 40
0
 40
0
 40
0
 40
1
 40
1
 40
1
 40
1
 10
3987.703833
 20
-1470.858442
 30
0.0
 10
3987.703975
 20
-1471.710171
 30
0.0
 10
3987.808568
 20
-1472.558669
 30
0.0
 10
3988.015270
 20
-1473.384937
 30
0.0
  0
LWPOLYLINE
  5
2c8
100
AcDbEntity
  8
0
 62
7
100
AcDbPolyline
 90
2
 70
0
 10
3991.984020
 20
-1424.675699
 30
0.0
 10
3988.015270
 20
-1440.550698
 30
0.0
  0
SPLINE
  5
2c9
100
AcDbEntity
  8
0
 62
7
100
AcDbSpline
 70
8
 71
3
 72
8
 73
4
 74
0
 40
0
 40
0
 40
0
 40
0
 40
1
 40
1
 40
1
 40
1
 10
3991.984020
 20
-1489.259936
 30
0.0
 10
3992.441899
 20
-1491.091351
 30
0.0
 10
3993.388813
 20
-1492.763931
 30
0.0
 10
3994.723559
 20
-1494.098916
 30
0.0
  0
SPLINE
  5
2ca
100
AcDbEntity
  8
0
 62
7
100
AcDbSpline
 70
8
 71
3
 72
8
 73
4
 74
0
 40
0
 40
0
 40
0
 40
0
 40
1
 40
1
 40
1
 40
1
 10
3994.723559
 20
-1494.098916
 30
0.0
 10
3994.723559
 20
-1494.098916
 30
0.0
 10
4002.661059
 20
-1502.036416
 30
0.0
 10
4002.661059
 20
-1502.036416
 30
0.0
  0
SPLINE
  5
2cb
100
AcDbEntity
  8
0
 62
7
100
AcDbSpline
 70
8
 71
3
 72
8
 73
4
 74
0
 40
0
 40
0
 40
0
 40
0
 40
1
 40
1
 40
1
 40
1
 10
4002.661059
 20
-1502.036416
 30
0.0
 10
4003.452520
 20
-1502.828033
 30
0.0
 10
4004.366394
 20
-1503.486916
 30
0.0
 10
4005.367526
 20
-1503.987718
 30
0.0
  0
LWPOLYLINE
  5
2cc
100
AcDbEntity
  8
0
 62
7
100
AcDbPolyline
 90
2
 70
0
 10
3988.015270
 20
-1473.384937
 30
0.0
 10
3991.984020
 20
-1489.259936
 30
0.0
  0
SPLINE
  5
2cd
100
AcDbEntity
  8
0
 62
7
100
AcDbSpline
 70
8
 71
3
 72
8
 73
4
 74
0
 40
0
 40
0
 40
0
 40
0
 40
1
 40
1
 40
1
 40
1
 10
4013.305025
 20
-1507.956468
 30
0.0
 10
4014.751489
 20
-1508.679640
 30
0.0
 10
4016.346452
 20
-1509.056136
 30
0.0
 10
4017.963621
 20
-1509.056142
 30
0.0
  0
LWPOLYLINE
  5
2ce
100
AcDbEntity
  8
0
 62
7
100
AcDbPolyline
 90
2
 70
0
 10
4005.367526
 20
-1503.987718
 30
0.0
 10
4013.305025
 20
-1507.956468
 30
0.0
  0
SPLINE
  5
2cf
100
AcDbEntity
  8
0
 62
7
100
AcDbSpline
 70
8
 71
3
 72
8
 73
4
 74
0
 40
0
 40
0
 40
0
 40
0
 40
1
 40
1
 40
1
 40
1
 10
4033.838620
 20
-1509.056142
 30
0.0
 10
4035.455789
 20
-1509.056136
 30
0.0
 10
4037.050752
 20
-1508.679640
 30
0.0
 10
4038.497215
 20
-1507.956468
 30
0.0
  0
SPLINE
  5
2d0
100
AcDbEntity
  8
0
 62
7
100
AcDbSpline
 70
8
 71
3
 72
8
 73
4
 74
0
 40
0
 40
0
 40
0
 40
0
 40
1
 40
1
 40
1
 40
1
 10
4038.497215
 20
-1507.956468
 30
0.0
 10
4038.497215
 20
-1507.956468
 30
0.0
 10
4046.434715
 20
-1503.987718
 30
0.0
 10
4046.434715
 20
-1503.987718
 30
0.0
  0
SPLINE
  5
2d1
100
AcDbEntity
  8
0
 62
7
100
AcDbSpline
 70
8
 71
3
 72
8
 73
4
 74
0
 40
0
 40
0
 40
0
 40
0
 40
1
 40
1
 40
1
 40
1
 10
4046.434715
 20
-1503.987718
 30
0.0
 10
4047.435847
 20
-1503.486916
 30
0.0
 10
4048.349721
 20
-1502.828033
 30
0.0
 10
4049.141182
 20
-1502.036416
 30
0.0
  0
SPLINE
  5
2d2
100
AcDbEntity
  8
0
 62
7
100
AcDbSpline
 70
8
 71
3
 72
8
 73
4
 74
0
 40
0
 40
0
 40
0
 40
0
 40
1
 40
1
 40
1
 40
1
 10
4049.141182
 20
-1502.036416
 30
0.0
 10
4049.141182
 20
-1502.036416
 30
0.0
 10
4057.078681
 20
-1494.098916
 30
0.0
 10
4057.078681
 20
-1494.098916
 30
0.0
  0
SPLINE
  5
2d3
100
AcDbEntity
  8
0
 62
7
100
AcDbSpline
 70
8
 71
3
 72
8
 73
4
 74
0
 40
0
 40
0
 40
0
 40
0
 40
1
 40
1
 40
1
 40
1
 10
4057.078681
 20
-1494.098916
 30
0.0
 10
4058.413428
 20
-1492.763931
 30
0.0
 10
4059.360342
 20
-1491.091351
 30
0.0
 10
4059.818221
 20
-1489.259936
 30
0.0
  0
LWPOLYLINE
  5
2d4
100
AcDbEntity
  8
0
 62
7
100
AcDbPolyline
 90
2
 70
0
 10
4017.963621
 20
-1509.056142
 30
0.0
 10
4033.838620
 20
-1509.056142
 30
0.0
  0
SPLINE
  5
2d5
100
AcDbEntity
  8
0
 62
7
100
AcDbSpline
 70
8
 71
3
 72
8
 73
4
 74
0
 40
0
 40
0
 40
0
 40
0
 40
1
 40
1
 40
1
 40
1
 10
4063.786971
 20
-1473.384937
 30
0.0
 10
4063.993673
 20
-1472.558669
 30
0.0
 10
4064.098266
 20
-1471.710171
 30
0.0
 10
4064.098407
 20
-1470.858442
 30
0.0
  0
SPLINE
  5
2d6
100
AcDbEntity
  8
0
 62
7
100
AcDbSpline
 70
8
 71
3
 72
8
 73
4
 74
0
 40
0
 40
0
 40
0
 40
0
 40
1
 40
1
 40
1
 40
1
 10
4064.098407
 20
-1470.858442
 30
0.0
 10
4064.098407
 20
-1470.858442
 30
0.0
 10
4064.098407
 20
-1443.077193
 30
0.0
 10
4064.098407
 20
-1443.077193
 30
0.0
  0
SPLINE
  5
2d7
100
AcDbEntity
  8
0
 62
7
100
AcDbSpline
 70
8
 71
3
 72
8
 73
4
 74
0
 40
0
 40
0
 40
0
 40
0
 40
1
 40
1
 40
1
 40
1
 10
4064.098407
 20
-1443.077193
 30
0.0
 10
4064.098266
 20
-1442.225464
 30
0.0
 10
4063.993673
 20
-1441.376966
 30
0.0
 10
4063.786971
 20
-1440.550698
 30
0.0
  0
SPLINE
  5
2d8
100
AcDbEntity
  8
0
 62
7
100
AcDbSpline
 70
8
 71
3
 72
8
 73
4
 74
0
 40
0
 40
0
 40
0
 40
0
 40
1
 40
1
 40
1
 40
1
 10
4063.786971
 20
-1440.550698
 30
0.0
 10
4063.786971
 20
-1440.550698
 30
0.0
 10
4059.818221
 20
-1424.675699
 30
0.0
 10
4059.818221
 20
-1424.675699
 30
0.0
  0
SPLINE
  5
2d9
100
AcDbEntity
  8
0
 62
7
100
AcDbSpline
 70
8
 71
3
 72
8
 73
4
 74
0
 40
0
 40
0
 40
0
 40
0
 40
1
 40
1
 40
1
 40
1
 10
4059.818221
 20
-1424.675699
 30
0.0
 10
4059.360347
 20
-1422.844274
 30
0.0
 10
4058.413432
 20
-1421.171684
 30
0.0
 10
4057.078681
 20
-1419.836691
 30
0.0
  0
SPLINE
  5
2da
100
AcDbEntity
  8
0
 62
7
100
AcDbSpline
 70
8
 71
3
 72
8
 73
4
 74
0
 40
0
 40
0
 40
0
 40
0
 40
1
 40
1
 40
1
 40
1
 10
4057.078681
 20
-1419.836691
 30
0.0
 10
4057.078681
 20
-1419.836691
 30
0.0
 10
4049.141182
 20
-1411.899191
 30
0.0
 10
4049.141182
 20
-1411.899191
 30
0.0
  0
SPLINE
  5
2db
100
AcDbEntity
  8
0
 62
7
100
AcDbSpline
 70
8
 71
3
 72
8
 73
4
 74
0
 40
0
 40
0
 40
0
 40
0
 40
1
 40
1
 40
1
 40
1
 10
4049.141182
 20
-1411.899191
 30
0.0
 10
4048.349721
 20
-1411.107574
 30
0.0
 10
4047.435847
 20
-1410.448691
 30
0.0
 10
4046.434715
 20
-1409.947890
 30
0.0
  0
LWPOLYLINE
  5
2dc
100
AcDbEntity
  8
0
 62
7
100
AcDbPolyline
 90
2
 70
0
 10
4059.818221
 20
-1489.259936
 30
0.0
 10
4063.786971
 20
-1473.384937
 30
0.0
  0
SPLINE
  5
2dd
100
AcDbEntity
  8
0
 62
7
100
AcDbSpline
 70
8
 71
3
 72
8
 73
4
 74
0
 40
0
 40
0
 40
0
 40
0
 40
1
 40
1
 40
1
 40
1
 10
4038.497215
 20
-1405.979140
 30
0.0
 10
4037.050752
 20
-1405.255967
 30
0.0
 10
4035.455789
 20
-1404.879472
 30
0.0
 10
4033.838620
 20
-1404.879465
 30
0.0
  0
SPLINE
  5
2de
100
AcDbEntity
  8
0
 62
7
100
AcDbSpline
 70
8
 71
3
 72
8
 73
4
 74
0
 40
0
 40
0
 40
0
 40
0
 40
1
 40
1
 40
1
 40
1
 10
4033.838620
 20
-1404.879465
 30
0.0
 10
4033.838620
 20
-1404.879465
 30
0.0
 10
4019.215706
 20
-1404.879465
 30
0.0
 10
4019.215706
 20
-1404.879465
 30
0.0
  0
SPLINE
  5
2df
100
AcDbEntity
  8
0
 62
7
100
AcDbSpline
 70
8
 71
3
 72
8
 73
4
 74
0
 40
0
 40
0
 40
0
 40
0
 40
1
 40
1
 40
1
 40
1
 10
4019.215706
 20
-1404.879465
 30
0.0
 10
4018.815852
 20
-1404.834174
 30
0.0
 10
4018.413710
 20
-1404.812088
 30
0.0
 10
4018.011301
 20
-1404.813320
 30
0.0
  0
LWPOLYLINE
  5
2e0
100
AcDbEntity
  8
0
 62
7
100
AcDbPolyline
 90
2
 70
0
 10
4046.434715
 20
-1409.947890
 30
0.0
 10
4038.497215
 20
-1405.979140
 30
0.0
  0
LWPOLYLINE
  5
2e1
100
AcDbEntity
  8
0
 62
7
100
AcDbPolyline
 90
2
 70
0
 10
4018.011301
 20
-1404.813320
 30
0.0
 10
4018.011577
 20
-1404.813044
 30
0.0
  0
SPLINE
  5
2e2
100
AcDbEntity
  8
0
 62
7
100
AcDbSpline
 70
8
 71
3
 72
8
 73
4
 74
0
 40
0
 40
0
 40
0
 40
0
 40
1
 40
1
 40
1
 40
1
 10
3918.745153
 20
-1404.879713
 30
0.0
 10
3912.992669
 20
-1404.880486
 30
0.0
 10
3908.329565
 20
-1409.543627
 30
0.0
 10
3908.328838
 20
-1415.296111
 30
0.0
  0
SPLINE
  5
2e3
100
AcDbEntity
  8
0
 62
7
100
AcDbSpline
 70
8
 71
3
 72
8
 73
4
 74
0
 40
0
 40
0
 40
0
 40
0
 40
1
 40
1
 40
1
 40
1
 10
3908.328838
 20
-1415.296111
 30
0.0
 10
3908.328838
 20
-1415.296111
 30
0.0
 10
3908.328838
 20
-1457.250150
 30
0.0
 10
3908.328838
 20
-1457.250150
 30
0.0
  0
SPLINE
  5
2e4
100
AcDbEntity
  8
0
 62
7
100
AcDbSpline
 70
8
 71
3
 72
8
 73
4
 74
0
 40
0
 40
0
 40
0
 40
0
 40
1
 40
1
 40
1
 40
1
 10
3908.328838
 20
-1457.250150
 30
0.0
 10
3908.145283
 20
-1458.368008
 30
0.0
 10
3908.145283
 20
-1459.508320
 30
0.0
 10
3908.328838
 20
-1460.626178
 30
0.0
  0
SPLINE
  5
2e5
100
AcDbEntity
  8
0
 62
7
100
AcDbSpline
 70
8
 71
3
 72
8
 73
4
 74
0
 40
0
 40
0
 40
0
 40
0
 40
1
 40
1
 40
1
 40
1
 10
3908.328838
 20
-1460.626178
 30
0.0
 10
3908.328838
 20
-1460.626178
 30
0.0
 10
3908.328838
 20
-1498.639855
 30
0.0
 10
3908.328838
 20
-1498.639855
 30
0.0
  0
SPLINE
  5
2e6
100
AcDbEntity
  8
0
 62
7
100
AcDbSpline
 70
8
 71
3
 72
8
 73
4
 74
0
 40
0
 40
0
 40
0
 40
0
 40
1
 40
1
 40
1
 40
1
 10
3908.328838
 20
-1498.639855
 30
0.0
 10
3908.267178
 20
-1502.401935
 30
0.0
 10
3910.238920
 20
-1505.904929
 30
0.0
 10
3913.487088
 20
-1507.803993
 30
0.0
  0
SPLINE
  5
2e7
100
AcDbEntity
  8
0
 62
7
100
AcDbSpline
 70
8
 71
3
 72
8
 73
4
 74
0
 40
0
 40
0
 40
0
 40
0
 40
1
 40
1
 40
1
 40
1
 10
3913.487088
 20
-1507.803993
 30
0.0
 10
3916.735256
 20
-1509.703058
 30
0.0
 10
3920.755049
 20
-1509.703058
 30
0.0
 10
3924.003217
 20
-1507.803993
 30
0.0
  0
SPLINE
  5
2e8
100
AcDbEntity
  8
0
 62
7
100
AcDbSpline
 70
8
 71
3
 72
8
 73
4
 74
0
 40
0
 40
0
 40
0
 40
0
 40
1
 40
1
 40
1
 40
1
 10
3924.003217
 20
-1507.803993
 30
0.0
 10
3927.251385
 20
-1505.904929
 30
0.0
 10
3929.223128
 20
-1502.401935
 30
0.0
 10
3929.161467
 20
-1498.639855
 30
0.0
  0
LWPOLYLINE
  5
2e9
100
AcDbEntity
  8
0
 62
7
100
AcDbPolyline
 90
16
 70
1
 10
4020.423143
 20
-1425.712535
 30
0.0
 10
4031.379649
 20
-1425.712535
 30
0.0
 10
4035.606367
 20
-1427.826170
 30
0.0
 10
4040.308233
 20
-1432.528229
 30
0.0
 10
4043.266330
 20
-1444.360064
 30
0.0
 10
4043.266330
 20
-1469.576094
 30
0.0
 10
4040.308233
 20
-1481.407930
 30
0.0
 10
4035.606367
 20
-1486.109961
 30
0.0
 10
4031.379649
 20
-1488.223596
 30
0.0
 10
4020.423143
 20
-1488.223596
 30
0.0
 10
4016.196425
 20
-1486.109961
 30
0.0
 10
4011.494559
 20
-1481.407930
 30
0.0
 10
4008.536462
 20
-1469.576094
 30
0.0
 10
4008.536462
 20
-1444.359458
 30
0.0
 10
4011.494559
 20
-1432.527623
 30
0.0
 10
4016.196425
 20
-1427.825564
 30
0.0
  0
SPLINE
  5
2ea
100
AcDbEntity
  8
0
 62
7
100
AcDbSpline
 70
8
 71
3
 72
8
 73
4
 74
0
 40
0
 40
0
 40
0
 40
0
 40
1
 40
1
 40
1
 40
1
 10
3950.495151
 20
-1469.368782
 30
0.0
 10
3952.112320
 20
-1469.368776
 30
0.0
 10
3953.707282
 20
-1468.992281
 30
0.0
 10
3955.153746
 20
-1468.269108
 30
0.0
  0
SPLINE
  5
2eb
100
AcDbEntity
  8
0
 62
7
100
AcDbSpline
 70
8
 71
3
 72
8
 73
4
 74
0
 40
0
 40
0
 40
0
 40
0
 40
1
 40
1
 40
1
 40
1
 10
3955.153746
 20
-1468.269108
 30
0.0
 10
3955.153746
 20
-1468.269108
 30
0.0
 10
3963.091246
 20
-1464.300358
 30
0.0
 10
3963.091246
 20
-1464.300358
 30
0.0
  0
SPLINE
  5
2ec
100
AcDbEntity
  8
0
 62
7
100
AcDbSpline
 70
8
 71
3
 72
8
 73
4
 74
0
 40
0
 40
0
 40
0
 40
0
 40
1
 40
1
 40
1
 40
1
 10
3963.091246
 20
-1464.300358
 30
0.0
 10
3964.092378
 20
-1463.799556
 30
0.0
 10
3965.006252
 20
-1463.140674
 30
0.0
 10
3965.797713
 20
-1462.349056
 30
0.0
  0
SPLINE
  5
2ed
100
AcDbEntity
  8
0
 62
7
100
AcDbSpline
 70
8
 71
3
 72
8
 73
4
 74
0
 40
0
 40
0
 40
0
 40
0
 40
1
 40
1
 40
1
 40
1
 10
3965.797713
 20
-1462.349056
 30
0.0
 10
3965.797713
 20
-1462.349056
 30
0.0
 10
3969.766463
 20
-1458.380307
 30
0.0
 10
3969.766463
 20
-1458.380307
 30
0.0
  0
SPLINE
  5
2ee
100
AcDbEntity
  8
0
 62
7
100
AcDbSpline
 70
8
 71
3
 72
8
 73
4
 74
0
 40
0
 40
0
 40
0
 40
0
 40
1
 40
1
 40
1
 40
1
 10
3969.766463
 20
-1458.380307
 30
0.0
 10
3970.558104
 20
-1457.588762
 30
0.0
 10
3971.216988
 20
-1456.674794
 30
0.0
 10
3971.717764
 20
-1455.673564
 30
0.0
  0
LWPOLYLINE
  5
2ef
100
AcDbEntity
  8
0
 62
7
100
AcDbPolyline
 90
3
 70
0
 10
3929.161467
 20
-1498.639855
 30
0.0
 10
3929.161467
 20
-1469.368782
 30
0.0
 10
3950.495151
 20
-1469.368782
 30
0.0
  0
SPLINE
  5
2f0
100
AcDbEntity
  8
0
 62
7
100
AcDbSpline
 70
8
 71
3
 72
8
 73
4
 74
0
 40
0
 40
0
 40
0
 40
0
 40
1
 40
1
 40
1
 40
1
 10
3975.686514
 20
-1447.736065
 30
0.0
 10
3976.409691
 20
-1446.289592
 30
0.0
 10
3976.786186
 20
-1444.694620
 30
0.0
 10
3976.786189
 20
-1443.077441
 30
0.0
  0
SPLINE
  5
2f1
100
AcDbEntity
  8
0
 62
7
100
AcDbSpline
 70
8
 71
3
 72
8
 73
4
 74
0
 40
0
 40
0
 40
0
 40
0
 40
1
 40
1
 40
1
 40
1
 10
3976.786189
 20
-1443.077441
 30
0.0
 10
3976.786189
 20
-1443.077441
 30
0.0
 10
3976.786189
 20
-1431.171192
 30
0.0
 10
3976.786189
 20
-1431.171192
 30
0.0
  0
SPLINE
  5
2f2
100
AcDbEntity
  8
0
 62
7
100
AcDbSpline
 70
8
 71
3
 72
8
 73
4
 74
0
 40
0
 40
0
 40
0
 40
0
 40
1
 40
1
 40
1
 40
1
 10
3976.786189
 20
-1431.171192
 30
0.0
 10
3976.786186
 20
-1429.554014
 30
0.0
 10
3976.409691
 20
-1427.959041
 30
0.0
 10
3975.686514
 20
-1426.512569
 30
0.0
  0
LWPOLYLINE
  5
2f3
100
AcDbEntity
  8
0
 62
7
100
AcDbPolyline
 90
2
 70
0
 10
3971.717764
 20
-1455.673564
 30
0.0
 10
3975.686514
 20
-1447.736065
 30
0.0
  0
SPLINE
  5
2f4
100
AcDbEntity
  8
0
 62
7
100
AcDbSpline
 70
8
 71
3
 72
8
 73
4
 74
0
 40
0
 40
0
 40
0
 40
0
 40
1
 40
1
 40
1
 40
1
 10
3971.717764
 20
-1418.575070
 30
0.0
 10
3971.216988
 20
-1417.573840
 30
0.0
 10
3970.558104
 20
-1416.659871
 30
0.0
 10
3969.766463
 20
-1415.868327
 30
0.0
  0
SPLINE
  5
2f5
100
AcDbEntity
  8
0
 62
7
100
AcDbSpline
 70
8
 71
3
 72
8
 73
4
 74
0
 40
0
 40
0
 40
0
 40
0
 40
1
 40
1
 40
1
 40
1
 10
3969.766463
 20
-1415.868327
 30
0.0
 10
3969.766463
 20
-1415.868327
 30
0.0
 10
3965.797713
 20
-1411.899577
 30
0.0
 10
3965.797713
 20
-1411.899577
 30
0.0
  0
SPLINE
  5
2f6
100
AcDbEntity
  8
0
 62
7
100
AcDbSpline
 70
8
 71
3
 72
8
 73
4
 74
0
 40
0
 40
0
 40
0
 40
0
 40
1
 40
1
 40
1
 40
1
 10
3965.797713
 20
-1411.899577
 30
0.0
 10
3965.006252
 20
-1411.107960
 30
0.0
 10
3964.092378
 20
-1410.449077
 30
0.0
 10
3963.091246
 20
-1409.948275
 30
0.0
  0
SPLINE
  5
2f7
100
AcDbEntity
  8
0
 62
7
100
AcDbSpline
 70
8
 71
3
 72
8
 73
4
 74
0
 40
0
 40
0
 40
0
 40
0
 40
1
 40
1
 40
1
 40
1
 10
3963.091246
 20
-1409.948275
 30
0.0
 10
3963.091246
 20
-1409.948275
 30
0.0
 10
3955.153746
 20
-1405.979526
 30
0.0
 10
3955.153746
 20
-1405.979526
 30
0.0
  0
SPLINE
  5
2f8
100
AcDbEntity
  8
0
 62
7
100
AcDbSpline
 70
8
 71
3
 72
8
 73
4
 74
0
 40
0
 40
0
 40
0
 40
0
 40
1
 40
1
 40
1
 40
1
 10
3955.153746
 20
-1405.979526
 30
0.0
 10
3953.707282
 20
-1405.256353
 30
0.0
 10
3952.112320
 20
-1404.879858
 30
0.0
 10
3950.495151
 20
-1404.879851
 30
0.0
  0
LWPOLYLINE
  5
2f9
100
AcDbEntity
  8
0
 62
7
100
AcDbPolyline
 90
2
 70
0
 10
3975.686514
 20
-1426.512569
 30
0.0
 10
3971.717764
 20
-1418.575070
 30
0.0
  0
LWPOLYLINE
  5
2fa
100
AcDbEntity
  8
0
 62
7
100
AcDbPolyline
 90
2
 70
0
 10
3950.495151
 20
-1404.879851
 30
0.0
 10
3918.745153
 20
-1404.879713
 30
0.0
  0
SPLINE
  5
2fb
100
AcDbEntity
  8
0
 62
7
100
AcDbSpline
 70
8
 71
3
 72
8
 73
4
 74
0
 40
0
 40
0
 40
0
 40
0
 40
1
 40
1
 40
1
 40
1
 10
3851.276407
 20
-1404.879713
 30
0.0
 10
3849.659238
 20
-1404.879720
 30
0.0
 10
3848.064275
 20
-1405.256215
 30
0.0
 10
3846.617812
 20
-1405.979388
 30
0.0
  0
LWPOLYLINE
  5
2fc
100
AcDbEntity
  8
0
 62
7
100
AcDbPolyline
 90
10
 70
1
 10
3929.161467
 20
-1425.712535
 30
0.0
 10
3948.035904
 20
-1425.712535
 30
0.0
 10
3952.262622
 20
-1427.826170
 30
0.0
 10
3953.839098
 20
-1429.403748
 30
0.0
 10
3955.953009
 20
-1433.630356
 30
0.0
 10
3955.953009
 20
-1440.618057
 30
0.0
 10
3953.839098
 20
-1444.844665
 30
0.0
 10
3952.262622
 20
-1446.422243
 30
0.0
 10
3948.035904
 20
-1448.535878
 30
0.0
 10
3929.161467
 20
-1448.535878
 30
0.0
  0
SPLINE
  5
2fd
100
AcDbEntity
  8
0
 62
7
100
AcDbSpline
 70
8
 71
3
 72
8
 73
4
 74
0
 40
0
 40
0
 40
0
 40
0
 40
1
 40
1
 40
1
 40
1
 10
3838.680312
 20
-1409.948138
 30
0.0
 10
3837.679180
 20
-1410.448939
 30
0.0
 10
3836.765306
 20
-1411.107822
 30
0.0
 10
3835.973845
 20
-1411.899440
 30
0.0
  0
LWPOLYLINE
  5
2fe
100
AcDbEntity
  8
0
 62
7
100
AcDbPolyline
 90
2
 70
0
 10
3846.617812
 20
-1405.979388
 30
0.0
 10
3838.680312
 20
-1409.948138
 30
0.0
  0
SPLINE
  5
2ff
100
AcDbEntity
  8
0
 62
7
100
AcDbSpline
 70
8
 71
3
 72
8
 73
4
 74
0
 40
0
 40
0
 40
0
 40
0
 40
1
 40
1
 40
1
 40
1
 10
3832.005095
 20
-1415.868189
 30
0.0
 10
3831.213454
 20
-1416.659733
 30
0.0
 10
3830.554570
 20
-1417.573702
 30
0.0
 10
3830.053794
 20
-1418.574932
 30
0.0
  0
LWPOLYLINE
  5
300
100
AcDbEntity
  8
0
 62
7
100
AcDbPolyline
 90
2
 70
0
 10
3835.973845
 20
-1411.899440
 30
0.0
 10
3832.005095
 20
-1415.868189
 30
0.0
  0
SPLINE
  5
301
100
AcDbEntity
  8
0
 62
7
100
AcDbSpline
 70
8
 71
3
 72
8
 73
4
 74
0
 40
0
 40
0
 40
0
 40
0
 40
1
 40
1
 40
1
 40
1
 10
3826.085044
 20
-1426.512431
 30
0.0
 10
3825.361867
 20
-1427.958903
 30
0.0
 10
3824.985372
 20
-1429.553876
 30
0.0
 10
3824.985369
 20
-1431.171054
 30
0.0
  0
SPLINE
  5
302
100
AcDbEntity
  8
0
 62
7
100
AcDbSpline
 70
8
 71
3
 72
8
 73
4
 74
0
 40
0
 40
0
 40
0
 40
0
 40
1
 40
1
 40
1
 40
1
 10
3824.985369
 20
-1431.171054
 30
0.0
 10
3824.985369
 20
-1431.171054
 30
0.0
 10
3824.985369
 20
-1439.108554
 30
0.0
 10
3824.985369
 20
-1439.108554
 30
0.0
  0
SPLINE
  5
303
100
AcDbEntity
  8
0
 62
7
100
AcDbSpline
 70
8
 71
3
 72
8
 73
4
 74
0
 40
0
 40
0
 40
0
 40
0
 40
1
 40
1
 40
1
 40
1
 10
3824.985369
 20
-1439.108554
 30
0.0
 10
3824.985372
 20
-1440.725733
 30
0.0
 10
3825.361867
 20
-1442.320705
 30
0.0
 10
3826.085044
 20
-1443.767177
 30
0.0
  0
LWPOLYLINE
  5
304
100
AcDbEntity
  8
0
 62
7
100
AcDbPolyline
 90
2
 70
0
 10
3830.053794
 20
-1418.574932
 30
0.0
 10
3826.085044
 20
-1426.512431
 30
0.0
  0
SPLINE
  5
305
100
AcDbEntity
  8
0
 62
7
100
AcDbSpline
 70
8
 71
3
 72
8
 73
4
 74
0
 40
0
 40
0
 40
0
 40
0
 40
1
 40
1
 40
1
 40
1
 10
3830.053794
 20
-1451.704677
 30
0.0
 10
3830.554570
 20
-1452.705906
 30
0.0
 10
3831.213454
 20
-1453.619875
 30
0.0
 10
3832.005095
 20
-1454.411419
 30
0.0
  0
SPLINE
  5
306
100
AcDbEntity
  8
0
 62
7
100
AcDbSpline
 70
8
 71
3
 72
8
 73
4
 74
0
 40
0
 40
0
 40
0
 40
0
 40
1
 40
1
 40
1
 40
1
 10
3832.005095
 20
-1454.411419
 30
0.0
 10
3832.005095
 20
-1454.411419
 30
0.0
 10
3835.973845
 20
-1458.380169
 30
0.0
 10
3835.973845
 20
-1458.380169
 30
0.0
  0
SPLINE
  5
307
100
AcDbEntity
  8
0
 62
7
100
AcDbSpline
 70
8
 71
3
 72
8
 73
4
 74
0
 40
0
 40
0
 40
0
 40
0
 40
1
 40
1
 40
1
 40
1
 10
3835.973845
 20
-1458.380169
 30
0.0
 10
3836.765306
 20
-1459.171786
 30
0.0
 10
3837.679180
 20
-1459.830669
 30
0.0
 10
3838.680312
 20
-1460.331471
 30
0.0
  0
LWPOLYLINE
  5
308
100
AcDbEntity
  8
0
 62
7
100
AcDbPolyline
 90
2
 70
0
 10
3826.085044
 20
-1443.767177
 30
0.0
 10
3830.053794
 20
-1451.704677
 30
0.0
  0
SPLINE
  5
309
100
AcDbEntity
  8
0
 62
7
100
AcDbSpline
 70
8
 71
3
 72
8
 73
4
 74
0
 40
0
 40
0
 40
0
 40
0
 40
1
 40
1
 40
1
 40
1
 10
3846.617812
 20
-1464.300220
 30
0.0
 10
3847.297950
 20
-1464.640309
 30
0.0
 10
3848.013280
 20
-1464.904907
 30
0.0
 10
3848.751015
 20
-1465.089285
 30
0.0
  0
LWPOLYLINE
  5
30a
100
AcDbEntity
  8
0
 62
7
100
AcDbPolyline
 90
2
 70
0
 10
3838.680312
 20
-1460.331471
 30
0.0
 10
3846.617812
 20
-1464.300220
 30
0.0
  0
SPLINE
  5
30b
100
AcDbEntity
  8
0
 62
7
100
AcDbSpline
 70
8
 71
3
 72
8
 73
4
 74
0
 40
0
 40
0
 40
0
 40
0
 40
1
 40
1
 40
1
 40
1
 10
3838.696297
 20
-1484.788615
 30
0.0
 10
3835.148411
 20
-1483.547140
 30
0.0
 10
3831.206863
 20
-1484.313167
 30
0.0
 10
3828.382224
 20
-1486.793121
 30
0.0
  0
SPLINE
  5
30c
100
AcDbEntity
  8
0
 62
7
100
AcDbSpline
 70
8
 71
3
 72
8
 73
4
 74
0
 40
0
 40
0
 40
0
 40
0
 40
1
 40
1
 40
1
 40
1
 10
3828.382224
 20
-1486.793121
 30
0.0
 10
3825.557586
 20
-1489.273075
 30
0.0
 10
3824.287922
 20
-1493.082348
 30
0.0
 10
3825.059823
 20
-1496.761060
 30
0.0
  0
SPLINE
  5
30d
100
AcDbEntity
  8
0
 62
7
100
AcDbSpline
 70
8
 71
3
 72
8
 73
4
 74
0
 40
0
 40
0
 40
0
 40
0
 40
1
 40
1
 40
1
 40
1
 10
3825.059823
 20
-1496.761060
 30
0.0
 10
3825.831725
 20
-1500.439772
 30
0.0
 10
3828.525480
 20
-1503.417404
 30
0.0
 10
3832.108724
 20
-1504.552796
 30
0.0
  0
SPLINE
  5
30e
100
AcDbEntity
  8
0
 62
7
100
AcDbSpline
 70
8
 71
3
 72
8
 73
4
 74
0
 40
0
 40
0
 40
0
 40
0
 40
1
 40
1
 40
1
 40
1
 10
3832.108724
 20
-1504.552796
 30
0.0
 10
3832.108724
 20
-1504.552796
 30
0.0
 10
3844.014973
 20
-1508.521546
 30
0.0
 10
3844.014973
 20
-1508.521546
 30
0.0
  0
SPLINE
  5
30f
100
AcDbEntity
  8
0
 62
7
100
AcDbSpline
 70
8
 71
3
 72
8
 73
4
 74
0
 40
0
 40
0
 40
0
 40
0
 40
1
 40
1
 40
1
 40
1
 10
3844.014973
 20
-1508.521546
 30
0.0
 10
3845.077056
 20
-1508.875502
 30
0.0
 10
3846.189249
 20
-1509.055951
 30
0.0
 10
3847.308760
 20
-1509.055949
 30
0.0
  0
SPLINE
  5
310
100
AcDbEntity
  8
0
 62
7
100
AcDbSpline
 70
8
 71
3
 72
8
 73
4
 74
0
 40
0
 40
0
 40
0
 40
0
 40
1
 40
1
 40
1
 40
1
 10
3847.308760
 20
-1509.055949
 30
0.0
 10
3847.308760
 20
-1509.055949
 30
0.0
 10
3867.152509
 20
-1509.055949
 30
0.0
 10
3867.152509
 20
-1509.055949
 30
0.0
  0
SPLINE
  5
311
100
AcDbEntity
  8
0
 62
7
100
AcDbSpline
 70
8
 71
3
 72
8
 73
4
 74
0
 40
0
 40
0
 40
0
 40
0
 40
1
 40
1
 40
1
 40
1
 10
3867.152509
 20
-1509.055949
 30
0.0
 10
3868.769678
 20
-1509.055943
 30
0.0
 10
3870.364640
 20
-1508.679447
 30
0.0
 10
3871.811104
 20
-1507.956275
 30
0.0
  0
LWPOLYLINE
  5
312
100
AcDbEntity
  8
0
 62
7
100
AcDbPolyline
 90
11
 70
0
 10
3848.751015
 20
-1465.089285
 30
0.0
 10
3863.516693
 20
-1468.780553
 30
0.0
 10
3868.919980
 20
-1471.482059
 30
0.0
 10
3870.496456
 20
-1473.059637
 30
0.0
 10
3872.610366
 20
-1477.286245
 30
0.0
 10
3872.610366
 20
-1480.305196
 30
0.0
 10
3870.496456
 20
-1484.531832
 30
0.0
 10
3868.919980
 20
-1486.109410
 30
0.0
 10
3864.693262
 20
-1488.223045
 30
0.0
 10
3848.999061
 20
-1488.223045
 30
0.0
 10
3838.696297
 20
-1484.788615
 30
0.0
  0
SPLINE
  5
313
100
AcDbEntity
  8
0
 62
7
100
AcDbSpline
 70
8
 71
3
 72
8
 73
4
 74
0
 40
0
 40
0
 40
0
 40
0
 40
1
 40
1
 40
1
 40
1
 10
3879.748604
 20
-1503.987525
 30
0.0
 10
3880.749736
 20
-1503.486723
 30
0.0
 10
3881.663610
 20
-1502.827840
 30
0.0
 10
3882.455071
 20
-1502.036223
 30
0.0
  0
LWPOLYLINE
  5
314
100
AcDbEntity
  8
0
 62
7
100
AcDbPolyline
 90
2
 70
0
 10
3871.811104
 20
-1507.956275
 30
0.0
 10
3879.748604
 20
-1503.987525
 30
0.0
  0
SPLINE
  5
315
100
AcDbEntity
  8
0
 62
7
100
AcDbSpline
 70
8
 71
3
 72
8
 73
4
 74
0
 40
0
 40
0
 40
0
 40
0
 40
1
 40
1
 40
1
 40
1
 10
3886.423820
 20
-1498.067473
 30
0.0
 10
3887.215462
 20
-1497.275929
 30
0.0
 10
3887.874346
 20
-1496.361961
 30
0.0
 10
3888.375122
 20
-1495.360731
 30
0.0
  0
LWPOLYLINE
  5
316
100
AcDbEntity
  8
0
 62
7
100
AcDbPolyline
 90
2
 70
0
 10
3882.455071
 20
-1502.036223
 30
0.0
 10
3886.423820
 20
-1498.067473
 30
0.0
  0
SPLINE
  5
317
100
AcDbEntity
  8
0
 62
7
100
AcDbSpline
 70
8
 71
3
 72
8
 73
4
 74
0
 40
0
 40
0
 40
0
 40
0
 40
1
 40
1
 40
1
 40
1
 10
3892.343872
 20
-1487.423231
 30
0.0
 10
3893.067053
 20
-1485.976751
 30
0.0
 10
3893.443548
 20
-1484.381769
 30
0.0
 10
3893.443546
 20
-1482.764581
 30
0.0
  0
SPLINE
  5
318
100
AcDbEntity
  8
0
 62
7
100
AcDbSpline
 70
8
 71
3
 72
8
 73
4
 74
0
 40
0
 40
0
 40
0
 40
0
 40
1
 40
1
 40
1
 40
1
 10
3893.443546
 20
-1482.764581
 30
0.0
 10
3893.443546
 20
-1482.764581
 30
0.0
 10
3893.443546
 20
-1474.827081
 30
0.0
 10
3893.443546
 20
-1474.827081
 30
0.0
  0
SPLINE
  5
319
100
AcDbEntity
  8
0
 62
7
100
AcDbSpline
 70
8
 71
3
 72
8
 73
4
 74
0
 40
0
 40
0
 40
0
 40
0
 40
1
 40
1
 40
1
 40
1
 10
3893.443546
 20
-1474.827081
 30
0.0
 10
3893.443544
 20
-1473.209902
 30
0.0
 10
3893.067049
 20
-1471.614930
 30
0.0
 10
3892.343872
 20
-1470.168458
 30
0.0
  0
SPLINE
  5
31a
100
AcDbEntity
  8
0
 62
7
100
AcDbSpline
 70
8
 71
3
 72
8
 73
4
 74
0
 40
0
 40
0
 40
0
 40
0
 40
1
 40
1
 40
1
 40
1
 10
3892.343872
 20
-1470.168458
 30
0.0
 10
3892.343872
 20
-1470.168458
 30
0.0
 10
3888.375122
 20
-1462.230958
 30
0.0
 10
3888.375122
 20
-1462.230958
 30
0.0
  0
SPLINE
  5
31b
100
AcDbEntity
  8
0
 62
7
100
AcDbSpline
 70
8
 71
3
 72
8
 73
4
 74
0
 40
0
 40
0
 40
0
 40
0
 40
1
 40
1
 40
1
 40
1
 10
3888.375122
 20
-1462.230958
 30
0.0
 10
3887.874346
 20
-1461.229729
 30
0.0
 10
3887.215462
 20
-1460.315760
 30
0.0
 10
3886.423820
 20
-1459.524216
 30
0.0
  0
LWPOLYLINE
  5
31c
100
AcDbEntity
  8
0
 62
7
100
AcDbPolyline
 90
2
 70
0
 10
3888.375122
 20
-1495.360731
 30
0.0
 10
3892.343872
 20
-1487.423231
 30
0.0
  0
SPLINE
  5
31d
100
AcDbEntity
  8
0
 62
7
100
AcDbSpline
 70
8
 71
3
 72
8
 73
4
 74
0
 40
0
 40
0
 40
0
 40
0
 40
1
 40
1
 40
1
 40
1
 10
3882.455071
 20
-1455.555466
 30
0.0
 10
3881.663610
 20
-1454.763849
 30
0.0
 10
3880.749736
 20
-1454.104966
 30
0.0
 10
3879.748604
 20
-1453.604164
 30
0.0
  0
LWPOLYLINE
  5
31e
100
AcDbEntity
  8
0
 62
7
100
AcDbPolyline
 90
2
 70
0
 10
3886.423820
 20
-1459.524216
 30
0.0
 10
3882.455071
 20
-1455.555466
 30
0.0
  0
SPLINE
  5
31f
100
AcDbEntity
  8
0
 62
7
100
AcDbSpline
 70
8
 71
3
 72
8
 73
4
 74
0
 40
0
 40
0
 40
0
 40
0
 40
1
 40
1
 40
1
 40
1
 10
3871.811104
 20
-1449.635415
 30
0.0
 10
3871.130966
 20
-1449.295326
 30
0.0
 10
3870.415636
 20
-1449.030728
 30
0.0
 10
3869.677901
 20
-1448.846350
 30
0.0
  0
LWPOLYLINE
  5
320
100
AcDbEntity
  8
0
 62
7
100
AcDbPolyline
 90
2
 70
0
 10
3879.748604
 20
-1453.604164
 30
0.0
 10
3871.811104
 20
-1449.635415
 30
0.0
  0
SPLINE
  5
321
100
AcDbEntity
  8
0
 62
7
100
AcDbSpline
 70
8
 71
3
 72
8
 73
4
 74
0
 40
0
 40
0
 40
0
 40
0
 40
1
 40
1
 40
1
 40
1
 10
3879.732618
 20
-1429.147047
 30
0.0
 10
3883.280597
 20
-1430.388891
 30
0.0
 10
3887.222434
 20
-1429.623039
 30
0.0
 10
3890.047300
 20
-1427.143028
 30
0.0
  0
SPLINE
  5
322
100
AcDbEntity
  8
0
 62
7
100
AcDbSpline
 70
8
 71
3
 72
8
 73
4
 74
0
 40
0
 40
0
 40
0
 40
0
 40
1
 40
1
 40
1
 40
1
 10
3890.047300
 20
-1427.143028
 30
0.0
 10
3892.872166
 20
-1424.663016
 30
0.0
 10
3894.141911
 20
-1420.853507
 30
0.0
 10
3893.369865
 20
-1417.174612
 30
0.0
  0
SPLINE
  5
323
100
AcDbEntity
  8
0
 62
7
100
AcDbSpline
 70
8
 71
3
 72
8
 73
4
 74
0
 40
0
 40
0
 40
0
 40
0
 40
1
 40
1
 40
1
 40
1
 10
3893.369865
 20
-1417.174612
 30
0.0
 10
3892.597819
 20
-1413.495716
 30
0.0
 10
3889.903730
 20
-1410.518050
 30
0.0
 10
3886.320192
 20
-1409.382894
 30
0.0
  0
SPLINE
  5
324
100
AcDbEntity
  8
0
 62
7
100
AcDbSpline
 70
8
 71
3
 72
8
 73
4
 74
0
 40
0
 40
0
 40
0
 40
0
 40
1
 40
1
 40
1
 40
1
 10
3886.320192
 20
-1409.382894
 30
0.0
 10
3886.320192
 20
-1409.382894
 30
0.0
 10
3874.413943
 20
-1405.414144
 30
0.0
 10
3874.413943
 20
-1405.414144
 30
0.0
  0
SPLINE
  5
325
100
AcDbEntity
  8
0
 62
7
100
AcDbSpline
 70
8
 71
3
 72
8
 73
4
 74
0
 40
0
 40
0
 40
0
 40
0
 40
1
 40
1
 40
1
 40
1
 10
3874.413943
 20
-1405.414144
 30
0.0
 10
3873.351860
 20
-1405.060188
 30
0.0
 10
3872.239667
 20
-1404.879739
 30
0.0
 10
3871.120156
 20
-1404.879741
 30
0.0
  0
LWPOLYLINE
  5
326
100
AcDbEntity
  8
0
 62
7
100
AcDbPolyline
 90
11
 70
0
 10
3869.677901
 20
-1448.846350
 30
0.0
 10
3854.912223
 20
-1445.155109
 30
0.0
 10
3849.508935
 20
-1442.453604
 30
0.0
 10
3847.932460
 20
-1440.876026
 30
0.0
 10
3845.818549
 20
-1436.649417
 30
0.0
 10
3845.818549
 20
-1433.630467
 30
0.0
 10
3847.932460
 20
-1429.403858
 30
0.0
 10
3849.508935
 20
-1427.826280
 30
0.0
 10
3853.735654
 20
-1425.712645
 30
0.0
 10
3869.429579
 20
-1425.712645
 30
0.0
 10
3879.732618
 20
-1429.147047
 30
0.0
  0
LWPOLYLINE
  5
327
100
AcDbEntity
  8
0
 62
7
100
AcDbPolyline
 90
2
 70
0
 10
3871.120156
 20
-1404.879741
 30
0.0
 10
3851.276407
 20
-1404.879713
 30
0.0
  0
ENDSEC
  0
SECTION
  2
OBJECTS
  0
DICTIONARY
  5
C
330
0
100
AcDbDictionary
  3
ACAD_GROUP
350
D
  3
ACAD_MLINESTYLE
350
17
  0
DICTIONARY
  5
D
330
C
100
AcDbDictionary
  0
DICTIONARY
  5
1A
330
C
100
AcDbDictionary
  0
DICTIONARY
  5
17
330
C
100
AcDbDictionary
  3
STANDARD
350
18
  0
DICTIONARY
  5
19
330
C
100
AcDbDictionary
  0
ENDSEC
  0
EOF
