<?xml version="1.0" encoding="UTF-8" standalone="no"?>
<svg
   xmlns:dc="http://purl.org/dc/elements/1.1/"
   xmlns:cc="http://creativecommons.org/ns#"
   xmlns:rdf="http://www.w3.org/1999/02/22-rdf-syntax-ns#"
   xmlns:svg="http://www.w3.org/2000/svg"
   xmlns="http://www.w3.org/2000/svg"
   xmlns:sodipodi="http://sodipodi.sourceforge.net/DTD/sodipodi-0.dtd"
   xmlns:inkscape="http://www.inkscape.org/namespaces/inkscape"
   version="1.1"
   width="4cm"
   height="2.3499999cm"
   viewBox="0 0 15748.031 9251.9678"
   id="svg368"
   sodipodi:docname="POxiM-wristcomputer-segments.svg"
   inkscape:version="0.92.2 5c3e80d, 2017-08-06">
  <metadata
     id="metadata374">
    <rdf:RDF>
      <cc:Work
         rdf:about="">
        <dc:format>image/svg+xml</dc:format>
        <dc:type
           rdf:resource="http://purl.org/dc/dcmitype/StillImage" />
        <dc:title>SVG Picture created as POxiM-wristcomputer-brd.svg date 2020/05/15 16:35:02 </dc:title>
      </cc:Work>
    </rdf:RDF>
  </metadata>
  <defs
     id="defs372" />
  <sodipodi:namedview
     pagecolor="#ffffff"
     bordercolor="#666666"
     borderopacity="1"
     objecttolerance="10"
     gridtolerance="10"
     guidetolerance="10"
     inkscape:pageopacity="0"
     inkscape:pageshadow="2"
     inkscape:window-width="1441"
     inkscape:window-height="803"
     id="namedview370"
     showgrid="false"
     showguides="false"
     fit-margin-top="0"
     fit-margin-left="0"
     fit-margin-right="0"
     fit-margin-bottom="0"
     inkscape:zoom="3.1866253"
     inkscape:cx="109.01253"
     inkscape:cy="47.510398"
     inkscape:window-x="0"
     inkscape:window-y="0"
     inkscape:window-maximized="0"
     inkscape:current-layer="svg368" />
  <title
     id="title2">SVG Picture created as POxiM-wristcomputer-brd.svg date 2020/05/15 16:35:02 </title>
  <desc
     id="desc4">Picture generated by PCBNEW </desc>
  <g
     style="fill:#000000;fill-opacity:1;stroke:#000000;stroke-linecap:round;stroke-linejoin:round;stroke-opacity:1"
     id="g6"
     transform="translate(-1023,-1152.0324)" />
  <g
     style="fill:#000000;fill-opacity:0;stroke:#000000;stroke-width:-0.0003937;stroke-linecap:round;stroke-linejoin:round;stroke-opacity:1"
     id="g8"
     transform="translate(-1023,-1152.0324)" />
  <g
     style="fill:#000000;fill-opacity:0;stroke:#000000;stroke-width:787.40197754;stroke-linecap:round;stroke-linejoin:round;stroke-opacity:1"
     id="g10"
     transform="translate(-1023,-1152.0324)" />
  <g
     style="fill:#000000;fill-opacity:1;stroke:#000000;stroke-width:0;stroke-linecap:round;stroke-linejoin:round;stroke-opacity:1"
     id="g14"
     transform="translate(-1023,-1152.0324)" />
  <g
     style="fill:#000000;fill-opacity:0;stroke:#000000;stroke-width:0;stroke-linecap:round;stroke-linejoin:round;stroke-opacity:1"
     id="g16"
     transform="translate(-1023,-1152.0324)" />
  <g
     style="fill:#000000;fill-opacity:0;stroke:#000000;stroke-width:78.74019623;stroke-linecap:round;stroke-linejoin:round;stroke-opacity:1"
     id="g26"
     transform="translate(-1023,-1152.0324)" />
  <g
     style="fill:#000000;fill-opacity:0;stroke:#000000;stroke-width:59.05509949;stroke-linecap:round;stroke-linejoin:round;stroke-opacity:1"
     id="g34"
     transform="translate(-1023,-1152.0324)" />
  <g
     style="fill:#000000;fill-opacity:0;stroke:#000000;stroke-width:39.37009811;stroke-linecap:round;stroke-linejoin:round;stroke-opacity:1"
     id="g36"
     transform="translate(-1023,-1152.0324)" />
  <path
     id="path78"
     transform="scale(104.16666)"
     style="fill:#000000;fill-opacity:1;fill-rule:evenodd;stroke:#000000;stroke-width:0;stroke-linecap:round;stroke-linejoin:round;stroke-opacity:1;stroke-miterlimit:4;stroke-dasharray:none"
     d="m 19.824219,11.148438 a 0.18899538,0.18899538 0 0 0 -0.115235,0.05469 l -2.841796,2.841797 a 0.18899538,0.18899538 0 0 0 0.002,0.267578 l 2.839843,2.832031 a 0.18899538,0.18899538 0 0 0 0.134766,0.05469 h 22.673828 a 0.18899538,0.18899538 0 0 0 0.134766,-0.05469 L 45.484375,14.3125 a 0.18899538,0.18899538 0 0 0 0,-0.267578 l -2.832031,-2.841797 a 0.18899538,0.18899538 0 0 0 -0.134766,-0.05469 H 19.84375 a 0.18899538,0.18899538 0 0 0 -0.01953,0 z m 44.410156,0 a 0.18899538,0.18899538 0 0 0 -0.115234,0.05469 l -2.841797,2.841797 a 0.18899538,0.18899538 0 0 0 0,0.267578 l 2.841797,2.832031 a 0.18899538,0.18899538 0 0 0 0.132812,0.05469 H 86.927734 A 0.18899538,0.18899538 0 0 0 87.0625,17.144531 L 89.894531,14.3125 a 0.18899538,0.18899538 0 0 0 0,-0.267578 L 87.0625,11.203125 a 0.18899538,0.18899538 0 0 0 -0.134766,-0.05469 H 64.251953 a 0.18899538,0.18899538 0 0 0 -0.01758,0 z m 44.408205,0 a 0.18899538,0.18899538 0 0 0 -0.11328,0.05469 l -2.8418,2.841797 a 0.18899538,0.18899538 0 0 0 0,0.267578 l 2.8418,2.832031 a 0.18899538,0.18899538 0 0 0 0.13281,0.05469 h 22.67578 a 0.18899538,0.18899538 0 0 0 0.13281,-0.05469 l 2.83203,-2.832031 a 0.18899538,0.18899538 0 0 0 0,-0.267578 l -2.83203,-2.841797 a 0.18899538,0.18899538 0 0 0 -0.13281,-0.05469 h -22.67578 a 0.18899538,0.18899538 0 0 0 -0.0195,0 z m -92.603518,3.783203 a 0.18899538,0.18899538 0 0 0 -0.111328,0.05469 l -2.832031,2.832031 a 0.18899538,0.18899538 0 0 0 -0.05664,0.132813 v 22.685547 a 0.18899538,0.18899538 0 0 0 0.05664,0.132812 l 2.832031,2.832031 a 0.18899538,0.18899538 0 0 0 0.267578,0 l 2.832032,-2.832031 a 0.18899538,0.18899538 0 0 0 0.05469,-0.132812 v -22.68555 a 0.18899538,0.18899538 0 0 0 -0.05469,-0.132813 l -2.832032,-2.832031 a 0.18899538,0.18899538 0 0 0 -0.136718,-0.05469 0.18899538,0.18899538 0 0 0 -0.01953,0 z m 30.230469,0 a 0.18899538,0.18899538 0 0 0 -0.111328,0.05469 l -2.832031,2.832031 a 0.18899538,0.18899538 0 0 0 -0.05664,0.132813 v 22.685547 a 0.18899538,0.18899538 0 0 0 0.05664,0.132812 l 2.832031,2.832031 a 0.18899538,0.18899538 0 0 0 0.265625,0 l 2.841797,-2.832031 a 0.18899538,0.18899538 0 0 0 0.05664,-0.132812 v -22.68555 a 0.18899538,0.18899538 0 0 0 -0.05664,-0.132813 l -2.841797,-2.832031 a 0.18899538,0.18899538 0 0 0 -0.134766,-0.05469 0.18899538,0.18899538 0 0 0 -0.01953,0 z m 14.179688,0 a 0.18899538,0.18899538 0 0 0 -0.113281,0.05469 l -2.832032,2.832031 a 0.18899538,0.18899538 0 0 0 -0.05469,0.132813 v 22.685547 a 0.18899538,0.18899538 0 0 0 0.05469,0.132812 l 2.832032,2.832031 a 0.18899538,0.18899538 0 0 0 0.267578,0 l 2.832031,-2.832031 a 0.18899538,0.18899538 0 0 0 0.05664,-0.132812 v -22.68555 a 0.18899538,0.18899538 0 0 0 -0.05664,-0.132813 l -2.832031,-2.832031 a 0.18899538,0.18899538 0 0 0 -0.136719,-0.05469 0.18899538,0.18899538 0 0 0 -0.01758,0 z m 30.230469,0 a 0.18899538,0.18899538 0 0 0 -0.113282,0.05469 l -2.832031,2.832031 a 0.18899538,0.18899538 0 0 0 -0.05469,0.132813 v 22.685547 a 0.18899538,0.18899538 0 0 0 0.05469,0.132812 l 2.832031,2.832031 a 0.18899538,0.18899538 0 0 0 0.267578,0 l 2.841797,-2.832031 a 0.18899538,0.18899538 0 0 0 0.05469,-0.132812 v -22.68555 a 0.18899538,0.18899538 0 0 0 -0.05469,-0.132813 l -2.841797,-2.832031 a 0.18899538,0.18899538 0 0 0 -0.136718,-0.05469 0.18899538,0.18899538 0 0 0 -0.01758,0 z m 14.177732,0 a 0.18899538,0.18899538 0 0 0 -0.11133,0.05469 l -2.83203,2.832031 a 0.18899538,0.18899538 0 0 0 -0.0547,0.132813 v 22.685547 a 0.18899538,0.18899538 0 0 0 0.0547,0.132812 l 2.83203,2.832031 a 0.18899538,0.18899538 0 0 0 0.26758,0 l 2.83203,-2.832031 a 0.18899538,0.18899538 0 0 0 0.0547,-0.132812 v -22.68555 a 0.18899538,0.18899538 0 0 0 -0.0547,-0.132813 l -2.83203,-2.832031 a 0.18899538,0.18899538 0 0 0 -0.13672,-0.05469 0.18899538,0.18899538 0 0 0 -0.0195,0 z m 30.23047,0 a 0.18899538,0.18899538 0 0 0 -0.11133,0.05469 l -2.83203,2.832031 a 0.18899538,0.18899538 0 0 0 -0.0547,0.132813 v 22.685547 a 0.18899538,0.18899538 0 0 0 0.0547,0.132812 l 2.83203,2.832031 a 0.18899538,0.18899538 0 0 0 0.26758,0 l 2.8418,-2.832031 a 0.18899538,0.18899538 0 0 0 0.0547,-0.132812 v -22.68555 a 0.18899538,0.18899538 0 0 0 -0.0547,-0.132813 l -2.8418,-2.832031 a 0.18899538,0.18899538 0 0 0 -0.13672,-0.05469 0.18899538,0.18899538 0 0 0 -0.0195,0 z M 19.824219,41.388672 a 0.18899538,0.18899538 0 0 0 -0.115235,0.05469 l -2.839843,2.832032 a 0.18899538,0.18899538 0 0 0 -0.002,0.267578 l 2.841796,2.841797 a 0.18899538,0.18899538 0 0 0 0.134766,0.05469 h 22.673828 a 0.18899538,0.18899538 0 0 0 0.134766,-0.05469 l 2.832031,-2.841797 a 0.18899538,0.18899538 0 0 0 0,-0.267578 l -2.832031,-2.832032 a 0.18899538,0.18899538 0 0 0 -0.134766,-0.05469 H 19.84375 a 0.18899538,0.18899538 0 0 0 -0.01953,0 z m 44.410156,0 a 0.18899538,0.18899538 0 0 0 -0.115234,0.05469 l -2.841797,2.832032 a 0.18899538,0.18899538 0 0 0 0,0.267578 l 2.841797,2.841797 a 0.18899538,0.18899538 0 0 0 0.132812,0.05469 h 22.675781 a 0.18899538,0.18899538 0 0 0 0.134766,-0.05469 l 2.832031,-2.841797 a 0.18899538,0.18899538 0 0 0 0,-0.267578 L 87.0625,41.443359 a 0.18899538,0.18899538 0 0 0 -0.134766,-0.05469 H 64.251953 a 0.18899538,0.18899538 0 0 0 -0.01758,0 z m 44.408205,0 a 0.18899538,0.18899538 0 0 0 -0.11328,0.05469 l -2.8418,2.832032 a 0.18899538,0.18899538 0 0 0 0,0.267578 l 2.8418,2.841797 a 0.18899538,0.18899538 0 0 0 0.13281,0.05469 h 22.67578 a 0.18899538,0.18899538 0 0 0 0.13281,-0.05469 l 2.83203,-2.841797 a 0.18899538,0.18899538 0 0 0 0,-0.267578 l -2.83203,-2.832032 a 0.18899538,0.18899538 0 0 0 -0.13281,-0.05469 h -22.67578 a 0.18899538,0.18899538 0 0 0 -0.0195,0 z m -92.583986,3.78125 a 0.18899538,0.18899538 0 0 0 -0.13086,0.05664 l -2.832031,2.832032 a 0.18899538,0.18899538 0 0 0 -0.05664,0.132812 V 70.867188 A 0.18899538,0.18899538 0 0 0 13.095703,71 l 2.832031,2.841797 a 0.18899538,0.18899538 0 0 0 0.267578,0 L 19.027344,71 a 0.18899538,0.18899538 0 0 0 0.05469,-0.132812 V 48.191406 a 0.18899538,0.18899538 0 0 0 -0.05469,-0.132812 l -2.832032,-2.832032 a 0.18899538,0.18899538 0 0 0 -0.136718,-0.05664 z m 30.230468,0 a 0.18899538,0.18899538 0 0 0 -0.130859,0.05664 l -2.832031,2.832032 a 0.18899538,0.18899538 0 0 0 -0.05664,0.132812 V 70.867188 A 0.18899538,0.18899538 0 0 0 43.326172,71 l 2.832031,2.841797 a 0.18899538,0.18899538 0 0 0 0.267578,0 L 49.265625,71 a 0.18899538,0.18899538 0 0 0 0.05664,-0.132812 V 48.191406 a 0.18899538,0.18899538 0 0 0 -0.05664,-0.132812 l -2.841797,-2.832032 a 0.18899538,0.18899538 0 0 0 -0.134766,-0.05664 z m 14.177735,0 a 0.18899538,0.18899538 0 0 0 -0.130859,0.05664 l -2.832032,2.832032 a 0.18899538,0.18899538 0 0 0 -0.05469,0.132812 V 70.867188 A 0.18899538,0.18899538 0 0 0 57.503906,71 l 2.832032,2.841797 a 0.18899538,0.18899538 0 0 0 0.267578,0 L 63.435547,71 a 0.18899538,0.18899538 0 0 0 0.05664,-0.132812 V 48.191406 a 0.18899538,0.18899538 0 0 0 -0.05664,-0.132812 l -2.832031,-2.832032 a 0.18899538,0.18899538 0 0 0 -0.136719,-0.05664 z m 30.230469,0 a 0.18899538,0.18899538 0 0 0 -0.13086,0.05664 l -2.832031,2.832032 a 0.18899538,0.18899538 0 0 0 -0.05469,0.132812 V 70.867188 A 0.18899538,0.18899538 0 0 0 87.734375,71 l 2.832031,2.841797 a 0.18899538,0.18899538 0 0 0 0.267578,0 L 93.675781,71 a 0.18899538,0.18899538 0 0 0 0.05469,-0.132812 V 48.191406 a 0.18899538,0.18899538 0 0 0 -0.05469,-0.132812 l -2.841797,-2.832032 a 0.18899538,0.18899538 0 0 0 -0.136718,-0.05664 z m 14.179684,0 a 0.18899538,0.18899538 0 0 0 -0.13086,0.05664 l -2.83203,2.832032 a 0.18899538,0.18899538 0 0 0 -0.0547,0.132812 V 70.867188 A 0.18899538,0.18899538 0 0 0 101.91406,71 l 2.83203,2.841797 a 0.18899538,0.18899538 0 0 0 0.26758,0 L 107.8457,71 a 0.18899538,0.18899538 0 0 0 0.0547,-0.132812 V 48.191406 a 0.18899538,0.18899538 0 0 0 -0.0547,-0.132812 l -2.83203,-2.832032 a 0.18899538,0.18899538 0 0 0 -0.13672,-0.05664 z m 30.23047,0 a 0.18899538,0.18899538 0 0 0 -0.13086,0.05664 l -2.83203,2.832032 a 0.18899538,0.18899538 0 0 0 -0.0547,0.132812 V 70.867188 A 0.18899538,0.18899538 0 0 0 132.14453,71 l 2.83203,2.841797 a 0.18899538,0.18899538 0 0 0 0.26758,0 L 138.08594,71 a 0.18899538,0.18899538 0 0 0 0.0547,-0.132812 V 48.191406 a 0.18899538,0.18899538 0 0 0 -0.0547,-0.132812 l -2.8418,-2.832032 a 0.18899538,0.18899538 0 0 0 -0.13672,-0.05664 z M 19.824219,71.628906 a 0.18899538,0.18899538 0 0 0 -0.115235,0.05469 l -2.839843,2.832031 a 0.18899538,0.18899538 0 0 0 0,0.267578 l 2.839843,2.832031 a 0.18899538,0.18899538 0 0 0 0.134766,0.05469 h 22.673828 a 0.18899538,0.18899538 0 0 0 0.134766,-0.05469 l 2.832031,-2.832031 a 0.18899538,0.18899538 0 0 0 0,-0.267578 l -2.832031,-2.832031 a 0.18899538,0.18899538 0 0 0 -0.134766,-0.05469 H 19.84375 a 0.18899538,0.18899538 0 0 0 -0.01953,0 z m 44.410156,0 a 0.18899538,0.18899538 0 0 0 -0.115234,0.05469 l -2.841797,2.832031 a 0.18899538,0.18899538 0 0 0 0,0.267578 l 2.841797,2.832031 a 0.18899538,0.18899538 0 0 0 0.132812,0.05469 h 22.675781 a 0.18899538,0.18899538 0 0 0 0.134766,-0.05469 l 2.832031,-2.832031 a 0.18899538,0.18899538 0 0 0 0,-0.267578 L 87.0625,71.683594 a 0.18899538,0.18899538 0 0 0 -0.134766,-0.05469 H 64.251953 a 0.18899538,0.18899538 0 0 0 -0.01758,0 z m 44.408205,0 a 0.18899538,0.18899538 0 0 0 -0.11328,0.05469 l -2.8418,2.832031 a 0.18899538,0.18899538 0 0 0 0,0.267578 l 2.8418,2.832031 a 0.18899538,0.18899538 0 0 0 0.13281,0.05469 h 22.67578 a 0.18899538,0.18899538 0 0 0 0.13281,-0.05469 l 2.83203,-2.832031 a 0.18899538,0.18899538 0 0 0 0,-0.267578 l -2.83203,-2.832031 a 0.18899538,0.18899538 0 0 0 -0.13281,-0.05469 h -22.67578 a 0.18899538,0.18899538 0 0 0 -0.0195,0 z M 10.395178,20.795113 a 3.7795297,3.7795297 0 0 1 -3.7795296,3.77953 3.7795297,3.7795297 0 0 1 -3.7795298,-3.77953 3.7795297,3.7795297 0 0 1 3.7795298,-3.779529 3.7795297,3.7795297 0 0 1 3.7795296,3.779529 z M 148.58997,33.028454 a 0.28349284,0.28349284 0 0 0 -0.24844,0.163369 l -0.75112,1.609556 -0.75112,-1.609556 a 0.28349284,0.28349284 0 0 0 -0.54034,0.119868 v 3.024 a 0.28349284,0.28349284 0 1 0 0.56692,0 v -1.746262 l 0.46766,1.002131 a 0.28349284,0.28349284 0 0 0 0.51376,0 l 0.46766,-1.002131 v 1.746262 a 0.28349284,0.28349284 0 1 0 0.56692,0 v -3.024 a 0.28349284,0.28349284 0 0 0 -0.2919,-0.283237 z m -5.03156,-2.25e-4 a 0.28349284,0.28349284 0 0 0 -0.28346,0.283462 v 1.537688 a 0.28349284,0.28349284 0 0 0 0,0.09182 v 1.394494 a 0.28349284,0.28349284 0 1 0 0.56692,0 v -1.156538 h 0.86854 a 0.28349284,0.28349284 0 0 0 0.12677,-0.02992 l 0.288,-0.144 a 0.28349284,0.28349284 0 0 0 0.0737,-0.0531 l 0.144,-0.144 a 0.28349284,0.28349284 0 0 0 0.0531,-0.07367 l 0.144,-0.288 a 0.28349284,0.28349284 0 0 0 0.0299,-0.126769 v -0.432 a 0.28349284,0.28349284 0 0 0 -0.0299,-0.126769 l -0.144,-0.288 a 0.28349284,0.28349284 0 0 0 -0.0531,-0.07367 l -0.144,-0.144 a 0.28349284,0.28349284 0 0 0 -0.0737,-0.0531 l -0.288,-0.144 a 0.28349284,0.28349284 0 0 0 -0.12677,-0.02992 z m 0.28346,0.566924 h 0.80162 l 0.18702,0.09351 0.0789,0.07894 0.0935,0.187013 v 0.298162 l -0.0935,0.187013 -0.0789,0.07894 -0.18702,0.09351 h -0.80162 z m -3.30746,-0.566924 a 0.28349284,0.28349284 0 0 0 -0.28346,0.283462 v 1.393688 a 0.28349284,0.28349284 0 0 0 0,0.09182 v 1.538494 a 0.28349284,0.28349284 0 0 0 0.28346,0.283462 h 1.152 a 0.28349284,0.28349284 0 0 0 0.12677,-0.02992 l 0.288,-0.144 a 0.28349284,0.28349284 0 0 0 0.0737,-0.0531 l 0.144,-0.144 a 0.28349284,0.28349284 0 0 0 0.0531,-0.07367 l 0.144,-0.288 a 0.28349284,0.28349284 0 0 0 0.0299,-0.126769 v -0.432 a 0.28349284,0.28349284 0 0 0 -0.0299,-0.126769 l -0.144,-0.288 a 0.28349284,0.28349284 0 0 0 -0.0531,-0.07367 l -0.144,-0.144 a 0.28349284,0.28349284 0 0 0 -0.0163,-0.01478 l 0.0163,-0.01635 a 0.28349284,0.28349284 0 0 0 0.0531,-0.07367 l 0.144,-0.288 a 0.28349284,0.28349284 0 0 0 0.0299,-0.126769 v -0.288 a 0.28349284,0.28349284 0 0 0 -0.0299,-0.126769 l -0.144,-0.288 a 0.28349284,0.28349284 0 0 0 -0.0531,-0.07367 l -0.144,-0.144 a 0.28349284,0.28349284 0 0 0 -0.0737,-0.0531 l -0.288,-0.144 a 0.28349284,0.28349284 0 0 0 -0.12677,-0.02992 z m 0.28346,0.566924 h 0.65762 l 0.18702,0.09351 0.0789,0.07894 0.0935,0.187013 v 0.154162 l -0.0935,0.187013 -0.0789,0.07894 -0.18702,0.09351 h -0.65762 z m 0,1.44 h 0.67855 l 0.32486,0.108301 0.0642,0.06414 0.0935,0.187013 v 0.298163 l -0.0935,0.187012 -0.0789,0.07894 -0.18702,0.09351 h -0.80162 z m 7.84774,16.791396 a 0.37799076,0.37799076 0 0 0 -0.16903,0.0399 l -0.288,0.144 a 0.37799076,0.37799076 0 0 0 -0.0982,0.0708 l -0.144,0.144 a 0.37799076,0.37799076 0 1 0 0.53449,0.534488 l 0.10063,-0.100613 0.15336,-0.07669 h 0.54154 l 0.15336,0.07669 0.0572,0.05724 0.0767,0.153356 v 0.137438 l -0.0964,0.289162 -1.66491,1.664926 a 0.37799076,0.37799076 0 0 0 0.26725,0.645187 h 1.872 a 0.37799076,0.37799076 0 1 0 0,-0.755887 h -0.95957 l 1.08281,-1.082813 a 0.37799076,0.37799076 0 0 0 0.0913,-0.147731 l 0.144,-0.432 a 0.37799076,0.37799076 0 0 0 0.0194,-0.119513 v -0.288 a 0.37799076,0.37799076 0 0 0 -0.0399,-0.169031 l -0.144,-0.288 a 0.37799076,0.37799076 0 0 0 -0.0708,-0.09821 l -0.144,-0.144 a 0.37799076,0.37799076 0 0 0 -0.0982,-0.0708 l -0.288,-0.144 a 0.37799076,0.37799076 0 0 0 -0.16903,-0.0399 z m -2.87822,-0.0024 a 0.37799076,0.37799076 0 0 0 -0.0878,0.01149 0.37799076,0.37799076 0 0 0 -0.12379,0.05124 l -0.24718,0.12358 a 0.37799076,0.37799076 0 0 0 -0.0982,0.0708 l -0.288,0.288 a 0.37799076,0.37799076 0 0 0 -0.0994,0.175576 l -0.144,0.576 a 0.37799076,0.37799076 0 0 0 -0.0113,0.09167 v 1.008 a 0.37799076,0.37799076 0 0 0 0.0113,0.09167 l 0.144,0.576 a 0.37799076,0.37799076 0 0 0 0.0994,0.175575 l 0.288,0.288 a 0.37799076,0.37799076 0 0 0 0.0982,0.0708 l 0.288,0.144 a 0.37799076,0.37799076 0 0 0 0.16903,0.0399 h 0.576 a 0.37799076,0.37799076 0 0 0 0.16903,-0.0399 l 0.288,-0.144 a 0.37799076,0.37799076 0 0 0 0.0982,-0.0708 l 0.288,-0.288 a 0.37799076,0.37799076 0 0 0 0.0994,-0.175575 l 0.144,-0.576 a 0.37799076,0.37799076 0 0 0 0.0113,-0.09167 v -1.008 a 0.37799076,0.37799076 0 0 0 -0.0113,-0.09167 l -0.144,-0.576 a 0.37799076,0.37799076 0 0 0 -0.0994,-0.175576 l -0.288,-0.288 a 0.37799076,0.37799076 0 0 0 -0.0982,-0.0708 l -0.288,-0.144 a 0.37799076,0.37799076 0 0 0 -0.16903,-0.0399 h -0.53057 a 0.37799076,0.37799076 0 0 0 -0.0437,-0.0024 z m 0.0875,0.758306 h 0.39754 l 0.15336,0.07669 0.1706,0.170607 0.10733,0.4293 v 0.914925 l -0.10733,0.4293 -0.1706,0.170606 -0.15336,0.07669 h -0.39754 l -0.15336,-0.07669 -0.1706,-0.170606 -0.10733,-0.4293 V 53.25903 l 0.10733,-0.4293 0.1706,-0.170607 z m -3.68923,-0.755887 a 0.37799076,0.37799076 0 0 0 -0.37794,0.377943 v 1.522238 a 0.37799076,0.37799076 0 0 0 0,0.122494 v 1.379268 a 0.37799076,0.37799076 0 1 0 0.75588,0 v -1.062056 h 0.77406 a 0.37799076,0.37799076 0 0 0 0.16903,-0.0399 l 0.288,-0.144 a 0.37799076,0.37799076 0 0 0 0.0982,-0.0708 l 0.144,-0.144 a 0.37799076,0.37799076 0 0 0 0.0708,-0.09821 l 0.144,-0.288 a 0.37799076,0.37799076 0 0 0 0.0399,-0.169031 v -0.432 a 0.37799076,0.37799076 0 0 0 -0.0399,-0.169031 l -0.144,-0.288 a 0.37799076,0.37799076 0 0 0 -0.0708,-0.09821 l -0.144,-0.144 a 0.37799076,0.37799076 0 0 0 -0.0982,-0.0708 l -0.288,-0.144 a 0.37799076,0.37799076 0 0 0 -0.16903,-0.0399 z m 0.37794,0.755887 h 0.68483 l 0.15336,0.07669 0.0572,0.05724 0.0767,0.153356 v 0.253538 l -0.0767,0.153356 -0.0572,0.05724 -0.15336,0.07669 h -0.68483 z m -2.82594,-0.755887 a 0.37799076,0.37799076 0 0 0 -0.16903,0.0399 l -0.288,0.144 a 0.37799076,0.37799076 0 0 0 -0.0982,0.0708 l -0.144,0.144 a 0.37799076,0.37799076 0 0 0 -0.0708,0.09821 l -0.144,0.288 a 0.37799076,0.37799076 0 0 0 -0.0399,0.169031 v 0.288 a 0.37799076,0.37799076 0 0 0 0.0399,0.169031 l 0.144,0.288 a 0.37799076,0.37799076 0 0 0 0.0708,0.09821 l 0.144,0.144 a 0.37799076,0.37799076 0 0 0 0.0982,0.0708 l 0.288,0.144 a 0.37799076,0.37799076 0 0 0 0.0774,0.02863 l 0.53575,0.133932 0.19605,0.09802 0.0572,0.05724 0.0767,0.153356 v 0.109538 l -0.0767,0.153357 -0.0572,0.05724 -0.15336,0.07669 h -0.56944 l -0.37382,-0.124613 a 0.37799076,0.37799076 0 1 0 -0.23902,0.717113 l 0.432,0.144 a 0.37799076,0.37799076 0 0 0 0.11951,0.01939 h 0.72 a 0.37799076,0.37799076 0 0 0 0.16903,-0.0399 l 0.288,-0.144 a 0.37799076,0.37799076 0 0 0 0.0982,-0.0708 l 0.144,-0.144 a 0.37799076,0.37799076 0 0 0 0.0708,-0.09821 l 0.144,-0.288 a 0.37799076,0.37799076 0 0 0 0.0399,-0.169032 v -0.288 a 0.37799076,0.37799076 0 0 0 -0.0399,-0.169031 l -0.144,-0.288 a 0.37799076,0.37799076 0 0 0 -0.0708,-0.09821 l -0.144,-0.144 a 0.37799076,0.37799076 0 0 0 -0.0982,-0.0708 l -0.288,-0.144 a 0.37799076,0.37799076 0 0 0 -0.0774,-0.02863 l -0.53575,-0.133931 -0.19605,-0.09802 -0.0572,-0.05724 -0.0767,-0.153356 v -0.109538 l 0.0767,-0.153356 0.0572,-0.05724 0.15336,-0.07669 h 0.56943 l 0.37383,0.124612 a 0.37799076,0.37799076 0 1 0 0.23902,-0.717112 l -0.432,-0.144 a 0.37799076,0.37799076 0 0 0 -0.11951,-0.01939 z" />
  <g
     style="fill:#000000;fill-opacity:1;stroke:#000000;stroke-width:39.37009811;stroke-linecap:round;stroke-linejoin:round;stroke-opacity:1"
     id="g80"
     transform="translate(-1023,-1152.0324)" />
  <g
     style="fill:#000000;fill-opacity:1;stroke:#000000;stroke-width:39.37009811;stroke-linecap:round;stroke-linejoin:round;stroke-opacity:1"
     id="g82"
     transform="translate(-1023,-1152.0324)" />
  <g
     style="fill:#000000;fill-opacity:1;stroke:#000000;stroke-width:39.37009811;stroke-linecap:round;stroke-linejoin:round;stroke-opacity:1"
     id="g84"
     transform="translate(-1023,-1152.0324)" />
  <g
     style="fill:#000000;fill-opacity:1;stroke:#000000;stroke-width:39.37009811;stroke-linecap:round;stroke-linejoin:round;stroke-opacity:1"
     id="g86"
     transform="translate(-1023,-1152.0324)" />
  <g
     style="fill:#000000;fill-opacity:1;stroke:#000000;stroke-width:39.37009811;stroke-linecap:round;stroke-linejoin:round;stroke-opacity:1"
     id="g88"
     transform="translate(-1023,-1152.0324)" />
  <g
     style="fill:#000000;fill-opacity:1;stroke:#000000;stroke-width:39.37009811;stroke-linecap:round;stroke-linejoin:round;stroke-opacity:1"
     id="g90"
     transform="translate(-1023,-1152.0324)" />
  <g
     style="fill:#000000;fill-opacity:1;stroke:#000000;stroke-width:39.37009811;stroke-linecap:round;stroke-linejoin:round;stroke-opacity:1"
     id="g92"
     transform="translate(-1023,-1152.0324)" />
  <g
     style="fill:#000000;fill-opacity:1;stroke:#000000;stroke-width:39.37009811;stroke-linecap:round;stroke-linejoin:round;stroke-opacity:1"
     id="g94"
     transform="translate(-1023,-1152.0324)" />
  <g
     style="fill:#000000;fill-opacity:1;stroke:#000000;stroke-width:39.37009811;stroke-linecap:round;stroke-linejoin:round;stroke-opacity:1"
     id="g96"
     transform="translate(-1023,-1152.0324)" />
  <g
     style="fill:#000000;fill-opacity:1;stroke:#000000;stroke-width:39.37009811;stroke-linecap:round;stroke-linejoin:round;stroke-opacity:1"
     id="g98"
     transform="translate(-1023,-1152.0324)" />
  <g
     style="fill:#000000;fill-opacity:1;stroke:#000000;stroke-width:39.37009811;stroke-linecap:round;stroke-linejoin:round;stroke-opacity:1"
     id="g100"
     transform="translate(-1023,-1152.0324)" />
  <g
     style="fill:#000000;fill-opacity:1;stroke:#000000;stroke-width:39.37009811;stroke-linecap:round;stroke-linejoin:round;stroke-opacity:1"
     id="g102"
     transform="translate(-1023,-1152.0324)" />
  <g
     style="fill:#000000;fill-opacity:1;stroke:#000000;stroke-width:39.37009811;stroke-linecap:round;stroke-linejoin:round;stroke-opacity:1"
     id="g104"
     transform="translate(-1023,-1152.0324)" />
  <g
     style="fill:#000000;fill-opacity:1;stroke:#000000;stroke-width:39.37009811;stroke-linecap:round;stroke-linejoin:round;stroke-opacity:1"
     id="g106"
     transform="translate(-1023,-1152.0324)" />
  <g
     style="fill:#000000;fill-opacity:1;stroke:#000000;stroke-width:39.37009811;stroke-linecap:round;stroke-linejoin:round;stroke-opacity:1"
     id="g108"
     transform="translate(-1023,-1152.0324)" />
  <g
     style="fill:#000000;fill-opacity:1;stroke:#000000;stroke-width:39.37009811;stroke-linecap:round;stroke-linejoin:round;stroke-opacity:1"
     id="g110"
     transform="translate(-1023,-1152.0324)" />
  <g
     style="fill:#000000;fill-opacity:1;stroke:#000000;stroke-width:39.37009811;stroke-linecap:round;stroke-linejoin:round;stroke-opacity:1"
     id="g112"
     transform="translate(-1023,-1152.0324)" />
  <g
     style="fill:#000000;fill-opacity:1;stroke:#000000;stroke-width:39.37009811;stroke-linecap:round;stroke-linejoin:round;stroke-opacity:1"
     id="g114"
     transform="translate(-1023,-1152.0324)" />
  <g
     style="fill:#000000;fill-opacity:1;stroke:#000000;stroke-width:39.37009811;stroke-linecap:round;stroke-linejoin:round;stroke-opacity:1"
     id="g116"
     transform="translate(-1023,-1152.0324)" />
  <g
     style="fill:#000000;fill-opacity:1;stroke:#000000;stroke-width:39.37009811;stroke-linecap:round;stroke-linejoin:round;stroke-opacity:1"
     id="g118"
     transform="translate(-1023,-1152.0324)" />
  <g
     style="fill:#000000;fill-opacity:1;stroke:#000000;stroke-width:39.37009811;stroke-linecap:round;stroke-linejoin:round;stroke-opacity:1"
     id="g120"
     transform="translate(-1023,-1152.0324)" />
  <g
     style="fill:#000000;fill-opacity:1;stroke:#000000;stroke-width:39.37009811;stroke-linecap:round;stroke-linejoin:round;stroke-opacity:1"
     id="g122"
     transform="translate(-1023,-1152.0324)" />
  <g
     style="fill:#000000;fill-opacity:1;stroke:#000000;stroke-width:39.37009811;stroke-linecap:round;stroke-linejoin:round;stroke-opacity:1"
     id="g124"
     transform="translate(-1023,-1152.0324)" />
  <g
     style="fill:#000000;fill-opacity:1;stroke:#000000;stroke-width:39.37009811;stroke-linecap:round;stroke-linejoin:round;stroke-opacity:1"
     id="g126"
     transform="translate(-1023,-1152.0324)" />
  <g
     style="fill:#000000;fill-opacity:1;stroke:#000000;stroke-width:39.37009811;stroke-linecap:round;stroke-linejoin:round;stroke-opacity:1"
     id="g128"
     transform="translate(-1023,-1152.0324)" />
  <g
     style="fill:#000000;fill-opacity:1;stroke:#000000;stroke-width:39.37009811;stroke-linecap:round;stroke-linejoin:round;stroke-opacity:1"
     id="g130"
     transform="translate(-1023,-1152.0324)" />
  <g
     style="fill:#000000;fill-opacity:1;stroke:#000000;stroke-width:39.37009811;stroke-linecap:round;stroke-linejoin:round;stroke-opacity:1"
     id="g132"
     transform="translate(-1023,-1152.0324)" />
  <g
     style="fill:#000000;fill-opacity:1;stroke:#000000;stroke-width:39.37009811;stroke-linecap:round;stroke-linejoin:round;stroke-opacity:1"
     id="g134"
     transform="translate(-1023,-1152.0324)" />
  <g
     style="fill:#000000;fill-opacity:1;stroke:#000000;stroke-width:39.37009811;stroke-linecap:round;stroke-linejoin:round;stroke-opacity:1"
     id="g136"
     transform="translate(-1023,-1152.0324)" />
  <g
     style="fill:#000000;fill-opacity:1;stroke:#000000;stroke-width:39.37009811;stroke-linecap:round;stroke-linejoin:round;stroke-opacity:1"
     id="g138"
     transform="translate(-1023,-1152.0324)" />
  <g
     style="fill:#000000;fill-opacity:1;stroke:#000000;stroke-width:39.37009811;stroke-linecap:round;stroke-linejoin:round;stroke-opacity:1"
     id="g140"
     transform="translate(-1023,-1152.0324)" />
  <g
     style="fill:#000000;fill-opacity:1;stroke:#000000;stroke-width:39.37009811;stroke-linecap:round;stroke-linejoin:round;stroke-opacity:1"
     id="g142"
     transform="translate(-1023,-1152.0324)" />
  <g
     style="fill:#000000;fill-opacity:1;stroke:#000000;stroke-width:39.37009811;stroke-linecap:round;stroke-linejoin:round;stroke-opacity:1"
     id="g144"
     transform="translate(-1023,-1152.0324)" />
  <g
     style="fill:#000000;fill-opacity:1;stroke:#000000;stroke-width:39.37009811;stroke-linecap:round;stroke-linejoin:round;stroke-opacity:1"
     id="g146"
     transform="translate(-1023,-1152.0324)" />
  <g
     style="fill:#000000;fill-opacity:1;stroke:#000000;stroke-width:39.37009811;stroke-linecap:round;stroke-linejoin:round;stroke-opacity:1"
     id="g148"
     transform="translate(-1023,-1152.0324)" />
  <g
     style="fill:#000000;fill-opacity:1;stroke:#000000;stroke-width:39.37009811;stroke-linecap:round;stroke-linejoin:round;stroke-opacity:1"
     id="g150"
     transform="translate(-1023,-1152.0324)" />
  <g
     style="fill:#000000;fill-opacity:1;stroke:#000000;stroke-width:39.37009811;stroke-linecap:round;stroke-linejoin:round;stroke-opacity:1"
     id="g152"
     transform="translate(-1023,-1152.0324)" />
  <g
     style="fill:#000000;fill-opacity:1;stroke:#000000;stroke-width:39.37009811;stroke-linecap:round;stroke-linejoin:round;stroke-opacity:1"
     id="g154"
     transform="translate(-1023,-1152.0324)" />
  <g
     style="fill:#000000;fill-opacity:1;stroke:#000000;stroke-width:39.37009811;stroke-linecap:round;stroke-linejoin:round;stroke-opacity:1"
     id="g156"
     transform="translate(-1023,-1152.0324)" />
  <g
     style="fill:#000000;fill-opacity:1;stroke:#000000;stroke-width:39.37009811;stroke-linecap:round;stroke-linejoin:round;stroke-opacity:1"
     id="g158"
     transform="translate(-1023,-1152.0324)" />
  <g
     style="fill:#000000;fill-opacity:1;stroke:#000000;stroke-width:39.37009811;stroke-linecap:round;stroke-linejoin:round;stroke-opacity:1"
     id="g160"
     transform="translate(-1023,-1152.0324)" />
  <g
     style="fill:#000000;fill-opacity:1;stroke:#000000;stroke-width:39.37009811;stroke-linecap:round;stroke-linejoin:round;stroke-opacity:1"
     id="g162"
     transform="translate(-1023,-1152.0324)" />
  <g
     style="fill:#000000;fill-opacity:1;stroke:#000000;stroke-width:39.37009811;stroke-linecap:round;stroke-linejoin:round;stroke-opacity:1"
     id="g164"
     transform="translate(-1023,-1152.0324)" />
  <g
     style="fill:#000000;fill-opacity:1;stroke:#000000;stroke-width:39.37009811;stroke-linecap:round;stroke-linejoin:round;stroke-opacity:1"
     id="g166"
     transform="translate(-1023,-1152.0324)" />
  <g
     style="fill:#000000;fill-opacity:1;stroke:#000000;stroke-width:39.37009811;stroke-linecap:round;stroke-linejoin:round;stroke-opacity:1"
     id="g168"
     transform="translate(-1023,-1152.0324)" />
  <g
     style="fill:#000000;fill-opacity:1;stroke:#000000;stroke-width:39.37009811;stroke-linecap:round;stroke-linejoin:round;stroke-opacity:1"
     id="g170"
     transform="translate(-1023,-1152.0324)" />
  <g
     style="fill:#000000;fill-opacity:1;stroke:#000000;stroke-width:39.37009811;stroke-linecap:round;stroke-linejoin:round;stroke-opacity:1"
     id="g172"
     transform="translate(-1023,-1152.0324)" />
  <g
     style="fill:#000000;fill-opacity:1;stroke:#000000;stroke-width:39.37009811;stroke-linecap:round;stroke-linejoin:round;stroke-opacity:1"
     id="g174"
     transform="translate(-1023,-1152.0324)" />
  <g
     style="fill:#000000;fill-opacity:1;stroke:#000000;stroke-width:39.37009811;stroke-linecap:round;stroke-linejoin:round;stroke-opacity:1"
     id="g176"
     transform="translate(-1023,-1152.0324)" />
  <g
     style="fill:#000000;fill-opacity:1;stroke:#000000;stroke-width:39.37009811;stroke-linecap:round;stroke-linejoin:round;stroke-opacity:1"
     id="g178"
     transform="translate(-1023,-1152.0324)" />
  <g
     style="fill:#000000;fill-opacity:1;stroke:#000000;stroke-width:39.37009811;stroke-linecap:round;stroke-linejoin:round;stroke-opacity:1"
     id="g180"
     transform="translate(-1023,-1152.0324)" />
  <g
     style="fill:#000000;fill-opacity:1;stroke:#000000;stroke-width:39.37009811;stroke-linecap:round;stroke-linejoin:round;stroke-opacity:1"
     id="g182"
     transform="translate(-1023,-1152.0324)" />
  <g
     style="fill:#000000;fill-opacity:1;stroke:#000000;stroke-width:39.37009811;stroke-linecap:round;stroke-linejoin:round;stroke-opacity:1"
     id="g184"
     transform="translate(-1023,-1152.0324)" />
  <g
     style="fill:#000000;fill-opacity:1;stroke:#000000;stroke-width:39.37009811;stroke-linecap:round;stroke-linejoin:round;stroke-opacity:1"
     id="g186"
     transform="translate(-1023,-1152.0324)" />
  <g
     style="fill:#000000;fill-opacity:1;stroke:#000000;stroke-width:39.37009811;stroke-linecap:round;stroke-linejoin:round;stroke-opacity:1"
     id="g188"
     transform="translate(-1023,-1152.0324)" />
  <g
     style="fill:#000000;fill-opacity:1;stroke:#000000;stroke-width:39.37009811;stroke-linecap:round;stroke-linejoin:round;stroke-opacity:1"
     id="g190"
     transform="translate(-1023,-1152.0324)" />
  <g
     style="fill:#000000;fill-opacity:1;stroke:#000000;stroke-width:39.37009811;stroke-linecap:round;stroke-linejoin:round;stroke-opacity:1"
     id="g192"
     transform="translate(-1023,-1152.0324)" />
  <g
     style="fill:#000000;fill-opacity:1;stroke:#000000;stroke-width:39.37009811;stroke-linecap:round;stroke-linejoin:round;stroke-opacity:1"
     id="g194"
     transform="translate(-1023,-1152.0324)" />
  <g
     style="fill:#000000;fill-opacity:1;stroke:#000000;stroke-width:39.37009811;stroke-linecap:round;stroke-linejoin:round;stroke-opacity:1"
     id="g196"
     transform="translate(-1023,-1152.0324)" />
  <g
     style="fill:#000000;fill-opacity:1;stroke:#000000;stroke-width:39.37009811;stroke-linecap:round;stroke-linejoin:round;stroke-opacity:1"
     id="g198"
     transform="translate(-1023,-1152.0324)" />
  <g
     style="fill:#000000;fill-opacity:1;stroke:#000000;stroke-width:39.37009811;stroke-linecap:round;stroke-linejoin:round;stroke-opacity:1"
     id="g200"
     transform="translate(-1023,-1152.0324)" />
  <g
     style="fill:#000000;fill-opacity:1;stroke:#000000;stroke-width:39.37009811;stroke-linecap:round;stroke-linejoin:round;stroke-opacity:1"
     id="g202"
     transform="translate(-1023,-1152.0324)" />
  <g
     style="fill:#000000;fill-opacity:0;stroke:#000000;stroke-width:39.37009811;stroke-linecap:round;stroke-linejoin:round;stroke-opacity:1"
     id="g206"
     transform="translate(-1023,-1152.0324)" />
  <g
     style="fill:#000000;fill-opacity:0;stroke:#000000;stroke-width:157.47999573;stroke-linecap:round;stroke-linejoin:round;stroke-opacity:1"
     id="g240"
     transform="translate(-1023,-1152.0324)" />
  <g
     style="fill:#000000;fill-opacity:0;stroke:#000000;stroke-width:157.47999573;stroke-linecap:round;stroke-linejoin:round;stroke-opacity:1"
     id="g242"
     transform="translate(-1023,-1152.0324)" />
  <g
     style="fill:#000000;fill-opacity:0;stroke:#000000;stroke-width:157.47999573;stroke-linecap:round;stroke-linejoin:round;stroke-opacity:1"
     id="g244"
     transform="translate(-1023,-1152.0324)" />
  <g
     style="fill:#000000;fill-opacity:0;stroke:#000000;stroke-width:157.47999573;stroke-linecap:round;stroke-linejoin:round;stroke-opacity:1"
     id="g246"
     transform="translate(-1023,-1152.0324)" />
  <g
     style="fill:#000000;fill-opacity:0;stroke:#000000;stroke-width:157.47999573;stroke-linecap:round;stroke-linejoin:round;stroke-opacity:1"
     id="g248"
     transform="translate(-1023,-1152.0324)" />
  <g
     style="fill:#000000;fill-opacity:0;stroke:#000000;stroke-width:157.47999573;stroke-linecap:round;stroke-linejoin:round;stroke-opacity:1"
     id="g250"
     transform="translate(-1023,-1152.0324)" />
  <g
     style="fill:#000000;fill-opacity:0;stroke:#000000;stroke-width:157.47999573;stroke-linecap:round;stroke-linejoin:round;stroke-opacity:1"
     id="g252"
     transform="translate(-1023,-1152.0324)" />
  <g
     style="fill:#000000;fill-opacity:0;stroke:#000000;stroke-width:157.47999573;stroke-linecap:round;stroke-linejoin:round;stroke-opacity:1"
     id="g254"
     transform="translate(-1023,-1152.0324)" />
  <g
     style="fill:#000000;fill-opacity:0;stroke:#000000;stroke-width:157.47999573;stroke-linecap:round;stroke-linejoin:round;stroke-opacity:1"
     id="g256"
     transform="translate(-1023,-1152.0324)" />
  <g
     style="fill:#000000;fill-opacity:0;stroke:#000000;stroke-width:157.47999573;stroke-linecap:round;stroke-linejoin:round;stroke-opacity:1"
     id="g258"
     transform="translate(-1023,-1152.0324)" />
  <g
     style="fill:#000000;fill-opacity:0;stroke:#000000;stroke-width:157.47999573;stroke-linecap:round;stroke-linejoin:round;stroke-opacity:1"
     id="g260"
     transform="translate(-1023,-1152.0324)" />
  <g
     style="fill:#000000;fill-opacity:0;stroke:#000000;stroke-width:157.47999573;stroke-linecap:round;stroke-linejoin:round;stroke-opacity:1"
     id="g262"
     transform="translate(-1023,-1152.0324)" />
  <g
     style="fill:#000000;fill-opacity:0;stroke:#000000;stroke-width:157.47999573;stroke-linecap:round;stroke-linejoin:round;stroke-opacity:1"
     id="g264"
     transform="translate(-1023,-1152.0324)" />
  <g
     style="fill:#000000;fill-opacity:0;stroke:#000000;stroke-width:157.47999573;stroke-linecap:round;stroke-linejoin:round;stroke-opacity:1"
     id="g266"
     transform="translate(-1023,-1152.0324)" />
  <g
     style="fill:#000000;fill-opacity:0;stroke:#000000;stroke-width:157.47999573;stroke-linecap:round;stroke-linejoin:round;stroke-opacity:1"
     id="g268"
     transform="translate(-1023,-1152.0324)" />
  <g
     style="fill:#000000;fill-opacity:0;stroke:#000000;stroke-width:157.47999573;stroke-linecap:round;stroke-linejoin:round;stroke-opacity:1"
     id="g270"
     transform="translate(-1023,-1152.0324)" />
  <g
     style="fill:#000000;fill-opacity:0;stroke:#000000;stroke-width:157.47999573;stroke-linecap:round;stroke-linejoin:round;stroke-opacity:1"
     id="g272"
     transform="translate(-1023,-1152.0324)" />
  <g
     style="fill:#000000;fill-opacity:0;stroke:#000000;stroke-width:157.47999573;stroke-linecap:round;stroke-linejoin:round;stroke-opacity:1"
     id="g274"
     transform="translate(-1023,-1152.0324)" />
  <g
     style="fill:#000000;fill-opacity:0;stroke:#000000;stroke-width:157.47999573;stroke-linecap:round;stroke-linejoin:round;stroke-opacity:1"
     id="g276"
     transform="translate(-1023,-1152.0324)" />
  <g
     style="fill:#000000;fill-opacity:0;stroke:#000000;stroke-width:157.47999573;stroke-linecap:round;stroke-linejoin:round;stroke-opacity:1"
     id="g278"
     transform="translate(-1023,-1152.0324)" />
  <g
     style="fill:#000000;fill-opacity:0;stroke:#000000;stroke-width:157.47999573;stroke-linecap:round;stroke-linejoin:round;stroke-opacity:1"
     id="g280"
     transform="translate(-1023,-1152.0324)" />
  <g
     style="fill:#000000;fill-opacity:0;stroke:#000000;stroke-width:157.47999573;stroke-linecap:round;stroke-linejoin:round;stroke-opacity:1"
     id="g282"
     transform="translate(-1023,-1152.0324)" />
  <g
     style="fill:#000000;fill-opacity:0;stroke:#000000;stroke-width:157.47999573;stroke-linecap:round;stroke-linejoin:round;stroke-opacity:1"
     id="g284"
     transform="translate(-1023,-1152.0324)" />
  <g
     style="fill:#000000;fill-opacity:0;stroke:#000000;stroke-width:157.47999573;stroke-linecap:round;stroke-linejoin:round;stroke-opacity:1"
     id="g286"
     transform="translate(-1023,-1152.0324)" />
  <g
     style="fill:#000000;fill-opacity:0;stroke:#000000;stroke-width:157.47999573;stroke-linecap:round;stroke-linejoin:round;stroke-opacity:1"
     id="g288"
     transform="translate(-1023,-1152.0324)" />
  <g
     style="fill:#000000;fill-opacity:0;stroke:#000000;stroke-width:157.47999573;stroke-linecap:round;stroke-linejoin:round;stroke-opacity:1"
     id="g290"
     transform="translate(-1023,-1152.0324)" />
  <g
     style="fill:#000000;fill-opacity:0;stroke:#000000;stroke-width:157.47999573;stroke-linecap:round;stroke-linejoin:round;stroke-opacity:1"
     id="g292"
     transform="translate(-1023,-1152.0324)" />
  <g
     style="fill:#000000;fill-opacity:0;stroke:#000000;stroke-width:157.47999573;stroke-linecap:round;stroke-linejoin:round;stroke-opacity:1"
     id="g294"
     transform="translate(-1023,-1152.0324)" />
  <g
     style="fill:#000000;fill-opacity:0;stroke:#000000;stroke-width:157.47999573;stroke-linecap:round;stroke-linejoin:round;stroke-opacity:1"
     id="g296"
     transform="translate(-1023,-1152.0324)" />
  <g
     style="fill:#000000;fill-opacity:0;stroke:#000000;stroke-width:157.47999573;stroke-linecap:round;stroke-linejoin:round;stroke-opacity:1"
     id="g298"
     transform="translate(-1023,-1152.0324)" />
  <g
     style="fill:#000000;fill-opacity:0;stroke:#000000;stroke-width:157.47999573;stroke-linecap:round;stroke-linejoin:round;stroke-opacity:1"
     id="g300"
     transform="translate(-1023,-1152.0324)" />
  <g
     style="fill:#000000;fill-opacity:0;stroke:#000000;stroke-width:157.47999573;stroke-linecap:round;stroke-linejoin:round;stroke-opacity:1"
     id="g302"
     transform="translate(-1023,-1152.0324)" />
  <g
     style="fill:#000000;fill-opacity:0;stroke:#000000;stroke-width:157.47999573;stroke-linecap:round;stroke-linejoin:round;stroke-opacity:1"
     id="g304"
     transform="translate(-1023,-1152.0324)" />
  <g
     style="fill:#000000;fill-opacity:0;stroke:#000000;stroke-width:157.47999573;stroke-linecap:round;stroke-linejoin:round;stroke-opacity:1"
     id="g306"
     transform="translate(-1023,-1152.0324)" />
  <g
     style="fill:#000000;fill-opacity:0;stroke:#000000;stroke-width:157.47999573;stroke-linecap:round;stroke-linejoin:round;stroke-opacity:1"
     id="g308"
     transform="translate(-1023,-1152.0324)" />
  <g
     style="fill:#000000;fill-opacity:0;stroke:#000000;stroke-width:157.47999573;stroke-linecap:round;stroke-linejoin:round;stroke-opacity:1"
     id="g310"
     transform="translate(-1023,-1152.0324)" />
  <g
     style="fill:#000000;fill-opacity:0;stroke:#000000;stroke-width:157.47999573;stroke-linecap:round;stroke-linejoin:round;stroke-opacity:1"
     id="g312"
     transform="translate(-1023,-1152.0324)" />
  <g
     style="fill:#000000;fill-opacity:0;stroke:#000000;stroke-width:157.47999573;stroke-linecap:round;stroke-linejoin:round;stroke-opacity:1"
     id="g314"
     transform="translate(-1023,-1152.0324)" />
  <g
     style="fill:#000000;fill-opacity:0;stroke:#000000;stroke-width:157.47999573;stroke-linecap:round;stroke-linejoin:round;stroke-opacity:1"
     id="g316"
     transform="translate(-1023,-1152.0324)" />
  <g
     style="fill:#000000;fill-opacity:0;stroke:#000000;stroke-width:157.47999573;stroke-linecap:round;stroke-linejoin:round;stroke-opacity:1"
     id="g318"
     transform="translate(-1023,-1152.0324)" />
  <g
     style="fill:#000000;fill-opacity:0;stroke:#000000;stroke-width:157.47999573;stroke-linecap:round;stroke-linejoin:round;stroke-opacity:1"
     id="g320"
     transform="translate(-1023,-1152.0324)" />
  <g
     style="fill:#000000;fill-opacity:0;stroke:#000000;stroke-width:157.47999573;stroke-linecap:round;stroke-linejoin:round;stroke-opacity:1"
     id="g322"
     transform="translate(-1023,-1152.0324)" />
  <g
     style="fill:#000000;fill-opacity:0;stroke:#000000;stroke-width:157.47999573;stroke-linecap:round;stroke-linejoin:round;stroke-opacity:1"
     id="g324"
     transform="translate(-1023,-1152.0324)" />
  <g
     style="fill:#000000;fill-opacity:0;stroke:#000000;stroke-width:157.47999573;stroke-linecap:round;stroke-linejoin:round;stroke-opacity:1"
     id="g326"
     transform="translate(-1023,-1152.0324)" />
  <g
     style="fill:#000000;fill-opacity:0;stroke:#000000;stroke-width:157.47999573;stroke-linecap:round;stroke-linejoin:round;stroke-opacity:1"
     id="g328"
     transform="translate(-1023,-1152.0324)" />
  <g
     style="fill:#000000;fill-opacity:0;stroke:#000000;stroke-width:157.47999573;stroke-linecap:round;stroke-linejoin:round;stroke-opacity:1"
     id="g330"
     transform="translate(-1023,-1152.0324)" />
  <g
     style="fill:#000000;fill-opacity:0;stroke:#000000;stroke-width:157.47999573;stroke-linecap:round;stroke-linejoin:round;stroke-opacity:1"
     id="g332"
     transform="translate(-1023,-1152.0324)" />
  <g
     style="fill:#000000;fill-opacity:0;stroke:#000000;stroke-width:157.47999573;stroke-linecap:round;stroke-linejoin:round;stroke-opacity:1"
     id="g334"
     transform="translate(-1023,-1152.0324)" />
  <g
     style="fill:#000000;fill-opacity:0;stroke:#000000;stroke-width:157.47999573;stroke-linecap:round;stroke-linejoin:round;stroke-opacity:1"
     id="g336"
     transform="translate(-1023,-1152.0324)" />
  <g
     style="fill:#000000;fill-opacity:0;stroke:#000000;stroke-width:157.47999573;stroke-linecap:round;stroke-linejoin:round;stroke-opacity:1"
     id="g338"
     transform="translate(-1023,-1152.0324)" />
  <g
     style="fill:#000000;fill-opacity:0;stroke:#000000;stroke-width:157.47999573;stroke-linecap:round;stroke-linejoin:round;stroke-opacity:1"
     id="g340"
     transform="translate(-1023,-1152.0324)" />
  <g
     style="fill:#000000;fill-opacity:0;stroke:#000000;stroke-width:157.47999573;stroke-linecap:round;stroke-linejoin:round;stroke-opacity:1"
     id="g342"
     transform="translate(-1023,-1152.0324)" />
  <g
     style="fill:#000000;fill-opacity:0;stroke:#000000;stroke-width:157.47999573;stroke-linecap:round;stroke-linejoin:round;stroke-opacity:1"
     id="g344"
     transform="translate(-1023,-1152.0324)" />
  <g
     style="fill:#000000;fill-opacity:0;stroke:#000000;stroke-width:157.47999573;stroke-linecap:round;stroke-linejoin:round;stroke-opacity:1"
     id="g346"
     transform="translate(-1023,-1152.0324)" />
  <g
     style="fill:#000000;fill-opacity:0;stroke:#000000;stroke-width:157.47999573;stroke-linecap:round;stroke-linejoin:round;stroke-opacity:1"
     id="g348"
     transform="translate(-1023,-1152.0324)" />
  <g
     style="fill:#000000;fill-opacity:0;stroke:#000000;stroke-width:157.47999573;stroke-linecap:round;stroke-linejoin:round;stroke-opacity:1"
     id="g350"
     transform="translate(-1023,-1152.0324)" />
  <g
     style="fill:#000000;fill-opacity:0;stroke:#000000;stroke-width:157.47999573;stroke-linecap:round;stroke-linejoin:round;stroke-opacity:1"
     id="g352"
     transform="translate(-1023,-1152.0324)" />
  <g
     style="fill:#000000;fill-opacity:0;stroke:#000000;stroke-width:157.47999573;stroke-linecap:round;stroke-linejoin:round;stroke-opacity:1"
     id="g354"
     transform="translate(-1023,-1152.0324)" />
  <g
     style="fill:#000000;fill-opacity:0;stroke:#000000;stroke-width:157.47999573;stroke-linecap:round;stroke-linejoin:round;stroke-opacity:1"
     id="g356"
     transform="translate(-1023,-1152.0324)" />
  <g
     style="fill:#000000;fill-opacity:0;stroke:#000000;stroke-width:157.47999573;stroke-linecap:round;stroke-linejoin:round;stroke-opacity:1"
     id="g358"
     transform="translate(-1023,-1152.0324)" />
  <g
     style="fill:#000000;fill-opacity:0;stroke:#000000;stroke-width:157.47999573;stroke-linecap:round;stroke-linejoin:round;stroke-opacity:1"
     id="g360"
     transform="translate(-1023,-1152.0324)" />
  <g
     style="fill:#000000;fill-opacity:0;stroke:#000000;stroke-width:157.47999573;stroke-linecap:round;stroke-linejoin:round;stroke-opacity:1"
     id="g362"
     transform="translate(-1023,-1152.0324)" />
  <g
     style="fill:#000000;fill-opacity:0;stroke:#000000;stroke-width:157.47999573;stroke-linecap:round;stroke-linejoin:round;stroke-opacity:1"
     id="g364"
     transform="translate(-1023,-1152.0324)" />
</svg>
